<?xml version='1.0' encoding='utf-8'?>
<svg xmlns="http://www.w3.org/2000/svg" version="1.1" width="29.1846mm" height="13.6906mm" viewBox="0.0000 0.0000 29.1846 13.6906">
<title>SVG Image created as QFN-24_L4.0-W4.0-P0.50-BL-EP2.8.svg date 2026/01/20 02:52:44 </title>
  <desc>Image generated by PCBNEW </desc>
<g style="fill:#000000; fill-opacity:1.0000;stroke:#000000; stroke-opacity:1.0000; stroke-linecap:round; stroke-linejoin:round;" transform="translate(0 0) scale(1 1)">
</g>
<g style="fill:none;  stroke:#000000; stroke-width:0.2800; stroke-opacity:1;  stroke-linecap:round; stroke-linejoin:round;">
<path d="M13.3512 9.0582 L13.3512 8.6382 " />
<path d="M13.8512 9.0582 L13.8512 8.6382 " />
<path d="M14.3512 9.0582 L14.3512 8.6382 " />
<path d="M14.8512 9.0582 L14.8512 8.6382 " />
<path d="M15.3512 9.0582 L15.3512 8.6382 " />
<path d="M15.8512 9.0582 L15.8512 8.6382 " />
<path d="M16.3912 8.0983 L16.8112 8.0983 " />
<path d="M16.3912 7.5982 L16.8112 7.5982 " />
<path d="M16.3912 7.0982 L16.8112 7.0982 " />
<path d="M16.3912 6.5982 L16.8112 6.5982 " />
<path d="M16.3912 6.0982 L16.8112 6.0982 " />
<path d="M16.3912 5.5983 L16.8112 5.5983 " />
<path d="M15.8512 5.0583 L15.8512 4.6383 " />
<path d="M15.3512 5.0583 L15.3512 4.6383 " />
<path d="M14.8512 5.0583 L14.8512 4.6383 " />
<path d="M14.3512 5.0583 L14.3512 4.6383 " />
<path d="M13.8512 5.0583 L13.8512 4.6383 " />
<path d="M13.3512 5.0583 L13.3512 4.6383 " />
<path d="M12.3912 5.5983 L12.8112 5.5983 " />
<path d="M12.3912 6.0982 L12.8112 6.0982 " />
<path d="M12.3912 6.5982 L12.8112 6.5982 " />
<path d="M12.3912 7.0982 L12.8112 7.0982 " />
<path d="M12.3912 7.5982 L12.8112 7.5982 " />
<path d="M12.3912 8.0983 L12.8112 8.0983 " />
<path style="fill:#000000; fill-opacity:1.0000; stroke:none;fill-rule:evenodd;" d="M 16.0112,8.2482 13.2112,8.2482 13.2112,5.4482 16.0112,5.4482 Z" /> 
</g>
<g style="fill:none;  stroke:#000000; stroke-width:0.2800; stroke-opacity:1;  stroke-linecap:round; stroke-linejoin:round;">
<path d="M13.3512 9.0582 L13.3512 8.6382 " />
<path d="M13.8512 9.0582 L13.8512 8.6382 " />
<path d="M14.3512 9.0582 L14.3512 8.6382 " />
<path d="M14.8512 9.0582 L14.8512 8.6382 " />
<path d="M15.3512 9.0582 L15.3512 8.6382 " />
<path d="M15.8512 9.0582 L15.8512 8.6382 " />
<path d="M16.3912 8.0983 L16.8112 8.0983 " />
<path d="M16.3912 7.5982 L16.8112 7.5982 " />
<path d="M16.3912 7.0982 L16.8112 7.0982 " />
<path d="M16.3912 6.5982 L16.8112 6.5982 " />
<path d="M16.3912 6.0982 L16.8112 6.0982 " />
<path d="M16.3912 5.5983 L16.8112 5.5983 " />
<path d="M15.8512 5.0583 L15.8512 4.6383 " />
<path d="M15.3512 5.0583 L15.3512 4.6383 " />
<path d="M14.8512 5.0583 L14.8512 4.6383 " />
<path d="M14.3512 5.0583 L14.3512 4.6383 " />
<path d="M13.8512 5.0583 L13.8512 4.6383 " />
<path d="M13.3512 5.0583 L13.3512 4.6383 " />
<path d="M12.3912 5.5983 L12.8112 5.5983 " />
<path d="M12.3912 6.0982 L12.8112 6.0982 " />
<path d="M12.3912 6.5982 L12.8112 6.5982 " />
<path d="M12.3912 7.0982 L12.8112 7.0982 " />
<path d="M12.3912 7.5982 L12.8112 7.5982 " />
<path d="M12.3912 8.0983 L12.8112 8.0983 " />
<path style="fill:#000000; fill-opacity:1.0000; stroke:none;fill-rule:evenodd;" d="M 16.0112,8.2482 13.2112,8.2482 13.2112,5.4482 16.0112,5.4482 Z" /> 
</g>
<g style="fill:none;  stroke:#000000; stroke-width:0.2800; stroke-opacity:1;  stroke-linecap:round; stroke-linejoin:round;">
<path d="M13.3512 9.0582 L13.3512 8.6382 " />
<path d="M13.8512 9.0582 L13.8512 8.6382 " />
<path d="M14.3512 9.0582 L14.3512 8.6382 " />
<path d="M14.8512 9.0582 L14.8512 8.6382 " />
<path d="M15.3512 9.0582 L15.3512 8.6382 " />
<path d="M15.8512 9.0582 L15.8512 8.6382 " />
<path d="M16.3912 8.0983 L16.8112 8.0983 " />
<path d="M16.3912 7.5982 L16.8112 7.5982 " />
<path d="M16.3912 7.0982 L16.8112 7.0982 " />
<path d="M16.3912 6.5982 L16.8112 6.5982 " />
<path d="M16.3912 6.0982 L16.8112 6.0982 " />
<path d="M16.3912 5.5983 L16.8112 5.5983 " />
<path d="M15.8512 5.0583 L15.8512 4.6383 " />
<path d="M15.3512 5.0583 L15.3512 4.6383 " />
<path d="M14.8512 5.0583 L14.8512 4.6383 " />
<path d="M14.3512 5.0583 L14.3512 4.6383 " />
<path d="M13.8512 5.0583 L13.8512 4.6383 " />
<path d="M13.3512 5.0583 L13.3512 4.6383 " />
<path d="M12.3912 5.5983 L12.8112 5.5983 " />
<path d="M12.3912 6.0982 L12.8112 6.0982 " />
<path d="M12.3912 6.5982 L12.8112 6.5982 " />
<path d="M12.3912 7.0982 L12.8112 7.0982 " />
<path d="M12.3912 7.5982 L12.8112 7.5982 " />
<path d="M12.3912 8.0983 L12.8112 8.0983 " />
<path style="fill:#000000; fill-opacity:1.0000; stroke:none;fill-rule:evenodd;" d="M 16.0112,8.2482 13.2112,8.2482 13.2112,5.4482 16.0112,5.4482 Z" /> 
</g>
<g style="fill:none;  stroke:#000000; stroke-width:0.1500; stroke-opacity:1;  stroke-linecap:round; stroke-linejoin:round;">
</g>
<g style="fill:none;  stroke:#000000; stroke-width:0.2000; stroke-opacity:1;  stroke-linecap:round; stroke-linejoin:round;">
<path d="M16.7612 5.0983 L16.7612 4.6982 " />
<path d="M16.7612 4.6982 L16.3612 4.6982 " />
<path d="M12.4612 5.0983 L12.4612 4.6982 " />
<path d="M12.4612 4.6982 L12.8612 4.6982 " />
<path d="M12.8612 8.9982 L12.4612 8.9982 " />
<path d="M12.4612 8.9982 L12.4612 8.5983 " />
<path d="M16.7612 8.5983 L16.7612 8.9982 " />
<path d="M16.7612 8.9982 L16.3612 8.9982 " />
</g>
<g style="fill:none;  stroke:#000000; stroke-width:0.1500; stroke-opacity:1;  stroke-linecap:round; stroke-linejoin:round;">
<text x="14.6012" y="13.3483" textLength="29.2024" font-size="1.3333" lengthAdjust="spacingAndGlyphs" text-anchor="middle" opacity="0" stroke-opacity="0">QFN-24_L4.0-W4.0-P0.50-BL-EP2.8</text>
<g class="stroked-text"><desc>QFN-24_L4.0-W4.0-P0.50-BL-EP2.8</desc>
<path d="M1.0298 13.3983 L0.9345 13.3507 " />
<path d="M0.9345 13.3507 L0.8393 13.2554 " />
<path d="M0.8393 13.2554 L0.6964 13.1126 " />
<path d="M0.6964 13.1126 L0.6012 13.0650 " />
<path d="M0.6012 13.0650 L0.5060 13.0650 " />
<path d="M0.5536 13.3031 L0.4583 13.2554 " />
<path d="M0.4583 13.2554 L0.3631 13.1602 " />
<path d="M0.3631 13.1602 L0.3155 12.9697 " />
<path d="M0.3155 12.9697 L0.3155 12.6364 " />
<path d="M0.3155 12.6364 L0.3631 12.4459 " />
<path d="M0.3631 12.4459 L0.4583 12.3507 " />
<path d="M0.4583 12.3507 L0.5536 12.3031 " />
<path d="M0.5536 12.3031 L0.7440 12.3031 " />
<path d="M0.7440 12.3031 L0.8393 12.3507 " />
<path d="M0.8393 12.3507 L0.9345 12.4459 " />
<path d="M0.9345 12.4459 L0.9821 12.6364 " />
<path d="M0.9821 12.6364 L0.9821 12.9697 " />
<path d="M0.9821 12.9697 L0.9345 13.1602 " />
<path d="M0.9345 13.1602 L0.8393 13.2554 " />
<path d="M0.8393 13.2554 L0.7440 13.3031 " />
<path d="M0.7440 13.3031 L0.5536 13.3031 " />
<path d="M1.7440 12.7793 L1.4107 12.7793 " />
<path d="M1.4107 13.3031 L1.4107 12.3031 " />
<path d="M1.4107 12.3031 L1.8869 12.3031 " />
<path d="M2.2679 13.3031 L2.2679 12.3031 " />
<path d="M2.2679 12.3031 L2.8393 13.3031 " />
<path d="M2.8393 13.3031 L2.8393 12.3031 " />
<path d="M3.3155 12.9221 L4.0774 12.9221 " />
<path d="M4.5060 12.3983 L4.5536 12.3507 " />
<path d="M4.5536 12.3507 L4.6488 12.3031 " />
<path d="M4.6488 12.3031 L4.8869 12.3031 " />
<path d="M4.8869 12.3031 L4.9821 12.3507 " />
<path d="M4.9821 12.3507 L5.0298 12.3983 " />
<path d="M5.0298 12.3983 L5.0774 12.4935 " />
<path d="M5.0774 12.4935 L5.0774 12.5888 " />
<path d="M5.0774 12.5888 L5.0298 12.7316 " />
<path d="M5.0298 12.7316 L4.4583 13.3031 " />
<path d="M4.4583 13.3031 L5.0774 13.3031 " />
<path d="M5.9345 12.6364 L5.9345 13.3031 " />
<path d="M5.6964 12.2554 L5.4583 12.9697 " />
<path d="M5.4583 12.9697 L6.0774 12.9697 " />
<path d="M6.2202 13.3983 L6.9821 13.3983 " />
<path d="M7.6964 13.3031 L7.2202 13.3031 " />
<path d="M7.2202 13.3031 L7.2202 12.3031 " />
<path d="M8.4583 12.6364 L8.4583 13.3031 " />
<path d="M8.2202 12.2554 L7.9821 12.9697 " />
<path d="M7.9821 12.9697 L8.6012 12.9697 " />
<path d="M8.9821 13.2078 L9.0298 13.2554 " />
<path d="M9.0298 13.2554 L8.9821 13.3031 " />
<path d="M8.9821 13.3031 L8.9345 13.2554 " />
<path d="M8.9345 13.2554 L8.9821 13.2078 " />
<path d="M8.9821 13.2078 L8.9821 13.3031 " />
<path d="M9.6488 12.3031 L9.7440 12.3031 " />
<path d="M9.7440 12.3031 L9.8393 12.3507 " />
<path d="M9.8393 12.3507 L9.8869 12.3983 " />
<path d="M9.8869 12.3983 L9.9345 12.4935 " />
<path d="M9.9345 12.4935 L9.9821 12.6840 " />
<path d="M9.9821 12.6840 L9.9821 12.9221 " />
<path d="M9.9821 12.9221 L9.9345 13.1126 " />
<path d="M9.9345 13.1126 L9.8869 13.2078 " />
<path d="M9.8869 13.2078 L9.8393 13.2554 " />
<path d="M9.8393 13.2554 L9.7440 13.3031 " />
<path d="M9.7440 13.3031 L9.6488 13.3031 " />
<path d="M9.6488 13.3031 L9.5536 13.2554 " />
<path d="M9.5536 13.2554 L9.5060 13.2078 " />
<path d="M9.5060 13.2078 L9.4583 13.1126 " />
<path d="M9.4583 13.1126 L9.4107 12.9221 " />
<path d="M9.4107 12.9221 L9.4107 12.6840 " />
<path d="M9.4107 12.6840 L9.4583 12.4935 " />
<path d="M9.4583 12.4935 L9.5060 12.3983 " />
<path d="M9.5060 12.3983 L9.5536 12.3507 " />
<path d="M9.5536 12.3507 L9.6488 12.3031 " />
<path d="M10.4107 12.9221 L11.1726 12.9221 " />
<path d="M11.5536 12.3031 L11.7917 13.3031 " />
<path d="M11.7917 13.3031 L11.9821 12.5888 " />
<path d="M11.9821 12.5888 L12.1726 13.3031 " />
<path d="M12.1726 13.3031 L12.4107 12.3031 " />
<path d="M13.2202 12.6364 L13.2202 13.3031 " />
<path d="M12.9821 12.2554 L12.7440 12.9697 " />
<path d="M12.7440 12.9697 L13.3631 12.9697 " />
<path d="M13.7440 13.2078 L13.7917 13.2554 " />
<path d="M13.7917 13.2554 L13.7440 13.3031 " />
<path d="M13.7440 13.3031 L13.6964 13.2554 " />
<path d="M13.6964 13.2554 L13.7440 13.2078 " />
<path d="M13.7440 13.2078 L13.7440 13.3031 " />
<path d="M14.4107 12.3031 L14.5060 12.3031 " />
<path d="M14.5060 12.3031 L14.6012 12.3507 " />
<path d="M14.6012 12.3507 L14.6488 12.3983 " />
<path d="M14.6488 12.3983 L14.6964 12.4935 " />
<path d="M14.6964 12.4935 L14.7440 12.6840 " />
<path d="M14.7440 12.6840 L14.7440 12.9221 " />
<path d="M14.7440 12.9221 L14.6964 13.1126 " />
<path d="M14.6964 13.1126 L14.6488 13.2078 " />
<path d="M14.6488 13.2078 L14.6012 13.2554 " />
<path d="M14.6012 13.2554 L14.5060 13.3031 " />
<path d="M14.5060 13.3031 L14.4107 13.3031 " />
<path d="M14.4107 13.3031 L14.3155 13.2554 " />
<path d="M14.3155 13.2554 L14.2679 13.2078 " />
<path d="M14.2679 13.2078 L14.2202 13.1126 " />
<path d="M14.2202 13.1126 L14.1726 12.9221 " />
<path d="M14.1726 12.9221 L14.1726 12.6840 " />
<path d="M14.1726 12.6840 L14.2202 12.4935 " />
<path d="M14.2202 12.4935 L14.2679 12.3983 " />
<path d="M14.2679 12.3983 L14.3155 12.3507 " />
<path d="M14.3155 12.3507 L14.4107 12.3031 " />
<path d="M15.1726 12.9221 L15.9345 12.9221 " />
<path d="M16.4107 13.3031 L16.4107 12.3031 " />
<path d="M16.4107 12.3031 L16.7917 12.3031 " />
<path d="M16.7917 12.3031 L16.8869 12.3507 " />
<path d="M16.8869 12.3507 L16.9345 12.3983 " />
<path d="M16.9345 12.3983 L16.9821 12.4935 " />
<path d="M16.9821 12.4935 L16.9821 12.6364 " />
<path d="M16.9821 12.6364 L16.9345 12.7316 " />
<path d="M16.9345 12.7316 L16.8869 12.7793 " />
<path d="M16.8869 12.7793 L16.7917 12.8269 " />
<path d="M16.7917 12.8269 L16.4107 12.8269 " />
<path d="M17.6012 12.3031 L17.6964 12.3031 " />
<path d="M17.6964 12.3031 L17.7917 12.3507 " />
<path d="M17.7917 12.3507 L17.8393 12.3983 " />
<path d="M17.8393 12.3983 L17.8869 12.4935 " />
<path d="M17.8869 12.4935 L17.9345 12.6840 " />
<path d="M17.9345 12.6840 L17.9345 12.9221 " />
<path d="M17.9345 12.9221 L17.8869 13.1126 " />
<path d="M17.8869 13.1126 L17.8393 13.2078 " />
<path d="M17.8393 13.2078 L17.7917 13.2554 " />
<path d="M17.7917 13.2554 L17.6964 13.3031 " />
<path d="M17.6964 13.3031 L17.6012 13.3031 " />
<path d="M17.6012 13.3031 L17.5060 13.2554 " />
<path d="M17.5060 13.2554 L17.4583 13.2078 " />
<path d="M17.4583 13.2078 L17.4107 13.1126 " />
<path d="M17.4107 13.1126 L17.3631 12.9221 " />
<path d="M17.3631 12.9221 L17.3631 12.6840 " />
<path d="M17.3631 12.6840 L17.4107 12.4935 " />
<path d="M17.4107 12.4935 L17.4583 12.3983 " />
<path d="M17.4583 12.3983 L17.5060 12.3507 " />
<path d="M17.5060 12.3507 L17.6012 12.3031 " />
<path d="M18.3631 13.2078 L18.4107 13.2554 " />
<path d="M18.4107 13.2554 L18.3631 13.3031 " />
<path d="M18.3631 13.3031 L18.3155 13.2554 " />
<path d="M18.3155 13.2554 L18.3631 13.2078 " />
<path d="M18.3631 13.2078 L18.3631 13.3031 " />
<path d="M19.3155 12.3031 L18.8393 12.3031 " />
<path d="M18.8393 12.3031 L18.7917 12.7793 " />
<path d="M18.7917 12.7793 L18.8393 12.7316 " />
<path d="M18.8393 12.7316 L18.9345 12.6840 " />
<path d="M18.9345 12.6840 L19.1726 12.6840 " />
<path d="M19.1726 12.6840 L19.2679 12.7316 " />
<path d="M19.2679 12.7316 L19.3155 12.7793 " />
<path d="M19.3155 12.7793 L19.3631 12.8745 " />
<path d="M19.3631 12.8745 L19.3631 13.1126 " />
<path d="M19.3631 13.1126 L19.3155 13.2078 " />
<path d="M19.3155 13.2078 L19.2679 13.2554 " />
<path d="M19.2679 13.2554 L19.1726 13.3031 " />
<path d="M19.1726 13.3031 L18.9345 13.3031 " />
<path d="M18.9345 13.3031 L18.8393 13.2554 " />
<path d="M18.8393 13.2554 L18.7917 13.2078 " />
<path d="M19.9821 12.3031 L20.0774 12.3031 " />
<path d="M20.0774 12.3031 L20.1726 12.3507 " />
<path d="M20.1726 12.3507 L20.2202 12.3983 " />
<path d="M20.2202 12.3983 L20.2679 12.4935 " />
<path d="M20.2679 12.4935 L20.3155 12.6840 " />
<path d="M20.3155 12.6840 L20.3155 12.9221 " />
<path d="M20.3155 12.9221 L20.2679 13.1126 " />
<path d="M20.2679 13.1126 L20.2202 13.2078 " />
<path d="M20.2202 13.2078 L20.1726 13.2554 " />
<path d="M20.1726 13.2554 L20.0774 13.3031 " />
<path d="M20.0774 13.3031 L19.9821 13.3031 " />
<path d="M19.9821 13.3031 L19.8869 13.2554 " />
<path d="M19.8869 13.2554 L19.8393 13.2078 " />
<path d="M19.8393 13.2078 L19.7917 13.1126 " />
<path d="M19.7917 13.1126 L19.7440 12.9221 " />
<path d="M19.7440 12.9221 L19.7440 12.6840 " />
<path d="M19.7440 12.6840 L19.7917 12.4935 " />
<path d="M19.7917 12.4935 L19.8393 12.3983 " />
<path d="M19.8393 12.3983 L19.8869 12.3507 " />
<path d="M19.8869 12.3507 L19.9821 12.3031 " />
<path d="M20.7440 12.9221 L21.5060 12.9221 " />
<path d="M22.3155 12.7793 L22.4583 12.8269 " />
<path d="M22.4583 12.8269 L22.5059 12.8745 " />
<path d="M22.5059 12.8745 L22.5536 12.9697 " />
<path d="M22.5536 12.9697 L22.5536 13.1126 " />
<path d="M22.5536 13.1126 L22.5059 13.2078 " />
<path d="M22.5059 13.2078 L22.4583 13.2554 " />
<path d="M22.4583 13.2554 L22.3631 13.3031 " />
<path d="M22.3631 13.3031 L21.9821 13.3031 " />
<path d="M21.9821 13.3031 L21.9821 12.3031 " />
<path d="M21.9821 12.3031 L22.3155 12.3031 " />
<path d="M22.3155 12.3031 L22.4107 12.3507 " />
<path d="M22.4107 12.3507 L22.4583 12.3983 " />
<path d="M22.4583 12.3983 L22.5059 12.4935 " />
<path d="M22.5059 12.4935 L22.5059 12.5888 " />
<path d="M22.5059 12.5888 L22.4583 12.6840 " />
<path d="M22.4583 12.6840 L22.4107 12.7316 " />
<path d="M22.4107 12.7316 L22.3155 12.7793 " />
<path d="M22.3155 12.7793 L21.9821 12.7793 " />
<path d="M23.4583 13.3031 L22.9821 13.3031 " />
<path d="M22.9821 13.3031 L22.9821 12.3031 " />
<path d="M23.7917 12.9221 L24.5536 12.9221 " />
<path d="M25.0298 12.7793 L25.3631 12.7793 " />
<path d="M25.5059 13.3031 L25.0298 13.3031 " />
<path d="M25.0298 13.3031 L25.0298 12.3031 " />
<path d="M25.0298 12.3031 L25.5059 12.3031 " />
<path d="M25.9345 13.3031 L25.9345 12.3031 " />
<path d="M25.9345 12.3031 L26.3155 12.3031 " />
<path d="M26.3155 12.3031 L26.4107 12.3507 " />
<path d="M26.4107 12.3507 L26.4583 12.3983 " />
<path d="M26.4583 12.3983 L26.5059 12.4935 " />
<path d="M26.5059 12.4935 L26.5059 12.6364 " />
<path d="M26.5059 12.6364 L26.4583 12.7316 " />
<path d="M26.4583 12.7316 L26.4107 12.7793 " />
<path d="M26.4107 12.7793 L26.3155 12.8269 " />
<path d="M26.3155 12.8269 L25.9345 12.8269 " />
<path d="M26.8869 12.3983 L26.9345 12.3507 " />
<path d="M26.9345 12.3507 L27.0298 12.3031 " />
<path d="M27.0298 12.3031 L27.2679 12.3031 " />
<path d="M27.2679 12.3031 L27.3631 12.3507 " />
<path d="M27.3631 12.3507 L27.4107 12.3983 " />
<path d="M27.4107 12.3983 L27.4583 12.4935 " />
<path d="M27.4583 12.4935 L27.4583 12.5888 " />
<path d="M27.4583 12.5888 L27.4107 12.7316 " />
<path d="M27.4107 12.7316 L26.8393 13.3031 " />
<path d="M26.8393 13.3031 L27.4583 13.3031 " />
<path d="M27.8869 13.2078 L27.9345 13.2554 " />
<path d="M27.9345 13.2554 L27.8869 13.3031 " />
<path d="M27.8869 13.3031 L27.8393 13.2554 " />
<path d="M27.8393 13.2554 L27.8869 13.2078 " />
<path d="M27.8869 13.2078 L27.8869 13.3031 " />
<path d="M28.5059 12.7316 L28.4107 12.6840 " />
<path d="M28.4107 12.6840 L28.3631 12.6364 " />
<path d="M28.3631 12.6364 L28.3155 12.5412 " />
<path d="M28.3155 12.5412 L28.3155 12.4935 " />
<path d="M28.3155 12.4935 L28.3631 12.3983 " />
<path d="M28.3631 12.3983 L28.4107 12.3507 " />
<path d="M28.4107 12.3507 L28.5059 12.3031 " />
<path d="M28.5059 12.3031 L28.6964 12.3031 " />
<path d="M28.6964 12.3031 L28.7917 12.3507 " />
<path d="M28.7917 12.3507 L28.8393 12.3983 " />
<path d="M28.8393 12.3983 L28.8869 12.4935 " />
<path d="M28.8869 12.4935 L28.8869 12.5412 " />
<path d="M28.8869 12.5412 L28.8393 12.6364 " />
<path d="M28.8393 12.6364 L28.7917 12.6840 " />
<path d="M28.7917 12.6840 L28.6964 12.7316 " />
<path d="M28.6964 12.7316 L28.5059 12.7316 " />
<path d="M28.5059 12.7316 L28.4107 12.7793 " />
<path d="M28.4107 12.7793 L28.3631 12.8269 " />
<path d="M28.3631 12.8269 L28.3155 12.9221 " />
<path d="M28.3155 12.9221 L28.3155 13.1126 " />
<path d="M28.3155 13.1126 L28.3631 13.2078 " />
<path d="M28.3631 13.2078 L28.4107 13.2554 " />
<path d="M28.4107 13.2554 L28.5059 13.3031 " />
<path d="M28.5059 13.3031 L28.6964 13.3031 " />
<path d="M28.6964 13.3031 L28.7917 13.2554 " />
<path d="M28.7917 13.2554 L28.8393 13.2078 " />
<path d="M28.8393 13.2078 L28.8869 13.1126 " />
<path d="M28.8869 13.1126 L28.8869 12.9221 " />
<path d="M28.8869 12.9221 L28.8393 12.8269 " />
<path d="M28.8393 12.8269 L28.7917 12.7793 " />
<path d="M28.7917 12.7793 L28.6964 12.7316 " />
</g></g>
<g style="fill:none;  stroke:#000000; stroke-width:0.1000; stroke-opacity:1;  stroke-linecap:round; stroke-linejoin:round;">
<circle cx="12.6012" cy="8.8483" r="0.0500" /> 
</g>
<g style="fill:none;  stroke:#000000; stroke-width:0.4000; stroke-opacity:1;  stroke-linecap:round; stroke-linejoin:round;">
<circle cx="12.7812" cy="9.3782" r="0.2000" /> 
</g> 
</svg>