<?xml version='1.0' encoding='utf-8'?>
<svg xmlns="http://www.w3.org/2000/svg" version="1.1" width="31.2420mm" height="11.5824mm" viewBox="0.0000 0.0000 31.2420 11.5824">
<title>SVG Image created as SOT-23-3_L2.9-W1.6-P1.90-LS2.8-BR.svg date 2026/01/20 02:52:44 </title>
  <desc>Image generated by PCBNEW </desc>
<g style="fill:#000000; fill-opacity:1.0000;stroke:#000000; stroke-opacity:1.0000; stroke-linecap:round; stroke-linejoin:round;" transform="translate(0 0) scale(1 1)">
<path style="fill:#000000; fill-opacity:1.0000; stroke:none;fill-rule:evenodd;" d="M 16.3300,7.0482 16.3300,6.4482 17.4000,6.4482 17.4000,7.0482 Z" /> 
<path style="fill:#000000; fill-opacity:1.0000; stroke:none;fill-rule:evenodd;" d="M 16.3300,5.1482 16.3300,4.5482 17.4000,4.5482 17.4000,5.1482 Z" /> 
<path style="fill:#000000; fill-opacity:1.0000; stroke:none;fill-rule:evenodd;" d="M 13.8500,6.0982 13.8500,5.4982 14.9200,5.4982 14.9200,6.0982 Z" /> 
<path style="fill:#000000; fill-opacity:1.0000; stroke:none;fill-rule:evenodd;" d="M 16.3300,7.0482 16.3300,6.4482 17.4000,6.4482 17.4000,7.0482 Z" /> 
<path style="fill:#000000; fill-opacity:1.0000; stroke:none;fill-rule:evenodd;" d="M 16.3300,5.1482 16.3300,4.5482 17.4000,4.5482 17.4000,5.1482 Z" /> 
<path style="fill:#000000; fill-opacity:1.0000; stroke:none;fill-rule:evenodd;" d="M 13.8500,6.0982 13.8500,5.4982 14.9200,5.4982 14.9200,6.0982 Z" /> 
<path style="fill:#000000; fill-opacity:1.0000; stroke:none;fill-rule:evenodd;" d="M 16.3300,7.0482 16.3300,6.4482 17.4000,6.4482 17.4000,7.0482 Z" /> 
<path style="fill:#000000; fill-opacity:1.0000; stroke:none;fill-rule:evenodd;" d="M 16.3300,5.1482 16.3300,4.5482 17.4000,4.5482 17.4000,5.1482 Z" /> 
<path style="fill:#000000; fill-opacity:1.0000; stroke:none;fill-rule:evenodd;" d="M 13.8500,6.0982 13.8500,5.4982 14.9200,5.4982 14.9200,6.0982 Z" /> 
</g>
<g style="fill:none;  stroke:#000000; stroke-width:0.1500; stroke-opacity:1;  stroke-linecap:round; stroke-linejoin:round;">
<path d="M16.5050 4.2582 L14.7450 4.2582 " />
<path d="M14.7450 4.2582 L14.7450 5.3083 " />
<path d="M16.5050 7.3382 L14.7450 7.3382 " />
<path d="M14.7450 7.3382 L14.7450 6.2882 " />
<path d="M16.5050 5.3382 L16.5050 6.2582 " />
<text x="15.6250" y="11.2482" textLength="31.2500" font-size="1.3333" lengthAdjust="spacingAndGlyphs" text-anchor="middle" opacity="0" stroke-opacity="0">SOT-23-3_L2.9-W1.6-P1.90-LS2.8-BR</text>
<g class="stroked-text"><desc>SOT-23-3_L2.9-W1.6-P1.90-LS2.8-BR</desc>
<path d="M0.3155 11.1555 L0.4583 11.2031 " />
<path d="M0.4583 11.2031 L0.6964 11.2031 " />
<path d="M0.6964 11.2031 L0.7917 11.1555 " />
<path d="M0.7917 11.1555 L0.8393 11.1078 " />
<path d="M0.8393 11.1078 L0.8869 11.0126 " />
<path d="M0.8869 11.0126 L0.8869 10.9174 " />
<path d="M0.8869 10.9174 L0.8393 10.8221 " />
<path d="M0.8393 10.8221 L0.7917 10.7745 " />
<path d="M0.7917 10.7745 L0.6964 10.7269 " />
<path d="M0.6964 10.7269 L0.5060 10.6793 " />
<path d="M0.5060 10.6793 L0.4107 10.6316 " />
<path d="M0.4107 10.6316 L0.3631 10.5840 " />
<path d="M0.3631 10.5840 L0.3155 10.4888 " />
<path d="M0.3155 10.4888 L0.3155 10.3935 " />
<path d="M0.3155 10.3935 L0.3631 10.2983 " />
<path d="M0.3631 10.2983 L0.4107 10.2507 " />
<path d="M0.4107 10.2507 L0.5060 10.2031 " />
<path d="M0.5060 10.2031 L0.7440 10.2031 " />
<path d="M0.7440 10.2031 L0.8869 10.2507 " />
<path d="M1.5060 10.2031 L1.6964 10.2031 " />
<path d="M1.6964 10.2031 L1.7917 10.2507 " />
<path d="M1.7917 10.2507 L1.8869 10.3459 " />
<path d="M1.8869 10.3459 L1.9345 10.5364 " />
<path d="M1.9345 10.5364 L1.9345 10.8697 " />
<path d="M1.9345 10.8697 L1.8869 11.0602 " />
<path d="M1.8869 11.0602 L1.7917 11.1555 " />
<path d="M1.7917 11.1555 L1.6964 11.2031 " />
<path d="M1.6964 11.2031 L1.5060 11.2031 " />
<path d="M1.5060 11.2031 L1.4107 11.1555 " />
<path d="M1.4107 11.1555 L1.3155 11.0602 " />
<path d="M1.3155 11.0602 L1.2679 10.8697 " />
<path d="M1.2679 10.8697 L1.2679 10.5364 " />
<path d="M1.2679 10.5364 L1.3155 10.3459 " />
<path d="M1.3155 10.3459 L1.4107 10.2507 " />
<path d="M1.4107 10.2507 L1.5060 10.2031 " />
<path d="M2.2202 10.2031 L2.7917 10.2031 " />
<path d="M2.5060 11.2031 L2.5060 10.2031 " />
<path d="M3.1250 10.8221 L3.8869 10.8221 " />
<path d="M4.3155 10.2983 L4.3631 10.2507 " />
<path d="M4.3631 10.2507 L4.4583 10.2031 " />
<path d="M4.4583 10.2031 L4.6964 10.2031 " />
<path d="M4.6964 10.2031 L4.7917 10.2507 " />
<path d="M4.7917 10.2507 L4.8393 10.2983 " />
<path d="M4.8393 10.2983 L4.8869 10.3935 " />
<path d="M4.8869 10.3935 L4.8869 10.4888 " />
<path d="M4.8869 10.4888 L4.8393 10.6316 " />
<path d="M4.8393 10.6316 L4.2679 11.2031 " />
<path d="M4.2679 11.2031 L4.8869 11.2031 " />
<path d="M5.2202 10.2031 L5.8393 10.2031 " />
<path d="M5.8393 10.2031 L5.5060 10.5840 " />
<path d="M5.5060 10.5840 L5.6488 10.5840 " />
<path d="M5.6488 10.5840 L5.7440 10.6316 " />
<path d="M5.7440 10.6316 L5.7917 10.6793 " />
<path d="M5.7917 10.6793 L5.8393 10.7745 " />
<path d="M5.8393 10.7745 L5.8393 11.0126 " />
<path d="M5.8393 11.0126 L5.7917 11.1078 " />
<path d="M5.7917 11.1078 L5.7440 11.1555 " />
<path d="M5.7440 11.1555 L5.6488 11.2031 " />
<path d="M5.6488 11.2031 L5.3631 11.2031 " />
<path d="M5.3631 11.2031 L5.2679 11.1555 " />
<path d="M5.2679 11.1555 L5.2202 11.1078 " />
<path d="M6.2679 10.8221 L7.0298 10.8221 " />
<path d="M7.4107 10.2031 L8.0298 10.2031 " />
<path d="M8.0298 10.2031 L7.6964 10.5840 " />
<path d="M7.6964 10.5840 L7.8393 10.5840 " />
<path d="M7.8393 10.5840 L7.9345 10.6316 " />
<path d="M7.9345 10.6316 L7.9821 10.6793 " />
<path d="M7.9821 10.6793 L8.0298 10.7745 " />
<path d="M8.0298 10.7745 L8.0298 11.0126 " />
<path d="M8.0298 11.0126 L7.9821 11.1078 " />
<path d="M7.9821 11.1078 L7.9345 11.1555 " />
<path d="M7.9345 11.1555 L7.8393 11.2031 " />
<path d="M7.8393 11.2031 L7.5536 11.2031 " />
<path d="M7.5536 11.2031 L7.4583 11.1555 " />
<path d="M7.4583 11.1555 L7.4107 11.1078 " />
<path d="M8.2202 11.2983 L8.9821 11.2983 " />
<path d="M9.6964 11.2031 L9.2202 11.2031 " />
<path d="M9.2202 11.2031 L9.2202 10.2031 " />
<path d="M9.9821 10.2983 L10.0298 10.2507 " />
<path d="M10.0298 10.2507 L10.1250 10.2031 " />
<path d="M10.1250 10.2031 L10.3631 10.2031 " />
<path d="M10.3631 10.2031 L10.4583 10.2507 " />
<path d="M10.4583 10.2507 L10.5060 10.2983 " />
<path d="M10.5060 10.2983 L10.5536 10.3935 " />
<path d="M10.5536 10.3935 L10.5536 10.4888 " />
<path d="M10.5536 10.4888 L10.5060 10.6316 " />
<path d="M10.5060 10.6316 L9.9345 11.2031 " />
<path d="M9.9345 11.2031 L10.5536 11.2031 " />
<path d="M10.9821 11.1078 L11.0298 11.1555 " />
<path d="M11.0298 11.1555 L10.9821 11.2031 " />
<path d="M10.9821 11.2031 L10.9345 11.1555 " />
<path d="M10.9345 11.1555 L10.9821 11.1078 " />
<path d="M10.9821 11.1078 L10.9821 11.2031 " />
<path d="M11.5060 11.2031 L11.6964 11.2031 " />
<path d="M11.6964 11.2031 L11.7917 11.1555 " />
<path d="M11.7917 11.1555 L11.8393 11.1078 " />
<path d="M11.8393 11.1078 L11.9345 10.9650 " />
<path d="M11.9345 10.9650 L11.9821 10.7745 " />
<path d="M11.9821 10.7745 L11.9821 10.3935 " />
<path d="M11.9821 10.3935 L11.9345 10.2983 " />
<path d="M11.9345 10.2983 L11.8869 10.2507 " />
<path d="M11.8869 10.2507 L11.7917 10.2031 " />
<path d="M11.7917 10.2031 L11.6012 10.2031 " />
<path d="M11.6012 10.2031 L11.5060 10.2507 " />
<path d="M11.5060 10.2507 L11.4583 10.2983 " />
<path d="M11.4583 10.2983 L11.4107 10.3935 " />
<path d="M11.4107 10.3935 L11.4107 10.6316 " />
<path d="M11.4107 10.6316 L11.4583 10.7269 " />
<path d="M11.4583 10.7269 L11.5060 10.7745 " />
<path d="M11.5060 10.7745 L11.6012 10.8221 " />
<path d="M11.6012 10.8221 L11.7917 10.8221 " />
<path d="M11.7917 10.8221 L11.8869 10.7745 " />
<path d="M11.8869 10.7745 L11.9345 10.7269 " />
<path d="M11.9345 10.7269 L11.9821 10.6316 " />
<path d="M12.4107 10.8221 L13.1726 10.8221 " />
<path d="M13.5536 10.2031 L13.7917 11.2031 " />
<path d="M13.7917 11.2031 L13.9821 10.4888 " />
<path d="M13.9821 10.4888 L14.1726 11.2031 " />
<path d="M14.1726 11.2031 L14.4107 10.2031 " />
<path d="M15.3155 11.2031 L14.7440 11.2031 " />
<path d="M15.0298 11.2031 L15.0298 10.2031 " />
<path d="M15.0298 10.2031 L14.9345 10.3459 " />
<path d="M14.9345 10.3459 L14.8393 10.4412 " />
<path d="M14.8393 10.4412 L14.7440 10.4888 " />
<path d="M15.7440 11.1078 L15.7917 11.1555 " />
<path d="M15.7917 11.1555 L15.7440 11.2031 " />
<path d="M15.7440 11.2031 L15.6964 11.1555 " />
<path d="M15.6964 11.1555 L15.7440 11.1078 " />
<path d="M15.7440 11.1078 L15.7440 11.2031 " />
<path d="M16.6488 10.2031 L16.4583 10.2031 " />
<path d="M16.4583 10.2031 L16.3631 10.2507 " />
<path d="M16.3631 10.2507 L16.3155 10.2983 " />
<path d="M16.3155 10.2983 L16.2202 10.4412 " />
<path d="M16.2202 10.4412 L16.1726 10.6316 " />
<path d="M16.1726 10.6316 L16.1726 11.0126 " />
<path d="M16.1726 11.0126 L16.2202 11.1078 " />
<path d="M16.2202 11.1078 L16.2679 11.1555 " />
<path d="M16.2679 11.1555 L16.3631 11.2031 " />
<path d="M16.3631 11.2031 L16.5536 11.2031 " />
<path d="M16.5536 11.2031 L16.6488 11.1555 " />
<path d="M16.6488 11.1555 L16.6964 11.1078 " />
<path d="M16.6964 11.1078 L16.7440 11.0126 " />
<path d="M16.7440 11.0126 L16.7440 10.7745 " />
<path d="M16.7440 10.7745 L16.6964 10.6793 " />
<path d="M16.6964 10.6793 L16.6488 10.6316 " />
<path d="M16.6488 10.6316 L16.5536 10.5840 " />
<path d="M16.5536 10.5840 L16.3631 10.5840 " />
<path d="M16.3631 10.5840 L16.2679 10.6316 " />
<path d="M16.2679 10.6316 L16.2202 10.6793 " />
<path d="M16.2202 10.6793 L16.1726 10.7745 " />
<path d="M17.1726 10.8221 L17.9345 10.8221 " />
<path d="M18.4107 11.2031 L18.4107 10.2031 " />
<path d="M18.4107 10.2031 L18.7917 10.2031 " />
<path d="M18.7917 10.2031 L18.8869 10.2507 " />
<path d="M18.8869 10.2507 L18.9345 10.2983 " />
<path d="M18.9345 10.2983 L18.9821 10.3935 " />
<path d="M18.9821 10.3935 L18.9821 10.5364 " />
<path d="M18.9821 10.5364 L18.9345 10.6316 " />
<path d="M18.9345 10.6316 L18.8869 10.6793 " />
<path d="M18.8869 10.6793 L18.7917 10.7269 " />
<path d="M18.7917 10.7269 L18.4107 10.7269 " />
<path d="M19.9345 11.2031 L19.3631 11.2031 " />
<path d="M19.6488 11.2031 L19.6488 10.2031 " />
<path d="M19.6488 10.2031 L19.5536 10.3459 " />
<path d="M19.5536 10.3459 L19.4583 10.4412 " />
<path d="M19.4583 10.4412 L19.3631 10.4888 " />
<path d="M20.3631 11.1078 L20.4107 11.1555 " />
<path d="M20.4107 11.1555 L20.3631 11.2031 " />
<path d="M20.3631 11.2031 L20.3155 11.1555 " />
<path d="M20.3155 11.1555 L20.3631 11.1078 " />
<path d="M20.3631 11.1078 L20.3631 11.2031 " />
<path d="M20.8869 11.2031 L21.0774 11.2031 " />
<path d="M21.0774 11.2031 L21.1726 11.1555 " />
<path d="M21.1726 11.1555 L21.2202 11.1078 " />
<path d="M21.2202 11.1078 L21.3155 10.9650 " />
<path d="M21.3155 10.9650 L21.3631 10.7745 " />
<path d="M21.3631 10.7745 L21.3631 10.3935 " />
<path d="M21.3631 10.3935 L21.3155 10.2983 " />
<path d="M21.3155 10.2983 L21.2679 10.2507 " />
<path d="M21.2679 10.2507 L21.1726 10.2031 " />
<path d="M21.1726 10.2031 L20.9821 10.2031 " />
<path d="M20.9821 10.2031 L20.8869 10.2507 " />
<path d="M20.8869 10.2507 L20.8393 10.2983 " />
<path d="M20.8393 10.2983 L20.7917 10.3935 " />
<path d="M20.7917 10.3935 L20.7917 10.6316 " />
<path d="M20.7917 10.6316 L20.8393 10.7269 " />
<path d="M20.8393 10.7269 L20.8869 10.7745 " />
<path d="M20.8869 10.7745 L20.9821 10.8221 " />
<path d="M20.9821 10.8221 L21.1726 10.8221 " />
<path d="M21.1726 10.8221 L21.2679 10.7745 " />
<path d="M21.2679 10.7745 L21.3155 10.7269 " />
<path d="M21.3155 10.7269 L21.3631 10.6316 " />
<path d="M21.9821 10.2031 L22.0774 10.2031 " />
<path d="M22.0774 10.2031 L22.1726 10.2507 " />
<path d="M22.1726 10.2507 L22.2202 10.2983 " />
<path d="M22.2202 10.2983 L22.2679 10.3935 " />
<path d="M22.2679 10.3935 L22.3155 10.5840 " />
<path d="M22.3155 10.5840 L22.3155 10.8221 " />
<path d="M22.3155 10.8221 L22.2679 11.0126 " />
<path d="M22.2679 11.0126 L22.2202 11.1078 " />
<path d="M22.2202 11.1078 L22.1726 11.1555 " />
<path d="M22.1726 11.1555 L22.0774 11.2031 " />
<path d="M22.0774 11.2031 L21.9821 11.2031 " />
<path d="M21.9821 11.2031 L21.8869 11.1555 " />
<path d="M21.8869 11.1555 L21.8393 11.1078 " />
<path d="M21.8393 11.1078 L21.7917 11.0126 " />
<path d="M21.7917 11.0126 L21.7440 10.8221 " />
<path d="M21.7440 10.8221 L21.7440 10.5840 " />
<path d="M21.7440 10.5840 L21.7917 10.3935 " />
<path d="M21.7917 10.3935 L21.8393 10.2983 " />
<path d="M21.8393 10.2983 L21.8869 10.2507 " />
<path d="M21.8869 10.2507 L21.9821 10.2031 " />
<path d="M22.7440 10.8221 L23.5060 10.8221 " />
<path d="M24.4583 11.2031 L23.9821 11.2031 " />
<path d="M23.9821 11.2031 L23.9821 10.2031 " />
<path d="M24.7440 11.1555 L24.8869 11.2031 " />
<path d="M24.8869 11.2031 L25.1250 11.2031 " />
<path d="M25.1250 11.2031 L25.2202 11.1555 " />
<path d="M25.2202 11.1555 L25.2679 11.1078 " />
<path d="M25.2679 11.1078 L25.3155 11.0126 " />
<path d="M25.3155 11.0126 L25.3155 10.9174 " />
<path d="M25.3155 10.9174 L25.2679 10.8221 " />
<path d="M25.2679 10.8221 L25.2202 10.7745 " />
<path d="M25.2202 10.7745 L25.1250 10.7269 " />
<path d="M25.1250 10.7269 L24.9345 10.6793 " />
<path d="M24.9345 10.6793 L24.8393 10.6316 " />
<path d="M24.8393 10.6316 L24.7917 10.5840 " />
<path d="M24.7917 10.5840 L24.7440 10.4888 " />
<path d="M24.7440 10.4888 L24.7440 10.3935 " />
<path d="M24.7440 10.3935 L24.7917 10.2983 " />
<path d="M24.7917 10.2983 L24.8393 10.2507 " />
<path d="M24.8393 10.2507 L24.9345 10.2031 " />
<path d="M24.9345 10.2031 L25.1726 10.2031 " />
<path d="M25.1726 10.2031 L25.3155 10.2507 " />
<path d="M25.6964 10.2983 L25.7440 10.2507 " />
<path d="M25.7440 10.2507 L25.8393 10.2031 " />
<path d="M25.8393 10.2031 L26.0774 10.2031 " />
<path d="M26.0774 10.2031 L26.1726 10.2507 " />
<path d="M26.1726 10.2507 L26.2202 10.2983 " />
<path d="M26.2202 10.2983 L26.2679 10.3935 " />
<path d="M26.2679 10.3935 L26.2679 10.4888 " />
<path d="M26.2679 10.4888 L26.2202 10.6316 " />
<path d="M26.2202 10.6316 L25.6488 11.2031 " />
<path d="M25.6488 11.2031 L26.2679 11.2031 " />
<path d="M26.6964 11.1078 L26.7440 11.1555 " />
<path d="M26.7440 11.1555 L26.6964 11.2031 " />
<path d="M26.6964 11.2031 L26.6488 11.1555 " />
<path d="M26.6488 11.1555 L26.6964 11.1078 " />
<path d="M26.6964 11.1078 L26.6964 11.2031 " />
<path d="M27.3155 10.6316 L27.2202 10.5840 " />
<path d="M27.2202 10.5840 L27.1726 10.5364 " />
<path d="M27.1726 10.5364 L27.1250 10.4412 " />
<path d="M27.1250 10.4412 L27.1250 10.3935 " />
<path d="M27.1250 10.3935 L27.1726 10.2983 " />
<path d="M27.1726 10.2983 L27.2202 10.2507 " />
<path d="M27.2202 10.2507 L27.3155 10.2031 " />
<path d="M27.3155 10.2031 L27.5059 10.2031 " />
<path d="M27.5059 10.2031 L27.6012 10.2507 " />
<path d="M27.6012 10.2507 L27.6488 10.2983 " />
<path d="M27.6488 10.2983 L27.6964 10.3935 " />
<path d="M27.6964 10.3935 L27.6964 10.4412 " />
<path d="M27.6964 10.4412 L27.6488 10.5364 " />
<path d="M27.6488 10.5364 L27.6012 10.5840 " />
<path d="M27.6012 10.5840 L27.5059 10.6316 " />
<path d="M27.5059 10.6316 L27.3155 10.6316 " />
<path d="M27.3155 10.6316 L27.2202 10.6793 " />
<path d="M27.2202 10.6793 L27.1726 10.7269 " />
<path d="M27.1726 10.7269 L27.1250 10.8221 " />
<path d="M27.1250 10.8221 L27.1250 11.0126 " />
<path d="M27.1250 11.0126 L27.1726 11.1078 " />
<path d="M27.1726 11.1078 L27.2202 11.1555 " />
<path d="M27.2202 11.1555 L27.3155 11.2031 " />
<path d="M27.3155 11.2031 L27.5059 11.2031 " />
<path d="M27.5059 11.2031 L27.6012 11.1555 " />
<path d="M27.6012 11.1555 L27.6488 11.1078 " />
<path d="M27.6488 11.1078 L27.6964 11.0126 " />
<path d="M27.6964 11.0126 L27.6964 10.8221 " />
<path d="M27.6964 10.8221 L27.6488 10.7269 " />
<path d="M27.6488 10.7269 L27.6012 10.6793 " />
<path d="M27.6012 10.6793 L27.5059 10.6316 " />
<path d="M28.1250 10.8221 L28.8869 10.8221 " />
<path d="M29.6964 10.6793 L29.8393 10.7269 " />
<path d="M29.8393 10.7269 L29.8869 10.7745 " />
<path d="M29.8869 10.7745 L29.9345 10.8697 " />
<path d="M29.9345 10.8697 L29.9345 11.0126 " />
<path d="M29.9345 11.0126 L29.8869 11.1078 " />
<path d="M29.8869 11.1078 L29.8393 11.1555 " />
<path d="M29.8393 11.1555 L29.7440 11.2031 " />
<path d="M29.7440 11.2031 L29.3631 11.2031 " />
<path d="M29.3631 11.2031 L29.3631 10.2031 " />
<path d="M29.3631 10.2031 L29.6964 10.2031 " />
<path d="M29.6964 10.2031 L29.7917 10.2507 " />
<path d="M29.7917 10.2507 L29.8393 10.2983 " />
<path d="M29.8393 10.2983 L29.8869 10.3935 " />
<path d="M29.8869 10.3935 L29.8869 10.4888 " />
<path d="M29.8869 10.4888 L29.8393 10.5840 " />
<path d="M29.8393 10.5840 L29.7917 10.6316 " />
<path d="M29.7917 10.6316 L29.6964 10.6793 " />
<path d="M29.6964 10.6793 L29.3631 10.6793 " />
<path d="M30.9345 11.2031 L30.6012 10.7269 " />
<path d="M30.3631 11.2031 L30.3631 10.2031 " />
<path d="M30.3631 10.2031 L30.7440 10.2031 " />
<path d="M30.7440 10.2031 L30.8393 10.2507 " />
<path d="M30.8393 10.2507 L30.8869 10.2983 " />
<path d="M30.8869 10.2983 L30.9345 10.3935 " />
<path d="M30.9345 10.3935 L30.9345 10.5364 " />
<path d="M30.9345 10.5364 L30.8869 10.6316 " />
<path d="M30.8869 10.6316 L30.8393 10.6793 " />
<path d="M30.8393 10.6793 L30.7440 10.7269 " />
<path d="M30.7440 10.7269 L30.3631 10.7269 " />
</g></g>
<g style="fill:none;  stroke:#000000; stroke-width:0.0600; stroke-opacity:1;  stroke-linecap:round; stroke-linejoin:round;">
<circle cx="17.0250" cy="7.2582" r="0.0300" /> 
</g>
<g style="fill:none;  stroke:#000000; stroke-width:0.2000; stroke-opacity:1;  stroke-linecap:round; stroke-linejoin:round;">
<circle cx="17.2750" cy="6.7482" r="0.1000" /> 
</g> 
</svg>