<?xml version='1.0' encoding='utf-8'?>
<svg xmlns="http://www.w3.org/2000/svg" version="1.1" width="29.0576mm" height="11.5824mm" viewBox="0.0000 0.0000 29.0576 11.5824">
<title>SVG Image created as SOT-23_L2.9-W1.3-P1.90-LS2.4-BR.svg date 2026/01/20 02:52:44 </title>
  <desc>Image generated by PCBNEW </desc>
<g style="fill:#000000; fill-opacity:1.0000;stroke:#000000; stroke-opacity:1.0000; stroke-linecap:round; stroke-linejoin:round;" transform="translate(0 0) scale(1 1)">
<path style="fill:#000000; fill-opacity:1.0000; stroke:none;fill-rule:evenodd;" d="M 16.1798,4.4482 16.1798,5.2482 15.1798,5.2482 15.1798,4.4482 Z" /> 
<path style="fill:#000000; fill-opacity:1.0000; stroke:none;fill-rule:evenodd;" d="M 13.8798,5.3982 13.8798,6.1982 12.8798,6.1982 12.8798,5.3982 Z" /> 
<path style="fill:#000000; fill-opacity:1.0000; stroke:none;fill-rule:evenodd;" d="M 16.1798,6.3482 16.1798,7.1482 15.1798,7.1482 15.1798,6.3482 Z" /> 
<path style="fill:#000000; fill-opacity:1.0000; stroke:none;fill-rule:evenodd;" d="M 16.1798,4.4482 16.1798,5.2482 15.1798,5.2482 15.1798,4.4482 Z" /> 
<path style="fill:#000000; fill-opacity:1.0000; stroke:none;fill-rule:evenodd;" d="M 13.8798,5.3982 13.8798,6.1982 12.8798,6.1982 12.8798,5.3982 Z" /> 
<path style="fill:#000000; fill-opacity:1.0000; stroke:none;fill-rule:evenodd;" d="M 16.1798,6.3482 16.1798,7.1482 15.1798,7.1482 15.1798,6.3482 Z" /> 
<path style="fill:#000000; fill-opacity:1.0000; stroke:none;fill-rule:evenodd;" d="M 16.1798,4.4482 16.1798,5.2482 15.1798,5.2482 15.1798,4.4482 Z" /> 
<path style="fill:#000000; fill-opacity:1.0000; stroke:none;fill-rule:evenodd;" d="M 13.8798,5.3982 13.8798,6.1982 12.8798,6.1982 12.8798,5.3982 Z" /> 
<path style="fill:#000000; fill-opacity:1.0000; stroke:none;fill-rule:evenodd;" d="M 16.1798,6.3482 16.1798,7.1482 15.1798,7.1482 15.1798,6.3482 Z" /> 
</g>
<g style="fill:none;  stroke:#000000; stroke-width:0.1500; stroke-opacity:1;  stroke-linecap:round; stroke-linejoin:round;">
</g>
<g style="fill:none;  stroke:#000000; stroke-width:0.2500; stroke-opacity:1;  stroke-linecap:round; stroke-linejoin:round;">
<path d="M13.8298 5.1582 L13.8298 4.2982 " />
<path d="M13.8298 4.2982 L14.8298 4.2982 " />
<path d="M15.2298 6.1082 L15.2298 5.4783 " />
<path d="M13.8298 7.2982 L13.8298 6.4282 " />
<path d="M13.8298 7.2982 L14.8298 7.2982 " />
</g>
<g style="fill:none;  stroke:#000000; stroke-width:0.1500; stroke-opacity:1;  stroke-linecap:round; stroke-linejoin:round;">
<text x="14.5298" y="11.2482" textLength="29.0595" font-size="1.3333" lengthAdjust="spacingAndGlyphs" text-anchor="middle" opacity="0" stroke-opacity="0">SOT-23_L2.9-W1.3-P1.90-LS2.4-BR</text>
<g class="stroked-text"><desc>SOT-23_L2.9-W1.3-P1.90-LS2.4-BR</desc>
<path d="M0.3155 11.1555 L0.4583 11.2031 " />
<path d="M0.4583 11.2031 L0.6964 11.2031 " />
<path d="M0.6964 11.2031 L0.7917 11.1555 " />
<path d="M0.7917 11.1555 L0.8393 11.1078 " />
<path d="M0.8393 11.1078 L0.8869 11.0126 " />
<path d="M0.8869 11.0126 L0.8869 10.9174 " />
<path d="M0.8869 10.9174 L0.8393 10.8221 " />
<path d="M0.8393 10.8221 L0.7917 10.7745 " />
<path d="M0.7917 10.7745 L0.6964 10.7269 " />
<path d="M0.6964 10.7269 L0.5060 10.6793 " />
<path d="M0.5060 10.6793 L0.4107 10.6316 " />
<path d="M0.4107 10.6316 L0.3631 10.5840 " />
<path d="M0.3631 10.5840 L0.3155 10.4888 " />
<path d="M0.3155 10.4888 L0.3155 10.3935 " />
<path d="M0.3155 10.3935 L0.3631 10.2983 " />
<path d="M0.3631 10.2983 L0.4107 10.2507 " />
<path d="M0.4107 10.2507 L0.5060 10.2031 " />
<path d="M0.5060 10.2031 L0.7440 10.2031 " />
<path d="M0.7440 10.2031 L0.8869 10.2507 " />
<path d="M1.5060 10.2031 L1.6964 10.2031 " />
<path d="M1.6964 10.2031 L1.7917 10.2507 " />
<path d="M1.7917 10.2507 L1.8869 10.3459 " />
<path d="M1.8869 10.3459 L1.9345 10.5364 " />
<path d="M1.9345 10.5364 L1.9345 10.8697 " />
<path d="M1.9345 10.8697 L1.8869 11.0602 " />
<path d="M1.8869 11.0602 L1.7917 11.1555 " />
<path d="M1.7917 11.1555 L1.6964 11.2031 " />
<path d="M1.6964 11.2031 L1.5060 11.2031 " />
<path d="M1.5060 11.2031 L1.4107 11.1555 " />
<path d="M1.4107 11.1555 L1.3155 11.0602 " />
<path d="M1.3155 11.0602 L1.2679 10.8697 " />
<path d="M1.2679 10.8697 L1.2679 10.5364 " />
<path d="M1.2679 10.5364 L1.3155 10.3459 " />
<path d="M1.3155 10.3459 L1.4107 10.2507 " />
<path d="M1.4107 10.2507 L1.5060 10.2031 " />
<path d="M2.2202 10.2031 L2.7917 10.2031 " />
<path d="M2.5060 11.2031 L2.5060 10.2031 " />
<path d="M3.1250 10.8221 L3.8869 10.8221 " />
<path d="M4.3155 10.2983 L4.3631 10.2507 " />
<path d="M4.3631 10.2507 L4.4583 10.2031 " />
<path d="M4.4583 10.2031 L4.6964 10.2031 " />
<path d="M4.6964 10.2031 L4.7917 10.2507 " />
<path d="M4.7917 10.2507 L4.8393 10.2983 " />
<path d="M4.8393 10.2983 L4.8869 10.3935 " />
<path d="M4.8869 10.3935 L4.8869 10.4888 " />
<path d="M4.8869 10.4888 L4.8393 10.6316 " />
<path d="M4.8393 10.6316 L4.2679 11.2031 " />
<path d="M4.2679 11.2031 L4.8869 11.2031 " />
<path d="M5.2202 10.2031 L5.8393 10.2031 " />
<path d="M5.8393 10.2031 L5.5060 10.5840 " />
<path d="M5.5060 10.5840 L5.6488 10.5840 " />
<path d="M5.6488 10.5840 L5.7440 10.6316 " />
<path d="M5.7440 10.6316 L5.7917 10.6793 " />
<path d="M5.7917 10.6793 L5.8393 10.7745 " />
<path d="M5.8393 10.7745 L5.8393 11.0126 " />
<path d="M5.8393 11.0126 L5.7917 11.1078 " />
<path d="M5.7917 11.1078 L5.7440 11.1555 " />
<path d="M5.7440 11.1555 L5.6488 11.2031 " />
<path d="M5.6488 11.2031 L5.3631 11.2031 " />
<path d="M5.3631 11.2031 L5.2679 11.1555 " />
<path d="M5.2679 11.1555 L5.2202 11.1078 " />
<path d="M6.0298 11.2983 L6.7917 11.2983 " />
<path d="M7.5060 11.2031 L7.0298 11.2031 " />
<path d="M7.0298 11.2031 L7.0298 10.2031 " />
<path d="M7.7917 10.2983 L7.8393 10.2507 " />
<path d="M7.8393 10.2507 L7.9345 10.2031 " />
<path d="M7.9345 10.2031 L8.1726 10.2031 " />
<path d="M8.1726 10.2031 L8.2679 10.2507 " />
<path d="M8.2679 10.2507 L8.3155 10.2983 " />
<path d="M8.3155 10.2983 L8.3631 10.3935 " />
<path d="M8.3631 10.3935 L8.3631 10.4888 " />
<path d="M8.3631 10.4888 L8.3155 10.6316 " />
<path d="M8.3155 10.6316 L7.7440 11.2031 " />
<path d="M7.7440 11.2031 L8.3631 11.2031 " />
<path d="M8.7917 11.1078 L8.8393 11.1555 " />
<path d="M8.8393 11.1555 L8.7917 11.2031 " />
<path d="M8.7917 11.2031 L8.7440 11.1555 " />
<path d="M8.7440 11.1555 L8.7917 11.1078 " />
<path d="M8.7917 11.1078 L8.7917 11.2031 " />
<path d="M9.3155 11.2031 L9.5060 11.2031 " />
<path d="M9.5060 11.2031 L9.6012 11.1555 " />
<path d="M9.6012 11.1555 L9.6488 11.1078 " />
<path d="M9.6488 11.1078 L9.7440 10.9650 " />
<path d="M9.7440 10.9650 L9.7917 10.7745 " />
<path d="M9.7917 10.7745 L9.7917 10.3935 " />
<path d="M9.7917 10.3935 L9.7440 10.2983 " />
<path d="M9.7440 10.2983 L9.6964 10.2507 " />
<path d="M9.6964 10.2507 L9.6012 10.2031 " />
<path d="M9.6012 10.2031 L9.4107 10.2031 " />
<path d="M9.4107 10.2031 L9.3155 10.2507 " />
<path d="M9.3155 10.2507 L9.2679 10.2983 " />
<path d="M9.2679 10.2983 L9.2202 10.3935 " />
<path d="M9.2202 10.3935 L9.2202 10.6316 " />
<path d="M9.2202 10.6316 L9.2679 10.7269 " />
<path d="M9.2679 10.7269 L9.3155 10.7745 " />
<path d="M9.3155 10.7745 L9.4107 10.8221 " />
<path d="M9.4107 10.8221 L9.6012 10.8221 " />
<path d="M9.6012 10.8221 L9.6964 10.7745 " />
<path d="M9.6964 10.7745 L9.7440 10.7269 " />
<path d="M9.7440 10.7269 L9.7917 10.6316 " />
<path d="M10.2202 10.8221 L10.9821 10.8221 " />
<path d="M11.3631 10.2031 L11.6012 11.2031 " />
<path d="M11.6012 11.2031 L11.7917 10.4888 " />
<path d="M11.7917 10.4888 L11.9821 11.2031 " />
<path d="M11.9821 11.2031 L12.2202 10.2031 " />
<path d="M13.1250 11.2031 L12.5536 11.2031 " />
<path d="M12.8393 11.2031 L12.8393 10.2031 " />
<path d="M12.8393 10.2031 L12.7440 10.3459 " />
<path d="M12.7440 10.3459 L12.6488 10.4412 " />
<path d="M12.6488 10.4412 L12.5536 10.4888 " />
<path d="M13.5536 11.1078 L13.6012 11.1555 " />
<path d="M13.6012 11.1555 L13.5536 11.2031 " />
<path d="M13.5536 11.2031 L13.5060 11.1555 " />
<path d="M13.5060 11.1555 L13.5536 11.1078 " />
<path d="M13.5536 11.1078 L13.5536 11.2031 " />
<path d="M13.9345 10.2031 L14.5536 10.2031 " />
<path d="M14.5536 10.2031 L14.2202 10.5840 " />
<path d="M14.2202 10.5840 L14.3631 10.5840 " />
<path d="M14.3631 10.5840 L14.4583 10.6316 " />
<path d="M14.4583 10.6316 L14.5060 10.6793 " />
<path d="M14.5060 10.6793 L14.5536 10.7745 " />
<path d="M14.5536 10.7745 L14.5536 11.0126 " />
<path d="M14.5536 11.0126 L14.5060 11.1078 " />
<path d="M14.5060 11.1078 L14.4583 11.1555 " />
<path d="M14.4583 11.1555 L14.3631 11.2031 " />
<path d="M14.3631 11.2031 L14.0774 11.2031 " />
<path d="M14.0774 11.2031 L13.9821 11.1555 " />
<path d="M13.9821 11.1555 L13.9345 11.1078 " />
<path d="M14.9821 10.8221 L15.7440 10.8221 " />
<path d="M16.2202 11.2031 L16.2202 10.2031 " />
<path d="M16.2202 10.2031 L16.6012 10.2031 " />
<path d="M16.6012 10.2031 L16.6964 10.2507 " />
<path d="M16.6964 10.2507 L16.7440 10.2983 " />
<path d="M16.7440 10.2983 L16.7917 10.3935 " />
<path d="M16.7917 10.3935 L16.7917 10.5364 " />
<path d="M16.7917 10.5364 L16.7440 10.6316 " />
<path d="M16.7440 10.6316 L16.6964 10.6793 " />
<path d="M16.6964 10.6793 L16.6012 10.7269 " />
<path d="M16.6012 10.7269 L16.2202 10.7269 " />
<path d="M17.7440 11.2031 L17.1726 11.2031 " />
<path d="M17.4583 11.2031 L17.4583 10.2031 " />
<path d="M17.4583 10.2031 L17.3631 10.3459 " />
<path d="M17.3631 10.3459 L17.2679 10.4412 " />
<path d="M17.2679 10.4412 L17.1726 10.4888 " />
<path d="M18.1726 11.1078 L18.2202 11.1555 " />
<path d="M18.2202 11.1555 L18.1726 11.2031 " />
<path d="M18.1726 11.2031 L18.1250 11.1555 " />
<path d="M18.1250 11.1555 L18.1726 11.1078 " />
<path d="M18.1726 11.1078 L18.1726 11.2031 " />
<path d="M18.6964 11.2031 L18.8869 11.2031 " />
<path d="M18.8869 11.2031 L18.9821 11.1555 " />
<path d="M18.9821 11.1555 L19.0298 11.1078 " />
<path d="M19.0298 11.1078 L19.1250 10.9650 " />
<path d="M19.1250 10.9650 L19.1726 10.7745 " />
<path d="M19.1726 10.7745 L19.1726 10.3935 " />
<path d="M19.1726 10.3935 L19.1250 10.2983 " />
<path d="M19.1250 10.2983 L19.0774 10.2507 " />
<path d="M19.0774 10.2507 L18.9821 10.2031 " />
<path d="M18.9821 10.2031 L18.7917 10.2031 " />
<path d="M18.7917 10.2031 L18.6964 10.2507 " />
<path d="M18.6964 10.2507 L18.6488 10.2983 " />
<path d="M18.6488 10.2983 L18.6012 10.3935 " />
<path d="M18.6012 10.3935 L18.6012 10.6316 " />
<path d="M18.6012 10.6316 L18.6488 10.7269 " />
<path d="M18.6488 10.7269 L18.6964 10.7745 " />
<path d="M18.6964 10.7745 L18.7917 10.8221 " />
<path d="M18.7917 10.8221 L18.9821 10.8221 " />
<path d="M18.9821 10.8221 L19.0774 10.7745 " />
<path d="M19.0774 10.7745 L19.1250 10.7269 " />
<path d="M19.1250 10.7269 L19.1726 10.6316 " />
<path d="M19.7917 10.2031 L19.8869 10.2031 " />
<path d="M19.8869 10.2031 L19.9821 10.2507 " />
<path d="M19.9821 10.2507 L20.0298 10.2983 " />
<path d="M20.0298 10.2983 L20.0774 10.3935 " />
<path d="M20.0774 10.3935 L20.1250 10.5840 " />
<path d="M20.1250 10.5840 L20.1250 10.8221 " />
<path d="M20.1250 10.8221 L20.0774 11.0126 " />
<path d="M20.0774 11.0126 L20.0298 11.1078 " />
<path d="M20.0298 11.1078 L19.9821 11.1555 " />
<path d="M19.9821 11.1555 L19.8869 11.2031 " />
<path d="M19.8869 11.2031 L19.7917 11.2031 " />
<path d="M19.7917 11.2031 L19.6964 11.1555 " />
<path d="M19.6964 11.1555 L19.6488 11.1078 " />
<path d="M19.6488 11.1078 L19.6012 11.0126 " />
<path d="M19.6012 11.0126 L19.5536 10.8221 " />
<path d="M19.5536 10.8221 L19.5536 10.5840 " />
<path d="M19.5536 10.5840 L19.6012 10.3935 " />
<path d="M19.6012 10.3935 L19.6488 10.2983 " />
<path d="M19.6488 10.2983 L19.6964 10.2507 " />
<path d="M19.6964 10.2507 L19.7917 10.2031 " />
<path d="M20.5536 10.8221 L21.3155 10.8221 " />
<path d="M22.2679 11.2031 L21.7917 11.2031 " />
<path d="M21.7917 11.2031 L21.7917 10.2031 " />
<path d="M22.5536 11.1555 L22.6964 11.2031 " />
<path d="M22.6964 11.2031 L22.9345 11.2031 " />
<path d="M22.9345 11.2031 L23.0298 11.1555 " />
<path d="M23.0298 11.1555 L23.0774 11.1078 " />
<path d="M23.0774 11.1078 L23.1250 11.0126 " />
<path d="M23.1250 11.0126 L23.1250 10.9174 " />
<path d="M23.1250 10.9174 L23.0774 10.8221 " />
<path d="M23.0774 10.8221 L23.0298 10.7745 " />
<path d="M23.0298 10.7745 L22.9345 10.7269 " />
<path d="M22.9345 10.7269 L22.7440 10.6793 " />
<path d="M22.7440 10.6793 L22.6488 10.6316 " />
<path d="M22.6488 10.6316 L22.6012 10.5840 " />
<path d="M22.6012 10.5840 L22.5536 10.4888 " />
<path d="M22.5536 10.4888 L22.5536 10.3935 " />
<path d="M22.5536 10.3935 L22.6012 10.2983 " />
<path d="M22.6012 10.2983 L22.6488 10.2507 " />
<path d="M22.6488 10.2507 L22.7440 10.2031 " />
<path d="M22.7440 10.2031 L22.9821 10.2031 " />
<path d="M22.9821 10.2031 L23.1250 10.2507 " />
<path d="M23.5060 10.2983 L23.5536 10.2507 " />
<path d="M23.5536 10.2507 L23.6488 10.2031 " />
<path d="M23.6488 10.2031 L23.8869 10.2031 " />
<path d="M23.8869 10.2031 L23.9821 10.2507 " />
<path d="M23.9821 10.2507 L24.0298 10.2983 " />
<path d="M24.0298 10.2983 L24.0774 10.3935 " />
<path d="M24.0774 10.3935 L24.0774 10.4888 " />
<path d="M24.0774 10.4888 L24.0298 10.6316 " />
<path d="M24.0298 10.6316 L23.4583 11.2031 " />
<path d="M23.4583 11.2031 L24.0774 11.2031 " />
<path d="M24.5060 11.1078 L24.5536 11.1555 " />
<path d="M24.5536 11.1555 L24.5060 11.2031 " />
<path d="M24.5060 11.2031 L24.4583 11.1555 " />
<path d="M24.4583 11.1555 L24.5060 11.1078 " />
<path d="M24.5060 11.1078 L24.5060 11.2031 " />
<path d="M25.4107 10.5364 L25.4107 11.2031 " />
<path d="M25.1726 10.1555 L24.9345 10.8697 " />
<path d="M24.9345 10.8697 L25.5536 10.8697 " />
<path d="M25.9345 10.8221 L26.6964 10.8221 " />
<path d="M27.5059 10.6793 L27.6488 10.7269 " />
<path d="M27.6488 10.7269 L27.6964 10.7745 " />
<path d="M27.6964 10.7745 L27.7440 10.8697 " />
<path d="M27.7440 10.8697 L27.7440 11.0126 " />
<path d="M27.7440 11.0126 L27.6964 11.1078 " />
<path d="M27.6964 11.1078 L27.6488 11.1555 " />
<path d="M27.6488 11.1555 L27.5536 11.2031 " />
<path d="M27.5536 11.2031 L27.1726 11.2031 " />
<path d="M27.1726 11.2031 L27.1726 10.2031 " />
<path d="M27.1726 10.2031 L27.5059 10.2031 " />
<path d="M27.5059 10.2031 L27.6012 10.2507 " />
<path d="M27.6012 10.2507 L27.6488 10.2983 " />
<path d="M27.6488 10.2983 L27.6964 10.3935 " />
<path d="M27.6964 10.3935 L27.6964 10.4888 " />
<path d="M27.6964 10.4888 L27.6488 10.5840 " />
<path d="M27.6488 10.5840 L27.6012 10.6316 " />
<path d="M27.6012 10.6316 L27.5059 10.6793 " />
<path d="M27.5059 10.6793 L27.1726 10.6793 " />
<path d="M28.7440 11.2031 L28.4107 10.7269 " />
<path d="M28.1726 11.2031 L28.1726 10.2031 " />
<path d="M28.1726 10.2031 L28.5536 10.2031 " />
<path d="M28.5536 10.2031 L28.6488 10.2507 " />
<path d="M28.6488 10.2507 L28.6964 10.2983 " />
<path d="M28.6964 10.2983 L28.7440 10.3935 " />
<path d="M28.7440 10.3935 L28.7440 10.5364 " />
<path d="M28.7440 10.5364 L28.6964 10.6316 " />
<path d="M28.6964 10.6316 L28.6488 10.6793 " />
<path d="M28.6488 10.6793 L28.5536 10.7269 " />
<path d="M28.5536 10.7269 L28.1726 10.7269 " />
</g></g>
<g style="fill:none;  stroke:#000000; stroke-width:0.0600; stroke-opacity:1;  stroke-linecap:round; stroke-linejoin:round;">
<circle cx="15.7298" cy="7.2482" r="0.0300" /> 
</g>
<g style="fill:none;  stroke:#000000; stroke-width:0.3000; stroke-opacity:1;  stroke-linecap:round; stroke-linejoin:round;">
<circle cx="16.2798" cy="6.7382" r="0.1500" /> 
</g> 
</svg>