#VRML V2.0 utf8
# 3D model generated by easyeda2kicad.py (https://github.com/uPesy/easyeda2kicad.py)

Shape{
    appearance Appearance {
        material  Material 	{
            diffuseColor 0.7019607843137254 0.7019607843137254 0.7019607843137254
            specularColor 0.2 0.2 0.2
            ambientIntensity 1.0
            transparency 0.0
            shininess 0.5
        }
    }
    geometry IndexedFaceSet {
        ccw TRUE
        solid FALSE
        coord DEF co Coordinate {
            point [
                3.374 -0.3764 -1.063, 3.374 -0.3764 1.0079, 3.626 -0.3764 -1.063, 3.626 -0.3764 1.0079, 3.626 -0.6283 -1.063, 3.626 -0.6283 1.0079, 3.626 -0.631 1.0283, 3.626 -0.3847 1.0815, 3.626 -0.6389 1.0472, 3.626 -0.4091 1.1514, 3.626 -0.4485 1.2141, 3.626 -0.6514 1.0636, 3.626 -0.5009 1.2664, 3.626 -0.6677 1.0761, 3.626 -0.5636 1.3058, 3.626 -0.6867 1.0839, 3.626 -0.6335 1.3303, 3.626 -0.7071 1.0866, 3.626 -0.7071 1.3386, 3.626 -4.2425 1.0866, 3.626 -4.2425 1.3386, 3.374 -0.7071 1.0866, 3.374 -4.2425 1.0866, 3.374 -0.7071 1.3386, 3.374 -4.2425 1.3386, 3.374 -0.6283 -1.063, 3.374 -0.6283 1.0079, 3.374 -0.3847 1.0815, 3.374 -0.631 1.0283, 3.374 -0.4091 1.1514, 3.374 -0.6389 1.0472, 3.374 -0.4485 1.2141, 3.374 -0.6514 1.0636, 3.374 -0.5009 1.2664, 3.374 -0.6677 1.0761, 3.374 -0.6867 1.0839, 3.374 -0.6335 1.3303, 3.374 -0.5636 1.3058, 3.5472 -4.3606 1.1654, 3.5472 -4.3606 1.2598, 3.4528 -4.3606 1.1654, 3.4528 -4.3606 1.2598, 3.4528 -0.5496 -1.1811, 3.4528 -0.4551 -1.1811, 3.5472 -0.5496 -1.1811, 3.5472 -0.4551 -1.1811, 1.626 0.2929 2.0866, 1.626 -4.2425 2.0866, 1.374 0.2929 2.0866, 1.374 -4.2425 2.0866, 1.374 0.6236 -1.063, 1.374 0.6236 2.0079, 1.626 0.6236 -1.063, 1.626 0.6236 2.0079, 1.626 0.3717 -1.063, 1.626 0.3717 2.0079, 1.626 0.369 2.0283, 1.626 0.6124 2.0935, 1.626 0.3611 2.0472, 1.626 0.5793 2.1732, 1.626 0.3486 2.0636, 1.626 0.5268 2.2417, 1.626 0.3323 2.0761, 1.626 0.4583 2.2943, 1.626 0.3133 2.0839, 1.626 0.3785 2.3273, 1.626 0.2929 2.3386, 1.626 -4.2425 2.3386, 1.374 0.2929 2.3386, 1.374 -4.2425 2.3386, 1.374 0.3133 2.0839, 1.374 0.3785 2.3273, 1.374 0.3323 2.0761, 1.374 0.4583 2.2943, 1.374 0.3486 2.0636, 1.374 0.5268 2.2417, 1.374 0.3611 2.0472, 1.374 0.5793 2.1732, 1.374 0.369 2.0283, 1.374 0.6124 2.0935, 1.374 0.3717 2.0079, 1.374 0.3717 -1.063, 1.5472 -4.3606 2.2598, 1.5472 -4.3606 2.1654, 1.4528 -4.3606 2.1654, 1.4528 -4.3606 2.2598, 1.5472 0.5449 -1.1811, 1.5472 0.4504 -1.1811, 1.4528 0.5449 -1.1811, 1.4528 0.4504 -1.1811, -3.374 0.2929 2.0866, -3.374 -4.2425 2.0866, -3.626 0.2929 2.0866, -3.626 -4.2425 2.0866, -3.626 0.6236 -1.063, -3.626 0.6236 2.0079, -3.374 0.6236 -1.063, -3.374 0.6236 2.0079, -3.374 0.3717 -1.063, -3.374 0.3717 2.0079, -3.374 0.369 2.0283, -3.374 0.6124 2.0935, -3.374 0.3611 2.0472, -3.374 0.5793 2.1732, -3.374 0.3486 2.0636, -3.374 0.5268 2.2417, -3.374 0.3323 2.0761, -3.374 0.4583 2.2943, -3.374 0.3133 2.0839, -3.374 0.3785 2.3273, -3.374 0.2929 2.3386, -3.374 -4.2425 2.3386, -3.626 0.2929 2.3386, -3.626 -4.2425 2.3386, -3.626 0.3133 2.0839, -3.626 0.3785 2.3273, -3.626 0.3323 2.0761, -3.626 0.4583 2.2943, -3.626 0.3486 2.0636, -3.626 0.5268 2.2417, -3.626 0.3611 2.0472, -3.626 0.5793 2.1732, -3.626 0.369 2.0283, -3.626 0.6124 2.0935, -3.626 0.3717 2.0079, -3.626 0.3717 -1.063, -3.4528 -4.3606 2.2598, -3.4528 -4.3606 2.1654, -3.5472 -4.3606 2.1654, -3.5472 -4.3606 2.2598, -3.4528 0.5449 -1.1811, -3.4528 0.4504 -1.1811, -3.5472 0.5449 -1.1811, -3.5472 0.4504 -1.1811, -2.626 -0.3764 -1.063, -2.626 -0.3764 1.0079, -2.374 -0.3764 -1.063, -2.374 -0.3764 1.0079, -2.374 -0.6283 -1.063, -2.374 -0.6283 1.0079, -2.374 -0.631 1.0283, -2.374 -0.3847 1.0815, -2.374 -0.6389 1.0472, -2.374 -0.4091 1.1514, -2.374 -0.4485 1.2141, -2.374 -0.6514 1.0636, -2.374 -0.5009 1.2664, -2.374 -0.6677 1.0761, -2.374 -0.5636 1.3058, -2.374 -0.6867 1.0839, -2.374 -0.6335 1.3303, -2.374 -0.7071 1.0866, -2.374 -0.7071 1.3386, -2.374 -4.2425 1.0866, -2.374 -4.2425 1.3386, -2.626 -0.7071 1.0866, -2.626 -4.2425 1.0866, -2.626 -0.7071 1.3386, -2.626 -4.2425 1.3386, -2.626 -0.6283 -1.063, -2.626 -0.6283 1.0079, -2.626 -0.3847 1.0815, -2.626 -0.631 1.0283, -2.626 -0.4091 1.1514, -2.626 -0.6389 1.0472, -2.626 -0.4485 1.2141, -2.626 -0.6514 1.0636, -2.626 -0.5009 1.2664, -2.626 -0.6677 1.0761, -2.626 -0.6867 1.0839, -2.626 -0.6335 1.3303, -2.626 -0.5636 1.3058, -2.4528 -4.3606 1.1654, -2.4528 -4.3606 1.2598, -2.5472 -4.3606 1.1654, -2.5472 -4.3606 1.2598, -2.5472 -0.5496 -1.1811, -2.5472 -0.4551 -1.1811, -2.4528 -0.5496 -1.1811, -2.4528 -0.4551 -1.1811, -2.374 0.2929 2.0866, -2.374 -4.2425 2.0866, -2.626 0.2929 2.0866, -2.626 -4.2425 2.0866, -2.626 0.6236 -1.063, -2.626 0.6236 2.0079, -2.374 0.6236 -1.063, -2.374 0.6236 2.0079, -2.374 0.3717 -1.063, -2.374 0.3717 2.0079, -2.374 0.369 2.0283, -2.374 0.6124 2.0935, -2.374 0.3611 2.0472, -2.374 0.5793 2.1732, -2.374 0.3486 2.0636, -2.374 0.5268 2.2417, -2.374 0.3323 2.0761, -2.374 0.4583 2.2943, -2.374 0.3133 2.0839, -2.374 0.3785 2.3273, -2.374 0.2929 2.3386, -2.374 -4.2425 2.3386, -2.626 0.2929 2.3386, -2.626 -4.2425 2.3386, -2.626 0.3133 2.0839, -2.626 0.3785 2.3273, -2.626 0.3323 2.0761, -2.626 0.4583 2.2943, -2.626 0.3486 2.0636, -2.626 0.5268 2.2417, -2.626 0.3611 2.0472, -2.626 0.5793 2.1732, -2.626 0.369 2.0283, -2.626 0.6124 2.0935, -2.626 0.3717 2.0079, -2.626 0.3717 -1.063, -2.4528 -4.3606 2.2598, -2.4528 -4.3606 2.1654, -2.5472 -4.3606 2.1654, -2.5472 -4.3606 2.2598, -2.4528 0.5449 -1.1811, -2.4528 0.4504 -1.1811, -2.5472 0.5449 -1.1811, -2.5472 0.4504 -1.1811, -3.626 -0.3764 -1.063, -3.626 -0.3764 1.0079, -3.374 -0.3764 -1.063, -3.374 -0.3764 1.0079, -3.374 -0.6283 -1.063, -3.374 -0.6283 1.0079, -3.374 -0.631 1.0283, -3.374 -0.3847 1.0815, -3.374 -0.6389 1.0472, -3.374 -0.4091 1.1514, -3.374 -0.4485 1.2141, -3.374 -0.6514 1.0636, -3.374 -0.5009 1.2664, -3.374 -0.6677 1.0761, -3.374 -0.5636 1.3058, -3.374 -0.6867 1.0839, -3.374 -0.6335 1.3303, -3.374 -0.7071 1.0866, -3.374 -0.7071 1.3386, -3.374 -4.2425 1.0866, -3.374 -4.2425 1.3386, -3.626 -0.7071 1.0866, -3.626 -4.2425 1.0866, -3.626 -0.7071 1.3386, -3.626 -4.2425 1.3386, -3.626 -0.6283 -1.063, -3.626 -0.6283 1.0079, -3.626 -0.3847 1.0815, -3.626 -0.631 1.0283, -3.626 -0.4091 1.1514, -3.626 -0.6389 1.0472, -3.626 -0.4485 1.2141, -3.626 -0.6514 1.0636, -3.626 -0.5009 1.2664, -3.626 -0.6677 1.0761, -3.626 -0.6867 1.0839, -3.626 -0.6335 1.3303, -3.626 -0.5636 1.3058, -3.4528 -4.3606 1.1654, -3.4528 -4.3606 1.2598, -3.5472 -4.3606 1.1654, -3.5472 -4.3606 1.2598, -3.5472 -0.5496 -1.1811, -3.5472 -0.4551 -1.1811, -3.4528 -0.5496 -1.1811, -3.4528 -0.4551 -1.1811, 2.626 0.2929 2.0866, 2.626 -4.2425 2.0866, 2.374 0.2929 2.0866, 2.374 -4.2425 2.0866, 2.374 0.6236 -1.063, 2.374 0.6236 2.0079, 2.626 0.6236 -1.063, 2.626 0.6236 2.0079, 2.626 0.3717 -1.063, 2.626 0.3717 2.0079, 2.626 0.369 2.0283, 2.626 0.6124 2.0935, 2.626 0.3611 2.0472, 2.626 0.5793 2.1732, 2.626 0.3486 2.0636, 2.626 0.5268 2.2417, 2.626 0.3323 2.0761, 2.626 0.4583 2.2943, 2.626 0.3133 2.0839, 2.626 0.3785 2.3273, 2.626 0.2929 2.3386, 2.626 -4.2425 2.3386, 2.374 0.2929 2.3386, 2.374 -4.2425 2.3386, 2.374 0.3133 2.0839, 2.374 0.3785 2.3273, 2.374 0.3323 2.0761, 2.374 0.4583 2.2943, 2.374 0.3486 2.0636, 2.374 0.5268 2.2417, 2.374 0.3611 2.0472, 2.374 0.5793 2.1732, 2.374 0.369 2.0283, 2.374 0.6124 2.0935, 2.374 0.3717 2.0079, 2.374 0.3717 -1.063, 2.5472 -4.3606 2.2598, 2.5472 -4.3606 2.1654, 2.4528 -4.3606 2.1654, 2.4528 -4.3606 2.2598, 2.5472 0.5449 -1.1811, 2.5472 0.4504 -1.1811, 2.4528 0.5449 -1.1811, 2.4528 0.4504 -1.1811, 2.374 -0.3764 -1.063, 2.374 -0.3764 1.0079, 2.626 -0.3764 -1.063, 2.626 -0.3764 1.0079, 2.626 -0.6283 -1.063, 2.626 -0.6283 1.0079, 2.626 -0.631 1.0283, 2.626 -0.3847 1.0815, 2.626 -0.6389 1.0472, 2.626 -0.4091 1.1514, 2.626 -0.6514 1.0636, 2.626 -0.4485 1.2141, 2.626 -0.5009 1.2664, 2.626 -0.6677 1.0761, 2.626 -0.5636 1.3058, 2.626 -0.6867 1.0839, 2.626 -0.6335 1.3303, 2.626 -0.7071 1.0866, 2.626 -0.7071 1.3386, 2.626 -4.2425 1.0866, 2.626 -4.2425 1.3386, 2.374 -0.7071 1.0866, 2.374 -4.2425 1.0866, 2.374 -0.7071 1.3386, 2.374 -4.2425 1.3386, 2.374 -0.6283 -1.063, 2.374 -0.6283 1.0079, 2.374 -0.3847 1.0815, 2.374 -0.631 1.0283, 2.374 -0.4091 1.1514, 2.374 -0.6389 1.0472, 2.374 -0.4485 1.2141, 2.374 -0.6514 1.0636, 2.374 -0.5009 1.2664, 2.374 -0.6677 1.0761, 2.374 -0.6867 1.0839, 2.374 -0.6335 1.3303, 2.374 -0.5636 1.3058, 2.5472 -4.3606 1.1654, 2.5472 -4.3606 1.2598, 2.4528 -4.3606 1.1654, 2.4528 -4.3606 1.2598, 2.4528 -0.5496 -1.1811, 2.4528 -0.4551 -1.1811, 2.5472 -0.5496 -1.1811, 2.5472 -0.4551 -1.1811, 3.626 0.2929 2.0866, 3.626 -4.2425 2.0866, 3.374 0.2929 2.0866, 3.374 -4.2425 2.0866, 3.374 0.6236 -1.063, 3.374 0.6236 2.0079, 3.626 0.6236 -1.063, 3.626 0.6236 2.0079, 3.626 0.3717 -1.063, 3.626 0.3717 2.0079, 3.626 0.369 2.0283, 3.626 0.6124 2.0935, 3.626 0.3611 2.0472, 3.626 0.5793 2.1732, 3.626 0.3486 2.0636, 3.626 0.5268 2.2417, 3.626 0.3323 2.0761, 3.626 0.4583 2.2943, 3.626 0.3133 2.0839, 3.626 0.3785 2.3273, 3.626 0.2929 2.3386, 3.626 -4.2425 2.3386, 3.374 0.2929 2.3386, 3.374 -4.2425 2.3386, 3.374 0.3133 2.0839, 3.374 0.3785 2.3273, 3.374 0.3323 2.0761, 3.374 0.4583 2.2943, 3.374 0.3486 2.0636, 3.374 0.5268 2.2417, 3.374 0.3611 2.0472, 3.374 0.5793 2.1732, 3.374 0.369 2.0283, 3.374 0.6124 2.0935, 3.374 0.3717 2.0079, 3.374 0.3717 -1.063, 3.5472 -4.3606 2.2598, 3.5472 -4.3606 2.1654, 3.4528 -4.3606 2.1654, 3.4528 -4.3606 2.2598, 3.5472 0.5449 -1.1811, 3.5472 0.4504 -1.1811, 3.4528 0.5449 -1.1811, 3.4528 0.4504 -1.1811, 1.374 -0.3764 -1.063, 1.374 -0.3764 1.0079, 1.626 -0.3764 -1.063, 1.626 -0.3764 1.0079, 1.626 -0.6283 -1.063, 1.626 -0.6283 1.0079, 1.626 -0.631 1.0283, 1.626 -0.3847 1.0815, 1.626 -0.6389 1.0472, 1.626 -0.4091 1.1514, 1.626 -0.6514 1.0636, 1.626 -0.4485 1.2141, 1.626 -0.5009 1.2664, 1.626 -0.6677 1.0761, 1.626 -0.5636 1.3058, 1.626 -0.6867 1.0839, 1.626 -0.6335 1.3303, 1.626 -0.7071 1.0866, 1.626 -0.7071 1.3386, 1.626 -4.2425 1.0866, 1.626 -4.2425 1.3386, 1.374 -0.7071 1.0866, 1.374 -4.2425 1.0866, 1.374 -0.7071 1.3386, 1.374 -4.2425 1.3386, 1.374 -0.6867 1.0839, 1.374 -0.6335 1.3303, 1.374 -0.6677 1.0761, 1.374 -0.5636 1.3058, 1.374 -0.5009 1.2664, 1.374 -0.6514 1.0636, 1.374 -0.4485 1.2141, 1.374 -0.6389 1.0472, 1.374 -0.4091 1.1514, 1.374 -0.631 1.0283, 1.374 -0.3847 1.0815, 1.374 -0.6283 1.0079, 1.374 -0.6283 -1.063, 1.5472 -4.3606 1.1654, 1.5472 -4.3606 1.2598, 1.4528 -4.3606 1.1654, 1.4528 -4.3606 1.2598, 1.4528 -0.5496 -1.1811, 1.4528 -0.4551 -1.1811, 1.5472 -0.5496 -1.1811, 1.5472 -0.4551 -1.1811
            ]
        }
        coordIndex [
            0,1,2,-1,2,1,3,-1,4,2,5,-1,5,2,3,-1,5,3,6,-1,6,3,7,-1,6,7,8,-1,7,9,8,-1,8,9,10,-1,8,10,11,-1,11,10,12,-1,11,12,13,-1,13,12,14,-1,13,14,15,-1,15,14,16,-1,15,16,17,-1,17,16,18,-1,17,18,19,-1,19,18,20,-1,17,19,21,-1,21,19,22,-1,23,24,18,-1,18,24,20,-1,0,25,1,-1,1,25,26,-1,1,26,27,-1,27,26,28,-1,27,28,29,-1,29,28,30,-1,29,30,31,-1,31,30,32,-1,31,32,33,-1,33,32,34,-1,22,24,21,-1,21,24,23,-1,21,23,35,-1,35,23,36,-1,35,36,34,-1,34,36,37,-1,34,37,33,-1,38,19,39,-1,39,19,20,-1,19,38,22,-1,22,38,40,-1,40,38,41,-1,41,38,39,-1,39,20,41,-1,41,20,24,-1,41,24,40,-1,40,24,22,-1,4,5,25,-1,25,5,26,-1,42,43,44,-1,44,43,45,-1,17,21,35,-1,17,35,15,-1,15,35,34,-1,15,34,13,-1,13,34,32,-1,13,32,11,-1,11,32,30,-1,11,30,8,-1,8,30,28,-1,8,28,6,-1,6,28,26,-1,6,26,5,-1,3,1,27,-1,3,27,7,-1,7,27,29,-1,7,29,9,-1,9,29,31,-1,9,31,10,-1,10,31,33,-1,10,33,12,-1,12,33,37,-1,12,37,14,-1,14,37,36,-1,14,36,16,-1,16,36,23,-1,16,23,18,-1,0,43,25,-1,25,43,42,-1,2,45,0,-1,0,45,43,-1,44,4,42,-1,42,4,25,-1,4,44,2,-1,2,44,45,-1,46,47,48,-1,48,47,49,-1,50,51,52,-1,52,51,53,-1,54,52,55,-1,55,52,53,-1,55,53,56,-1,56,53,57,-1,56,57,58,-1,58,57,59,-1,58,59,60,-1,60,59,61,-1,60,61,62,-1,62,61,63,-1,62,63,64,-1,64,63,65,-1,64,65,46,-1,46,65,66,-1,46,66,47,-1,47,66,67,-1,68,69,66,-1,66,69,67,-1,49,69,48,-1,48,69,68,-1,48,68,70,-1,70,68,71,-1,70,71,72,-1,72,71,73,-1,72,73,74,-1,74,73,75,-1,74,75,76,-1,76,75,77,-1,76,77,78,-1,78,77,79,-1,78,79,80,-1,80,79,51,-1,80,51,81,-1,81,51,50,-1,67,82,47,-1,47,82,83,-1,84,49,83,-1,83,49,47,-1,84,83,85,-1,85,83,82,-1,82,67,85,-1,85,67,69,-1,85,69,84,-1,84,69,49,-1,54,55,81,-1,81,55,80,-1,86,87,88,-1,88,87,89,-1,80,55,56,-1,80,56,78,-1,78,56,58,-1,78,58,76,-1,76,58,60,-1,76,60,74,-1,74,60,62,-1,74,62,72,-1,72,62,64,-1,72,64,70,-1,70,64,46,-1,70,46,48,-1,53,51,79,-1,53,79,57,-1,57,79,77,-1,57,77,59,-1,59,77,75,-1,59,75,61,-1,61,75,73,-1,61,73,63,-1,63,73,71,-1,63,71,65,-1,65,71,68,-1,65,68,66,-1,50,88,81,-1,81,88,89,-1,52,86,50,-1,50,86,88,-1,87,54,89,-1,89,54,81,-1,54,87,52,-1,52,87,86,-1,90,91,92,-1,92,91,93,-1,94,95,96,-1,96,95,97,-1,98,96,99,-1,99,96,97,-1,99,97,100,-1,100,97,101,-1,100,101,102,-1,102,101,103,-1,102,103,104,-1,104,103,105,-1,104,105,106,-1,106,105,107,-1,106,107,108,-1,108,107,109,-1,108,109,90,-1,90,109,110,-1,90,110,91,-1,91,110,111,-1,112,113,110,-1,110,113,111,-1,93,113,92,-1,92,113,112,-1,92,112,114,-1,114,112,115,-1,114,115,116,-1,116,115,117,-1,116,117,118,-1,118,117,119,-1,118,119,120,-1,120,119,121,-1,120,121,122,-1,122,121,123,-1,122,123,124,-1,124,123,95,-1,124,95,125,-1,125,95,94,-1,111,126,91,-1,91,126,127,-1,128,93,127,-1,127,93,91,-1,128,127,129,-1,129,127,126,-1,126,111,129,-1,129,111,113,-1,129,113,128,-1,128,113,93,-1,98,99,125,-1,125,99,124,-1,130,131,132,-1,132,131,133,-1,124,99,100,-1,124,100,122,-1,122,100,102,-1,122,102,120,-1,120,102,104,-1,120,104,118,-1,118,104,106,-1,118,106,116,-1,116,106,108,-1,116,108,114,-1,114,108,90,-1,114,90,92,-1,97,95,123,-1,97,123,101,-1,101,123,121,-1,101,121,103,-1,103,121,119,-1,103,119,105,-1,105,119,117,-1,105,117,107,-1,107,117,115,-1,107,115,109,-1,109,115,112,-1,109,112,110,-1,94,132,125,-1,125,132,133,-1,96,130,94,-1,94,130,132,-1,131,98,133,-1,133,98,125,-1,98,131,96,-1,96,131,130,-1,134,135,136,-1,136,135,137,-1,138,136,139,-1,139,136,137,-1,139,137,140,-1,140,137,141,-1,140,141,142,-1,141,143,142,-1,142,143,144,-1,142,144,145,-1,145,144,146,-1,145,146,147,-1,147,146,148,-1,147,148,149,-1,149,148,150,-1,149,150,151,-1,151,150,152,-1,151,152,153,-1,153,152,154,-1,151,153,155,-1,155,153,156,-1,157,158,152,-1,152,158,154,-1,134,159,135,-1,135,159,160,-1,135,160,161,-1,161,160,162,-1,161,162,163,-1,163,162,164,-1,163,164,165,-1,165,164,166,-1,165,166,167,-1,167,166,168,-1,156,158,155,-1,155,158,157,-1,155,157,169,-1,169,157,170,-1,169,170,168,-1,168,170,171,-1,168,171,167,-1,172,153,173,-1,173,153,154,-1,153,172,156,-1,156,172,174,-1,174,172,175,-1,175,172,173,-1,173,154,175,-1,175,154,158,-1,175,158,174,-1,174,158,156,-1,138,139,159,-1,159,139,160,-1,176,177,178,-1,178,177,179,-1,151,155,169,-1,151,169,149,-1,149,169,168,-1,149,168,147,-1,147,168,166,-1,147,166,145,-1,145,166,164,-1,145,164,142,-1,142,164,162,-1,142,162,140,-1,140,162,160,-1,140,160,139,-1,137,135,161,-1,137,161,141,-1,141,161,163,-1,141,163,143,-1,143,163,165,-1,143,165,144,-1,144,165,167,-1,144,167,146,-1,146,167,171,-1,146,171,148,-1,148,171,170,-1,148,170,150,-1,150,170,157,-1,150,157,152,-1,134,177,159,-1,159,177,176,-1,136,179,134,-1,134,179,177,-1,178,138,176,-1,176,138,159,-1,138,178,136,-1,136,178,179,-1,180,181,182,-1,182,181,183,-1,184,185,186,-1,186,185,187,-1,188,186,189,-1,189,186,187,-1,189,187,190,-1,190,187,191,-1,190,191,192,-1,192,191,193,-1,192,193,194,-1,194,193,195,-1,194,195,196,-1,196,195,197,-1,196,197,198,-1,198,197,199,-1,198,199,180,-1,180,199,200,-1,180,200,181,-1,181,200,201,-1,202,203,200,-1,200,203,201,-1,183,203,182,-1,182,203,202,-1,182,202,204,-1,204,202,205,-1,204,205,206,-1,206,205,207,-1,206,207,208,-1,208,207,209,-1,208,209,210,-1,210,209,211,-1,210,211,212,-1,212,211,213,-1,212,213,214,-1,214,213,185,-1,214,185,215,-1,215,185,184,-1,201,216,181,-1,181,216,217,-1,218,183,217,-1,217,183,181,-1,218,217,219,-1,219,217,216,-1,216,201,219,-1,219,201,203,-1,219,203,218,-1,218,203,183,-1,188,189,215,-1,215,189,214,-1,220,221,222,-1,222,221,223,-1,214,189,190,-1,214,190,212,-1,212,190,192,-1,212,192,210,-1,210,192,194,-1,210,194,208,-1,208,194,196,-1,208,196,206,-1,206,196,198,-1,206,198,204,-1,204,198,180,-1,204,180,182,-1,187,185,213,-1,187,213,191,-1,191,213,211,-1,191,211,193,-1,193,211,209,-1,193,209,195,-1,195,209,207,-1,195,207,197,-1,197,207,205,-1,197,205,199,-1,199,205,202,-1,199,202,200,-1,184,222,215,-1,215,222,223,-1,186,220,184,-1,184,220,222,-1,221,188,223,-1,223,188,215,-1,188,221,186,-1,186,221,220,-1,224,225,226,-1,226,225,227,-1,228,226,229,-1,229,226,227,-1,229,227,230,-1,230,227,231,-1,230,231,232,-1,231,233,232,-1,232,233,234,-1,232,234,235,-1,235,234,236,-1,235,236,237,-1,237,236,238,-1,237,238,239,-1,239,238,240,-1,239,240,241,-1,241,240,242,-1,241,242,243,-1,243,242,244,-1,241,243,245,-1,245,243,246,-1,247,248,242,-1,242,248,244,-1,224,249,225,-1,225,249,250,-1,225,250,251,-1,251,250,252,-1,251,252,253,-1,253,252,254,-1,253,254,255,-1,255,254,256,-1,255,256,257,-1,257,256,258,-1,246,248,245,-1,245,248,247,-1,245,247,259,-1,259,247,260,-1,259,260,258,-1,258,260,261,-1,258,261,257,-1,262,243,263,-1,263,243,244,-1,243,262,246,-1,246,262,264,-1,264,262,265,-1,265,262,263,-1,263,244,265,-1,265,244,248,-1,265,248,264,-1,264,248,246,-1,228,229,249,-1,249,229,250,-1,266,267,268,-1,268,267,269,-1,241,245,259,-1,241,259,239,-1,239,259,258,-1,239,258,237,-1,237,258,256,-1,237,256,235,-1,235,256,254,-1,235,254,232,-1,232,254,252,-1,232,252,230,-1,230,252,250,-1,230,250,229,-1,227,225,251,-1,227,251,231,-1,231,251,253,-1,231,253,233,-1,233,253,255,-1,233,255,234,-1,234,255,257,-1,234,257,236,-1,236,257,261,-1,236,261,238,-1,238,261,260,-1,238,260,240,-1,240,260,247,-1,240,247,242,-1,224,267,249,-1,249,267,266,-1,226,269,224,-1,224,269,267,-1,268,228,266,-1,266,228,249,-1,228,268,226,-1,226,268,269,-1,270,271,272,-1,272,271,273,-1,274,275,276,-1,276,275,277,-1,278,276,279,-1,279,276,277,-1,279,277,280,-1,280,277,281,-1,280,281,282,-1,282,281,283,-1,282,283,284,-1,284,283,285,-1,284,285,286,-1,286,285,287,-1,286,287,288,-1,288,287,289,-1,288,289,270,-1,270,289,290,-1,270,290,271,-1,271,290,291,-1,292,293,290,-1,290,293,291,-1,273,293,272,-1,272,293,292,-1,272,292,294,-1,294,292,295,-1,294,295,296,-1,296,295,297,-1,296,297,298,-1,298,297,299,-1,298,299,300,-1,300,299,301,-1,300,301,302,-1,302,301,303,-1,302,303,304,-1,304,303,275,-1,304,275,305,-1,305,275,274,-1,291,306,271,-1,271,306,307,-1,308,273,307,-1,307,273,271,-1,308,307,309,-1,309,307,306,-1,306,291,309,-1,309,291,293,-1,309,293,308,-1,308,293,273,-1,278,279,305,-1,305,279,304,-1,310,311,312,-1,312,311,313,-1,304,279,280,-1,304,280,302,-1,302,280,282,-1,302,282,300,-1,300,282,284,-1,300,284,298,-1,298,284,286,-1,298,286,296,-1,296,286,288,-1,296,288,294,-1,294,288,270,-1,294,270,272,-1,277,275,303,-1,277,303,281,-1,281,303,301,-1,281,301,283,-1,283,301,299,-1,283,299,285,-1,285,299,297,-1,285,297,287,-1,287,297,295,-1,287,295,289,-1,289,295,292,-1,289,292,290,-1,274,312,305,-1,305,312,313,-1,276,310,274,-1,274,310,312,-1,311,278,313,-1,313,278,305,-1,278,311,276,-1,276,311,310,-1,314,315,316,-1,316,315,317,-1,318,316,319,-1,319,316,317,-1,319,317,320,-1,320,317,321,-1,320,321,322,-1,322,321,323,-1,322,323,324,-1,323,325,324,-1,324,325,326,-1,324,326,327,-1,327,326,328,-1,327,328,329,-1,329,328,330,-1,329,330,331,-1,331,330,332,-1,331,332,333,-1,333,332,334,-1,331,333,335,-1,335,333,336,-1,337,338,332,-1,332,338,334,-1,314,339,315,-1,315,339,340,-1,315,340,341,-1,341,340,342,-1,341,342,343,-1,343,342,344,-1,343,344,345,-1,345,344,346,-1,345,346,347,-1,347,346,348,-1,336,338,335,-1,335,338,337,-1,335,337,349,-1,349,337,350,-1,349,350,348,-1,348,350,351,-1,348,351,347,-1,352,333,353,-1,353,333,334,-1,333,352,336,-1,336,352,354,-1,354,352,355,-1,355,352,353,-1,353,334,355,-1,355,334,338,-1,355,338,354,-1,354,338,336,-1,318,319,339,-1,339,319,340,-1,356,357,358,-1,358,357,359,-1,331,335,349,-1,331,349,329,-1,329,349,348,-1,329,348,327,-1,327,348,346,-1,327,346,324,-1,324,346,344,-1,324,344,322,-1,322,344,342,-1,322,342,320,-1,320,342,340,-1,320,340,319,-1,317,315,341,-1,317,341,321,-1,321,341,343,-1,321,343,323,-1,323,343,345,-1,323,345,325,-1,325,345,347,-1,325,347,326,-1,326,347,351,-1,326,351,328,-1,328,351,350,-1,328,350,330,-1,330,350,337,-1,330,337,332,-1,314,357,339,-1,339,357,356,-1,316,359,314,-1,314,359,357,-1,358,318,356,-1,356,318,339,-1,318,358,316,-1,316,358,359,-1,360,361,362,-1,362,361,363,-1,364,365,366,-1,366,365,367,-1,368,366,369,-1,369,366,367,-1,369,367,370,-1,370,367,371,-1,370,371,372,-1,372,371,373,-1,372,373,374,-1,374,373,375,-1,374,375,376,-1,376,375,377,-1,376,377,378,-1,378,377,379,-1,378,379,360,-1,360,379,380,-1,360,380,361,-1,361,380,381,-1,382,383,380,-1,380,383,381,-1,363,383,362,-1,362,383,382,-1,362,382,384,-1,384,382,385,-1,384,385,386,-1,386,385,387,-1,386,387,388,-1,388,387,389,-1,388,389,390,-1,390,389,391,-1,390,391,392,-1,392,391,393,-1,392,393,394,-1,394,393,365,-1,394,365,395,-1,395,365,364,-1,381,396,361,-1,361,396,397,-1,398,363,397,-1,397,363,361,-1,398,397,399,-1,399,397,396,-1,396,381,399,-1,399,381,383,-1,399,383,398,-1,398,383,363,-1,368,369,395,-1,395,369,394,-1,400,401,402,-1,402,401,403,-1,394,369,370,-1,394,370,392,-1,392,370,372,-1,392,372,390,-1,390,372,374,-1,390,374,388,-1,388,374,376,-1,388,376,386,-1,386,376,378,-1,386,378,384,-1,384,378,360,-1,384,360,362,-1,367,365,393,-1,367,393,371,-1,371,393,391,-1,371,391,373,-1,373,391,389,-1,373,389,375,-1,375,389,387,-1,375,387,377,-1,377,387,385,-1,377,385,379,-1,379,385,382,-1,379,382,380,-1,364,402,395,-1,395,402,403,-1,366,400,364,-1,364,400,402,-1,401,368,403,-1,403,368,395,-1,368,401,366,-1,366,401,400,-1,404,405,406,-1,406,405,407,-1,408,406,409,-1,409,406,407,-1,409,407,410,-1,410,407,411,-1,410,411,412,-1,412,411,413,-1,412,413,414,-1,413,415,414,-1,414,415,416,-1,414,416,417,-1,417,416,418,-1,417,418,419,-1,419,418,420,-1,419,420,421,-1,421,420,422,-1,421,422,423,-1,423,422,424,-1,421,423,425,-1,425,423,426,-1,427,428,422,-1,422,428,424,-1,426,428,425,-1,425,428,427,-1,425,427,429,-1,429,427,430,-1,429,430,431,-1,430,432,431,-1,431,432,433,-1,431,433,434,-1,434,433,435,-1,434,435,436,-1,436,435,437,-1,436,437,438,-1,438,437,439,-1,438,439,440,-1,440,439,405,-1,440,405,441,-1,441,405,404,-1,442,423,443,-1,443,423,424,-1,423,442,426,-1,426,442,444,-1,444,442,445,-1,445,442,443,-1,443,424,445,-1,445,424,428,-1,445,428,444,-1,444,428,426,-1,408,409,441,-1,441,409,440,-1,446,447,448,-1,448,447,449,-1,421,425,429,-1,421,429,419,-1,419,429,431,-1,419,431,417,-1,417,431,434,-1,417,434,414,-1,414,434,436,-1,414,436,412,-1,412,436,438,-1,412,438,410,-1,410,438,440,-1,410,440,409,-1,407,405,439,-1,407,439,411,-1,411,439,437,-1,411,437,413,-1,413,437,435,-1,413,435,415,-1,415,435,433,-1,415,433,416,-1,416,433,432,-1,416,432,418,-1,418,432,430,-1,418,430,420,-1,420,430,427,-1,420,427,422,-1,404,447,441,-1,441,447,446,-1,406,449,404,-1,404,449,447,-1,448,408,446,-1,446,408,441,-1,408,448,406,-1,406,448,449,-1,
        ]
    }
}
Shape{
    appearance Appearance {
        material  Material 	{
            diffuseColor 0.17647058823529413 0.17647058823529413 0.17647058823529413
            specularColor 0.050980392156862744 0.050980392156862744 0.050980392156862744
            ambientIntensity 0.251
            transparency 0.0
            shininess 0.5
        }
    }
    geometry IndexedFaceSet {
        ccw TRUE
        solid FALSE
        coord DEF co Coordinate {
            point [
                -4.7343 -1.2898 0.0, -4.2815 -1.2898 0.0, -4.7343 -4.7543 0.0, -3.0 -1.2898 0.0, -0.0984 -4.7543 0.0, -2.0 -1.2898 0.0, -1.4786 -1.2898 0.0, -1.3956 -1.2898 0.0, -1.3079 -1.2898 0.0, -1.2439 -1.2898 0.0, -0.988 -1.2898 0.0, -0.0984 -1.2898 0.0, -2.7441 -1.2898 2.4567, -3.0 -1.2898 2.7146, -2.0 -1.2898 2.7146, -2.7441 -1.2898 1.4567, -3.0 -1.2898 1.7126, -2.0 -1.2898 1.7126, -5.4961 -1.2898 3.3169, -5.4961 -1.2898 3.4252, -4.2815 -1.2898 3.4252, -1.4636 -1.2898 0.1893, -1.4185 -1.2898 0.1893, -1.4185 -1.2898 0.084, 5.2756 -1.2898 2.7146, 5.2756 -1.2898 2.5, 5.063 -1.2898 2.5, 5.2756 -1.2898 0.9252, 5.2756 -1.2898 0.7106, 5.063 -1.2898 0.9252, 4.2815 -1.2898 0.7106, 5.063 -1.2898 1.7126, 4.2815 -1.2898 1.7126, 4.2815 -1.2898 2.7146, -5.4961 -1.2898 0.7106, -5.4961 -1.2898 0.9252, -5.063 -1.2898 0.9252, -5.4961 -1.2898 2.5, -5.4961 -1.2898 2.7146, -5.063 -1.2898 2.5, -4.2815 -1.2898 2.7146, -5.063 -1.2898 1.7126, -4.2815 -1.2898 1.7126, -4.2815 -1.2898 0.7106, -5.0205 -1.2898 0.2511, -4.9961 -1.2898 0.2324, -4.8189 -1.2898 0.3346, -4.8229 -1.2898 0.3652, -4.9676 -1.2898 0.2206, -4.937 -1.2898 0.2165, -4.9064 -1.2898 0.2206, -4.8347 -1.2898 0.3937, -4.8535 -1.2898 0.4182, -4.878 -1.2898 0.4369, -5.0511 -1.2898 0.3041, -5.0393 -1.2898 0.2756, -5.4961 -1.2898 0.0, -4.9271 -1.2898 0.0, -4.9271 -1.2898 -0.0787, -4.7343 -1.2898 -0.0787, -4.8229 -1.2898 0.3041, -4.878 -1.2898 0.2324, -4.8535 -1.2898 0.2511, -4.8347 -1.2898 0.2756, -4.9961 -1.2898 0.4369, -5.0205 -1.2898 0.4182, -5.0393 -1.2898 0.3937, -5.0511 -1.2898 0.3652, -5.0551 -1.2898 0.3346, -4.9064 -1.2898 0.4487, -4.937 -1.2898 0.4528, -4.9676 -1.2898 0.4487, -1.6296 -1.2898 0.0512, -1.6456 -1.2898 0.0512, -1.5659 -1.2898 0.0512, -1.5818 -1.2898 0.0512, -1.5911 -1.2898 0.1427, -1.6203 -1.2898 0.1427, -1.5098 -1.2898 0.055, -1.5052 -1.2898 0.0533, -1.5991 -1.2898 0.3499, -1.6124 -1.2898 0.3499, -2.0 -1.2898 0.7106, -3.0 -1.2898 0.7106, -1.561 -1.2898 0.1968, -1.5543 -1.2898 0.1299, -1.5505 -1.2898 0.1145, -1.5439 -1.2898 0.0877, -1.5436 -1.2898 0.0864, -1.5361 -1.2898 0.0734, -1.5344 -1.2898 0.0715, -1.5276 -1.2898 0.0643, -1.5274 -1.2898 0.0641, -1.5313 -1.2898 0.333, -1.5389 -1.2898 0.3245, -1.5396 -1.2898 0.3229, -1.545 -1.2898 0.312, -1.5207 -1.2898 0.0598, -1.5176 -1.2898 0.0578, -1.5161 -1.2898 0.0572, -1.4786 -1.2898 0.7106, -1.5213 -1.2898 0.3395, -1.5252 -1.2898 0.337, -1.5566 -1.2898 0.2621, -1.5578 -1.2898 0.2569, -1.4862 -1.2898 0.0512, -1.4862 -1.2898 0.3465, -1.5066 -1.2898 0.3443, -1.5082 -1.2898 0.3442, -1.5141 -1.2898 0.3421, -1.5198 -1.2898 0.3401, -1.4676 -1.2898 0.3137, -1.4185 -1.2898 0.3137, -1.4185 -1.2898 0.2221, -1.4676 -1.2898 0.3465, -1.4032 -1.2898 0.3465, -1.3956 -1.2898 0.7106, -1.4636 -1.2898 0.2221, -1.4709 -1.2898 0.084, -1.4709 -1.2898 0.0512, -1.4032 -1.2898 0.0512, -1.365 -1.2898 0.0875, -1.3679 -1.2898 0.0973, -1.3541 -1.2898 0.0793, -1.3709 -1.2898 0.057, -1.3667 -1.2898 0.0519, -1.3727 -1.2898 0.1686, -1.388 -1.2898 0.1686, -1.3873 -1.2898 0.2411, -1.3873 -1.2898 0.2584, -1.3712 -1.2898 0.0577, -1.3572 -1.2898 0.3498, -1.3587 -1.2898 0.3494, -1.3663 -1.2898 0.3461, -1.3664 -1.2898 0.346, -1.3715 -1.2898 0.3417, -1.3726 -1.2898 0.3398, -1.3763 -1.2898 0.3333, -1.3684 -1.2898 0.1024, -1.3443 -1.2898 0.0876, -1.3474 -1.2898 0.084, -1.3657 -1.2898 0.0513, -1.3615 -1.2898 0.0488, -1.3597 -1.2898 0.0477, -1.3622 -1.2898 0.3487, -1.3637 -1.2898 0.3484, -1.3504 -1.2898 0.0804, -1.3509 -1.2898 0.0798, -1.3526 -1.2898 0.0795, -1.3579 -1.2898 0.3154, -1.356 -1.2898 0.3161, -1.332 -1.2898 0.2421, -1.354 -1.2898 0.3167, -1.3521 -1.2898 0.3166, -1.3538 -1.2898 0.3168, -1.3528 -1.2898 0.3171, -1.3791 -1.2898 0.324, -1.3826 -1.2898 0.3126, -1.3847 -1.2898 0.2879, -1.332 -1.2898 0.191, -1.3724 -1.2898 0.1459, -1.332 -1.2898 0.1458, -1.3721 -1.2898 0.1433, -1.3491 -1.2898 0.0819, -1.3618 -1.2898 0.3121, -1.3601 -1.2898 0.3147, -1.3601 -1.2898 0.3148, -1.3816 -1.2898 0.0911, -1.377 -1.2898 0.0712, -1.3762 -1.2898 0.068, -1.3465 -1.2898 0.3479, -1.3469 -1.2898 0.3482, -1.3079 -1.2898 0.7106, -1.3426 -1.2898 0.3453, -1.3503 -1.2898 0.349, -1.3536 -1.2898 0.3497, -1.3554 -1.2898 0.3502, -1.3429 -1.2898 0.0893, -1.3401 -1.2898 0.0969, -1.3381 -1.2898 0.102, -1.3361 -1.2898 0.1162, -1.3644 -1.2898 0.0855, -1.3616 -1.2898 0.0819, -1.3599 -1.2898 0.0797, -1.3554 -1.2898 0.0791, -1.3589 -1.2898 0.0785, -1.3727 -1.2898 0.2411, -1.3694 -1.2898 0.2914, -1.3689 -1.2898 0.2935, -1.3653 -1.2898 0.3068, -1.365 -1.2898 0.3072, -1.3461 -1.2898 0.3127, -1.3455 -1.2898 0.3113, -1.3483 -1.2898 0.3142, -1.3434 -1.2898 0.3062, -1.3836 -1.2898 0.0999, -1.3508 -1.2898 0.0479, -1.3479 -1.2898 0.0487, -1.3505 -1.2898 0.3156, -1.3375 -1.2898 0.2883, -1.3381 -1.2898 0.2933, -1.3576 -1.2898 0.0476, -1.3543 -1.2898 0.0474, -1.3531 -1.2898 0.0473, -1.343 -1.2898 0.0515, -1.3391 -1.2898 0.0552, -1.3475 -1.2898 0.049, -1.344 -1.2898 0.051, -1.3377 -1.2898 0.0565, -1.3323 -1.2898 0.065, -1.3315 -1.2898 0.0662, -1.3373 -1.2898 0.3396, -1.338 -1.2898 0.3404, -1.3422 -1.2898 0.3451, -1.3226 -1.2898 0.299, -1.3308 -1.2898 0.3274, -1.3311 -1.2898 0.3285, -1.3236 -1.2898 0.0889, -1.3229 -1.2898 0.0935, -1.3161 -1.2898 0.1444, -1.3161 -1.2898 0.1715, -1.316 -1.2898 0.2365, -1.3219 -1.2898 0.2921, -1.2472 -1.2898 0.3465, -1.2472 -1.2898 0.084, -1.301 -1.2898 0.084, -1.2439 -1.2898 0.3465, -1.301 -1.2898 0.0512, -0.0984 -1.2898 -0.0787, 0.0984 -1.2898 -0.0787, 0.0984 -1.2898 0.0, -0.1178 -1.2898 0.3431, -0.1181 -1.2898 0.3346, -0.1144 -1.2898 0.304, -0.1143 -1.2898 0.3039, -0.059 -1.2898 0.4367, -0.0631 -1.2898 0.4348, -0.988 -1.2898 0.7106, -0.0835 -1.2898 0.4182, -0.1025 -1.2898 0.3939, -0.067 -1.2898 0.2371, -0.0589 -1.2898 0.2327, -0.0454 -1.2898 0.2252, -0.0304 -1.2898 0.2211, -0.0187 -1.2898 0.2179, -0.1025 -1.2898 0.3938, -0.1129 -1.2898 0.3704, -0.1139 -1.2898 0.3652, -1.2319 -1.2898 0.0512, -1.2439 -1.2898 0.0512, -0.1051 -1.2898 0.28, -0.1021 -1.2898 0.2757, -0.0892 -1.2898 0.2572, -0.0831 -1.2898 0.2516, 0.0 -1.2898 0.2173, 0.0106 -1.2898 0.217, 0.0305 -1.2898 0.2209, 0.0375 -1.2898 0.2223, 0.059 -1.2898 0.2325, 0.187 -1.2898 0.0, 0.0631 -1.2898 0.2345, 0.0835 -1.2898 0.2511, 0.1025 -1.2898 0.2754, 0.1025 -1.2898 0.2755, 0.113 -1.2898 0.299, 0.187 -1.2898 0.7106, 0.1181 -1.2898 0.3346, 0.1144 -1.2898 0.3652, 0.0304 -1.2898 0.4482, 0.0187 -1.2898 0.4514, -0.0 -1.2898 0.452, 0.1139 -1.2898 0.3041, 0.1179 -1.2898 0.3265, 0.1143 -1.2898 0.3654, 0.1049 -1.2898 0.3896, 0.1021 -1.2898 0.3936, -0.0106 -1.2898 0.4523, -0.0305 -1.2898 0.4484, -0.0375 -1.2898 0.447, 0.089 -1.2898 0.4124, 0.0831 -1.2898 0.4177, 0.0666 -1.2898 0.4324, 0.0589 -1.2898 0.4367, 0.0454 -1.2898 0.4441, 4.7343 -1.2898 -0.0787, 4.7343 -1.2898 0.0, 4.9271 -1.2898 -0.0787, 4.9271 -1.2898 0.0, 4.2815 -1.2898 0.0, 4.8189 -1.2898 0.3346, 4.8229 -1.2898 0.3041, 4.8347 -1.2898 0.2756, 4.8535 -1.2898 0.2511, 4.878 -1.2898 0.2324, 4.9064 -1.2898 0.2206, 4.9676 -1.2898 0.4487, 4.937 -1.2898 0.4528, 5.2756 -1.2898 0.0, 5.0205 -1.2898 0.2511, 5.0393 -1.2898 0.2756, 4.9064 -1.2898 0.4487, 4.878 -1.2898 0.4369, 4.8535 -1.2898 0.4182, 4.8347 -1.2898 0.3937, 4.8229 -1.2898 0.3652, 4.937 -1.2898 0.2165, 4.9676 -1.2898 0.2206, 4.9961 -1.2898 0.2324, 5.0393 -1.2898 0.3937, 5.0205 -1.2898 0.4182, 4.9961 -1.2898 0.4369, 1.0 -1.2898 0.7106, 1.0 -1.2898 0.0, 2.0 -1.2898 0.7106, 2.0 -1.2898 0.0, 3.0 -1.2898 0.7106, 3.0 -1.2898 0.0, 5.0511 -1.2898 0.3041, 5.0551 -1.2898 0.3346, 5.0511 -1.2898 0.3652, 5.4961 -1.2898 0.9252, 5.4961 -1.2898 0.7106, 5.4961 -1.2898 0.0, -1.4786 -1.2898 1.4567, -1.7441 -1.2898 1.4567, -1.7441 -1.2898 0.9685, -1.3079 -1.2898 0.9685, -1.2559 -1.2898 0.9685, -1.2439 -1.2898 0.7106, -1.2439 -1.2898 1.7126, -1.4786 -1.2898 0.9685, -1.3956 -1.2898 0.9685, -1.2319 -1.2898 0.3465, -1.4786 -1.2898 2.4567, -1.7441 -1.2898 2.4567, -1.7441 -1.2898 1.9685, -1.4786 -1.2898 1.7126, -1.3956 -1.2898 1.7126, -1.3956 -1.2898 1.4567, -1.3079 -1.2898 1.7126, -1.3079 -1.2898 1.4567, -1.2559 -1.2898 1.4567, -1.4786 -1.2898 2.7146, -1.3956 -1.2898 2.7146, -1.3956 -1.2898 2.4567, -1.3079 -1.2898 2.7146, -1.3079 -1.2898 2.4567, -1.3079 -1.2898 1.9685, -1.2559 -1.2898 1.9685, -1.2559 -1.2898 2.4567, -1.2439 -1.2898 2.7146, -1.4786 -1.2898 1.9685, -1.3956 -1.2898 1.9685, -5.0393 -1.2898 3.1496, -5.0205 -1.2898 3.1741, -4.9961 -1.2898 3.1928, -5.0511 -1.2898 3.1211, -5.0551 -1.2898 3.0906, -5.0511 -1.2898 3.06, -5.0393 -1.2898 3.0315, -5.0205 -1.2898 3.007, -4.9961 -1.2898 2.9883, -4.878 -1.2898 3.1928, -4.2815 -1.2898 3.3169, -4.8535 -1.2898 3.1741, -4.8347 -1.2898 3.1496, -4.878 -1.2898 2.9883, -4.8535 -1.2898 3.007, -4.8347 -1.2898 3.0315, -4.8229 -1.2898 3.06, -4.8189 -1.2898 3.0906, -4.8229 -1.2898 3.1211, -4.9064 -1.2898 3.2046, -4.937 -1.2898 3.2087, -4.9676 -1.2898 3.2046, -4.9676 -1.2898 2.9765, -4.937 -1.2898 2.9724, -4.9064 -1.2898 2.9765, -3.2559 -1.2898 0.9685, -3.7441 -1.2898 0.9685, -3.7441 -1.2898 1.4567, -3.2559 -1.2898 1.4567, -3.2559 -1.2898 1.9685, -3.7441 -1.2898 1.9685, -3.7441 -1.2898 2.4567, -3.2559 -1.2898 2.4567, -2.7441 -1.2898 0.9685, -2.2559 -1.2898 0.9685, -2.2559 -1.2898 1.4567, -2.7441 -1.2898 1.9685, -2.2559 -1.2898 1.9685, -2.2559 -1.2898 2.4567, -0.988 -1.2898 2.7146, -0.988 -1.2898 1.7126, -3.0 -1.2898 3.3169, -2.0 -1.2898 3.3169, -1.4786 -1.2898 3.3169, -1.3956 -1.2898 3.3169, -1.3079 -1.2898 3.3169, -1.2439 -1.2898 3.3169, -0.988 -1.2898 3.3169, -0.2559 -1.2898 1.4567, -0.7441 -1.2898 1.4567, 0.187 -1.2898 1.7126, -0.2559 -1.2898 0.9685, -0.7441 -1.2898 0.9685, -0.2559 -1.2898 2.4567, -0.7441 -1.2898 2.4567, 0.187 -1.2898 2.7146, -0.1181 -1.2898 3.0906, -0.1144 -1.2898 3.06, -0.1143 -1.2898 3.0598, -0.1051 -1.2898 3.0359, -0.0375 -1.2898 3.2029, -0.059 -1.2898 3.1927, -0.0631 -1.2898 3.1907, -0.0835 -1.2898 3.1741, -0.1025 -1.2898 3.1498, -0.1025 -1.2898 3.1497, -0.1129 -1.2898 3.1263, 0.059 -1.2898 2.9885, 0.0631 -1.2898 2.9904, 0.0304 -1.2898 3.2041, 0.0187 -1.2898 3.2073, 0.187 -1.2898 3.3169, -0.1139 -1.2898 3.1211, -0.1178 -1.2898 3.099, 0.0835 -1.2898 3.007, 0.1025 -1.2898 3.0313, 0.1025 -1.2898 3.0314, 0.1181 -1.2898 3.0906, 0.1144 -1.2898 3.1212, -0.1021 -1.2898 3.0316, -0.0892 -1.2898 3.0131, -0.0831 -1.2898 3.0075, -0.067 -1.2898 2.993, -0.0589 -1.2898 2.9886, -0.0454 -1.2898 2.9811, -0.2559 -1.2898 1.9685, -0.7441 -1.2898 1.9685, -0.0304 -1.2898 2.977, -0.0187 -1.2898 2.9738, 0.0 -1.2898 2.9732, 0.0106 -1.2898 2.9729, 0.0305 -1.2898 2.9768, 0.0375 -1.2898 2.9782, 0.113 -1.2898 3.0549, 0.1139 -1.2898 3.06, 0.1179 -1.2898 3.0824, 0.1143 -1.2898 3.1213, 0.1049 -1.2898 3.1455, 0.1021 -1.2898 3.1495, -0.0 -1.2898 3.2079, -0.0106 -1.2898 3.2082, -0.0305 -1.2898 3.2043, 0.089 -1.2898 3.1683, 0.0831 -1.2898 3.1736, 0.0666 -1.2898 3.1883, 0.0589 -1.2898 3.1926, 0.0454 -1.2898 3.2, 0.2559 -1.2898 1.4567, 0.2559 -1.2898 0.9685, 0.7441 -1.2898 1.4567, 1.0 -1.2898 1.7126, 0.7441 -1.2898 0.9685, 0.7441 -1.2898 2.4567, 1.0 -1.2898 2.7146, 0.7441 -1.2898 1.9685, 0.2559 -1.2898 1.9685, 0.2559 -1.2898 2.4567, 1.7441 -1.2898 0.9685, 1.2559 -1.2898 0.9685, 1.2559 -1.2898 1.4567, 1.7441 -1.2898 1.4567, 2.0 -1.2898 1.7126, 1.7441 -1.2898 1.9685, 1.2559 -1.2898 1.9685, 1.2559 -1.2898 2.4567, 1.7441 -1.2898 2.4567, 2.0 -1.2898 2.7146, 2.7441 -1.2898 0.9685, 2.2559 -1.2898 0.9685, 2.2559 -1.2898 1.4567, 2.7441 -1.2898 1.4567, 3.0 -1.2898 1.7126, 2.7441 -1.2898 1.9685, 2.2559 -1.2898 1.9685, 2.2559 -1.2898 2.4567, 2.7441 -1.2898 2.4567, 3.0 -1.2898 2.7146, 3.7441 -1.2898 0.9685, 3.2559 -1.2898 0.9685, 3.2559 -1.2898 1.4567, 3.7441 -1.2898 1.4567, 3.7441 -1.2898 1.9685, 3.2559 -1.2898 1.9685, 3.2559 -1.2898 2.4567, 3.7441 -1.2898 2.4567, 4.8189 -1.2898 3.0906, 4.2815 -1.2898 3.3169, 3.0 -1.2898 3.3169, 2.0 -1.2898 3.3169, 1.0 -1.2898 3.3169, 4.8229 -1.2898 3.06, 4.8347 -1.2898 3.0315, 4.8535 -1.2898 3.007, 4.878 -1.2898 3.1928, 4.8535 -1.2898 3.1741, 4.8347 -1.2898 3.1496, 4.8229 -1.2898 3.1211, 4.9676 -1.2898 2.9765, 4.9961 -1.2898 2.9883, 5.0205 -1.2898 3.007, 5.0393 -1.2898 3.0315, 5.0511 -1.2898 3.06, 5.2756 -1.2898 3.3169, 5.0551 -1.2898 3.0906, 5.0511 -1.2898 3.1211, 5.0393 -1.2898 3.1496, 5.0205 -1.2898 3.1741, 4.9961 -1.2898 3.1928, 4.9676 -1.2898 3.2046, 4.937 -1.2898 3.2087, 4.9064 -1.2898 3.2046, 4.878 -1.2898 2.9883, 4.9064 -1.2898 2.9765, 4.937 -1.2898 2.9724, 5.4961 -1.2898 3.3169, 5.4961 -1.2898 2.7146, 5.4961 -1.2898 2.5, -3.0 -1.2898 3.4252, -2.0 -1.2898 3.4252, -1.4786 -1.2898 3.4252, -1.3956 -1.2898 3.4252, -1.3079 -1.2898 3.4252, -1.2439 -1.2898 3.4252, -0.988 -1.2898 3.4252, 0.187 -1.2898 3.4252, 1.0 -1.2898 3.4252, 2.0 -1.2898 3.4252, 3.0 -1.2898 3.4252, 4.2815 -1.2898 3.4252, 5.2756 -1.2898 3.4252, 5.4961 -1.2898 3.4252, -4.9271 -4.7543 0.0, -5.4961 -4.7543 0.0, -1.5944 -1.2898 0.1755, -1.617 -1.2898 0.1755, -1.5999 -1.2898 0.2282, -1.6064 -1.2898 0.2809, -1.513 -1.2898 0.3127, -1.5088 -1.2898 0.3137, -1.5024 -1.2898 0.1988, -1.5258 -1.2898 0.0946, -1.5304 -1.2898 0.1027, -1.5366 -1.2898 0.2695, -1.5309 -1.2898 0.293, -1.5015 -1.2898 0.084, -1.511 -1.2898 0.085, -1.5327 -1.2898 0.109, -1.539 -1.2898 0.1475, -1.5169 -1.2898 0.3117, -1.521 -1.2898 0.3088, -1.5252 -1.2898 0.3041, -1.517 -1.2898 0.0871, -1.5218 -1.2898 0.0902, -1.617 -1.3094 0.1755, -1.5944 -1.3094 0.1755, -1.6004 -1.3094 0.2282, -1.6064 -1.3094 0.2809, -1.513 -1.3094 0.3127, -1.5088 -1.3094 0.3137, -1.5167 -1.3094 0.3118, -1.5169 -1.3094 0.3117, -1.5198 -1.3094 0.3098, -1.5209 -1.3094 0.3087, -1.5244 -1.3094 0.3052, -1.525 -1.3094 0.304, -1.5295 -1.3094 0.2961, -1.5304 -1.3094 0.2929, -1.5358 -1.3094 0.2741, -1.5362 -1.3094 0.2695, -1.5415 -1.3094 0.2081, -1.5396 -1.3094 0.1475, -1.5395 -1.3094 0.142, -1.5327 -1.3094 0.109, -1.5015 -1.3094 0.084, -1.511 -1.3094 0.0852, -1.5277 -1.3094 0.098, -1.5299 -1.3094 0.1029, -1.5226 -1.3094 0.0917, -1.5253 -1.3094 0.095, -1.5111 -1.3094 0.0852, -1.5168 -1.3094 0.0876, -1.5174 -1.3094 0.0879, -1.5214 -1.3094 0.0908, -1.5051 -1.3094 0.1987, 5.063 -4.6362 0.3937, 5.063 -2.1559 0.3937, -5.063 -4.6362 0.3937, -5.063 -2.1559 0.3937, 5.063 -2.1559 0.9252, 5.063 -3.652 0.9252, 5.063 -3.652 2.5, 5.063 -4.6362 3.0315, 5.063 -2.1559 2.5, 5.063 -2.1559 3.0315, -1.5659 -1.3094 0.0512, -1.5818 -1.3094 0.0512, -1.5911 -1.3094 0.1427, -1.5991 -1.3094 0.3499, -1.6203 -1.3094 0.1427, -1.6124 -1.3094 0.3499, -1.6456 -1.3094 0.0512, -1.6296 -1.3094 0.0512, -5.0551 -1.211 0.3346, -5.0511 -1.211 0.3652, -4.8229 -1.211 0.3652, -4.9961 -1.211 0.2324, -5.0205 -1.211 0.2511, -4.8535 -1.211 0.2511, -5.0511 -1.211 0.3041, -4.8189 -1.211 0.3346, -4.8229 -1.211 0.3041, -4.878 -1.211 0.2324, -4.9064 -1.211 0.2206, -4.937 -1.211 0.2165, -5.0393 -1.211 0.2756, -4.8347 -1.211 0.2756, -5.0393 -1.211 0.3937, -4.8535 -1.211 0.4182, -4.8347 -1.211 0.3937, -4.9676 -1.211 0.2206, -5.0205 -1.211 0.4182, -4.9961 -1.211 0.4369, -4.9676 -1.211 0.4487, -4.937 -1.211 0.4528, -4.9064 -1.211 0.4487, -4.878 -1.211 0.4369, -4.9961 -1.211 2.9883, -5.0205 -1.211 3.007, -4.8535 -1.211 3.007, -5.0511 -1.211 3.06, -5.0551 -1.211 3.0906, -4.8229 -1.211 3.06, -5.0511 -1.211 3.1211, -4.8189 -1.211 3.0906, -5.0393 -1.211 3.1496, -5.0205 -1.211 3.1741, -4.9064 -1.211 2.9765, -4.937 -1.211 2.9724, -4.9676 -1.211 2.9765, -4.8347 -1.211 3.0315, -5.0393 -1.211 3.0315, -4.9676 -1.211 3.2046, -4.937 -1.211 3.2087, -4.9064 -1.211 3.2046, -4.8535 -1.211 3.1741, -4.8347 -1.211 3.1496, -4.8229 -1.211 3.1211, -4.878 -1.211 2.9883, -4.9961 -1.211 3.1928, -4.878 -1.211 3.1928, 0.1141 -1.211 0.3652, 0.1181 -1.211 0.3346, -0.0591 -1.211 0.4369, 0.1141 -1.211 0.3041, 0.1023 -1.211 0.2756, 0.0835 -1.211 0.2511, 0.0591 -1.211 0.2324, -0.0306 -1.211 0.2206, -0.0591 -1.211 0.2324, -0.1181 -1.211 0.3346, 0.0306 -1.211 0.4487, 0.0591 -1.211 0.4369, 0.0835 -1.211 0.4182, 0.0 -1.211 0.2165, -0.1141 -1.211 0.3652, -0.1023 -1.211 0.3937, 0.0306 -1.211 0.2206, -0.0835 -1.211 0.4182, -0.0835 -1.211 0.2511, -0.1023 -1.211 0.2756, -0.1141 -1.211 0.3041, 0.1023 -1.211 0.3937, -0.0306 -1.211 0.4487, 0.0 -1.211 0.4528, -1.2559 -1.4866 0.9685, -1.7441 -1.4866 0.9685, -1.2559 -1.4866 1.4567, -1.7441 -1.4866 1.4567, -2.2559 -1.4866 0.9685, -2.7441 -1.4866 0.9685, -2.2559 -1.4866 1.4567, -2.7441 -1.4866 1.4567, -0.2559 -1.4866 0.9685, -0.7441 -1.4866 0.9685, -0.2559 -1.4866 1.4567, -0.7441 -1.4866 1.4567, -1.2559 -1.4866 1.9685, -1.7441 -1.4866 1.9685, -1.2559 -1.4866 2.4567, -1.7441 -1.4866 2.4567, -0.2559 -1.4866 1.9685, -0.7441 -1.4866 1.9685, -0.2559 -1.4866 2.4567, -0.7441 -1.4866 2.4567, -2.2559 -1.4866 1.9685, -2.7441 -1.4866 1.9685, -2.2559 -1.4866 2.4567, -2.7441 -1.4866 2.4567, -0.0591 -1.211 2.9883, -0.0835 -1.211 3.007, -0.1023 -1.211 3.0315, 0.1023 -1.211 3.1496, 0.1141 -1.211 3.1211, -0.1181 -1.211 3.0906, 0.1181 -1.211 3.0906, -0.1141 -1.211 3.06, 0.1141 -1.211 3.06, 0.1023 -1.211 3.0315, 0.0835 -1.211 3.007, 0.0591 -1.211 2.9883, 0.0306 -1.211 2.9765, -0.1141 -1.211 3.1211, -0.1023 -1.211 3.1496, -0.0835 -1.211 3.1741, 0.0591 -1.211 3.1928, -0.0306 -1.211 3.2046, 0.0306 -1.211 3.2046, 0.0 -1.211 3.2087, -0.0591 -1.211 3.1928, 0.0835 -1.211 3.1741, 0.0 -1.211 2.9724, -0.0306 -1.211 2.9765, 4.9676 -1.211 0.4487, 4.9961 -1.211 0.2324, 4.937 -1.211 0.4528, 4.9676 -1.211 0.2206, 4.937 -1.211 0.2165, 4.9064 -1.211 0.2206, 4.878 -1.211 0.2324, 4.9064 -1.211 0.4487, 4.8347 -1.211 0.3937, 4.8535 -1.211 0.4182, 4.878 -1.211 0.4369, 4.9961 -1.211 0.4369, 5.0205 -1.211 0.4182, 5.0393 -1.211 0.3937, 5.0511 -1.211 0.3652, 5.0551 -1.211 0.3346, 5.0205 -1.211 0.2511, 5.0511 -1.211 0.3041, 5.0393 -1.211 0.2756, 4.8347 -1.211 0.2756, 4.8229 -1.211 0.3041, 4.8535 -1.211 0.2511, 4.8189 -1.211 0.3346, 4.8229 -1.211 0.3652, 4.8229 -1.211 3.06, 4.9676 -1.211 3.2046, 4.9961 -1.211 3.1928, 5.0551 -1.211 3.0906, 5.0511 -1.211 3.06, 4.8347 -1.211 3.0315, 5.0393 -1.211 3.0315, 5.0205 -1.211 3.007, 4.8535 -1.211 3.1741, 4.8189 -1.211 3.0906, 4.8347 -1.211 3.1496, 4.8229 -1.211 3.1211, 4.878 -1.211 3.1928, 4.9064 -1.211 3.2046, 4.937 -1.211 3.2087, 5.0205 -1.211 3.1741, 5.0393 -1.211 3.1496, 5.0511 -1.211 3.1211, 4.9961 -1.211 2.9883, 4.9676 -1.211 2.9765, 4.937 -1.211 2.9724, 4.9064 -1.211 2.9765, 4.878 -1.211 2.9883, 4.8535 -1.211 3.007, -1.4862 -1.3094 0.3465, -1.4862 -1.3094 0.0512, -1.5274 -1.3094 0.3402, -1.5208 -1.3094 0.3433, -1.5154 -1.3094 0.3458, -1.5069 -1.3094 0.3465, -1.5332 -1.3094 0.3346, -1.5404 -1.3094 0.3233, -1.545 -1.3094 0.312, -1.5111 -1.3094 0.0524, -1.5446 -1.3094 0.0875, -1.5512 -1.3094 0.1143, -1.5364 -1.3094 0.0697, -1.5541 -1.3094 0.2615, -1.5296 -1.3094 0.0607, -1.523 -1.3094 0.0563, -1.5177 -1.3094 0.0527, -1.4032 -1.3094 0.0512, -1.4709 -1.3094 0.0512, -1.4709 -1.3094 0.084, -1.4185 -1.3094 0.084, -1.4185 -1.3094 0.1893, -1.4032 -1.3094 0.3465, -1.4676 -1.3094 0.3137, -1.4676 -1.3094 0.3465, -1.4185 -1.3094 0.3137, -1.4185 -1.3094 0.2221, -1.4636 -1.3094 0.2221, -1.4636 -1.3094 0.1893, -1.388 -1.3094 0.1686, -1.3727 -1.3094 0.1686, -1.3722 -1.3094 0.1433, -1.3316 -1.3094 0.3271, -1.3454 -1.3094 0.3113, -1.3486 -1.3094 0.314, -1.3816 -1.3094 0.0911, -1.3678 -1.3094 0.1024, -1.3616 -1.3094 0.0886, -1.3759 -1.3094 0.0715, -1.3593 -1.3094 0.0837, -1.3694 -1.3094 0.0586, -1.3569 -1.3094 0.0829, -1.3647 -1.3094 0.0529, -1.3553 -1.3094 0.0823, -1.3539 -1.3094 0.0818, -1.3606 -1.3094 0.0503, -1.3525 -1.3094 0.0814, -1.3576 -1.3094 0.0484, -1.3542 -1.3094 0.0481, -1.3508 -1.3094 0.0479, -1.3477 -1.3094 0.0493, -1.344 -1.3094 0.0509, -1.351 -1.3094 0.0809, -1.3393 -1.3094 0.0554, -1.3495 -1.3094 0.0823, -1.3328 -1.3094 0.0653, -1.3474 -1.3094 0.0842, -1.344 -1.3094 0.0873, -1.3228 -1.3094 0.0935, -1.3537 -1.3094 0.3164, -1.362 -1.3094 0.3477, -1.3586 -1.3094 0.349, -1.3727 -1.3094 0.2411, -1.3873 -1.3094 0.2411, -1.369 -1.3094 0.2935, -1.3853 -1.3094 0.288, -1.3651 -1.3094 0.3073, -1.3776 -1.3094 0.3235, -1.3384 -1.3094 0.34, -1.3505 -1.3094 0.3156, -1.3428 -1.3094 0.345, -1.352 -1.3094 0.3169, -1.3468 -1.3094 0.3474, -1.3502 -1.3094 0.3494, -1.3536 -1.3094 0.3495, -1.3572 -1.3094 0.3496, -1.3539 -1.3094 0.3164, -1.365 -1.3094 0.3444, -1.3649 -1.3094 0.3446, -1.356 -1.3094 0.3158, -1.3579 -1.3094 0.3153, -1.3705 -1.3094 0.3386, -1.3601 -1.3094 0.3148, -1.3618 -1.3094 0.3121, -1.3398 -1.3094 0.0968, -1.3351 -1.3094 0.116, -1.3151 -1.3094 0.1715, -1.3309 -1.3094 0.191, -1.3218 -1.3094 0.2921, -1.3371 -1.3094 0.2883, -1.3435 -1.3094 0.3062, -1.2472 -1.3094 0.3465, -1.2319 -1.3094 0.3465, -1.2472 -1.3094 0.084, -1.2319 -1.3094 0.0512, -1.301 -1.3094 0.084, -1.301 -1.3094 0.0512, -5.063 -2.1559 2.5, -5.063 -2.1559 3.0315, -5.063 -3.652 2.5, -5.063 -4.6362 3.0315, -5.063 -3.652 0.9252, -5.063 -2.1559 0.9252, -0.9449 -4.6362 3.0315, -0.8661 -4.5575 3.0315, -0.8661 -2.1559 3.0315, 0.8661 -4.5575 3.0315, 0.8661 -2.1559 3.0315, 0.9449 -4.6362 3.0315, -0.8661 -2.0378 2.9331, -0.8661 -2.1559 2.9331, 0.8661 -2.0378 2.9331, 0.8661 -2.1559 2.9331, 5.4961 -3.652 0.9252, 5.4961 -3.652 2.5, 5.4961 -4.7543 0.0, 4.9271 -4.7543 0.0, -5.4961 -3.652 0.9252, -5.4961 -3.652 2.5, 4.7343 -4.7543 0.0, 0.0984 -4.7543 0.0, -1.063 -4.7543 3.4252, -1.063 -4.7543 3.1496, -0.8661 -4.5575 3.4252, -0.8661 -2.0378 3.4252, 0.8661 -2.0378 3.4252, 0.8661 -4.5575 3.4252, 1.063 -4.7543 3.1496, 1.063 -4.7543 3.4252, 5.1811 -4.7543 0.2756, -5.1811 -4.7543 0.2756, -5.1811 -4.7543 3.1496, -5.4961 -4.7543 3.4252, -0.0984 -4.7543 -0.0787, 0.0984 -4.7543 -0.0787, -4.7343 -4.7543 -0.0787, -4.9271 -4.7543 -0.0787, 5.4961 -4.7543 3.4252, 5.1811 -4.7543 3.1496, 4.9271 -4.7543 -0.0787, 4.7343 -4.7543 -0.0787, 0.2559 -1.4866 1.4567, 0.7441 -1.4866 1.4567, 0.7441 -1.4866 0.9685, 0.2559 -1.4866 0.9685, 0.2559 -1.4866 2.4567, 0.7441 -1.4866 2.4567, 0.7441 -1.4866 1.9685, 0.2559 -1.4866 1.9685, 1.2559 -1.4866 2.4567, 1.7441 -1.4866 2.4567, 1.7441 -1.4866 1.9685, 1.2559 -1.4866 1.9685, 1.2559 -1.4866 1.4567, 1.7441 -1.4866 1.4567, 1.7441 -1.4866 0.9685, 1.2559 -1.4866 0.9685, -3.2559 -1.4866 2.4567, -3.7441 -1.4866 2.4567, -3.2559 -1.4866 1.9685, -3.7441 -1.4866 1.9685, -3.2559 -1.4866 1.4567, -3.7441 -1.4866 1.4567, -3.2559 -1.4866 0.9685, -3.7441 -1.4866 0.9685, 2.7441 -1.4866 1.4567, 2.2559 -1.4866 1.4567, 2.7441 -1.4866 0.9685, 2.2559 -1.4866 0.9685, 2.7441 -1.4866 2.4567, 2.2559 -1.4866 2.4567, 2.7441 -1.4866 1.9685, 2.2559 -1.4866 1.9685, 3.7441 -1.4866 2.4567, 3.2559 -1.4866 2.4567, 3.7441 -1.4866 1.9685, 3.2559 -1.4866 1.9685, 3.7441 -1.4866 1.4567, 3.2559 -1.4866 1.4567, 3.7441 -1.4866 0.9685, 3.2559 -1.4866 0.9685
            ]
        }
        coordIndex [
            0,1,2,-1,2,1,3,-1,2,3,4,-1,4,3,5,-1,5,6,4,-1,4,6,7,-1,4,7,8,-1,8,9,4,-1,4,9,10,-1,4,10,11,-1,12,13,14,-1,15,16,17,-1,18,19,20,-1,21,22,23,-1,24,25,26,-1,27,28,29,-1,29,28,30,-1,29,30,31,-1,31,30,32,-1,31,32,26,-1,26,32,33,-1,26,33,24,-1,34,35,36,-1,37,38,39,-1,39,38,40,-1,39,40,41,-1,41,40,42,-1,41,42,36,-1,36,42,43,-1,36,43,34,-1,0,44,45,-1,46,47,43,-1,45,48,0,-1,0,48,49,-1,0,49,50,-1,47,51,43,-1,43,51,52,-1,43,52,53,-1,54,55,56,-1,56,55,44,-1,56,44,57,-1,57,44,0,-1,57,0,58,-1,58,0,59,-1,1,60,46,-1,50,61,0,-1,0,61,62,-1,0,62,1,-1,1,62,63,-1,1,63,60,-1,34,64,65,-1,65,66,34,-1,34,66,67,-1,34,67,56,-1,56,67,68,-1,56,68,54,-1,53,69,43,-1,43,69,70,-1,43,70,34,-1,34,70,71,-1,34,71,64,-1,72,6,73,-1,73,6,5,-1,74,6,75,-1,75,6,72,-1,75,72,76,-1,76,72,77,-1,78,79,6,-1,80,81,82,-1,46,43,1,-1,1,43,83,-1,1,83,3,-1,3,83,82,-1,3,82,5,-1,5,82,81,-1,5,81,73,-1,80,84,74,-1,74,84,85,-1,74,85,86,-1,86,87,74,-1,74,87,88,-1,74,88,89,-1,89,90,74,-1,74,90,91,-1,74,91,92,-1,93,94,80,-1,80,94,95,-1,80,95,96,-1,92,97,74,-1,74,97,98,-1,74,98,6,-1,6,98,99,-1,6,99,78,-1,100,101,102,-1,96,103,80,-1,80,103,104,-1,80,104,84,-1,79,105,6,-1,6,105,106,-1,6,106,100,-1,100,106,107,-1,100,107,108,-1,108,109,100,-1,100,109,110,-1,100,110,101,-1,111,112,113,-1,114,100,115,-1,115,100,116,-1,115,116,7,-1,113,117,111,-1,111,117,21,-1,111,21,118,-1,118,21,23,-1,114,111,100,-1,100,111,118,-1,100,118,6,-1,6,118,119,-1,6,119,7,-1,7,119,120,-1,7,120,115,-1,121,122,123,-1,124,125,7,-1,126,127,128,-1,128,127,129,-1,124,7,130,-1,131,132,116,-1,116,133,134,-1,134,135,116,-1,116,135,136,-1,116,136,137,-1,138,139,140,-1,125,141,7,-1,7,141,142,-1,7,142,143,-1,132,144,116,-1,116,144,145,-1,116,145,133,-1,146,147,122,-1,122,147,148,-1,122,148,123,-1,149,150,151,-1,151,150,152,-1,151,152,153,-1,153,152,154,-1,153,154,155,-1,137,156,116,-1,116,156,157,-1,116,157,158,-1,126,159,160,-1,160,159,161,-1,160,161,162,-1,138,140,122,-1,122,140,163,-1,122,163,146,-1,164,165,151,-1,151,165,166,-1,151,166,149,-1,167,168,7,-1,7,168,169,-1,7,169,130,-1,170,171,172,-1,170,172,173,-1,171,174,172,-1,172,174,175,-1,172,175,116,-1,116,175,176,-1,116,176,131,-1,177,139,178,-1,178,139,138,-1,178,138,179,-1,179,138,162,-1,179,162,180,-1,180,162,161,-1,181,121,182,-1,182,121,123,-1,182,123,183,-1,183,123,184,-1,183,184,185,-1,126,128,159,-1,159,128,186,-1,159,186,151,-1,151,186,187,-1,151,187,188,-1,188,189,151,-1,151,189,190,-1,151,190,164,-1,191,192,193,-1,193,192,194,-1,158,129,116,-1,116,129,127,-1,116,127,7,-1,7,127,195,-1,7,195,167,-1,196,197,8,-1,153,198,151,-1,151,198,193,-1,151,193,199,-1,199,193,194,-1,199,194,200,-1,143,201,7,-1,7,201,202,-1,7,202,8,-1,8,202,203,-1,8,203,196,-1,8,204,205,-1,197,206,8,-1,8,206,207,-1,8,207,204,-1,205,208,8,-1,8,208,209,-1,8,209,210,-1,211,212,172,-1,172,212,213,-1,172,213,173,-1,214,215,172,-1,172,215,216,-1,172,216,211,-1,210,217,8,-1,8,217,218,-1,8,218,219,-1,219,220,8,-1,8,220,221,-1,8,221,172,-1,172,221,222,-1,172,222,214,-1,223,224,225,-1,226,223,172,-1,172,223,225,-1,172,225,8,-1,8,225,227,-1,8,227,9,-1,228,11,229,-1,229,11,230,-1,231,232,10,-1,10,232,233,-1,10,233,234,-1,235,236,237,-1,237,236,238,-1,237,238,239,-1,230,240,241,-1,241,242,230,-1,230,242,243,-1,230,243,244,-1,239,245,237,-1,237,245,246,-1,237,246,247,-1,247,231,237,-1,237,231,10,-1,237,10,248,-1,248,10,9,-1,248,9,249,-1,249,9,227,-1,234,250,10,-1,10,250,251,-1,10,251,11,-1,11,251,252,-1,11,252,230,-1,230,252,253,-1,230,253,240,-1,244,254,230,-1,230,254,255,-1,230,255,256,-1,256,257,230,-1,230,257,258,-1,230,258,259,-1,259,258,260,-1,259,260,261,-1,261,262,259,-1,259,262,263,-1,259,263,264,-1,265,266,267,-1,268,269,265,-1,265,269,270,-1,264,271,259,-1,259,271,272,-1,259,272,266,-1,267,273,265,-1,265,273,274,-1,265,274,275,-1,270,276,265,-1,265,276,277,-1,265,277,237,-1,237,277,278,-1,237,278,235,-1,275,279,265,-1,265,279,280,-1,265,280,281,-1,281,282,265,-1,265,282,283,-1,265,283,268,-1,284,285,286,-1,286,285,287,-1,288,289,285,-1,285,289,290,-1,285,290,287,-1,287,290,291,-1,291,292,287,-1,287,292,293,-1,287,293,294,-1,295,296,28,-1,297,298,299,-1,28,296,30,-1,30,296,300,-1,30,300,301,-1,301,302,30,-1,30,302,303,-1,30,303,304,-1,294,305,287,-1,287,305,306,-1,287,306,297,-1,297,306,307,-1,297,307,298,-1,308,309,28,-1,28,309,310,-1,28,310,295,-1,266,265,259,-1,259,265,311,-1,259,311,312,-1,312,311,313,-1,312,313,314,-1,314,313,315,-1,314,315,316,-1,316,315,30,-1,316,30,288,-1,288,30,304,-1,288,304,289,-1,299,317,297,-1,297,317,318,-1,297,318,28,-1,28,318,319,-1,28,319,308,-1,27,320,28,-1,28,320,321,-1,28,321,297,-1,297,321,322,-1,323,324,17,-1,17,324,82,-1,324,325,82,-1,82,325,100,-1,82,100,80,-1,80,100,102,-1,80,102,93,-1,326,327,328,-1,328,327,329,-1,325,330,100,-1,100,330,331,-1,100,331,116,-1,116,331,326,-1,116,326,172,-1,172,326,328,-1,172,328,226,-1,226,328,332,-1,333,334,14,-1,14,334,17,-1,334,335,17,-1,17,335,336,-1,17,336,323,-1,323,336,337,-1,323,337,338,-1,338,337,339,-1,338,339,340,-1,340,339,341,-1,14,342,333,-1,333,342,343,-1,333,343,344,-1,344,343,345,-1,344,345,346,-1,347,348,329,-1,329,348,349,-1,346,345,349,-1,349,345,350,-1,349,350,329,-1,335,351,336,-1,336,351,352,-1,336,352,337,-1,337,352,347,-1,337,347,339,-1,339,347,329,-1,339,329,341,-1,341,329,327,-1,353,18,354,-1,354,18,355,-1,353,356,18,-1,18,356,357,-1,18,357,38,-1,38,357,358,-1,358,359,38,-1,38,359,360,-1,38,360,361,-1,362,363,364,-1,364,363,365,-1,366,367,40,-1,40,367,368,-1,40,368,369,-1,369,370,363,-1,363,370,371,-1,363,371,365,-1,362,372,363,-1,363,372,373,-1,363,373,18,-1,18,373,374,-1,18,374,355,-1,361,375,38,-1,38,375,376,-1,38,376,40,-1,40,376,377,-1,40,377,366,-1,378,83,379,-1,379,83,43,-1,379,43,380,-1,380,43,42,-1,380,42,381,-1,381,42,16,-1,381,16,378,-1,378,16,83,-1,382,16,383,-1,383,16,42,-1,383,42,384,-1,384,42,40,-1,384,40,385,-1,385,40,13,-1,385,13,382,-1,382,13,16,-1,16,15,83,-1,83,15,386,-1,83,386,82,-1,82,386,387,-1,82,387,17,-1,17,387,388,-1,17,388,15,-1,13,12,16,-1,16,12,389,-1,16,389,17,-1,17,389,390,-1,17,390,14,-1,14,390,391,-1,14,391,12,-1,350,392,329,-1,329,392,393,-1,329,393,328,-1,328,393,237,-1,328,237,332,-1,332,237,248,-1,369,363,40,-1,40,363,394,-1,40,394,13,-1,13,394,395,-1,13,395,14,-1,14,395,396,-1,14,396,342,-1,342,396,397,-1,342,397,343,-1,343,397,398,-1,343,398,345,-1,345,398,399,-1,345,399,350,-1,350,399,400,-1,350,400,392,-1,401,402,403,-1,404,265,405,-1,405,265,237,-1,405,237,402,-1,402,237,393,-1,402,393,403,-1,406,407,408,-1,400,409,410,-1,400,410,392,-1,392,410,411,-1,392,411,412,-1,413,414,400,-1,400,414,415,-1,400,415,416,-1,416,417,400,-1,400,417,418,-1,400,418,419,-1,420,421,408,-1,422,423,424,-1,419,425,400,-1,400,425,426,-1,400,426,409,-1,421,427,408,-1,408,427,428,-1,408,428,429,-1,424,430,431,-1,412,432,392,-1,392,432,433,-1,392,433,434,-1,434,435,392,-1,392,435,436,-1,392,436,437,-1,406,408,438,-1,438,408,403,-1,438,403,439,-1,439,403,393,-1,439,393,407,-1,407,393,392,-1,407,392,408,-1,408,392,437,-1,408,437,440,-1,440,441,408,-1,408,441,442,-1,408,442,443,-1,443,444,408,-1,408,444,445,-1,408,445,420,-1,429,446,408,-1,408,446,447,-1,408,447,448,-1,431,449,424,-1,424,449,450,-1,424,450,451,-1,423,452,424,-1,424,452,453,-1,424,453,400,-1,400,453,454,-1,400,454,413,-1,451,455,424,-1,424,455,456,-1,424,456,457,-1,457,458,424,-1,424,458,459,-1,424,459,422,-1,403,460,461,-1,460,403,462,-1,462,403,463,-1,462,463,464,-1,464,463,311,-1,464,311,461,-1,461,311,265,-1,461,265,403,-1,403,265,404,-1,403,404,401,-1,465,466,467,-1,467,466,463,-1,467,463,468,-1,468,463,403,-1,468,403,469,-1,469,403,408,-1,469,408,465,-1,465,408,466,-1,470,313,471,-1,471,313,311,-1,471,311,472,-1,472,311,463,-1,472,463,473,-1,473,463,474,-1,473,474,470,-1,470,474,313,-1,475,474,476,-1,476,474,463,-1,476,463,477,-1,477,463,466,-1,477,466,478,-1,478,466,479,-1,478,479,475,-1,475,479,474,-1,480,315,481,-1,481,315,313,-1,481,313,482,-1,482,313,474,-1,482,474,483,-1,483,474,484,-1,483,484,480,-1,480,484,315,-1,485,484,486,-1,486,484,474,-1,486,474,487,-1,487,474,479,-1,487,479,488,-1,488,479,489,-1,488,489,485,-1,485,489,484,-1,490,30,491,-1,491,30,315,-1,491,315,492,-1,492,315,484,-1,492,484,493,-1,493,484,32,-1,493,32,490,-1,490,32,30,-1,494,32,495,-1,495,32,484,-1,495,484,496,-1,496,484,489,-1,496,489,497,-1,497,489,33,-1,497,33,494,-1,494,33,32,-1,498,33,499,-1,499,33,489,-1,499,489,500,-1,500,489,479,-1,500,479,501,-1,501,479,466,-1,501,466,502,-1,502,466,408,-1,502,408,424,-1,424,408,448,-1,424,448,430,-1,498,503,33,-1,33,503,504,-1,33,504,505,-1,506,507,499,-1,507,508,499,-1,499,508,509,-1,499,509,498,-1,510,511,24,-1,24,511,512,-1,512,513,24,-1,24,513,514,-1,24,514,515,-1,515,514,516,-1,515,516,517,-1,517,518,515,-1,515,518,519,-1,515,519,520,-1,520,521,515,-1,515,521,522,-1,515,522,499,-1,499,522,523,-1,499,523,506,-1,505,524,33,-1,33,524,525,-1,33,525,24,-1,24,525,526,-1,24,526,510,-1,515,527,24,-1,24,527,528,-1,24,528,25,-1,25,528,529,-1,18,20,363,-1,363,20,530,-1,363,530,394,-1,394,530,531,-1,394,531,395,-1,395,531,532,-1,395,532,396,-1,396,532,533,-1,396,533,397,-1,397,533,534,-1,397,534,398,-1,398,534,535,-1,398,535,399,-1,399,535,536,-1,399,536,400,-1,400,536,537,-1,400,537,424,-1,424,537,538,-1,424,538,502,-1,502,538,539,-1,502,539,501,-1,501,539,540,-1,501,540,500,-1,500,540,541,-1,500,541,499,-1,499,541,542,-1,499,542,515,-1,515,542,543,-1,515,543,527,-1,544,545,57,-1,57,545,56,-1,546,547,548,-1,548,547,549,-1,550,551,552,-1,553,554,552,-1,552,555,556,-1,552,557,558,-1,554,559,552,-1,552,559,560,-1,552,560,555,-1,561,550,562,-1,562,550,552,-1,562,552,563,-1,563,552,556,-1,558,564,552,-1,552,564,565,-1,552,565,553,-1,566,547,567,-1,567,547,546,-1,567,546,548,-1,567,548,568,-1,568,548,549,-1,568,549,569,-1,566,569,547,-1,547,569,549,-1,570,571,550,-1,550,571,551,-1,570,550,572,-1,572,550,561,-1,572,561,573,-1,573,561,574,-1,574,561,562,-1,574,562,575,-1,575,562,576,-1,576,562,563,-1,576,563,577,-1,577,563,578,-1,578,563,556,-1,578,556,579,-1,579,556,580,-1,580,556,555,-1,580,555,581,-1,581,555,582,-1,582,555,560,-1,582,560,583,-1,583,560,584,-1,584,560,559,-1,584,559,585,-1,557,586,587,-1,585,559,554,-1,553,588,554,-1,554,588,589,-1,554,589,585,-1,565,590,553,-1,553,590,591,-1,553,591,588,-1,592,593,564,-1,564,593,594,-1,564,594,565,-1,565,594,595,-1,565,595,590,-1,592,564,587,-1,587,564,558,-1,587,558,557,-1,586,557,552,-1,586,552,596,-1,596,552,551,-1,596,551,571,-1,597,598,599,-1,599,598,600,-1,601,598,602,-1,602,598,597,-1,602,597,603,-1,603,597,604,-1,603,604,605,-1,605,604,606,-1,607,608,609,-1,610,607,567,-1,567,607,609,-1,567,609,566,-1,566,609,611,-1,567,568,610,-1,610,568,569,-1,610,569,612,-1,612,569,566,-1,612,566,613,-1,613,566,611,-1,613,611,614,-1,615,616,617,-1,618,619,620,-1,615,617,621,-1,621,617,622,-1,621,622,623,-1,624,625,626,-1,619,627,620,-1,620,627,621,-1,620,621,628,-1,628,621,623,-1,629,630,616,-1,616,630,631,-1,616,631,617,-1,624,626,620,-1,620,626,632,-1,620,632,618,-1,629,633,630,-1,630,633,634,-1,630,634,635,-1,635,636,630,-1,630,636,637,-1,630,637,638,-1,639,640,641,-1,642,643,644,-1,644,643,645,-1,644,645,646,-1,646,645,647,-1,646,647,648,-1,649,650,651,-1,644,652,642,-1,642,652,641,-1,642,641,653,-1,653,641,640,-1,654,655,656,-1,657,658,648,-1,648,658,659,-1,648,659,646,-1,639,641,651,-1,651,641,660,-1,651,660,649,-1,648,661,657,-1,657,661,654,-1,657,654,662,-1,662,654,656,-1,663,664,665,-1,665,664,666,-1,666,667,665,-1,665,667,668,-1,665,668,669,-1,670,671,672,-1,673,674,675,-1,670,672,676,-1,676,672,677,-1,676,677,678,-1,669,679,665,-1,665,679,676,-1,665,676,680,-1,680,676,678,-1,671,681,672,-1,672,681,682,-1,672,682,683,-1,663,665,684,-1,684,665,685,-1,684,685,675,-1,675,685,686,-1,675,686,673,-1,687,688,689,-1,689,688,690,-1,691,692,693,-1,693,692,694,-1,695,696,697,-1,697,696,698,-1,699,700,701,-1,701,700,702,-1,703,704,705,-1,705,704,706,-1,707,708,709,-1,709,708,710,-1,711,712,713,-1,714,715,716,-1,716,715,717,-1,716,717,718,-1,718,717,713,-1,713,717,719,-1,713,719,720,-1,720,721,713,-1,713,721,722,-1,713,722,723,-1,716,724,714,-1,714,724,725,-1,714,725,726,-1,727,728,729,-1,729,728,730,-1,726,731,714,-1,714,731,728,-1,714,728,732,-1,732,728,727,-1,723,733,713,-1,713,733,734,-1,713,734,711,-1,735,736,737,-1,737,736,738,-1,737,738,739,-1,739,740,737,-1,737,740,741,-1,737,741,742,-1,743,744,741,-1,741,744,745,-1,741,745,742,-1,735,746,736,-1,736,746,747,-1,736,747,748,-1,748,749,736,-1,736,749,750,-1,736,750,751,-1,751,750,752,-1,751,752,753,-1,754,755,756,-1,756,755,757,-1,756,757,741,-1,741,757,758,-1,741,758,743,-1,759,760,761,-1,762,763,764,-1,764,763,765,-1,764,765,766,-1,767,768,769,-1,769,768,770,-1,767,771,768,-1,768,771,772,-1,768,772,759,-1,759,772,773,-1,759,773,760,-1,761,774,759,-1,759,774,775,-1,759,775,764,-1,764,775,776,-1,764,776,762,-1,766,777,764,-1,764,777,778,-1,764,778,779,-1,779,780,764,-1,764,780,781,-1,764,781,782,-1,571,783,596,-1,596,783,784,-1,596,784,586,-1,785,786,570,-1,570,786,787,-1,570,787,571,-1,571,787,788,-1,571,788,783,-1,570,572,785,-1,785,572,573,-1,785,573,789,-1,573,574,789,-1,789,574,575,-1,789,575,790,-1,575,576,790,-1,790,576,577,-1,790,577,791,-1,586,784,587,-1,587,784,792,-1,587,792,592,-1,589,793,585,-1,585,793,794,-1,585,794,584,-1,589,588,793,-1,793,588,591,-1,793,591,795,-1,580,796,579,-1,579,796,791,-1,579,791,578,-1,578,791,577,-1,580,581,796,-1,796,581,582,-1,796,582,794,-1,794,582,583,-1,794,583,584,-1,591,590,795,-1,795,590,595,-1,795,595,797,-1,595,594,797,-1,797,594,593,-1,797,593,798,-1,798,593,592,-1,798,592,799,-1,799,592,792,-1,800,801,802,-1,802,803,800,-1,800,803,804,-1,800,804,805,-1,806,807,808,-1,808,807,805,-1,808,805,809,-1,809,805,804,-1,809,804,810,-1,810,804,811,-1,812,813,814,-1,815,816,817,-1,812,814,818,-1,814,819,818,-1,818,819,820,-1,818,820,821,-1,821,820,822,-1,821,822,823,-1,823,822,824,-1,823,824,825,-1,824,826,825,-1,825,826,827,-1,825,827,828,-1,828,827,829,-1,828,829,830,-1,830,829,831,-1,832,831,833,-1,833,831,829,-1,833,829,834,-1,834,829,835,-1,834,835,836,-1,836,835,837,-1,836,837,838,-1,837,839,838,-1,838,839,840,-1,838,840,841,-1,842,843,844,-1,845,846,847,-1,847,846,848,-1,847,848,849,-1,849,848,850,-1,815,817,851,-1,851,817,852,-1,851,852,853,-1,853,852,854,-1,853,854,855,-1,855,854,856,-1,856,854,842,-1,856,842,857,-1,857,842,844,-1,857,844,858,-1,859,860,842,-1,842,860,861,-1,842,861,843,-1,859,862,860,-1,860,862,863,-1,860,863,864,-1,864,863,865,-1,864,865,850,-1,850,865,866,-1,850,866,849,-1,840,867,841,-1,841,867,868,-1,841,868,869,-1,869,868,870,-1,869,870,871,-1,871,870,872,-1,871,872,815,-1,815,872,873,-1,815,873,816,-1,874,875,876,-1,876,875,877,-1,876,877,878,-1,878,877,879,-1,880,881,882,-1,882,881,883,-1,882,883,884,-1,884,883,599,-1,884,599,885,-1,885,599,600,-1,886,883,887,-1,887,883,881,-1,887,881,888,-1,889,890,891,-1,891,890,606,-1,891,606,604,-1,892,893,894,-1,894,893,895,-1,606,890,605,-1,605,890,895,-1,605,895,601,-1,888,881,893,-1,893,881,880,-1,880,885,893,-1,893,885,600,-1,893,600,895,-1,895,600,598,-1,895,598,601,-1,896,602,897,-1,897,602,603,-1,36,885,41,-1,41,885,880,-1,41,880,39,-1,897,603,529,-1,529,603,605,-1,529,605,25,-1,25,605,26,-1,601,29,605,-1,605,29,31,-1,605,31,26,-1,896,320,602,-1,602,320,27,-1,602,27,601,-1,601,27,29,-1,322,898,297,-1,297,898,899,-1,297,899,287,-1,612,81,610,-1,610,81,80,-1,612,613,81,-1,81,613,73,-1,73,613,72,-1,72,613,614,-1,614,611,72,-1,72,611,77,-1,77,611,76,-1,76,611,609,-1,609,608,76,-1,76,608,75,-1,75,608,74,-1,74,608,607,-1,607,610,74,-1,74,610,80,-1,621,68,615,-1,615,68,67,-1,615,67,616,-1,616,67,66,-1,616,66,629,-1,629,66,65,-1,629,65,633,-1,633,65,64,-1,633,64,634,-1,634,64,71,-1,634,71,635,-1,635,71,70,-1,635,70,636,-1,636,70,69,-1,636,69,637,-1,637,69,53,-1,637,53,638,-1,638,53,52,-1,638,52,630,-1,630,52,51,-1,630,51,631,-1,631,51,47,-1,631,47,617,-1,617,47,46,-1,617,46,622,-1,622,46,60,-1,622,60,623,-1,623,60,63,-1,623,63,628,-1,628,63,62,-1,628,62,620,-1,620,62,61,-1,620,61,624,-1,624,61,50,-1,624,50,625,-1,625,50,49,-1,625,49,626,-1,626,49,48,-1,626,48,632,-1,632,48,45,-1,632,45,618,-1,618,45,44,-1,618,44,619,-1,619,44,55,-1,619,55,627,-1,627,55,54,-1,627,54,621,-1,621,54,68,-1,642,357,643,-1,643,357,356,-1,643,356,645,-1,645,356,353,-1,645,353,647,-1,647,353,354,-1,647,354,648,-1,648,354,355,-1,648,355,661,-1,661,355,374,-1,661,374,654,-1,654,374,373,-1,654,373,655,-1,655,373,372,-1,655,372,656,-1,656,372,362,-1,656,362,662,-1,662,362,364,-1,662,364,657,-1,657,364,365,-1,657,365,658,-1,658,365,371,-1,658,371,659,-1,659,371,370,-1,659,370,646,-1,646,370,369,-1,646,369,644,-1,644,369,368,-1,644,368,652,-1,652,368,367,-1,652,367,641,-1,641,367,366,-1,641,366,660,-1,660,366,377,-1,660,377,649,-1,649,377,376,-1,649,376,650,-1,650,376,375,-1,650,375,651,-1,651,375,361,-1,651,361,639,-1,639,361,360,-1,639,360,640,-1,640,360,359,-1,640,359,653,-1,653,359,358,-1,653,358,642,-1,642,358,357,-1,677,246,678,-1,678,246,245,-1,678,245,680,-1,680,245,239,-1,239,238,680,-1,680,238,236,-1,680,236,665,-1,236,235,665,-1,665,235,278,-1,665,278,685,-1,278,277,685,-1,685,277,276,-1,685,276,686,-1,276,270,686,-1,686,270,269,-1,686,269,673,-1,269,268,673,-1,673,268,283,-1,673,283,674,-1,283,282,674,-1,674,282,281,-1,674,281,675,-1,281,280,675,-1,675,280,279,-1,675,279,684,-1,273,663,274,-1,274,663,684,-1,274,684,275,-1,275,684,279,-1,273,267,663,-1,663,267,266,-1,663,266,664,-1,664,266,272,-1,664,272,666,-1,272,271,666,-1,666,271,264,-1,666,264,667,-1,667,264,263,-1,667,263,668,-1,668,263,262,-1,262,261,668,-1,668,261,260,-1,668,260,669,-1,260,258,669,-1,669,258,257,-1,669,257,679,-1,257,256,679,-1,679,256,255,-1,679,255,676,-1,255,254,676,-1,676,254,244,-1,676,244,670,-1,244,243,670,-1,670,243,242,-1,670,242,671,-1,242,241,671,-1,671,241,240,-1,671,240,681,-1,240,253,681,-1,681,253,252,-1,681,252,682,-1,234,683,250,-1,250,683,682,-1,250,682,251,-1,251,682,252,-1,234,233,683,-1,683,233,232,-1,683,232,672,-1,672,232,231,-1,672,231,677,-1,677,231,247,-1,677,247,246,-1,687,689,327,-1,327,689,341,-1,690,324,689,-1,689,324,323,-1,323,338,689,-1,689,338,340,-1,689,340,341,-1,325,324,688,-1,688,324,690,-1,687,327,326,-1,325,688,330,-1,330,688,687,-1,330,687,331,-1,331,687,326,-1,691,693,387,-1,387,693,388,-1,15,388,694,-1,694,388,693,-1,386,15,692,-1,692,15,694,-1,692,691,386,-1,386,691,387,-1,695,697,404,-1,404,697,401,-1,402,401,698,-1,698,401,697,-1,405,402,696,-1,696,402,698,-1,696,695,405,-1,405,695,404,-1,699,701,348,-1,348,701,349,-1,702,334,701,-1,701,334,333,-1,333,344,701,-1,701,344,346,-1,701,346,349,-1,335,334,700,-1,700,334,702,-1,699,348,347,-1,335,700,351,-1,351,700,699,-1,351,699,352,-1,352,699,347,-1,703,705,438,-1,438,705,406,-1,407,406,706,-1,706,406,705,-1,439,407,704,-1,704,407,706,-1,704,703,439,-1,439,703,438,-1,707,709,390,-1,390,709,391,-1,12,391,710,-1,710,391,709,-1,389,12,708,-1,708,12,710,-1,708,707,389,-1,389,707,390,-1,724,419,725,-1,725,419,418,-1,725,418,726,-1,726,418,417,-1,417,416,726,-1,726,416,415,-1,726,415,731,-1,415,414,731,-1,731,414,413,-1,731,413,728,-1,413,454,728,-1,728,454,453,-1,728,453,730,-1,453,452,730,-1,730,452,423,-1,730,423,729,-1,423,422,729,-1,729,422,459,-1,729,459,727,-1,459,458,727,-1,727,458,457,-1,727,457,732,-1,457,456,732,-1,732,456,455,-1,732,455,714,-1,449,715,450,-1,450,715,714,-1,450,714,451,-1,451,714,455,-1,449,431,715,-1,715,431,430,-1,715,430,717,-1,717,430,448,-1,717,448,719,-1,448,447,719,-1,719,447,446,-1,719,446,720,-1,720,446,429,-1,720,429,721,-1,721,429,428,-1,428,427,721,-1,721,427,421,-1,721,421,722,-1,421,420,722,-1,722,420,445,-1,722,445,723,-1,445,444,723,-1,723,444,443,-1,723,443,733,-1,443,442,733,-1,733,442,441,-1,733,441,734,-1,441,440,734,-1,734,440,437,-1,734,437,711,-1,437,436,711,-1,711,436,435,-1,711,435,712,-1,435,434,712,-1,712,434,433,-1,712,433,713,-1,411,718,412,-1,412,718,713,-1,412,713,432,-1,432,713,433,-1,411,410,718,-1,718,410,409,-1,718,409,716,-1,716,409,426,-1,716,426,724,-1,724,426,425,-1,724,425,419,-1,755,289,757,-1,757,289,304,-1,757,304,758,-1,758,304,303,-1,758,303,743,-1,743,303,302,-1,743,302,744,-1,744,302,301,-1,744,301,745,-1,745,301,300,-1,745,300,742,-1,742,300,296,-1,742,296,737,-1,737,296,295,-1,737,295,735,-1,735,295,310,-1,735,310,746,-1,746,310,309,-1,746,309,747,-1,747,309,308,-1,747,308,748,-1,748,308,319,-1,748,319,749,-1,749,319,318,-1,749,318,750,-1,750,318,317,-1,750,317,752,-1,752,317,299,-1,752,299,753,-1,753,299,298,-1,753,298,751,-1,751,298,307,-1,751,307,736,-1,736,307,306,-1,736,306,738,-1,738,306,305,-1,738,305,739,-1,739,305,294,-1,739,294,740,-1,740,294,293,-1,740,293,741,-1,741,293,292,-1,741,292,756,-1,756,292,291,-1,756,291,754,-1,754,291,290,-1,754,290,755,-1,755,290,289,-1,759,498,768,-1,768,498,509,-1,768,509,770,-1,770,509,508,-1,770,508,769,-1,769,508,507,-1,769,507,767,-1,767,507,506,-1,767,506,771,-1,771,506,523,-1,771,523,772,-1,772,523,522,-1,772,522,773,-1,773,522,521,-1,773,521,760,-1,760,521,520,-1,760,520,761,-1,761,520,519,-1,761,519,774,-1,774,519,518,-1,774,518,775,-1,775,518,517,-1,775,517,776,-1,776,517,516,-1,776,516,762,-1,762,516,514,-1,762,514,763,-1,763,514,513,-1,763,513,765,-1,765,513,512,-1,765,512,766,-1,766,512,511,-1,766,511,777,-1,777,511,510,-1,777,510,778,-1,778,510,526,-1,778,526,779,-1,779,526,525,-1,779,525,780,-1,780,525,524,-1,780,524,781,-1,781,524,505,-1,781,505,782,-1,782,505,504,-1,782,504,764,-1,764,504,503,-1,764,503,759,-1,759,503,498,-1,106,783,788,-1,791,96,95,-1,791,95,790,-1,790,95,94,-1,790,94,789,-1,94,93,789,-1,789,93,102,-1,789,102,785,-1,785,102,101,-1,785,101,786,-1,101,110,786,-1,786,110,109,-1,786,109,787,-1,787,109,108,-1,787,108,788,-1,788,108,107,-1,788,107,106,-1,105,79,784,-1,784,79,792,-1,79,78,792,-1,792,78,99,-1,792,99,799,-1,799,99,98,-1,799,98,798,-1,98,97,798,-1,798,97,92,-1,798,92,797,-1,797,92,91,-1,797,91,795,-1,88,793,89,-1,89,793,795,-1,89,795,90,-1,90,795,91,-1,104,796,84,-1,84,796,794,-1,88,87,793,-1,793,87,86,-1,793,86,794,-1,794,86,85,-1,794,85,84,-1,104,103,796,-1,796,103,96,-1,796,96,791,-1,105,784,106,-1,106,784,783,-1,802,118,803,-1,803,118,23,-1,801,119,802,-1,802,119,118,-1,119,801,120,-1,120,801,800,-1,120,800,115,-1,115,800,805,-1,807,114,805,-1,805,114,115,-1,806,111,807,-1,807,111,114,-1,111,806,112,-1,112,806,808,-1,809,113,808,-1,808,113,112,-1,810,117,809,-1,809,117,113,-1,811,21,810,-1,810,21,117,-1,21,811,22,-1,22,811,804,-1,803,23,804,-1,804,23,22,-1,126,160,813,-1,813,160,814,-1,160,162,814,-1,814,162,138,-1,814,138,819,-1,819,138,122,-1,819,122,820,-1,183,824,822,-1,122,121,820,-1,820,121,181,-1,820,181,822,-1,822,181,182,-1,822,182,183,-1,183,185,824,-1,824,185,184,-1,824,184,826,-1,826,184,123,-1,826,123,827,-1,827,123,148,-1,827,148,829,-1,829,148,147,-1,829,147,835,-1,147,146,835,-1,835,146,163,-1,835,163,837,-1,837,163,140,-1,837,140,839,-1,839,140,139,-1,839,139,840,-1,840,139,177,-1,840,177,867,-1,177,178,867,-1,867,178,179,-1,867,179,868,-1,179,180,868,-1,868,180,161,-1,868,161,870,-1,870,161,159,-1,870,159,872,-1,872,159,151,-1,151,199,872,-1,872,199,200,-1,872,200,873,-1,873,200,194,-1,873,194,192,-1,191,817,192,-1,192,817,816,-1,192,816,873,-1,191,193,817,-1,817,193,198,-1,817,198,852,-1,852,198,153,-1,852,153,854,-1,854,153,155,-1,854,155,842,-1,155,154,842,-1,842,154,152,-1,842,152,859,-1,859,152,150,-1,859,150,862,-1,862,150,149,-1,862,149,863,-1,863,149,166,-1,863,166,865,-1,865,166,165,-1,865,165,866,-1,165,164,866,-1,866,164,190,-1,866,190,849,-1,849,190,189,-1,849,189,847,-1,186,845,187,-1,187,845,847,-1,187,847,188,-1,188,847,189,-1,812,127,813,-1,813,127,126,-1,141,825,828,-1,157,850,158,-1,158,850,848,-1,158,848,129,-1,129,848,846,-1,129,846,128,-1,157,156,850,-1,850,156,137,-1,850,137,864,-1,137,136,864,-1,864,136,135,-1,864,135,860,-1,135,134,860,-1,860,134,133,-1,860,133,861,-1,861,133,145,-1,861,145,843,-1,145,144,843,-1,843,144,132,-1,843,132,844,-1,844,132,131,-1,844,131,858,-1,858,131,176,-1,858,176,857,-1,176,175,857,-1,857,175,174,-1,857,174,856,-1,856,174,171,-1,856,171,855,-1,212,851,213,-1,213,851,853,-1,213,853,173,-1,173,853,855,-1,173,855,170,-1,170,855,171,-1,212,211,851,-1,851,211,216,-1,851,216,815,-1,216,215,815,-1,815,215,214,-1,815,214,871,-1,214,222,871,-1,871,222,221,-1,871,221,869,-1,218,841,219,-1,219,841,869,-1,219,869,220,-1,220,869,221,-1,218,217,841,-1,841,217,210,-1,841,210,838,-1,210,209,838,-1,838,209,208,-1,838,208,836,-1,208,205,836,-1,836,205,204,-1,836,204,834,-1,204,207,834,-1,834,207,206,-1,834,206,833,-1,833,206,197,-1,833,197,832,-1,197,196,832,-1,832,196,203,-1,832,203,831,-1,203,202,831,-1,831,202,201,-1,831,201,830,-1,830,201,143,-1,830,143,828,-1,828,143,142,-1,828,142,141,-1,141,125,825,-1,825,125,124,-1,825,124,823,-1,124,130,823,-1,823,130,169,-1,823,169,821,-1,127,812,195,-1,195,812,818,-1,195,818,167,-1,167,818,821,-1,167,821,168,-1,168,821,169,-1,128,846,186,-1,186,846,845,-1,878,225,876,-1,876,225,224,-1,879,227,878,-1,878,227,225,-1,227,879,249,-1,249,879,877,-1,249,877,248,-1,248,877,332,-1,332,877,875,-1,332,875,226,-1,226,875,874,-1,226,874,223,-1,876,224,874,-1,874,224,223,-1,884,900,882,-1,882,900,901,-1,900,884,35,-1,35,884,885,-1,35,885,36,-1,288,285,902,-1,903,230,259,-1,259,312,903,-1,903,312,314,-1,903,314,902,-1,902,314,316,-1,902,316,288,-1,882,901,880,-1,880,901,37,-1,880,37,39,-1,904,905,906,-1,906,905,886,-1,906,886,887,-1,893,892,888,-1,888,892,907,-1,888,907,887,-1,887,907,906,-1,894,908,892,-1,892,908,907,-1,894,895,890,-1,889,909,890,-1,890,909,908,-1,890,908,894,-1,910,911,891,-1,891,911,909,-1,891,909,889,-1,544,912,913,-1,905,904,914,-1,914,904,915,-1,914,915,913,-1,913,915,545,-1,913,545,544,-1,4,916,917,-1,903,902,912,-1,917,903,4,-1,4,903,912,-1,4,912,2,-1,2,912,544,-1,2,544,918,-1,918,544,919,-1,911,910,920,-1,920,910,921,-1,920,921,898,-1,898,921,912,-1,898,912,899,-1,899,912,902,-1,899,902,922,-1,922,902,923,-1,321,320,896,-1,321,896,322,-1,897,920,896,-1,896,920,898,-1,896,898,322,-1,897,529,528,-1,897,528,920,-1,920,528,527,-1,920,527,543,-1,34,56,545,-1,38,37,901,-1,38,901,18,-1,35,34,900,-1,900,34,545,-1,900,545,901,-1,901,545,915,-1,901,915,18,-1,18,915,19,-1,904,906,531,-1,531,906,907,-1,19,915,20,-1,20,915,904,-1,20,904,530,-1,530,904,531,-1,539,538,908,-1,908,538,537,-1,908,537,907,-1,543,542,920,-1,920,542,541,-1,920,541,911,-1,537,536,907,-1,907,536,535,-1,907,535,534,-1,908,909,539,-1,539,909,911,-1,539,911,540,-1,540,911,541,-1,534,533,907,-1,907,533,532,-1,907,532,531,-1,286,287,922,-1,922,287,899,-1,285,284,902,-1,902,284,923,-1,284,286,923,-1,923,286,922,-1,59,0,918,-1,918,0,2,-1,57,58,544,-1,544,58,919,-1,58,59,919,-1,919,59,918,-1,604,921,891,-1,891,921,910,-1,597,912,604,-1,604,912,921,-1,599,913,597,-1,597,913,912,-1,883,914,599,-1,599,914,913,-1,886,905,883,-1,883,905,914,-1,460,462,924,-1,924,462,925,-1,462,464,925,-1,925,464,926,-1,464,461,926,-1,926,461,927,-1,461,460,927,-1,927,460,924,-1,926,927,925,-1,925,927,924,-1,469,465,928,-1,928,465,929,-1,465,467,929,-1,929,467,930,-1,467,468,930,-1,930,468,931,-1,468,469,931,-1,931,469,928,-1,930,931,929,-1,929,931,928,-1,477,478,932,-1,932,478,933,-1,478,475,933,-1,933,475,934,-1,475,476,934,-1,934,476,935,-1,476,477,935,-1,935,477,932,-1,934,935,933,-1,933,935,932,-1,472,473,936,-1,936,473,937,-1,473,470,937,-1,937,470,938,-1,470,471,938,-1,938,471,939,-1,471,472,939,-1,939,472,936,-1,938,939,937,-1,937,939,936,-1,229,230,917,-1,917,230,903,-1,11,228,4,-1,4,228,916,-1,228,229,916,-1,916,229,917,-1,940,941,385,-1,385,941,384,-1,942,940,382,-1,382,940,385,-1,943,942,383,-1,383,942,382,-1,941,943,384,-1,384,943,383,-1,942,943,940,-1,940,943,941,-1,944,945,381,-1,381,945,380,-1,946,944,378,-1,378,944,381,-1,947,946,379,-1,379,946,378,-1,945,947,380,-1,380,947,379,-1,946,947,944,-1,944,947,945,-1,948,949,483,-1,483,949,482,-1,950,948,480,-1,480,948,483,-1,951,950,481,-1,481,950,480,-1,949,951,482,-1,482,951,481,-1,950,951,948,-1,948,951,949,-1,952,953,488,-1,488,953,487,-1,954,952,485,-1,485,952,488,-1,955,954,486,-1,486,954,485,-1,953,955,487,-1,487,955,486,-1,954,955,952,-1,952,955,953,-1,956,957,497,-1,497,957,496,-1,958,956,494,-1,494,956,497,-1,959,958,495,-1,495,958,494,-1,957,959,496,-1,496,959,495,-1,958,959,956,-1,956,959,957,-1,960,961,493,-1,493,961,492,-1,962,960,490,-1,490,960,493,-1,963,962,491,-1,491,962,490,-1,961,963,492,-1,492,963,491,-1,962,963,960,-1,960,963,961,-1,
        ]
    }
}
Shape{
    appearance Appearance {
        material  Material 	{
            diffuseColor 0.7019607843137254 0.7019607843137254 0.7019607843137254
            specularColor 0.2 0.2 0.2
            ambientIntensity 1.0
            transparency 0.0
            shininess 0.5
        }
    }
    geometry IndexedFaceSet {
        ccw TRUE
        solid FALSE
        coord DEF co Coordinate {
            point [
                0.626 0.2929 2.0866, 0.626 -4.2425 2.0866, 0.374 0.2929 2.0866, 0.374 -4.2425 2.0866, 0.374 0.6236 -1.063, 0.374 0.6236 2.0079, 0.626 0.6236 -1.063, 0.626 0.6236 2.0079, 0.626 0.3717 -1.063, 0.626 0.3717 2.0079, 0.626 0.369 2.0283, 0.626 0.6124 2.0935, 0.626 0.3611 2.0472, 0.626 0.5793 2.1732, 0.626 0.3486 2.0636, 0.626 0.5268 2.2417, 0.626 0.3323 2.0761, 0.626 0.4583 2.2943, 0.626 0.3133 2.0839, 0.626 0.3785 2.3273, 0.626 0.2929 2.3386, 0.626 -4.2425 2.3386, 0.374 0.2929 2.3386, 0.374 -4.2425 2.3386, 0.374 0.3133 2.0839, 0.374 0.3785 2.3273, 0.374 0.3323 2.0761, 0.374 0.4583 2.2943, 0.374 0.3486 2.0636, 0.374 0.5268 2.2417, 0.374 0.3611 2.0472, 0.374 0.5793 2.1732, 0.374 0.369 2.0283, 0.374 0.6124 2.0935, 0.374 0.3717 2.0079, 0.374 0.3717 -1.063, 0.5472 -4.3606 2.2598, 0.5472 -4.3606 2.1654, 0.4528 -4.3606 2.1654, 0.4528 -4.3606 2.2598, 0.5472 0.5449 -1.1811, 0.5472 0.4504 -1.1811, 0.4528 0.5449 -1.1811, 0.4528 0.4504 -1.1811, 0.374 -0.3764 -1.063, 0.374 -0.3764 1.0079, 0.626 -0.3764 -1.063, 0.626 -0.3764 1.0079, 0.626 -0.6283 -1.063, 0.626 -0.6283 1.0079, 0.626 -0.631 1.0283, 0.626 -0.3847 1.0815, 0.626 -0.6389 1.0472, 0.626 -0.4091 1.1514, 0.626 -0.6514 1.0636, 0.626 -0.4485 1.2141, 0.626 -0.5009 1.2664, 0.626 -0.6677 1.0761, 0.626 -0.5636 1.3058, 0.626 -0.6867 1.0839, 0.626 -0.6335 1.3303, 0.626 -0.7071 1.0866, 0.626 -0.7071 1.3386, 0.626 -4.2425 1.0866, 0.626 -4.2425 1.3386, 0.374 -0.7071 1.0866, 0.374 -4.2425 1.0866, 0.374 -0.7071 1.3386, 0.374 -4.2425 1.3386, 0.374 -0.6283 -1.063, 0.374 -0.6283 1.0079, 0.374 -0.3847 1.0815, 0.374 -0.631 1.0283, 0.374 -0.4091 1.1514, 0.374 -0.6389 1.0472, 0.374 -0.4485 1.2141, 0.374 -0.6514 1.0636, 0.374 -0.5009 1.2664, 0.374 -0.6677 1.0761, 0.374 -0.6867 1.0839, 0.374 -0.6335 1.3303, 0.374 -0.5636 1.3058, 0.5472 -4.3606 1.1654, 0.5472 -4.3606 1.2598, 0.4528 -4.3606 1.1654, 0.4528 -4.3606 1.2598, 0.4528 -0.5496 -1.1811, 0.4528 -0.4551 -1.1811, 0.5472 -0.5496 -1.1811, 0.5472 -0.4551 -1.1811, -0.374 0.2929 2.0866, -0.374 -4.2425 2.0866, -0.626 0.2929 2.0866, -0.626 -4.2425 2.0866, -0.626 0.6236 -1.063, -0.626 0.6236 2.0079, -0.374 0.6236 -1.063, -0.374 0.6236 2.0079, -0.374 0.3717 -1.063, -0.374 0.3717 2.0079, -0.374 0.369 2.0283, -0.374 0.6124 2.0935, -0.374 0.3611 2.0472, -0.374 0.5793 2.1732, -0.374 0.3486 2.0636, -0.374 0.5268 2.2417, -0.374 0.3323 2.0761, -0.374 0.4583 2.2943, -0.374 0.3133 2.0839, -0.374 0.3785 2.3273, -0.374 0.2929 2.3386, -0.374 -4.2425 2.3386, -0.626 0.2929 2.3386, -0.626 -4.2425 2.3386, -0.626 0.3133 2.0839, -0.626 0.3785 2.3273, -0.626 0.3323 2.0761, -0.626 0.4583 2.2943, -0.626 0.3486 2.0636, -0.626 0.5268 2.2417, -0.626 0.3611 2.0472, -0.626 0.5793 2.1732, -0.626 0.369 2.0283, -0.626 0.6124 2.0935, -0.626 0.3717 2.0079, -0.626 0.3717 -1.063, -0.4528 -4.3606 2.2598, -0.4528 -4.3606 2.1654, -0.5472 -4.3606 2.1654, -0.5472 -4.3606 2.2598, -0.4528 0.5449 -1.1811, -0.4528 0.4504 -1.1811, -0.5472 0.5449 -1.1811, -0.5472 0.4504 -1.1811, -0.626 -0.3764 -1.063, -0.626 -0.3764 1.0079, -0.374 -0.3764 -1.063, -0.374 -0.3764 1.0079, -0.374 -0.6283 -1.063, -0.374 -0.6283 1.0079, -0.374 -0.631 1.0283, -0.374 -0.3847 1.0815, -0.374 -0.6389 1.0472, -0.374 -0.4091 1.1514, -0.374 -0.6514 1.0636, -0.374 -0.4485 1.2141, -0.374 -0.5009 1.2664, -0.374 -0.6677 1.0761, -0.374 -0.5636 1.3058, -0.374 -0.6867 1.0839, -0.374 -0.6335 1.3303, -0.374 -0.7071 1.0866, -0.374 -0.7071 1.3386, -0.374 -4.2425 1.0866, -0.374 -4.2425 1.3386, -0.626 -0.7071 1.0866, -0.626 -4.2425 1.0866, -0.626 -0.7071 1.3386, -0.626 -4.2425 1.3386, -0.626 -0.6867 1.0839, -0.626 -0.6335 1.3303, -0.626 -0.6677 1.0761, -0.626 -0.5636 1.3058, -0.626 -0.5009 1.2664, -0.626 -0.6514 1.0636, -0.626 -0.4485 1.2141, -0.626 -0.6389 1.0472, -0.626 -0.4091 1.1514, -0.626 -0.631 1.0283, -0.626 -0.3847 1.0815, -0.626 -0.6283 1.0079, -0.626 -0.6283 -1.063, -0.4528 -4.3606 1.1654, -0.4528 -4.3606 1.2598, -0.5472 -4.3606 1.1654, -0.5472 -4.3606 1.2598, -0.5472 -0.5496 -1.1811, -0.5472 -0.4551 -1.1811, -0.4528 -0.5496 -1.1811, -0.4528 -0.4551 -1.1811, -1.374 0.2929 2.0866, -1.374 -4.2425 2.0866, -1.626 0.2929 2.0866, -1.626 -4.2425 2.0866, -1.626 0.6236 -1.063, -1.626 0.6236 2.0079, -1.374 0.6236 -1.063, -1.374 0.6236 2.0079, -1.374 0.3717 -1.063, -1.374 0.3717 2.0079, -1.374 0.369 2.0283, -1.374 0.6124 2.0935, -1.374 0.3611 2.0472, -1.374 0.5793 2.1732, -1.374 0.3486 2.0636, -1.374 0.5268 2.2417, -1.374 0.3323 2.0761, -1.374 0.4583 2.2943, -1.374 0.3133 2.0839, -1.374 0.3785 2.3273, -1.374 0.2929 2.3386, -1.374 -4.2425 2.3386, -1.626 0.2929 2.3386, -1.626 -4.2425 2.3386, -1.626 0.3133 2.0839, -1.626 0.3785 2.3273, -1.626 0.3323 2.0761, -1.626 0.4583 2.2943, -1.626 0.3486 2.0636, -1.626 0.5268 2.2417, -1.626 0.3611 2.0472, -1.626 0.5793 2.1732, -1.626 0.369 2.0283, -1.626 0.6124 2.0935, -1.626 0.3717 2.0079, -1.626 0.3717 -1.063, -1.4528 -4.3606 2.2598, -1.4528 -4.3606 2.1654, -1.5472 -4.3606 2.1654, -1.5472 -4.3606 2.2598, -1.4528 0.5449 -1.1811, -1.4528 0.4504 -1.1811, -1.5472 0.5449 -1.1811, -1.5472 0.4504 -1.1811, -1.626 -0.3764 -1.063, -1.626 -0.3764 1.0079, -1.374 -0.3764 -1.063, -1.374 -0.3764 1.0079, -1.374 -0.6283 -1.063, -1.374 -0.6283 1.0079, -1.374 -0.631 1.0283, -1.374 -0.3847 1.0815, -1.374 -0.6389 1.0472, -1.374 -0.4091 1.1514, -1.374 -0.4485 1.2141, -1.374 -0.6514 1.0636, -1.374 -0.5009 1.2664, -1.374 -0.6677 1.0761, -1.374 -0.5636 1.3058, -1.374 -0.6867 1.0839, -1.374 -0.6335 1.3303, -1.374 -0.7071 1.0866, -1.374 -0.7071 1.3386, -1.374 -4.2425 1.0866, -1.374 -4.2425 1.3386, -1.626 -0.7071 1.0866, -1.626 -4.2425 1.0866, -1.626 -0.7071 1.3386, -1.626 -4.2425 1.3386, -1.626 -0.6283 -1.063, -1.626 -0.6283 1.0079, -1.626 -0.3847 1.0815, -1.626 -0.631 1.0283, -1.626 -0.4091 1.1514, -1.626 -0.6389 1.0472, -1.626 -0.4485 1.2141, -1.626 -0.6514 1.0636, -1.626 -0.5009 1.2664, -1.626 -0.6677 1.0761, -1.626 -0.6867 1.0839, -1.626 -0.6335 1.3303, -1.626 -0.5636 1.3058, -1.4528 -4.3606 1.1654, -1.4528 -4.3606 1.2598, -1.5472 -4.3606 1.1654, -1.5472 -4.3606 1.2598, -1.5472 -0.5496 -1.1811, -1.5472 -0.4551 -1.1811, -1.4528 -0.5496 -1.1811, -1.4528 -0.4551 -1.1811
            ]
        }
        coordIndex [
            0,1,2,-1,2,1,3,-1,4,5,6,-1,6,5,7,-1,8,6,9,-1,9,6,7,-1,9,7,10,-1,10,7,11,-1,10,11,12,-1,12,11,13,-1,12,13,14,-1,14,13,15,-1,14,15,16,-1,16,15,17,-1,16,17,18,-1,18,17,19,-1,18,19,0,-1,0,19,20,-1,0,20,1,-1,1,20,21,-1,22,23,20,-1,20,23,21,-1,3,23,2,-1,2,23,22,-1,2,22,24,-1,24,22,25,-1,24,25,26,-1,26,25,27,-1,26,27,28,-1,28,27,29,-1,28,29,30,-1,30,29,31,-1,30,31,32,-1,32,31,33,-1,32,33,34,-1,34,33,5,-1,34,5,35,-1,35,5,4,-1,21,36,1,-1,1,36,37,-1,38,3,37,-1,37,3,1,-1,38,37,39,-1,39,37,36,-1,36,21,39,-1,39,21,23,-1,39,23,38,-1,38,23,3,-1,8,9,35,-1,35,9,34,-1,40,41,42,-1,42,41,43,-1,34,9,10,-1,34,10,32,-1,32,10,12,-1,32,12,30,-1,30,12,14,-1,30,14,28,-1,28,14,16,-1,28,16,26,-1,26,16,18,-1,26,18,24,-1,24,18,0,-1,24,0,2,-1,7,5,33,-1,7,33,11,-1,11,33,31,-1,11,31,13,-1,13,31,29,-1,13,29,15,-1,15,29,27,-1,15,27,17,-1,17,27,25,-1,17,25,19,-1,19,25,22,-1,19,22,20,-1,4,42,35,-1,35,42,43,-1,6,40,4,-1,4,40,42,-1,41,8,43,-1,43,8,35,-1,8,41,6,-1,6,41,40,-1,44,45,46,-1,46,45,47,-1,48,46,49,-1,49,46,47,-1,49,47,50,-1,50,47,51,-1,50,51,52,-1,52,51,53,-1,52,53,54,-1,53,55,54,-1,54,55,56,-1,54,56,57,-1,57,56,58,-1,57,58,59,-1,59,58,60,-1,59,60,61,-1,61,60,62,-1,61,62,63,-1,63,62,64,-1,61,63,65,-1,65,63,66,-1,67,68,62,-1,62,68,64,-1,44,69,45,-1,45,69,70,-1,45,70,71,-1,71,70,72,-1,71,72,73,-1,73,72,74,-1,73,74,75,-1,75,74,76,-1,75,76,77,-1,77,76,78,-1,66,68,65,-1,65,68,67,-1,65,67,79,-1,79,67,80,-1,79,80,78,-1,78,80,81,-1,78,81,77,-1,82,63,83,-1,83,63,64,-1,63,82,66,-1,66,82,84,-1,84,82,85,-1,85,82,83,-1,83,64,85,-1,85,64,68,-1,85,68,84,-1,84,68,66,-1,48,49,69,-1,69,49,70,-1,86,87,88,-1,88,87,89,-1,61,65,79,-1,61,79,59,-1,59,79,78,-1,59,78,57,-1,57,78,76,-1,57,76,54,-1,54,76,74,-1,54,74,52,-1,52,74,72,-1,52,72,50,-1,50,72,70,-1,50,70,49,-1,47,45,71,-1,47,71,51,-1,51,71,73,-1,51,73,53,-1,53,73,75,-1,53,75,55,-1,55,75,77,-1,55,77,56,-1,56,77,81,-1,56,81,58,-1,58,81,80,-1,58,80,60,-1,60,80,67,-1,60,67,62,-1,44,87,69,-1,69,87,86,-1,46,89,44,-1,44,89,87,-1,88,48,86,-1,86,48,69,-1,48,88,46,-1,46,88,89,-1,90,91,92,-1,92,91,93,-1,94,95,96,-1,96,95,97,-1,98,96,99,-1,99,96,97,-1,99,97,100,-1,100,97,101,-1,100,101,102,-1,102,101,103,-1,102,103,104,-1,104,103,105,-1,104,105,106,-1,106,105,107,-1,106,107,108,-1,108,107,109,-1,108,109,90,-1,90,109,110,-1,90,110,91,-1,91,110,111,-1,112,113,110,-1,110,113,111,-1,93,113,92,-1,92,113,112,-1,92,112,114,-1,114,112,115,-1,114,115,116,-1,116,115,117,-1,116,117,118,-1,118,117,119,-1,118,119,120,-1,120,119,121,-1,120,121,122,-1,122,121,123,-1,122,123,124,-1,124,123,95,-1,124,95,125,-1,125,95,94,-1,111,126,91,-1,91,126,127,-1,128,93,127,-1,127,93,91,-1,128,127,129,-1,129,127,126,-1,126,111,129,-1,129,111,113,-1,129,113,128,-1,128,113,93,-1,98,99,125,-1,125,99,124,-1,130,131,132,-1,132,131,133,-1,124,99,100,-1,124,100,122,-1,122,100,102,-1,122,102,120,-1,120,102,104,-1,120,104,118,-1,118,104,106,-1,118,106,116,-1,116,106,108,-1,116,108,114,-1,114,108,90,-1,114,90,92,-1,97,95,123,-1,97,123,101,-1,101,123,121,-1,101,121,103,-1,103,121,119,-1,103,119,105,-1,105,119,117,-1,105,117,107,-1,107,117,115,-1,107,115,109,-1,109,115,112,-1,109,112,110,-1,94,132,125,-1,125,132,133,-1,96,130,94,-1,94,130,132,-1,131,98,133,-1,133,98,125,-1,98,131,96,-1,96,131,130,-1,134,135,136,-1,136,135,137,-1,138,136,139,-1,139,136,137,-1,139,137,140,-1,140,137,141,-1,140,141,142,-1,142,141,143,-1,142,143,144,-1,143,145,144,-1,144,145,146,-1,144,146,147,-1,147,146,148,-1,147,148,149,-1,149,148,150,-1,149,150,151,-1,151,150,152,-1,151,152,153,-1,153,152,154,-1,151,153,155,-1,155,153,156,-1,157,158,152,-1,152,158,154,-1,156,158,155,-1,155,158,157,-1,155,157,159,-1,159,157,160,-1,159,160,161,-1,160,162,161,-1,161,162,163,-1,161,163,164,-1,164,163,165,-1,164,165,166,-1,166,165,167,-1,166,167,168,-1,168,167,169,-1,168,169,170,-1,170,169,135,-1,170,135,171,-1,171,135,134,-1,172,153,173,-1,173,153,154,-1,153,172,156,-1,156,172,174,-1,174,172,175,-1,175,172,173,-1,173,154,175,-1,175,154,158,-1,175,158,174,-1,174,158,156,-1,138,139,171,-1,171,139,170,-1,176,177,178,-1,178,177,179,-1,151,155,159,-1,151,159,149,-1,149,159,161,-1,149,161,147,-1,147,161,164,-1,147,164,144,-1,144,164,166,-1,144,166,142,-1,142,166,168,-1,142,168,140,-1,140,168,170,-1,140,170,139,-1,137,135,169,-1,137,169,141,-1,141,169,167,-1,141,167,143,-1,143,167,165,-1,143,165,145,-1,145,165,163,-1,145,163,146,-1,146,163,162,-1,146,162,148,-1,148,162,160,-1,148,160,150,-1,150,160,157,-1,150,157,152,-1,134,177,171,-1,171,177,176,-1,136,179,134,-1,134,179,177,-1,178,138,176,-1,176,138,171,-1,138,178,136,-1,136,178,179,-1,180,181,182,-1,182,181,183,-1,184,185,186,-1,186,185,187,-1,188,186,189,-1,189,186,187,-1,189,187,190,-1,190,187,191,-1,190,191,192,-1,192,191,193,-1,192,193,194,-1,194,193,195,-1,194,195,196,-1,196,195,197,-1,196,197,198,-1,198,197,199,-1,198,199,180,-1,180,199,200,-1,180,200,181,-1,181,200,201,-1,202,203,200,-1,200,203,201,-1,183,203,182,-1,182,203,202,-1,182,202,204,-1,204,202,205,-1,204,205,206,-1,206,205,207,-1,206,207,208,-1,208,207,209,-1,208,209,210,-1,210,209,211,-1,210,211,212,-1,212,211,213,-1,212,213,214,-1,214,213,185,-1,214,185,215,-1,215,185,184,-1,201,216,181,-1,181,216,217,-1,218,183,217,-1,217,183,181,-1,218,217,219,-1,219,217,216,-1,216,201,219,-1,219,201,203,-1,219,203,218,-1,218,203,183,-1,188,189,215,-1,215,189,214,-1,220,221,222,-1,222,221,223,-1,214,189,190,-1,214,190,212,-1,212,190,192,-1,212,192,210,-1,210,192,194,-1,210,194,208,-1,208,194,196,-1,208,196,206,-1,206,196,198,-1,206,198,204,-1,204,198,180,-1,204,180,182,-1,187,185,213,-1,187,213,191,-1,191,213,211,-1,191,211,193,-1,193,211,209,-1,193,209,195,-1,195,209,207,-1,195,207,197,-1,197,207,205,-1,197,205,199,-1,199,205,202,-1,199,202,200,-1,184,222,215,-1,215,222,223,-1,186,220,184,-1,184,220,222,-1,221,188,223,-1,223,188,215,-1,188,221,186,-1,186,221,220,-1,224,225,226,-1,226,225,227,-1,228,226,229,-1,229,226,227,-1,229,227,230,-1,230,227,231,-1,230,231,232,-1,231,233,232,-1,232,233,234,-1,232,234,235,-1,235,234,236,-1,235,236,237,-1,237,236,238,-1,237,238,239,-1,239,238,240,-1,239,240,241,-1,241,240,242,-1,241,242,243,-1,243,242,244,-1,241,243,245,-1,245,243,246,-1,247,248,242,-1,242,248,244,-1,224,249,225,-1,225,249,250,-1,225,250,251,-1,251,250,252,-1,251,252,253,-1,253,252,254,-1,253,254,255,-1,255,254,256,-1,255,256,257,-1,257,256,258,-1,246,248,245,-1,245,248,247,-1,245,247,259,-1,259,247,260,-1,259,260,258,-1,258,260,261,-1,258,261,257,-1,262,243,263,-1,263,243,244,-1,243,262,246,-1,246,262,264,-1,264,262,265,-1,265,262,263,-1,263,244,265,-1,265,244,248,-1,265,248,264,-1,264,248,246,-1,228,229,249,-1,249,229,250,-1,266,267,268,-1,268,267,269,-1,241,245,259,-1,241,259,239,-1,239,259,258,-1,239,258,237,-1,237,258,256,-1,237,256,235,-1,235,256,254,-1,235,254,232,-1,232,254,252,-1,232,252,230,-1,230,252,250,-1,230,250,229,-1,227,225,251,-1,227,251,231,-1,231,251,253,-1,231,253,233,-1,233,253,255,-1,233,255,234,-1,234,255,257,-1,234,257,236,-1,236,257,261,-1,236,261,238,-1,238,261,260,-1,238,260,240,-1,240,260,247,-1,240,247,242,-1,224,267,249,-1,249,267,266,-1,226,269,224,-1,224,269,267,-1,268,228,266,-1,266,228,249,-1,228,268,226,-1,226,268,269,-1,
        ]
    }
}