#VRML V2.0 utf8
# PROJECT VISUALIZATION ONLY: conservative maximum package envelope.
# Abracon ASPI-0630LR Rev C page7; not manufacturer CAD or exact terminal geometry.
# Extent: 7.5 x 6.85 x 3.0 mm; centered in XY; seating plane Z=0.
Shape {
  appearance Appearance { material Material { diffuseColor 0.24 0.24 0.24 } }
  geometry IndexedFaceSet {
    ccw TRUE
    solid TRUE
    coord Coordinate { point [
      -1.47637795276 -1.34842519685 0,
      1.47637795276 -1.34842519685 0,
      1.47637795276 1.34842519685 0,
      -1.47637795276 1.34842519685 0,
      -1.47637795276 -1.34842519685 1.1811023622,
      1.47637795276 -1.34842519685 1.1811023622,
      1.47637795276 1.34842519685 1.1811023622,
      -1.47637795276 1.34842519685 1.1811023622
    ] }
    coordIndex [
      0,3,2,-1,
      0,2,1,-1,
      4,5,6,-1,
      4,6,7,-1,
      0,1,5,-1,
      0,5,4,-1,
      1,2,6,-1,
      1,6,5,-1,
      2,3,7,-1,
      2,7,6,-1,
      3,0,4,-1,
      3,4,7,-1
    ]
  }
}
