%TF.GenerationSoftware,KiCad,Pcbnew,10.0.0*%
%TF.CreationDate,2026-09-20T13:55:55+09:00*%
%TF.ProjectId,board-b,626f6172-642d-4622-9e6b-696361645f70,rev?*%
%TF.SameCoordinates,Original*%
%TF.FileFunction,Soldermask,Bot*%
%TF.FilePolarity,Negative*%
%FSLAX46Y46*%
G04 Gerber Fmt 4.6, Leading zero omitted, Abs format (unit mm)*
G04 Created by KiCad (PCBNEW 10.0.0) date 2026-09-20 13:55:55*
%MOMM*%
%LPD*%
G01*
G04 APERTURE LIST*
%ADD10C,3.200000*%
%ADD11R,2.200000X2.200000*%
%ADD12C,2.200000*%
%ADD13R,1.800000X1.800000*%
%ADD14C,1.800000*%
%ADD15C,1.600000*%
G04 APERTURE END LIST*
D10*
%TO.C,H1*%
X4000000Y91000000D03*
%TD*%
%TO.C,H4*%
X106000000Y91000000D03*
%TD*%
D11*
%TO.C,J8*%
X8540000Y12000000D03*
D12*
X3460000Y12000000D03*
%TD*%
D11*
%TO.C,J9*%
X8540000Y36000000D03*
D12*
X3460000Y36000000D03*
%TD*%
D13*
%TO.C,J10*%
X50290000Y13500000D03*
D14*
X50290000Y10960000D03*
X47750000Y13500000D03*
X47750000Y10960000D03*
X45210000Y13500000D03*
X45210000Y10960000D03*
X42670000Y13500000D03*
X42670000Y10960000D03*
X40130000Y13500000D03*
X40130000Y10960000D03*
X37590000Y13500000D03*
X37590000Y10960000D03*
X35050000Y13500000D03*
X35050000Y10960000D03*
X32510000Y13500000D03*
X32510000Y10960000D03*
%TD*%
D10*
%TO.C,H2*%
X23000000Y91000000D03*
%TD*%
%TO.C,H6*%
X106000000Y4000000D03*
%TD*%
D13*
%TO.C,J11*%
X90390000Y13500000D03*
D14*
X90390000Y10960000D03*
X87850000Y13500000D03*
X87850000Y10960000D03*
X85310000Y13500000D03*
X85310000Y10960000D03*
X82770000Y13500000D03*
X82770000Y10960000D03*
X80230000Y13500000D03*
X80230000Y10960000D03*
X77690000Y13500000D03*
X77690000Y10960000D03*
X75150000Y13500000D03*
X75150000Y10960000D03*
X72610000Y13500000D03*
X72610000Y10960000D03*
%TD*%
D11*
%TO.C,J7*%
X8540000Y24000000D03*
D12*
X3460000Y24000000D03*
%TD*%
D10*
%TO.C,H5*%
X4000000Y4000000D03*
%TD*%
D11*
%TO.C,J6*%
X8540000Y48000000D03*
D12*
X3460000Y48000000D03*
%TD*%
D10*
%TO.C,H3*%
X12800000Y62400000D03*
%TD*%
D13*
%TO.C,J5*%
X6550000Y57300000D03*
D15*
X9090000Y57300000D03*
X11630000Y57300000D03*
X14170000Y57300000D03*
X16710000Y57300000D03*
X19250000Y57300000D03*
%TD*%
M02*
