%TF.GenerationSoftware,KiCad,Pcbnew,10.0.0*%
%TF.CreationDate,2026-09-20T13:55:54+09:00*%
%TF.ProjectId,board-b,626f6172-642d-4622-9e6b-696361645f70,rev?*%
%TF.SameCoordinates,Original*%
%TF.FileFunction,Legend,Top*%
%TF.FilePolarity,Positive*%
%FSLAX46Y46*%
G04 Gerber Fmt 4.6, Leading zero omitted, Abs format (unit mm)*
G04 Created by KiCad (PCBNEW 10.0.0) date 2026-09-20 13:55:55*
%MOMM*%
%LPD*%
G01*
G04 APERTURE LIST*
%ADD10C,0.150000*%
%ADD11C,0.120000*%
%ADD12C,0.400000*%
%ADD13C,0.060000*%
%ADD14C,0.000000*%
%ADD15C,0.250000*%
%ADD16C,0.500000*%
%ADD17C,0.200000*%
%ADD18C,0.080000*%
%ADD19C,0.300000*%
%ADD20R,3.080000X1.020000*%
%ADD21R,8.500000X11.000000*%
%ADD22C,3.200000*%
%ADD23R,1.410000X1.350000*%
%ADD24R,1.635000X2.700000*%
%ADD25C,1.500000*%
%ADD26R,0.810000X0.860000*%
%ADD27R,2.780000X1.490000*%
%ADD28R,3.610000X1.260000*%
%ADD29R,3.500000X1.200000*%
%ADD30R,0.900000X0.800000*%
%ADD31R,2.200000X2.200000*%
%ADD32C,2.200000*%
%ADD33R,1.900000X1.900000*%
%ADD34R,1.800000X1.800000*%
%ADD35C,1.800000*%
%ADD36C,2.000000*%
%ADD37R,1.130000X1.380000*%
%ADD38R,3.730000X5.000000*%
%ADD39R,2.000000X2.000000*%
%ADD40R,0.860000X0.810000*%
%ADD41R,4.500000X1.650000*%
%ADD42R,2.286000X1.066800*%
%ADD43R,8.890000X10.668000*%
%ADD44R,3.500000X1.410000*%
%ADD45R,1.650000X4.500000*%
%ADD46R,1.730000X1.190000*%
%ADD47R,0.800000X0.532000*%
%ADD48R,0.800000X0.800000*%
%ADD49R,1.700000X2.500000*%
%ADD50R,1.200000X3.500000*%
%ADD51R,1.500000X2.500000*%
%ADD52R,2.350000X3.500000*%
%ADD53R,1.350000X1.410000*%
%ADD54C,1.600000*%
G04 APERTURE END LIST*
D10*
X4590476Y51742467D02*
X5200000Y51742467D01*
X5999999Y51437705D02*
X5542856Y51437705D01*
X5771428Y51437705D02*
X5771428Y52237705D01*
X5771428Y52237705D02*
X5695237Y52123420D01*
X5695237Y52123420D02*
X5619047Y52047229D01*
X5619047Y52047229D02*
X5542856Y52009134D01*
X6304761Y52161515D02*
X6342857Y52199610D01*
X6342857Y52199610D02*
X6419047Y52237705D01*
X6419047Y52237705D02*
X6609523Y52237705D01*
X6609523Y52237705D02*
X6685714Y52199610D01*
X6685714Y52199610D02*
X6723809Y52161515D01*
X6723809Y52161515D02*
X6761904Y52085324D01*
X6761904Y52085324D02*
X6761904Y52009134D01*
X6761904Y52009134D02*
X6723809Y51894848D01*
X6723809Y51894848D02*
X6266666Y51437705D01*
X6266666Y51437705D02*
X6761904Y51437705D01*
X6990476Y52237705D02*
X7257143Y51437705D01*
X7257143Y51437705D02*
X7523809Y52237705D01*
X5390476Y40199610D02*
X5314286Y40237705D01*
X5314286Y40237705D02*
X5200000Y40237705D01*
X5200000Y40237705D02*
X5085714Y40199610D01*
X5085714Y40199610D02*
X5009524Y40123420D01*
X5009524Y40123420D02*
X4971429Y40047229D01*
X4971429Y40047229D02*
X4933333Y39894848D01*
X4933333Y39894848D02*
X4933333Y39780562D01*
X4933333Y39780562D02*
X4971429Y39628181D01*
X4971429Y39628181D02*
X5009524Y39551991D01*
X5009524Y39551991D02*
X5085714Y39475800D01*
X5085714Y39475800D02*
X5200000Y39437705D01*
X5200000Y39437705D02*
X5276191Y39437705D01*
X5276191Y39437705D02*
X5390476Y39475800D01*
X5390476Y39475800D02*
X5428572Y39513896D01*
X5428572Y39513896D02*
X5428572Y39780562D01*
X5428572Y39780562D02*
X5276191Y39780562D01*
X5771429Y39437705D02*
X5771429Y40237705D01*
X5771429Y40237705D02*
X6228572Y39437705D01*
X6228572Y39437705D02*
X6228572Y40237705D01*
X6609524Y39437705D02*
X6609524Y40237705D01*
X6609524Y40237705D02*
X6800000Y40237705D01*
X6800000Y40237705D02*
X6914286Y40199610D01*
X6914286Y40199610D02*
X6990476Y40123420D01*
X6990476Y40123420D02*
X7028571Y40047229D01*
X7028571Y40047229D02*
X7066667Y39894848D01*
X7066667Y39894848D02*
X7066667Y39780562D01*
X7066667Y39780562D02*
X7028571Y39628181D01*
X7028571Y39628181D02*
X6990476Y39551991D01*
X6990476Y39551991D02*
X6914286Y39475800D01*
X6914286Y39475800D02*
X6800000Y39437705D01*
X6800000Y39437705D02*
X6609524Y39437705D01*
X4590476Y27742467D02*
X5200000Y27742467D01*
X4895238Y27437705D02*
X4895238Y28047229D01*
X5999999Y27437705D02*
X5542856Y27437705D01*
X5771428Y27437705D02*
X5771428Y28237705D01*
X5771428Y28237705D02*
X5695237Y28123420D01*
X5695237Y28123420D02*
X5619047Y28047229D01*
X5619047Y28047229D02*
X5542856Y28009134D01*
X6304761Y28161515D02*
X6342857Y28199610D01*
X6342857Y28199610D02*
X6419047Y28237705D01*
X6419047Y28237705D02*
X6609523Y28237705D01*
X6609523Y28237705D02*
X6685714Y28199610D01*
X6685714Y28199610D02*
X6723809Y28161515D01*
X6723809Y28161515D02*
X6761904Y28085324D01*
X6761904Y28085324D02*
X6761904Y28009134D01*
X6761904Y28009134D02*
X6723809Y27894848D01*
X6723809Y27894848D02*
X6266666Y27437705D01*
X6266666Y27437705D02*
X6761904Y27437705D01*
X6990476Y28237705D02*
X7257143Y27437705D01*
X7257143Y27437705D02*
X7523809Y28237705D01*
X4971429Y15742467D02*
X5580953Y15742467D01*
X5276191Y15437705D02*
X5276191Y16047229D01*
X6342857Y16237705D02*
X5961905Y16237705D01*
X5961905Y16237705D02*
X5923809Y15856753D01*
X5923809Y15856753D02*
X5961905Y15894848D01*
X5961905Y15894848D02*
X6038095Y15932943D01*
X6038095Y15932943D02*
X6228571Y15932943D01*
X6228571Y15932943D02*
X6304762Y15894848D01*
X6304762Y15894848D02*
X6342857Y15856753D01*
X6342857Y15856753D02*
X6380952Y15780562D01*
X6380952Y15780562D02*
X6380952Y15590086D01*
X6380952Y15590086D02*
X6342857Y15513896D01*
X6342857Y15513896D02*
X6304762Y15475800D01*
X6304762Y15475800D02*
X6228571Y15437705D01*
X6228571Y15437705D02*
X6038095Y15437705D01*
X6038095Y15437705D02*
X5961905Y15475800D01*
X5961905Y15475800D02*
X5923809Y15513896D01*
X6609524Y16237705D02*
X6876191Y15437705D01*
X6876191Y15437705D02*
X7142857Y16237705D01*
X47032857Y16442467D02*
X47642381Y16442467D01*
X48442380Y16137705D02*
X47985237Y16137705D01*
X48213809Y16137705D02*
X48213809Y16937705D01*
X48213809Y16937705D02*
X48137618Y16823420D01*
X48137618Y16823420D02*
X48061428Y16747229D01*
X48061428Y16747229D02*
X47985237Y16709134D01*
X48747142Y16861515D02*
X48785238Y16899610D01*
X48785238Y16899610D02*
X48861428Y16937705D01*
X48861428Y16937705D02*
X49051904Y16937705D01*
X49051904Y16937705D02*
X49128095Y16899610D01*
X49128095Y16899610D02*
X49166190Y16861515D01*
X49166190Y16861515D02*
X49204285Y16785324D01*
X49204285Y16785324D02*
X49204285Y16709134D01*
X49204285Y16709134D02*
X49166190Y16594848D01*
X49166190Y16594848D02*
X48709047Y16137705D01*
X48709047Y16137705D02*
X49204285Y16137705D01*
X50728095Y16975800D02*
X50042381Y15947229D01*
X52061429Y16137705D02*
X51794762Y16518658D01*
X51604286Y16137705D02*
X51604286Y16937705D01*
X51604286Y16937705D02*
X51909048Y16937705D01*
X51909048Y16937705D02*
X51985238Y16899610D01*
X51985238Y16899610D02*
X52023333Y16861515D01*
X52023333Y16861515D02*
X52061429Y16785324D01*
X52061429Y16785324D02*
X52061429Y16671039D01*
X52061429Y16671039D02*
X52023333Y16594848D01*
X52023333Y16594848D02*
X51985238Y16556753D01*
X51985238Y16556753D02*
X51909048Y16518658D01*
X51909048Y16518658D02*
X51604286Y16518658D01*
X52404286Y16556753D02*
X52670952Y16556753D01*
X52785238Y16137705D02*
X52404286Y16137705D01*
X52404286Y16137705D02*
X52404286Y16937705D01*
X52404286Y16937705D02*
X52785238Y16937705D01*
X53128096Y16137705D02*
X53128096Y16937705D01*
X53128096Y16937705D02*
X53318572Y16937705D01*
X53318572Y16937705D02*
X53432858Y16899610D01*
X53432858Y16899610D02*
X53509048Y16823420D01*
X53509048Y16823420D02*
X53547143Y16747229D01*
X53547143Y16747229D02*
X53585239Y16594848D01*
X53585239Y16594848D02*
X53585239Y16480562D01*
X53585239Y16480562D02*
X53547143Y16328181D01*
X53547143Y16328181D02*
X53509048Y16251991D01*
X53509048Y16251991D02*
X53432858Y16175800D01*
X53432858Y16175800D02*
X53318572Y16137705D01*
X53318572Y16137705D02*
X53128096Y16137705D01*
X64733333Y8442467D02*
X65342857Y8442467D01*
X65038095Y8137705D02*
X65038095Y8747229D01*
X66142856Y8137705D02*
X65685713Y8137705D01*
X65914285Y8137705D02*
X65914285Y8937705D01*
X65914285Y8937705D02*
X65838094Y8823420D01*
X65838094Y8823420D02*
X65761904Y8747229D01*
X65761904Y8747229D02*
X65685713Y8709134D01*
X66447618Y8861515D02*
X66485714Y8899610D01*
X66485714Y8899610D02*
X66561904Y8937705D01*
X66561904Y8937705D02*
X66752380Y8937705D01*
X66752380Y8937705D02*
X66828571Y8899610D01*
X66828571Y8899610D02*
X66866666Y8861515D01*
X66866666Y8861515D02*
X66904761Y8785324D01*
X66904761Y8785324D02*
X66904761Y8709134D01*
X66904761Y8709134D02*
X66866666Y8594848D01*
X66866666Y8594848D02*
X66409523Y8137705D01*
X66409523Y8137705D02*
X66904761Y8137705D01*
X65114286Y5042467D02*
X65723810Y5042467D01*
X65419048Y4737705D02*
X65419048Y5347229D01*
X66485714Y5537705D02*
X66104762Y5537705D01*
X66104762Y5537705D02*
X66066666Y5156753D01*
X66066666Y5156753D02*
X66104762Y5194848D01*
X66104762Y5194848D02*
X66180952Y5232943D01*
X66180952Y5232943D02*
X66371428Y5232943D01*
X66371428Y5232943D02*
X66447619Y5194848D01*
X66447619Y5194848D02*
X66485714Y5156753D01*
X66485714Y5156753D02*
X66523809Y5080562D01*
X66523809Y5080562D02*
X66523809Y4890086D01*
X66523809Y4890086D02*
X66485714Y4813896D01*
X66485714Y4813896D02*
X66447619Y4775800D01*
X66447619Y4775800D02*
X66371428Y4737705D01*
X66371428Y4737705D02*
X66180952Y4737705D01*
X66180952Y4737705D02*
X66104762Y4775800D01*
X66104762Y4775800D02*
X66066666Y4813896D01*
X64733333Y1642467D02*
X65342857Y1642467D01*
X66142856Y1337705D02*
X65685713Y1337705D01*
X65914285Y1337705D02*
X65914285Y2137705D01*
X65914285Y2137705D02*
X65838094Y2023420D01*
X65838094Y2023420D02*
X65761904Y1947229D01*
X65761904Y1947229D02*
X65685713Y1909134D01*
X66447618Y2061515D02*
X66485714Y2099610D01*
X66485714Y2099610D02*
X66561904Y2137705D01*
X66561904Y2137705D02*
X66752380Y2137705D01*
X66752380Y2137705D02*
X66828571Y2099610D01*
X66828571Y2099610D02*
X66866666Y2061515D01*
X66866666Y2061515D02*
X66904761Y1985324D01*
X66904761Y1985324D02*
X66904761Y1909134D01*
X66904761Y1909134D02*
X66866666Y1794848D01*
X66866666Y1794848D02*
X66409523Y1337705D01*
X66409523Y1337705D02*
X66904761Y1337705D01*
X87132857Y16442467D02*
X87742381Y16442467D01*
X88542380Y16137705D02*
X88085237Y16137705D01*
X88313809Y16137705D02*
X88313809Y16937705D01*
X88313809Y16937705D02*
X88237618Y16823420D01*
X88237618Y16823420D02*
X88161428Y16747229D01*
X88161428Y16747229D02*
X88085237Y16709134D01*
X88847142Y16861515D02*
X88885238Y16899610D01*
X88885238Y16899610D02*
X88961428Y16937705D01*
X88961428Y16937705D02*
X89151904Y16937705D01*
X89151904Y16937705D02*
X89228095Y16899610D01*
X89228095Y16899610D02*
X89266190Y16861515D01*
X89266190Y16861515D02*
X89304285Y16785324D01*
X89304285Y16785324D02*
X89304285Y16709134D01*
X89304285Y16709134D02*
X89266190Y16594848D01*
X89266190Y16594848D02*
X88809047Y16137705D01*
X88809047Y16137705D02*
X89304285Y16137705D01*
X90828095Y16975800D02*
X90142381Y15947229D01*
X92161429Y16137705D02*
X91894762Y16518658D01*
X91704286Y16137705D02*
X91704286Y16937705D01*
X91704286Y16937705D02*
X92009048Y16937705D01*
X92009048Y16937705D02*
X92085238Y16899610D01*
X92085238Y16899610D02*
X92123333Y16861515D01*
X92123333Y16861515D02*
X92161429Y16785324D01*
X92161429Y16785324D02*
X92161429Y16671039D01*
X92161429Y16671039D02*
X92123333Y16594848D01*
X92123333Y16594848D02*
X92085238Y16556753D01*
X92085238Y16556753D02*
X92009048Y16518658D01*
X92009048Y16518658D02*
X91704286Y16518658D01*
X92504286Y16556753D02*
X92770952Y16556753D01*
X92885238Y16137705D02*
X92504286Y16137705D01*
X92504286Y16137705D02*
X92504286Y16937705D01*
X92504286Y16937705D02*
X92885238Y16937705D01*
X93228096Y16137705D02*
X93228096Y16937705D01*
X93228096Y16937705D02*
X93418572Y16937705D01*
X93418572Y16937705D02*
X93532858Y16899610D01*
X93532858Y16899610D02*
X93609048Y16823420D01*
X93609048Y16823420D02*
X93647143Y16747229D01*
X93647143Y16747229D02*
X93685239Y16594848D01*
X93685239Y16594848D02*
X93685239Y16480562D01*
X93685239Y16480562D02*
X93647143Y16328181D01*
X93647143Y16328181D02*
X93609048Y16251991D01*
X93609048Y16251991D02*
X93532858Y16175800D01*
X93532858Y16175800D02*
X93418572Y16137705D01*
X93418572Y16137705D02*
X93228096Y16137705D01*
X55642855Y92211848D02*
X56166664Y92211848D01*
X56166664Y92211848D02*
X55642855Y91545181D01*
X55642855Y91545181D02*
X56166664Y91545181D01*
X56976188Y92211848D02*
X56976188Y91545181D01*
X56547617Y92211848D02*
X56547617Y91688039D01*
X56547617Y91688039D02*
X56595236Y91592800D01*
X56595236Y91592800D02*
X56690474Y91545181D01*
X56690474Y91545181D02*
X56833331Y91545181D01*
X56833331Y91545181D02*
X56928569Y91592800D01*
X56928569Y91592800D02*
X56976188Y91640420D01*
X57880950Y91545181D02*
X57880950Y92545181D01*
X57880950Y91592800D02*
X57785712Y91545181D01*
X57785712Y91545181D02*
X57595236Y91545181D01*
X57595236Y91545181D02*
X57499998Y91592800D01*
X57499998Y91592800D02*
X57452379Y91640420D01*
X57452379Y91640420D02*
X57404760Y91735658D01*
X57404760Y91735658D02*
X57404760Y92021372D01*
X57404760Y92021372D02*
X57452379Y92116610D01*
X57452379Y92116610D02*
X57499998Y92164229D01*
X57499998Y92164229D02*
X57595236Y92211848D01*
X57595236Y92211848D02*
X57785712Y92211848D01*
X57785712Y92211848D02*
X57880950Y92164229D01*
X58499998Y91545181D02*
X58404760Y91592800D01*
X58404760Y91592800D02*
X58357141Y91640420D01*
X58357141Y91640420D02*
X58309522Y91735658D01*
X58309522Y91735658D02*
X58309522Y92021372D01*
X58309522Y92021372D02*
X58357141Y92116610D01*
X58357141Y92116610D02*
X58404760Y92164229D01*
X58404760Y92164229D02*
X58499998Y92211848D01*
X58499998Y92211848D02*
X58642855Y92211848D01*
X58642855Y92211848D02*
X58738093Y92164229D01*
X58738093Y92164229D02*
X58785712Y92116610D01*
X58785712Y92116610D02*
X58833331Y92021372D01*
X58833331Y92021372D02*
X58833331Y91735658D01*
X58833331Y91735658D02*
X58785712Y91640420D01*
X58785712Y91640420D02*
X58738093Y91592800D01*
X58738093Y91592800D02*
X58642855Y91545181D01*
X58642855Y91545181D02*
X58499998Y91545181D01*
X59261903Y91926134D02*
X60023808Y91926134D01*
X60499998Y92211848D02*
X60499998Y91211848D01*
X60499998Y92164229D02*
X60595236Y92211848D01*
X60595236Y92211848D02*
X60785712Y92211848D01*
X60785712Y92211848D02*
X60880950Y92164229D01*
X60880950Y92164229D02*
X60928569Y92116610D01*
X60928569Y92116610D02*
X60976188Y92021372D01*
X60976188Y92021372D02*
X60976188Y91735658D01*
X60976188Y91735658D02*
X60928569Y91640420D01*
X60928569Y91640420D02*
X60880950Y91592800D01*
X60880950Y91592800D02*
X60785712Y91545181D01*
X60785712Y91545181D02*
X60595236Y91545181D01*
X60595236Y91545181D02*
X60499998Y91592800D01*
X61833331Y91545181D02*
X61833331Y92545181D01*
X61833331Y91592800D02*
X61738093Y91545181D01*
X61738093Y91545181D02*
X61547617Y91545181D01*
X61547617Y91545181D02*
X61452379Y91592800D01*
X61452379Y91592800D02*
X61404760Y91640420D01*
X61404760Y91640420D02*
X61357141Y91735658D01*
X61357141Y91735658D02*
X61357141Y92021372D01*
X61357141Y92021372D02*
X61404760Y92116610D01*
X61404760Y92116610D02*
X61452379Y92164229D01*
X61452379Y92164229D02*
X61547617Y92211848D01*
X61547617Y92211848D02*
X61738093Y92211848D01*
X61738093Y92211848D02*
X61833331Y92164229D01*
X63404760Y92068991D02*
X63547617Y92021372D01*
X63547617Y92021372D02*
X63595236Y91973753D01*
X63595236Y91973753D02*
X63642855Y91878515D01*
X63642855Y91878515D02*
X63642855Y91735658D01*
X63642855Y91735658D02*
X63595236Y91640420D01*
X63595236Y91640420D02*
X63547617Y91592800D01*
X63547617Y91592800D02*
X63452379Y91545181D01*
X63452379Y91545181D02*
X63071427Y91545181D01*
X63071427Y91545181D02*
X63071427Y92545181D01*
X63071427Y92545181D02*
X63404760Y92545181D01*
X63404760Y92545181D02*
X63499998Y92497562D01*
X63499998Y92497562D02*
X63547617Y92449943D01*
X63547617Y92449943D02*
X63595236Y92354705D01*
X63595236Y92354705D02*
X63595236Y92259467D01*
X63595236Y92259467D02*
X63547617Y92164229D01*
X63547617Y92164229D02*
X63499998Y92116610D01*
X63499998Y92116610D02*
X63404760Y92068991D01*
X63404760Y92068991D02*
X63071427Y92068991D01*
X65547617Y92592800D02*
X64690475Y91307086D01*
X67071427Y91592800D02*
X66976189Y91545181D01*
X66976189Y91545181D02*
X66785713Y91545181D01*
X66785713Y91545181D02*
X66690475Y91592800D01*
X66690475Y91592800D02*
X66642856Y91640420D01*
X66642856Y91640420D02*
X66595237Y91735658D01*
X66595237Y91735658D02*
X66595237Y92021372D01*
X66595237Y92021372D02*
X66642856Y92116610D01*
X66642856Y92116610D02*
X66690475Y92164229D01*
X66690475Y92164229D02*
X66785713Y92211848D01*
X66785713Y92211848D02*
X66976189Y92211848D01*
X66976189Y92211848D02*
X67071427Y92164229D01*
X67642856Y91545181D02*
X67547618Y91592800D01*
X67547618Y91592800D02*
X67499999Y91640420D01*
X67499999Y91640420D02*
X67452380Y91735658D01*
X67452380Y91735658D02*
X67452380Y92021372D01*
X67452380Y92021372D02*
X67499999Y92116610D01*
X67499999Y92116610D02*
X67547618Y92164229D01*
X67547618Y92164229D02*
X67642856Y92211848D01*
X67642856Y92211848D02*
X67785713Y92211848D01*
X67785713Y92211848D02*
X67880951Y92164229D01*
X67880951Y92164229D02*
X67928570Y92116610D01*
X67928570Y92116610D02*
X67976189Y92021372D01*
X67976189Y92021372D02*
X67976189Y91735658D01*
X67976189Y91735658D02*
X67928570Y91640420D01*
X67928570Y91640420D02*
X67880951Y91592800D01*
X67880951Y91592800D02*
X67785713Y91545181D01*
X67785713Y91545181D02*
X67642856Y91545181D01*
X68404761Y91545181D02*
X68404761Y92211848D01*
X68404761Y92116610D02*
X68452380Y92164229D01*
X68452380Y92164229D02*
X68547618Y92211848D01*
X68547618Y92211848D02*
X68690475Y92211848D01*
X68690475Y92211848D02*
X68785713Y92164229D01*
X68785713Y92164229D02*
X68833332Y92068991D01*
X68833332Y92068991D02*
X68833332Y91545181D01*
X68833332Y92068991D02*
X68880951Y92164229D01*
X68880951Y92164229D02*
X68976189Y92211848D01*
X68976189Y92211848D02*
X69119046Y92211848D01*
X69119046Y92211848D02*
X69214285Y92164229D01*
X69214285Y92164229D02*
X69261904Y92068991D01*
X69261904Y92068991D02*
X69261904Y91545181D01*
X69738094Y92211848D02*
X69738094Y91211848D01*
X69738094Y92164229D02*
X69833332Y92211848D01*
X69833332Y92211848D02*
X70023808Y92211848D01*
X70023808Y92211848D02*
X70119046Y92164229D01*
X70119046Y92164229D02*
X70166665Y92116610D01*
X70166665Y92116610D02*
X70214284Y92021372D01*
X70214284Y92021372D02*
X70214284Y91735658D01*
X70214284Y91735658D02*
X70166665Y91640420D01*
X70166665Y91640420D02*
X70119046Y91592800D01*
X70119046Y91592800D02*
X70023808Y91545181D01*
X70023808Y91545181D02*
X69833332Y91545181D01*
X69833332Y91545181D02*
X69738094Y91592800D01*
X71071427Y91545181D02*
X71071427Y92068991D01*
X71071427Y92068991D02*
X71023808Y92164229D01*
X71023808Y92164229D02*
X70928570Y92211848D01*
X70928570Y92211848D02*
X70738094Y92211848D01*
X70738094Y92211848D02*
X70642856Y92164229D01*
X71071427Y91592800D02*
X70976189Y91545181D01*
X70976189Y91545181D02*
X70738094Y91545181D01*
X70738094Y91545181D02*
X70642856Y91592800D01*
X70642856Y91592800D02*
X70595237Y91688039D01*
X70595237Y91688039D02*
X70595237Y91783277D01*
X70595237Y91783277D02*
X70642856Y91878515D01*
X70642856Y91878515D02*
X70738094Y91926134D01*
X70738094Y91926134D02*
X70976189Y91926134D01*
X70976189Y91926134D02*
X71071427Y91973753D01*
X71976189Y91592800D02*
X71880951Y91545181D01*
X71880951Y91545181D02*
X71690475Y91545181D01*
X71690475Y91545181D02*
X71595237Y91592800D01*
X71595237Y91592800D02*
X71547618Y91640420D01*
X71547618Y91640420D02*
X71499999Y91735658D01*
X71499999Y91735658D02*
X71499999Y92021372D01*
X71499999Y92021372D02*
X71547618Y92116610D01*
X71547618Y92116610D02*
X71595237Y92164229D01*
X71595237Y92164229D02*
X71690475Y92211848D01*
X71690475Y92211848D02*
X71880951Y92211848D01*
X71880951Y92211848D02*
X71976189Y92164229D01*
X72261904Y92211848D02*
X72642856Y92211848D01*
X72404761Y92545181D02*
X72404761Y91688039D01*
X72404761Y91688039D02*
X72452380Y91592800D01*
X72452380Y91592800D02*
X72547618Y91545181D01*
X72547618Y91545181D02*
X72642856Y91545181D01*
X73738095Y92211848D02*
X73738095Y91211848D01*
X73738095Y92164229D02*
X73833333Y92211848D01*
X73833333Y92211848D02*
X74023809Y92211848D01*
X74023809Y92211848D02*
X74119047Y92164229D01*
X74119047Y92164229D02*
X74166666Y92116610D01*
X74166666Y92116610D02*
X74214285Y92021372D01*
X74214285Y92021372D02*
X74214285Y91735658D01*
X74214285Y91735658D02*
X74166666Y91640420D01*
X74166666Y91640420D02*
X74119047Y91592800D01*
X74119047Y91592800D02*
X74023809Y91545181D01*
X74023809Y91545181D02*
X73833333Y91545181D01*
X73833333Y91545181D02*
X73738095Y91592800D01*
X74642857Y91545181D02*
X74642857Y92211848D01*
X74642857Y92021372D02*
X74690476Y92116610D01*
X74690476Y92116610D02*
X74738095Y92164229D01*
X74738095Y92164229D02*
X74833333Y92211848D01*
X74833333Y92211848D02*
X74928571Y92211848D01*
X75404762Y91545181D02*
X75309524Y91592800D01*
X75309524Y91592800D02*
X75261905Y91640420D01*
X75261905Y91640420D02*
X75214286Y91735658D01*
X75214286Y91735658D02*
X75214286Y92021372D01*
X75214286Y92021372D02*
X75261905Y92116610D01*
X75261905Y92116610D02*
X75309524Y92164229D01*
X75309524Y92164229D02*
X75404762Y92211848D01*
X75404762Y92211848D02*
X75547619Y92211848D01*
X75547619Y92211848D02*
X75642857Y92164229D01*
X75642857Y92164229D02*
X75690476Y92116610D01*
X75690476Y92116610D02*
X75738095Y92021372D01*
X75738095Y92021372D02*
X75738095Y91735658D01*
X75738095Y91735658D02*
X75690476Y91640420D01*
X75690476Y91640420D02*
X75642857Y91592800D01*
X75642857Y91592800D02*
X75547619Y91545181D01*
X75547619Y91545181D02*
X75404762Y91545181D01*
X76023810Y92211848D02*
X76404762Y92211848D01*
X76166667Y92545181D02*
X76166667Y91688039D01*
X76166667Y91688039D02*
X76214286Y91592800D01*
X76214286Y91592800D02*
X76309524Y91545181D01*
X76309524Y91545181D02*
X76404762Y91545181D01*
X76880953Y91545181D02*
X76785715Y91592800D01*
X76785715Y91592800D02*
X76738096Y91640420D01*
X76738096Y91640420D02*
X76690477Y91735658D01*
X76690477Y91735658D02*
X76690477Y92021372D01*
X76690477Y92021372D02*
X76738096Y92116610D01*
X76738096Y92116610D02*
X76785715Y92164229D01*
X76785715Y92164229D02*
X76880953Y92211848D01*
X76880953Y92211848D02*
X77023810Y92211848D01*
X77023810Y92211848D02*
X77119048Y92164229D01*
X77119048Y92164229D02*
X77166667Y92116610D01*
X77166667Y92116610D02*
X77214286Y92021372D01*
X77214286Y92021372D02*
X77214286Y91735658D01*
X77214286Y91735658D02*
X77166667Y91640420D01*
X77166667Y91640420D02*
X77119048Y91592800D01*
X77119048Y91592800D02*
X77023810Y91545181D01*
X77023810Y91545181D02*
X76880953Y91545181D01*
X77500001Y92211848D02*
X77880953Y92211848D01*
X77642858Y92545181D02*
X77642858Y91688039D01*
X77642858Y91688039D02*
X77690477Y91592800D01*
X77690477Y91592800D02*
X77785715Y91545181D01*
X77785715Y91545181D02*
X77880953Y91545181D01*
X78119049Y92211848D02*
X78357144Y91545181D01*
X78595239Y92211848D02*
X78357144Y91545181D01*
X78357144Y91545181D02*
X78261906Y91307086D01*
X78261906Y91307086D02*
X78214287Y91259467D01*
X78214287Y91259467D02*
X78119049Y91211848D01*
X78976192Y92211848D02*
X78976192Y91211848D01*
X78976192Y92164229D02*
X79071430Y92211848D01*
X79071430Y92211848D02*
X79261906Y92211848D01*
X79261906Y92211848D02*
X79357144Y92164229D01*
X79357144Y92164229D02*
X79404763Y92116610D01*
X79404763Y92116610D02*
X79452382Y92021372D01*
X79452382Y92021372D02*
X79452382Y91735658D01*
X79452382Y91735658D02*
X79404763Y91640420D01*
X79404763Y91640420D02*
X79357144Y91592800D01*
X79357144Y91592800D02*
X79261906Y91545181D01*
X79261906Y91545181D02*
X79071430Y91545181D01*
X79071430Y91545181D02*
X78976192Y91592800D01*
X80261906Y91592800D02*
X80166668Y91545181D01*
X80166668Y91545181D02*
X79976192Y91545181D01*
X79976192Y91545181D02*
X79880954Y91592800D01*
X79880954Y91592800D02*
X79833335Y91688039D01*
X79833335Y91688039D02*
X79833335Y92068991D01*
X79833335Y92068991D02*
X79880954Y92164229D01*
X79880954Y92164229D02*
X79976192Y92211848D01*
X79976192Y92211848D02*
X80166668Y92211848D01*
X80166668Y92211848D02*
X80261906Y92164229D01*
X80261906Y92164229D02*
X80309525Y92068991D01*
X80309525Y92068991D02*
X80309525Y91973753D01*
X80309525Y91973753D02*
X79833335Y91878515D01*
X15508557Y31314286D02*
X16237128Y31314286D01*
X16237128Y31314286D02*
X16322842Y31357143D01*
X16322842Y31357143D02*
X16365700Y31400000D01*
X16365700Y31400000D02*
X16408557Y31485715D01*
X16408557Y31485715D02*
X16408557Y31657143D01*
X16408557Y31657143D02*
X16365700Y31742858D01*
X16365700Y31742858D02*
X16322842Y31785715D01*
X16322842Y31785715D02*
X16237128Y31828572D01*
X16237128Y31828572D02*
X15508557Y31828572D01*
X15808557Y32642857D02*
X16408557Y32642857D01*
X15465700Y32428572D02*
X16108557Y32214286D01*
X16108557Y32214286D02*
X16108557Y32771429D01*
X85421428Y34952158D02*
X85378571Y34909300D01*
X85378571Y34909300D02*
X85249999Y34866443D01*
X85249999Y34866443D02*
X85164285Y34866443D01*
X85164285Y34866443D02*
X85035714Y34909300D01*
X85035714Y34909300D02*
X84949999Y34995015D01*
X84949999Y34995015D02*
X84907142Y35080729D01*
X84907142Y35080729D02*
X84864285Y35252158D01*
X84864285Y35252158D02*
X84864285Y35380729D01*
X84864285Y35380729D02*
X84907142Y35552158D01*
X84907142Y35552158D02*
X84949999Y35637872D01*
X84949999Y35637872D02*
X85035714Y35723586D01*
X85035714Y35723586D02*
X85164285Y35766443D01*
X85164285Y35766443D02*
X85249999Y35766443D01*
X85249999Y35766443D02*
X85378571Y35723586D01*
X85378571Y35723586D02*
X85421428Y35680729D01*
X86278571Y34866443D02*
X85764285Y34866443D01*
X86021428Y34866443D02*
X86021428Y35766443D01*
X86021428Y35766443D02*
X85935714Y35637872D01*
X85935714Y35637872D02*
X85849999Y35552158D01*
X85849999Y35552158D02*
X85764285Y35509300D01*
X86707142Y34866443D02*
X86878571Y34866443D01*
X86878571Y34866443D02*
X86964285Y34909300D01*
X86964285Y34909300D02*
X87007142Y34952158D01*
X87007142Y34952158D02*
X87092857Y35080729D01*
X87092857Y35080729D02*
X87135714Y35252158D01*
X87135714Y35252158D02*
X87135714Y35595015D01*
X87135714Y35595015D02*
X87092857Y35680729D01*
X87092857Y35680729D02*
X87050000Y35723586D01*
X87050000Y35723586D02*
X86964285Y35766443D01*
X86964285Y35766443D02*
X86792857Y35766443D01*
X86792857Y35766443D02*
X86707142Y35723586D01*
X86707142Y35723586D02*
X86664285Y35680729D01*
X86664285Y35680729D02*
X86621428Y35595015D01*
X86621428Y35595015D02*
X86621428Y35380729D01*
X86621428Y35380729D02*
X86664285Y35295015D01*
X86664285Y35295015D02*
X86707142Y35252158D01*
X86707142Y35252158D02*
X86792857Y35209300D01*
X86792857Y35209300D02*
X86964285Y35209300D01*
X86964285Y35209300D02*
X87050000Y35252158D01*
X87050000Y35252158D02*
X87092857Y35295015D01*
X87092857Y35295015D02*
X87135714Y35380729D01*
X20921428Y68632158D02*
X20878571Y68589300D01*
X20878571Y68589300D02*
X20749999Y68546443D01*
X20749999Y68546443D02*
X20664285Y68546443D01*
X20664285Y68546443D02*
X20535714Y68589300D01*
X20535714Y68589300D02*
X20449999Y68675015D01*
X20449999Y68675015D02*
X20407142Y68760729D01*
X20407142Y68760729D02*
X20364285Y68932158D01*
X20364285Y68932158D02*
X20364285Y69060729D01*
X20364285Y69060729D02*
X20407142Y69232158D01*
X20407142Y69232158D02*
X20449999Y69317872D01*
X20449999Y69317872D02*
X20535714Y69403586D01*
X20535714Y69403586D02*
X20664285Y69446443D01*
X20664285Y69446443D02*
X20749999Y69446443D01*
X20749999Y69446443D02*
X20878571Y69403586D01*
X20878571Y69403586D02*
X20921428Y69360729D01*
X21692857Y69146443D02*
X21692857Y68546443D01*
X21478571Y69489300D02*
X21264285Y68846443D01*
X21264285Y68846443D02*
X21821428Y68846443D01*
X22550000Y69446443D02*
X22378571Y69446443D01*
X22378571Y69446443D02*
X22292857Y69403586D01*
X22292857Y69403586D02*
X22250000Y69360729D01*
X22250000Y69360729D02*
X22164285Y69232158D01*
X22164285Y69232158D02*
X22121428Y69060729D01*
X22121428Y69060729D02*
X22121428Y68717872D01*
X22121428Y68717872D02*
X22164285Y68632158D01*
X22164285Y68632158D02*
X22207142Y68589300D01*
X22207142Y68589300D02*
X22292857Y68546443D01*
X22292857Y68546443D02*
X22464285Y68546443D01*
X22464285Y68546443D02*
X22550000Y68589300D01*
X22550000Y68589300D02*
X22592857Y68632158D01*
X22592857Y68632158D02*
X22635714Y68717872D01*
X22635714Y68717872D02*
X22635714Y68932158D01*
X22635714Y68932158D02*
X22592857Y69017872D01*
X22592857Y69017872D02*
X22550000Y69060729D01*
X22550000Y69060729D02*
X22464285Y69103586D01*
X22464285Y69103586D02*
X22292857Y69103586D01*
X22292857Y69103586D02*
X22207142Y69060729D01*
X22207142Y69060729D02*
X22164285Y69017872D01*
X22164285Y69017872D02*
X22121428Y68932158D01*
X61864286Y88616443D02*
X62378572Y88616443D01*
X62121429Y87716443D02*
X62121429Y88616443D01*
X62678571Y87716443D02*
X62678571Y88616443D01*
X62678571Y88616443D02*
X63021428Y88616443D01*
X63021428Y88616443D02*
X63107143Y88573586D01*
X63107143Y88573586D02*
X63150000Y88530729D01*
X63150000Y88530729D02*
X63192857Y88445015D01*
X63192857Y88445015D02*
X63192857Y88316443D01*
X63192857Y88316443D02*
X63150000Y88230729D01*
X63150000Y88230729D02*
X63107143Y88187872D01*
X63107143Y88187872D02*
X63021428Y88145015D01*
X63021428Y88145015D02*
X62678571Y88145015D01*
X63492857Y88616443D02*
X64050000Y88616443D01*
X64050000Y88616443D02*
X63750000Y88273586D01*
X63750000Y88273586D02*
X63878571Y88273586D01*
X63878571Y88273586D02*
X63964286Y88230729D01*
X63964286Y88230729D02*
X64007143Y88187872D01*
X64007143Y88187872D02*
X64050000Y88102158D01*
X64050000Y88102158D02*
X64050000Y87887872D01*
X64050000Y87887872D02*
X64007143Y87802158D01*
X64007143Y87802158D02*
X63964286Y87759300D01*
X63964286Y87759300D02*
X63878571Y87716443D01*
X63878571Y87716443D02*
X63621428Y87716443D01*
X63621428Y87716443D02*
X63535714Y87759300D01*
X63535714Y87759300D02*
X63492857Y87802158D01*
X87908557Y87421429D02*
X87479985Y87121429D01*
X87908557Y86907143D02*
X87008557Y86907143D01*
X87008557Y86907143D02*
X87008557Y87250000D01*
X87008557Y87250000D02*
X87051414Y87335715D01*
X87051414Y87335715D02*
X87094271Y87378572D01*
X87094271Y87378572D02*
X87179985Y87421429D01*
X87179985Y87421429D02*
X87308557Y87421429D01*
X87308557Y87421429D02*
X87394271Y87378572D01*
X87394271Y87378572D02*
X87437128Y87335715D01*
X87437128Y87335715D02*
X87479985Y87250000D01*
X87479985Y87250000D02*
X87479985Y86907143D01*
X87094271Y87764286D02*
X87051414Y87807143D01*
X87051414Y87807143D02*
X87008557Y87892857D01*
X87008557Y87892857D02*
X87008557Y88107143D01*
X87008557Y88107143D02*
X87051414Y88192857D01*
X87051414Y88192857D02*
X87094271Y88235715D01*
X87094271Y88235715D02*
X87179985Y88278572D01*
X87179985Y88278572D02*
X87265700Y88278572D01*
X87265700Y88278572D02*
X87394271Y88235715D01*
X87394271Y88235715D02*
X87908557Y87721429D01*
X87908557Y87721429D02*
X87908557Y88278572D01*
X87908557Y89135715D02*
X87908557Y88621429D01*
X87908557Y88878572D02*
X87008557Y88878572D01*
X87008557Y88878572D02*
X87137128Y88792858D01*
X87137128Y88792858D02*
X87222842Y88707143D01*
X87222842Y88707143D02*
X87265700Y88621429D01*
X100542857Y87636443D02*
X100542857Y88536443D01*
X100542857Y88536443D02*
X100885714Y88536443D01*
X100885714Y88536443D02*
X100971429Y88493586D01*
X100971429Y88493586D02*
X101014286Y88450729D01*
X101014286Y88450729D02*
X101057143Y88365015D01*
X101057143Y88365015D02*
X101057143Y88236443D01*
X101057143Y88236443D02*
X101014286Y88150729D01*
X101014286Y88150729D02*
X100971429Y88107872D01*
X100971429Y88107872D02*
X100885714Y88065015D01*
X100885714Y88065015D02*
X100542857Y88065015D01*
X101314286Y88536443D02*
X101828572Y88536443D01*
X101571429Y87636443D02*
X101571429Y88536443D01*
X102642857Y87722158D02*
X102600000Y87679300D01*
X102600000Y87679300D02*
X102471428Y87636443D01*
X102471428Y87636443D02*
X102385714Y87636443D01*
X102385714Y87636443D02*
X102257143Y87679300D01*
X102257143Y87679300D02*
X102171428Y87765015D01*
X102171428Y87765015D02*
X102128571Y87850729D01*
X102128571Y87850729D02*
X102085714Y88022158D01*
X102085714Y88022158D02*
X102085714Y88150729D01*
X102085714Y88150729D02*
X102128571Y88322158D01*
X102128571Y88322158D02*
X102171428Y88407872D01*
X102171428Y88407872D02*
X102257143Y88493586D01*
X102257143Y88493586D02*
X102385714Y88536443D01*
X102385714Y88536443D02*
X102471428Y88536443D01*
X102471428Y88536443D02*
X102600000Y88493586D01*
X102600000Y88493586D02*
X102642857Y88450729D01*
X103500000Y87636443D02*
X102985714Y87636443D01*
X103242857Y87636443D02*
X103242857Y88536443D01*
X103242857Y88536443D02*
X103157143Y88407872D01*
X103157143Y88407872D02*
X103071428Y88322158D01*
X103071428Y88322158D02*
X102985714Y88279300D01*
X61421428Y35282159D02*
X61378571Y35239301D01*
X61378571Y35239301D02*
X61249999Y35196444D01*
X61249999Y35196444D02*
X61164285Y35196444D01*
X61164285Y35196444D02*
X61035714Y35239301D01*
X61035714Y35239301D02*
X60949999Y35325016D01*
X60949999Y35325016D02*
X60907142Y35410730D01*
X60907142Y35410730D02*
X60864285Y35582159D01*
X60864285Y35582159D02*
X60864285Y35710730D01*
X60864285Y35710730D02*
X60907142Y35882159D01*
X60907142Y35882159D02*
X60949999Y35967873D01*
X60949999Y35967873D02*
X61035714Y36053587D01*
X61035714Y36053587D02*
X61164285Y36096444D01*
X61164285Y36096444D02*
X61249999Y36096444D01*
X61249999Y36096444D02*
X61378571Y36053587D01*
X61378571Y36053587D02*
X61421428Y36010730D01*
X62278571Y35196444D02*
X61764285Y35196444D01*
X62021428Y35196444D02*
X62021428Y36096444D01*
X62021428Y36096444D02*
X61935714Y35967873D01*
X61935714Y35967873D02*
X61849999Y35882159D01*
X61849999Y35882159D02*
X61764285Y35839301D01*
X63135714Y35196444D02*
X62621428Y35196444D01*
X62878571Y35196444D02*
X62878571Y36096444D01*
X62878571Y36096444D02*
X62792857Y35967873D01*
X62792857Y35967873D02*
X62707142Y35882159D01*
X62707142Y35882159D02*
X62621428Y35839301D01*
X88421428Y55432158D02*
X88378571Y55389300D01*
X88378571Y55389300D02*
X88249999Y55346443D01*
X88249999Y55346443D02*
X88164285Y55346443D01*
X88164285Y55346443D02*
X88035714Y55389300D01*
X88035714Y55389300D02*
X87949999Y55475015D01*
X87949999Y55475015D02*
X87907142Y55560729D01*
X87907142Y55560729D02*
X87864285Y55732158D01*
X87864285Y55732158D02*
X87864285Y55860729D01*
X87864285Y55860729D02*
X87907142Y56032158D01*
X87907142Y56032158D02*
X87949999Y56117872D01*
X87949999Y56117872D02*
X88035714Y56203586D01*
X88035714Y56203586D02*
X88164285Y56246443D01*
X88164285Y56246443D02*
X88249999Y56246443D01*
X88249999Y56246443D02*
X88378571Y56203586D01*
X88378571Y56203586D02*
X88421428Y56160729D01*
X89192857Y55946443D02*
X89192857Y55346443D01*
X88978571Y56289300D02*
X88764285Y55646443D01*
X88764285Y55646443D02*
X89321428Y55646443D01*
X90135714Y55346443D02*
X89621428Y55346443D01*
X89878571Y55346443D02*
X89878571Y56246443D01*
X89878571Y56246443D02*
X89792857Y56117872D01*
X89792857Y56117872D02*
X89707142Y56032158D01*
X89707142Y56032158D02*
X89621428Y55989300D01*
X56421428Y39942158D02*
X56378571Y39899300D01*
X56378571Y39899300D02*
X56249999Y39856443D01*
X56249999Y39856443D02*
X56164285Y39856443D01*
X56164285Y39856443D02*
X56035714Y39899300D01*
X56035714Y39899300D02*
X55949999Y39985015D01*
X55949999Y39985015D02*
X55907142Y40070729D01*
X55907142Y40070729D02*
X55864285Y40242158D01*
X55864285Y40242158D02*
X55864285Y40370729D01*
X55864285Y40370729D02*
X55907142Y40542158D01*
X55907142Y40542158D02*
X55949999Y40627872D01*
X55949999Y40627872D02*
X56035714Y40713586D01*
X56035714Y40713586D02*
X56164285Y40756443D01*
X56164285Y40756443D02*
X56249999Y40756443D01*
X56249999Y40756443D02*
X56378571Y40713586D01*
X56378571Y40713586D02*
X56421428Y40670729D01*
X57278571Y39856443D02*
X56764285Y39856443D01*
X57021428Y39856443D02*
X57021428Y40756443D01*
X57021428Y40756443D02*
X56935714Y40627872D01*
X56935714Y40627872D02*
X56849999Y40542158D01*
X56849999Y40542158D02*
X56764285Y40499300D01*
X58050000Y40756443D02*
X57878571Y40756443D01*
X57878571Y40756443D02*
X57792857Y40713586D01*
X57792857Y40713586D02*
X57750000Y40670729D01*
X57750000Y40670729D02*
X57664285Y40542158D01*
X57664285Y40542158D02*
X57621428Y40370729D01*
X57621428Y40370729D02*
X57621428Y40027872D01*
X57621428Y40027872D02*
X57664285Y39942158D01*
X57664285Y39942158D02*
X57707142Y39899300D01*
X57707142Y39899300D02*
X57792857Y39856443D01*
X57792857Y39856443D02*
X57964285Y39856443D01*
X57964285Y39856443D02*
X58050000Y39899300D01*
X58050000Y39899300D02*
X58092857Y39942158D01*
X58092857Y39942158D02*
X58135714Y40027872D01*
X58135714Y40027872D02*
X58135714Y40242158D01*
X58135714Y40242158D02*
X58092857Y40327872D01*
X58092857Y40327872D02*
X58050000Y40370729D01*
X58050000Y40370729D02*
X57964285Y40413586D01*
X57964285Y40413586D02*
X57792857Y40413586D01*
X57792857Y40413586D02*
X57707142Y40370729D01*
X57707142Y40370729D02*
X57664285Y40327872D01*
X57664285Y40327872D02*
X57621428Y40242158D01*
X5700000Y14996443D02*
X5700000Y14353586D01*
X5700000Y14353586D02*
X5657143Y14225015D01*
X5657143Y14225015D02*
X5571429Y14139300D01*
X5571429Y14139300D02*
X5442857Y14096443D01*
X5442857Y14096443D02*
X5357143Y14096443D01*
X6257143Y14610729D02*
X6171428Y14653586D01*
X6171428Y14653586D02*
X6128571Y14696443D01*
X6128571Y14696443D02*
X6085714Y14782158D01*
X6085714Y14782158D02*
X6085714Y14825015D01*
X6085714Y14825015D02*
X6128571Y14910729D01*
X6128571Y14910729D02*
X6171428Y14953586D01*
X6171428Y14953586D02*
X6257143Y14996443D01*
X6257143Y14996443D02*
X6428571Y14996443D01*
X6428571Y14996443D02*
X6514286Y14953586D01*
X6514286Y14953586D02*
X6557143Y14910729D01*
X6557143Y14910729D02*
X6600000Y14825015D01*
X6600000Y14825015D02*
X6600000Y14782158D01*
X6600000Y14782158D02*
X6557143Y14696443D01*
X6557143Y14696443D02*
X6514286Y14653586D01*
X6514286Y14653586D02*
X6428571Y14610729D01*
X6428571Y14610729D02*
X6257143Y14610729D01*
X6257143Y14610729D02*
X6171428Y14567872D01*
X6171428Y14567872D02*
X6128571Y14525015D01*
X6128571Y14525015D02*
X6085714Y14439300D01*
X6085714Y14439300D02*
X6085714Y14267872D01*
X6085714Y14267872D02*
X6128571Y14182158D01*
X6128571Y14182158D02*
X6171428Y14139300D01*
X6171428Y14139300D02*
X6257143Y14096443D01*
X6257143Y14096443D02*
X6428571Y14096443D01*
X6428571Y14096443D02*
X6514286Y14139300D01*
X6514286Y14139300D02*
X6557143Y14182158D01*
X6557143Y14182158D02*
X6600000Y14267872D01*
X6600000Y14267872D02*
X6600000Y14439300D01*
X6600000Y14439300D02*
X6557143Y14525015D01*
X6557143Y14525015D02*
X6514286Y14567872D01*
X6514286Y14567872D02*
X6428571Y14610729D01*
X104500000Y81146443D02*
X105014286Y81146443D01*
X104757143Y80246443D02*
X104757143Y81146443D01*
X105185714Y81146443D02*
X105485714Y80246443D01*
X105485714Y80246443D02*
X105785714Y81146443D01*
X106042857Y80289300D02*
X106171429Y80246443D01*
X106171429Y80246443D02*
X106385714Y80246443D01*
X106385714Y80246443D02*
X106471429Y80289300D01*
X106471429Y80289300D02*
X106514286Y80332158D01*
X106514286Y80332158D02*
X106557143Y80417872D01*
X106557143Y80417872D02*
X106557143Y80503586D01*
X106557143Y80503586D02*
X106514286Y80589300D01*
X106514286Y80589300D02*
X106471429Y80632158D01*
X106471429Y80632158D02*
X106385714Y80675015D01*
X106385714Y80675015D02*
X106214286Y80717872D01*
X106214286Y80717872D02*
X106128571Y80760729D01*
X106128571Y80760729D02*
X106085714Y80803586D01*
X106085714Y80803586D02*
X106042857Y80889300D01*
X106042857Y80889300D02*
X106042857Y80975015D01*
X106042857Y80975015D02*
X106085714Y81060729D01*
X106085714Y81060729D02*
X106128571Y81103586D01*
X106128571Y81103586D02*
X106214286Y81146443D01*
X106214286Y81146443D02*
X106428571Y81146443D01*
X106428571Y81146443D02*
X106557143Y81103586D01*
X107414286Y80246443D02*
X106900000Y80246443D01*
X107157143Y80246443D02*
X107157143Y81146443D01*
X107157143Y81146443D02*
X107071429Y81017872D01*
X107071429Y81017872D02*
X106985714Y80932158D01*
X106985714Y80932158D02*
X106900000Y80889300D01*
X5700000Y38996443D02*
X5700000Y38353586D01*
X5700000Y38353586D02*
X5657143Y38225015D01*
X5657143Y38225015D02*
X5571429Y38139300D01*
X5571429Y38139300D02*
X5442857Y38096443D01*
X5442857Y38096443D02*
X5357143Y38096443D01*
X6171428Y38096443D02*
X6342857Y38096443D01*
X6342857Y38096443D02*
X6428571Y38139300D01*
X6428571Y38139300D02*
X6471428Y38182158D01*
X6471428Y38182158D02*
X6557143Y38310729D01*
X6557143Y38310729D02*
X6600000Y38482158D01*
X6600000Y38482158D02*
X6600000Y38825015D01*
X6600000Y38825015D02*
X6557143Y38910729D01*
X6557143Y38910729D02*
X6514286Y38953586D01*
X6514286Y38953586D02*
X6428571Y38996443D01*
X6428571Y38996443D02*
X6257143Y38996443D01*
X6257143Y38996443D02*
X6171428Y38953586D01*
X6171428Y38953586D02*
X6128571Y38910729D01*
X6128571Y38910729D02*
X6085714Y38825015D01*
X6085714Y38825015D02*
X6085714Y38610729D01*
X6085714Y38610729D02*
X6128571Y38525015D01*
X6128571Y38525015D02*
X6171428Y38482158D01*
X6171428Y38482158D02*
X6257143Y38439300D01*
X6257143Y38439300D02*
X6428571Y38439300D01*
X6428571Y38439300D02*
X6514286Y38482158D01*
X6514286Y38482158D02*
X6557143Y38525015D01*
X6557143Y38525015D02*
X6600000Y38610729D01*
X95421428Y59626443D02*
X95121428Y60055015D01*
X94907142Y59626443D02*
X94907142Y60526443D01*
X94907142Y60526443D02*
X95249999Y60526443D01*
X95249999Y60526443D02*
X95335714Y60483586D01*
X95335714Y60483586D02*
X95378571Y60440729D01*
X95378571Y60440729D02*
X95421428Y60355015D01*
X95421428Y60355015D02*
X95421428Y60226443D01*
X95421428Y60226443D02*
X95378571Y60140729D01*
X95378571Y60140729D02*
X95335714Y60097872D01*
X95335714Y60097872D02*
X95249999Y60055015D01*
X95249999Y60055015D02*
X94907142Y60055015D01*
X95764285Y60440729D02*
X95807142Y60483586D01*
X95807142Y60483586D02*
X95892857Y60526443D01*
X95892857Y60526443D02*
X96107142Y60526443D01*
X96107142Y60526443D02*
X96192857Y60483586D01*
X96192857Y60483586D02*
X96235714Y60440729D01*
X96235714Y60440729D02*
X96278571Y60355015D01*
X96278571Y60355015D02*
X96278571Y60269300D01*
X96278571Y60269300D02*
X96235714Y60140729D01*
X96235714Y60140729D02*
X95721428Y59626443D01*
X95721428Y59626443D02*
X96278571Y59626443D01*
X97092857Y60526443D02*
X96664285Y60526443D01*
X96664285Y60526443D02*
X96621428Y60097872D01*
X96621428Y60097872D02*
X96664285Y60140729D01*
X96664285Y60140729D02*
X96750000Y60183586D01*
X96750000Y60183586D02*
X96964285Y60183586D01*
X96964285Y60183586D02*
X97050000Y60140729D01*
X97050000Y60140729D02*
X97092857Y60097872D01*
X97092857Y60097872D02*
X97135714Y60012158D01*
X97135714Y60012158D02*
X97135714Y59797872D01*
X97135714Y59797872D02*
X97092857Y59712158D01*
X97092857Y59712158D02*
X97050000Y59669300D01*
X97050000Y59669300D02*
X96964285Y59626443D01*
X96964285Y59626443D02*
X96750000Y59626443D01*
X96750000Y59626443D02*
X96664285Y59669300D01*
X96664285Y59669300D02*
X96621428Y59712158D01*
X62421428Y61442158D02*
X62378571Y61399300D01*
X62378571Y61399300D02*
X62249999Y61356443D01*
X62249999Y61356443D02*
X62164285Y61356443D01*
X62164285Y61356443D02*
X62035714Y61399300D01*
X62035714Y61399300D02*
X61949999Y61485015D01*
X61949999Y61485015D02*
X61907142Y61570729D01*
X61907142Y61570729D02*
X61864285Y61742158D01*
X61864285Y61742158D02*
X61864285Y61870729D01*
X61864285Y61870729D02*
X61907142Y62042158D01*
X61907142Y62042158D02*
X61949999Y62127872D01*
X61949999Y62127872D02*
X62035714Y62213586D01*
X62035714Y62213586D02*
X62164285Y62256443D01*
X62164285Y62256443D02*
X62249999Y62256443D01*
X62249999Y62256443D02*
X62378571Y62213586D01*
X62378571Y62213586D02*
X62421428Y62170729D01*
X63278571Y61356443D02*
X62764285Y61356443D01*
X63021428Y61356443D02*
X63021428Y62256443D01*
X63021428Y62256443D02*
X62935714Y62127872D01*
X62935714Y62127872D02*
X62849999Y62042158D01*
X62849999Y62042158D02*
X62764285Y61999300D01*
X64092857Y62256443D02*
X63664285Y62256443D01*
X63664285Y62256443D02*
X63621428Y61827872D01*
X63621428Y61827872D02*
X63664285Y61870729D01*
X63664285Y61870729D02*
X63750000Y61913586D01*
X63750000Y61913586D02*
X63964285Y61913586D01*
X63964285Y61913586D02*
X64050000Y61870729D01*
X64050000Y61870729D02*
X64092857Y61827872D01*
X64092857Y61827872D02*
X64135714Y61742158D01*
X64135714Y61742158D02*
X64135714Y61527872D01*
X64135714Y61527872D02*
X64092857Y61442158D01*
X64092857Y61442158D02*
X64050000Y61399300D01*
X64050000Y61399300D02*
X63964285Y61356443D01*
X63964285Y61356443D02*
X63750000Y61356443D01*
X63750000Y61356443D02*
X63664285Y61399300D01*
X63664285Y61399300D02*
X63621428Y61442158D01*
X50421428Y81632158D02*
X50378571Y81589300D01*
X50378571Y81589300D02*
X50249999Y81546443D01*
X50249999Y81546443D02*
X50164285Y81546443D01*
X50164285Y81546443D02*
X50035714Y81589300D01*
X50035714Y81589300D02*
X49949999Y81675015D01*
X49949999Y81675015D02*
X49907142Y81760729D01*
X49907142Y81760729D02*
X49864285Y81932158D01*
X49864285Y81932158D02*
X49864285Y82060729D01*
X49864285Y82060729D02*
X49907142Y82232158D01*
X49907142Y82232158D02*
X49949999Y82317872D01*
X49949999Y82317872D02*
X50035714Y82403586D01*
X50035714Y82403586D02*
X50164285Y82446443D01*
X50164285Y82446443D02*
X50249999Y82446443D01*
X50249999Y82446443D02*
X50378571Y82403586D01*
X50378571Y82403586D02*
X50421428Y82360729D01*
X50721428Y82446443D02*
X51278571Y82446443D01*
X51278571Y82446443D02*
X50978571Y82103586D01*
X50978571Y82103586D02*
X51107142Y82103586D01*
X51107142Y82103586D02*
X51192857Y82060729D01*
X51192857Y82060729D02*
X51235714Y82017872D01*
X51235714Y82017872D02*
X51278571Y81932158D01*
X51278571Y81932158D02*
X51278571Y81717872D01*
X51278571Y81717872D02*
X51235714Y81632158D01*
X51235714Y81632158D02*
X51192857Y81589300D01*
X51192857Y81589300D02*
X51107142Y81546443D01*
X51107142Y81546443D02*
X50849999Y81546443D01*
X50849999Y81546443D02*
X50764285Y81589300D01*
X50764285Y81589300D02*
X50721428Y81632158D01*
X52050000Y82446443D02*
X51878571Y82446443D01*
X51878571Y82446443D02*
X51792857Y82403586D01*
X51792857Y82403586D02*
X51750000Y82360729D01*
X51750000Y82360729D02*
X51664285Y82232158D01*
X51664285Y82232158D02*
X51621428Y82060729D01*
X51621428Y82060729D02*
X51621428Y81717872D01*
X51621428Y81717872D02*
X51664285Y81632158D01*
X51664285Y81632158D02*
X51707142Y81589300D01*
X51707142Y81589300D02*
X51792857Y81546443D01*
X51792857Y81546443D02*
X51964285Y81546443D01*
X51964285Y81546443D02*
X52050000Y81589300D01*
X52050000Y81589300D02*
X52092857Y81632158D01*
X52092857Y81632158D02*
X52135714Y81717872D01*
X52135714Y81717872D02*
X52135714Y81932158D01*
X52135714Y81932158D02*
X52092857Y82017872D01*
X52092857Y82017872D02*
X52050000Y82060729D01*
X52050000Y82060729D02*
X51964285Y82103586D01*
X51964285Y82103586D02*
X51792857Y82103586D01*
X51792857Y82103586D02*
X51707142Y82060729D01*
X51707142Y82060729D02*
X51664285Y82017872D01*
X51664285Y82017872D02*
X51621428Y81932158D01*
X40671428Y16266443D02*
X40671428Y15623586D01*
X40671428Y15623586D02*
X40628571Y15495015D01*
X40628571Y15495015D02*
X40542857Y15409300D01*
X40542857Y15409300D02*
X40414285Y15366443D01*
X40414285Y15366443D02*
X40328571Y15366443D01*
X41571428Y15366443D02*
X41057142Y15366443D01*
X41314285Y15366443D02*
X41314285Y16266443D01*
X41314285Y16266443D02*
X41228571Y16137872D01*
X41228571Y16137872D02*
X41142856Y16052158D01*
X41142856Y16052158D02*
X41057142Y16009300D01*
X42128571Y16266443D02*
X42214285Y16266443D01*
X42214285Y16266443D02*
X42299999Y16223586D01*
X42299999Y16223586D02*
X42342857Y16180729D01*
X42342857Y16180729D02*
X42385714Y16095015D01*
X42385714Y16095015D02*
X42428571Y15923586D01*
X42428571Y15923586D02*
X42428571Y15709300D01*
X42428571Y15709300D02*
X42385714Y15537872D01*
X42385714Y15537872D02*
X42342857Y15452158D01*
X42342857Y15452158D02*
X42299999Y15409300D01*
X42299999Y15409300D02*
X42214285Y15366443D01*
X42214285Y15366443D02*
X42128571Y15366443D01*
X42128571Y15366443D02*
X42042857Y15409300D01*
X42042857Y15409300D02*
X41999999Y15452158D01*
X41999999Y15452158D02*
X41957142Y15537872D01*
X41957142Y15537872D02*
X41914285Y15709300D01*
X41914285Y15709300D02*
X41914285Y15923586D01*
X41914285Y15923586D02*
X41957142Y16095015D01*
X41957142Y16095015D02*
X41999999Y16180729D01*
X41999999Y16180729D02*
X42042857Y16223586D01*
X42042857Y16223586D02*
X42128571Y16266443D01*
X26072842Y73421429D02*
X26115700Y73378572D01*
X26115700Y73378572D02*
X26158557Y73250000D01*
X26158557Y73250000D02*
X26158557Y73164286D01*
X26158557Y73164286D02*
X26115700Y73035715D01*
X26115700Y73035715D02*
X26029985Y72950000D01*
X26029985Y72950000D02*
X25944271Y72907143D01*
X25944271Y72907143D02*
X25772842Y72864286D01*
X25772842Y72864286D02*
X25644271Y72864286D01*
X25644271Y72864286D02*
X25472842Y72907143D01*
X25472842Y72907143D02*
X25387128Y72950000D01*
X25387128Y72950000D02*
X25301414Y73035715D01*
X25301414Y73035715D02*
X25258557Y73164286D01*
X25258557Y73164286D02*
X25258557Y73250000D01*
X25258557Y73250000D02*
X25301414Y73378572D01*
X25301414Y73378572D02*
X25344271Y73421429D01*
X25258557Y73721429D02*
X25258557Y74278572D01*
X25258557Y74278572D02*
X25601414Y73978572D01*
X25601414Y73978572D02*
X25601414Y74107143D01*
X25601414Y74107143D02*
X25644271Y74192857D01*
X25644271Y74192857D02*
X25687128Y74235715D01*
X25687128Y74235715D02*
X25772842Y74278572D01*
X25772842Y74278572D02*
X25987128Y74278572D01*
X25987128Y74278572D02*
X26072842Y74235715D01*
X26072842Y74235715D02*
X26115700Y74192857D01*
X26115700Y74192857D02*
X26158557Y74107143D01*
X26158557Y74107143D02*
X26158557Y73850000D01*
X26158557Y73850000D02*
X26115700Y73764286D01*
X26115700Y73764286D02*
X26072842Y73721429D01*
X26158557Y74707143D02*
X26158557Y74878572D01*
X26158557Y74878572D02*
X26115700Y74964286D01*
X26115700Y74964286D02*
X26072842Y75007143D01*
X26072842Y75007143D02*
X25944271Y75092858D01*
X25944271Y75092858D02*
X25772842Y75135715D01*
X25772842Y75135715D02*
X25429985Y75135715D01*
X25429985Y75135715D02*
X25344271Y75092858D01*
X25344271Y75092858D02*
X25301414Y75050000D01*
X25301414Y75050000D02*
X25258557Y74964286D01*
X25258557Y74964286D02*
X25258557Y74792858D01*
X25258557Y74792858D02*
X25301414Y74707143D01*
X25301414Y74707143D02*
X25344271Y74664286D01*
X25344271Y74664286D02*
X25429985Y74621429D01*
X25429985Y74621429D02*
X25644271Y74621429D01*
X25644271Y74621429D02*
X25729985Y74664286D01*
X25729985Y74664286D02*
X25772842Y74707143D01*
X25772842Y74707143D02*
X25815700Y74792858D01*
X25815700Y74792858D02*
X25815700Y74964286D01*
X25815700Y74964286D02*
X25772842Y75050000D01*
X25772842Y75050000D02*
X25729985Y75092858D01*
X25729985Y75092858D02*
X25644271Y75135715D01*
X85421428Y72952159D02*
X85378571Y72909301D01*
X85378571Y72909301D02*
X85249999Y72866444D01*
X85249999Y72866444D02*
X85164285Y72866444D01*
X85164285Y72866444D02*
X85035714Y72909301D01*
X85035714Y72909301D02*
X84949999Y72995016D01*
X84949999Y72995016D02*
X84907142Y73080730D01*
X84907142Y73080730D02*
X84864285Y73252159D01*
X84864285Y73252159D02*
X84864285Y73380730D01*
X84864285Y73380730D02*
X84907142Y73552159D01*
X84907142Y73552159D02*
X84949999Y73637873D01*
X84949999Y73637873D02*
X85035714Y73723587D01*
X85035714Y73723587D02*
X85164285Y73766444D01*
X85164285Y73766444D02*
X85249999Y73766444D01*
X85249999Y73766444D02*
X85378571Y73723587D01*
X85378571Y73723587D02*
X85421428Y73680730D01*
X86278571Y72866444D02*
X85764285Y72866444D01*
X86021428Y72866444D02*
X86021428Y73766444D01*
X86021428Y73766444D02*
X85935714Y73637873D01*
X85935714Y73637873D02*
X85849999Y73552159D01*
X85849999Y73552159D02*
X85764285Y73509301D01*
X86578571Y73766444D02*
X87178571Y73766444D01*
X87178571Y73766444D02*
X86792857Y72866444D01*
X33850000Y33626443D02*
X33550000Y34055015D01*
X33335714Y33626443D02*
X33335714Y34526443D01*
X33335714Y34526443D02*
X33678571Y34526443D01*
X33678571Y34526443D02*
X33764286Y34483586D01*
X33764286Y34483586D02*
X33807143Y34440729D01*
X33807143Y34440729D02*
X33850000Y34355015D01*
X33850000Y34355015D02*
X33850000Y34226443D01*
X33850000Y34226443D02*
X33807143Y34140729D01*
X33807143Y34140729D02*
X33764286Y34097872D01*
X33764286Y34097872D02*
X33678571Y34055015D01*
X33678571Y34055015D02*
X33335714Y34055015D01*
X34664286Y34526443D02*
X34235714Y34526443D01*
X34235714Y34526443D02*
X34192857Y34097872D01*
X34192857Y34097872D02*
X34235714Y34140729D01*
X34235714Y34140729D02*
X34321429Y34183586D01*
X34321429Y34183586D02*
X34535714Y34183586D01*
X34535714Y34183586D02*
X34621429Y34140729D01*
X34621429Y34140729D02*
X34664286Y34097872D01*
X34664286Y34097872D02*
X34707143Y34012158D01*
X34707143Y34012158D02*
X34707143Y33797872D01*
X34707143Y33797872D02*
X34664286Y33712158D01*
X34664286Y33712158D02*
X34621429Y33669300D01*
X34621429Y33669300D02*
X34535714Y33626443D01*
X34535714Y33626443D02*
X34321429Y33626443D01*
X34321429Y33626443D02*
X34235714Y33669300D01*
X34235714Y33669300D02*
X34192857Y33712158D01*
X39850000Y32341443D02*
X39421428Y32341443D01*
X39421428Y32341443D02*
X39421428Y33241443D01*
X40064285Y33241443D02*
X40621428Y33241443D01*
X40621428Y33241443D02*
X40321428Y32898586D01*
X40321428Y32898586D02*
X40449999Y32898586D01*
X40449999Y32898586D02*
X40535714Y32855729D01*
X40535714Y32855729D02*
X40578571Y32812872D01*
X40578571Y32812872D02*
X40621428Y32727158D01*
X40621428Y32727158D02*
X40621428Y32512872D01*
X40621428Y32512872D02*
X40578571Y32427158D01*
X40578571Y32427158D02*
X40535714Y32384300D01*
X40535714Y32384300D02*
X40449999Y32341443D01*
X40449999Y32341443D02*
X40192856Y32341443D01*
X40192856Y32341443D02*
X40107142Y32384300D01*
X40107142Y32384300D02*
X40064285Y32427158D01*
X38421428Y62952158D02*
X38378571Y62909300D01*
X38378571Y62909300D02*
X38249999Y62866443D01*
X38249999Y62866443D02*
X38164285Y62866443D01*
X38164285Y62866443D02*
X38035714Y62909300D01*
X38035714Y62909300D02*
X37949999Y62995015D01*
X37949999Y62995015D02*
X37907142Y63080729D01*
X37907142Y63080729D02*
X37864285Y63252158D01*
X37864285Y63252158D02*
X37864285Y63380729D01*
X37864285Y63380729D02*
X37907142Y63552158D01*
X37907142Y63552158D02*
X37949999Y63637872D01*
X37949999Y63637872D02*
X38035714Y63723586D01*
X38035714Y63723586D02*
X38164285Y63766443D01*
X38164285Y63766443D02*
X38249999Y63766443D01*
X38249999Y63766443D02*
X38378571Y63723586D01*
X38378571Y63723586D02*
X38421428Y63680729D01*
X38721428Y63766443D02*
X39278571Y63766443D01*
X39278571Y63766443D02*
X38978571Y63423586D01*
X38978571Y63423586D02*
X39107142Y63423586D01*
X39107142Y63423586D02*
X39192857Y63380729D01*
X39192857Y63380729D02*
X39235714Y63337872D01*
X39235714Y63337872D02*
X39278571Y63252158D01*
X39278571Y63252158D02*
X39278571Y63037872D01*
X39278571Y63037872D02*
X39235714Y62952158D01*
X39235714Y62952158D02*
X39192857Y62909300D01*
X39192857Y62909300D02*
X39107142Y62866443D01*
X39107142Y62866443D02*
X38849999Y62866443D01*
X38849999Y62866443D02*
X38764285Y62909300D01*
X38764285Y62909300D02*
X38721428Y62952158D01*
X39621428Y63680729D02*
X39664285Y63723586D01*
X39664285Y63723586D02*
X39750000Y63766443D01*
X39750000Y63766443D02*
X39964285Y63766443D01*
X39964285Y63766443D02*
X40050000Y63723586D01*
X40050000Y63723586D02*
X40092857Y63680729D01*
X40092857Y63680729D02*
X40135714Y63595015D01*
X40135714Y63595015D02*
X40135714Y63509300D01*
X40135714Y63509300D02*
X40092857Y63380729D01*
X40092857Y63380729D02*
X39578571Y62866443D01*
X39578571Y62866443D02*
X40135714Y62866443D01*
X88421428Y29432158D02*
X88378571Y29389300D01*
X88378571Y29389300D02*
X88249999Y29346443D01*
X88249999Y29346443D02*
X88164285Y29346443D01*
X88164285Y29346443D02*
X88035714Y29389300D01*
X88035714Y29389300D02*
X87949999Y29475015D01*
X87949999Y29475015D02*
X87907142Y29560729D01*
X87907142Y29560729D02*
X87864285Y29732158D01*
X87864285Y29732158D02*
X87864285Y29860729D01*
X87864285Y29860729D02*
X87907142Y30032158D01*
X87907142Y30032158D02*
X87949999Y30117872D01*
X87949999Y30117872D02*
X88035714Y30203586D01*
X88035714Y30203586D02*
X88164285Y30246443D01*
X88164285Y30246443D02*
X88249999Y30246443D01*
X88249999Y30246443D02*
X88378571Y30203586D01*
X88378571Y30203586D02*
X88421428Y30160729D01*
X89192857Y29946443D02*
X89192857Y29346443D01*
X88978571Y30289300D02*
X88764285Y29646443D01*
X88764285Y29646443D02*
X89321428Y29646443D01*
X89621428Y30160729D02*
X89664285Y30203586D01*
X89664285Y30203586D02*
X89750000Y30246443D01*
X89750000Y30246443D02*
X89964285Y30246443D01*
X89964285Y30246443D02*
X90050000Y30203586D01*
X90050000Y30203586D02*
X90092857Y30160729D01*
X90092857Y30160729D02*
X90135714Y30075015D01*
X90135714Y30075015D02*
X90135714Y29989300D01*
X90135714Y29989300D02*
X90092857Y29860729D01*
X90092857Y29860729D02*
X89578571Y29346443D01*
X89578571Y29346443D02*
X90135714Y29346443D01*
X22850000Y81626443D02*
X22550000Y82055015D01*
X22335714Y81626443D02*
X22335714Y82526443D01*
X22335714Y82526443D02*
X22678571Y82526443D01*
X22678571Y82526443D02*
X22764286Y82483586D01*
X22764286Y82483586D02*
X22807143Y82440729D01*
X22807143Y82440729D02*
X22850000Y82355015D01*
X22850000Y82355015D02*
X22850000Y82226443D01*
X22850000Y82226443D02*
X22807143Y82140729D01*
X22807143Y82140729D02*
X22764286Y82097872D01*
X22764286Y82097872D02*
X22678571Y82055015D01*
X22678571Y82055015D02*
X22335714Y82055015D01*
X23192857Y82440729D02*
X23235714Y82483586D01*
X23235714Y82483586D02*
X23321429Y82526443D01*
X23321429Y82526443D02*
X23535714Y82526443D01*
X23535714Y82526443D02*
X23621429Y82483586D01*
X23621429Y82483586D02*
X23664286Y82440729D01*
X23664286Y82440729D02*
X23707143Y82355015D01*
X23707143Y82355015D02*
X23707143Y82269300D01*
X23707143Y82269300D02*
X23664286Y82140729D01*
X23664286Y82140729D02*
X23150000Y81626443D01*
X23150000Y81626443D02*
X23707143Y81626443D01*
X95421428Y87626443D02*
X95121428Y88055015D01*
X94907142Y87626443D02*
X94907142Y88526443D01*
X94907142Y88526443D02*
X95249999Y88526443D01*
X95249999Y88526443D02*
X95335714Y88483586D01*
X95335714Y88483586D02*
X95378571Y88440729D01*
X95378571Y88440729D02*
X95421428Y88355015D01*
X95421428Y88355015D02*
X95421428Y88226443D01*
X95421428Y88226443D02*
X95378571Y88140729D01*
X95378571Y88140729D02*
X95335714Y88097872D01*
X95335714Y88097872D02*
X95249999Y88055015D01*
X95249999Y88055015D02*
X94907142Y88055015D01*
X95764285Y88440729D02*
X95807142Y88483586D01*
X95807142Y88483586D02*
X95892857Y88526443D01*
X95892857Y88526443D02*
X96107142Y88526443D01*
X96107142Y88526443D02*
X96192857Y88483586D01*
X96192857Y88483586D02*
X96235714Y88440729D01*
X96235714Y88440729D02*
X96278571Y88355015D01*
X96278571Y88355015D02*
X96278571Y88269300D01*
X96278571Y88269300D02*
X96235714Y88140729D01*
X96235714Y88140729D02*
X95721428Y87626443D01*
X95721428Y87626443D02*
X96278571Y87626443D01*
X96621428Y88440729D02*
X96664285Y88483586D01*
X96664285Y88483586D02*
X96750000Y88526443D01*
X96750000Y88526443D02*
X96964285Y88526443D01*
X96964285Y88526443D02*
X97050000Y88483586D01*
X97050000Y88483586D02*
X97092857Y88440729D01*
X97092857Y88440729D02*
X97135714Y88355015D01*
X97135714Y88355015D02*
X97135714Y88269300D01*
X97135714Y88269300D02*
X97092857Y88140729D01*
X97092857Y88140729D02*
X96578571Y87626443D01*
X96578571Y87626443D02*
X97135714Y87626443D01*
X34335714Y54166443D02*
X34335714Y55066443D01*
X34335714Y55066443D02*
X34550000Y55066443D01*
X34550000Y55066443D02*
X34678571Y55023586D01*
X34678571Y55023586D02*
X34764286Y54937872D01*
X34764286Y54937872D02*
X34807143Y54852158D01*
X34807143Y54852158D02*
X34850000Y54680729D01*
X34850000Y54680729D02*
X34850000Y54552158D01*
X34850000Y54552158D02*
X34807143Y54380729D01*
X34807143Y54380729D02*
X34764286Y54295015D01*
X34764286Y54295015D02*
X34678571Y54209300D01*
X34678571Y54209300D02*
X34550000Y54166443D01*
X34550000Y54166443D02*
X34335714Y54166443D01*
X35192857Y54980729D02*
X35235714Y55023586D01*
X35235714Y55023586D02*
X35321429Y55066443D01*
X35321429Y55066443D02*
X35535714Y55066443D01*
X35535714Y55066443D02*
X35621429Y55023586D01*
X35621429Y55023586D02*
X35664286Y54980729D01*
X35664286Y54980729D02*
X35707143Y54895015D01*
X35707143Y54895015D02*
X35707143Y54809300D01*
X35707143Y54809300D02*
X35664286Y54680729D01*
X35664286Y54680729D02*
X35150000Y54166443D01*
X35150000Y54166443D02*
X35707143Y54166443D01*
X22314285Y56366443D02*
X22314285Y55637872D01*
X22314285Y55637872D02*
X22357142Y55552158D01*
X22357142Y55552158D02*
X22400000Y55509300D01*
X22400000Y55509300D02*
X22485714Y55466443D01*
X22485714Y55466443D02*
X22657142Y55466443D01*
X22657142Y55466443D02*
X22742857Y55509300D01*
X22742857Y55509300D02*
X22785714Y55552158D01*
X22785714Y55552158D02*
X22828571Y55637872D01*
X22828571Y55637872D02*
X22828571Y56366443D01*
X23171428Y56366443D02*
X23728571Y56366443D01*
X23728571Y56366443D02*
X23428571Y56023586D01*
X23428571Y56023586D02*
X23557142Y56023586D01*
X23557142Y56023586D02*
X23642857Y55980729D01*
X23642857Y55980729D02*
X23685714Y55937872D01*
X23685714Y55937872D02*
X23728571Y55852158D01*
X23728571Y55852158D02*
X23728571Y55637872D01*
X23728571Y55637872D02*
X23685714Y55552158D01*
X23685714Y55552158D02*
X23642857Y55509300D01*
X23642857Y55509300D02*
X23557142Y55466443D01*
X23557142Y55466443D02*
X23299999Y55466443D01*
X23299999Y55466443D02*
X23214285Y55509300D01*
X23214285Y55509300D02*
X23171428Y55552158D01*
X28850000Y61356443D02*
X28550000Y61785015D01*
X28335714Y61356443D02*
X28335714Y62256443D01*
X28335714Y62256443D02*
X28678571Y62256443D01*
X28678571Y62256443D02*
X28764286Y62213586D01*
X28764286Y62213586D02*
X28807143Y62170729D01*
X28807143Y62170729D02*
X28850000Y62085015D01*
X28850000Y62085015D02*
X28850000Y61956443D01*
X28850000Y61956443D02*
X28807143Y61870729D01*
X28807143Y61870729D02*
X28764286Y61827872D01*
X28764286Y61827872D02*
X28678571Y61785015D01*
X28678571Y61785015D02*
X28335714Y61785015D01*
X29621429Y61956443D02*
X29621429Y61356443D01*
X29407143Y62299300D02*
X29192857Y61656443D01*
X29192857Y61656443D02*
X29750000Y61656443D01*
X102321428Y22482158D02*
X102278571Y22439300D01*
X102278571Y22439300D02*
X102149999Y22396443D01*
X102149999Y22396443D02*
X102064285Y22396443D01*
X102064285Y22396443D02*
X101935714Y22439300D01*
X101935714Y22439300D02*
X101849999Y22525015D01*
X101849999Y22525015D02*
X101807142Y22610729D01*
X101807142Y22610729D02*
X101764285Y22782158D01*
X101764285Y22782158D02*
X101764285Y22910729D01*
X101764285Y22910729D02*
X101807142Y23082158D01*
X101807142Y23082158D02*
X101849999Y23167872D01*
X101849999Y23167872D02*
X101935714Y23253586D01*
X101935714Y23253586D02*
X102064285Y23296443D01*
X102064285Y23296443D02*
X102149999Y23296443D01*
X102149999Y23296443D02*
X102278571Y23253586D01*
X102278571Y23253586D02*
X102321428Y23210729D01*
X102664285Y23210729D02*
X102707142Y23253586D01*
X102707142Y23253586D02*
X102792857Y23296443D01*
X102792857Y23296443D02*
X103007142Y23296443D01*
X103007142Y23296443D02*
X103092857Y23253586D01*
X103092857Y23253586D02*
X103135714Y23210729D01*
X103135714Y23210729D02*
X103178571Y23125015D01*
X103178571Y23125015D02*
X103178571Y23039300D01*
X103178571Y23039300D02*
X103135714Y22910729D01*
X103135714Y22910729D02*
X102621428Y22396443D01*
X102621428Y22396443D02*
X103178571Y22396443D01*
X103992857Y23296443D02*
X103564285Y23296443D01*
X103564285Y23296443D02*
X103521428Y22867872D01*
X103521428Y22867872D02*
X103564285Y22910729D01*
X103564285Y22910729D02*
X103650000Y22953586D01*
X103650000Y22953586D02*
X103864285Y22953586D01*
X103864285Y22953586D02*
X103950000Y22910729D01*
X103950000Y22910729D02*
X103992857Y22867872D01*
X103992857Y22867872D02*
X104035714Y22782158D01*
X104035714Y22782158D02*
X104035714Y22567872D01*
X104035714Y22567872D02*
X103992857Y22482158D01*
X103992857Y22482158D02*
X103950000Y22439300D01*
X103950000Y22439300D02*
X103864285Y22396443D01*
X103864285Y22396443D02*
X103650000Y22396443D01*
X103650000Y22396443D02*
X103564285Y22439300D01*
X103564285Y22439300D02*
X103521428Y22482158D01*
X99421428Y72272159D02*
X99378571Y72229301D01*
X99378571Y72229301D02*
X99249999Y72186444D01*
X99249999Y72186444D02*
X99164285Y72186444D01*
X99164285Y72186444D02*
X99035714Y72229301D01*
X99035714Y72229301D02*
X98949999Y72315016D01*
X98949999Y72315016D02*
X98907142Y72400730D01*
X98907142Y72400730D02*
X98864285Y72572159D01*
X98864285Y72572159D02*
X98864285Y72700730D01*
X98864285Y72700730D02*
X98907142Y72872159D01*
X98907142Y72872159D02*
X98949999Y72957873D01*
X98949999Y72957873D02*
X99035714Y73043587D01*
X99035714Y73043587D02*
X99164285Y73086444D01*
X99164285Y73086444D02*
X99249999Y73086444D01*
X99249999Y73086444D02*
X99378571Y73043587D01*
X99378571Y73043587D02*
X99421428Y73000730D01*
X99764285Y73000730D02*
X99807142Y73043587D01*
X99807142Y73043587D02*
X99892857Y73086444D01*
X99892857Y73086444D02*
X100107142Y73086444D01*
X100107142Y73086444D02*
X100192857Y73043587D01*
X100192857Y73043587D02*
X100235714Y73000730D01*
X100235714Y73000730D02*
X100278571Y72915016D01*
X100278571Y72915016D02*
X100278571Y72829301D01*
X100278571Y72829301D02*
X100235714Y72700730D01*
X100235714Y72700730D02*
X99721428Y72186444D01*
X99721428Y72186444D02*
X100278571Y72186444D01*
X101135714Y72186444D02*
X100621428Y72186444D01*
X100878571Y72186444D02*
X100878571Y73086444D01*
X100878571Y73086444D02*
X100792857Y72957873D01*
X100792857Y72957873D02*
X100707142Y72872159D01*
X100707142Y72872159D02*
X100621428Y72829301D01*
X32822842Y46100001D02*
X32865700Y46057144D01*
X32865700Y46057144D02*
X32908557Y45928572D01*
X32908557Y45928572D02*
X32908557Y45842858D01*
X32908557Y45842858D02*
X32865700Y45714287D01*
X32865700Y45714287D02*
X32779985Y45628572D01*
X32779985Y45628572D02*
X32694271Y45585715D01*
X32694271Y45585715D02*
X32522842Y45542858D01*
X32522842Y45542858D02*
X32394271Y45542858D01*
X32394271Y45542858D02*
X32222842Y45585715D01*
X32222842Y45585715D02*
X32137128Y45628572D01*
X32137128Y45628572D02*
X32051414Y45714287D01*
X32051414Y45714287D02*
X32008557Y45842858D01*
X32008557Y45842858D02*
X32008557Y45928572D01*
X32008557Y45928572D02*
X32051414Y46057144D01*
X32051414Y46057144D02*
X32094271Y46100001D01*
X32394271Y46614287D02*
X32351414Y46528572D01*
X32351414Y46528572D02*
X32308557Y46485715D01*
X32308557Y46485715D02*
X32222842Y46442858D01*
X32222842Y46442858D02*
X32179985Y46442858D01*
X32179985Y46442858D02*
X32094271Y46485715D01*
X32094271Y46485715D02*
X32051414Y46528572D01*
X32051414Y46528572D02*
X32008557Y46614287D01*
X32008557Y46614287D02*
X32008557Y46785715D01*
X32008557Y46785715D02*
X32051414Y46871429D01*
X32051414Y46871429D02*
X32094271Y46914287D01*
X32094271Y46914287D02*
X32179985Y46957144D01*
X32179985Y46957144D02*
X32222842Y46957144D01*
X32222842Y46957144D02*
X32308557Y46914287D01*
X32308557Y46914287D02*
X32351414Y46871429D01*
X32351414Y46871429D02*
X32394271Y46785715D01*
X32394271Y46785715D02*
X32394271Y46614287D01*
X32394271Y46614287D02*
X32437128Y46528572D01*
X32437128Y46528572D02*
X32479985Y46485715D01*
X32479985Y46485715D02*
X32565700Y46442858D01*
X32565700Y46442858D02*
X32737128Y46442858D01*
X32737128Y46442858D02*
X32822842Y46485715D01*
X32822842Y46485715D02*
X32865700Y46528572D01*
X32865700Y46528572D02*
X32908557Y46614287D01*
X32908557Y46614287D02*
X32908557Y46785715D01*
X32908557Y46785715D02*
X32865700Y46871429D01*
X32865700Y46871429D02*
X32822842Y46914287D01*
X32822842Y46914287D02*
X32737128Y46957144D01*
X32737128Y46957144D02*
X32565700Y46957144D01*
X32565700Y46957144D02*
X32479985Y46914287D01*
X32479985Y46914287D02*
X32437128Y46871429D01*
X32437128Y46871429D02*
X32394271Y46785715D01*
X44421428Y84132158D02*
X44378571Y84089300D01*
X44378571Y84089300D02*
X44249999Y84046443D01*
X44249999Y84046443D02*
X44164285Y84046443D01*
X44164285Y84046443D02*
X44035714Y84089300D01*
X44035714Y84089300D02*
X43949999Y84175015D01*
X43949999Y84175015D02*
X43907142Y84260729D01*
X43907142Y84260729D02*
X43864285Y84432158D01*
X43864285Y84432158D02*
X43864285Y84560729D01*
X43864285Y84560729D02*
X43907142Y84732158D01*
X43907142Y84732158D02*
X43949999Y84817872D01*
X43949999Y84817872D02*
X44035714Y84903586D01*
X44035714Y84903586D02*
X44164285Y84946443D01*
X44164285Y84946443D02*
X44249999Y84946443D01*
X44249999Y84946443D02*
X44378571Y84903586D01*
X44378571Y84903586D02*
X44421428Y84860729D01*
X45278571Y84046443D02*
X44764285Y84046443D01*
X45021428Y84046443D02*
X45021428Y84946443D01*
X45021428Y84946443D02*
X44935714Y84817872D01*
X44935714Y84817872D02*
X44849999Y84732158D01*
X44849999Y84732158D02*
X44764285Y84689300D01*
X46050000Y84646443D02*
X46050000Y84046443D01*
X45835714Y84989300D02*
X45621428Y84346443D01*
X45621428Y84346443D02*
X46178571Y84346443D01*
X46850000Y58366443D02*
X46421428Y58366443D01*
X46421428Y58366443D02*
X46421428Y59266443D01*
X47107142Y59180729D02*
X47149999Y59223586D01*
X47149999Y59223586D02*
X47235714Y59266443D01*
X47235714Y59266443D02*
X47449999Y59266443D01*
X47449999Y59266443D02*
X47535714Y59223586D01*
X47535714Y59223586D02*
X47578571Y59180729D01*
X47578571Y59180729D02*
X47621428Y59095015D01*
X47621428Y59095015D02*
X47621428Y59009300D01*
X47621428Y59009300D02*
X47578571Y58880729D01*
X47578571Y58880729D02*
X47064285Y58366443D01*
X47064285Y58366443D02*
X47621428Y58366443D01*
X31850000Y37356443D02*
X31550000Y37785015D01*
X31335714Y37356443D02*
X31335714Y38256443D01*
X31335714Y38256443D02*
X31678571Y38256443D01*
X31678571Y38256443D02*
X31764286Y38213586D01*
X31764286Y38213586D02*
X31807143Y38170729D01*
X31807143Y38170729D02*
X31850000Y38085015D01*
X31850000Y38085015D02*
X31850000Y37956443D01*
X31850000Y37956443D02*
X31807143Y37870729D01*
X31807143Y37870729D02*
X31764286Y37827872D01*
X31764286Y37827872D02*
X31678571Y37785015D01*
X31678571Y37785015D02*
X31335714Y37785015D01*
X32621429Y38256443D02*
X32450000Y38256443D01*
X32450000Y38256443D02*
X32364286Y38213586D01*
X32364286Y38213586D02*
X32321429Y38170729D01*
X32321429Y38170729D02*
X32235714Y38042158D01*
X32235714Y38042158D02*
X32192857Y37870729D01*
X32192857Y37870729D02*
X32192857Y37527872D01*
X32192857Y37527872D02*
X32235714Y37442158D01*
X32235714Y37442158D02*
X32278571Y37399300D01*
X32278571Y37399300D02*
X32364286Y37356443D01*
X32364286Y37356443D02*
X32535714Y37356443D01*
X32535714Y37356443D02*
X32621429Y37399300D01*
X32621429Y37399300D02*
X32664286Y37442158D01*
X32664286Y37442158D02*
X32707143Y37527872D01*
X32707143Y37527872D02*
X32707143Y37742158D01*
X32707143Y37742158D02*
X32664286Y37827872D01*
X32664286Y37827872D02*
X32621429Y37870729D01*
X32621429Y37870729D02*
X32535714Y37913586D01*
X32535714Y37913586D02*
X32364286Y37913586D01*
X32364286Y37913586D02*
X32278571Y37870729D01*
X32278571Y37870729D02*
X32235714Y37827872D01*
X32235714Y37827872D02*
X32192857Y37742158D01*
X76314285Y32466443D02*
X76314285Y31737872D01*
X76314285Y31737872D02*
X76357142Y31652158D01*
X76357142Y31652158D02*
X76400000Y31609300D01*
X76400000Y31609300D02*
X76485714Y31566443D01*
X76485714Y31566443D02*
X76657142Y31566443D01*
X76657142Y31566443D02*
X76742857Y31609300D01*
X76742857Y31609300D02*
X76785714Y31652158D01*
X76785714Y31652158D02*
X76828571Y31737872D01*
X76828571Y31737872D02*
X76828571Y32466443D01*
X77385714Y32080729D02*
X77299999Y32123586D01*
X77299999Y32123586D02*
X77257142Y32166443D01*
X77257142Y32166443D02*
X77214285Y32252158D01*
X77214285Y32252158D02*
X77214285Y32295015D01*
X77214285Y32295015D02*
X77257142Y32380729D01*
X77257142Y32380729D02*
X77299999Y32423586D01*
X77299999Y32423586D02*
X77385714Y32466443D01*
X77385714Y32466443D02*
X77557142Y32466443D01*
X77557142Y32466443D02*
X77642857Y32423586D01*
X77642857Y32423586D02*
X77685714Y32380729D01*
X77685714Y32380729D02*
X77728571Y32295015D01*
X77728571Y32295015D02*
X77728571Y32252158D01*
X77728571Y32252158D02*
X77685714Y32166443D01*
X77685714Y32166443D02*
X77642857Y32123586D01*
X77642857Y32123586D02*
X77557142Y32080729D01*
X77557142Y32080729D02*
X77385714Y32080729D01*
X77385714Y32080729D02*
X77299999Y32037872D01*
X77299999Y32037872D02*
X77257142Y31995015D01*
X77257142Y31995015D02*
X77214285Y31909300D01*
X77214285Y31909300D02*
X77214285Y31737872D01*
X77214285Y31737872D02*
X77257142Y31652158D01*
X77257142Y31652158D02*
X77299999Y31609300D01*
X77299999Y31609300D02*
X77385714Y31566443D01*
X77385714Y31566443D02*
X77557142Y31566443D01*
X77557142Y31566443D02*
X77642857Y31609300D01*
X77642857Y31609300D02*
X77685714Y31652158D01*
X77685714Y31652158D02*
X77728571Y31737872D01*
X77728571Y31737872D02*
X77728571Y31909300D01*
X77728571Y31909300D02*
X77685714Y31995015D01*
X77685714Y31995015D02*
X77642857Y32037872D01*
X77642857Y32037872D02*
X77557142Y32080729D01*
X99158557Y57042858D02*
X98258557Y57042858D01*
X98258557Y57042858D02*
X98258557Y57385715D01*
X98258557Y57385715D02*
X98301414Y57471430D01*
X98301414Y57471430D02*
X98344271Y57514287D01*
X98344271Y57514287D02*
X98429985Y57557144D01*
X98429985Y57557144D02*
X98558557Y57557144D01*
X98558557Y57557144D02*
X98644271Y57514287D01*
X98644271Y57514287D02*
X98687128Y57471430D01*
X98687128Y57471430D02*
X98729985Y57385715D01*
X98729985Y57385715D02*
X98729985Y57042858D01*
X98258557Y57814287D02*
X98258557Y58328572D01*
X99158557Y58071430D02*
X98258557Y58071430D01*
X99072842Y59142858D02*
X99115700Y59100001D01*
X99115700Y59100001D02*
X99158557Y58971429D01*
X99158557Y58971429D02*
X99158557Y58885715D01*
X99158557Y58885715D02*
X99115700Y58757144D01*
X99115700Y58757144D02*
X99029985Y58671429D01*
X99029985Y58671429D02*
X98944271Y58628572D01*
X98944271Y58628572D02*
X98772842Y58585715D01*
X98772842Y58585715D02*
X98644271Y58585715D01*
X98644271Y58585715D02*
X98472842Y58628572D01*
X98472842Y58628572D02*
X98387128Y58671429D01*
X98387128Y58671429D02*
X98301414Y58757144D01*
X98301414Y58757144D02*
X98258557Y58885715D01*
X98258557Y58885715D02*
X98258557Y58971429D01*
X98258557Y58971429D02*
X98301414Y59100001D01*
X98301414Y59100001D02*
X98344271Y59142858D01*
X98344271Y59485715D02*
X98301414Y59528572D01*
X98301414Y59528572D02*
X98258557Y59614286D01*
X98258557Y59614286D02*
X98258557Y59828572D01*
X98258557Y59828572D02*
X98301414Y59914286D01*
X98301414Y59914286D02*
X98344271Y59957144D01*
X98344271Y59957144D02*
X98429985Y60000001D01*
X98429985Y60000001D02*
X98515700Y60000001D01*
X98515700Y60000001D02*
X98644271Y59957144D01*
X98644271Y59957144D02*
X99158557Y59442858D01*
X99158557Y59442858D02*
X99158557Y60000001D01*
X89421428Y62626444D02*
X89121428Y63055016D01*
X88907142Y62626444D02*
X88907142Y63526444D01*
X88907142Y63526444D02*
X89249999Y63526444D01*
X89249999Y63526444D02*
X89335714Y63483587D01*
X89335714Y63483587D02*
X89378571Y63440730D01*
X89378571Y63440730D02*
X89421428Y63355016D01*
X89421428Y63355016D02*
X89421428Y63226444D01*
X89421428Y63226444D02*
X89378571Y63140730D01*
X89378571Y63140730D02*
X89335714Y63097873D01*
X89335714Y63097873D02*
X89249999Y63055016D01*
X89249999Y63055016D02*
X88907142Y63055016D01*
X89764285Y63440730D02*
X89807142Y63483587D01*
X89807142Y63483587D02*
X89892857Y63526444D01*
X89892857Y63526444D02*
X90107142Y63526444D01*
X90107142Y63526444D02*
X90192857Y63483587D01*
X90192857Y63483587D02*
X90235714Y63440730D01*
X90235714Y63440730D02*
X90278571Y63355016D01*
X90278571Y63355016D02*
X90278571Y63269301D01*
X90278571Y63269301D02*
X90235714Y63140730D01*
X90235714Y63140730D02*
X89721428Y62626444D01*
X89721428Y62626444D02*
X90278571Y62626444D01*
X90578571Y63526444D02*
X91135714Y63526444D01*
X91135714Y63526444D02*
X90835714Y63183587D01*
X90835714Y63183587D02*
X90964285Y63183587D01*
X90964285Y63183587D02*
X91050000Y63140730D01*
X91050000Y63140730D02*
X91092857Y63097873D01*
X91092857Y63097873D02*
X91135714Y63012159D01*
X91135714Y63012159D02*
X91135714Y62797873D01*
X91135714Y62797873D02*
X91092857Y62712159D01*
X91092857Y62712159D02*
X91050000Y62669301D01*
X91050000Y62669301D02*
X90964285Y62626444D01*
X90964285Y62626444D02*
X90707142Y62626444D01*
X90707142Y62626444D02*
X90621428Y62669301D01*
X90621428Y62669301D02*
X90578571Y62712159D01*
X41572842Y81850001D02*
X41615700Y81807144D01*
X41615700Y81807144D02*
X41658557Y81678572D01*
X41658557Y81678572D02*
X41658557Y81592858D01*
X41658557Y81592858D02*
X41615700Y81464287D01*
X41615700Y81464287D02*
X41529985Y81378572D01*
X41529985Y81378572D02*
X41444271Y81335715D01*
X41444271Y81335715D02*
X41272842Y81292858D01*
X41272842Y81292858D02*
X41144271Y81292858D01*
X41144271Y81292858D02*
X40972842Y81335715D01*
X40972842Y81335715D02*
X40887128Y81378572D01*
X40887128Y81378572D02*
X40801414Y81464287D01*
X40801414Y81464287D02*
X40758557Y81592858D01*
X40758557Y81592858D02*
X40758557Y81678572D01*
X40758557Y81678572D02*
X40801414Y81807144D01*
X40801414Y81807144D02*
X40844271Y81850001D01*
X40758557Y82150001D02*
X40758557Y82707144D01*
X40758557Y82707144D02*
X41101414Y82407144D01*
X41101414Y82407144D02*
X41101414Y82535715D01*
X41101414Y82535715D02*
X41144271Y82621429D01*
X41144271Y82621429D02*
X41187128Y82664287D01*
X41187128Y82664287D02*
X41272842Y82707144D01*
X41272842Y82707144D02*
X41487128Y82707144D01*
X41487128Y82707144D02*
X41572842Y82664287D01*
X41572842Y82664287D02*
X41615700Y82621429D01*
X41615700Y82621429D02*
X41658557Y82535715D01*
X41658557Y82535715D02*
X41658557Y82278572D01*
X41658557Y82278572D02*
X41615700Y82192858D01*
X41615700Y82192858D02*
X41572842Y82150001D01*
X11850000Y83802158D02*
X11807143Y83759300D01*
X11807143Y83759300D02*
X11678571Y83716443D01*
X11678571Y83716443D02*
X11592857Y83716443D01*
X11592857Y83716443D02*
X11464286Y83759300D01*
X11464286Y83759300D02*
X11378571Y83845015D01*
X11378571Y83845015D02*
X11335714Y83930729D01*
X11335714Y83930729D02*
X11292857Y84102158D01*
X11292857Y84102158D02*
X11292857Y84230729D01*
X11292857Y84230729D02*
X11335714Y84402158D01*
X11335714Y84402158D02*
X11378571Y84487872D01*
X11378571Y84487872D02*
X11464286Y84573586D01*
X11464286Y84573586D02*
X11592857Y84616443D01*
X11592857Y84616443D02*
X11678571Y84616443D01*
X11678571Y84616443D02*
X11807143Y84573586D01*
X11807143Y84573586D02*
X11850000Y84530729D01*
X12664286Y84616443D02*
X12235714Y84616443D01*
X12235714Y84616443D02*
X12192857Y84187872D01*
X12192857Y84187872D02*
X12235714Y84230729D01*
X12235714Y84230729D02*
X12321429Y84273586D01*
X12321429Y84273586D02*
X12535714Y84273586D01*
X12535714Y84273586D02*
X12621429Y84230729D01*
X12621429Y84230729D02*
X12664286Y84187872D01*
X12664286Y84187872D02*
X12707143Y84102158D01*
X12707143Y84102158D02*
X12707143Y83887872D01*
X12707143Y83887872D02*
X12664286Y83802158D01*
X12664286Y83802158D02*
X12621429Y83759300D01*
X12621429Y83759300D02*
X12535714Y83716443D01*
X12535714Y83716443D02*
X12321429Y83716443D01*
X12321429Y83716443D02*
X12235714Y83759300D01*
X12235714Y83759300D02*
X12192857Y83802158D01*
X104500000Y30446443D02*
X105014286Y30446443D01*
X104757143Y29546443D02*
X104757143Y30446443D01*
X105185714Y30446443D02*
X105485714Y29546443D01*
X105485714Y29546443D02*
X105785714Y30446443D01*
X106042857Y29589300D02*
X106171429Y29546443D01*
X106171429Y29546443D02*
X106385714Y29546443D01*
X106385714Y29546443D02*
X106471429Y29589300D01*
X106471429Y29589300D02*
X106514286Y29632158D01*
X106514286Y29632158D02*
X106557143Y29717872D01*
X106557143Y29717872D02*
X106557143Y29803586D01*
X106557143Y29803586D02*
X106514286Y29889300D01*
X106514286Y29889300D02*
X106471429Y29932158D01*
X106471429Y29932158D02*
X106385714Y29975015D01*
X106385714Y29975015D02*
X106214286Y30017872D01*
X106214286Y30017872D02*
X106128571Y30060729D01*
X106128571Y30060729D02*
X106085714Y30103586D01*
X106085714Y30103586D02*
X106042857Y30189300D01*
X106042857Y30189300D02*
X106042857Y30275015D01*
X106042857Y30275015D02*
X106085714Y30360729D01*
X106085714Y30360729D02*
X106128571Y30403586D01*
X106128571Y30403586D02*
X106214286Y30446443D01*
X106214286Y30446443D02*
X106428571Y30446443D01*
X106428571Y30446443D02*
X106557143Y30403586D01*
X106857143Y30446443D02*
X107414286Y30446443D01*
X107414286Y30446443D02*
X107114286Y30103586D01*
X107114286Y30103586D02*
X107242857Y30103586D01*
X107242857Y30103586D02*
X107328572Y30060729D01*
X107328572Y30060729D02*
X107371429Y30017872D01*
X107371429Y30017872D02*
X107414286Y29932158D01*
X107414286Y29932158D02*
X107414286Y29717872D01*
X107414286Y29717872D02*
X107371429Y29632158D01*
X107371429Y29632158D02*
X107328572Y29589300D01*
X107328572Y29589300D02*
X107242857Y29546443D01*
X107242857Y29546443D02*
X106985714Y29546443D01*
X106985714Y29546443D02*
X106900000Y29589300D01*
X106900000Y29589300D02*
X106857143Y29632158D01*
X88421428Y83432158D02*
X88378571Y83389300D01*
X88378571Y83389300D02*
X88249999Y83346443D01*
X88249999Y83346443D02*
X88164285Y83346443D01*
X88164285Y83346443D02*
X88035714Y83389300D01*
X88035714Y83389300D02*
X87949999Y83475015D01*
X87949999Y83475015D02*
X87907142Y83560729D01*
X87907142Y83560729D02*
X87864285Y83732158D01*
X87864285Y83732158D02*
X87864285Y83860729D01*
X87864285Y83860729D02*
X87907142Y84032158D01*
X87907142Y84032158D02*
X87949999Y84117872D01*
X87949999Y84117872D02*
X88035714Y84203586D01*
X88035714Y84203586D02*
X88164285Y84246443D01*
X88164285Y84246443D02*
X88249999Y84246443D01*
X88249999Y84246443D02*
X88378571Y84203586D01*
X88378571Y84203586D02*
X88421428Y84160729D01*
X89192857Y83946443D02*
X89192857Y83346443D01*
X88978571Y84289300D02*
X88764285Y83646443D01*
X88764285Y83646443D02*
X89321428Y83646443D01*
X89835714Y84246443D02*
X89921428Y84246443D01*
X89921428Y84246443D02*
X90007142Y84203586D01*
X90007142Y84203586D02*
X90050000Y84160729D01*
X90050000Y84160729D02*
X90092857Y84075015D01*
X90092857Y84075015D02*
X90135714Y83903586D01*
X90135714Y83903586D02*
X90135714Y83689300D01*
X90135714Y83689300D02*
X90092857Y83517872D01*
X90092857Y83517872D02*
X90050000Y83432158D01*
X90050000Y83432158D02*
X90007142Y83389300D01*
X90007142Y83389300D02*
X89921428Y83346443D01*
X89921428Y83346443D02*
X89835714Y83346443D01*
X89835714Y83346443D02*
X89750000Y83389300D01*
X89750000Y83389300D02*
X89707142Y83432158D01*
X89707142Y83432158D02*
X89664285Y83517872D01*
X89664285Y83517872D02*
X89621428Y83689300D01*
X89621428Y83689300D02*
X89621428Y83903586D01*
X89621428Y83903586D02*
X89664285Y84075015D01*
X89664285Y84075015D02*
X89707142Y84160729D01*
X89707142Y84160729D02*
X89750000Y84203586D01*
X89750000Y84203586D02*
X89835714Y84246443D01*
X56072842Y44421429D02*
X56115700Y44378572D01*
X56115700Y44378572D02*
X56158557Y44250000D01*
X56158557Y44250000D02*
X56158557Y44164286D01*
X56158557Y44164286D02*
X56115700Y44035715D01*
X56115700Y44035715D02*
X56029985Y43950000D01*
X56029985Y43950000D02*
X55944271Y43907143D01*
X55944271Y43907143D02*
X55772842Y43864286D01*
X55772842Y43864286D02*
X55644271Y43864286D01*
X55644271Y43864286D02*
X55472842Y43907143D01*
X55472842Y43907143D02*
X55387128Y43950000D01*
X55387128Y43950000D02*
X55301414Y44035715D01*
X55301414Y44035715D02*
X55258557Y44164286D01*
X55258557Y44164286D02*
X55258557Y44250000D01*
X55258557Y44250000D02*
X55301414Y44378572D01*
X55301414Y44378572D02*
X55344271Y44421429D01*
X56158557Y45278572D02*
X56158557Y44764286D01*
X56158557Y45021429D02*
X55258557Y45021429D01*
X55258557Y45021429D02*
X55387128Y44935715D01*
X55387128Y44935715D02*
X55472842Y44850000D01*
X55472842Y44850000D02*
X55515700Y44764286D01*
X55344271Y45621429D02*
X55301414Y45664286D01*
X55301414Y45664286D02*
X55258557Y45750000D01*
X55258557Y45750000D02*
X55258557Y45964286D01*
X55258557Y45964286D02*
X55301414Y46050000D01*
X55301414Y46050000D02*
X55344271Y46092858D01*
X55344271Y46092858D02*
X55429985Y46135715D01*
X55429985Y46135715D02*
X55515700Y46135715D01*
X55515700Y46135715D02*
X55644271Y46092858D01*
X55644271Y46092858D02*
X56158557Y45578572D01*
X56158557Y45578572D02*
X56158557Y46135715D01*
X100542857Y33236443D02*
X100542857Y34136443D01*
X100542857Y34136443D02*
X100885714Y34136443D01*
X100885714Y34136443D02*
X100971429Y34093586D01*
X100971429Y34093586D02*
X101014286Y34050729D01*
X101014286Y34050729D02*
X101057143Y33965015D01*
X101057143Y33965015D02*
X101057143Y33836443D01*
X101057143Y33836443D02*
X101014286Y33750729D01*
X101014286Y33750729D02*
X100971429Y33707872D01*
X100971429Y33707872D02*
X100885714Y33665015D01*
X100885714Y33665015D02*
X100542857Y33665015D01*
X101314286Y34136443D02*
X101828572Y34136443D01*
X101571429Y33236443D02*
X101571429Y34136443D01*
X102642857Y33322158D02*
X102600000Y33279300D01*
X102600000Y33279300D02*
X102471428Y33236443D01*
X102471428Y33236443D02*
X102385714Y33236443D01*
X102385714Y33236443D02*
X102257143Y33279300D01*
X102257143Y33279300D02*
X102171428Y33365015D01*
X102171428Y33365015D02*
X102128571Y33450729D01*
X102128571Y33450729D02*
X102085714Y33622158D01*
X102085714Y33622158D02*
X102085714Y33750729D01*
X102085714Y33750729D02*
X102128571Y33922158D01*
X102128571Y33922158D02*
X102171428Y34007872D01*
X102171428Y34007872D02*
X102257143Y34093586D01*
X102257143Y34093586D02*
X102385714Y34136443D01*
X102385714Y34136443D02*
X102471428Y34136443D01*
X102471428Y34136443D02*
X102600000Y34093586D01*
X102600000Y34093586D02*
X102642857Y34050729D01*
X102942857Y34136443D02*
X103500000Y34136443D01*
X103500000Y34136443D02*
X103200000Y33793586D01*
X103200000Y33793586D02*
X103328571Y33793586D01*
X103328571Y33793586D02*
X103414286Y33750729D01*
X103414286Y33750729D02*
X103457143Y33707872D01*
X103457143Y33707872D02*
X103500000Y33622158D01*
X103500000Y33622158D02*
X103500000Y33407872D01*
X103500000Y33407872D02*
X103457143Y33322158D01*
X103457143Y33322158D02*
X103414286Y33279300D01*
X103414286Y33279300D02*
X103328571Y33236443D01*
X103328571Y33236443D02*
X103071428Y33236443D01*
X103071428Y33236443D02*
X102985714Y33279300D01*
X102985714Y33279300D02*
X102942857Y33322158D01*
X41572842Y71171429D02*
X41615700Y71128572D01*
X41615700Y71128572D02*
X41658557Y71000000D01*
X41658557Y71000000D02*
X41658557Y70914286D01*
X41658557Y70914286D02*
X41615700Y70785715D01*
X41615700Y70785715D02*
X41529985Y70700000D01*
X41529985Y70700000D02*
X41444271Y70657143D01*
X41444271Y70657143D02*
X41272842Y70614286D01*
X41272842Y70614286D02*
X41144271Y70614286D01*
X41144271Y70614286D02*
X40972842Y70657143D01*
X40972842Y70657143D02*
X40887128Y70700000D01*
X40887128Y70700000D02*
X40801414Y70785715D01*
X40801414Y70785715D02*
X40758557Y70914286D01*
X40758557Y70914286D02*
X40758557Y71000000D01*
X40758557Y71000000D02*
X40801414Y71128572D01*
X40801414Y71128572D02*
X40844271Y71171429D01*
X40844271Y71514286D02*
X40801414Y71557143D01*
X40801414Y71557143D02*
X40758557Y71642857D01*
X40758557Y71642857D02*
X40758557Y71857143D01*
X40758557Y71857143D02*
X40801414Y71942857D01*
X40801414Y71942857D02*
X40844271Y71985715D01*
X40844271Y71985715D02*
X40929985Y72028572D01*
X40929985Y72028572D02*
X41015700Y72028572D01*
X41015700Y72028572D02*
X41144271Y71985715D01*
X41144271Y71985715D02*
X41658557Y71471429D01*
X41658557Y71471429D02*
X41658557Y72028572D01*
X40758557Y72585715D02*
X40758557Y72671429D01*
X40758557Y72671429D02*
X40801414Y72757143D01*
X40801414Y72757143D02*
X40844271Y72800000D01*
X40844271Y72800000D02*
X40929985Y72842858D01*
X40929985Y72842858D02*
X41101414Y72885715D01*
X41101414Y72885715D02*
X41315700Y72885715D01*
X41315700Y72885715D02*
X41487128Y72842858D01*
X41487128Y72842858D02*
X41572842Y72800000D01*
X41572842Y72800000D02*
X41615700Y72757143D01*
X41615700Y72757143D02*
X41658557Y72671429D01*
X41658557Y72671429D02*
X41658557Y72585715D01*
X41658557Y72585715D02*
X41615700Y72500000D01*
X41615700Y72500000D02*
X41572842Y72457143D01*
X41572842Y72457143D02*
X41487128Y72414286D01*
X41487128Y72414286D02*
X41315700Y72371429D01*
X41315700Y72371429D02*
X41101414Y72371429D01*
X41101414Y72371429D02*
X40929985Y72414286D01*
X40929985Y72414286D02*
X40844271Y72457143D01*
X40844271Y72457143D02*
X40801414Y72500000D01*
X40801414Y72500000D02*
X40758557Y72585715D01*
X99421428Y44432158D02*
X99378571Y44389300D01*
X99378571Y44389300D02*
X99249999Y44346443D01*
X99249999Y44346443D02*
X99164285Y44346443D01*
X99164285Y44346443D02*
X99035714Y44389300D01*
X99035714Y44389300D02*
X98949999Y44475015D01*
X98949999Y44475015D02*
X98907142Y44560729D01*
X98907142Y44560729D02*
X98864285Y44732158D01*
X98864285Y44732158D02*
X98864285Y44860729D01*
X98864285Y44860729D02*
X98907142Y45032158D01*
X98907142Y45032158D02*
X98949999Y45117872D01*
X98949999Y45117872D02*
X99035714Y45203586D01*
X99035714Y45203586D02*
X99164285Y45246443D01*
X99164285Y45246443D02*
X99249999Y45246443D01*
X99249999Y45246443D02*
X99378571Y45203586D01*
X99378571Y45203586D02*
X99421428Y45160729D01*
X99764285Y45160729D02*
X99807142Y45203586D01*
X99807142Y45203586D02*
X99892857Y45246443D01*
X99892857Y45246443D02*
X100107142Y45246443D01*
X100107142Y45246443D02*
X100192857Y45203586D01*
X100192857Y45203586D02*
X100235714Y45160729D01*
X100235714Y45160729D02*
X100278571Y45075015D01*
X100278571Y45075015D02*
X100278571Y44989300D01*
X100278571Y44989300D02*
X100235714Y44860729D01*
X100235714Y44860729D02*
X99721428Y44346443D01*
X99721428Y44346443D02*
X100278571Y44346443D01*
X100578571Y45246443D02*
X101135714Y45246443D01*
X101135714Y45246443D02*
X100835714Y44903586D01*
X100835714Y44903586D02*
X100964285Y44903586D01*
X100964285Y44903586D02*
X101050000Y44860729D01*
X101050000Y44860729D02*
X101092857Y44817872D01*
X101092857Y44817872D02*
X101135714Y44732158D01*
X101135714Y44732158D02*
X101135714Y44517872D01*
X101135714Y44517872D02*
X101092857Y44432158D01*
X101092857Y44432158D02*
X101050000Y44389300D01*
X101050000Y44389300D02*
X100964285Y44346443D01*
X100964285Y44346443D02*
X100707142Y44346443D01*
X100707142Y44346443D02*
X100621428Y44389300D01*
X100621428Y44389300D02*
X100578571Y44432158D01*
X85421428Y44952158D02*
X85378571Y44909300D01*
X85378571Y44909300D02*
X85249999Y44866443D01*
X85249999Y44866443D02*
X85164285Y44866443D01*
X85164285Y44866443D02*
X85035714Y44909300D01*
X85035714Y44909300D02*
X84949999Y44995015D01*
X84949999Y44995015D02*
X84907142Y45080729D01*
X84907142Y45080729D02*
X84864285Y45252158D01*
X84864285Y45252158D02*
X84864285Y45380729D01*
X84864285Y45380729D02*
X84907142Y45552158D01*
X84907142Y45552158D02*
X84949999Y45637872D01*
X84949999Y45637872D02*
X85035714Y45723586D01*
X85035714Y45723586D02*
X85164285Y45766443D01*
X85164285Y45766443D02*
X85249999Y45766443D01*
X85249999Y45766443D02*
X85378571Y45723586D01*
X85378571Y45723586D02*
X85421428Y45680729D01*
X86278571Y44866443D02*
X85764285Y44866443D01*
X86021428Y44866443D02*
X86021428Y45766443D01*
X86021428Y45766443D02*
X85935714Y45637872D01*
X85935714Y45637872D02*
X85849999Y45552158D01*
X85849999Y45552158D02*
X85764285Y45509300D01*
X86792857Y45380729D02*
X86707142Y45423586D01*
X86707142Y45423586D02*
X86664285Y45466443D01*
X86664285Y45466443D02*
X86621428Y45552158D01*
X86621428Y45552158D02*
X86621428Y45595015D01*
X86621428Y45595015D02*
X86664285Y45680729D01*
X86664285Y45680729D02*
X86707142Y45723586D01*
X86707142Y45723586D02*
X86792857Y45766443D01*
X86792857Y45766443D02*
X86964285Y45766443D01*
X86964285Y45766443D02*
X87050000Y45723586D01*
X87050000Y45723586D02*
X87092857Y45680729D01*
X87092857Y45680729D02*
X87135714Y45595015D01*
X87135714Y45595015D02*
X87135714Y45552158D01*
X87135714Y45552158D02*
X87092857Y45466443D01*
X87092857Y45466443D02*
X87050000Y45423586D01*
X87050000Y45423586D02*
X86964285Y45380729D01*
X86964285Y45380729D02*
X86792857Y45380729D01*
X86792857Y45380729D02*
X86707142Y45337872D01*
X86707142Y45337872D02*
X86664285Y45295015D01*
X86664285Y45295015D02*
X86621428Y45209300D01*
X86621428Y45209300D02*
X86621428Y45037872D01*
X86621428Y45037872D02*
X86664285Y44952158D01*
X86664285Y44952158D02*
X86707142Y44909300D01*
X86707142Y44909300D02*
X86792857Y44866443D01*
X86792857Y44866443D02*
X86964285Y44866443D01*
X86964285Y44866443D02*
X87050000Y44909300D01*
X87050000Y44909300D02*
X87092857Y44952158D01*
X87092857Y44952158D02*
X87135714Y45037872D01*
X87135714Y45037872D02*
X87135714Y45209300D01*
X87135714Y45209300D02*
X87092857Y45295015D01*
X87092857Y45295015D02*
X87050000Y45337872D01*
X87050000Y45337872D02*
X86964285Y45380729D01*
X27508557Y79564286D02*
X28237128Y79564286D01*
X28237128Y79564286D02*
X28322842Y79607143D01*
X28322842Y79607143D02*
X28365700Y79650000D01*
X28365700Y79650000D02*
X28408557Y79735715D01*
X28408557Y79735715D02*
X28408557Y79907143D01*
X28408557Y79907143D02*
X28365700Y79992858D01*
X28365700Y79992858D02*
X28322842Y80035715D01*
X28322842Y80035715D02*
X28237128Y80078572D01*
X28237128Y80078572D02*
X27508557Y80078572D01*
X27594271Y80464286D02*
X27551414Y80507143D01*
X27551414Y80507143D02*
X27508557Y80592857D01*
X27508557Y80592857D02*
X27508557Y80807143D01*
X27508557Y80807143D02*
X27551414Y80892857D01*
X27551414Y80892857D02*
X27594271Y80935715D01*
X27594271Y80935715D02*
X27679985Y80978572D01*
X27679985Y80978572D02*
X27765700Y80978572D01*
X27765700Y80978572D02*
X27894271Y80935715D01*
X27894271Y80935715D02*
X28408557Y80421429D01*
X28408557Y80421429D02*
X28408557Y80978572D01*
X16322842Y41850001D02*
X16365700Y41807144D01*
X16365700Y41807144D02*
X16408557Y41678572D01*
X16408557Y41678572D02*
X16408557Y41592858D01*
X16408557Y41592858D02*
X16365700Y41464287D01*
X16365700Y41464287D02*
X16279985Y41378572D01*
X16279985Y41378572D02*
X16194271Y41335715D01*
X16194271Y41335715D02*
X16022842Y41292858D01*
X16022842Y41292858D02*
X15894271Y41292858D01*
X15894271Y41292858D02*
X15722842Y41335715D01*
X15722842Y41335715D02*
X15637128Y41378572D01*
X15637128Y41378572D02*
X15551414Y41464287D01*
X15551414Y41464287D02*
X15508557Y41592858D01*
X15508557Y41592858D02*
X15508557Y41678572D01*
X15508557Y41678572D02*
X15551414Y41807144D01*
X15551414Y41807144D02*
X15594271Y41850001D01*
X15508557Y42150001D02*
X15508557Y42750001D01*
X15508557Y42750001D02*
X16408557Y42364287D01*
X34335714Y28216443D02*
X34335714Y29116443D01*
X34335714Y29116443D02*
X34550000Y29116443D01*
X34550000Y29116443D02*
X34678571Y29073586D01*
X34678571Y29073586D02*
X34764286Y28987872D01*
X34764286Y28987872D02*
X34807143Y28902158D01*
X34807143Y28902158D02*
X34850000Y28730729D01*
X34850000Y28730729D02*
X34850000Y28602158D01*
X34850000Y28602158D02*
X34807143Y28430729D01*
X34807143Y28430729D02*
X34764286Y28345015D01*
X34764286Y28345015D02*
X34678571Y28259300D01*
X34678571Y28259300D02*
X34550000Y28216443D01*
X34550000Y28216443D02*
X34335714Y28216443D01*
X35150000Y29116443D02*
X35707143Y29116443D01*
X35707143Y29116443D02*
X35407143Y28773586D01*
X35407143Y28773586D02*
X35535714Y28773586D01*
X35535714Y28773586D02*
X35621429Y28730729D01*
X35621429Y28730729D02*
X35664286Y28687872D01*
X35664286Y28687872D02*
X35707143Y28602158D01*
X35707143Y28602158D02*
X35707143Y28387872D01*
X35707143Y28387872D02*
X35664286Y28302158D01*
X35664286Y28302158D02*
X35621429Y28259300D01*
X35621429Y28259300D02*
X35535714Y28216443D01*
X35535714Y28216443D02*
X35278571Y28216443D01*
X35278571Y28216443D02*
X35192857Y28259300D01*
X35192857Y28259300D02*
X35150000Y28302158D01*
X21550000Y17282158D02*
X21507143Y17239300D01*
X21507143Y17239300D02*
X21378571Y17196443D01*
X21378571Y17196443D02*
X21292857Y17196443D01*
X21292857Y17196443D02*
X21164286Y17239300D01*
X21164286Y17239300D02*
X21078571Y17325015D01*
X21078571Y17325015D02*
X21035714Y17410729D01*
X21035714Y17410729D02*
X20992857Y17582158D01*
X20992857Y17582158D02*
X20992857Y17710729D01*
X20992857Y17710729D02*
X21035714Y17882158D01*
X21035714Y17882158D02*
X21078571Y17967872D01*
X21078571Y17967872D02*
X21164286Y18053586D01*
X21164286Y18053586D02*
X21292857Y18096443D01*
X21292857Y18096443D02*
X21378571Y18096443D01*
X21378571Y18096443D02*
X21507143Y18053586D01*
X21507143Y18053586D02*
X21550000Y18010729D01*
X21978571Y17196443D02*
X22150000Y17196443D01*
X22150000Y17196443D02*
X22235714Y17239300D01*
X22235714Y17239300D02*
X22278571Y17282158D01*
X22278571Y17282158D02*
X22364286Y17410729D01*
X22364286Y17410729D02*
X22407143Y17582158D01*
X22407143Y17582158D02*
X22407143Y17925015D01*
X22407143Y17925015D02*
X22364286Y18010729D01*
X22364286Y18010729D02*
X22321429Y18053586D01*
X22321429Y18053586D02*
X22235714Y18096443D01*
X22235714Y18096443D02*
X22064286Y18096443D01*
X22064286Y18096443D02*
X21978571Y18053586D01*
X21978571Y18053586D02*
X21935714Y18010729D01*
X21935714Y18010729D02*
X21892857Y17925015D01*
X21892857Y17925015D02*
X21892857Y17710729D01*
X21892857Y17710729D02*
X21935714Y17625015D01*
X21935714Y17625015D02*
X21978571Y17582158D01*
X21978571Y17582158D02*
X22064286Y17539300D01*
X22064286Y17539300D02*
X22235714Y17539300D01*
X22235714Y17539300D02*
X22321429Y17582158D01*
X22321429Y17582158D02*
X22364286Y17625015D01*
X22364286Y17625015D02*
X22407143Y17710729D01*
X67822842Y47171429D02*
X67865700Y47128572D01*
X67865700Y47128572D02*
X67908557Y47000000D01*
X67908557Y47000000D02*
X67908557Y46914286D01*
X67908557Y46914286D02*
X67865700Y46785715D01*
X67865700Y46785715D02*
X67779985Y46700000D01*
X67779985Y46700000D02*
X67694271Y46657143D01*
X67694271Y46657143D02*
X67522842Y46614286D01*
X67522842Y46614286D02*
X67394271Y46614286D01*
X67394271Y46614286D02*
X67222842Y46657143D01*
X67222842Y46657143D02*
X67137128Y46700000D01*
X67137128Y46700000D02*
X67051414Y46785715D01*
X67051414Y46785715D02*
X67008557Y46914286D01*
X67008557Y46914286D02*
X67008557Y47000000D01*
X67008557Y47000000D02*
X67051414Y47128572D01*
X67051414Y47128572D02*
X67094271Y47171429D01*
X67094271Y47514286D02*
X67051414Y47557143D01*
X67051414Y47557143D02*
X67008557Y47642857D01*
X67008557Y47642857D02*
X67008557Y47857143D01*
X67008557Y47857143D02*
X67051414Y47942857D01*
X67051414Y47942857D02*
X67094271Y47985715D01*
X67094271Y47985715D02*
X67179985Y48028572D01*
X67179985Y48028572D02*
X67265700Y48028572D01*
X67265700Y48028572D02*
X67394271Y47985715D01*
X67394271Y47985715D02*
X67908557Y47471429D01*
X67908557Y47471429D02*
X67908557Y48028572D01*
X67094271Y48371429D02*
X67051414Y48414286D01*
X67051414Y48414286D02*
X67008557Y48500000D01*
X67008557Y48500000D02*
X67008557Y48714286D01*
X67008557Y48714286D02*
X67051414Y48800000D01*
X67051414Y48800000D02*
X67094271Y48842858D01*
X67094271Y48842858D02*
X67179985Y48885715D01*
X67179985Y48885715D02*
X67265700Y48885715D01*
X67265700Y48885715D02*
X67394271Y48842858D01*
X67394271Y48842858D02*
X67908557Y48328572D01*
X67908557Y48328572D02*
X67908557Y48885715D01*
X39335714Y87591443D02*
X39335714Y88491443D01*
X39335714Y88491443D02*
X39678571Y88491443D01*
X39678571Y88491443D02*
X39764286Y88448586D01*
X39764286Y88448586D02*
X39807143Y88405729D01*
X39807143Y88405729D02*
X39850000Y88320015D01*
X39850000Y88320015D02*
X39850000Y88191443D01*
X39850000Y88191443D02*
X39807143Y88105729D01*
X39807143Y88105729D02*
X39764286Y88062872D01*
X39764286Y88062872D02*
X39678571Y88020015D01*
X39678571Y88020015D02*
X39335714Y88020015D01*
X40707143Y87591443D02*
X40192857Y87591443D01*
X40450000Y87591443D02*
X40450000Y88491443D01*
X40450000Y88491443D02*
X40364286Y88362872D01*
X40364286Y88362872D02*
X40278571Y88277158D01*
X40278571Y88277158D02*
X40192857Y88234300D01*
D11*
X35389999Y90864717D02*
X35770952Y90864717D01*
X35313809Y90636145D02*
X35580476Y91436145D01*
X35580476Y91436145D02*
X35847142Y90636145D01*
X35999523Y91436145D02*
X36456666Y91436145D01*
X36228094Y90636145D02*
X36228094Y91436145D01*
X36609047Y91436145D02*
X37066190Y91436145D01*
X36837618Y90636145D02*
X36837618Y91436145D01*
X37301429Y90636145D02*
X37301429Y91436145D01*
X37301429Y91436145D02*
X37606191Y91436145D01*
X37606191Y91436145D02*
X37682381Y91398050D01*
X37682381Y91398050D02*
X37720476Y91359955D01*
X37720476Y91359955D02*
X37758572Y91283764D01*
X37758572Y91283764D02*
X37758572Y91169479D01*
X37758572Y91169479D02*
X37720476Y91093288D01*
X37720476Y91093288D02*
X37682381Y91055193D01*
X37682381Y91055193D02*
X37606191Y91017098D01*
X37606191Y91017098D02*
X37301429Y91017098D01*
X38101429Y90636145D02*
X38101429Y91436145D01*
X38101429Y91436145D02*
X38291905Y91436145D01*
X38291905Y91436145D02*
X38406191Y91398050D01*
X38406191Y91398050D02*
X38482381Y91321860D01*
X38482381Y91321860D02*
X38520476Y91245669D01*
X38520476Y91245669D02*
X38558572Y91093288D01*
X38558572Y91093288D02*
X38558572Y90979002D01*
X38558572Y90979002D02*
X38520476Y90826621D01*
X38520476Y90826621D02*
X38482381Y90750431D01*
X38482381Y90750431D02*
X38406191Y90674240D01*
X38406191Y90674240D02*
X38291905Y90636145D01*
X38291905Y90636145D02*
X38101429Y90636145D01*
X39053810Y91436145D02*
X39206191Y91436145D01*
X39206191Y91436145D02*
X39282381Y91398050D01*
X39282381Y91398050D02*
X39358572Y91321860D01*
X39358572Y91321860D02*
X39396667Y91169479D01*
X39396667Y91169479D02*
X39396667Y90902812D01*
X39396667Y90902812D02*
X39358572Y90750431D01*
X39358572Y90750431D02*
X39282381Y90674240D01*
X39282381Y90674240D02*
X39206191Y90636145D01*
X39206191Y90636145D02*
X39053810Y90636145D01*
X39053810Y90636145D02*
X38977619Y90674240D01*
X38977619Y90674240D02*
X38901429Y90750431D01*
X38901429Y90750431D02*
X38863333Y90902812D01*
X38863333Y90902812D02*
X38863333Y91169479D01*
X38863333Y91169479D02*
X38901429Y91321860D01*
X38901429Y91321860D02*
X38977619Y91398050D01*
X38977619Y91398050D02*
X39053810Y91436145D01*
X39739524Y90636145D02*
X39739524Y91436145D01*
X40196667Y90636145D02*
X39853809Y91093288D01*
X40196667Y91436145D02*
X39739524Y90979002D01*
X40660476Y91398050D02*
X40584286Y91436145D01*
X40584286Y91436145D02*
X40470000Y91436145D01*
X40470000Y91436145D02*
X40355714Y91398050D01*
X40355714Y91398050D02*
X40279524Y91321860D01*
X40279524Y91321860D02*
X40241429Y91245669D01*
X40241429Y91245669D02*
X40203333Y91093288D01*
X40203333Y91093288D02*
X40203333Y90979002D01*
X40203333Y90979002D02*
X40241429Y90826621D01*
X40241429Y90826621D02*
X40279524Y90750431D01*
X40279524Y90750431D02*
X40355714Y90674240D01*
X40355714Y90674240D02*
X40470000Y90636145D01*
X40470000Y90636145D02*
X40546191Y90636145D01*
X40546191Y90636145D02*
X40660476Y90674240D01*
X40660476Y90674240D02*
X40698572Y90712336D01*
X40698572Y90712336D02*
X40698572Y90979002D01*
X40698572Y90979002D02*
X40546191Y90979002D01*
X41041429Y90636145D02*
X41041429Y91436145D01*
X41041429Y91436145D02*
X41498572Y90636145D01*
X41498572Y90636145D02*
X41498572Y91436145D01*
X41879524Y90636145D02*
X41879524Y91436145D01*
X41879524Y91436145D02*
X42070000Y91436145D01*
X42070000Y91436145D02*
X42184286Y91398050D01*
X42184286Y91398050D02*
X42260476Y91321860D01*
X42260476Y91321860D02*
X42298571Y91245669D01*
X42298571Y91245669D02*
X42336667Y91093288D01*
X42336667Y91093288D02*
X42336667Y90979002D01*
X42336667Y90979002D02*
X42298571Y90826621D01*
X42298571Y90826621D02*
X42260476Y90750431D01*
X42260476Y90750431D02*
X42184286Y90674240D01*
X42184286Y90674240D02*
X42070000Y90636145D01*
X42070000Y90636145D02*
X41879524Y90636145D01*
X43181429Y90636145D02*
X43181429Y91436145D01*
X43181429Y91436145D02*
X43638572Y90636145D01*
X43638572Y90636145D02*
X43638572Y91436145D01*
X44476667Y90712336D02*
X44438571Y90674240D01*
X44438571Y90674240D02*
X44324286Y90636145D01*
X44324286Y90636145D02*
X44248095Y90636145D01*
X44248095Y90636145D02*
X44133809Y90674240D01*
X44133809Y90674240D02*
X44057619Y90750431D01*
X44057619Y90750431D02*
X44019524Y90826621D01*
X44019524Y90826621D02*
X43981428Y90979002D01*
X43981428Y90979002D02*
X43981428Y91093288D01*
X43981428Y91093288D02*
X44019524Y91245669D01*
X44019524Y91245669D02*
X44057619Y91321860D01*
X44057619Y91321860D02*
X44133809Y91398050D01*
X44133809Y91398050D02*
X44248095Y91436145D01*
X44248095Y91436145D02*
X44324286Y91436145D01*
X44324286Y91436145D02*
X44438571Y91398050D01*
X44438571Y91398050D02*
X44476667Y91359955D01*
D10*
X80771428Y16266443D02*
X80771428Y15623586D01*
X80771428Y15623586D02*
X80728571Y15495015D01*
X80728571Y15495015D02*
X80642857Y15409300D01*
X80642857Y15409300D02*
X80514285Y15366443D01*
X80514285Y15366443D02*
X80428571Y15366443D01*
X81671428Y15366443D02*
X81157142Y15366443D01*
X81414285Y15366443D02*
X81414285Y16266443D01*
X81414285Y16266443D02*
X81328571Y16137872D01*
X81328571Y16137872D02*
X81242856Y16052158D01*
X81242856Y16052158D02*
X81157142Y16009300D01*
X82528571Y15366443D02*
X82014285Y15366443D01*
X82271428Y15366443D02*
X82271428Y16266443D01*
X82271428Y16266443D02*
X82185714Y16137872D01*
X82185714Y16137872D02*
X82099999Y16052158D01*
X82099999Y16052158D02*
X82014285Y16009300D01*
X32572842Y20171429D02*
X32615700Y20128572D01*
X32615700Y20128572D02*
X32658557Y20000000D01*
X32658557Y20000000D02*
X32658557Y19914286D01*
X32658557Y19914286D02*
X32615700Y19785715D01*
X32615700Y19785715D02*
X32529985Y19700000D01*
X32529985Y19700000D02*
X32444271Y19657143D01*
X32444271Y19657143D02*
X32272842Y19614286D01*
X32272842Y19614286D02*
X32144271Y19614286D01*
X32144271Y19614286D02*
X31972842Y19657143D01*
X31972842Y19657143D02*
X31887128Y19700000D01*
X31887128Y19700000D02*
X31801414Y19785715D01*
X31801414Y19785715D02*
X31758557Y19914286D01*
X31758557Y19914286D02*
X31758557Y20000000D01*
X31758557Y20000000D02*
X31801414Y20128572D01*
X31801414Y20128572D02*
X31844271Y20171429D01*
X32658557Y21028572D02*
X32658557Y20514286D01*
X32658557Y20771429D02*
X31758557Y20771429D01*
X31758557Y20771429D02*
X31887128Y20685715D01*
X31887128Y20685715D02*
X31972842Y20600000D01*
X31972842Y20600000D02*
X32015700Y20514286D01*
X31758557Y21585715D02*
X31758557Y21671429D01*
X31758557Y21671429D02*
X31801414Y21757143D01*
X31801414Y21757143D02*
X31844271Y21800000D01*
X31844271Y21800000D02*
X31929985Y21842858D01*
X31929985Y21842858D02*
X32101414Y21885715D01*
X32101414Y21885715D02*
X32315700Y21885715D01*
X32315700Y21885715D02*
X32487128Y21842858D01*
X32487128Y21842858D02*
X32572842Y21800000D01*
X32572842Y21800000D02*
X32615700Y21757143D01*
X32615700Y21757143D02*
X32658557Y21671429D01*
X32658557Y21671429D02*
X32658557Y21585715D01*
X32658557Y21585715D02*
X32615700Y21500000D01*
X32615700Y21500000D02*
X32572842Y21457143D01*
X32572842Y21457143D02*
X32487128Y21414286D01*
X32487128Y21414286D02*
X32315700Y21371429D01*
X32315700Y21371429D02*
X32101414Y21371429D01*
X32101414Y21371429D02*
X31929985Y21414286D01*
X31929985Y21414286D02*
X31844271Y21457143D01*
X31844271Y21457143D02*
X31801414Y21500000D01*
X31801414Y21500000D02*
X31758557Y21585715D01*
X5700000Y26996443D02*
X5700000Y26353586D01*
X5700000Y26353586D02*
X5657143Y26225015D01*
X5657143Y26225015D02*
X5571429Y26139300D01*
X5571429Y26139300D02*
X5442857Y26096443D01*
X5442857Y26096443D02*
X5357143Y26096443D01*
X6042857Y26996443D02*
X6642857Y26996443D01*
X6642857Y26996443D02*
X6257143Y26096443D01*
X33850000Y59626443D02*
X33550000Y60055015D01*
X33335714Y59626443D02*
X33335714Y60526443D01*
X33335714Y60526443D02*
X33678571Y60526443D01*
X33678571Y60526443D02*
X33764286Y60483586D01*
X33764286Y60483586D02*
X33807143Y60440729D01*
X33807143Y60440729D02*
X33850000Y60355015D01*
X33850000Y60355015D02*
X33850000Y60226443D01*
X33850000Y60226443D02*
X33807143Y60140729D01*
X33807143Y60140729D02*
X33764286Y60097872D01*
X33764286Y60097872D02*
X33678571Y60055015D01*
X33678571Y60055015D02*
X33335714Y60055015D01*
X34150000Y60526443D02*
X34707143Y60526443D01*
X34707143Y60526443D02*
X34407143Y60183586D01*
X34407143Y60183586D02*
X34535714Y60183586D01*
X34535714Y60183586D02*
X34621429Y60140729D01*
X34621429Y60140729D02*
X34664286Y60097872D01*
X34664286Y60097872D02*
X34707143Y60012158D01*
X34707143Y60012158D02*
X34707143Y59797872D01*
X34707143Y59797872D02*
X34664286Y59712158D01*
X34664286Y59712158D02*
X34621429Y59669300D01*
X34621429Y59669300D02*
X34535714Y59626443D01*
X34535714Y59626443D02*
X34278571Y59626443D01*
X34278571Y59626443D02*
X34192857Y59669300D01*
X34192857Y59669300D02*
X34150000Y59712158D01*
X37721428Y37952158D02*
X37678571Y37909300D01*
X37678571Y37909300D02*
X37549999Y37866443D01*
X37549999Y37866443D02*
X37464285Y37866443D01*
X37464285Y37866443D02*
X37335714Y37909300D01*
X37335714Y37909300D02*
X37249999Y37995015D01*
X37249999Y37995015D02*
X37207142Y38080729D01*
X37207142Y38080729D02*
X37164285Y38252158D01*
X37164285Y38252158D02*
X37164285Y38380729D01*
X37164285Y38380729D02*
X37207142Y38552158D01*
X37207142Y38552158D02*
X37249999Y38637872D01*
X37249999Y38637872D02*
X37335714Y38723586D01*
X37335714Y38723586D02*
X37464285Y38766443D01*
X37464285Y38766443D02*
X37549999Y38766443D01*
X37549999Y38766443D02*
X37678571Y38723586D01*
X37678571Y38723586D02*
X37721428Y38680729D01*
X38021428Y38766443D02*
X38578571Y38766443D01*
X38578571Y38766443D02*
X38278571Y38423586D01*
X38278571Y38423586D02*
X38407142Y38423586D01*
X38407142Y38423586D02*
X38492857Y38380729D01*
X38492857Y38380729D02*
X38535714Y38337872D01*
X38535714Y38337872D02*
X38578571Y38252158D01*
X38578571Y38252158D02*
X38578571Y38037872D01*
X38578571Y38037872D02*
X38535714Y37952158D01*
X38535714Y37952158D02*
X38492857Y37909300D01*
X38492857Y37909300D02*
X38407142Y37866443D01*
X38407142Y37866443D02*
X38149999Y37866443D01*
X38149999Y37866443D02*
X38064285Y37909300D01*
X38064285Y37909300D02*
X38021428Y37952158D01*
X38878571Y38766443D02*
X39435714Y38766443D01*
X39435714Y38766443D02*
X39135714Y38423586D01*
X39135714Y38423586D02*
X39264285Y38423586D01*
X39264285Y38423586D02*
X39350000Y38380729D01*
X39350000Y38380729D02*
X39392857Y38337872D01*
X39392857Y38337872D02*
X39435714Y38252158D01*
X39435714Y38252158D02*
X39435714Y38037872D01*
X39435714Y38037872D02*
X39392857Y37952158D01*
X39392857Y37952158D02*
X39350000Y37909300D01*
X39350000Y37909300D02*
X39264285Y37866443D01*
X39264285Y37866443D02*
X39007142Y37866443D01*
X39007142Y37866443D02*
X38921428Y37909300D01*
X38921428Y37909300D02*
X38878571Y37952158D01*
X76314285Y58466443D02*
X76314285Y57737872D01*
X76314285Y57737872D02*
X76357142Y57652158D01*
X76357142Y57652158D02*
X76400000Y57609300D01*
X76400000Y57609300D02*
X76485714Y57566443D01*
X76485714Y57566443D02*
X76657142Y57566443D01*
X76657142Y57566443D02*
X76742857Y57609300D01*
X76742857Y57609300D02*
X76785714Y57652158D01*
X76785714Y57652158D02*
X76828571Y57737872D01*
X76828571Y57737872D02*
X76828571Y58466443D01*
X77171428Y58466443D02*
X77771428Y58466443D01*
X77771428Y58466443D02*
X77385714Y57566443D01*
X87908557Y59421429D02*
X87479985Y59121429D01*
X87908557Y58907143D02*
X87008557Y58907143D01*
X87008557Y58907143D02*
X87008557Y59250000D01*
X87008557Y59250000D02*
X87051414Y59335715D01*
X87051414Y59335715D02*
X87094271Y59378572D01*
X87094271Y59378572D02*
X87179985Y59421429D01*
X87179985Y59421429D02*
X87308557Y59421429D01*
X87308557Y59421429D02*
X87394271Y59378572D01*
X87394271Y59378572D02*
X87437128Y59335715D01*
X87437128Y59335715D02*
X87479985Y59250000D01*
X87479985Y59250000D02*
X87479985Y58907143D01*
X87094271Y59764286D02*
X87051414Y59807143D01*
X87051414Y59807143D02*
X87008557Y59892857D01*
X87008557Y59892857D02*
X87008557Y60107143D01*
X87008557Y60107143D02*
X87051414Y60192857D01*
X87051414Y60192857D02*
X87094271Y60235715D01*
X87094271Y60235715D02*
X87179985Y60278572D01*
X87179985Y60278572D02*
X87265700Y60278572D01*
X87265700Y60278572D02*
X87394271Y60235715D01*
X87394271Y60235715D02*
X87908557Y59721429D01*
X87908557Y59721429D02*
X87908557Y60278572D01*
X87308557Y61050000D02*
X87908557Y61050000D01*
X86965700Y60835715D02*
X87608557Y60621429D01*
X87608557Y60621429D02*
X87608557Y61178572D01*
X5700000Y50996443D02*
X5700000Y50353586D01*
X5700000Y50353586D02*
X5657143Y50225015D01*
X5657143Y50225015D02*
X5571429Y50139300D01*
X5571429Y50139300D02*
X5442857Y50096443D01*
X5442857Y50096443D02*
X5357143Y50096443D01*
X6514286Y50996443D02*
X6342857Y50996443D01*
X6342857Y50996443D02*
X6257143Y50953586D01*
X6257143Y50953586D02*
X6214286Y50910729D01*
X6214286Y50910729D02*
X6128571Y50782158D01*
X6128571Y50782158D02*
X6085714Y50610729D01*
X6085714Y50610729D02*
X6085714Y50267872D01*
X6085714Y50267872D02*
X6128571Y50182158D01*
X6128571Y50182158D02*
X6171428Y50139300D01*
X6171428Y50139300D02*
X6257143Y50096443D01*
X6257143Y50096443D02*
X6428571Y50096443D01*
X6428571Y50096443D02*
X6514286Y50139300D01*
X6514286Y50139300D02*
X6557143Y50182158D01*
X6557143Y50182158D02*
X6600000Y50267872D01*
X6600000Y50267872D02*
X6600000Y50482158D01*
X6600000Y50482158D02*
X6557143Y50567872D01*
X6557143Y50567872D02*
X6514286Y50610729D01*
X6514286Y50610729D02*
X6428571Y50653586D01*
X6428571Y50653586D02*
X6257143Y50653586D01*
X6257143Y50653586D02*
X6171428Y50610729D01*
X6171428Y50610729D02*
X6128571Y50567872D01*
X6128571Y50567872D02*
X6085714Y50482158D01*
X55072842Y76921429D02*
X55115700Y76878572D01*
X55115700Y76878572D02*
X55158557Y76750000D01*
X55158557Y76750000D02*
X55158557Y76664286D01*
X55158557Y76664286D02*
X55115700Y76535715D01*
X55115700Y76535715D02*
X55029985Y76450000D01*
X55029985Y76450000D02*
X54944271Y76407143D01*
X54944271Y76407143D02*
X54772842Y76364286D01*
X54772842Y76364286D02*
X54644271Y76364286D01*
X54644271Y76364286D02*
X54472842Y76407143D01*
X54472842Y76407143D02*
X54387128Y76450000D01*
X54387128Y76450000D02*
X54301414Y76535715D01*
X54301414Y76535715D02*
X54258557Y76664286D01*
X54258557Y76664286D02*
X54258557Y76750000D01*
X54258557Y76750000D02*
X54301414Y76878572D01*
X54301414Y76878572D02*
X54344271Y76921429D01*
X54258557Y77221429D02*
X54258557Y77778572D01*
X54258557Y77778572D02*
X54601414Y77478572D01*
X54601414Y77478572D02*
X54601414Y77607143D01*
X54601414Y77607143D02*
X54644271Y77692857D01*
X54644271Y77692857D02*
X54687128Y77735715D01*
X54687128Y77735715D02*
X54772842Y77778572D01*
X54772842Y77778572D02*
X54987128Y77778572D01*
X54987128Y77778572D02*
X55072842Y77735715D01*
X55072842Y77735715D02*
X55115700Y77692857D01*
X55115700Y77692857D02*
X55158557Y77607143D01*
X55158557Y77607143D02*
X55158557Y77350000D01*
X55158557Y77350000D02*
X55115700Y77264286D01*
X55115700Y77264286D02*
X55072842Y77221429D01*
X54258557Y78078572D02*
X54258557Y78678572D01*
X54258557Y78678572D02*
X55158557Y78292858D01*
X61850000Y55432158D02*
X61807143Y55389300D01*
X61807143Y55389300D02*
X61678571Y55346443D01*
X61678571Y55346443D02*
X61592857Y55346443D01*
X61592857Y55346443D02*
X61464286Y55389300D01*
X61464286Y55389300D02*
X61378571Y55475015D01*
X61378571Y55475015D02*
X61335714Y55560729D01*
X61335714Y55560729D02*
X61292857Y55732158D01*
X61292857Y55732158D02*
X61292857Y55860729D01*
X61292857Y55860729D02*
X61335714Y56032158D01*
X61335714Y56032158D02*
X61378571Y56117872D01*
X61378571Y56117872D02*
X61464286Y56203586D01*
X61464286Y56203586D02*
X61592857Y56246443D01*
X61592857Y56246443D02*
X61678571Y56246443D01*
X61678571Y56246443D02*
X61807143Y56203586D01*
X61807143Y56203586D02*
X61850000Y56160729D01*
X62621429Y55946443D02*
X62621429Y55346443D01*
X62407143Y56289300D02*
X62192857Y55646443D01*
X62192857Y55646443D02*
X62750000Y55646443D01*
X61864286Y66616443D02*
X62378572Y66616443D01*
X62121429Y65716443D02*
X62121429Y66616443D01*
X62678571Y65716443D02*
X62678571Y66616443D01*
X62678571Y66616443D02*
X63021428Y66616443D01*
X63021428Y66616443D02*
X63107143Y66573586D01*
X63107143Y66573586D02*
X63150000Y66530729D01*
X63150000Y66530729D02*
X63192857Y66445015D01*
X63192857Y66445015D02*
X63192857Y66316443D01*
X63192857Y66316443D02*
X63150000Y66230729D01*
X63150000Y66230729D02*
X63107143Y66187872D01*
X63107143Y66187872D02*
X63021428Y66145015D01*
X63021428Y66145015D02*
X62678571Y66145015D01*
X63964286Y66316443D02*
X63964286Y65716443D01*
X63750000Y66659300D02*
X63535714Y66016443D01*
X63535714Y66016443D02*
X64092857Y66016443D01*
X25850000Y85356443D02*
X25550000Y85785015D01*
X25335714Y85356443D02*
X25335714Y86256443D01*
X25335714Y86256443D02*
X25678571Y86256443D01*
X25678571Y86256443D02*
X25764286Y86213586D01*
X25764286Y86213586D02*
X25807143Y86170729D01*
X25807143Y86170729D02*
X25850000Y86085015D01*
X25850000Y86085015D02*
X25850000Y85956443D01*
X25850000Y85956443D02*
X25807143Y85870729D01*
X25807143Y85870729D02*
X25764286Y85827872D01*
X25764286Y85827872D02*
X25678571Y85785015D01*
X25678571Y85785015D02*
X25335714Y85785015D01*
X26707143Y85356443D02*
X26192857Y85356443D01*
X26450000Y85356443D02*
X26450000Y86256443D01*
X26450000Y86256443D02*
X26364286Y86127872D01*
X26364286Y86127872D02*
X26278571Y86042158D01*
X26278571Y86042158D02*
X26192857Y85999300D01*
X67008557Y37364287D02*
X67008557Y37878572D01*
X67908557Y37621430D02*
X67008557Y37621430D01*
X67908557Y38178572D02*
X67008557Y38178572D01*
X67008557Y38178572D02*
X67008557Y38521429D01*
X67008557Y38521429D02*
X67051414Y38607144D01*
X67051414Y38607144D02*
X67094271Y38650001D01*
X67094271Y38650001D02*
X67179985Y38692858D01*
X67179985Y38692858D02*
X67308557Y38692858D01*
X67308557Y38692858D02*
X67394271Y38650001D01*
X67394271Y38650001D02*
X67437128Y38607144D01*
X67437128Y38607144D02*
X67479985Y38521429D01*
X67479985Y38521429D02*
X67479985Y38178572D01*
X67008557Y39507144D02*
X67008557Y39078572D01*
X67008557Y39078572D02*
X67437128Y39035715D01*
X67437128Y39035715D02*
X67394271Y39078572D01*
X67394271Y39078572D02*
X67351414Y39164286D01*
X67351414Y39164286D02*
X67351414Y39378572D01*
X67351414Y39378572D02*
X67394271Y39464286D01*
X67394271Y39464286D02*
X67437128Y39507144D01*
X67437128Y39507144D02*
X67522842Y39550001D01*
X67522842Y39550001D02*
X67737128Y39550001D01*
X67737128Y39550001D02*
X67822842Y39507144D01*
X67822842Y39507144D02*
X67865700Y39464286D01*
X67865700Y39464286D02*
X67908557Y39378572D01*
X67908557Y39378572D02*
X67908557Y39164286D01*
X67908557Y39164286D02*
X67865700Y39078572D01*
X67865700Y39078572D02*
X67822842Y39035715D01*
X104500000Y53146443D02*
X105014286Y53146443D01*
X104757143Y52246443D02*
X104757143Y53146443D01*
X105185714Y53146443D02*
X105485714Y52246443D01*
X105485714Y52246443D02*
X105785714Y53146443D01*
X106042857Y52289300D02*
X106171429Y52246443D01*
X106171429Y52246443D02*
X106385714Y52246443D01*
X106385714Y52246443D02*
X106471429Y52289300D01*
X106471429Y52289300D02*
X106514286Y52332158D01*
X106514286Y52332158D02*
X106557143Y52417872D01*
X106557143Y52417872D02*
X106557143Y52503586D01*
X106557143Y52503586D02*
X106514286Y52589300D01*
X106514286Y52589300D02*
X106471429Y52632158D01*
X106471429Y52632158D02*
X106385714Y52675015D01*
X106385714Y52675015D02*
X106214286Y52717872D01*
X106214286Y52717872D02*
X106128571Y52760729D01*
X106128571Y52760729D02*
X106085714Y52803586D01*
X106085714Y52803586D02*
X106042857Y52889300D01*
X106042857Y52889300D02*
X106042857Y52975015D01*
X106042857Y52975015D02*
X106085714Y53060729D01*
X106085714Y53060729D02*
X106128571Y53103586D01*
X106128571Y53103586D02*
X106214286Y53146443D01*
X106214286Y53146443D02*
X106428571Y53146443D01*
X106428571Y53146443D02*
X106557143Y53103586D01*
X106900000Y53060729D02*
X106942857Y53103586D01*
X106942857Y53103586D02*
X107028572Y53146443D01*
X107028572Y53146443D02*
X107242857Y53146443D01*
X107242857Y53146443D02*
X107328572Y53103586D01*
X107328572Y53103586D02*
X107371429Y53060729D01*
X107371429Y53060729D02*
X107414286Y52975015D01*
X107414286Y52975015D02*
X107414286Y52889300D01*
X107414286Y52889300D02*
X107371429Y52760729D01*
X107371429Y52760729D02*
X106857143Y52246443D01*
X106857143Y52246443D02*
X107414286Y52246443D01*
X76314285Y86466443D02*
X76314285Y85737872D01*
X76314285Y85737872D02*
X76357142Y85652158D01*
X76357142Y85652158D02*
X76400000Y85609300D01*
X76400000Y85609300D02*
X76485714Y85566443D01*
X76485714Y85566443D02*
X76657142Y85566443D01*
X76657142Y85566443D02*
X76742857Y85609300D01*
X76742857Y85609300D02*
X76785714Y85652158D01*
X76785714Y85652158D02*
X76828571Y85737872D01*
X76828571Y85737872D02*
X76828571Y86466443D01*
X77642857Y86466443D02*
X77471428Y86466443D01*
X77471428Y86466443D02*
X77385714Y86423586D01*
X77385714Y86423586D02*
X77342857Y86380729D01*
X77342857Y86380729D02*
X77257142Y86252158D01*
X77257142Y86252158D02*
X77214285Y86080729D01*
X77214285Y86080729D02*
X77214285Y85737872D01*
X77214285Y85737872D02*
X77257142Y85652158D01*
X77257142Y85652158D02*
X77299999Y85609300D01*
X77299999Y85609300D02*
X77385714Y85566443D01*
X77385714Y85566443D02*
X77557142Y85566443D01*
X77557142Y85566443D02*
X77642857Y85609300D01*
X77642857Y85609300D02*
X77685714Y85652158D01*
X77685714Y85652158D02*
X77728571Y85737872D01*
X77728571Y85737872D02*
X77728571Y85952158D01*
X77728571Y85952158D02*
X77685714Y86037872D01*
X77685714Y86037872D02*
X77642857Y86080729D01*
X77642857Y86080729D02*
X77557142Y86123586D01*
X77557142Y86123586D02*
X77385714Y86123586D01*
X77385714Y86123586D02*
X77299999Y86080729D01*
X77299999Y86080729D02*
X77257142Y86037872D01*
X77257142Y86037872D02*
X77214285Y85952158D01*
X89421428Y90626443D02*
X89121428Y91055015D01*
X88907142Y90626443D02*
X88907142Y91526443D01*
X88907142Y91526443D02*
X89249999Y91526443D01*
X89249999Y91526443D02*
X89335714Y91483586D01*
X89335714Y91483586D02*
X89378571Y91440729D01*
X89378571Y91440729D02*
X89421428Y91355015D01*
X89421428Y91355015D02*
X89421428Y91226443D01*
X89421428Y91226443D02*
X89378571Y91140729D01*
X89378571Y91140729D02*
X89335714Y91097872D01*
X89335714Y91097872D02*
X89249999Y91055015D01*
X89249999Y91055015D02*
X88907142Y91055015D01*
X89764285Y91440729D02*
X89807142Y91483586D01*
X89807142Y91483586D02*
X89892857Y91526443D01*
X89892857Y91526443D02*
X90107142Y91526443D01*
X90107142Y91526443D02*
X90192857Y91483586D01*
X90192857Y91483586D02*
X90235714Y91440729D01*
X90235714Y91440729D02*
X90278571Y91355015D01*
X90278571Y91355015D02*
X90278571Y91269300D01*
X90278571Y91269300D02*
X90235714Y91140729D01*
X90235714Y91140729D02*
X89721428Y90626443D01*
X89721428Y90626443D02*
X90278571Y90626443D01*
X90835714Y91526443D02*
X90921428Y91526443D01*
X90921428Y91526443D02*
X91007142Y91483586D01*
X91007142Y91483586D02*
X91050000Y91440729D01*
X91050000Y91440729D02*
X91092857Y91355015D01*
X91092857Y91355015D02*
X91135714Y91183586D01*
X91135714Y91183586D02*
X91135714Y90969300D01*
X91135714Y90969300D02*
X91092857Y90797872D01*
X91092857Y90797872D02*
X91050000Y90712158D01*
X91050000Y90712158D02*
X91007142Y90669300D01*
X91007142Y90669300D02*
X90921428Y90626443D01*
X90921428Y90626443D02*
X90835714Y90626443D01*
X90835714Y90626443D02*
X90750000Y90669300D01*
X90750000Y90669300D02*
X90707142Y90712158D01*
X90707142Y90712158D02*
X90664285Y90797872D01*
X90664285Y90797872D02*
X90621428Y90969300D01*
X90621428Y90969300D02*
X90621428Y91183586D01*
X90621428Y91183586D02*
X90664285Y91355015D01*
X90664285Y91355015D02*
X90707142Y91440729D01*
X90707142Y91440729D02*
X90750000Y91483586D01*
X90750000Y91483586D02*
X90835714Y91526443D01*
X36850000Y81466443D02*
X36421428Y81466443D01*
X36421428Y81466443D02*
X36421428Y82366443D01*
X37621428Y81466443D02*
X37107142Y81466443D01*
X37364285Y81466443D02*
X37364285Y82366443D01*
X37364285Y82366443D02*
X37278571Y82237872D01*
X37278571Y82237872D02*
X37192856Y82152158D01*
X37192856Y82152158D02*
X37107142Y82109300D01*
X29421428Y84512158D02*
X29378571Y84469300D01*
X29378571Y84469300D02*
X29249999Y84426443D01*
X29249999Y84426443D02*
X29164285Y84426443D01*
X29164285Y84426443D02*
X29035714Y84469300D01*
X29035714Y84469300D02*
X28949999Y84555015D01*
X28949999Y84555015D02*
X28907142Y84640729D01*
X28907142Y84640729D02*
X28864285Y84812158D01*
X28864285Y84812158D02*
X28864285Y84940729D01*
X28864285Y84940729D02*
X28907142Y85112158D01*
X28907142Y85112158D02*
X28949999Y85197872D01*
X28949999Y85197872D02*
X29035714Y85283586D01*
X29035714Y85283586D02*
X29164285Y85326443D01*
X29164285Y85326443D02*
X29249999Y85326443D01*
X29249999Y85326443D02*
X29378571Y85283586D01*
X29378571Y85283586D02*
X29421428Y85240729D01*
X29721428Y85326443D02*
X30278571Y85326443D01*
X30278571Y85326443D02*
X29978571Y84983586D01*
X29978571Y84983586D02*
X30107142Y84983586D01*
X30107142Y84983586D02*
X30192857Y84940729D01*
X30192857Y84940729D02*
X30235714Y84897872D01*
X30235714Y84897872D02*
X30278571Y84812158D01*
X30278571Y84812158D02*
X30278571Y84597872D01*
X30278571Y84597872D02*
X30235714Y84512158D01*
X30235714Y84512158D02*
X30192857Y84469300D01*
X30192857Y84469300D02*
X30107142Y84426443D01*
X30107142Y84426443D02*
X29849999Y84426443D01*
X29849999Y84426443D02*
X29764285Y84469300D01*
X29764285Y84469300D02*
X29721428Y84512158D01*
X30792857Y84940729D02*
X30707142Y84983586D01*
X30707142Y84983586D02*
X30664285Y85026443D01*
X30664285Y85026443D02*
X30621428Y85112158D01*
X30621428Y85112158D02*
X30621428Y85155015D01*
X30621428Y85155015D02*
X30664285Y85240729D01*
X30664285Y85240729D02*
X30707142Y85283586D01*
X30707142Y85283586D02*
X30792857Y85326443D01*
X30792857Y85326443D02*
X30964285Y85326443D01*
X30964285Y85326443D02*
X31050000Y85283586D01*
X31050000Y85283586D02*
X31092857Y85240729D01*
X31092857Y85240729D02*
X31135714Y85155015D01*
X31135714Y85155015D02*
X31135714Y85112158D01*
X31135714Y85112158D02*
X31092857Y85026443D01*
X31092857Y85026443D02*
X31050000Y84983586D01*
X31050000Y84983586D02*
X30964285Y84940729D01*
X30964285Y84940729D02*
X30792857Y84940729D01*
X30792857Y84940729D02*
X30707142Y84897872D01*
X30707142Y84897872D02*
X30664285Y84855015D01*
X30664285Y84855015D02*
X30621428Y84769300D01*
X30621428Y84769300D02*
X30621428Y84597872D01*
X30621428Y84597872D02*
X30664285Y84512158D01*
X30664285Y84512158D02*
X30707142Y84469300D01*
X30707142Y84469300D02*
X30792857Y84426443D01*
X30792857Y84426443D02*
X30964285Y84426443D01*
X30964285Y84426443D02*
X31050000Y84469300D01*
X31050000Y84469300D02*
X31092857Y84512158D01*
X31092857Y84512158D02*
X31135714Y84597872D01*
X31135714Y84597872D02*
X31135714Y84769300D01*
X31135714Y84769300D02*
X31092857Y84855015D01*
X31092857Y84855015D02*
X31050000Y84897872D01*
X31050000Y84897872D02*
X30964285Y84940729D01*
X56072842Y25171429D02*
X56115700Y25128572D01*
X56115700Y25128572D02*
X56158557Y25000000D01*
X56158557Y25000000D02*
X56158557Y24914286D01*
X56158557Y24914286D02*
X56115700Y24785715D01*
X56115700Y24785715D02*
X56029985Y24700000D01*
X56029985Y24700000D02*
X55944271Y24657143D01*
X55944271Y24657143D02*
X55772842Y24614286D01*
X55772842Y24614286D02*
X55644271Y24614286D01*
X55644271Y24614286D02*
X55472842Y24657143D01*
X55472842Y24657143D02*
X55387128Y24700000D01*
X55387128Y24700000D02*
X55301414Y24785715D01*
X55301414Y24785715D02*
X55258557Y24914286D01*
X55258557Y24914286D02*
X55258557Y25000000D01*
X55258557Y25000000D02*
X55301414Y25128572D01*
X55301414Y25128572D02*
X55344271Y25171429D01*
X55344271Y25514286D02*
X55301414Y25557143D01*
X55301414Y25557143D02*
X55258557Y25642857D01*
X55258557Y25642857D02*
X55258557Y25857143D01*
X55258557Y25857143D02*
X55301414Y25942857D01*
X55301414Y25942857D02*
X55344271Y25985715D01*
X55344271Y25985715D02*
X55429985Y26028572D01*
X55429985Y26028572D02*
X55515700Y26028572D01*
X55515700Y26028572D02*
X55644271Y25985715D01*
X55644271Y25985715D02*
X56158557Y25471429D01*
X56158557Y25471429D02*
X56158557Y26028572D01*
X55558557Y26800000D02*
X56158557Y26800000D01*
X55215700Y26585715D02*
X55858557Y26371429D01*
X55858557Y26371429D02*
X55858557Y26928572D01*
X28850000Y75952159D02*
X28807143Y75909301D01*
X28807143Y75909301D02*
X28678571Y75866444D01*
X28678571Y75866444D02*
X28592857Y75866444D01*
X28592857Y75866444D02*
X28464286Y75909301D01*
X28464286Y75909301D02*
X28378571Y75995016D01*
X28378571Y75995016D02*
X28335714Y76080730D01*
X28335714Y76080730D02*
X28292857Y76252159D01*
X28292857Y76252159D02*
X28292857Y76380730D01*
X28292857Y76380730D02*
X28335714Y76552159D01*
X28335714Y76552159D02*
X28378571Y76637873D01*
X28378571Y76637873D02*
X28464286Y76723587D01*
X28464286Y76723587D02*
X28592857Y76766444D01*
X28592857Y76766444D02*
X28678571Y76766444D01*
X28678571Y76766444D02*
X28807143Y76723587D01*
X28807143Y76723587D02*
X28850000Y76680730D01*
X29621429Y76766444D02*
X29450000Y76766444D01*
X29450000Y76766444D02*
X29364286Y76723587D01*
X29364286Y76723587D02*
X29321429Y76680730D01*
X29321429Y76680730D02*
X29235714Y76552159D01*
X29235714Y76552159D02*
X29192857Y76380730D01*
X29192857Y76380730D02*
X29192857Y76037873D01*
X29192857Y76037873D02*
X29235714Y75952159D01*
X29235714Y75952159D02*
X29278571Y75909301D01*
X29278571Y75909301D02*
X29364286Y75866444D01*
X29364286Y75866444D02*
X29535714Y75866444D01*
X29535714Y75866444D02*
X29621429Y75909301D01*
X29621429Y75909301D02*
X29664286Y75952159D01*
X29664286Y75952159D02*
X29707143Y76037873D01*
X29707143Y76037873D02*
X29707143Y76252159D01*
X29707143Y76252159D02*
X29664286Y76337873D01*
X29664286Y76337873D02*
X29621429Y76380730D01*
X29621429Y76380730D02*
X29535714Y76423587D01*
X29535714Y76423587D02*
X29364286Y76423587D01*
X29364286Y76423587D02*
X29278571Y76380730D01*
X29278571Y76380730D02*
X29235714Y76337873D01*
X29235714Y76337873D02*
X29192857Y76252159D01*
%TO.C,U4*%
X24030000Y30160000D02*
X24500000Y30160000D01*
X24030000Y19840000D02*
X24500000Y19840000D01*
X24130000Y30160000D02*
X22340000Y30160000D01*
X24150000Y19840000D02*
X22340000Y19840000D01*
X24500000Y19840000D02*
X24500000Y30160000D01*
D12*
X28260000Y20430000D02*
G75*
G02*
X27860000Y20430000I-200000J0D01*
G01*
X27860000Y20430000D02*
G75*
G02*
X28260000Y20430000I200000J0D01*
G01*
%TO.C,C19*%
D10*
X84040000Y32250000D02*
X84040000Y33750000D01*
X84190000Y33900000D02*
X85600000Y33900000D01*
X85600000Y32100000D02*
X84190000Y32100000D01*
X86400000Y32100000D02*
X87810000Y32100000D01*
X87810000Y33900000D02*
X86400000Y33900000D01*
X87960000Y32250000D02*
X87960000Y33750000D01*
X84040000Y33750000D02*
G75*
G02*
X84190000Y33900000I150000J0D01*
G01*
X84190000Y32100000D02*
G75*
G02*
X84040000Y32250000I0J150000D01*
G01*
X87810000Y33900000D02*
G75*
G02*
X87960000Y33750000I0J-150000D01*
G01*
X87960000Y32250000D02*
G75*
G02*
X87810000Y32100000I-150000J0D01*
G01*
%TO.C,C46*%
X18940000Y67430000D02*
X18940000Y64570000D01*
X19090000Y64420000D02*
X20720000Y64420000D01*
X20720000Y67580000D02*
X19090000Y67580000D01*
X22280000Y67580000D02*
X23910000Y67580000D01*
X23910000Y64420000D02*
X22280000Y64420000D01*
X24060000Y67430000D02*
X24060000Y64570000D01*
X18940000Y67430000D02*
G75*
G02*
X19090000Y67580000I150000J0D01*
G01*
X19090000Y64420000D02*
G75*
G02*
X18940000Y64570000I0J150000D01*
G01*
X23910000Y67580000D02*
G75*
G02*
X24060000Y67430000I0J-150000D01*
G01*
X24060000Y64570000D02*
G75*
G02*
X23910000Y64420000I-150000J0D01*
G01*
D13*
X23130000Y67250000D02*
G75*
G02*
X23070000Y67250000I-30000J0D01*
G01*
X23070000Y67250000D02*
G75*
G02*
X23130000Y67250000I30000J0D01*
G01*
%TO.C,R21*%
D10*
X88610000Y86660000D02*
X89570000Y86660000D01*
X88610000Y85340000D02*
X88610000Y86660000D01*
X89570000Y85340000D02*
X88610000Y85340000D01*
X90430000Y85340000D02*
X91390000Y85340000D01*
X91390000Y86660000D02*
X90430000Y86660000D01*
X91390000Y85340000D02*
X91390000Y86660000D01*
%TO.C,PTC1*%
X100350000Y86290000D02*
X100350000Y84900000D01*
X100350000Y81710000D02*
X100350000Y83100000D01*
X100600000Y86670000D02*
X103400000Y86670000D01*
X100600000Y81330000D02*
X103400000Y81330000D01*
X103650000Y84890000D02*
X103650000Y86290000D01*
X103650000Y83110000D02*
X103650000Y81710000D01*
X102000000Y84000000D02*
G75*
G02*
X101620000Y84000000I-190000J0D01*
G01*
X102000000Y84000000D02*
G75*
G02*
X102380000Y84000000I190000J0D01*
G01*
%TO.C,C11*%
X57770000Y32490000D02*
X57770000Y30780000D01*
X57770000Y27510000D02*
X57770000Y29220000D01*
X59510000Y34230000D02*
X57770000Y32490000D01*
X59510000Y25770000D02*
X57770000Y27510000D01*
X66230000Y34230000D02*
X59510000Y34230000D01*
X66230000Y30780000D02*
X66230000Y34230000D01*
X66230000Y29220000D02*
X66230000Y25770000D01*
X66230000Y25770000D02*
X59510000Y25770000D01*
D13*
X57480000Y25850000D02*
G75*
G02*
X57420000Y25850000I-30000J0D01*
G01*
X57420000Y25850000D02*
G75*
G02*
X57480000Y25850000I30000J0D01*
G01*
D14*
G36*
X59094926Y31784426D02*
G01*
X58098916Y31784426D01*
X58098916Y32033422D01*
X59094926Y32033422D01*
X59094926Y31784426D01*
G37*
G36*
X58721419Y31078916D02*
G01*
X58472423Y31078916D01*
X58472423Y32738933D01*
X58721419Y32738933D01*
X58721419Y31078916D01*
G37*
G36*
X65900932Y31784426D02*
G01*
X64904922Y31784426D01*
X64904922Y32033422D01*
X65900932Y32033422D01*
X65900932Y31784426D01*
G37*
%TO.C,C41*%
D10*
X85620000Y52980000D02*
X85620000Y51690000D01*
X85620000Y49020000D02*
X85640000Y50310000D01*
X87020000Y54380000D02*
X85620000Y52980000D01*
X87020000Y47620000D02*
X85620000Y49020000D01*
X92360000Y50260000D02*
X92380000Y47620000D01*
X92370000Y51710000D02*
X92380000Y54380000D01*
X92380000Y54380000D02*
X87020000Y54380000D01*
X92380000Y47620000D02*
X87020000Y47620000D01*
%TO.C,C16*%
D15*
X56290000Y37780000D02*
X56290000Y38580000D01*
X56290000Y37220000D02*
X56290000Y36420000D01*
X56600000Y38890000D02*
X57400000Y38890000D01*
X57400000Y36110000D02*
X56600000Y36110000D01*
X57710000Y37780000D02*
X57710000Y38580000D01*
X57710000Y37220000D02*
X57710000Y36420000D01*
X56290000Y38580000D02*
G75*
G02*
X56600000Y38890000I310000J0D01*
G01*
X56600000Y36110000D02*
G75*
G02*
X56290000Y36420000I0J310000D01*
G01*
X57400000Y38890000D02*
G75*
G02*
X57710000Y38580000I0J-310000D01*
G01*
X57710000Y36420000D02*
G75*
G02*
X57400000Y36110000I-310000J0D01*
G01*
%TO.C,J8*%
X500000Y12380000D02*
X2190000Y12380000D01*
X2230000Y11490000D02*
X500000Y11490000D01*
X4740000Y12380000D02*
X7270000Y12380000D01*
X7310000Y11490000D02*
X4690000Y11490000D01*
%TO.C,TVS1*%
X104500000Y78300000D02*
X104820000Y78300000D01*
X104500000Y73700000D02*
X104500000Y78300000D01*
X104500000Y73700000D02*
X104820000Y73700000D01*
X105240000Y76510000D02*
X106000000Y75750000D01*
X106000000Y77270000D02*
X106000000Y74980000D01*
X106000000Y75750000D02*
X106760000Y76510000D01*
X106760000Y76510000D02*
X105240000Y76510000D01*
X106760000Y75750000D02*
X105240000Y75750000D01*
X107180000Y78300000D02*
X107500000Y78300000D01*
X107180000Y73700000D02*
X107500000Y73700000D01*
X107500000Y78300000D02*
X107500000Y73700000D01*
%TO.C,J9*%
X500000Y36380000D02*
X2190000Y36380000D01*
X2230000Y35490000D02*
X500000Y35490000D01*
X4740000Y36380000D02*
X7270000Y36380000D01*
X7310000Y35490000D02*
X4690000Y35490000D01*
%TO.C,R25*%
D10*
X94610000Y58660000D02*
X95570000Y58660000D01*
X94610000Y57340000D02*
X94610000Y58660000D01*
X95570000Y57340000D02*
X94610000Y57340000D01*
X96430000Y57340000D02*
X97390000Y57340000D01*
X97390000Y58660000D02*
X96430000Y58660000D01*
X97390000Y57340000D02*
X97390000Y58660000D01*
%TO.C,C15*%
D15*
X62290000Y59280000D02*
X62290000Y60080000D01*
X62290000Y58720000D02*
X62290000Y57920000D01*
X62600000Y60390000D02*
X63400000Y60390000D01*
X63400000Y57610000D02*
X62600000Y57610000D01*
X63710000Y59280000D02*
X63710000Y60080000D01*
X63710000Y58720000D02*
X63710000Y57920000D01*
X62290000Y60080000D02*
G75*
G02*
X62600000Y60390000I310000J0D01*
G01*
X62600000Y57610000D02*
G75*
G02*
X62290000Y57920000I0J310000D01*
G01*
X63400000Y60390000D02*
G75*
G02*
X63710000Y60080000I0J-310000D01*
G01*
X63710000Y57920000D02*
G75*
G02*
X63400000Y57610000I-310000J0D01*
G01*
%TO.C,C36*%
D10*
X48440000Y77570000D02*
X48440000Y80430000D01*
X48590000Y80580000D02*
X50220000Y80580000D01*
X50220000Y77420000D02*
X48590000Y77420000D01*
X51780000Y77420000D02*
X53410000Y77420000D01*
X53410000Y80580000D02*
X51780000Y80580000D01*
X53560000Y77570000D02*
X53560000Y80430000D01*
X48440000Y80430000D02*
G75*
G02*
X48590000Y80580000I150000J0D01*
G01*
X48590000Y77420000D02*
G75*
G02*
X48440000Y77570000I0J150000D01*
G01*
X53410000Y80580000D02*
G75*
G02*
X53560000Y80430000I0J-150000D01*
G01*
X53560000Y77570000D02*
G75*
G02*
X53410000Y77420000I-150000J0D01*
G01*
D13*
X49430000Y77750000D02*
G75*
G02*
X49370000Y77750000I-30000J0D01*
G01*
X49370000Y77750000D02*
G75*
G02*
X49430000Y77750000I30000J0D01*
G01*
%TO.C,J10*%
D15*
X27430000Y9000000D02*
X55370000Y9000000D01*
X27430000Y500000D02*
X27430000Y9000000D01*
X39100000Y5300000D02*
X39100000Y500000D01*
X43700000Y5300000D02*
X39100000Y5300000D01*
X43700000Y5300000D02*
X43700000Y500000D01*
X55370000Y9000000D02*
X55370000Y500000D01*
D16*
X52270000Y13430000D02*
G75*
G02*
X52030000Y13430000I-120000J0D01*
G01*
X52030000Y13430000D02*
G75*
G02*
X52270000Y13430000I120000J0D01*
G01*
D17*
X55460000Y13500000D02*
G75*
G02*
X55260000Y13500000I-100000J0D01*
G01*
X55260000Y13500000D02*
G75*
G02*
X55460000Y13500000I100000J0D01*
G01*
%TO.C,C39*%
D10*
X26440000Y69070000D02*
X26440000Y71930000D01*
X26590000Y72080000D02*
X28220000Y72080000D01*
X28220000Y68920000D02*
X26590000Y68920000D01*
X29780000Y68920000D02*
X31410000Y68920000D01*
X31410000Y72080000D02*
X29780000Y72080000D01*
X31560000Y69070000D02*
X31560000Y71930000D01*
X26440000Y71930000D02*
G75*
G02*
X26590000Y72080000I150000J0D01*
G01*
X26590000Y68920000D02*
G75*
G02*
X26440000Y69070000I0J150000D01*
G01*
X31410000Y72080000D02*
G75*
G02*
X31560000Y71930000I0J-150000D01*
G01*
X31560000Y69070000D02*
G75*
G02*
X31410000Y68920000I-150000J0D01*
G01*
D13*
X27430000Y69250000D02*
G75*
G02*
X27370000Y69250000I-30000J0D01*
G01*
X27370000Y69250000D02*
G75*
G02*
X27430000Y69250000I30000J0D01*
G01*
%TO.C,C17*%
D10*
X84040000Y70250000D02*
X84040000Y71750000D01*
X84190000Y71900000D02*
X85600000Y71900000D01*
X85600000Y70100000D02*
X84190000Y70100000D01*
X86400000Y70100000D02*
X87810000Y70100000D01*
X87810000Y71900000D02*
X86400000Y71900000D01*
X87960000Y70250000D02*
X87960000Y71750000D01*
X84040000Y71750000D02*
G75*
G02*
X84190000Y71900000I150000J0D01*
G01*
X84190000Y70100000D02*
G75*
G02*
X84040000Y70250000I0J150000D01*
G01*
X87810000Y71900000D02*
G75*
G02*
X87960000Y71750000I0J-150000D01*
G01*
X87960000Y70250000D02*
G75*
G02*
X87810000Y70100000I-150000J0D01*
G01*
%TO.C,R9*%
X56240000Y2620000D02*
X57520000Y2620000D01*
X56240000Y780000D02*
X56240000Y2620000D01*
X57520000Y780000D02*
X56240000Y780000D01*
X58480000Y780000D02*
X59760000Y780000D01*
X59760000Y2620000D02*
X58480000Y2620000D01*
X59760000Y780000D02*
X59760000Y2620000D01*
%TO.C,R7*%
X56240000Y9420000D02*
X57520000Y9420000D01*
X56240000Y7580000D02*
X56240000Y9420000D01*
X57520000Y7580000D02*
X56240000Y7580000D01*
X58480000Y7580000D02*
X59760000Y7580000D01*
X59760000Y9420000D02*
X58480000Y9420000D01*
X59760000Y7580000D02*
X59760000Y9420000D01*
%TO.C,R5*%
X32610000Y32660000D02*
X33570000Y32660000D01*
X32610000Y31340000D02*
X32610000Y32660000D01*
X33570000Y31340000D02*
X32610000Y31340000D01*
X34430000Y31340000D02*
X35390000Y31340000D01*
X35390000Y32660000D02*
X34430000Y32660000D01*
X35390000Y31340000D02*
X35390000Y32660000D01*
%TO.C,L3*%
D15*
X40100000Y31400000D02*
X53900000Y31400000D01*
X40100000Y27730000D02*
X40100000Y31400000D01*
X40100000Y18600000D02*
X40100000Y22270000D01*
X53900000Y31400000D02*
X53900000Y27730000D01*
X53900000Y22270000D02*
X53900000Y18600000D01*
X53900000Y18600000D02*
X40100000Y18600000D01*
%TO.C,C32*%
D10*
X37040000Y60250000D02*
X37040000Y61750000D01*
X37190000Y61900000D02*
X38600000Y61900000D01*
X38600000Y60100000D02*
X37190000Y60100000D01*
X39400000Y60100000D02*
X40810000Y60100000D01*
X40810000Y61900000D02*
X39400000Y61900000D01*
X40960000Y60250000D02*
X40960000Y61750000D01*
X37040000Y61750000D02*
G75*
G02*
X37190000Y61900000I150000J0D01*
G01*
X37190000Y60100000D02*
G75*
G02*
X37040000Y60250000I0J150000D01*
G01*
X40810000Y61900000D02*
G75*
G02*
X40960000Y61750000I0J-150000D01*
G01*
X40960000Y60250000D02*
G75*
G02*
X40810000Y60100000I-150000J0D01*
G01*
%TO.C,C42*%
X85620000Y28380000D02*
X90980000Y28380000D01*
X85620000Y21620000D02*
X90980000Y21620000D01*
X85630000Y24290000D02*
X85620000Y21620000D01*
X85640000Y25740000D02*
X85620000Y28380000D01*
X90980000Y28380000D02*
X92380000Y26980000D01*
X90980000Y21620000D02*
X92380000Y23020000D01*
X92380000Y26980000D02*
X92360000Y25690000D01*
X92380000Y23020000D02*
X92380000Y24310000D01*
%TO.C,R2*%
X21610000Y80660000D02*
X22570000Y80660000D01*
X21610000Y79340000D02*
X21610000Y80660000D01*
X22570000Y79340000D02*
X21610000Y79340000D01*
X23430000Y79340000D02*
X24390000Y79340000D01*
X24390000Y80660000D02*
X23430000Y80660000D01*
X24390000Y79340000D02*
X24390000Y80660000D01*
%TO.C,R22*%
X94610000Y86660000D02*
X95570000Y86660000D01*
X94610000Y85340000D02*
X94610000Y86660000D01*
X95570000Y85340000D02*
X94610000Y85340000D01*
X96430000Y85340000D02*
X97390000Y85340000D01*
X97390000Y86660000D02*
X96430000Y86660000D01*
X97390000Y85340000D02*
X97390000Y86660000D01*
%TO.C,D2*%
X33570000Y52600000D02*
X33810000Y52600000D01*
X33570000Y49120000D02*
X36430000Y49120000D01*
X33570000Y47400000D02*
X33570000Y52600000D01*
X36180000Y52590000D02*
X36410000Y52600000D01*
X36430000Y47400000D02*
X36430000Y52600000D01*
%TO.C,U3*%
X24030000Y54160000D02*
X24500000Y54160000D01*
X24030000Y43840000D02*
X24500000Y43840000D01*
X24130000Y54160000D02*
X22340000Y54160000D01*
X24150000Y43840000D02*
X22340000Y43840000D01*
X24500000Y43840000D02*
X24500000Y54160000D01*
D12*
X28260000Y44430000D02*
G75*
G02*
X27860000Y44430000I-200000J0D01*
G01*
X27860000Y44430000D02*
G75*
G02*
X28260000Y44430000I200000J0D01*
G01*
%TO.C,R4*%
D10*
X28340000Y60390000D02*
X28340000Y59430000D01*
X28340000Y57610000D02*
X28340000Y58570000D01*
X29660000Y60390000D02*
X28340000Y60390000D01*
X29660000Y59430000D02*
X29660000Y60390000D01*
X29660000Y58570000D02*
X29660000Y57610000D01*
X29660000Y57610000D02*
X28340000Y57610000D01*
%TO.C,C25*%
X97680000Y21430000D02*
X105990000Y21430000D01*
X97680000Y17050000D02*
X97680000Y21430000D01*
X97680000Y15350000D02*
X97680000Y10980000D01*
X97680000Y10980000D02*
X105990000Y10980000D01*
X105990000Y21430000D02*
X108130000Y19290000D01*
X105990000Y10980000D02*
X108130000Y13110000D01*
X108130000Y19290000D02*
X108130000Y17050000D01*
X108130000Y13110000D02*
X108130000Y15350000D01*
%TO.C,C21*%
X94770000Y69090000D02*
X94770000Y66850000D01*
X94770000Y62910000D02*
X94770000Y65150000D01*
X96910000Y71220000D02*
X94770000Y69090000D01*
X96910000Y60770000D02*
X94770000Y62910000D01*
X105220000Y71220000D02*
X96910000Y71220000D01*
X105220000Y66850000D02*
X105220000Y71220000D01*
X105220000Y65150000D02*
X105220000Y60770000D01*
X105220000Y60770000D02*
X96910000Y60770000D01*
%TO.C,C8*%
X32040000Y43250000D02*
X32040000Y44750000D01*
X32190000Y44900000D02*
X33600000Y44900000D01*
X33600000Y43100000D02*
X32190000Y43100000D01*
X34400000Y43100000D02*
X35810000Y43100000D01*
X35810000Y44900000D02*
X34400000Y44900000D01*
X35960000Y43250000D02*
X35960000Y44750000D01*
X32040000Y44750000D02*
G75*
G02*
X32190000Y44900000I150000J0D01*
G01*
X32190000Y43100000D02*
G75*
G02*
X32040000Y43250000I0J150000D01*
G01*
X35810000Y44900000D02*
G75*
G02*
X35960000Y44750000I0J-150000D01*
G01*
X35960000Y43250000D02*
G75*
G02*
X35810000Y43100000I-150000J0D01*
G01*
%TO.C,C14*%
X42440000Y80070000D02*
X42440000Y82930000D01*
X42590000Y83080000D02*
X44220000Y83080000D01*
X44220000Y79920000D02*
X42590000Y79920000D01*
X45780000Y79920000D02*
X47410000Y79920000D01*
X47410000Y83080000D02*
X45780000Y83080000D01*
X47560000Y80070000D02*
X47560000Y82930000D01*
X42440000Y82930000D02*
G75*
G02*
X42590000Y83080000I150000J0D01*
G01*
X42590000Y79920000D02*
G75*
G02*
X42440000Y80070000I0J150000D01*
G01*
X47410000Y83080000D02*
G75*
G02*
X47560000Y82930000I0J-150000D01*
G01*
X47560000Y80070000D02*
G75*
G02*
X47410000Y79920000I-150000J0D01*
G01*
D13*
X43430000Y80250000D02*
G75*
G02*
X43370000Y80250000I-30000J0D01*
G01*
X43370000Y80250000D02*
G75*
G02*
X43430000Y80250000I30000J0D01*
G01*
%TO.C,L2*%
D15*
X40100000Y57400000D02*
X53900000Y57400000D01*
X40100000Y53730000D02*
X40100000Y57400000D01*
X40100000Y44600000D02*
X40100000Y48270000D01*
X53900000Y57400000D02*
X53900000Y53730000D01*
X53900000Y48270000D02*
X53900000Y44600000D01*
X53900000Y44600000D02*
X40100000Y44600000D01*
%TO.C,R6*%
D10*
X31340000Y36390000D02*
X31340000Y35430000D01*
X31340000Y33610000D02*
X31340000Y34570000D01*
X32660000Y36390000D02*
X31340000Y36390000D01*
X32660000Y35430000D02*
X32660000Y36390000D01*
X32660000Y34570000D02*
X32660000Y33610000D01*
X32660000Y33610000D02*
X31340000Y33610000D01*
%TO.C,U8*%
X69100000Y30600000D02*
X77800000Y30600000D01*
X69100000Y19400000D02*
X77800000Y19400000D01*
X82915000Y20450000D02*
G75*
G02*
X82515000Y20450000I-200000J0D01*
G01*
X82515000Y20450000D02*
G75*
G02*
X82915000Y20450000I200000J0D01*
G01*
%TO.C,PTC2*%
X99970000Y58540000D02*
X99970000Y57270000D01*
X99970000Y53460000D02*
X99970000Y54770000D01*
X100200000Y53210000D02*
X103760000Y53210000D01*
X100220000Y58790000D02*
X103780000Y58790000D01*
X104030000Y57270000D02*
X104030000Y58540000D01*
X104030000Y54730000D02*
X104030000Y53460000D01*
X101989040Y55994634D02*
G75*
G02*
X102630000Y56000000I320960J-54634D01*
G01*
X102010960Y56005366D02*
G75*
G02*
X101370000Y56000000I-320960J54634D01*
G01*
%TO.C,R23*%
X88610000Y61660000D02*
X89570000Y61660000D01*
X88610000Y60340000D02*
X88610000Y61660000D01*
X89570000Y60340000D02*
X88610000Y60340000D01*
X90430000Y60340000D02*
X91390000Y60340000D01*
X91390000Y61660000D02*
X90430000Y61660000D01*
X91390000Y60340000D02*
X91390000Y61660000D01*
%TO.C,C3*%
X42440000Y75570000D02*
X42440000Y78430000D01*
X42590000Y78580000D02*
X44220000Y78580000D01*
X44220000Y75420000D02*
X42590000Y75420000D01*
X45780000Y75420000D02*
X47410000Y75420000D01*
X47410000Y78580000D02*
X45780000Y78580000D01*
X47560000Y75570000D02*
X47560000Y78430000D01*
X42440000Y78430000D02*
G75*
G02*
X42590000Y78580000I150000J0D01*
G01*
X42590000Y75420000D02*
G75*
G02*
X42440000Y75570000I0J150000D01*
G01*
X47410000Y78580000D02*
G75*
G02*
X47560000Y78430000I0J-150000D01*
G01*
X47560000Y75570000D02*
G75*
G02*
X47410000Y75420000I-150000J0D01*
G01*
D13*
X43430000Y75750000D02*
G75*
G02*
X43370000Y75750000I-30000J0D01*
G01*
X43370000Y75750000D02*
G75*
G02*
X43430000Y75750000I30000J0D01*
G01*
%TO.C,C5*%
D10*
X6780000Y81220000D02*
X6780000Y72910000D01*
X6780000Y72910000D02*
X8910000Y70770000D01*
X8910000Y70770000D02*
X11150000Y70770000D01*
X11150000Y81220000D02*
X6780000Y81220000D01*
X12850000Y81220000D02*
X17230000Y81220000D01*
X15090000Y70770000D02*
X12850000Y70770000D01*
X17230000Y81220000D02*
X17230000Y72910000D01*
X17230000Y72910000D02*
X15090000Y70770000D01*
%TO.C,TVS3*%
D15*
X104500000Y27600000D02*
X104820000Y27600000D01*
X104500000Y23000000D02*
X104500000Y27600000D01*
X104500000Y23000000D02*
X104820000Y23000000D01*
X105240000Y25810000D02*
X106000000Y25050000D01*
X106000000Y26570000D02*
X106000000Y24280000D01*
X106000000Y25050000D02*
X106760000Y25810000D01*
X106760000Y25810000D02*
X105240000Y25810000D01*
X106760000Y25050000D02*
X105240000Y25050000D01*
X107180000Y27600000D02*
X107500000Y27600000D01*
X107180000Y23000000D02*
X107500000Y23000000D01*
X107500000Y27600000D02*
X107500000Y23000000D01*
%TO.C,C40*%
D10*
X85620000Y80980000D02*
X85620000Y79690000D01*
X85620000Y77020000D02*
X85640000Y78310000D01*
X87020000Y82380000D02*
X85620000Y80980000D01*
X87020000Y75620000D02*
X85620000Y77020000D01*
X92360000Y78260000D02*
X92380000Y75620000D01*
X92370000Y79710000D02*
X92380000Y82380000D01*
X92380000Y82380000D02*
X87020000Y82380000D01*
X92380000Y75620000D02*
X87020000Y75620000D01*
%TO.C,C12*%
X42770000Y41090000D02*
X42770000Y38850000D01*
X42770000Y34910000D02*
X42770000Y37150000D01*
X44910000Y43220000D02*
X42770000Y41090000D01*
X44910000Y32770000D02*
X42770000Y34910000D01*
X53220000Y43220000D02*
X44910000Y43220000D01*
X53220000Y38850000D02*
X53220000Y43220000D01*
X53220000Y37150000D02*
X53220000Y32770000D01*
X53220000Y32770000D02*
X44910000Y32770000D01*
%TO.C,PTC3*%
X100910000Y30930000D02*
X100910000Y32120000D01*
X100910000Y29070000D02*
X100910000Y27880000D01*
X101060000Y32270000D02*
X102940000Y32270000D01*
X101060000Y27730000D02*
X102940000Y27730000D01*
X103090000Y32120000D02*
X103090000Y30930000D01*
X103090000Y27880000D02*
X103090000Y29070000D01*
D18*
X101997801Y29998731D02*
G75*
G02*
X102840000Y30000000I422198J-728730D01*
G01*
X102002199Y30001269D02*
G75*
G02*
X101160000Y30000000I-422199J728731D01*
G01*
%TO.C,C20*%
D10*
X42440000Y71070000D02*
X42440000Y73930000D01*
X42590000Y74080000D02*
X44220000Y74080000D01*
X44220000Y70920000D02*
X42590000Y70920000D01*
X45780000Y70920000D02*
X47410000Y70920000D01*
X47410000Y74080000D02*
X45780000Y74080000D01*
X47560000Y71070000D02*
X47560000Y73930000D01*
X42440000Y73930000D02*
G75*
G02*
X42590000Y74080000I150000J0D01*
G01*
X42590000Y70920000D02*
G75*
G02*
X42440000Y71070000I0J150000D01*
G01*
X47410000Y74080000D02*
G75*
G02*
X47560000Y73930000I0J-150000D01*
G01*
X47560000Y71070000D02*
G75*
G02*
X47410000Y70920000I-150000J0D01*
G01*
D13*
X43430000Y71250000D02*
G75*
G02*
X43370000Y71250000I-30000J0D01*
G01*
X43370000Y71250000D02*
G75*
G02*
X43430000Y71250000I30000J0D01*
G01*
%TO.C,C23*%
D10*
X96620000Y41980000D02*
X96620000Y40690000D01*
X96620000Y38020000D02*
X96640000Y39310000D01*
X98020000Y43380000D02*
X96620000Y41980000D01*
X98020000Y36620000D02*
X96620000Y38020000D01*
X103360000Y39260000D02*
X103380000Y36620000D01*
X103370000Y40710000D02*
X103380000Y43380000D01*
X103380000Y43380000D02*
X98020000Y43380000D01*
X103380000Y36620000D02*
X98020000Y36620000D01*
%TO.C,C18*%
X84040000Y42250000D02*
X84040000Y43750000D01*
X84190000Y43900000D02*
X85600000Y43900000D01*
X85600000Y42100000D02*
X84190000Y42100000D01*
X86400000Y42100000D02*
X87810000Y42100000D01*
X87810000Y43900000D02*
X86400000Y43900000D01*
X87960000Y42250000D02*
X87960000Y43750000D01*
X84040000Y43750000D02*
G75*
G02*
X84190000Y43900000I150000J0D01*
G01*
X84190000Y42100000D02*
G75*
G02*
X84040000Y42250000I0J150000D01*
G01*
X87810000Y43900000D02*
G75*
G02*
X87960000Y43750000I0J-150000D01*
G01*
X87960000Y42250000D02*
G75*
G02*
X87810000Y42100000I-150000J0D01*
G01*
%TO.C,U2*%
X28120000Y78530000D02*
X29880000Y78530000D01*
X28120000Y75470000D02*
X29880000Y75470000D01*
D13*
X27630000Y78450000D02*
G75*
G02*
X27570000Y78450000I-30000J0D01*
G01*
X27570000Y78450000D02*
G75*
G02*
X27630000Y78450000I30000J0D01*
G01*
D19*
X27860000Y78670000D02*
G75*
G02*
X27560000Y78670000I-150000J0D01*
G01*
X27560000Y78670000D02*
G75*
G02*
X27860000Y78670000I150000J0D01*
G01*
%TO.C,C7*%
D10*
X18780000Y42230000D02*
X27090000Y42230000D01*
X18780000Y37850000D02*
X18780000Y42230000D01*
X18780000Y36150000D02*
X18780000Y31780000D01*
X18780000Y31780000D02*
X27090000Y31780000D01*
X27090000Y42230000D02*
X29230000Y40090000D01*
X27090000Y31780000D02*
X29230000Y33910000D01*
X29230000Y40090000D02*
X29230000Y37850000D01*
X29230000Y33910000D02*
X29230000Y36150000D01*
%TO.C,LED3*%
X62250000Y6490000D02*
X63730000Y6490000D01*
X62250000Y5340000D02*
X62250000Y6490000D01*
X62250000Y4960000D02*
X62250000Y3910000D01*
X62550000Y3610000D02*
X62250000Y3910000D01*
X62650000Y5320000D02*
X62660000Y5320000D01*
X62650000Y5320000D02*
X63330000Y5320000D01*
X62650000Y3610000D02*
X62550000Y3610000D01*
X62650000Y3610000D02*
X63350000Y3610000D01*
X62660000Y5320000D02*
X63000000Y4980000D01*
X63000000Y5320000D02*
X63000000Y4980000D01*
X63330000Y5320000D02*
X63330000Y5310000D01*
X63330000Y5310000D02*
X63000000Y4980000D01*
X63350000Y3610000D02*
X63450000Y3610000D01*
X63450000Y3610000D02*
X63750000Y3910000D01*
X63750000Y5340000D02*
X63750000Y6490000D01*
X63750000Y4960000D02*
X63750000Y3910000D01*
%TO.C,D3*%
X33600000Y21750000D02*
X33600000Y26250000D01*
X33600000Y21750000D02*
X33850000Y21750000D01*
X36150000Y21750000D02*
X36400000Y21750000D01*
X36400000Y21750000D02*
X36400000Y26250000D01*
%TO.C,C9*%
X17470000Y16230000D02*
X24190000Y16230000D01*
X17470000Y12780000D02*
X17470000Y16230000D01*
X17470000Y11220000D02*
X17470000Y7770000D01*
X17470000Y7770000D02*
X24190000Y7770000D01*
X24190000Y16230000D02*
X25930000Y14490000D01*
X24190000Y7770000D02*
X25930000Y9510000D01*
X25930000Y14490000D02*
X25930000Y12780000D01*
X25930000Y9510000D02*
X25930000Y11220000D01*
D13*
X26280000Y16150000D02*
G75*
G02*
X26220000Y16150000I-30000J0D01*
G01*
X26220000Y16150000D02*
G75*
G02*
X26280000Y16150000I30000J0D01*
G01*
D14*
G36*
X18795078Y9966578D02*
G01*
X17799068Y9966578D01*
X17799068Y10215574D01*
X18795078Y10215574D01*
X18795078Y9966578D01*
G37*
G36*
X25227577Y9261067D02*
G01*
X24978581Y9261067D01*
X24978581Y10921084D01*
X25227577Y10921084D01*
X25227577Y9261067D01*
G37*
G36*
X25601084Y9966578D02*
G01*
X24605074Y9966578D01*
X24605074Y10215574D01*
X25601084Y10215574D01*
X25601084Y9966578D01*
G37*
%TO.C,C22*%
D10*
X59620000Y45380000D02*
X59620000Y40020000D01*
X59620000Y40020000D02*
X61020000Y38620000D01*
X61020000Y38620000D02*
X62310000Y38620000D01*
X62290000Y45370000D02*
X59620000Y45380000D01*
X63740000Y45360000D02*
X66380000Y45380000D01*
X64980000Y38620000D02*
X63690000Y38640000D01*
X66380000Y45380000D02*
X66380000Y40020000D01*
X66380000Y40020000D02*
X64980000Y38620000D01*
%TO.C,J11*%
D15*
X67530000Y9000000D02*
X95470000Y9000000D01*
X67530000Y500000D02*
X67530000Y9000000D01*
X79200000Y5300000D02*
X79200000Y500000D01*
X83800000Y5300000D02*
X79200000Y5300000D01*
X83800000Y5300000D02*
X83800000Y500000D01*
X95470000Y9000000D02*
X95470000Y500000D01*
D16*
X92370000Y13430000D02*
G75*
G02*
X92130000Y13430000I-120000J0D01*
G01*
X92130000Y13430000D02*
G75*
G02*
X92370000Y13430000I120000J0D01*
G01*
D17*
X95560000Y13500000D02*
G75*
G02*
X95360000Y13500000I-100000J0D01*
G01*
X95360000Y13500000D02*
G75*
G02*
X95560000Y13500000I100000J0D01*
G01*
%TO.C,C10*%
D10*
X32040000Y17250000D02*
X32040000Y18750000D01*
X32190000Y18900000D02*
X33600000Y18900000D01*
X33600000Y17100000D02*
X32190000Y17100000D01*
X34400000Y17100000D02*
X35810000Y17100000D01*
X35810000Y18900000D02*
X34400000Y18900000D01*
X35960000Y17250000D02*
X35960000Y18750000D01*
X32040000Y18750000D02*
G75*
G02*
X32190000Y18900000I150000J0D01*
G01*
X32190000Y17100000D02*
G75*
G02*
X32040000Y17250000I0J150000D01*
G01*
X35810000Y18900000D02*
G75*
G02*
X35960000Y18750000I0J-150000D01*
G01*
X35960000Y17250000D02*
G75*
G02*
X35810000Y17100000I-150000J0D01*
G01*
%TO.C,J7*%
D15*
X500000Y24380000D02*
X2190000Y24380000D01*
X2230000Y23490000D02*
X500000Y23490000D01*
X4740000Y24380000D02*
X7270000Y24380000D01*
X7310000Y23490000D02*
X4690000Y23490000D01*
%TO.C,R3*%
D10*
X32610000Y58660000D02*
X33570000Y58660000D01*
X32610000Y57340000D02*
X32610000Y58660000D01*
X33570000Y57340000D02*
X32610000Y57340000D01*
X34430000Y57340000D02*
X35390000Y57340000D01*
X35390000Y58660000D02*
X34430000Y58660000D01*
X35390000Y57340000D02*
X35390000Y58660000D01*
%TO.C,LED2*%
X62250000Y9890000D02*
X63730000Y9890000D01*
X62250000Y8740000D02*
X62250000Y9890000D01*
X62250000Y8360000D02*
X62250000Y7310000D01*
X62550000Y7010000D02*
X62250000Y7310000D01*
X62650000Y8720000D02*
X62660000Y8720000D01*
X62650000Y8720000D02*
X63330000Y8720000D01*
X62650000Y7010000D02*
X62550000Y7010000D01*
X62650000Y7010000D02*
X63350000Y7010000D01*
X62660000Y8720000D02*
X63000000Y8380000D01*
X63000000Y8720000D02*
X63000000Y8380000D01*
X63330000Y8720000D02*
X63330000Y8710000D01*
X63330000Y8710000D02*
X63000000Y8380000D01*
X63350000Y7010000D02*
X63450000Y7010000D01*
X63450000Y7010000D02*
X63750000Y7310000D01*
X63750000Y8740000D02*
X63750000Y9890000D01*
X63750000Y8360000D02*
X63750000Y7310000D01*
%TO.C,C33*%
X36340000Y35250000D02*
X36340000Y36750000D01*
X36490000Y36900000D02*
X37900000Y36900000D01*
X37900000Y35100000D02*
X36490000Y35100000D01*
X38700000Y35100000D02*
X40110000Y35100000D01*
X40110000Y36900000D02*
X38700000Y36900000D01*
X40260000Y35250000D02*
X40260000Y36750000D01*
X36340000Y36750000D02*
G75*
G02*
X36490000Y36900000I150000J0D01*
G01*
X36490000Y35100000D02*
G75*
G02*
X36340000Y35250000I0J150000D01*
G01*
X40110000Y36900000D02*
G75*
G02*
X40260000Y36750000I0J-150000D01*
G01*
X40260000Y35250000D02*
G75*
G02*
X40110000Y35100000I-150000J0D01*
G01*
%TO.C,U7*%
X69100000Y56600000D02*
X77800000Y56600000D01*
X69100000Y45400000D02*
X77800000Y45400000D01*
X82915000Y46450000D02*
G75*
G02*
X82515000Y46450000I-200000J0D01*
G01*
X82515000Y46450000D02*
G75*
G02*
X82915000Y46450000I200000J0D01*
G01*
%TO.C,R24*%
X88610000Y58660000D02*
X89570000Y58660000D01*
X88610000Y57340000D02*
X88610000Y58660000D01*
X89570000Y57340000D02*
X88610000Y57340000D01*
X90430000Y57340000D02*
X91390000Y57340000D01*
X91390000Y58660000D02*
X90430000Y58660000D01*
X91390000Y57340000D02*
X91390000Y58660000D01*
%TO.C,J6*%
D15*
X500000Y48380000D02*
X2190000Y48380000D01*
X2230000Y47490000D02*
X500000Y47490000D01*
X4740000Y48380000D02*
X7270000Y48380000D01*
X7310000Y47490000D02*
X4690000Y47490000D01*
%TO.C,LED4*%
D10*
X62250000Y3090000D02*
X63730000Y3090000D01*
X62250000Y1940000D02*
X62250000Y3090000D01*
X62250000Y1560000D02*
X62250000Y510000D01*
X62550000Y210000D02*
X62250000Y510000D01*
X62650000Y1920000D02*
X62660000Y1920000D01*
X62650000Y1920000D02*
X63330000Y1920000D01*
X62650000Y210000D02*
X62550000Y210000D01*
X62650000Y210000D02*
X63350000Y210000D01*
X62660000Y1920000D02*
X63000000Y1580000D01*
X63000000Y1920000D02*
X63000000Y1580000D01*
X63330000Y1920000D02*
X63330000Y1910000D01*
X63330000Y1910000D02*
X63000000Y1580000D01*
X63350000Y210000D02*
X63450000Y210000D01*
X63450000Y210000D02*
X63750000Y510000D01*
X63750000Y1940000D02*
X63750000Y3090000D01*
X63750000Y1560000D02*
X63750000Y510000D01*
%TO.C,R8*%
X56240000Y6020000D02*
X57520000Y6020000D01*
X56240000Y4180000D02*
X56240000Y6020000D01*
X57520000Y4180000D02*
X56240000Y4180000D01*
X58480000Y4180000D02*
X59760000Y4180000D01*
X59760000Y6020000D02*
X58480000Y6020000D01*
X59760000Y4180000D02*
X59760000Y6020000D01*
%TO.C,C37*%
X48440000Y73070000D02*
X48440000Y75930000D01*
X48590000Y76080000D02*
X50220000Y76080000D01*
X50220000Y72920000D02*
X48590000Y72920000D01*
X51780000Y72920000D02*
X53410000Y72920000D01*
X53410000Y76080000D02*
X51780000Y76080000D01*
X53560000Y73070000D02*
X53560000Y75930000D01*
X48440000Y75930000D02*
G75*
G02*
X48590000Y76080000I150000J0D01*
G01*
X48590000Y72920000D02*
G75*
G02*
X48440000Y73070000I0J150000D01*
G01*
X53410000Y76080000D02*
G75*
G02*
X53560000Y75930000I0J-150000D01*
G01*
X53560000Y73070000D02*
G75*
G02*
X53410000Y72920000I-150000J0D01*
G01*
D13*
X49430000Y73250000D02*
G75*
G02*
X49370000Y73250000I-30000J0D01*
G01*
X49370000Y73250000D02*
G75*
G02*
X49430000Y73250000I30000J0D01*
G01*
%TO.C,C4*%
D10*
X58620000Y52980000D02*
X58620000Y51690000D01*
X58620000Y49020000D02*
X58640000Y50310000D01*
X60020000Y54380000D02*
X58620000Y52980000D01*
X60020000Y47620000D02*
X58620000Y49020000D01*
X65360000Y50260000D02*
X65380000Y47620000D01*
X65370000Y51710000D02*
X65380000Y54380000D01*
X65380000Y54380000D02*
X60020000Y54380000D01*
X65380000Y47620000D02*
X60020000Y47620000D01*
%TO.C,R1*%
X25340000Y84390000D02*
X25340000Y83430000D01*
X25340000Y81610000D02*
X25340000Y82570000D01*
X26660000Y84390000D02*
X25340000Y84390000D01*
X26660000Y83430000D02*
X26660000Y84390000D01*
X26660000Y82570000D02*
X26660000Y81610000D01*
X26660000Y81610000D02*
X25340000Y81610000D01*
%TO.C,TVS2*%
D15*
X104500000Y50300000D02*
X104820000Y50300000D01*
X104500000Y45700000D02*
X104500000Y50300000D01*
X104500000Y45700000D02*
X104820000Y45700000D01*
X105240000Y48510000D02*
X106000000Y47750000D01*
X106000000Y49270000D02*
X106000000Y46980000D01*
X106000000Y47750000D02*
X106760000Y48510000D01*
X106760000Y48510000D02*
X105240000Y48510000D01*
X106760000Y47750000D02*
X105240000Y47750000D01*
X107180000Y50300000D02*
X107500000Y50300000D01*
X107180000Y45700000D02*
X107500000Y45700000D01*
X107500000Y50300000D02*
X107500000Y45700000D01*
%TO.C,U6*%
D10*
X69100000Y84600000D02*
X77800000Y84600000D01*
X69100000Y73400000D02*
X77800000Y73400000D01*
X82915000Y74450000D02*
G75*
G02*
X82515000Y74450000I-200000J0D01*
G01*
X82515000Y74450000D02*
G75*
G02*
X82915000Y74450000I200000J0D01*
G01*
%TO.C,R20*%
X88610000Y89660000D02*
X89570000Y89660000D01*
X88610000Y88340000D02*
X88610000Y89660000D01*
X89570000Y88340000D02*
X88610000Y88340000D01*
X90430000Y88340000D02*
X91390000Y88340000D01*
X91390000Y89660000D02*
X90430000Y89660000D01*
X91390000Y88340000D02*
X91390000Y89660000D01*
%TO.C,L1*%
X33200000Y80500000D02*
X40800000Y80500000D01*
X33200000Y73500000D02*
X40800000Y73500000D01*
%TO.C,C38*%
X29100000Y83310000D02*
X29100000Y81900000D01*
X29100000Y79690000D02*
X29100000Y81100000D01*
X30750000Y83460000D02*
X29250000Y83460000D01*
X30750000Y79540000D02*
X29250000Y79540000D01*
X30900000Y81900000D02*
X30900000Y83310000D01*
X30900000Y81100000D02*
X30900000Y79690000D01*
X29100000Y83310000D02*
G75*
G02*
X29250000Y83460000I150000J0D01*
G01*
X29250000Y79540000D02*
G75*
G02*
X29100000Y79690000I0J150000D01*
G01*
X30750000Y83460000D02*
G75*
G02*
X30900000Y83310000I0J-150000D01*
G01*
X30900000Y79690000D02*
G75*
G02*
X30750000Y79540000I-150000J0D01*
G01*
%TO.C,C24*%
X56280000Y22420000D02*
X56280000Y14110000D01*
X56280000Y14110000D02*
X58410000Y11970000D01*
X58410000Y11970000D02*
X60650000Y11970000D01*
X60650000Y22420000D02*
X56280000Y22420000D01*
X62350000Y22420000D02*
X66730000Y22420000D01*
X64590000Y11970000D02*
X62350000Y11970000D01*
X66730000Y22420000D02*
X66730000Y14110000D01*
X66730000Y14110000D02*
X64590000Y11970000D01*
%TO.C,C6*%
X27040000Y73250000D02*
X27040000Y74750000D01*
X27190000Y74900000D02*
X28600000Y74900000D01*
X28600000Y73100000D02*
X27190000Y73100000D01*
X29400000Y73100000D02*
X30810000Y73100000D01*
X30810000Y74900000D02*
X29400000Y74900000D01*
X30960000Y73250000D02*
X30960000Y74750000D01*
X27040000Y74750000D02*
G75*
G02*
X27190000Y74900000I150000J0D01*
G01*
X27190000Y73100000D02*
G75*
G02*
X27040000Y73250000I0J150000D01*
G01*
X30810000Y74900000D02*
G75*
G02*
X30960000Y74750000I0J-150000D01*
G01*
X30960000Y73250000D02*
G75*
G02*
X30810000Y73100000I-150000J0D01*
G01*
%TD*%
%LPC*%
D20*
%TO.C,U4*%
X28160000Y21600000D03*
X28160000Y23300000D03*
X28160000Y25000000D03*
X28160000Y26700000D03*
X28160000Y28400000D03*
D21*
X17840000Y25000000D03*
%TD*%
D22*
%TO.C,H1*%
X4000000Y91000000D03*
%TD*%
D23*
%TO.C,C19*%
X85000000Y33000000D03*
X87000000Y33000000D03*
%TD*%
D24*
%TO.C,C46*%
X23020000Y66000000D03*
X19980000Y66000000D03*
%TD*%
D25*
%TO.C,TP3*%
X63000000Y86000000D03*
%TD*%
D26*
%TO.C,R21*%
X89250000Y86000000D03*
X90750000Y86000000D03*
%TD*%
D22*
%TO.C,H4*%
X106000000Y91000000D03*
%TD*%
D27*
%TO.C,PTC1*%
X102000000Y82400000D03*
X102000000Y85600000D03*
%TD*%
D28*
%TO.C,C11*%
X58710000Y30000000D03*
X65290000Y30000000D03*
%TD*%
D29*
%TO.C,C41*%
X86330000Y51000000D03*
X91670000Y51000000D03*
%TD*%
D30*
%TO.C,C16*%
X57000000Y36800000D03*
X57000000Y38200000D03*
%TD*%
D31*
%TO.C,J8*%
X8540000Y12000000D03*
D32*
X3460000Y12000000D03*
%TD*%
D33*
%TO.C,TVS1*%
X106000000Y73670000D03*
X106000000Y78330000D03*
%TD*%
D31*
%TO.C,J9*%
X8540000Y36000000D03*
D32*
X3460000Y36000000D03*
%TD*%
D26*
%TO.C,R25*%
X95250000Y58000000D03*
X96750000Y58000000D03*
%TD*%
D30*
%TO.C,C15*%
X63000000Y58300000D03*
X63000000Y59700000D03*
%TD*%
D24*
%TO.C,C36*%
X49480000Y79000000D03*
X52520000Y79000000D03*
%TD*%
D34*
%TO.C,J10*%
X50290000Y13500000D03*
D35*
X50290000Y10960000D03*
X47750000Y13500000D03*
X47750000Y10960000D03*
X45210000Y13500000D03*
X45210000Y10960000D03*
X42670000Y13500000D03*
X42670000Y10960000D03*
X40130000Y13500000D03*
X40130000Y10960000D03*
X37590000Y13500000D03*
X37590000Y10960000D03*
X35050000Y13500000D03*
X35050000Y10960000D03*
X32510000Y13500000D03*
X32510000Y10960000D03*
%TD*%
D36*
%TO.C,FID3*%
X18000000Y5000000D03*
%TD*%
D24*
%TO.C,C39*%
X27480000Y70500000D03*
X30520000Y70500000D03*
%TD*%
D23*
%TO.C,C17*%
X85000000Y71000000D03*
X87000000Y71000000D03*
%TD*%
D37*
%TO.C,R9*%
X57000000Y1700000D03*
X59000000Y1700000D03*
%TD*%
%TO.C,R7*%
X57000000Y8500000D03*
X59000000Y8500000D03*
%TD*%
D26*
%TO.C,R5*%
X33250000Y32000000D03*
X34750000Y32000000D03*
%TD*%
D38*
%TO.C,L3*%
X41230000Y25000000D03*
X52770000Y25000000D03*
%TD*%
D23*
%TO.C,C32*%
X38000000Y61000000D03*
X40000000Y61000000D03*
%TD*%
D29*
%TO.C,C42*%
X91670000Y25000000D03*
X86330000Y25000000D03*
%TD*%
D26*
%TO.C,R2*%
X22250000Y80000000D03*
X23750000Y80000000D03*
%TD*%
%TO.C,R22*%
X95250000Y86000000D03*
X96750000Y86000000D03*
%TD*%
D39*
%TO.C,D2*%
X35000000Y47800000D03*
X35000000Y52200000D03*
%TD*%
D20*
%TO.C,U3*%
X28160000Y45600000D03*
X28160000Y47300000D03*
X28160000Y49000000D03*
X28160000Y50700000D03*
X28160000Y52400000D03*
D21*
X17840000Y49000000D03*
%TD*%
D40*
%TO.C,R4*%
X29000000Y58250000D03*
X29000000Y59750000D03*
%TD*%
D41*
%TO.C,C25*%
X107400000Y16200000D03*
X98400000Y16200000D03*
%TD*%
%TO.C,C21*%
X95500000Y66000000D03*
X104500000Y66000000D03*
%TD*%
D23*
%TO.C,C8*%
X33000000Y44000000D03*
X35000000Y44000000D03*
%TD*%
D24*
%TO.C,C14*%
X43480000Y81500000D03*
X46520000Y81500000D03*
%TD*%
D38*
%TO.C,L2*%
X41230000Y51000000D03*
X52770000Y51000000D03*
%TD*%
D40*
%TO.C,R6*%
X32000000Y34250000D03*
X32000000Y35750000D03*
%TD*%
D42*
%TO.C,U8*%
X82715000Y21596400D03*
X82715000Y23298200D03*
X82715000Y25000000D03*
X82715000Y26701800D03*
X82715000Y28403600D03*
D43*
X73444000Y25000000D03*
%TD*%
D44*
%TO.C,PTC2*%
X102000000Y54150000D03*
X102000000Y57850000D03*
%TD*%
D26*
%TO.C,R23*%
X89250000Y61000000D03*
X90750000Y61000000D03*
%TD*%
D24*
%TO.C,C3*%
X43480000Y77000000D03*
X46520000Y77000000D03*
%TD*%
D45*
%TO.C,C5*%
X12000000Y71500000D03*
X12000000Y80500000D03*
%TD*%
D22*
%TO.C,H2*%
X23000000Y91000000D03*
%TD*%
D33*
%TO.C,TVS3*%
X106000000Y22970000D03*
X106000000Y27630000D03*
%TD*%
D29*
%TO.C,C40*%
X86330000Y79000000D03*
X91670000Y79000000D03*
%TD*%
D41*
%TO.C,C12*%
X43500000Y38000000D03*
X52500000Y38000000D03*
%TD*%
D46*
%TO.C,PTC3*%
X102000000Y28550000D03*
X102000000Y31450000D03*
%TD*%
D24*
%TO.C,C20*%
X43480000Y72500000D03*
X46520000Y72500000D03*
%TD*%
D29*
%TO.C,C23*%
X97330000Y40000000D03*
X102670000Y40000000D03*
%TD*%
D23*
%TO.C,C18*%
X85000000Y43000000D03*
X87000000Y43000000D03*
%TD*%
D47*
%TO.C,U2*%
X27800000Y77950000D03*
X27800000Y77000000D03*
X27800000Y76050000D03*
X30200000Y76050000D03*
X30200000Y77000000D03*
X30200000Y77950000D03*
%TD*%
D41*
%TO.C,C7*%
X28500000Y37000000D03*
X19500000Y37000000D03*
%TD*%
D48*
%TO.C,LED3*%
X63000000Y4350000D03*
X63000000Y5850000D03*
%TD*%
D49*
%TO.C,D3*%
X35000000Y22000000D03*
X35000000Y26000000D03*
%TD*%
D28*
%TO.C,C9*%
X24990000Y12000000D03*
X18410000Y12000000D03*
%TD*%
D50*
%TO.C,C22*%
X63000000Y39330000D03*
X63000000Y44670000D03*
%TD*%
D22*
%TO.C,H6*%
X106000000Y4000000D03*
%TD*%
D51*
%TO.C,P1*%
X36190000Y93200000D03*
X38730000Y93200000D03*
X41270000Y93200000D03*
X43810000Y93200000D03*
%TD*%
D34*
%TO.C,J11*%
X90390000Y13500000D03*
D35*
X90390000Y10960000D03*
X87850000Y13500000D03*
X87850000Y10960000D03*
X85310000Y13500000D03*
X85310000Y10960000D03*
X82770000Y13500000D03*
X82770000Y10960000D03*
X80230000Y13500000D03*
X80230000Y10960000D03*
X77690000Y13500000D03*
X77690000Y10960000D03*
X75150000Y13500000D03*
X75150000Y10960000D03*
X72610000Y13500000D03*
X72610000Y10960000D03*
%TD*%
D23*
%TO.C,C10*%
X33000000Y18000000D03*
X35000000Y18000000D03*
%TD*%
D36*
%TO.C,FID1*%
X12000000Y88000000D03*
%TD*%
D31*
%TO.C,J7*%
X8540000Y24000000D03*
D32*
X3460000Y24000000D03*
%TD*%
D26*
%TO.C,R3*%
X33250000Y58000000D03*
X34750000Y58000000D03*
%TD*%
D48*
%TO.C,LED2*%
X63000000Y7750000D03*
X63000000Y9250000D03*
%TD*%
D23*
%TO.C,C33*%
X37300000Y36000000D03*
X39300000Y36000000D03*
%TD*%
D42*
%TO.C,U7*%
X82715000Y47596400D03*
X82715000Y49298200D03*
X82715000Y51000000D03*
X82715000Y52701800D03*
X82715000Y54403600D03*
D43*
X73444000Y51000000D03*
%TD*%
D26*
%TO.C,R24*%
X89250000Y58000000D03*
X90750000Y58000000D03*
%TD*%
D22*
%TO.C,H5*%
X4000000Y4000000D03*
%TD*%
D31*
%TO.C,J6*%
X8540000Y48000000D03*
D32*
X3460000Y48000000D03*
%TD*%
D48*
%TO.C,LED4*%
X63000000Y950000D03*
X63000000Y2450000D03*
%TD*%
D22*
%TO.C,H3*%
X12800000Y62400000D03*
%TD*%
D37*
%TO.C,R8*%
X57000000Y5100000D03*
X59000000Y5100000D03*
%TD*%
D24*
%TO.C,C37*%
X49480000Y74500000D03*
X52520000Y74500000D03*
%TD*%
D36*
%TO.C,FID2*%
X99000000Y90000000D03*
%TD*%
D29*
%TO.C,C4*%
X59330000Y51000000D03*
X64670000Y51000000D03*
%TD*%
D25*
%TO.C,TP4*%
X63000000Y64000000D03*
%TD*%
D40*
%TO.C,R1*%
X26000000Y82250000D03*
X26000000Y83750000D03*
%TD*%
D25*
%TO.C,TP5*%
X66000000Y36000000D03*
%TD*%
D33*
%TO.C,TVS2*%
X106000000Y45670000D03*
X106000000Y50330000D03*
%TD*%
D42*
%TO.C,U6*%
X82715000Y75596400D03*
X82715000Y77298200D03*
X82715000Y79000000D03*
X82715000Y80701800D03*
X82715000Y82403600D03*
D43*
X73444000Y79000000D03*
%TD*%
D26*
%TO.C,R20*%
X89250000Y89000000D03*
X90750000Y89000000D03*
%TD*%
D52*
%TO.C,L1*%
X33975000Y77000000D03*
X40025000Y77000000D03*
%TD*%
D53*
%TO.C,C38*%
X30000000Y80500000D03*
X30000000Y82500000D03*
%TD*%
D45*
%TO.C,C24*%
X61500000Y12700000D03*
X61500000Y21700000D03*
%TD*%
D23*
%TO.C,C6*%
X28000000Y74000000D03*
X30000000Y74000000D03*
%TD*%
D34*
%TO.C,J5*%
X6550000Y57300000D03*
D54*
X9090000Y57300000D03*
X11630000Y57300000D03*
X14170000Y57300000D03*
X16710000Y57300000D03*
X19250000Y57300000D03*
%TD*%
%LPD*%
M02*
