M48
; DRILL file KiCad 10.0.0 date 2026-09-20T13:55:55
; FORMAT={-:-/ absolute / metric / decimal}
; #@! TF.CreationDate,2026-09-20T13:55:55+09:00
; #@! TF.GenerationSoftware,Kicad,Pcbnew,10.0.0
; #@! TF.FileFunction,Plated,1,2,PTH
FMAT,2
METRIC
; #@! TA.AperFunction,Plated,PTH,ViaDrill
T1C0.400
; #@! TA.AperFunction,Plated,PTH,ViaDrill
T2C0.600
; #@! TA.AperFunction,Plated,PTH,ComponentDrill
T3C1.020
; #@! TA.AperFunction,Plated,PTH,ComponentDrill
T4C1.020
; #@! TA.AperFunction,Plated,PTH,ComponentDrill
T5C1.400
%
G90
G05
T1
X12.59Y28.0
X12.59Y25.0
X12.59Y22.0
X15.34Y31.5
X15.34Y18.5
X17.84Y31.5
X17.84Y18.5
X20.34Y31.5
X20.34Y18.5
X23.09Y28.0
X23.09Y25.0
X23.09Y22.0
X32.0Y36.8
X32.2Y70.5
X40.0Y31.0
X48.0Y29.0
X50.0Y21.0
X57.0Y7.2
X57.0Y3.8
X57.5Y1.05
X58.0Y25.0
X67.999Y82.0
X67.999Y79.0
X67.999Y76.0
X67.999Y54.0
X67.999Y51.0
X67.999Y48.0
X67.999Y28.0
X67.999Y25.0
X67.999Y22.0
X70.944Y85.334
X70.944Y72.666
X70.944Y57.334
X70.944Y44.666
X70.944Y31.334
X70.944Y18.666
X73.444Y85.334
X73.444Y72.666
X73.444Y57.334
X73.444Y44.666
X73.444Y31.334
X73.444Y18.666
X75.944Y85.334
X75.944Y72.666
X75.944Y57.334
X75.944Y44.666
X75.944Y31.334
X75.944Y18.666
X78.889Y82.0
X78.889Y79.0
X78.889Y76.0
X78.889Y54.0
X78.889Y51.0
X78.889Y48.0
X78.889Y28.0
X78.889Y25.0
X78.889Y22.0
X93.75Y13.55
X96.5Y10.8
T2
X25.618Y45.6
X32.933Y27.369
X35.055Y34.209
X36.585Y91.082
X39.313Y91.082
X54.0Y36.5
X59.792Y49.476
X59.792Y39.33
X70.247Y15.095
X82.128Y38.899
X84.849Y23.298
X85.0Y40.5
X90.0Y72.0
X90.0Y44.0
X90.0Y18.0
X95.306Y79.828
X95.5Y68.0
X95.5Y40.0
X96.0Y16.2
X98.5Y82.4
X98.5Y54.15
X98.5Y28.55
T3
X32.51Y13.5
X32.51Y10.96
X35.05Y13.5
X35.05Y10.96
X37.59Y13.5
X37.59Y10.96
X40.13Y13.5
X40.13Y10.96
X42.67Y13.5
X42.67Y10.96
X45.21Y13.5
X45.21Y10.96
X47.75Y13.5
X47.75Y10.96
X50.29Y13.5
X50.29Y10.96
X72.61Y13.5
X72.61Y10.96
X75.15Y13.5
X75.15Y10.96
X77.69Y13.5
X77.69Y10.96
X80.23Y13.5
X80.23Y10.96
X82.77Y13.5
X82.77Y10.96
X85.31Y13.5
X85.31Y10.96
X87.85Y13.5
X87.85Y10.96
X90.39Y13.5
X90.39Y10.96
T4
X6.55Y57.3
X9.09Y57.3
X11.63Y57.3
X14.17Y57.3
X16.71Y57.3
X19.25Y57.3
T5
X3.46Y48.0
X3.46Y36.0
X3.46Y24.0
X3.46Y12.0
X8.54Y48.0
X8.54Y36.0
X8.54Y24.0
X8.54Y12.0
M30
