%TF.GenerationSoftware,KiCad,Pcbnew,10.0.0*%
%TF.CreationDate,2026-09-20T13:55:54+09:00*%
%TF.ProjectId,board-b,626f6172-642d-4622-9e6b-696361645f70,rev?*%
%TF.SameCoordinates,Original*%
%TF.FileFunction,Paste,Top*%
%TF.FilePolarity,Positive*%
%FSLAX46Y46*%
G04 Gerber Fmt 4.6, Leading zero omitted, Abs format (unit mm)*
G04 Created by KiCad (PCBNEW 10.0.0) date 2026-09-20 13:55:54*
%MOMM*%
%LPD*%
G01*
G04 APERTURE LIST*
%ADD10R,3.080000X1.020000*%
%ADD11R,8.500000X11.000000*%
%ADD12R,1.410000X1.350000*%
%ADD13R,1.635000X2.700000*%
%ADD14R,0.810000X0.860000*%
%ADD15R,2.780000X1.490000*%
%ADD16R,3.610000X1.260000*%
%ADD17R,3.500000X1.200000*%
%ADD18R,0.900000X0.800000*%
%ADD19R,1.900000X1.900000*%
%ADD20R,1.130000X1.380000*%
%ADD21R,3.730000X5.000000*%
%ADD22R,2.000000X2.000000*%
%ADD23R,0.860000X0.810000*%
%ADD24R,4.500000X1.650000*%
%ADD25R,2.286000X1.066800*%
%ADD26R,8.890000X10.668000*%
%ADD27R,3.500000X1.410000*%
%ADD28R,1.650000X4.500000*%
%ADD29R,1.730000X1.190000*%
%ADD30R,0.800000X0.532000*%
%ADD31R,0.800000X0.800000*%
%ADD32R,1.700000X2.500000*%
%ADD33R,1.200000X3.500000*%
%ADD34R,2.350000X3.500000*%
%ADD35R,1.350000X1.410000*%
G04 APERTURE END LIST*
D10*
%TO.C,U4*%
X28160000Y21600000D03*
X28160000Y23300000D03*
X28160000Y25000000D03*
X28160000Y26700000D03*
X28160000Y28400000D03*
D11*
X17840000Y25000000D03*
%TD*%
D12*
%TO.C,C19*%
X85000000Y33000000D03*
X87000000Y33000000D03*
%TD*%
D13*
%TO.C,C46*%
X23020000Y66000000D03*
X19980000Y66000000D03*
%TD*%
D14*
%TO.C,R21*%
X89250000Y86000000D03*
X90750000Y86000000D03*
%TD*%
D15*
%TO.C,PTC1*%
X102000000Y82400000D03*
X102000000Y85600000D03*
%TD*%
D16*
%TO.C,C11*%
X58710000Y30000000D03*
X65290000Y30000000D03*
%TD*%
D17*
%TO.C,C41*%
X86330000Y51000000D03*
X91670000Y51000000D03*
%TD*%
D18*
%TO.C,C16*%
X57000000Y36800000D03*
X57000000Y38200000D03*
%TD*%
D19*
%TO.C,TVS1*%
X106000000Y73670000D03*
X106000000Y78330000D03*
%TD*%
D14*
%TO.C,R25*%
X95250000Y58000000D03*
X96750000Y58000000D03*
%TD*%
D18*
%TO.C,C15*%
X63000000Y58300000D03*
X63000000Y59700000D03*
%TD*%
D13*
%TO.C,C36*%
X49480000Y79000000D03*
X52520000Y79000000D03*
%TD*%
%TO.C,C39*%
X27480000Y70500000D03*
X30520000Y70500000D03*
%TD*%
D12*
%TO.C,C17*%
X85000000Y71000000D03*
X87000000Y71000000D03*
%TD*%
D20*
%TO.C,R9*%
X57000000Y1700000D03*
X59000000Y1700000D03*
%TD*%
%TO.C,R7*%
X57000000Y8500000D03*
X59000000Y8500000D03*
%TD*%
D14*
%TO.C,R5*%
X33250000Y32000000D03*
X34750000Y32000000D03*
%TD*%
D21*
%TO.C,L3*%
X41230000Y25000000D03*
X52770000Y25000000D03*
%TD*%
D12*
%TO.C,C32*%
X38000000Y61000000D03*
X40000000Y61000000D03*
%TD*%
D17*
%TO.C,C42*%
X91670000Y25000000D03*
X86330000Y25000000D03*
%TD*%
D14*
%TO.C,R2*%
X22250000Y80000000D03*
X23750000Y80000000D03*
%TD*%
%TO.C,R22*%
X95250000Y86000000D03*
X96750000Y86000000D03*
%TD*%
D22*
%TO.C,D2*%
X35000000Y47800000D03*
X35000000Y52200000D03*
%TD*%
D10*
%TO.C,U3*%
X28160000Y45600000D03*
X28160000Y47300000D03*
X28160000Y49000000D03*
X28160000Y50700000D03*
X28160000Y52400000D03*
D11*
X17840000Y49000000D03*
%TD*%
D23*
%TO.C,R4*%
X29000000Y58250000D03*
X29000000Y59750000D03*
%TD*%
D24*
%TO.C,C25*%
X107400000Y16200000D03*
X98400000Y16200000D03*
%TD*%
%TO.C,C21*%
X95500000Y66000000D03*
X104500000Y66000000D03*
%TD*%
D12*
%TO.C,C8*%
X33000000Y44000000D03*
X35000000Y44000000D03*
%TD*%
D13*
%TO.C,C14*%
X43480000Y81500000D03*
X46520000Y81500000D03*
%TD*%
D21*
%TO.C,L2*%
X41230000Y51000000D03*
X52770000Y51000000D03*
%TD*%
D23*
%TO.C,R6*%
X32000000Y34250000D03*
X32000000Y35750000D03*
%TD*%
D25*
%TO.C,U8*%
X82715000Y21596400D03*
X82715000Y23298200D03*
X82715000Y25000000D03*
X82715000Y26701800D03*
X82715000Y28403600D03*
D26*
X73444000Y25000000D03*
%TD*%
D27*
%TO.C,PTC2*%
X102000000Y54150000D03*
X102000000Y57850000D03*
%TD*%
D14*
%TO.C,R23*%
X89250000Y61000000D03*
X90750000Y61000000D03*
%TD*%
D13*
%TO.C,C3*%
X43480000Y77000000D03*
X46520000Y77000000D03*
%TD*%
D28*
%TO.C,C5*%
X12000000Y71500000D03*
X12000000Y80500000D03*
%TD*%
D19*
%TO.C,TVS3*%
X106000000Y22970000D03*
X106000000Y27630000D03*
%TD*%
D17*
%TO.C,C40*%
X86330000Y79000000D03*
X91670000Y79000000D03*
%TD*%
D24*
%TO.C,C12*%
X43500000Y38000000D03*
X52500000Y38000000D03*
%TD*%
D29*
%TO.C,PTC3*%
X102000000Y28550000D03*
X102000000Y31450000D03*
%TD*%
D13*
%TO.C,C20*%
X43480000Y72500000D03*
X46520000Y72500000D03*
%TD*%
D17*
%TO.C,C23*%
X97330000Y40000000D03*
X102670000Y40000000D03*
%TD*%
D12*
%TO.C,C18*%
X85000000Y43000000D03*
X87000000Y43000000D03*
%TD*%
D30*
%TO.C,U2*%
X27800000Y77950000D03*
X27800000Y77000000D03*
X27800000Y76050000D03*
X30200000Y76050000D03*
X30200000Y77000000D03*
X30200000Y77950000D03*
%TD*%
D24*
%TO.C,C7*%
X28500000Y37000000D03*
X19500000Y37000000D03*
%TD*%
D31*
%TO.C,LED3*%
X63000000Y4350000D03*
X63000000Y5850000D03*
%TD*%
D32*
%TO.C,D3*%
X35000000Y22000000D03*
X35000000Y26000000D03*
%TD*%
D16*
%TO.C,C9*%
X24990000Y12000000D03*
X18410000Y12000000D03*
%TD*%
D33*
%TO.C,C22*%
X63000000Y39330000D03*
X63000000Y44670000D03*
%TD*%
D12*
%TO.C,C10*%
X33000000Y18000000D03*
X35000000Y18000000D03*
%TD*%
D14*
%TO.C,R3*%
X33250000Y58000000D03*
X34750000Y58000000D03*
%TD*%
D31*
%TO.C,LED2*%
X63000000Y7750000D03*
X63000000Y9250000D03*
%TD*%
D12*
%TO.C,C33*%
X37300000Y36000000D03*
X39300000Y36000000D03*
%TD*%
D25*
%TO.C,U7*%
X82715000Y47596400D03*
X82715000Y49298200D03*
X82715000Y51000000D03*
X82715000Y52701800D03*
X82715000Y54403600D03*
D26*
X73444000Y51000000D03*
%TD*%
D14*
%TO.C,R24*%
X89250000Y58000000D03*
X90750000Y58000000D03*
%TD*%
D31*
%TO.C,LED4*%
X63000000Y950000D03*
X63000000Y2450000D03*
%TD*%
D20*
%TO.C,R8*%
X57000000Y5100000D03*
X59000000Y5100000D03*
%TD*%
D13*
%TO.C,C37*%
X49480000Y74500000D03*
X52520000Y74500000D03*
%TD*%
D17*
%TO.C,C4*%
X59330000Y51000000D03*
X64670000Y51000000D03*
%TD*%
D23*
%TO.C,R1*%
X26000000Y82250000D03*
X26000000Y83750000D03*
%TD*%
D19*
%TO.C,TVS2*%
X106000000Y45670000D03*
X106000000Y50330000D03*
%TD*%
D25*
%TO.C,U6*%
X82715000Y75596400D03*
X82715000Y77298200D03*
X82715000Y79000000D03*
X82715000Y80701800D03*
X82715000Y82403600D03*
D26*
X73444000Y79000000D03*
%TD*%
D14*
%TO.C,R20*%
X89250000Y89000000D03*
X90750000Y89000000D03*
%TD*%
D34*
%TO.C,L1*%
X33975000Y77000000D03*
X40025000Y77000000D03*
%TD*%
D35*
%TO.C,C38*%
X30000000Y80500000D03*
X30000000Y82500000D03*
%TD*%
D28*
%TO.C,C24*%
X61500000Y12700000D03*
X61500000Y21700000D03*
%TD*%
D12*
%TO.C,C6*%
X28000000Y74000000D03*
X30000000Y74000000D03*
%TD*%
M02*
