<?xml version='1.0' encoding='utf-8'?>
<svg xmlns="http://www.w3.org/2000/svg" version="1.1" width="34.7218mm" height="22.0726mm" viewBox="0.0000 0.0000 34.7218 22.0726">
<title>SVG Image created as IND-SMD_4P-L15.0-W15.0_MSD1583-473ME.svg date 2026/01/01 22:36:26 </title>
  <desc>Image generated by PCBNEW </desc>
<g style="fill:#000000; fill-opacity:1.0000;stroke:#000000; stroke-opacity:1.0000; stroke-linecap:round; stroke-linejoin:round;" transform="translate(0 0) scale(1 1)">
<path style="fill:#000000; fill-opacity:1.0000; stroke:none;fill-rule:evenodd;" d="M 17.9631,19.2482 17.9631,15.2482 20.4631,15.2482 20.4631,19.2482 Z" /> 
<path style="fill:#000000; fill-opacity:1.0000; stroke:none;fill-rule:evenodd;" d="M 14.2631,19.2482 14.2631,15.2482 16.7631,15.2482 16.7631,19.2482 Z" /> 
<path style="fill:#000000; fill-opacity:1.0000; stroke:none;fill-rule:evenodd;" d="M 14.2631,6.8482 14.2631,2.8482 16.7631,2.8482 16.7631,6.8482 Z" /> 
<path style="fill:#000000; fill-opacity:1.0000; stroke:none;fill-rule:evenodd;" d="M 17.9631,6.8482 17.9631,2.8482 20.4631,2.8482 20.4631,6.8482 Z" /> 
<path style="fill:#000000; fill-opacity:1.0000; stroke:none;fill-rule:evenodd;" d="M 17.9631,19.2482 17.9631,15.2482 20.4631,15.2482 20.4631,19.2482 Z" /> 
<path style="fill:#000000; fill-opacity:1.0000; stroke:none;fill-rule:evenodd;" d="M 14.2631,19.2482 14.2631,15.2482 16.7631,15.2482 16.7631,19.2482 Z" /> 
<path style="fill:#000000; fill-opacity:1.0000; stroke:none;fill-rule:evenodd;" d="M 14.2631,6.8482 14.2631,2.8482 16.7631,2.8482 16.7631,6.8482 Z" /> 
<path style="fill:#000000; fill-opacity:1.0000; stroke:none;fill-rule:evenodd;" d="M 17.9631,6.8482 17.9631,2.8482 20.4631,2.8482 20.4631,6.8482 Z" /> 
<path style="fill:#000000; fill-opacity:1.0000; stroke:none;fill-rule:evenodd;" d="M 17.9631,19.2482 17.9631,15.2482 20.4631,15.2482 20.4631,19.2482 Z" /> 
<path style="fill:#000000; fill-opacity:1.0000; stroke:none;fill-rule:evenodd;" d="M 14.2631,19.2482 14.2631,15.2482 16.7631,15.2482 16.7631,19.2482 Z" /> 
<path style="fill:#000000; fill-opacity:1.0000; stroke:none;fill-rule:evenodd;" d="M 14.2631,6.8482 14.2631,2.8482 16.7631,2.8482 16.7631,6.8482 Z" /> 
<path style="fill:#000000; fill-opacity:1.0000; stroke:none;fill-rule:evenodd;" d="M 17.9631,6.8482 17.9631,2.8482 20.4631,2.8482 20.4631,6.8482 Z" /> 
</g>
<g style="fill:none;  stroke:#000000; stroke-width:0.1500; stroke-opacity:1;  stroke-linecap:round; stroke-linejoin:round;">
<path d="M17.7831 3.5482 L16.9431 3.5482 " />
<path d="M20.6431 18.5482 L24.8631 18.5482 " />
<path d="M24.8631 18.5482 L24.8631 3.5482 " />
<path d="M24.8631 3.5482 L20.6431 3.5482 " />
<path d="M16.9431 18.5482 L17.7831 18.5482 " />
<path d="M13.9731 3.5482 L9.8631 3.5482 " />
<path d="M9.8631 3.5482 L9.8631 18.5482 " />
<path d="M9.8631 18.5482 L14.0831 18.5482 " />
</g>
<g style="fill:none;  stroke:#000000; stroke-width:0.4000; stroke-opacity:1;  stroke-linecap:round; stroke-linejoin:round;">
<circle cx="21.5531" cy="2.8482" r="0.2000" /> 
</g>
<g style="fill:none;  stroke:#000000; stroke-width:0.1500; stroke-opacity:1;  stroke-linecap:round; stroke-linejoin:round;">
<text x="17.3631" y="21.7482" textLength="34.7262" font-size="1.3333" lengthAdjust="spacingAndGlyphs" text-anchor="middle" opacity="0" stroke-opacity="0">IND-SMD_4P-L15.0-W15.0_MSD1583-473ME</text>
<g class="stroked-text"><desc>IND-SMD_4P-L15.0-W15.0_MSD1583-473ME</desc>
<path d="M0.3631 21.7031 L0.3631 20.7031 " />
<path d="M0.8393 21.7031 L0.8393 20.7031 " />
<path d="M0.8393 20.7031 L1.4107 21.7031 " />
<path d="M1.4107 21.7031 L1.4107 20.7031 " />
<path d="M1.8869 21.7031 L1.8869 20.7031 " />
<path d="M1.8869 20.7031 L2.1250 20.7031 " />
<path d="M2.1250 20.7031 L2.2679 20.7507 " />
<path d="M2.2679 20.7507 L2.3631 20.8459 " />
<path d="M2.3631 20.8459 L2.4107 20.9412 " />
<path d="M2.4107 20.9412 L2.4583 21.1316 " />
<path d="M2.4583 21.1316 L2.4583 21.2745 " />
<path d="M2.4583 21.2745 L2.4107 21.4650 " />
<path d="M2.4107 21.4650 L2.3631 21.5602 " />
<path d="M2.3631 21.5602 L2.2679 21.6554 " />
<path d="M2.2679 21.6554 L2.1250 21.7031 " />
<path d="M2.1250 21.7031 L1.8869 21.7031 " />
<path d="M2.8869 21.3221 L3.6488 21.3221 " />
<path d="M4.0774 21.6554 L4.2202 21.7031 " />
<path d="M4.2202 21.7031 L4.4583 21.7031 " />
<path d="M4.4583 21.7031 L4.5536 21.6554 " />
<path d="M4.5536 21.6554 L4.6012 21.6078 " />
<path d="M4.6012 21.6078 L4.6488 21.5126 " />
<path d="M4.6488 21.5126 L4.6488 21.4174 " />
<path d="M4.6488 21.4174 L4.6012 21.3221 " />
<path d="M4.6012 21.3221 L4.5536 21.2745 " />
<path d="M4.5536 21.2745 L4.4583 21.2269 " />
<path d="M4.4583 21.2269 L4.2679 21.1793 " />
<path d="M4.2679 21.1793 L4.1726 21.1316 " />
<path d="M4.1726 21.1316 L4.1250 21.0840 " />
<path d="M4.1250 21.0840 L4.0774 20.9888 " />
<path d="M4.0774 20.9888 L4.0774 20.8935 " />
<path d="M4.0774 20.8935 L4.1250 20.7983 " />
<path d="M4.1250 20.7983 L4.1726 20.7507 " />
<path d="M4.1726 20.7507 L4.2679 20.7031 " />
<path d="M4.2679 20.7031 L4.5060 20.7031 " />
<path d="M4.5060 20.7031 L4.6488 20.7507 " />
<path d="M5.0774 21.7031 L5.0774 20.7031 " />
<path d="M5.0774 20.7031 L5.4107 21.4174 " />
<path d="M5.4107 21.4174 L5.7440 20.7031 " />
<path d="M5.7440 20.7031 L5.7440 21.7031 " />
<path d="M6.2202 21.7031 L6.2202 20.7031 " />
<path d="M6.2202 20.7031 L6.4583 20.7031 " />
<path d="M6.4583 20.7031 L6.6012 20.7507 " />
<path d="M6.6012 20.7507 L6.6964 20.8459 " />
<path d="M6.6964 20.8459 L6.7440 20.9412 " />
<path d="M6.7440 20.9412 L6.7917 21.1316 " />
<path d="M6.7917 21.1316 L6.7917 21.2745 " />
<path d="M6.7917 21.2745 L6.7440 21.4650 " />
<path d="M6.7440 21.4650 L6.6964 21.5602 " />
<path d="M6.6964 21.5602 L6.6012 21.6554 " />
<path d="M6.6012 21.6554 L6.4583 21.7031 " />
<path d="M6.4583 21.7031 L6.2202 21.7031 " />
<path d="M6.9821 21.7983 L7.7440 21.7983 " />
<path d="M8.4107 21.0364 L8.4107 21.7031 " />
<path d="M8.1726 20.6554 L7.9345 21.3697 " />
<path d="M7.9345 21.3697 L8.5536 21.3697 " />
<path d="M8.9345 21.7031 L8.9345 20.7031 " />
<path d="M8.9345 20.7031 L9.3155 20.7031 " />
<path d="M9.3155 20.7031 L9.4107 20.7507 " />
<path d="M9.4107 20.7507 L9.4583 20.7983 " />
<path d="M9.4583 20.7983 L9.5060 20.8935 " />
<path d="M9.5060 20.8935 L9.5060 21.0364 " />
<path d="M9.5060 21.0364 L9.4583 21.1316 " />
<path d="M9.4583 21.1316 L9.4107 21.1793 " />
<path d="M9.4107 21.1793 L9.3155 21.2269 " />
<path d="M9.3155 21.2269 L8.9345 21.2269 " />
<path d="M9.9345 21.3221 L10.6964 21.3221 " />
<path d="M11.6488 21.7031 L11.1726 21.7031 " />
<path d="M11.1726 21.7031 L11.1726 20.7031 " />
<path d="M12.5060 21.7031 L11.9345 21.7031 " />
<path d="M12.2202 21.7031 L12.2202 20.7031 " />
<path d="M12.2202 20.7031 L12.1250 20.8459 " />
<path d="M12.1250 20.8459 L12.0298 20.9412 " />
<path d="M12.0298 20.9412 L11.9345 20.9888 " />
<path d="M13.4107 20.7031 L12.9345 20.7031 " />
<path d="M12.9345 20.7031 L12.8869 21.1793 " />
<path d="M12.8869 21.1793 L12.9345 21.1316 " />
<path d="M12.9345 21.1316 L13.0298 21.0840 " />
<path d="M13.0298 21.0840 L13.2679 21.0840 " />
<path d="M13.2679 21.0840 L13.3631 21.1316 " />
<path d="M13.3631 21.1316 L13.4107 21.1793 " />
<path d="M13.4107 21.1793 L13.4583 21.2745 " />
<path d="M13.4583 21.2745 L13.4583 21.5126 " />
<path d="M13.4583 21.5126 L13.4107 21.6078 " />
<path d="M13.4107 21.6078 L13.3631 21.6554 " />
<path d="M13.3631 21.6554 L13.2679 21.7031 " />
<path d="M13.2679 21.7031 L13.0298 21.7031 " />
<path d="M13.0298 21.7031 L12.9345 21.6554 " />
<path d="M12.9345 21.6554 L12.8869 21.6078 " />
<path d="M13.8869 21.6078 L13.9345 21.6554 " />
<path d="M13.9345 21.6554 L13.8869 21.7031 " />
<path d="M13.8869 21.7031 L13.8393 21.6554 " />
<path d="M13.8393 21.6554 L13.8869 21.6078 " />
<path d="M13.8869 21.6078 L13.8869 21.7031 " />
<path d="M14.5536 20.7031 L14.6488 20.7031 " />
<path d="M14.6488 20.7031 L14.7440 20.7507 " />
<path d="M14.7440 20.7507 L14.7917 20.7983 " />
<path d="M14.7917 20.7983 L14.8393 20.8935 " />
<path d="M14.8393 20.8935 L14.8869 21.0840 " />
<path d="M14.8869 21.0840 L14.8869 21.3221 " />
<path d="M14.8869 21.3221 L14.8393 21.5126 " />
<path d="M14.8393 21.5126 L14.7917 21.6078 " />
<path d="M14.7917 21.6078 L14.7440 21.6554 " />
<path d="M14.7440 21.6554 L14.6488 21.7031 " />
<path d="M14.6488 21.7031 L14.5536 21.7031 " />
<path d="M14.5536 21.7031 L14.4583 21.6554 " />
<path d="M14.4583 21.6554 L14.4107 21.6078 " />
<path d="M14.4107 21.6078 L14.3631 21.5126 " />
<path d="M14.3631 21.5126 L14.3155 21.3221 " />
<path d="M14.3155 21.3221 L14.3155 21.0840 " />
<path d="M14.3155 21.0840 L14.3631 20.8935 " />
<path d="M14.3631 20.8935 L14.4107 20.7983 " />
<path d="M14.4107 20.7983 L14.4583 20.7507 " />
<path d="M14.4583 20.7507 L14.5536 20.7031 " />
<path d="M15.3155 21.3221 L16.0774 21.3221 " />
<path d="M16.4583 20.7031 L16.6964 21.7031 " />
<path d="M16.6964 21.7031 L16.8869 20.9888 " />
<path d="M16.8869 20.9888 L17.0774 21.7031 " />
<path d="M17.0774 21.7031 L17.3155 20.7031 " />
<path d="M18.2202 21.7031 L17.6488 21.7031 " />
<path d="M17.9345 21.7031 L17.9345 20.7031 " />
<path d="M17.9345 20.7031 L17.8393 20.8459 " />
<path d="M17.8393 20.8459 L17.7440 20.9412 " />
<path d="M17.7440 20.9412 L17.6488 20.9888 " />
<path d="M19.1250 20.7031 L18.6488 20.7031 " />
<path d="M18.6488 20.7031 L18.6012 21.1793 " />
<path d="M18.6012 21.1793 L18.6488 21.1316 " />
<path d="M18.6488 21.1316 L18.7440 21.0840 " />
<path d="M18.7440 21.0840 L18.9821 21.0840 " />
<path d="M18.9821 21.0840 L19.0774 21.1316 " />
<path d="M19.0774 21.1316 L19.1250 21.1793 " />
<path d="M19.1250 21.1793 L19.1726 21.2745 " />
<path d="M19.1726 21.2745 L19.1726 21.5126 " />
<path d="M19.1726 21.5126 L19.1250 21.6078 " />
<path d="M19.1250 21.6078 L19.0774 21.6554 " />
<path d="M19.0774 21.6554 L18.9821 21.7031 " />
<path d="M18.9821 21.7031 L18.7440 21.7031 " />
<path d="M18.7440 21.7031 L18.6488 21.6554 " />
<path d="M18.6488 21.6554 L18.6012 21.6078 " />
<path d="M19.6012 21.6078 L19.6488 21.6554 " />
<path d="M19.6488 21.6554 L19.6012 21.7031 " />
<path d="M19.6012 21.7031 L19.5536 21.6554 " />
<path d="M19.5536 21.6554 L19.6012 21.6078 " />
<path d="M19.6012 21.6078 L19.6012 21.7031 " />
<path d="M20.2679 20.7031 L20.3631 20.7031 " />
<path d="M20.3631 20.7031 L20.4583 20.7507 " />
<path d="M20.4583 20.7507 L20.5059 20.7983 " />
<path d="M20.5059 20.7983 L20.5536 20.8935 " />
<path d="M20.5536 20.8935 L20.6012 21.0840 " />
<path d="M20.6012 21.0840 L20.6012 21.3221 " />
<path d="M20.6012 21.3221 L20.5536 21.5126 " />
<path d="M20.5536 21.5126 L20.5059 21.6078 " />
<path d="M20.5059 21.6078 L20.4583 21.6554 " />
<path d="M20.4583 21.6554 L20.3631 21.7031 " />
<path d="M20.3631 21.7031 L20.2679 21.7031 " />
<path d="M20.2679 21.7031 L20.1726 21.6554 " />
<path d="M20.1726 21.6554 L20.1250 21.6078 " />
<path d="M20.1250 21.6078 L20.0774 21.5126 " />
<path d="M20.0774 21.5126 L20.0298 21.3221 " />
<path d="M20.0298 21.3221 L20.0298 21.0840 " />
<path d="M20.0298 21.0840 L20.0774 20.8935 " />
<path d="M20.0774 20.8935 L20.1250 20.7983 " />
<path d="M20.1250 20.7983 L20.1726 20.7507 " />
<path d="M20.1726 20.7507 L20.2679 20.7031 " />
<path d="M20.7917 21.7983 L21.5536 21.7983 " />
<path d="M21.7917 21.7031 L21.7917 20.7031 " />
<path d="M21.7917 20.7031 L22.1250 21.4174 " />
<path d="M22.1250 21.4174 L22.4583 20.7031 " />
<path d="M22.4583 20.7031 L22.4583 21.7031 " />
<path d="M22.8869 21.6554 L23.0298 21.7031 " />
<path d="M23.0298 21.7031 L23.2679 21.7031 " />
<path d="M23.2679 21.7031 L23.3631 21.6554 " />
<path d="M23.3631 21.6554 L23.4107 21.6078 " />
<path d="M23.4107 21.6078 L23.4583 21.5126 " />
<path d="M23.4583 21.5126 L23.4583 21.4174 " />
<path d="M23.4583 21.4174 L23.4107 21.3221 " />
<path d="M23.4107 21.3221 L23.3631 21.2745 " />
<path d="M23.3631 21.2745 L23.2679 21.2269 " />
<path d="M23.2679 21.2269 L23.0774 21.1793 " />
<path d="M23.0774 21.1793 L22.9821 21.1316 " />
<path d="M22.9821 21.1316 L22.9345 21.0840 " />
<path d="M22.9345 21.0840 L22.8869 20.9888 " />
<path d="M22.8869 20.9888 L22.8869 20.8935 " />
<path d="M22.8869 20.8935 L22.9345 20.7983 " />
<path d="M22.9345 20.7983 L22.9821 20.7507 " />
<path d="M22.9821 20.7507 L23.0774 20.7031 " />
<path d="M23.0774 20.7031 L23.3155 20.7031 " />
<path d="M23.3155 20.7031 L23.4583 20.7507 " />
<path d="M23.8869 21.7031 L23.8869 20.7031 " />
<path d="M23.8869 20.7031 L24.1250 20.7031 " />
<path d="M24.1250 20.7031 L24.2679 20.7507 " />
<path d="M24.2679 20.7507 L24.3631 20.8459 " />
<path d="M24.3631 20.8459 L24.4107 20.9412 " />
<path d="M24.4107 20.9412 L24.4583 21.1316 " />
<path d="M24.4583 21.1316 L24.4583 21.2745 " />
<path d="M24.4583 21.2745 L24.4107 21.4650 " />
<path d="M24.4107 21.4650 L24.3631 21.5602 " />
<path d="M24.3631 21.5602 L24.2679 21.6554 " />
<path d="M24.2679 21.6554 L24.1250 21.7031 " />
<path d="M24.1250 21.7031 L23.8869 21.7031 " />
<path d="M25.4107 21.7031 L24.8393 21.7031 " />
<path d="M25.1250 21.7031 L25.1250 20.7031 " />
<path d="M25.1250 20.7031 L25.0298 20.8459 " />
<path d="M25.0298 20.8459 L24.9345 20.9412 " />
<path d="M24.9345 20.9412 L24.8393 20.9888 " />
<path d="M26.3155 20.7031 L25.8393 20.7031 " />
<path d="M25.8393 20.7031 L25.7917 21.1793 " />
<path d="M25.7917 21.1793 L25.8393 21.1316 " />
<path d="M25.8393 21.1316 L25.9345 21.0840 " />
<path d="M25.9345 21.0840 L26.1726 21.0840 " />
<path d="M26.1726 21.0840 L26.2679 21.1316 " />
<path d="M26.2679 21.1316 L26.3155 21.1793 " />
<path d="M26.3155 21.1793 L26.3631 21.2745 " />
<path d="M26.3631 21.2745 L26.3631 21.5126 " />
<path d="M26.3631 21.5126 L26.3155 21.6078 " />
<path d="M26.3155 21.6078 L26.2679 21.6554 " />
<path d="M26.2679 21.6554 L26.1726 21.7031 " />
<path d="M26.1726 21.7031 L25.9345 21.7031 " />
<path d="M25.9345 21.7031 L25.8393 21.6554 " />
<path d="M25.8393 21.6554 L25.7917 21.6078 " />
<path d="M26.9345 21.1316 L26.8393 21.0840 " />
<path d="M26.8393 21.0840 L26.7917 21.0364 " />
<path d="M26.7917 21.0364 L26.7440 20.9412 " />
<path d="M26.7440 20.9412 L26.7440 20.8935 " />
<path d="M26.7440 20.8935 L26.7917 20.7983 " />
<path d="M26.7917 20.7983 L26.8393 20.7507 " />
<path d="M26.8393 20.7507 L26.9345 20.7031 " />
<path d="M26.9345 20.7031 L27.1250 20.7031 " />
<path d="M27.1250 20.7031 L27.2202 20.7507 " />
<path d="M27.2202 20.7507 L27.2679 20.7983 " />
<path d="M27.2679 20.7983 L27.3155 20.8935 " />
<path d="M27.3155 20.8935 L27.3155 20.9412 " />
<path d="M27.3155 20.9412 L27.2679 21.0364 " />
<path d="M27.2679 21.0364 L27.2202 21.0840 " />
<path d="M27.2202 21.0840 L27.1250 21.1316 " />
<path d="M27.1250 21.1316 L26.9345 21.1316 " />
<path d="M26.9345 21.1316 L26.8393 21.1793 " />
<path d="M26.8393 21.1793 L26.7917 21.2269 " />
<path d="M26.7917 21.2269 L26.7440 21.3221 " />
<path d="M26.7440 21.3221 L26.7440 21.5126 " />
<path d="M26.7440 21.5126 L26.7917 21.6078 " />
<path d="M26.7917 21.6078 L26.8393 21.6554 " />
<path d="M26.8393 21.6554 L26.9345 21.7031 " />
<path d="M26.9345 21.7031 L27.1250 21.7031 " />
<path d="M27.1250 21.7031 L27.2202 21.6554 " />
<path d="M27.2202 21.6554 L27.2679 21.6078 " />
<path d="M27.2679 21.6078 L27.3155 21.5126 " />
<path d="M27.3155 21.5126 L27.3155 21.3221 " />
<path d="M27.3155 21.3221 L27.2679 21.2269 " />
<path d="M27.2679 21.2269 L27.2202 21.1793 " />
<path d="M27.2202 21.1793 L27.1250 21.1316 " />
<path d="M27.6488 20.7031 L28.2679 20.7031 " />
<path d="M28.2679 20.7031 L27.9345 21.0840 " />
<path d="M27.9345 21.0840 L28.0774 21.0840 " />
<path d="M28.0774 21.0840 L28.1726 21.1316 " />
<path d="M28.1726 21.1316 L28.2202 21.1793 " />
<path d="M28.2202 21.1793 L28.2679 21.2745 " />
<path d="M28.2679 21.2745 L28.2679 21.5126 " />
<path d="M28.2679 21.5126 L28.2202 21.6078 " />
<path d="M28.2202 21.6078 L28.1726 21.6554 " />
<path d="M28.1726 21.6554 L28.0774 21.7031 " />
<path d="M28.0774 21.7031 L27.7917 21.7031 " />
<path d="M27.7917 21.7031 L27.6964 21.6554 " />
<path d="M27.6964 21.6554 L27.6488 21.6078 " />
<path d="M28.6964 21.3221 L29.4583 21.3221 " />
<path d="M30.3631 21.0364 L30.3631 21.7031 " />
<path d="M30.1250 20.6554 L29.8869 21.3697 " />
<path d="M29.8869 21.3697 L30.5059 21.3697 " />
<path d="M30.7917 20.7031 L31.4583 20.7031 " />
<path d="M31.4583 20.7031 L31.0298 21.7031 " />
<path d="M31.7440 20.7031 L32.3631 20.7031 " />
<path d="M32.3631 20.7031 L32.0298 21.0840 " />
<path d="M32.0298 21.0840 L32.1726 21.0840 " />
<path d="M32.1726 21.0840 L32.2679 21.1316 " />
<path d="M32.2679 21.1316 L32.3155 21.1793 " />
<path d="M32.3155 21.1793 L32.3631 21.2745 " />
<path d="M32.3631 21.2745 L32.3631 21.5126 " />
<path d="M32.3631 21.5126 L32.3155 21.6078 " />
<path d="M32.3155 21.6078 L32.2679 21.6554 " />
<path d="M32.2679 21.6554 L32.1726 21.7031 " />
<path d="M32.1726 21.7031 L31.8869 21.7031 " />
<path d="M31.8869 21.7031 L31.7917 21.6554 " />
<path d="M31.7917 21.6554 L31.7440 21.6078 " />
<path d="M32.7917 21.7031 L32.7917 20.7031 " />
<path d="M32.7917 20.7031 L33.1250 21.4174 " />
<path d="M33.1250 21.4174 L33.4583 20.7031 " />
<path d="M33.4583 20.7031 L33.4583 21.7031 " />
<path d="M33.9345 21.1793 L34.2679 21.1793 " />
<path d="M34.4107 21.7031 L33.9345 21.7031 " />
<path d="M33.9345 21.7031 L33.9345 20.7031 " />
<path d="M33.9345 20.7031 L34.4107 20.7031 " />
</g></g>
<g style="fill:none;  stroke:#000000; stroke-width:0.0600; stroke-opacity:1;  stroke-linecap:round; stroke-linejoin:round;">
<circle cx="24.8631" cy="3.5482" r="0.0300" /> 
</g>
<g style="fill:none;  stroke:#000000; stroke-width:0.4000; stroke-opacity:1;  stroke-linecap:round; stroke-linejoin:round;">
<circle cx="21.5531" cy="2.8482" r="0.2000" /> 
</g> 
</svg>