M48
; DRILL file KiCad 10.0.0 date 2026-09-21T05:13:19
; FORMAT={-:-/ absolute / metric / decimal}
; #@! TF.CreationDate,2026-09-21T05:13:19+09:00
; #@! TF.GenerationSoftware,Kicad,Pcbnew,10.0.0
; #@! TF.FileFunction,Plated,1,2,PTH
FMAT,2
METRIC
; #@! TA.AperFunction,Plated,PTH,ViaDrill
T1C0.200
; #@! TA.AperFunction,Plated,PTH,ViaDrill
T2C0.300
; #@! TA.AperFunction,Plated,PTH,ComponentDrill
T3C0.600
; #@! TA.AperFunction,Plated,PTH,ViaDrill
T4C0.600
; #@! TA.AperFunction,Plated,PTH,ComponentDrill
T5C1.100
%
G90
G05
T1
X11.0Y-22.5
X11.0Y-23.25
X11.0Y-24.0
X11.75Y-22.5
X11.75Y-23.25
X11.75Y-24.0
X12.5Y-22.5
X12.5Y-23.25
X12.5Y-24.0
T2
X2.838Y-22.272
X4.93Y-25.018
X5.886Y-18.32
X7.53Y-19.418
X7.53Y-30.718
X8.172Y-23.542
X8.33Y-22.318
X8.426Y-34.464
X8.63Y-20.218
X8.63Y-27.118
X8.68Y-25.32
X8.83Y-21.818
X9.188Y-18.716
X9.43Y-28.518
X10.204Y-26.082
X10.21Y-19.738
X11.53Y-14.218
X13.33Y-25.918
X15.03Y-17.218
X15.03Y-23.113
X15.792Y-19.478
X16.3Y-31.416
X17.57Y-19.478
X17.792Y-17.466
X18.078Y-30.146
X18.84Y-19.478
X18.84Y-33.956
X19.094Y-28.368
X19.13Y-26.418
X19.33Y-24.818
X19.348Y-21.002
X19.348Y-23.034
X19.856Y-32.94
X20.851Y-34.697
X20.872Y-27.606
X21.634Y-25.066
X25.33Y-16.318
T4
X20.43Y-17.518
T5
X6.55Y-37.7
X9.09Y-37.7
X11.63Y-37.7
X14.17Y-37.7
X16.71Y-37.7
X19.25Y-37.7
T3
G00X9.186Y-3.25
M15
G01X9.186Y-2.65
M16
G05
G00X9.186Y-7.05
M15
G01X9.186Y-6.45
M16
G05
G00X17.826Y-3.25
M15
G01X17.826Y-2.65
M16
G05
G00X17.826Y-7.05
M15
G01X17.826Y-6.45
M16
G05
M30
