%TF.GenerationSoftware,KiCad,Pcbnew,10.0.0*%
%TF.CreationDate,2026-09-21T23:18:48+09:00*%
%TF.ProjectId,board-p,626f6172-642d-4702-9e6b-696361645f70,rev?*%
%TF.SameCoordinates,Original*%
%TF.FileFunction,Legend,Bot*%
%TF.FilePolarity,Positive*%
%FSLAX46Y46*%
G04 Gerber Fmt 4.6, Leading zero omitted, Abs format (unit mm)*
G04 Created by KiCad (PCBNEW 10.0.0) date 2026-09-21 23:18:48*
%MOMM*%
%LPD*%
G01*
G04 APERTURE LIST*
%ADD10C,0.150000*%
%ADD11C,0.300000*%
%ADD12C,3.200000*%
%ADD13O,1.100000X1.800000*%
%ADD14R,1.700000X1.700000*%
%ADD15C,1.700000*%
G04 APERTURE END LIST*
D10*
X16109523Y-10362295D02*
X16566666Y-10362295D01*
X16338094Y-10362295D02*
X16338094Y-9562295D01*
X16338094Y-9562295D02*
X16414285Y-9676580D01*
X16414285Y-9676580D02*
X16490475Y-9752771D01*
X16490475Y-9752771D02*
X16566666Y-9790866D01*
X15385713Y-9562295D02*
X15766665Y-9562295D01*
X15766665Y-9562295D02*
X15804761Y-9943247D01*
X15804761Y-9943247D02*
X15766665Y-9905152D01*
X15766665Y-9905152D02*
X15690475Y-9867057D01*
X15690475Y-9867057D02*
X15499999Y-9867057D01*
X15499999Y-9867057D02*
X15423808Y-9905152D01*
X15423808Y-9905152D02*
X15385713Y-9943247D01*
X15385713Y-9943247D02*
X15347618Y-10019438D01*
X15347618Y-10019438D02*
X15347618Y-10209914D01*
X15347618Y-10209914D02*
X15385713Y-10286104D01*
X15385713Y-10286104D02*
X15423808Y-10324200D01*
X15423808Y-10324200D02*
X15499999Y-10362295D01*
X15499999Y-10362295D02*
X15690475Y-10362295D01*
X15690475Y-10362295D02*
X15766665Y-10324200D01*
X15766665Y-10324200D02*
X15804761Y-10286104D01*
X14509522Y-9562295D02*
X14242855Y-10362295D01*
X14242855Y-10362295D02*
X13976189Y-9562295D01*
X12947617Y-9562295D02*
X12795236Y-9562295D01*
X12795236Y-9562295D02*
X12719046Y-9600390D01*
X12719046Y-9600390D02*
X12642855Y-9676580D01*
X12642855Y-9676580D02*
X12604760Y-9828961D01*
X12604760Y-9828961D02*
X12604760Y-10095628D01*
X12604760Y-10095628D02*
X12642855Y-10248009D01*
X12642855Y-10248009D02*
X12719046Y-10324200D01*
X12719046Y-10324200D02*
X12795236Y-10362295D01*
X12795236Y-10362295D02*
X12947617Y-10362295D01*
X12947617Y-10362295D02*
X13023808Y-10324200D01*
X13023808Y-10324200D02*
X13099998Y-10248009D01*
X13099998Y-10248009D02*
X13138094Y-10095628D01*
X13138094Y-10095628D02*
X13138094Y-9828961D01*
X13138094Y-9828961D02*
X13099998Y-9676580D01*
X13099998Y-9676580D02*
X13023808Y-9600390D01*
X13023808Y-9600390D02*
X12947617Y-9562295D01*
X12261903Y-10362295D02*
X12261903Y-9562295D01*
X12261903Y-9562295D02*
X11804760Y-10362295D01*
X11804760Y-10362295D02*
X11804760Y-9562295D01*
X11042856Y-10362295D02*
X11423808Y-10362295D01*
X11423808Y-10362295D02*
X11423808Y-9562295D01*
X10623808Y-9981342D02*
X10623808Y-10362295D01*
X10890475Y-9562295D02*
X10623808Y-9981342D01*
X10623808Y-9981342D02*
X10357142Y-9562295D01*
X18414285Y-12362295D02*
X18414285Y-11562295D01*
X18414285Y-11562295D02*
X18109523Y-11562295D01*
X18109523Y-11562295D02*
X18033333Y-11600390D01*
X18033333Y-11600390D02*
X17995238Y-11638485D01*
X17995238Y-11638485D02*
X17957142Y-11714676D01*
X17957142Y-11714676D02*
X17957142Y-11828961D01*
X17957142Y-11828961D02*
X17995238Y-11905152D01*
X17995238Y-11905152D02*
X18033333Y-11943247D01*
X18033333Y-11943247D02*
X18109523Y-11981342D01*
X18109523Y-11981342D02*
X18414285Y-11981342D01*
X17157142Y-12362295D02*
X17423809Y-11981342D01*
X17614285Y-12362295D02*
X17614285Y-11562295D01*
X17614285Y-11562295D02*
X17309523Y-11562295D01*
X17309523Y-11562295D02*
X17233333Y-11600390D01*
X17233333Y-11600390D02*
X17195238Y-11638485D01*
X17195238Y-11638485D02*
X17157142Y-11714676D01*
X17157142Y-11714676D02*
X17157142Y-11828961D01*
X17157142Y-11828961D02*
X17195238Y-11905152D01*
X17195238Y-11905152D02*
X17233333Y-11943247D01*
X17233333Y-11943247D02*
X17309523Y-11981342D01*
X17309523Y-11981342D02*
X17614285Y-11981342D01*
X16661904Y-11562295D02*
X16509523Y-11562295D01*
X16509523Y-11562295D02*
X16433333Y-11600390D01*
X16433333Y-11600390D02*
X16357142Y-11676580D01*
X16357142Y-11676580D02*
X16319047Y-11828961D01*
X16319047Y-11828961D02*
X16319047Y-12095628D01*
X16319047Y-12095628D02*
X16357142Y-12248009D01*
X16357142Y-12248009D02*
X16433333Y-12324200D01*
X16433333Y-12324200D02*
X16509523Y-12362295D01*
X16509523Y-12362295D02*
X16661904Y-12362295D01*
X16661904Y-12362295D02*
X16738095Y-12324200D01*
X16738095Y-12324200D02*
X16814285Y-12248009D01*
X16814285Y-12248009D02*
X16852381Y-12095628D01*
X16852381Y-12095628D02*
X16852381Y-11828961D01*
X16852381Y-11828961D02*
X16814285Y-11676580D01*
X16814285Y-11676580D02*
X16738095Y-11600390D01*
X16738095Y-11600390D02*
X16661904Y-11562295D01*
X15557143Y-11600390D02*
X15633333Y-11562295D01*
X15633333Y-11562295D02*
X15747619Y-11562295D01*
X15747619Y-11562295D02*
X15861905Y-11600390D01*
X15861905Y-11600390D02*
X15938095Y-11676580D01*
X15938095Y-11676580D02*
X15976190Y-11752771D01*
X15976190Y-11752771D02*
X16014286Y-11905152D01*
X16014286Y-11905152D02*
X16014286Y-12019438D01*
X16014286Y-12019438D02*
X15976190Y-12171819D01*
X15976190Y-12171819D02*
X15938095Y-12248009D01*
X15938095Y-12248009D02*
X15861905Y-12324200D01*
X15861905Y-12324200D02*
X15747619Y-12362295D01*
X15747619Y-12362295D02*
X15671428Y-12362295D01*
X15671428Y-12362295D02*
X15557143Y-12324200D01*
X15557143Y-12324200D02*
X15519047Y-12286104D01*
X15519047Y-12286104D02*
X15519047Y-12019438D01*
X15519047Y-12019438D02*
X15671428Y-12019438D01*
X14719047Y-12362295D02*
X14985714Y-11981342D01*
X15176190Y-12362295D02*
X15176190Y-11562295D01*
X15176190Y-11562295D02*
X14871428Y-11562295D01*
X14871428Y-11562295D02*
X14795238Y-11600390D01*
X14795238Y-11600390D02*
X14757143Y-11638485D01*
X14757143Y-11638485D02*
X14719047Y-11714676D01*
X14719047Y-11714676D02*
X14719047Y-11828961D01*
X14719047Y-11828961D02*
X14757143Y-11905152D01*
X14757143Y-11905152D02*
X14795238Y-11943247D01*
X14795238Y-11943247D02*
X14871428Y-11981342D01*
X14871428Y-11981342D02*
X15176190Y-11981342D01*
X14414286Y-12133723D02*
X14033333Y-12133723D01*
X14490476Y-12362295D02*
X14223809Y-11562295D01*
X14223809Y-11562295D02*
X13957143Y-12362295D01*
X13690476Y-12362295D02*
X13690476Y-11562295D01*
X13690476Y-11562295D02*
X13423810Y-12133723D01*
X13423810Y-12133723D02*
X13157143Y-11562295D01*
X13157143Y-11562295D02*
X13157143Y-12362295D01*
X12204762Y-12133723D02*
X11823809Y-12133723D01*
X12280952Y-12362295D02*
X12014285Y-11562295D01*
X12014285Y-11562295D02*
X11747619Y-12362295D01*
X11595238Y-11562295D02*
X11138095Y-11562295D01*
X11366667Y-12362295D02*
X11366667Y-11562295D01*
X9880952Y-11562295D02*
X10261904Y-11562295D01*
X10261904Y-11562295D02*
X10300000Y-11943247D01*
X10300000Y-11943247D02*
X10261904Y-11905152D01*
X10261904Y-11905152D02*
X10185714Y-11867057D01*
X10185714Y-11867057D02*
X9995238Y-11867057D01*
X9995238Y-11867057D02*
X9919047Y-11905152D01*
X9919047Y-11905152D02*
X9880952Y-11943247D01*
X9880952Y-11943247D02*
X9842857Y-12019438D01*
X9842857Y-12019438D02*
X9842857Y-12209914D01*
X9842857Y-12209914D02*
X9880952Y-12286104D01*
X9880952Y-12286104D02*
X9919047Y-12324200D01*
X9919047Y-12324200D02*
X9995238Y-12362295D01*
X9995238Y-12362295D02*
X10185714Y-12362295D01*
X10185714Y-12362295D02*
X10261904Y-12324200D01*
X10261904Y-12324200D02*
X10300000Y-12286104D01*
X9004761Y-11562295D02*
X8738094Y-12362295D01*
X8738094Y-12362295D02*
X8471428Y-11562295D01*
X15861904Y-14362295D02*
X15861904Y-13562295D01*
X15861904Y-13562295D02*
X15404761Y-14362295D01*
X15404761Y-14362295D02*
X15404761Y-13562295D01*
X14871428Y-13562295D02*
X14719047Y-13562295D01*
X14719047Y-13562295D02*
X14642857Y-13600390D01*
X14642857Y-13600390D02*
X14566666Y-13676580D01*
X14566666Y-13676580D02*
X14528571Y-13828961D01*
X14528571Y-13828961D02*
X14528571Y-14095628D01*
X14528571Y-14095628D02*
X14566666Y-14248009D01*
X14566666Y-14248009D02*
X14642857Y-14324200D01*
X14642857Y-14324200D02*
X14719047Y-14362295D01*
X14719047Y-14362295D02*
X14871428Y-14362295D01*
X14871428Y-14362295D02*
X14947619Y-14324200D01*
X14947619Y-14324200D02*
X15023809Y-14248009D01*
X15023809Y-14248009D02*
X15061905Y-14095628D01*
X15061905Y-14095628D02*
X15061905Y-13828961D01*
X15061905Y-13828961D02*
X15023809Y-13676580D01*
X15023809Y-13676580D02*
X14947619Y-13600390D01*
X14947619Y-13600390D02*
X14871428Y-13562295D01*
X13614286Y-13638485D02*
X13576190Y-13600390D01*
X13576190Y-13600390D02*
X13500000Y-13562295D01*
X13500000Y-13562295D02*
X13309524Y-13562295D01*
X13309524Y-13562295D02*
X13233333Y-13600390D01*
X13233333Y-13600390D02*
X13195238Y-13638485D01*
X13195238Y-13638485D02*
X13157143Y-13714676D01*
X13157143Y-13714676D02*
X13157143Y-13790866D01*
X13157143Y-13790866D02*
X13195238Y-13905152D01*
X13195238Y-13905152D02*
X13652381Y-14362295D01*
X13652381Y-14362295D02*
X13157143Y-14362295D01*
X12661904Y-13562295D02*
X12585714Y-13562295D01*
X12585714Y-13562295D02*
X12509523Y-13600390D01*
X12509523Y-13600390D02*
X12471428Y-13638485D01*
X12471428Y-13638485D02*
X12433333Y-13714676D01*
X12433333Y-13714676D02*
X12395238Y-13867057D01*
X12395238Y-13867057D02*
X12395238Y-14057533D01*
X12395238Y-14057533D02*
X12433333Y-14209914D01*
X12433333Y-14209914D02*
X12471428Y-14286104D01*
X12471428Y-14286104D02*
X12509523Y-14324200D01*
X12509523Y-14324200D02*
X12585714Y-14362295D01*
X12585714Y-14362295D02*
X12661904Y-14362295D01*
X12661904Y-14362295D02*
X12738095Y-14324200D01*
X12738095Y-14324200D02*
X12776190Y-14286104D01*
X12776190Y-14286104D02*
X12814285Y-14209914D01*
X12814285Y-14209914D02*
X12852381Y-14057533D01*
X12852381Y-14057533D02*
X12852381Y-13867057D01*
X12852381Y-13867057D02*
X12814285Y-13714676D01*
X12814285Y-13714676D02*
X12776190Y-13638485D01*
X12776190Y-13638485D02*
X12738095Y-13600390D01*
X12738095Y-13600390D02*
X12661904Y-13562295D01*
X11557142Y-13562295D02*
X11290475Y-14362295D01*
X11290475Y-14362295D02*
X11023809Y-13562295D01*
D11*
X3000828Y-34354510D02*
X2000828Y-34354510D01*
X2286542Y-34354510D02*
X2143685Y-34425939D01*
X2143685Y-34425939D02*
X2072257Y-34497368D01*
X2072257Y-34497368D02*
X2000828Y-34640225D01*
X2000828Y-34640225D02*
X2000828Y-34783082D01*
X2929400Y-35854510D02*
X3000828Y-35711653D01*
X3000828Y-35711653D02*
X3000828Y-35425939D01*
X3000828Y-35425939D02*
X2929400Y-35283081D01*
X2929400Y-35283081D02*
X2786542Y-35211653D01*
X2786542Y-35211653D02*
X2215114Y-35211653D01*
X2215114Y-35211653D02*
X2072257Y-35283081D01*
X2072257Y-35283081D02*
X2000828Y-35425939D01*
X2000828Y-35425939D02*
X2000828Y-35711653D01*
X2000828Y-35711653D02*
X2072257Y-35854510D01*
X2072257Y-35854510D02*
X2215114Y-35925939D01*
X2215114Y-35925939D02*
X2357971Y-35925939D01*
X2357971Y-35925939D02*
X2500828Y-35211653D01*
X2000828Y-36425938D02*
X3000828Y-36783081D01*
X3000828Y-36783081D02*
X2000828Y-37140224D01*
X1643685Y-37640224D02*
X1572257Y-37711652D01*
X1572257Y-37711652D02*
X1500828Y-37854510D01*
X1500828Y-37854510D02*
X1500828Y-38211652D01*
X1500828Y-38211652D02*
X1572257Y-38354510D01*
X1572257Y-38354510D02*
X1643685Y-38425938D01*
X1643685Y-38425938D02*
X1786542Y-38497367D01*
X1786542Y-38497367D02*
X1929400Y-38497367D01*
X1929400Y-38497367D02*
X2143685Y-38425938D01*
X2143685Y-38425938D02*
X3000828Y-37568795D01*
X3000828Y-37568795D02*
X3000828Y-38497367D01*
%LPC*%
D12*
%TO.C,MH1*%
X4000000Y-4000000D03*
%TD*%
D13*
%TO.C,J1*%
X17826000Y-6750000D03*
X17826000Y-2950000D03*
X9186000Y-6750000D03*
X9186000Y-2950000D03*
%TD*%
D12*
%TO.C,MH3*%
X12800000Y-32600000D03*
%TD*%
D14*
%TO.C,JOUT1*%
X6550000Y-37700000D03*
D15*
X9090000Y-37700000D03*
X11630000Y-37700000D03*
X14170000Y-37700000D03*
X16710000Y-37700000D03*
X19250000Y-37700000D03*
%TD*%
D12*
%TO.C,MH2*%
X23000000Y-4000000D03*
%TD*%
%LPD*%
M02*
