%TF.GenerationSoftware,KiCad,Pcbnew,10.0.0*%
%TF.CreationDate,2026-09-21T23:19:18+09:00*%
%TF.ProjectId,board-b,626f6172-642d-4622-9e6b-696361645f70,rev?*%
%TF.SameCoordinates,Original*%
%TF.FileFunction,Copper,L2,Bot*%
%TF.FilePolarity,Positive*%
%FSLAX46Y46*%
G04 Gerber Fmt 4.6, Leading zero omitted, Abs format (unit mm)*
G04 Created by KiCad (PCBNEW 10.0.0) date 2026-09-21 23:19:18*
%MOMM*%
%LPD*%
G01*
G04 APERTURE LIST*
%TA.AperFunction,ComponentPad*%
%ADD10R,2.000000X2.000000*%
%TD*%
%TA.AperFunction,ComponentPad*%
%ADD11C,2.000000*%
%TD*%
%TA.AperFunction,ComponentPad*%
%ADD12R,1.800000X1.800000*%
%TD*%
%TA.AperFunction,ComponentPad*%
%ADD13C,1.600000*%
%TD*%
%TA.AperFunction,ComponentPad*%
%ADD14C,1.800000*%
%TD*%
%TA.AperFunction,ViaPad*%
%ADD15C,1.000000*%
%TD*%
%TA.AperFunction,ViaPad*%
%ADD16C,1.200000*%
%TD*%
%TA.AperFunction,ViaPad*%
%ADD17C,1.500000*%
%TD*%
%TA.AperFunction,Conductor*%
%ADD18C,1.000000*%
%TD*%
%TA.AperFunction,Conductor*%
%ADD19C,0.250000*%
%TD*%
%TA.AperFunction,Conductor*%
%ADD20C,1.500000*%
%TD*%
G04 APERTURE END LIST*
D10*
%TO.P,J6,1*%
%TO.N,GND*%
X7000000Y34460000D03*
D11*
%TO.P,J6,2*%
%TO.N,-12V rail*%
X7000000Y39540000D03*
%TD*%
D12*
%TO.P,J5,1*%
%TO.N,+15V INPUT*%
X37200000Y66450000D03*
D13*
%TO.P,J5,2*%
X37200000Y63910000D03*
%TO.P,J5,3*%
%TO.N,ATT*%
X37200000Y61370000D03*
%TO.P,J5,4*%
%TO.N,PDOK*%
X37200000Y58830000D03*
%TO.P,J5,5*%
%TO.N,GND*%
X37200000Y56290000D03*
%TO.P,J5,6*%
X37200000Y53750000D03*
%TD*%
D12*
%TO.P,J10,1*%
%TO.N,-12V rail*%
X50290000Y13500000D03*
D14*
%TO.P,J10,2*%
X50290000Y10960000D03*
%TO.P,J10,3*%
%TO.N,GND*%
X47750000Y13500000D03*
%TO.P,J10,4*%
X47750000Y10960000D03*
%TO.P,J10,5*%
X45210000Y13500000D03*
%TO.P,J10,6*%
X45210000Y10960000D03*
%TO.P,J10,7*%
X42670000Y13500000D03*
%TO.P,J10,8*%
X42670000Y10960000D03*
%TO.P,J10,9*%
%TO.N,+12V rail*%
X40130000Y13500000D03*
%TO.P,J10,10*%
X40130000Y10960000D03*
%TO.P,J10,11*%
%TO.N,+5V rail*%
X37590000Y13500000D03*
%TO.P,J10,12*%
X37590000Y10960000D03*
%TO.P,J10,13*%
%TO.N,CV rail*%
X35050000Y13500000D03*
%TO.P,J10,14*%
X35050000Y10960000D03*
%TO.P,J10,15*%
%TO.N,GATE rail*%
X32510000Y13500000D03*
%TO.P,J10,16*%
X32510000Y10960000D03*
%TD*%
D12*
%TO.P,J11,1*%
%TO.N,-12V rail*%
X90390000Y13500000D03*
D14*
%TO.P,J11,2*%
X90390000Y10960000D03*
%TO.P,J11,3*%
%TO.N,GND*%
X87850000Y13500000D03*
%TO.P,J11,4*%
X87850000Y10960000D03*
%TO.P,J11,5*%
X85310000Y13500000D03*
%TO.P,J11,6*%
X85310000Y10960000D03*
%TO.P,J11,7*%
X82770000Y13500000D03*
%TO.P,J11,8*%
X82770000Y10960000D03*
%TO.P,J11,9*%
%TO.N,+12V rail*%
X80230000Y13500000D03*
%TO.P,J11,10*%
X80230000Y10960000D03*
%TO.P,J11,11*%
%TO.N,+5V rail*%
X77690000Y13500000D03*
%TO.P,J11,12*%
X77690000Y10960000D03*
%TO.P,J11,13*%
%TO.N,CV rail*%
X75150000Y13500000D03*
%TO.P,J11,14*%
X75150000Y10960000D03*
%TO.P,J11,15*%
%TO.N,GATE rail*%
X72610000Y13500000D03*
%TO.P,J11,16*%
X72610000Y10960000D03*
%TD*%
D10*
%TO.P,J7,1*%
%TO.N,+5V rail*%
X7000000Y21460000D03*
D11*
%TO.P,J7,2*%
%TO.N,+12V rail*%
X7000000Y26540000D03*
%TD*%
D15*
%TO.N,GND*%
X48000000Y29000000D03*
X58000000Y25000000D03*
X78889000Y54000000D03*
X75889000Y69000000D03*
X70944000Y57334000D03*
X78889000Y48000000D03*
X67999000Y48000000D03*
X64999000Y72000000D03*
X72944000Y75334000D03*
X73444000Y44666000D03*
X72944000Y62666000D03*
X75889000Y66000000D03*
X26000000Y61000000D03*
X67999000Y51000000D03*
X50000000Y21000000D03*
X46200000Y63500000D03*
X78889000Y51000000D03*
X75944000Y44666000D03*
X70444000Y75334000D03*
X67944000Y75334000D03*
X67944000Y62666000D03*
X64999000Y66000000D03*
X73444000Y57334000D03*
X70444000Y62666000D03*
X75889000Y72000000D03*
X75944000Y57334000D03*
X70944000Y44666000D03*
X67999000Y54000000D03*
X54000000Y21000000D03*
X64999000Y69000000D03*
X48000000Y23000000D03*
X40000000Y31000000D03*
X52000000Y21000000D03*
D16*
X16233300Y37881500D03*
D15*
%TO.N,{slash}DC-DC Conversion{slash}-14.145V PRE*%
X23090000Y22000000D03*
X20340000Y31500000D03*
X75944000Y31334000D03*
X17840000Y31500000D03*
X23090000Y28000000D03*
X78889000Y22000000D03*
X70944000Y18666000D03*
X12590000Y25000000D03*
X17840000Y18500000D03*
X15340000Y18500000D03*
X78889000Y25000000D03*
X70944000Y31334000D03*
X73444000Y18666000D03*
X12590000Y28000000D03*
X67999000Y22000000D03*
X32000000Y36800000D03*
X23090000Y25000000D03*
X12590000Y22000000D03*
X67999000Y25000000D03*
X75944000Y18666000D03*
X71430000Y81200000D03*
X54200000Y67400000D03*
X15340000Y31500000D03*
X20340000Y18500000D03*
D16*
X54000000Y36500000D03*
D15*
X67999000Y28000000D03*
X73444000Y31334000D03*
X45000000Y58200000D03*
X78889000Y28000000D03*
D16*
%TO.N,Net-(U8-OUT)*%
X96000000Y16200000D03*
X90000000Y18000000D03*
D15*
X57500000Y2050000D03*
D16*
X98500000Y28550000D03*
%TO.N,{slash}DC-DC Conversion{slash}+6.519V PRE*%
X85056800Y48447300D03*
D15*
X68890000Y81200000D03*
D16*
X79044500Y59382900D03*
%TO.N,{slash}DC-DC Conversion{slash}+13.44V PRE*%
X61481600Y60985900D03*
D15*
X66349999Y81200000D03*
D16*
X79715000Y64130300D03*
X43762500Y79330800D03*
X51968400Y70000000D03*
%TO.N,Net-(U6-OUT)*%
X87000000Y62000000D03*
D15*
X57000000Y7200000D03*
D16*
X92500000Y58000000D03*
X95500000Y76900000D03*
%TO.N,U6 ADJ*%
X81972800Y76750100D03*
X90567500Y74699100D03*
D15*
%TO.N,ATT*%
X47400000Y72600000D03*
%TO.N,PDOK*%
X47800000Y63600000D03*
D16*
%TO.N,U7 ADJ*%
X85006900Y55122100D03*
X87601800Y56696200D03*
D17*
%TO.N,+15V INPUT*%
X13500000Y82500000D03*
D16*
X37700000Y45737500D03*
X40000000Y63800000D03*
%TO.N,Net-(U7-OUT)*%
X61267900Y28902900D03*
X95500000Y40000000D03*
X90000000Y44000000D03*
X55079300Y7226100D03*
X98500000Y54150000D03*
X85000000Y40500000D03*
%TO.N,+5V rail*%
X99387300Y57850000D03*
X106000000Y43740700D03*
%TO.N,Net-(D3-K)*%
X31443700Y23300000D03*
X38609700Y21748300D03*
%TO.N,Net-(U4-Feedback)*%
X30555700Y26700000D03*
X34503800Y30648100D03*
%TO.N,+12V rail*%
X80322700Y20242400D03*
X88540600Y65707200D03*
%TO.N,CV rail*%
X58005200Y12080500D03*
X61706700Y7014800D03*
%TO.N,GATE rail*%
X61070300Y9341500D03*
X59067800Y13131900D03*
%TD*%
%TO.N,GND*%
D18*
X75889000Y62666000D02*
X64998999Y62666000D01*
X46200000Y66000000D02*
X64999000Y66000000D01*
X46200000Y66000000D02*
X46200000Y63500000D01*
X50000000Y21000000D02*
X48000000Y23000000D01*
X14351800Y36000000D02*
X16233300Y37881500D01*
X70444000Y75334000D02*
X70444000Y62666000D01*
X48000000Y23000000D02*
X48000000Y29000000D01*
X67999000Y57334000D02*
X78889000Y57334000D01*
X78889000Y44666000D02*
X67999000Y44666000D01*
X64998999Y69000000D02*
X75889000Y69000000D01*
X47750000Y10960000D02*
X47750000Y13500000D01*
X64998999Y62666000D02*
X64998999Y75334000D01*
X75889000Y75334000D02*
X75889000Y62666000D01*
X73444000Y57334000D02*
X73444000Y44666000D01*
X47750000Y18750000D02*
X50000000Y21000000D01*
X78889000Y57334000D02*
X78889000Y44666000D01*
X67999000Y44666000D02*
X67999000Y57334000D01*
X46200000Y66210000D02*
X46200000Y66000000D01*
X47750000Y13500000D02*
X47750000Y18750000D01*
X64998999Y75334000D02*
X75889000Y75334000D01*
X64999000Y69000000D02*
X64999000Y72000000D01*
X87850000Y10960000D02*
X87850000Y13500000D01*
X67999000Y51000000D02*
X78889000Y51000000D01*
%TO.N,{slash}DC-DC Conversion{slash}-14.145V PRE*%
X67999000Y25000000D02*
X78889000Y25000000D01*
D19*
X32799999Y38600000D02*
X32799999Y38400000D01*
X39000000Y45400000D02*
X38800000Y45200000D01*
X67200000Y80400000D02*
X54200000Y67400000D01*
X32200000Y37200000D02*
X32000000Y37000000D01*
X67400000Y80800000D02*
X67200000Y80600000D01*
X32200000Y37400000D02*
X32200000Y37200000D01*
D18*
X23090000Y18500000D02*
X12590000Y18500000D01*
D19*
X39000000Y52200001D02*
X39000000Y45400000D01*
X32000000Y37000000D02*
X32000000Y36800000D01*
D18*
X17840000Y18500000D02*
X15340000Y18500000D01*
D19*
X45000000Y58200000D02*
X39000000Y52200001D01*
X32600000Y38200000D02*
X32600000Y38000000D01*
D18*
X78889000Y31334000D02*
X78889000Y18666000D01*
X23090000Y25000000D02*
X34000000Y36000000D01*
D19*
X69800000Y81800000D02*
X69400000Y82200000D01*
X32000000Y36800000D02*
X30000000Y36800000D01*
X32799999Y38400000D02*
X32600000Y38200000D01*
X68400000Y82200000D02*
X67400000Y81200000D01*
D18*
X34000000Y36000000D02*
X54000000Y36500000D01*
D19*
X32400000Y37600000D02*
X32200000Y37400000D01*
D18*
X67999000Y18666000D02*
X67999000Y31334000D01*
X12590000Y25000000D02*
X23090000Y25000000D01*
D19*
X71430000Y81200000D02*
X71400000Y81200000D01*
D18*
X17840000Y31500000D02*
X17840000Y18500000D01*
D19*
X70800000Y81200000D02*
X70200000Y81800000D01*
X71400000Y81200000D02*
X70800000Y81200000D01*
D18*
X12590000Y18500000D02*
X12590000Y31500000D01*
X78889000Y18666000D02*
X67999000Y18666000D01*
X54000000Y36500000D02*
X67999000Y31334000D01*
X67999000Y31334000D02*
X78889000Y31334000D01*
D19*
X69400000Y82200000D02*
X68400000Y82200000D01*
X33000000Y39200000D02*
X33000000Y38800000D01*
X38800000Y45000000D02*
X33000000Y39200000D01*
X32400000Y37800000D02*
X32400000Y37600000D01*
X30000000Y36800000D02*
X23090000Y31500000D01*
X70200000Y81800000D02*
X69800000Y81800000D01*
X33000000Y38800000D02*
X32799999Y38600000D01*
D18*
X23090000Y31500000D02*
X23090000Y18500000D01*
X73444000Y31334000D02*
X73444000Y18666000D01*
D19*
X67200000Y80600000D02*
X67200000Y80400000D01*
X67400000Y81200000D02*
X67400000Y80800000D01*
X32600000Y38000000D02*
X32400000Y37800000D01*
D18*
X12590000Y31500000D02*
X23090000Y31500000D01*
D19*
X38800000Y45200000D02*
X38800000Y45000000D01*
%TO.N,Net-(U8-OUT)*%
X90500000Y9300000D02*
X92000000Y9300000D01*
X91750000Y15300000D02*
X91750000Y15550000D01*
X60000000Y4050000D02*
X60250000Y4300000D01*
X90750000Y17300000D02*
X90750000Y17550000D01*
D18*
X90000000Y18000000D02*
X98500000Y18000000D01*
X96000000Y16200000D02*
X96000000Y18000000D01*
D19*
X91500000Y15800000D02*
X91500000Y16050000D01*
X92000000Y9300000D02*
X92000000Y15050000D01*
X92000000Y15050000D02*
X91750000Y15300000D01*
X91250000Y16550000D02*
X91000000Y16800000D01*
X91750000Y15550000D02*
X91500000Y15800000D01*
X91000000Y17050000D02*
X90750000Y17300000D01*
X60250000Y4300000D02*
X60500000Y4300000D01*
X59500000Y4050000D02*
X60000000Y4050000D01*
X91250000Y16300000D02*
X91250000Y16550000D01*
X60750000Y4550000D02*
X85750000Y4550000D01*
X90500000Y17800000D02*
X90500000Y18050000D01*
D18*
X98500000Y18000000D02*
X98500000Y28550000D01*
D19*
X91500000Y16050000D02*
X91250000Y16300000D01*
X57500000Y2050000D02*
X59500000Y4050000D01*
X90750000Y17550000D02*
X90500000Y17800000D01*
X60500000Y4300000D02*
X60750000Y4550000D01*
X85750000Y4550000D02*
X90500000Y9300000D01*
X91000000Y16800000D02*
X91000000Y17050000D01*
%TO.N,-12V rail*%
D18*
X49038300Y8051600D02*
X50290000Y9303300D01*
X50290000Y10960000D02*
X50290000Y9303300D01*
X50290000Y10960000D02*
X50290000Y13500000D01*
X19448700Y8051600D02*
X49038300Y8051600D01*
X85093100Y5663100D02*
X90390000Y10960000D01*
X2250000Y34790000D02*
X2250000Y19500000D01*
X13698400Y8051600D02*
X19448700Y8051600D01*
X7000000Y39540000D02*
X2250000Y34790000D01*
X50290000Y9303300D02*
X53930200Y5663100D01*
X90390000Y10960000D02*
X90390000Y13500000D01*
X2250000Y19500000D02*
X13698400Y8051600D01*
X53930200Y5663100D02*
X85093100Y5663100D01*
%TO.N,{slash}DC-DC Conversion{slash}+6.519V PRE*%
D19*
X76600000Y76200000D02*
X76800000Y76000000D01*
X74200000Y78400000D02*
X76400000Y76200000D01*
X80800000Y63400000D02*
X80000000Y62600000D01*
X79200000Y60000000D02*
X79200000Y59800000D01*
D18*
X96892400Y77444400D02*
X96892400Y60282900D01*
X92080600Y75408000D02*
X94975500Y78302900D01*
D19*
X80600000Y65000000D02*
X80600000Y64800000D01*
X79200000Y59800000D02*
X79000000Y59600000D01*
X79600000Y60600000D02*
X79400000Y60400000D01*
X79000000Y59400000D02*
X79044500Y59382900D01*
X79400000Y60400000D02*
X79400000Y60200000D01*
X71600000Y78400000D02*
X74200000Y78400000D01*
X79400000Y60200000D02*
X79200000Y60000000D01*
D18*
X92080600Y72419000D02*
X92080600Y75408000D01*
D19*
X80800000Y64600000D02*
X80800000Y63400000D01*
X68890000Y81200000D02*
X68800000Y81200000D01*
X80000000Y61400000D02*
X79800000Y61200000D01*
X68800000Y81200000D02*
X71600000Y78400000D01*
X79800000Y61200000D02*
X79800000Y61000000D01*
X76400000Y76200000D02*
X76600000Y76200000D01*
X76800000Y68800000D02*
X80600000Y65000000D01*
D18*
X79044500Y59382900D02*
X92080600Y72419000D01*
D19*
X79000000Y59600000D02*
X79000000Y59400000D01*
D18*
X96033900Y78302900D02*
X96892400Y77444400D01*
D19*
X76800000Y76000000D02*
X76800000Y68800000D01*
X80000000Y62600000D02*
X80000000Y61400000D01*
D18*
X94975500Y78302900D02*
X96033900Y78302900D01*
D19*
X79600000Y60800000D02*
X79600000Y60600000D01*
X79800000Y61000000D02*
X79600000Y60800000D01*
D18*
X96892400Y60282900D02*
X85056800Y48447300D01*
D19*
X80600000Y64800000D02*
X80800000Y64600000D01*
%TO.N,{slash}DC-DC Conversion{slash}+13.44V PRE*%
X46200000Y80400000D02*
X45800000Y80400000D01*
D18*
X43762500Y78205900D02*
X43762500Y79330800D01*
D19*
X46400000Y80600000D02*
X46200000Y80400000D01*
X47200000Y81000000D02*
X47000000Y80800000D01*
X44000000Y79600000D02*
X43800000Y79400000D01*
X43800000Y79400000D02*
X43762500Y79330800D01*
X66349999Y81200000D02*
X66400000Y81200000D01*
X47600000Y81200000D02*
X47400000Y81000000D01*
X45800000Y80400000D02*
X45600000Y80200000D01*
D18*
X76570600Y60985900D02*
X79715000Y64130300D01*
D19*
X45600000Y80200000D02*
X45400000Y80200000D01*
X44400000Y79600000D02*
X44000000Y79600000D01*
X47000000Y80800000D02*
X46800000Y80800000D01*
X44600000Y79800000D02*
X44400000Y79600000D01*
X44800000Y79800000D02*
X44600000Y79800000D01*
X66400000Y81200000D02*
X47600000Y81200000D01*
X45200000Y80000000D02*
X45000000Y80000000D01*
X47400000Y81000000D02*
X47200000Y81000000D01*
D18*
X61481600Y60985900D02*
X76570600Y60985900D01*
D19*
X45000000Y80000000D02*
X44800000Y79800000D01*
X46800000Y80800000D02*
X46600000Y80600000D01*
D18*
X51968400Y70000000D02*
X43762500Y78205900D01*
D19*
X45400000Y80200000D02*
X45200000Y80000000D01*
X46600000Y80600000D02*
X46400000Y80600000D01*
%TO.N,Net-(U6-OUT)*%
D18*
X87000000Y62000000D02*
X95500000Y62000000D01*
X66229600Y16429600D02*
X78486600Y16429600D01*
X92500000Y58000000D02*
X92500000Y62000000D01*
X83229600Y21172600D02*
X83229600Y58229600D01*
X57000000Y7200000D02*
X66229600Y16429600D01*
X83229600Y58229600D02*
X87000000Y62000000D01*
X95500000Y62000000D02*
X95500000Y76900000D01*
X78486600Y16429600D02*
X83229600Y21172600D01*
%TO.N,U6 ADJ*%
D19*
X81972800Y76750100D02*
X88516500Y76750100D01*
X88516500Y76750100D02*
X90567500Y74699100D01*
%TO.N,ATT*%
X40800000Y62800000D02*
X41000000Y62800000D01*
X38400000Y62600000D02*
X40600000Y62600000D01*
X37400000Y61600000D02*
X38400000Y62600000D01*
X41000000Y62800000D02*
X47400000Y69200000D01*
X40600000Y62600000D02*
X40800000Y62800000D01*
X47400000Y69200000D02*
X47400000Y72600000D01*
%TO.N,PDOK*%
X37200000Y58830000D02*
X37200000Y58800000D01*
X43200000Y59400000D02*
X46400000Y62600000D01*
X46400000Y62600000D02*
X46800000Y62600000D01*
X37200000Y58800000D02*
X37400000Y59000000D01*
X37600000Y59000000D02*
X38000000Y59400000D01*
X38000000Y59400000D02*
X43200000Y59400000D01*
X46800000Y62600000D02*
X47800000Y63600000D01*
X37400000Y59000000D02*
X37600000Y59000000D01*
%TO.N,U7 ADJ*%
X85006900Y55122100D02*
X86027700Y55122100D01*
X86027700Y55122100D02*
X87601800Y56696200D01*
%TO.N,+15V INPUT*%
D20*
X23000000Y75200000D02*
X23400000Y75200000D01*
X36800000Y47400000D02*
X37000000Y47200000D01*
X37200000Y63910000D02*
X40000000Y63800000D01*
X37200000Y66400000D02*
X37200000Y66450000D01*
X36000000Y49200000D02*
X36200000Y49000000D01*
X35600000Y50400000D02*
X35600000Y50000000D01*
X36400000Y48400000D02*
X36600000Y48200000D01*
X19400000Y72600000D02*
X19400000Y72200000D01*
X16600000Y79600000D02*
X18600000Y79600000D01*
X37000000Y47200000D02*
X37000000Y47000000D01*
X36600000Y47800000D02*
X36800000Y47600000D01*
X13600000Y82600000D02*
X16600000Y79600000D01*
X28000000Y58800000D02*
X28000000Y58400000D01*
X13500000Y82500000D02*
X13600000Y82600000D01*
X36400000Y48600000D02*
X36400000Y48400000D01*
X28200000Y58000000D02*
X28400000Y57800000D01*
X36200000Y48800000D02*
X36400000Y48600000D01*
X36200000Y49000000D02*
X36200000Y48800000D01*
X35600000Y50000000D02*
X35800000Y49800000D01*
X15000000Y77000000D02*
X19400000Y72600000D01*
X37000000Y47000000D02*
X37200000Y46800000D01*
X15000000Y81200000D02*
X15000000Y77000000D01*
X36600000Y48200000D02*
X36600000Y47800000D01*
X37200000Y66450000D02*
X37200000Y63910000D01*
X28200000Y70400000D02*
X28600000Y70400000D01*
X19400000Y72200000D02*
X27800000Y63800000D01*
X32600000Y66400000D02*
X37200000Y66400000D01*
X18600000Y79600000D02*
X23000000Y75200000D01*
X27800000Y59000000D02*
X28000000Y58800000D01*
X37400000Y46400000D02*
X37400000Y46000000D01*
X27800000Y63800000D02*
X27800000Y59000000D01*
X35800000Y49800000D02*
X35800000Y49600000D01*
X28400000Y57800000D02*
X28400000Y57600000D01*
X23400000Y75200000D02*
X28200000Y70400000D01*
X28200000Y58200000D02*
X28200000Y58000000D01*
X13600000Y82600000D02*
X15000000Y81200000D01*
X36000000Y49400000D02*
X36000000Y49200000D01*
X28600000Y70400000D02*
X32600000Y66400000D01*
X28400000Y57600000D02*
X35600000Y50400000D01*
X37400000Y46000000D02*
X37600000Y45800000D01*
X35800000Y49600000D02*
X36000000Y49400000D01*
X37600000Y45800000D02*
X37700000Y45737500D01*
X13500000Y82500000D02*
X13600000Y82600000D01*
X37200000Y46800000D02*
X37200000Y46600000D01*
X28000000Y58400000D02*
X28200000Y58200000D01*
X36800000Y47600000D02*
X36800000Y47400000D01*
X37200000Y46600000D02*
X37400000Y46400000D01*
%TO.N,Net-(U7-OUT)*%
D18*
X95500000Y40000000D02*
X95500000Y44000000D01*
X61267900Y13414700D02*
X55079300Y7226100D01*
X85000000Y40500000D02*
X90000000Y44000000D01*
X61267900Y28902900D02*
X61267900Y13414700D01*
X90000000Y44000000D02*
X98500000Y44000000D01*
X98500000Y44000000D02*
X98500000Y54150000D01*
%TO.N,+5V rail*%
X106000000Y41810000D02*
X106000000Y43740700D01*
X77690000Y10960000D02*
X77690000Y13500000D01*
X37590000Y10960000D02*
X37590000Y13500000D01*
X106000000Y51237300D02*
X99387300Y57850000D01*
X77690000Y13500000D02*
X106000000Y41810000D01*
X106000000Y43740700D02*
X106000000Y51237300D01*
%TO.N,Net-(D3-K)*%
X32995400Y21748300D02*
X31443700Y23300000D01*
X38609700Y21748300D02*
X32995400Y21748300D01*
%TO.N,Net-(U4-Feedback)*%
D19*
X34503800Y30648100D02*
X30555700Y26700000D01*
%TO.N,+12V rail*%
D18*
X19967200Y9303300D02*
X38473300Y9303300D01*
X80230000Y10960000D02*
X80230000Y13500000D01*
X38473300Y9303300D02*
X40130000Y10960000D01*
X80322700Y20242400D02*
X80322700Y57489300D01*
X10000000Y19270500D02*
X19967200Y9303300D01*
X10000000Y23540000D02*
X10000000Y19270500D01*
X7000000Y26540000D02*
X10000000Y23540000D01*
X40130000Y10960000D02*
X40130000Y13500000D01*
X80322700Y57489300D02*
X88540600Y65707200D01*
%TO.N,CV rail*%
D19*
X71204800Y7014800D02*
X61706700Y7014800D01*
X75150000Y10960000D02*
X75150000Y13500000D01*
X48365100Y29882900D02*
X58005200Y20242800D01*
X75150000Y10960000D02*
X71204800Y7014800D01*
X47643100Y29882900D02*
X48365100Y29882900D01*
X46699600Y28939400D02*
X47643100Y29882900D01*
X46699600Y25149600D02*
X46699600Y28939400D01*
X35050000Y10960000D02*
X35050000Y13500000D01*
X35050000Y13500000D02*
X46699600Y25149600D01*
X58005200Y20242800D02*
X58005200Y12080500D01*
%TO.N,GATE rail*%
X72610000Y10960000D02*
X72610000Y13500000D01*
X32510000Y13500000D02*
X40017000Y21007000D01*
X32510000Y10960000D02*
X32510000Y13500000D01*
X59067800Y19889900D02*
X59067800Y13131900D01*
X48573100Y30384600D02*
X59067800Y19889900D01*
X62688800Y10960000D02*
X61070300Y9341500D01*
X72610000Y10960000D02*
X62688800Y10960000D01*
X40017000Y21007000D02*
X40017000Y22966400D01*
X47435200Y30384600D02*
X48573100Y30384600D01*
X40017000Y22966400D02*
X47435200Y30384600D01*
%TD*%
%TA.AperFunction,Conductor*%
%TO.N,{slash}DC-DC Conversion{slash}-14.145V PRE*%
G36*
X79465239Y35980315D02*
G01*
X79510994Y35927511D01*
X79522200Y35876000D01*
X79522200Y20687607D01*
X79512761Y20640155D01*
X79456806Y20505068D01*
X79456803Y20505059D01*
X79422200Y20331096D01*
X79422200Y20153705D01*
X79456803Y19979742D01*
X79456806Y19979733D01*
X79524683Y19815860D01*
X79524690Y19815847D01*
X79623235Y19668366D01*
X79623238Y19668362D01*
X79748661Y19542939D01*
X79748665Y19542936D01*
X79896146Y19444391D01*
X79896158Y19444384D01*
X80012570Y19396166D01*
X80059272Y19376822D01*
X80113676Y19332982D01*
X80135741Y19266688D01*
X80118462Y19198988D01*
X80099501Y19174580D01*
X78191341Y17266419D01*
X78130018Y17232934D01*
X78103660Y17230100D01*
X66150752Y17230100D01*
X66148179Y17229588D01*
X66146806Y17229712D01*
X66144694Y17229503D01*
X66144654Y17229904D01*
X66078588Y17235823D01*
X66023415Y17278692D01*
X66000177Y17344584D01*
X66000000Y17351208D01*
X66000000Y35876000D01*
X66019685Y35943039D01*
X66072489Y35988794D01*
X66124000Y36000000D01*
X79398200Y36000000D01*
X79465239Y35980315D01*
G37*
%TD.AperFunction*%
%TD*%
%TA.AperFunction,Conductor*%
%TO.N,GND*%
G36*
X48154592Y29452379D02*
G01*
X48179836Y29444966D01*
X48232582Y29413670D01*
X57530773Y20115479D01*
X57551923Y20087227D01*
X57564531Y20064138D01*
X57579700Y20004709D01*
X57579700Y12963323D01*
X57574676Y12928384D01*
X57568764Y12908252D01*
X57538250Y12856297D01*
X57533540Y12851502D01*
X57513970Y12835294D01*
X57431157Y12779960D01*
X57305742Y12654545D01*
X57305737Y12654539D01*
X57207194Y12507061D01*
X57207185Y12507046D01*
X57207177Y12507028D01*
X57139309Y12343178D01*
X57139301Y12343155D01*
X57139299Y12343148D01*
X57104700Y12169201D01*
X57104700Y11991801D01*
X57139299Y11817854D01*
X57139301Y11817847D01*
X57139309Y11817824D01*
X57207177Y11653974D01*
X57207185Y11653956D01*
X57207194Y11653941D01*
X57305736Y11506464D01*
X57305737Y11506463D01*
X57305742Y11506457D01*
X57431155Y11381044D01*
X57431161Y11381039D01*
X57431162Y11381038D01*
X57578649Y11282489D01*
X57578662Y11282483D01*
X57691218Y11235861D01*
X57721571Y11217853D01*
X57732376Y11209146D01*
X57772225Y11151754D01*
X57774720Y11081928D01*
X57773425Y11076854D01*
X57740957Y11019838D01*
X54836707Y8115588D01*
X54817916Y8100166D01*
X54797990Y8086852D01*
X54776553Y8075394D01*
X54652757Y8024117D01*
X54652749Y8024112D01*
X54505258Y7925560D01*
X54505255Y7925558D01*
X54379842Y7800145D01*
X54379837Y7800139D01*
X54379836Y7800138D01*
X54281294Y7652661D01*
X54281285Y7652646D01*
X54281277Y7652628D01*
X54213409Y7488778D01*
X54213401Y7488755D01*
X54213399Y7488748D01*
X54178800Y7314801D01*
X54178800Y7137401D01*
X54213399Y6963454D01*
X54213401Y6963447D01*
X54213409Y6963424D01*
X54281277Y6799574D01*
X54281286Y6799554D01*
X54281290Y6799546D01*
X54281298Y6799533D01*
X54287702Y6789950D01*
X54308503Y6726014D01*
X54308616Y6723168D01*
X54310407Y6717452D01*
X54291928Y6650070D01*
X54239953Y6603375D01*
X54170984Y6592193D01*
X54136946Y6601528D01*
X54135326Y6602233D01*
X54097126Y6628252D01*
X51139426Y9585952D01*
X51118274Y9614208D01*
X51105667Y9637297D01*
X51090500Y9696722D01*
X51090500Y9993546D01*
X51095522Y10028479D01*
X51102934Y10053724D01*
X51134229Y10106467D01*
X51151248Y10123485D01*
X51205690Y10177927D01*
X51316760Y10330801D01*
X51402547Y10499168D01*
X51460940Y10678882D01*
X51474500Y10764498D01*
X51490500Y10865514D01*
X51490500Y11054487D01*
X51460940Y11241119D01*
X51423449Y11356503D01*
X51423449Y11356504D01*
X51423449Y11356505D01*
X51411499Y11393280D01*
X51402547Y11420832D01*
X51402545Y11420835D01*
X51402545Y11420837D01*
X51400294Y11425254D01*
X51399987Y11426042D01*
X51399262Y11427281D01*
X51357207Y11509818D01*
X51335580Y11552263D01*
X51316760Y11589199D01*
X51205690Y11742073D01*
X51139426Y11808337D01*
X51118274Y11836593D01*
X51105667Y11859682D01*
X51090500Y11919107D01*
X51090500Y12157672D01*
X51095523Y12192608D01*
X51099927Y12207606D01*
X51137672Y12266357D01*
X51139041Y12267544D01*
X51193920Y12295024D01*
X51201479Y12296668D01*
X51227832Y12299501D01*
X51234850Y12299501D01*
X51234856Y12299501D01*
X51234864Y12299501D01*
X51234879Y12299503D01*
X51234882Y12299503D01*
X51234888Y12299504D01*
X51235019Y12299513D01*
X51235736Y12299603D01*
X51259987Y12302414D01*
X51259987Y12302415D01*
X51259990Y12302415D01*
X51259991Y12302415D01*
X51259991Y12302416D01*
X51260102Y12302428D01*
X51261862Y12303242D01*
X51362765Y12347794D01*
X51442206Y12427235D01*
X51487585Y12530009D01*
X51490500Y12555135D01*
X51490499Y14444864D01*
X51490497Y14444883D01*
X51487586Y14469988D01*
X51487585Y14469990D01*
X51487585Y14469991D01*
X51442206Y14572765D01*
X51362765Y14652206D01*
X51362764Y14652207D01*
X51346425Y14659421D01*
X51259993Y14697585D01*
X51259994Y14697585D01*
X51234868Y14700500D01*
X51234865Y14700500D01*
X49345143Y14700500D01*
X49345127Y14700499D01*
X49345113Y14700498D01*
X49327255Y14698427D01*
X49320012Y14697587D01*
X49320011Y14697587D01*
X49320005Y14697586D01*
X49319559Y14697453D01*
X49317303Y14696391D01*
X49217236Y14652208D01*
X49137793Y14572766D01*
X49092414Y14469995D01*
X49091844Y14467290D01*
X49091589Y14462876D01*
X49089502Y14444883D01*
X49089500Y14444869D01*
X49089500Y12555144D01*
X49089502Y12555118D01*
X49092003Y12533546D01*
X49092414Y12530007D01*
X49092546Y12529562D01*
X49093609Y12527304D01*
X49137791Y12427240D01*
X49137793Y12427236D01*
X49137794Y12427235D01*
X49217235Y12347794D01*
X49320009Y12302415D01*
X49345135Y12299500D01*
X49347659Y12299501D01*
X49382601Y12294480D01*
X49397598Y12290077D01*
X49456377Y12252305D01*
X49456384Y12252297D01*
X49457571Y12250927D01*
X49485017Y12196102D01*
X49486663Y12188540D01*
X49489500Y12162167D01*
X49489500Y11926455D01*
X49484476Y11891516D01*
X49477064Y11866276D01*
X49445769Y11813534D01*
X49369819Y11737585D01*
X49365684Y11730200D01*
X49334066Y11686682D01*
X49263239Y11589200D01*
X49221080Y11506457D01*
X49177454Y11420837D01*
X49119059Y11241119D01*
X49119059Y11241117D01*
X49119058Y11241114D01*
X49089500Y11054493D01*
X49089500Y10865509D01*
X49117908Y10686149D01*
X49119059Y10678882D01*
X49177454Y10499164D01*
X49263240Y10330801D01*
X49374310Y10177927D01*
X49374312Y10177925D01*
X49440573Y10111664D01*
X49461723Y10083412D01*
X49474331Y10060323D01*
X49489500Y10000894D01*
X49489500Y9704070D01*
X49484476Y9669133D01*
X49477064Y9643892D01*
X49445769Y9591148D01*
X48755648Y8901027D01*
X48727397Y8879878D01*
X48704309Y8867270D01*
X48644879Y8852100D01*
X39471370Y8852100D01*
X39436435Y8857123D01*
X39425581Y8860310D01*
X39366803Y8898084D01*
X39337778Y8961640D01*
X39347718Y9030789D01*
X39350908Y9037776D01*
X39376017Y9073940D01*
X40012654Y9710577D01*
X40040904Y9731725D01*
X40063996Y9744333D01*
X40123421Y9759500D01*
X40224485Y9759500D01*
X40224486Y9759500D01*
X40411118Y9789060D01*
X40438598Y9797989D01*
X40590832Y9847453D01*
X40594850Y9849500D01*
X40623935Y9864320D01*
X40759199Y9933240D01*
X40912073Y10044310D01*
X41045690Y10177927D01*
X41156760Y10330801D01*
X41242547Y10499168D01*
X41300940Y10678882D01*
X41314500Y10764498D01*
X41330500Y10865514D01*
X41330500Y11054487D01*
X41300940Y11241119D01*
X41263449Y11356503D01*
X41263449Y11356504D01*
X41263449Y11356505D01*
X41251499Y11393280D01*
X41242547Y11420832D01*
X41242545Y11420835D01*
X41242545Y11420837D01*
X41240294Y11425254D01*
X41239987Y11426042D01*
X41239262Y11427281D01*
X41197207Y11509818D01*
X41175580Y11552263D01*
X41156760Y11589199D01*
X41045690Y11742073D01*
X40979426Y11808337D01*
X40958274Y11836593D01*
X40945667Y11859682D01*
X40930500Y11919107D01*
X40930500Y12533546D01*
X40935522Y12568479D01*
X40942934Y12593724D01*
X40974232Y12646470D01*
X40982302Y12654539D01*
X41045690Y12717927D01*
X41156760Y12870801D01*
X41242547Y13039168D01*
X41300940Y13218882D01*
X41305184Y13245677D01*
X41330500Y13405514D01*
X41330500Y13594487D01*
X41300940Y13781119D01*
X41242545Y13960837D01*
X41156759Y14129200D01*
X41045690Y14282073D01*
X40912073Y14415690D01*
X40759199Y14526760D01*
X40590836Y14612546D01*
X40411118Y14670941D01*
X40390150Y14674262D01*
X40224491Y14700500D01*
X40224486Y14700500D01*
X40224481Y14700500D01*
X40035519Y14700500D01*
X40035514Y14700500D01*
X40035509Y14700500D01*
X39848886Y14670942D01*
X39848884Y14670942D01*
X39848881Y14670941D01*
X39669163Y14612546D01*
X39610556Y14582684D01*
X39500807Y14526764D01*
X39500794Y14526756D01*
X39422660Y14469989D01*
X39422661Y14469988D01*
X39359798Y14424315D01*
X39352417Y14420182D01*
X39209816Y14277581D01*
X39205686Y14270206D01*
X39166610Y14216422D01*
X39166610Y14216421D01*
X39103240Y14129201D01*
X39017452Y13960835D01*
X38983440Y13856154D01*
X38945017Y13799317D01*
X38943978Y13798450D01*
X38937605Y13789131D01*
X38873242Y13761942D01*
X38804398Y13773866D01*
X38775271Y13793788D01*
X38772982Y13795889D01*
X38738912Y13848912D01*
X38736559Y13856154D01*
X38702545Y13960837D01*
X38616759Y14129200D01*
X38505690Y14282073D01*
X38372073Y14415690D01*
X38219199Y14526760D01*
X38050836Y14612546D01*
X37871118Y14670941D01*
X37850150Y14674262D01*
X37684491Y14700500D01*
X37684486Y14700500D01*
X37684481Y14700500D01*
X37495519Y14700500D01*
X37495514Y14700500D01*
X37495509Y14700500D01*
X37308883Y14670942D01*
X37168841Y14625440D01*
X37168842Y14625439D01*
X37129163Y14612546D01*
X37129162Y14612545D01*
X37098704Y14597026D01*
X37058350Y14589449D01*
X37024972Y14582684D01*
X36959862Y14608031D01*
X36918792Y14664556D01*
X36914802Y14734312D01*
X36927603Y14767195D01*
X36930522Y14772363D01*
X36950806Y14799061D01*
X46943419Y24791675D01*
X46943426Y24791679D01*
X46960862Y24809115D01*
X46960863Y24809115D01*
X47040085Y24888337D01*
X47096103Y24985363D01*
X47117681Y25065892D01*
X47125100Y25093581D01*
X47125100Y25205618D01*
X47125100Y28693961D01*
X47130122Y28728894D01*
X47137534Y28754139D01*
X47168828Y28806881D01*
X47770424Y29408477D01*
X47798674Y29429625D01*
X47821766Y29442233D01*
X47881191Y29457400D01*
X48119660Y29457400D01*
X48154592Y29452379D01*
G37*
%TD.AperFunction*%
%TA.AperFunction,Conductor*%
G36*
X53583558Y35686868D02*
G01*
X53583674Y35686867D01*
X53583870Y35686843D01*
X53590482Y35686316D01*
X53595345Y35685412D01*
X53613500Y35683147D01*
X53618411Y35681916D01*
X53635712Y35676199D01*
X53737334Y35634106D01*
X53742798Y35633020D01*
X53742801Y35633018D01*
X53903664Y35601021D01*
X53906398Y35600297D01*
X53911306Y35599500D01*
X54085486Y35599500D01*
X54101271Y35598492D01*
X54132493Y35594484D01*
X54159631Y35587826D01*
X65613430Y31361072D01*
X65669508Y31319396D01*
X65694153Y31254017D01*
X65694500Y31244741D01*
X65694500Y17351211D01*
X65694608Y17343075D01*
X65694786Y17336422D01*
X65706308Y17274126D01*
X65712069Y17242977D01*
X65730727Y17190073D01*
X65735312Y17177071D01*
X65735883Y17175681D01*
X65735916Y17175359D01*
X65736347Y17174138D01*
X65736054Y17174035D01*
X65743122Y17106188D01*
X65711642Y17043812D01*
X65708847Y17040926D01*
X62292688Y13624767D01*
X62264438Y13603618D01*
X62254511Y13598197D01*
X62186238Y13583343D01*
X62120773Y13607757D01*
X62078900Y13663689D01*
X62076213Y13670895D01*
X62068400Y13714215D01*
X62068400Y28445481D01*
X62070781Y28469665D01*
X62075457Y28493175D01*
X62082512Y28516427D01*
X62106885Y28575270D01*
X62106885Y28575272D01*
X62133794Y28640234D01*
X62168400Y28814209D01*
X62168400Y28991591D01*
X62168400Y28991594D01*
X62168400Y28991775D01*
X62167974Y28993731D01*
X62133796Y29165559D01*
X62133793Y29165568D01*
X62065916Y29329441D01*
X62065909Y29329454D01*
X61967364Y29476935D01*
X61967361Y29476939D01*
X61967356Y29476945D01*
X61841943Y29602358D01*
X61841937Y29602363D01*
X61841936Y29602364D01*
X61694459Y29700906D01*
X61694458Y29700907D01*
X61694453Y29700910D01*
X61694440Y29700917D01*
X61641177Y29722979D01*
X61530576Y29768791D01*
X61530553Y29768799D01*
X61530546Y29768801D01*
X61356598Y29803400D01*
X61356594Y29803400D01*
X61356591Y29803400D01*
X61179209Y29803400D01*
X61179206Y29803400D01*
X61179201Y29803400D01*
X61005252Y29768800D01*
X61005245Y29768799D01*
X61005222Y29768791D01*
X60841372Y29700923D01*
X60841354Y29700915D01*
X60841339Y29700906D01*
X60693862Y29602364D01*
X60693861Y29602363D01*
X60693855Y29602358D01*
X60568442Y29476945D01*
X60568437Y29476939D01*
X60568436Y29476938D01*
X60469894Y29329461D01*
X60469885Y29329446D01*
X60469877Y29329428D01*
X60402009Y29165578D01*
X60402001Y29165555D01*
X60401999Y29165548D01*
X60367400Y28991601D01*
X60367400Y28991596D01*
X60367400Y28814205D01*
X60367400Y28814203D01*
X60367399Y28814203D01*
X60402000Y28640260D01*
X60402007Y28640229D01*
X60453287Y28516427D01*
X60460343Y28493170D01*
X60465017Y28469671D01*
X60467400Y28445481D01*
X60467400Y13815471D01*
X60462376Y13780534D01*
X60454964Y13755293D01*
X60423669Y13702549D01*
X60130829Y13409710D01*
X60102576Y13388559D01*
X60090394Y13381907D01*
X60022121Y13367055D01*
X59956658Y13391471D01*
X59952460Y13394613D01*
X59912213Y13446424D01*
X59865813Y13558447D01*
X59865811Y13558450D01*
X59865809Y13558454D01*
X59767264Y13705935D01*
X59767261Y13705939D01*
X59767256Y13705945D01*
X59641842Y13831359D01*
X59563229Y13883888D01*
X59536973Y13907474D01*
X59523521Y13923571D01*
X59497272Y13977818D01*
X59495902Y13984400D01*
X59493300Y14009668D01*
X59493300Y19945916D01*
X59493300Y19945918D01*
X59464303Y20054137D01*
X59408285Y20151163D01*
X59329063Y20230385D01*
X48834363Y30725085D01*
X48769679Y30762431D01*
X48737339Y30781102D01*
X48737338Y30781103D01*
X48737337Y30781103D01*
X48629118Y30810100D01*
X48629117Y30810100D01*
X47379182Y30810100D01*
X47270970Y30781106D01*
X47270959Y30781102D01*
X47270958Y30781101D01*
X47173937Y30725086D01*
X47173928Y30725079D01*
X39676521Y23227672D01*
X39676514Y23227663D01*
X39620499Y23130642D01*
X39620498Y23130641D01*
X39620494Y23130630D01*
X39591500Y23022418D01*
X39591500Y22326394D01*
X39576739Y22267718D01*
X39571430Y22257834D01*
X39571378Y22257862D01*
X39568631Y22248505D01*
X39515828Y22202748D01*
X39446670Y22192803D01*
X39412805Y22202745D01*
X39410682Y22203715D01*
X39359090Y22247618D01*
X39309168Y22322329D01*
X39309161Y22322339D01*
X39309156Y22322345D01*
X39183743Y22447758D01*
X39183737Y22447763D01*
X39183736Y22447764D01*
X39036259Y22546306D01*
X39036258Y22546307D01*
X39036253Y22546310D01*
X39036240Y22546317D01*
X39036226Y22546323D01*
X38872376Y22614191D01*
X38872353Y22614199D01*
X38872346Y22614201D01*
X38698398Y22648800D01*
X38698394Y22648800D01*
X38698391Y22648800D01*
X38521009Y22648800D01*
X38521006Y22648800D01*
X38521001Y22648800D01*
X38347052Y22614200D01*
X38347045Y22614199D01*
X38347017Y22614189D01*
X38223225Y22562913D01*
X38199970Y22555858D01*
X38176478Y22551184D01*
X38152281Y22548800D01*
X33396170Y22548800D01*
X33361234Y22553823D01*
X33335992Y22561235D01*
X33283247Y22592531D01*
X32333182Y23542596D01*
X32317764Y23561382D01*
X32304448Y23581312D01*
X32292993Y23602743D01*
X32244043Y23720920D01*
X32242394Y23725527D01*
X32241711Y23726550D01*
X32241711Y23726551D01*
X32143164Y23874035D01*
X32143161Y23874039D01*
X32143156Y23874045D01*
X32017743Y23999458D01*
X32017737Y23999463D01*
X32017736Y23999464D01*
X31870259Y24098006D01*
X31870258Y24098007D01*
X31870253Y24098010D01*
X31870240Y24098017D01*
X31870226Y24098023D01*
X31706376Y24165891D01*
X31706353Y24165899D01*
X31706346Y24165901D01*
X31532398Y24200500D01*
X31532394Y24200500D01*
X31532391Y24200500D01*
X31355009Y24200500D01*
X31355006Y24200500D01*
X31355001Y24200500D01*
X31181052Y24165900D01*
X31181045Y24165899D01*
X31181022Y24165891D01*
X31017172Y24098023D01*
X31017154Y24098015D01*
X31017139Y24098006D01*
X30869662Y23999464D01*
X30869661Y23999463D01*
X30869655Y23999458D01*
X30744242Y23874045D01*
X30744237Y23874039D01*
X30744236Y23874038D01*
X30645694Y23726561D01*
X30645685Y23726546D01*
X30645677Y23726528D01*
X30577809Y23562678D01*
X30577801Y23562655D01*
X30577799Y23562648D01*
X30551117Y23428501D01*
X30518732Y23366590D01*
X30458017Y23332016D01*
X30388247Y23335755D01*
X30331575Y23376621D01*
X30305994Y23441639D01*
X30305500Y23452692D01*
X30305500Y25680533D01*
X30325185Y25747572D01*
X30377989Y25793327D01*
X30447147Y25803271D01*
X30453668Y25802154D01*
X30459383Y25801017D01*
X30462107Y25800295D01*
X30467006Y25799500D01*
X30644393Y25799500D01*
X30648514Y25799500D01*
X30656369Y25801884D01*
X30705754Y25811706D01*
X30818358Y25834104D01*
X30818360Y25834106D01*
X30818362Y25834106D01*
X30818366Y25834106D01*
X30821554Y25835427D01*
X30829535Y25838727D01*
X30829576Y25838749D01*
X30982240Y25901984D01*
X30982240Y25901985D01*
X30982247Y25901987D01*
X31129735Y26000536D01*
X31255164Y26125965D01*
X31353713Y26273453D01*
X31353716Y26273460D01*
X31421592Y26437328D01*
X31421592Y26437331D01*
X31421594Y26437334D01*
X31421657Y26437648D01*
X31455766Y26609130D01*
X31456200Y26611126D01*
X31456200Y26788696D01*
X31445092Y26844535D01*
X31437756Y26881413D01*
X31435867Y26916647D01*
X31437738Y26937556D01*
X31457534Y26994472D01*
X31461221Y27000099D01*
X31477239Y27019794D01*
X34180427Y29722982D01*
X34208672Y29744127D01*
X34227095Y29754187D01*
X34285408Y29769348D01*
X34292141Y29769408D01*
X34317422Y29767031D01*
X34399248Y29750755D01*
X34415105Y29747600D01*
X34592493Y29747600D01*
X34596614Y29747600D01*
X34604467Y29749983D01*
X34650482Y29759136D01*
X34650483Y29759136D01*
X34766453Y29782203D01*
X34766453Y29782204D01*
X34766458Y29782204D01*
X34766461Y29782206D01*
X34766466Y29782206D01*
X34769654Y29783527D01*
X34777635Y29786827D01*
X34777676Y29786849D01*
X34930340Y29850084D01*
X34930340Y29850085D01*
X34930347Y29850087D01*
X35077835Y29948636D01*
X35203264Y30074065D01*
X35301813Y30221553D01*
X35369694Y30385434D01*
X35404300Y30559409D01*
X35404300Y30736791D01*
X35404300Y30736794D01*
X35404300Y30736975D01*
X35403874Y30738931D01*
X35369696Y30910759D01*
X35369693Y30910768D01*
X35301816Y31074641D01*
X35301809Y31074654D01*
X35203264Y31222135D01*
X35203261Y31222139D01*
X35203256Y31222145D01*
X35077843Y31347558D01*
X35077837Y31347563D01*
X35077836Y31347564D01*
X34930359Y31446106D01*
X34930358Y31446107D01*
X34930353Y31446110D01*
X34930340Y31446117D01*
X34930326Y31446123D01*
X34766476Y31513991D01*
X34766453Y31513999D01*
X34766446Y31514001D01*
X34592498Y31548600D01*
X34592494Y31548600D01*
X34592491Y31548600D01*
X34415109Y31548600D01*
X34415106Y31548600D01*
X34415101Y31548600D01*
X34241152Y31514000D01*
X34241145Y31513999D01*
X34241122Y31513991D01*
X34077272Y31446123D01*
X34077254Y31446115D01*
X34077239Y31446106D01*
X33929762Y31347564D01*
X33929761Y31347563D01*
X33929755Y31347558D01*
X33804342Y31222145D01*
X33804337Y31222139D01*
X33804336Y31222138D01*
X33705794Y31074661D01*
X33705785Y31074646D01*
X33705777Y31074628D01*
X33637909Y30910778D01*
X33637901Y30910755D01*
X33637899Y30910748D01*
X33603300Y30736801D01*
X33603300Y30736796D01*
X33603300Y30559405D01*
X33603300Y30559403D01*
X33603299Y30559403D01*
X33621741Y30466695D01*
X33623631Y30431452D01*
X33621761Y30410553D01*
X33601964Y30353632D01*
X33598280Y30348011D01*
X33582251Y30328302D01*
X30879073Y27625124D01*
X30850822Y27603974D01*
X30844460Y27600500D01*
X30832405Y27593918D01*
X30774084Y27578754D01*
X30767364Y27578694D01*
X30742066Y27581072D01*
X30711707Y27587111D01*
X30644397Y27600500D01*
X30644395Y27600500D01*
X30644391Y27600500D01*
X30467009Y27600500D01*
X30467006Y27600500D01*
X30453685Y27597851D01*
X30384094Y27604083D01*
X30328919Y27646948D01*
X30305677Y27712839D01*
X30305500Y27719470D01*
X30305500Y31087204D01*
X30325185Y31154243D01*
X30341459Y31174524D01*
X34294077Y35159748D01*
X34322231Y35181005D01*
X34345693Y35193942D01*
X34402459Y35209313D01*
X53564708Y35688369D01*
X53583558Y35686868D01*
G37*
%TD.AperFunction*%
%TA.AperFunction,Conductor*%
G36*
X68059155Y81101581D02*
G01*
X68098097Y81052813D01*
X68101461Y81045269D01*
X68109827Y81018961D01*
X68120260Y80966511D01*
X68120262Y80966503D01*
X68180596Y80820842D01*
X68180604Y80820824D01*
X68180613Y80820809D01*
X68268211Y80689710D01*
X68268212Y80689709D01*
X68268217Y80689703D01*
X68379701Y80578219D01*
X68379707Y80578214D01*
X68379711Y80578211D01*
X68510814Y80490610D01*
X68510827Y80490603D01*
X68656498Y80430265D01*
X68656503Y80430263D01*
X68791054Y80403499D01*
X68803530Y80401018D01*
X68806251Y80400296D01*
X68811155Y80399500D01*
X68811156Y80399500D01*
X68929560Y80399500D01*
X68964492Y80394479D01*
X68989736Y80387066D01*
X69042482Y80355770D01*
X71338737Y78059515D01*
X71435763Y78003497D01*
X71543982Y77974500D01*
X71656018Y77974500D01*
X73954560Y77974500D01*
X73989492Y77969479D01*
X74014736Y77962066D01*
X74067482Y77930770D01*
X76059515Y75938737D01*
X76138737Y75859515D01*
X76235763Y75803497D01*
X76265375Y75795563D01*
X76297812Y75781673D01*
X76311163Y75773536D01*
X76358157Y75721846D01*
X76362031Y75713873D01*
X76374500Y75659681D01*
X76374500Y68856018D01*
X76374500Y68743982D01*
X76403497Y68635763D01*
X76459515Y68538737D01*
X76459517Y68538735D01*
X79743163Y65255089D01*
X79764312Y65226839D01*
X79769733Y65216912D01*
X79784587Y65148639D01*
X79760173Y65083174D01*
X79704241Y65041301D01*
X79704237Y65041299D01*
X79697049Y65038618D01*
X79653715Y65030800D01*
X79626301Y65030800D01*
X79452352Y64996200D01*
X79452345Y64996199D01*
X79452322Y64996191D01*
X79288472Y64928323D01*
X79288454Y64928315D01*
X79288439Y64928306D01*
X79140962Y64829764D01*
X79140961Y64829763D01*
X79140955Y64829758D01*
X79015542Y64704345D01*
X79015540Y64704342D01*
X78916988Y64556851D01*
X78916983Y64556843D01*
X78865706Y64433047D01*
X78854248Y64411610D01*
X78840934Y64391684D01*
X78825512Y64372893D01*
X76287948Y61835327D01*
X76259697Y61814178D01*
X76236609Y61801570D01*
X76177179Y61786400D01*
X61939019Y61786400D01*
X61914830Y61788783D01*
X61891330Y61793457D01*
X61868073Y61800513D01*
X61744276Y61851791D01*
X61744253Y61851799D01*
X61744246Y61851801D01*
X61570298Y61886400D01*
X61570294Y61886400D01*
X61570291Y61886400D01*
X61392909Y61886400D01*
X61392906Y61886400D01*
X61392901Y61886400D01*
X61218952Y61851800D01*
X61218945Y61851799D01*
X61218922Y61851791D01*
X61055072Y61783923D01*
X61055054Y61783915D01*
X61055039Y61783906D01*
X60907562Y61685364D01*
X60907561Y61685363D01*
X60907555Y61685358D01*
X60782142Y61559945D01*
X60782137Y61559939D01*
X60782136Y61559938D01*
X60683594Y61412461D01*
X60683585Y61412446D01*
X60683577Y61412428D01*
X60615709Y61248578D01*
X60615701Y61248555D01*
X60615699Y61248548D01*
X60581100Y61074601D01*
X60581100Y60897201D01*
X60615699Y60723254D01*
X60615701Y60723247D01*
X60615709Y60723224D01*
X60683577Y60559374D01*
X60683585Y60559356D01*
X60683594Y60559341D01*
X60782136Y60411864D01*
X60782137Y60411863D01*
X60782142Y60411857D01*
X60907555Y60286444D01*
X60907561Y60286439D01*
X60907565Y60286436D01*
X61055046Y60187891D01*
X61055059Y60187884D01*
X61078089Y60178345D01*
X61176744Y60137481D01*
X61176782Y60137466D01*
X61177963Y60136977D01*
X61218934Y60120006D01*
X61218936Y60120006D01*
X61218941Y60120004D01*
X61385280Y60086918D01*
X61388003Y60086196D01*
X61392906Y60085400D01*
X61570293Y60085400D01*
X61574414Y60085400D01*
X61582267Y60087783D01*
X61628282Y60096936D01*
X61628283Y60096936D01*
X61657276Y60102703D01*
X61744258Y60120004D01*
X61744261Y60120006D01*
X61744266Y60120006D01*
X61746480Y60120923D01*
X61755428Y60124624D01*
X61755470Y60124647D01*
X61868079Y60171291D01*
X61891325Y60178343D01*
X61914833Y60183019D01*
X61939019Y60185400D01*
X76653564Y60185400D01*
X76661414Y60187782D01*
X76804097Y60216163D01*
X76949779Y60276506D01*
X77080889Y60364111D01*
X79350214Y62633439D01*
X79378460Y62654584D01*
X79388395Y62660009D01*
X79456666Y62674859D01*
X79522130Y62650442D01*
X79564001Y62594509D01*
X79566682Y62587321D01*
X79574500Y62543987D01*
X79574500Y61645440D01*
X79569476Y61610501D01*
X79562064Y61585261D01*
X79530770Y61532519D01*
X79459513Y61461262D01*
X79403499Y61364242D01*
X79403498Y61364241D01*
X79403494Y61364230D01*
X79374500Y61256018D01*
X79374500Y61245440D01*
X79369476Y61210501D01*
X79362064Y61185261D01*
X79330770Y61132519D01*
X79259513Y61061262D01*
X79203499Y60964242D01*
X79203498Y60964241D01*
X79203494Y60964230D01*
X79174500Y60856018D01*
X79174500Y60845440D01*
X79169476Y60810501D01*
X79162064Y60785261D01*
X79130770Y60732519D01*
X79059515Y60661264D01*
X79054786Y60653072D01*
X79003498Y60564240D01*
X79003497Y60564239D01*
X78982209Y60484788D01*
X78980867Y60480854D01*
X78978748Y60477852D01*
X78970895Y60458891D01*
X78955127Y60431581D01*
X78935422Y60405901D01*
X78801904Y60272384D01*
X78783113Y60256963D01*
X78763193Y60243653D01*
X78741756Y60232195D01*
X78617957Y60180917D01*
X78617949Y60180912D01*
X78506198Y60106242D01*
X78475008Y60085400D01*
X78470458Y60082360D01*
X78470455Y60082358D01*
X78345042Y59956945D01*
X78345037Y59956939D01*
X78345036Y59956938D01*
X78246494Y59809461D01*
X78246487Y59809448D01*
X78246486Y59809448D01*
X78246477Y59809428D01*
X78178609Y59645578D01*
X78178601Y59645555D01*
X78178599Y59645548D01*
X78144000Y59471601D01*
X78144000Y59294201D01*
X78178599Y59120254D01*
X78178601Y59120247D01*
X78178609Y59120224D01*
X78243611Y58963294D01*
X78246483Y58956360D01*
X78246489Y58956348D01*
X78246494Y58956341D01*
X78345036Y58808864D01*
X78345037Y58808863D01*
X78345042Y58808857D01*
X78470455Y58683444D01*
X78470461Y58683439D01*
X78470465Y58683436D01*
X78617946Y58584891D01*
X78617959Y58584884D01*
X78703477Y58549462D01*
X78781834Y58517006D01*
X78781836Y58517006D01*
X78781841Y58517004D01*
X78948180Y58483918D01*
X78950903Y58483196D01*
X78955806Y58482400D01*
X79133193Y58482400D01*
X79137314Y58482400D01*
X79145167Y58484783D01*
X79191182Y58493936D01*
X79191183Y58493936D01*
X79253946Y58506420D01*
X79307158Y58517004D01*
X79307161Y58517006D01*
X79307166Y58517006D01*
X79310358Y58518329D01*
X79318331Y58521625D01*
X79318376Y58521649D01*
X79386288Y58549779D01*
X79457267Y58579179D01*
X79471040Y58584884D01*
X79471040Y58584885D01*
X79471047Y58584887D01*
X79471050Y58584890D01*
X79473394Y58585860D01*
X79482660Y58589699D01*
X79491547Y58598585D01*
X79618535Y58683436D01*
X79743964Y58808865D01*
X79842513Y58956353D01*
X79893794Y59080164D01*
X79905252Y59101599D01*
X79908471Y59106416D01*
X79918562Y59121520D01*
X79933977Y59140302D01*
X92702388Y71908710D01*
X92726437Y71944702D01*
X92735576Y71958379D01*
X92742196Y71968287D01*
X92748827Y71978210D01*
X92748827Y71978211D01*
X92748829Y71978214D01*
X92789994Y72039821D01*
X92850337Y72185503D01*
X92881100Y72340158D01*
X92881100Y75007232D01*
X92886122Y75042165D01*
X92893534Y75067410D01*
X92924828Y75120152D01*
X94434015Y76629340D01*
X94462265Y76650487D01*
X94474448Y76657140D01*
X94542722Y76671990D01*
X94608183Y76647573D01*
X94608186Y76647571D01*
X94612379Y76644432D01*
X94652627Y76592620D01*
X94685388Y76513528D01*
X94692443Y76490270D01*
X94693009Y76487424D01*
X94697117Y76466775D01*
X94699500Y76442583D01*
X94699500Y62942330D01*
X94694475Y62907386D01*
X94690070Y62892388D01*
X94652327Y62833645D01*
X94650958Y62832458D01*
X94596097Y62804982D01*
X94588539Y62803337D01*
X94562168Y62800500D01*
X87457419Y62800500D01*
X87433230Y62802883D01*
X87409730Y62807557D01*
X87386473Y62814613D01*
X87262668Y62865894D01*
X87262641Y62865900D01*
X87147943Y62888715D01*
X87114658Y62900458D01*
X87102590Y62906771D01*
X87052311Y62955287D01*
X87036245Y63023285D01*
X87055158Y63082752D01*
X87059542Y63089708D01*
X87059563Y63089744D01*
X87076786Y63111311D01*
X88783198Y64817723D01*
X88801980Y64833138D01*
X88821902Y64846449D01*
X88843336Y64857906D01*
X88967147Y64909187D01*
X89114635Y65007736D01*
X89240064Y65133165D01*
X89338613Y65280653D01*
X89406494Y65444534D01*
X89411373Y65469059D01*
X89441099Y65618505D01*
X89441100Y65618507D01*
X89441100Y65795894D01*
X89441099Y65795896D01*
X89406496Y65969859D01*
X89406493Y65969868D01*
X89338616Y66133741D01*
X89338609Y66133754D01*
X89240064Y66281235D01*
X89240061Y66281239D01*
X89240056Y66281245D01*
X89114643Y66406658D01*
X89114637Y66406663D01*
X89114636Y66406664D01*
X88967159Y66505206D01*
X88967158Y66505207D01*
X88967153Y66505210D01*
X88967140Y66505217D01*
X88967126Y66505223D01*
X88803276Y66573091D01*
X88803253Y66573099D01*
X88803246Y66573101D01*
X88629298Y66607700D01*
X88629294Y66607700D01*
X88629291Y66607700D01*
X88451909Y66607700D01*
X88451906Y66607700D01*
X88451901Y66607700D01*
X88277952Y66573100D01*
X88277945Y66573099D01*
X88277922Y66573091D01*
X88114072Y66505223D01*
X88114054Y66505215D01*
X88114039Y66505206D01*
X87966562Y66406664D01*
X87966561Y66406663D01*
X87966555Y66406658D01*
X87841142Y66281245D01*
X87841140Y66281242D01*
X87742588Y66133751D01*
X87742583Y66133743D01*
X87691306Y66009947D01*
X87679848Y65988510D01*
X87666534Y65968584D01*
X87651112Y65949793D01*
X82721547Y61020225D01*
X81750733Y60049411D01*
X79812411Y58111089D01*
X79782432Y58081110D01*
X79782431Y58081109D01*
X79782430Y58081110D01*
X79700906Y57999586D01*
X79613313Y57868493D01*
X79613303Y57868476D01*
X79613298Y57868467D01*
X79552964Y57722804D01*
X79552957Y57722773D01*
X79522200Y57568150D01*
X79522200Y36429500D01*
X79502515Y36362461D01*
X79449711Y36316706D01*
X79398200Y36305500D01*
X66124010Y36305500D01*
X66124000Y36305500D01*
X66123991Y36305500D01*
X66123990Y36305499D01*
X66059064Y36298519D01*
X66059052Y36298517D01*
X66007546Y36287312D01*
X65969345Y36276356D01*
X65969341Y36276354D01*
X65872431Y36219677D01*
X65872428Y36219675D01*
X65819623Y36173919D01*
X65819612Y36173909D01*
X65777451Y36129193D01*
X65777445Y36129184D01*
X65726560Y36029110D01*
X65706877Y35962079D01*
X65694500Y35875998D01*
X65694500Y33215623D01*
X65674815Y33148584D01*
X65622011Y33102829D01*
X65552853Y33092885D01*
X65527571Y33099291D01*
X54704130Y37093427D01*
X54680202Y37105327D01*
X54658090Y37119483D01*
X54637270Y37136230D01*
X54574038Y37199462D01*
X54574037Y37199463D01*
X54574036Y37199464D01*
X54426559Y37298006D01*
X54426558Y37298007D01*
X54426553Y37298010D01*
X54426540Y37298017D01*
X54425613Y37298401D01*
X54262676Y37365891D01*
X54262653Y37365899D01*
X54262646Y37365901D01*
X54088698Y37400500D01*
X54088694Y37400500D01*
X54088691Y37400500D01*
X53911309Y37400500D01*
X53911306Y37400500D01*
X53911301Y37400500D01*
X53737352Y37365900D01*
X53737345Y37365899D01*
X53737322Y37365891D01*
X53584952Y37302777D01*
X53563205Y37296032D01*
X53541209Y37291371D01*
X53518603Y37288716D01*
X33989625Y36800492D01*
X33987034Y36800460D01*
X33987035Y36800454D01*
X33917872Y36800170D01*
X33911809Y36799547D01*
X33911777Y36799858D01*
X33907952Y36799473D01*
X33908001Y36799039D01*
X33901178Y36798281D01*
X33901176Y36798281D01*
X33901174Y36798281D01*
X33901169Y36798280D01*
X33834283Y36783229D01*
X33833001Y36782948D01*
X33831809Y36782693D01*
X33830563Y36782433D01*
X33775563Y36771256D01*
X33767339Y36770429D01*
X33765196Y36769541D01*
X33753084Y36765701D01*
X33753126Y36765576D01*
X33747343Y36763663D01*
X33684133Y36735611D01*
X33681759Y36734587D01*
X33652447Y36722304D01*
X33641389Y36721070D01*
X33585659Y36690229D01*
X33583495Y36686764D01*
X33572541Y36678079D01*
X33546581Y36659779D01*
X33544453Y36658311D01*
X33511660Y36636204D01*
X33487161Y36619687D01*
X33487159Y36619686D01*
X33487147Y36619676D01*
X33481214Y36613697D01*
X33474331Y36608843D01*
X33426626Y36558692D01*
X33425799Y36557841D01*
X33425712Y36557753D01*
X33425281Y36557308D01*
X33424374Y36556384D01*
X30185290Y33290582D01*
X30124105Y33256845D01*
X30054393Y33261543D01*
X30041049Y33267369D01*
X30029109Y33273440D01*
X30029110Y33273440D01*
X29962078Y33293123D01*
X29962072Y33293124D01*
X29876000Y33305500D01*
X29875997Y33305500D01*
X26508522Y33305500D01*
X26441483Y33325185D01*
X26395728Y33377989D01*
X26385784Y33447147D01*
X26414809Y33510703D01*
X26433056Y33527891D01*
X28181352Y34868842D01*
X28572916Y35169173D01*
X30096855Y36338042D01*
X30127626Y36355315D01*
X30155718Y36366169D01*
X30200405Y36374500D01*
X31237447Y36374500D01*
X31272379Y36369478D01*
X31279141Y36367493D01*
X31292513Y36363566D01*
X31344473Y36333051D01*
X31349265Y36328344D01*
X31365472Y36308776D01*
X31372325Y36298519D01*
X31378213Y36289707D01*
X31489701Y36178219D01*
X31489707Y36178214D01*
X31489711Y36178211D01*
X31620814Y36090610D01*
X31620827Y36090603D01*
X31766498Y36030265D01*
X31766503Y36030263D01*
X31921153Y35999501D01*
X31921156Y35999500D01*
X31921158Y35999500D01*
X32078844Y35999500D01*
X32078845Y35999501D01*
X32233497Y36030263D01*
X32379179Y36090606D01*
X32510289Y36178211D01*
X32621789Y36289711D01*
X32709394Y36420821D01*
X32769737Y36566503D01*
X32800500Y36721158D01*
X32800500Y36878842D01*
X32800500Y36878845D01*
X32800500Y36879027D01*
X32800065Y36881028D01*
X32770397Y37030176D01*
X32769994Y37032533D01*
X32769737Y37033496D01*
X32769735Y37033502D01*
X32717543Y37159506D01*
X32712141Y37172548D01*
X32705308Y37194712D01*
X32701178Y37214543D01*
X32706777Y37284180D01*
X32710279Y37293323D01*
X32735556Y37332268D01*
X32735534Y37332285D01*
X32735757Y37332577D01*
X32738408Y37336662D01*
X32740485Y37338737D01*
X32796503Y37435763D01*
X32825500Y37543982D01*
X32825500Y37554561D01*
X32830522Y37589494D01*
X32832238Y37595338D01*
X32837934Y37614739D01*
X32869227Y37667480D01*
X32940485Y37738737D01*
X32996503Y37835763D01*
X33025500Y37943982D01*
X33025500Y37954562D01*
X33030522Y37989495D01*
X33037934Y38014740D01*
X33069227Y38067481D01*
X33140484Y38138737D01*
X33196502Y38235763D01*
X33225499Y38343982D01*
X33225499Y38354560D01*
X33230521Y38389493D01*
X33237933Y38414738D01*
X33269226Y38467479D01*
X33340485Y38538737D01*
X33396503Y38635763D01*
X33424563Y38740485D01*
X33424563Y38740486D01*
X33424569Y38740485D01*
X33424569Y38740511D01*
X33425500Y38743980D01*
X33425500Y38856017D01*
X33425500Y38954561D01*
X33430522Y38989494D01*
X33436692Y39010507D01*
X33437934Y39014739D01*
X33469228Y39067481D01*
X36290590Y41888842D01*
X39140485Y44738737D01*
X39196503Y44835763D01*
X39225500Y44943982D01*
X39225500Y44954561D01*
X39230522Y44989494D01*
X39237934Y45014739D01*
X39269227Y45067480D01*
X39340485Y45138737D01*
X39396503Y45235763D01*
X39425500Y45343982D01*
X39425500Y45456019D01*
X39425500Y51954562D01*
X39430522Y51989495D01*
X39437934Y52014740D01*
X39469228Y52067482D01*
X42098348Y54696601D01*
X44761670Y57359925D01*
X44789915Y57381070D01*
X44808338Y57391130D01*
X44866651Y57406291D01*
X44873383Y57406351D01*
X44898671Y57403973D01*
X44916009Y57400524D01*
X44921155Y57399500D01*
X45078844Y57399500D01*
X45082964Y57399500D01*
X45090814Y57401882D01*
X45233497Y57430263D01*
X45379179Y57490606D01*
X45510289Y57578211D01*
X45621789Y57689711D01*
X45709394Y57820821D01*
X45769737Y57966503D01*
X45800500Y58121158D01*
X45800500Y58278842D01*
X45800500Y58278845D01*
X45800500Y58279029D01*
X45800064Y58281034D01*
X45779978Y58382013D01*
X45769738Y58433493D01*
X45769737Y58433494D01*
X45769737Y58433497D01*
X45764887Y58445207D01*
X45748851Y58483922D01*
X45709400Y58579167D01*
X45709395Y58579176D01*
X45709390Y58579186D01*
X45621789Y58710289D01*
X45621786Y58710293D01*
X45621781Y58710299D01*
X45510297Y58821783D01*
X45510291Y58821788D01*
X45510290Y58821789D01*
X45379191Y58909387D01*
X45379190Y58909388D01*
X45379185Y58909391D01*
X45379172Y58909398D01*
X45379165Y58909402D01*
X45233502Y58969736D01*
X45233471Y58969743D01*
X45078847Y59000500D01*
X45078845Y59000500D01*
X45078842Y59000500D01*
X44921158Y59000500D01*
X44921155Y59000500D01*
X44921153Y59000500D01*
X44766527Y58969743D01*
X44766496Y58969736D01*
X44620833Y58909402D01*
X44620824Y58909397D01*
X44620807Y58909387D01*
X44489708Y58821789D01*
X44489707Y58821788D01*
X44489701Y58821783D01*
X44378217Y58710299D01*
X44378212Y58710293D01*
X44378211Y58710292D01*
X44290613Y58579193D01*
X44290603Y58579176D01*
X44290598Y58579167D01*
X44230264Y58433504D01*
X44230257Y58433473D01*
X44199500Y58278850D01*
X44199500Y58278847D01*
X44199500Y58278842D01*
X44199500Y58121158D01*
X44202505Y58106050D01*
X44202770Y58104722D01*
X44202775Y58104694D01*
X44202990Y58103612D01*
X44204874Y58068392D01*
X44203004Y58047497D01*
X44183217Y57990591D01*
X44179532Y57984967D01*
X44163494Y57965245D01*
X38688165Y52489918D01*
X38688139Y52489889D01*
X38659514Y52461263D01*
X38659513Y52461261D01*
X38651761Y52447835D01*
X38651758Y52447831D01*
X38603499Y52364243D01*
X38603498Y52364242D01*
X38603494Y52364231D01*
X38574500Y52256019D01*
X38574500Y46950818D01*
X38569476Y46915880D01*
X38566412Y46905446D01*
X38528636Y46846669D01*
X38465080Y46817646D01*
X38395922Y46827591D01*
X38343119Y46873347D01*
X38332875Y46892932D01*
X38330944Y46897594D01*
X38330941Y46897600D01*
X38238551Y47035870D01*
X38227092Y47057309D01*
X38217926Y47079438D01*
X38210869Y47102704D01*
X38210130Y47106420D01*
X38178454Y47182892D01*
X38178453Y47182893D01*
X38178453Y47182896D01*
X38130946Y47297590D01*
X38130943Y47297596D01*
X38130941Y47297599D01*
X38127733Y47302400D01*
X38127730Y47302404D01*
X38038549Y47435872D01*
X38027089Y47457314D01*
X38017924Y47479443D01*
X38010869Y47502703D01*
X38010130Y47506418D01*
X38010130Y47506420D01*
X37950953Y47649287D01*
X37950952Y47649291D01*
X37930950Y47697581D01*
X37930947Y47697587D01*
X37930945Y47697592D01*
X37930941Y47697599D01*
X37899670Y47744399D01*
X37838549Y47835872D01*
X37827089Y47857314D01*
X37820482Y47873266D01*
X37817923Y47879445D01*
X37810869Y47902703D01*
X37810130Y47906418D01*
X37810130Y47906420D01*
X37751508Y48047947D01*
X37730943Y48097597D01*
X37730941Y48097600D01*
X37678641Y48175873D01*
X37676295Y48180050D01*
X37675272Y48184493D01*
X37666072Y48203723D01*
X37656164Y48235365D01*
X37650501Y48272414D01*
X37650501Y48303471D01*
X37609891Y48507623D01*
X37607803Y48512037D01*
X37598925Y48533472D01*
X37598925Y48533473D01*
X37530946Y48697590D01*
X37530943Y48697596D01*
X37530942Y48697597D01*
X37530941Y48697599D01*
X37527732Y48702402D01*
X37438549Y48835872D01*
X37427089Y48857314D01*
X37417924Y48879443D01*
X37410869Y48902703D01*
X37410130Y48906418D01*
X37410130Y48906420D01*
X37362529Y49021339D01*
X37330945Y49097592D01*
X37330941Y49097599D01*
X37327732Y49102402D01*
X37238549Y49235872D01*
X37227089Y49257314D01*
X37217924Y49279443D01*
X37210869Y49302703D01*
X37210130Y49306420D01*
X37169753Y49403900D01*
X37130945Y49497592D01*
X37130941Y49497599D01*
X37127732Y49502402D01*
X37038549Y49635872D01*
X37027089Y49657314D01*
X37017924Y49679443D01*
X37010869Y49702703D01*
X37010130Y49706418D01*
X37010130Y49706420D01*
X36931384Y49896531D01*
X36930945Y49897592D01*
X36930941Y49897599D01*
X36838090Y50036560D01*
X36837622Y50037281D01*
X36837401Y50038020D01*
X36827089Y50057314D01*
X36817924Y50079443D01*
X36810869Y50102703D01*
X36810130Y50106418D01*
X36810130Y50106420D01*
X36780876Y50177045D01*
X36730943Y50297597D01*
X36730941Y50297600D01*
X36681300Y50371894D01*
X36666072Y50403723D01*
X36656164Y50435365D01*
X36650501Y50472414D01*
X36650501Y50503471D01*
X36609891Y50707623D01*
X36607804Y50712035D01*
X36537934Y50880718D01*
X36530945Y50897592D01*
X36530938Y50897605D01*
X36415977Y51069655D01*
X36415974Y51069659D01*
X36415969Y51069665D01*
X29457012Y58028619D01*
X29435861Y58056873D01*
X29419875Y58086149D01*
X29417470Y58090554D01*
X29411743Y58102525D01*
X29408072Y58111387D01*
X29355392Y58238571D01*
X29330945Y58297592D01*
X29330941Y58297599D01*
X29299670Y58344399D01*
X29238549Y58435872D01*
X29227089Y58457314D01*
X29217924Y58479443D01*
X29210869Y58502703D01*
X29210130Y58506418D01*
X29210130Y58506420D01*
X29151479Y58648017D01*
X29130943Y58697597D01*
X29130941Y58697600D01*
X29078640Y58775874D01*
X29076298Y58780044D01*
X29075275Y58784488D01*
X29066072Y58803723D01*
X29056164Y58835365D01*
X29050501Y58872414D01*
X29050501Y58903471D01*
X29010190Y59106119D01*
X29010190Y59106120D01*
X29009891Y59107620D01*
X29007814Y59112012D01*
X28930945Y59297592D01*
X28930938Y59297605D01*
X28881304Y59371888D01*
X28866071Y59403727D01*
X28856165Y59435364D01*
X28850500Y59472416D01*
X28850500Y60321290D01*
X30249500Y60321290D01*
X30249500Y60078711D01*
X30279624Y59849881D01*
X30279625Y59849881D01*
X30279626Y59849872D01*
X30281161Y59838215D01*
X30281163Y59838205D01*
X30288868Y59809448D01*
X30288869Y59809448D01*
X30288869Y59809447D01*
X30324080Y59678039D01*
X30343947Y59603896D01*
X30436772Y59379797D01*
X30436773Y59379793D01*
X30436780Y59379780D01*
X30558060Y59169717D01*
X30558062Y59169714D01*
X30558281Y59169385D01*
X30559284Y59168121D01*
X30705726Y58977272D01*
X30705730Y58977267D01*
X30705733Y58977264D01*
X30705739Y58977257D01*
X30705747Y58977249D01*
X30877242Y58805753D01*
X30877256Y58805740D01*
X30877262Y58805735D01*
X31069711Y58658064D01*
X31279788Y58536776D01*
X31471371Y58457420D01*
X31500843Y58445212D01*
X31503900Y58443946D01*
X31738211Y58381162D01*
X31918586Y58357416D01*
X31978710Y58349500D01*
X31978711Y58349500D01*
X31978712Y58349500D01*
X32221283Y58349500D01*
X32221289Y58349500D01*
X32269388Y58355833D01*
X32461789Y58381162D01*
X32696100Y58443946D01*
X32920212Y58536776D01*
X33130289Y58658064D01*
X33322738Y58805735D01*
X33433620Y58916617D01*
X36099500Y58916617D01*
X36099500Y58743385D01*
X36124602Y58584890D01*
X36124603Y58584890D01*
X36126597Y58572301D01*
X36138140Y58536776D01*
X36180127Y58407555D01*
X36258768Y58253212D01*
X36360586Y58113072D01*
X36483072Y57990586D01*
X36623212Y57888768D01*
X36777555Y57810127D01*
X36942299Y57756598D01*
X37113389Y57729500D01*
X37113390Y57729500D01*
X37286610Y57729500D01*
X37286611Y57729500D01*
X37457701Y57756598D01*
X37622445Y57810127D01*
X37776788Y57888768D01*
X37916928Y57990586D01*
X38039414Y58113072D01*
X38141232Y58253212D01*
X38219873Y58407555D01*
X38273402Y58572299D01*
X38300500Y58743389D01*
X38300500Y58832671D01*
X38305523Y58867607D01*
X38309927Y58882605D01*
X38347672Y58941356D01*
X38349041Y58942543D01*
X38403920Y58970023D01*
X38411479Y58971667D01*
X38437832Y58974500D01*
X43256016Y58974500D01*
X43256018Y58974500D01*
X43364237Y59003497D01*
X43461263Y59059515D01*
X46527324Y62125577D01*
X46555574Y62146725D01*
X46578666Y62159333D01*
X46638091Y62174500D01*
X46856016Y62174500D01*
X46856018Y62174500D01*
X46964237Y62203497D01*
X47061263Y62259515D01*
X47561674Y62759929D01*
X47589915Y62781070D01*
X47608338Y62791130D01*
X47666651Y62806291D01*
X47673383Y62806351D01*
X47698671Y62803973D01*
X47712595Y62801203D01*
X47721155Y62799500D01*
X47878844Y62799500D01*
X47882964Y62799500D01*
X47890814Y62801882D01*
X48033497Y62830263D01*
X48178023Y62890127D01*
X48179172Y62890603D01*
X48179172Y62890604D01*
X48181525Y62891578D01*
X48190794Y62895418D01*
X48199680Y62904304D01*
X48275981Y62955287D01*
X48310289Y62978211D01*
X48421789Y63089711D01*
X48509394Y63220821D01*
X48569737Y63366503D01*
X48600500Y63521158D01*
X48600500Y63678842D01*
X48600500Y63678845D01*
X48600500Y63679029D01*
X48600064Y63681034D01*
X48587991Y63741730D01*
X48569739Y63833489D01*
X48569738Y63833491D01*
X48569737Y63833497D01*
X48569735Y63833502D01*
X48509397Y63979173D01*
X48509390Y63979186D01*
X48421789Y64110289D01*
X48421786Y64110293D01*
X48421781Y64110299D01*
X48310297Y64221783D01*
X48310291Y64221788D01*
X48310290Y64221789D01*
X48179191Y64309387D01*
X48179190Y64309388D01*
X48179185Y64309391D01*
X48179172Y64309398D01*
X48179165Y64309402D01*
X48033502Y64369736D01*
X48033471Y64369743D01*
X47878847Y64400500D01*
X47878845Y64400500D01*
X47878842Y64400500D01*
X47721158Y64400500D01*
X47721155Y64400500D01*
X47721153Y64400500D01*
X47566527Y64369743D01*
X47566496Y64369736D01*
X47420833Y64309402D01*
X47420824Y64309397D01*
X47420807Y64309387D01*
X47289708Y64221789D01*
X47289707Y64221788D01*
X47289701Y64221783D01*
X47178217Y64110299D01*
X47178212Y64110293D01*
X47178211Y64110292D01*
X47090613Y63979193D01*
X47090603Y63979176D01*
X47090598Y63979167D01*
X47030264Y63833504D01*
X47030257Y63833473D01*
X46999500Y63678850D01*
X46999500Y63521154D01*
X47002985Y63503634D01*
X47004874Y63468389D01*
X47003004Y63447496D01*
X46983217Y63390591D01*
X46979532Y63384967D01*
X46963494Y63365245D01*
X46672676Y63074426D01*
X46644426Y63053277D01*
X46621340Y63040670D01*
X46561909Y63025500D01*
X46343979Y63025500D01*
X46293957Y63012097D01*
X46293944Y63012097D01*
X46235766Y62996505D01*
X46235760Y62996503D01*
X46138737Y62940486D01*
X46138728Y62940479D01*
X43072678Y59874427D01*
X43044427Y59853278D01*
X43021339Y59840670D01*
X42961909Y59825500D01*
X37943977Y59825500D01*
X37845976Y59799241D01*
X37845969Y59799238D01*
X37841744Y59798106D01*
X37837557Y59796984D01*
X37833962Y59796078D01*
X37826404Y59794294D01*
X37811165Y59791688D01*
X37786296Y59789016D01*
X37717537Y59801426D01*
X37716755Y59801821D01*
X37622452Y59849871D01*
X37471215Y59899012D01*
X37471203Y59899015D01*
X37457701Y59903402D01*
X37457699Y59903403D01*
X37457698Y59903403D01*
X37443312Y59905682D01*
X37443306Y59905683D01*
X37353188Y59919956D01*
X37326271Y59924219D01*
X37310407Y59926732D01*
X37286614Y59930500D01*
X37286611Y59930500D01*
X37113389Y59930500D01*
X37113388Y59930500D01*
X37073726Y59924219D01*
X37073725Y59924220D01*
X36942304Y59903404D01*
X36814321Y59861819D01*
X36788035Y59853278D01*
X36777549Y59849871D01*
X36623210Y59771232D01*
X36543256Y59713141D01*
X36543255Y59713141D01*
X36494941Y59678039D01*
X36487564Y59673908D01*
X36356092Y59542436D01*
X36351961Y59535059D01*
X36316859Y59486745D01*
X36316859Y59486744D01*
X36258768Y59406790D01*
X36180129Y59252451D01*
X36180128Y59252449D01*
X36180128Y59252448D01*
X36126598Y59087699D01*
X36126597Y59087697D01*
X36099500Y58916617D01*
X33433620Y58916617D01*
X33494265Y58977262D01*
X33504552Y58990669D01*
X33509390Y58996972D01*
X33514399Y59003500D01*
X33579003Y59087696D01*
X33579004Y59087697D01*
X33579005Y59087698D01*
X33641936Y59169711D01*
X33763224Y59379788D01*
X33856054Y59603900D01*
X33918838Y59838211D01*
X33950500Y60078712D01*
X33950500Y60321288D01*
X33918838Y60561789D01*
X33856054Y60796100D01*
X33763224Y61020212D01*
X33641936Y61230289D01*
X33494265Y61422738D01*
X33494260Y61422744D01*
X33494259Y61422745D01*
X33494247Y61422758D01*
X33322751Y61594253D01*
X33322743Y61594261D01*
X33322736Y61594267D01*
X33322733Y61594270D01*
X33322728Y61594274D01*
X33131879Y61740716D01*
X33130615Y61741719D01*
X33130286Y61741938D01*
X33130283Y61741940D01*
X32920219Y61863221D01*
X32920206Y61863227D01*
X32914573Y61865560D01*
X32914570Y61865561D01*
X32696104Y61956053D01*
X32461781Y62018840D01*
X32221290Y62050500D01*
X32221289Y62050500D01*
X32221288Y62050500D01*
X31978712Y62050500D01*
X31978711Y62050500D01*
X31978710Y62050500D01*
X31738217Y62018840D01*
X31503894Y61956053D01*
X31279790Y61863226D01*
X31279782Y61863222D01*
X31069706Y61741933D01*
X31069697Y61741927D01*
X30877270Y61594274D01*
X30877255Y61594260D01*
X30877247Y61594253D01*
X30705747Y61422753D01*
X30705740Y61422745D01*
X30705726Y61422730D01*
X30558084Y61230317D01*
X30554597Y61225667D01*
X30551786Y61219417D01*
X30436781Y61020225D01*
X30436779Y61020220D01*
X30436774Y61020210D01*
X30343947Y60796106D01*
X30281160Y60561783D01*
X30249500Y60321290D01*
X28850500Y60321290D01*
X28850500Y63688905D01*
X28850501Y63688990D01*
X28850501Y63903471D01*
X28809891Y64107623D01*
X28807806Y64112031D01*
X28730941Y64297598D01*
X28723057Y64309397D01*
X28616046Y64469551D01*
X28616036Y64469583D01*
X28615980Y64469652D01*
X28615980Y64469651D01*
X28615977Y64469655D01*
X28615975Y64469658D01*
X28615973Y64469660D01*
X28615970Y64469664D01*
X20499427Y72586206D01*
X20478275Y72614462D01*
X20465668Y72637551D01*
X20450501Y72696976D01*
X20450501Y72703471D01*
X20409891Y72907622D01*
X20407804Y72912035D01*
X20379995Y72979172D01*
X20379995Y72979173D01*
X20330945Y73097592D01*
X20330938Y73097605D01*
X20215977Y73269655D01*
X20215974Y73269659D01*
X20215969Y73269665D01*
X16099426Y77386207D01*
X16078274Y77414463D01*
X16065667Y77437552D01*
X16050500Y77496977D01*
X16050500Y78487149D01*
X16055522Y78522082D01*
X16059433Y78535401D01*
X16097206Y78594178D01*
X16160758Y78623203D01*
X16165955Y78623950D01*
X16231043Y78615774D01*
X16287985Y78592188D01*
X16292380Y78590109D01*
X16293578Y78589871D01*
X16293580Y78589870D01*
X16293581Y78589870D01*
X16293584Y78589870D01*
X16293585Y78589869D01*
X16361082Y78576443D01*
X16496529Y78549499D01*
X16709579Y78549499D01*
X16711089Y78549499D01*
X16711168Y78549500D01*
X18095677Y78549500D01*
X18130609Y78544479D01*
X18155853Y78537066D01*
X18208599Y78505770D01*
X22330335Y74384031D01*
X22330341Y74384026D01*
X22330345Y74384023D01*
X22502395Y74269062D01*
X22502408Y74269055D01*
X22693575Y74189872D01*
X22693580Y74189870D01*
X22693584Y74189870D01*
X22693585Y74189869D01*
X22693848Y74189817D01*
X22693850Y74189816D01*
X22693881Y74189810D01*
X22896529Y74149499D01*
X22902592Y74148902D01*
X22902553Y74148511D01*
X22930610Y74144478D01*
X22955854Y74137065D01*
X23008600Y74105769D01*
X27379435Y69734934D01*
X27379466Y69734902D01*
X27380911Y69733457D01*
X27380926Y69733441D01*
X27530342Y69584025D01*
X27530345Y69584023D01*
X27530349Y69584020D01*
X27530348Y69584020D01*
X27530412Y69583968D01*
X27530450Y69583953D01*
X27671494Y69489711D01*
X27679183Y69484573D01*
X27679191Y69484564D01*
X27679193Y69484566D01*
X27702393Y69469063D01*
X27702401Y69469060D01*
X27702402Y69469059D01*
X27893580Y69389870D01*
X28096530Y69349501D01*
X28096534Y69349500D01*
X28096535Y69349500D01*
X28102670Y69349500D01*
X28109610Y69348715D01*
X28114008Y69346865D01*
X28130609Y69344479D01*
X28155853Y69337066D01*
X28208599Y69305770D01*
X31779435Y65734934D01*
X31779466Y65734902D01*
X31780911Y65733457D01*
X31780926Y65733441D01*
X31930342Y65584025D01*
X31930345Y65584023D01*
X31930349Y65584020D01*
X31930348Y65584020D01*
X31930411Y65583968D01*
X31930448Y65583954D01*
X32102402Y65469059D01*
X32293580Y65389870D01*
X32493559Y65350092D01*
X32495794Y65349591D01*
X32496532Y65349500D01*
X32496534Y65349500D01*
X32496535Y65349500D01*
X32703465Y65349500D01*
X36006336Y65349500D01*
X36041267Y65344478D01*
X36056407Y65340033D01*
X36115186Y65302261D01*
X36130283Y65280528D01*
X36134307Y65273166D01*
X36149500Y65213693D01*
X36149500Y64267584D01*
X36147973Y64248185D01*
X36144958Y64229150D01*
X36140415Y64210229D01*
X36126598Y64167710D01*
X36125071Y64158065D01*
X36125071Y64158063D01*
X36099500Y63996617D01*
X36099500Y63823385D01*
X36124917Y63662901D01*
X36124918Y63662901D01*
X36126598Y63652299D01*
X36180128Y63487551D01*
X36243868Y63362455D01*
X36258768Y63333212D01*
X36360586Y63193072D01*
X36483072Y63070586D01*
X36623212Y62968768D01*
X36777555Y62890127D01*
X36942299Y62836598D01*
X37113389Y62809500D01*
X37113390Y62809500D01*
X37286610Y62809500D01*
X37286611Y62809500D01*
X37457690Y62836596D01*
X37457693Y62836597D01*
X37457701Y62836598D01*
X37457708Y62836601D01*
X37461698Y62837558D01*
X37487110Y62840936D01*
X37502941Y62841389D01*
X37570495Y62823643D01*
X37571391Y62823103D01*
X37615187Y62778173D01*
X37618995Y62771473D01*
X37618996Y62771473D01*
X37618997Y62771472D01*
X37635371Y62787846D01*
X37696694Y62821329D01*
X37766386Y62816343D01*
X37822318Y62774471D01*
X37846734Y62709006D01*
X37831881Y62640733D01*
X37810733Y62612484D01*
X37668750Y62470500D01*
X37662879Y62464629D01*
X37634623Y62443478D01*
X37619640Y62435297D01*
X37554028Y62420284D01*
X37549285Y62420521D01*
X37540731Y62420949D01*
X37508605Y62426863D01*
X37457701Y62443403D01*
X37359128Y62459015D01*
X37329383Y62463726D01*
X37312274Y62466436D01*
X37286614Y62470500D01*
X37286611Y62470500D01*
X37113389Y62470500D01*
X37113388Y62470500D01*
X37073726Y62464219D01*
X37073725Y62464220D01*
X36942304Y62443404D01*
X36777549Y62389871D01*
X36623210Y62311232D01*
X36543256Y62253141D01*
X36543255Y62253141D01*
X36494941Y62218039D01*
X36487564Y62213908D01*
X36356092Y62082436D01*
X36351961Y62075059D01*
X36316859Y62026745D01*
X36316859Y62026744D01*
X36258768Y61946790D01*
X36180101Y61792396D01*
X36179630Y61791454D01*
X36178546Y61787581D01*
X36163716Y61741936D01*
X36163715Y61741934D01*
X36126596Y61627695D01*
X36099500Y61456617D01*
X36099500Y61283386D01*
X36114279Y61190073D01*
X36122133Y61140485D01*
X36126598Y61112299D01*
X36180127Y60947555D01*
X36258768Y60793212D01*
X36360586Y60653072D01*
X36483072Y60530586D01*
X36623212Y60428768D01*
X36777555Y60350127D01*
X36942299Y60296598D01*
X37113389Y60269500D01*
X37113390Y60269500D01*
X37286610Y60269500D01*
X37286611Y60269500D01*
X37457701Y60296598D01*
X37622445Y60350127D01*
X37776788Y60428768D01*
X37916928Y60530586D01*
X38039414Y60653072D01*
X38141232Y60793212D01*
X38219873Y60947555D01*
X38273402Y61112299D01*
X38300500Y61283389D01*
X38300500Y61456611D01*
X38273402Y61627701D01*
X38242564Y61722609D01*
X38236546Y61757388D01*
X38236059Y61774446D01*
X38252470Y61839724D01*
X38259101Y61851272D01*
X38278949Y61877203D01*
X38527324Y62125579D01*
X38555580Y62146729D01*
X38578669Y62159335D01*
X38638090Y62174500D01*
X40656016Y62174500D01*
X40656018Y62174500D01*
X40764237Y62203497D01*
X40861263Y62259515D01*
X40927327Y62325580D01*
X40955574Y62346725D01*
X40978666Y62359333D01*
X41038091Y62374500D01*
X41056016Y62374500D01*
X41056018Y62374500D01*
X41164237Y62403497D01*
X41261263Y62459515D01*
X47740485Y68938737D01*
X47796503Y69035763D01*
X47825500Y69143982D01*
X47825500Y69256019D01*
X47825500Y71837449D01*
X47830522Y71872382D01*
X47831107Y71874374D01*
X47836434Y71892517D01*
X47866947Y71944472D01*
X47871663Y71949273D01*
X47891224Y71965473D01*
X47910289Y71978211D01*
X48021789Y72089711D01*
X48109394Y72220821D01*
X48169737Y72366503D01*
X48170786Y72371779D01*
X48182522Y72405055D01*
X48188841Y72417136D01*
X48237351Y72467412D01*
X48305347Y72483483D01*
X48364818Y72464571D01*
X48371817Y72460161D01*
X48393385Y72442937D01*
X51078912Y69757410D01*
X51094332Y69738622D01*
X51107646Y69718697D01*
X51119103Y69697264D01*
X51155560Y69609246D01*
X51170383Y69573460D01*
X51170394Y69573440D01*
X51268939Y69425960D01*
X51394355Y69300544D01*
X51394361Y69300539D01*
X51394365Y69300536D01*
X51541846Y69201991D01*
X51541859Y69201984D01*
X51577979Y69187023D01*
X51663544Y69151581D01*
X51663582Y69151566D01*
X51664763Y69151077D01*
X51705734Y69134106D01*
X51705736Y69134106D01*
X51705741Y69134104D01*
X51872080Y69101018D01*
X51874803Y69100296D01*
X51879706Y69099500D01*
X52057093Y69099500D01*
X52061214Y69099500D01*
X52069067Y69101883D01*
X52115082Y69111036D01*
X52115083Y69111036D01*
X52231053Y69134103D01*
X52231053Y69134104D01*
X52231058Y69134104D01*
X52231061Y69134106D01*
X52231066Y69134106D01*
X52234254Y69135427D01*
X52242235Y69138727D01*
X52242276Y69138749D01*
X52394940Y69201984D01*
X52394940Y69201985D01*
X52394947Y69201987D01*
X52542435Y69300536D01*
X52667864Y69425965D01*
X52766413Y69573453D01*
X52834294Y69737334D01*
X52834551Y69738622D01*
X52868899Y69911305D01*
X52868900Y69911307D01*
X52868900Y70088875D01*
X52868474Y70090831D01*
X52834296Y70262659D01*
X52834293Y70262668D01*
X52766416Y70426541D01*
X52766409Y70426554D01*
X52667864Y70574035D01*
X52667861Y70574039D01*
X52667856Y70574045D01*
X52542440Y70699461D01*
X52394960Y70798006D01*
X52394940Y70798017D01*
X52359154Y70812840D01*
X52271136Y70849297D01*
X52249703Y70860754D01*
X52229778Y70874068D01*
X52210990Y70889488D01*
X44611926Y78488552D01*
X44590774Y78516808D01*
X44578167Y78539897D01*
X44563000Y78599322D01*
X44563000Y78873381D01*
X44565382Y78897569D01*
X44570057Y78921075D01*
X44577109Y78944321D01*
X44626711Y79064074D01*
X44627878Y79066630D01*
X44628388Y79068121D01*
X44628392Y79068130D01*
X44628394Y79068134D01*
X44656939Y79211641D01*
X44668674Y79244906D01*
X44684043Y79274287D01*
X44706233Y79304487D01*
X44727326Y79325580D01*
X44755575Y79346726D01*
X44778665Y79359334D01*
X44838090Y79374500D01*
X44856016Y79374500D01*
X44856018Y79374500D01*
X44964237Y79403497D01*
X45061263Y79459515D01*
X45127327Y79525580D01*
X45155574Y79546725D01*
X45178666Y79559333D01*
X45238091Y79574500D01*
X45256016Y79574500D01*
X45256018Y79574500D01*
X45364237Y79603497D01*
X45461263Y79659515D01*
X45527327Y79725580D01*
X45555574Y79746725D01*
X45578666Y79759333D01*
X45638091Y79774500D01*
X45656016Y79774500D01*
X45656018Y79774500D01*
X45764237Y79803497D01*
X45861263Y79859515D01*
X45927327Y79925580D01*
X45955574Y79946725D01*
X45978666Y79959333D01*
X46038091Y79974500D01*
X46256016Y79974500D01*
X46256018Y79974500D01*
X46364237Y80003497D01*
X46461263Y80059515D01*
X46527327Y80125580D01*
X46555574Y80146725D01*
X46578666Y80159333D01*
X46638091Y80174500D01*
X46656016Y80174500D01*
X46656018Y80174500D01*
X46764237Y80203497D01*
X46861263Y80259515D01*
X46927327Y80325580D01*
X46955574Y80346725D01*
X46978666Y80359333D01*
X47038091Y80374500D01*
X47056016Y80374500D01*
X47056018Y80374500D01*
X47164237Y80403497D01*
X47261263Y80459515D01*
X47327327Y80525580D01*
X47355574Y80546725D01*
X47378666Y80559333D01*
X47438091Y80574500D01*
X47456016Y80574500D01*
X47456018Y80574500D01*
X47564237Y80603497D01*
X47661263Y80659515D01*
X47727327Y80725580D01*
X47755574Y80746725D01*
X47778666Y80759333D01*
X47838091Y80774500D01*
X65587446Y80774500D01*
X65622378Y80769478D01*
X65629140Y80767493D01*
X65642512Y80763566D01*
X65694472Y80733051D01*
X65699264Y80728344D01*
X65715471Y80708776D01*
X65719313Y80703026D01*
X65728212Y80689707D01*
X65839700Y80578219D01*
X65839706Y80578214D01*
X65839710Y80578211D01*
X65970813Y80490610D01*
X65970826Y80490603D01*
X66116497Y80430265D01*
X66116502Y80430263D01*
X66251053Y80403499D01*
X66263529Y80401018D01*
X66266250Y80400296D01*
X66271154Y80399500D01*
X66271155Y80399500D01*
X66280560Y80399500D01*
X66315487Y80394479D01*
X66326340Y80391293D01*
X66385121Y80353523D01*
X66414150Y80289969D01*
X66404211Y80220810D01*
X66404210Y80220808D01*
X66401025Y80213833D01*
X66375909Y80177658D01*
X54438330Y68240081D01*
X54410079Y68218931D01*
X54401179Y68214072D01*
X54391662Y68208875D01*
X54333341Y68193711D01*
X54326622Y68193651D01*
X54301327Y68196028D01*
X54278842Y68200500D01*
X54121158Y68200500D01*
X54121155Y68200500D01*
X54121153Y68200500D01*
X53966527Y68169743D01*
X53966496Y68169736D01*
X53820833Y68109402D01*
X53820824Y68109397D01*
X53820807Y68109387D01*
X53689708Y68021789D01*
X53689707Y68021788D01*
X53689701Y68021783D01*
X53578217Y67910299D01*
X53578212Y67910293D01*
X53578211Y67910292D01*
X53490613Y67779193D01*
X53490603Y67779176D01*
X53490598Y67779167D01*
X53430264Y67633504D01*
X53430257Y67633473D01*
X53399500Y67478850D01*
X53399500Y67478847D01*
X53399500Y67321154D01*
X53399500Y67321152D01*
X53399499Y67321152D01*
X53430257Y67166529D01*
X53430264Y67166498D01*
X53490598Y67020835D01*
X53490603Y67020826D01*
X53490613Y67020809D01*
X53578211Y66889710D01*
X53578212Y66889709D01*
X53578217Y66889703D01*
X53689701Y66778219D01*
X53689707Y66778214D01*
X53689711Y66778211D01*
X53820814Y66690610D01*
X53820827Y66690603D01*
X53966498Y66630265D01*
X53966503Y66630263D01*
X54121153Y66599501D01*
X54121156Y66599500D01*
X54121158Y66599500D01*
X54278844Y66599500D01*
X54278845Y66599501D01*
X54433497Y66630263D01*
X54579179Y66690606D01*
X54710289Y66778211D01*
X54821789Y66889711D01*
X54909394Y67020821D01*
X54969737Y67166503D01*
X55000500Y67321158D01*
X55000500Y67478842D01*
X55000500Y67478845D01*
X54997014Y67496366D01*
X54995124Y67531604D01*
X54996995Y67552513D01*
X55016788Y67609425D01*
X55020477Y67615055D01*
X55036497Y67634752D01*
X67443819Y80042075D01*
X67443826Y80042079D01*
X67461262Y80059515D01*
X67461263Y80059515D01*
X67540485Y80138737D01*
X67596503Y80235763D01*
X67625500Y80343982D01*
X67625500Y80354561D01*
X67630522Y80389494D01*
X67637934Y80414739D01*
X67669230Y80467483D01*
X67692358Y80490610D01*
X67740485Y80538737D01*
X67796503Y80635763D01*
X67825500Y80743982D01*
X67825500Y80856019D01*
X67825500Y80954567D01*
X67827841Y80978549D01*
X67830105Y80990034D01*
X67832310Y80994268D01*
X67836708Y81012292D01*
X67840821Y81022526D01*
X67842220Y81021964D01*
X67869226Y81067480D01*
X67885217Y81083471D01*
X67913459Y81104614D01*
X67925421Y81111146D01*
X67993690Y81125997D01*
X68059155Y81101581D01*
G37*
%TD.AperFunction*%
%TA.AperFunction,Conductor*%
G36*
X109393106Y84494977D02*
G01*
X109408104Y84490573D01*
X109466855Y84452828D01*
X109468042Y84451459D01*
X109495518Y84396598D01*
X109497163Y84389040D01*
X109500000Y84362669D01*
X109500000Y641830D01*
X109494975Y606886D01*
X109490570Y591888D01*
X109452827Y533145D01*
X109451458Y531958D01*
X109396597Y504482D01*
X109389039Y502837D01*
X109362668Y500000D01*
X641830Y500000D01*
X606889Y505025D01*
X591890Y509430D01*
X533144Y547173D01*
X531957Y548542D01*
X504477Y603417D01*
X502832Y610979D01*
X500000Y637332D01*
X500000Y4114743D01*
X2249500Y4114743D01*
X2249500Y3885259D01*
X2272638Y3709518D01*
X2279452Y3657761D01*
X2289124Y3621665D01*
X2298096Y3588181D01*
X2338842Y3436113D01*
X2338843Y3436110D01*
X2338845Y3436104D01*
X2426652Y3224119D01*
X2426655Y3224113D01*
X2426657Y3224110D01*
X2541392Y3025383D01*
X2541395Y3025379D01*
X2541399Y3025373D01*
X2680929Y2843537D01*
X2681081Y2843339D01*
X2681089Y2843330D01*
X2843330Y2681089D01*
X2843338Y2681082D01*
X2843339Y2681081D01*
X2855451Y2671787D01*
X3000751Y2560293D01*
X3025583Y2541239D01*
X3027149Y2540372D01*
X3027338Y2540263D01*
X3224112Y2426656D01*
X3224117Y2426654D01*
X3224123Y2426651D01*
X3315480Y2388810D01*
X3315481Y2388809D01*
X3375796Y2363826D01*
X3436113Y2338842D01*
X3657762Y2279452D01*
X3885266Y2249500D01*
X3885273Y2249500D01*
X4114727Y2249500D01*
X4114734Y2249500D01*
X4342238Y2279452D01*
X4563887Y2338842D01*
X4775888Y2426656D01*
X4974612Y2541389D01*
X5156661Y2681081D01*
X5156665Y2681086D01*
X5156670Y2681089D01*
X5234983Y2759402D01*
X5314070Y2838488D01*
X5314840Y2839178D01*
X5318422Y2842833D01*
X5318895Y2843311D01*
X5318905Y2843325D01*
X5318911Y2843330D01*
X5318914Y2843335D01*
X5318919Y2843339D01*
X5319028Y2843482D01*
X5319322Y2843857D01*
X5319322Y2843858D01*
X5322716Y2848205D01*
X5323216Y2848939D01*
X5330840Y2858875D01*
X5458611Y3025388D01*
X5573344Y3224112D01*
X5661158Y3436113D01*
X5720548Y3657762D01*
X5750500Y3885266D01*
X5750500Y4114734D01*
X5720548Y4342238D01*
X5661158Y4563887D01*
X5611190Y4684520D01*
X5573349Y4775877D01*
X5573346Y4775883D01*
X5573344Y4775888D01*
X5565132Y4790111D01*
X5459699Y4972728D01*
X5458768Y4974409D01*
X5318918Y5156662D01*
X5318913Y5156668D01*
X5318906Y5156675D01*
X5156670Y5318911D01*
X5156661Y5318919D01*
X5156659Y5318921D01*
X4974627Y5458601D01*
X4974621Y5458605D01*
X4974617Y5458608D01*
X4775890Y5573343D01*
X4775887Y5573345D01*
X4775881Y5573348D01*
X4563896Y5661155D01*
X4563889Y5661157D01*
X4563887Y5661158D01*
X4342238Y5720548D01*
X4304215Y5725554D01*
X4114742Y5750500D01*
X4114741Y5750500D01*
X4114734Y5750500D01*
X3885266Y5750500D01*
X3885258Y5750500D01*
X3885250Y5750500D01*
X3721755Y5728975D01*
X3668715Y5721991D01*
X3668709Y5721991D01*
X3657764Y5720549D01*
X3657760Y5720548D01*
X3564076Y5695447D01*
X3564076Y5695446D01*
X3507651Y5680328D01*
X3436107Y5661157D01*
X3224117Y5573348D01*
X3025388Y5458612D01*
X3025371Y5458601D01*
X2843342Y5318923D01*
X2843332Y5318914D01*
X2681086Y5156668D01*
X2681077Y5156658D01*
X2541399Y4974629D01*
X2541388Y4974612D01*
X2426652Y4775883D01*
X2338845Y4563898D01*
X2338842Y4563888D01*
X2279453Y4342241D01*
X2279452Y4342237D01*
X2279450Y4342227D01*
X2279448Y4342211D01*
X2249500Y4114743D01*
X500000Y4114743D01*
X500000Y19421152D01*
X1449499Y19421152D01*
X1480257Y19266529D01*
X1480264Y19266498D01*
X1540598Y19120835D01*
X1540603Y19120826D01*
X1540613Y19120809D01*
X1628211Y18989710D01*
X1628212Y18989709D01*
X1628217Y18989703D01*
X13188101Y7429819D01*
X13188107Y7429814D01*
X13188111Y7429811D01*
X13319214Y7342210D01*
X13319218Y7342208D01*
X13319221Y7342206D01*
X13464903Y7281862D01*
X13616623Y7251684D01*
X13618822Y7251191D01*
X13619555Y7251100D01*
X49117144Y7251100D01*
X49121264Y7251100D01*
X49129114Y7253482D01*
X49271797Y7281863D01*
X49417479Y7342206D01*
X49548589Y7429811D01*
X50189714Y8070937D01*
X50217964Y8092085D01*
X50231688Y8099579D01*
X50299950Y8114430D01*
X50301761Y8114300D01*
X50359955Y8094933D01*
X50366468Y8090747D01*
X50387108Y8074114D01*
X53308411Y5152811D01*
X53419911Y5041311D01*
X53419912Y5041310D01*
X53551014Y4953710D01*
X53551027Y4953703D01*
X53696698Y4893365D01*
X53696703Y4893363D01*
X53696707Y4893363D01*
X53696708Y4893362D01*
X53696971Y4893310D01*
X53696973Y4893309D01*
X53697004Y4893303D01*
X53851351Y4862600D01*
X53851354Y4862600D01*
X53851357Y4862600D01*
X53851358Y4862600D01*
X59895081Y4862600D01*
X59930013Y4857579D01*
X59940865Y4854392D01*
X59999644Y4816618D01*
X60028670Y4753063D01*
X60018727Y4683904D01*
X60018726Y4683902D01*
X60016733Y4679538D01*
X59991620Y4643369D01*
X59988736Y4640485D01*
X59988736Y4640484D01*
X59872461Y4524210D01*
X59843850Y4502866D01*
X59843252Y4502543D01*
X59829022Y4494866D01*
X59821132Y4490558D01*
X59820978Y4490474D01*
X59818448Y4489933D01*
X59761908Y4475500D01*
X59443981Y4475500D01*
X59335760Y4446503D01*
X59238737Y4390486D01*
X59238728Y4390479D01*
X57738330Y2890081D01*
X57710079Y2868931D01*
X57701179Y2864072D01*
X57691662Y2858875D01*
X57633341Y2843711D01*
X57626622Y2843651D01*
X57601327Y2846028D01*
X57578842Y2850500D01*
X57421158Y2850500D01*
X57421155Y2850500D01*
X57421153Y2850500D01*
X57266527Y2819743D01*
X57266496Y2819736D01*
X57120833Y2759402D01*
X57120824Y2759397D01*
X57120807Y2759387D01*
X56989708Y2671789D01*
X56989707Y2671788D01*
X56989701Y2671783D01*
X56878217Y2560299D01*
X56878212Y2560293D01*
X56878211Y2560292D01*
X56790613Y2429193D01*
X56790603Y2429176D01*
X56790598Y2429167D01*
X56730264Y2283504D01*
X56730257Y2283473D01*
X56699500Y2128850D01*
X56699500Y2128847D01*
X56699500Y1971154D01*
X56699500Y1971152D01*
X56699499Y1971152D01*
X56730257Y1816529D01*
X56730264Y1816498D01*
X56790598Y1670835D01*
X56790603Y1670826D01*
X56790613Y1670809D01*
X56878211Y1539710D01*
X56878212Y1539709D01*
X56878217Y1539703D01*
X56989701Y1428219D01*
X56989707Y1428214D01*
X56989711Y1428211D01*
X57120814Y1340610D01*
X57120827Y1340603D01*
X57266498Y1280265D01*
X57266503Y1280263D01*
X57421153Y1249501D01*
X57421156Y1249500D01*
X57421158Y1249500D01*
X57578844Y1249500D01*
X57578845Y1249501D01*
X57733497Y1280263D01*
X57879179Y1340606D01*
X58010289Y1428211D01*
X58121789Y1539711D01*
X58209394Y1670821D01*
X58269737Y1816503D01*
X58300500Y1971158D01*
X58300500Y2128842D01*
X58300500Y2128845D01*
X58297014Y2146366D01*
X58295124Y2181604D01*
X58296995Y2202513D01*
X58316788Y2259425D01*
X58320477Y2265055D01*
X58336497Y2284752D01*
X59627324Y3575577D01*
X59655574Y3596725D01*
X59678666Y3609333D01*
X59738091Y3624500D01*
X60056016Y3624500D01*
X60056018Y3624500D01*
X60164237Y3653497D01*
X60261263Y3709515D01*
X60377327Y3825580D01*
X60405574Y3846725D01*
X60428666Y3859333D01*
X60488091Y3874500D01*
X60556016Y3874500D01*
X60556018Y3874500D01*
X60664237Y3903497D01*
X60761263Y3959515D01*
X60877327Y4075580D01*
X60905574Y4096725D01*
X60928666Y4109333D01*
X60949863Y4114743D01*
X104249500Y4114743D01*
X104249500Y3885259D01*
X104272638Y3709518D01*
X104279452Y3657761D01*
X104289124Y3621665D01*
X104298096Y3588181D01*
X104338842Y3436113D01*
X104338843Y3436110D01*
X104338845Y3436104D01*
X104426652Y3224119D01*
X104426655Y3224113D01*
X104426657Y3224110D01*
X104541392Y3025383D01*
X104541395Y3025379D01*
X104541399Y3025373D01*
X104680929Y2843537D01*
X104681081Y2843339D01*
X104681089Y2843330D01*
X104843330Y2681089D01*
X104843338Y2681082D01*
X104843339Y2681081D01*
X104855451Y2671787D01*
X105000751Y2560293D01*
X105025583Y2541239D01*
X105027149Y2540372D01*
X105027338Y2540263D01*
X105224112Y2426656D01*
X105224117Y2426654D01*
X105224123Y2426651D01*
X105315480Y2388810D01*
X105315481Y2388809D01*
X105375796Y2363826D01*
X105436113Y2338842D01*
X105657762Y2279452D01*
X105885266Y2249500D01*
X105885273Y2249500D01*
X106114727Y2249500D01*
X106114734Y2249500D01*
X106342238Y2279452D01*
X106563887Y2338842D01*
X106775888Y2426656D01*
X106974612Y2541389D01*
X107156661Y2681081D01*
X107156665Y2681086D01*
X107156670Y2681089D01*
X107234983Y2759402D01*
X107314070Y2838488D01*
X107314840Y2839178D01*
X107318422Y2842833D01*
X107318895Y2843311D01*
X107318905Y2843325D01*
X107318911Y2843330D01*
X107318914Y2843335D01*
X107318919Y2843339D01*
X107319028Y2843482D01*
X107319322Y2843857D01*
X107319322Y2843858D01*
X107322716Y2848205D01*
X107323216Y2848939D01*
X107330840Y2858875D01*
X107458611Y3025388D01*
X107573344Y3224112D01*
X107661158Y3436113D01*
X107720548Y3657762D01*
X107750500Y3885266D01*
X107750500Y4114734D01*
X107720548Y4342238D01*
X107661158Y4563887D01*
X107611190Y4684520D01*
X107573349Y4775877D01*
X107573346Y4775883D01*
X107573344Y4775888D01*
X107565132Y4790111D01*
X107459699Y4972728D01*
X107458768Y4974409D01*
X107318918Y5156662D01*
X107318913Y5156668D01*
X107318906Y5156675D01*
X107156670Y5318911D01*
X107156661Y5318919D01*
X107156659Y5318921D01*
X106974627Y5458601D01*
X106974621Y5458605D01*
X106974617Y5458608D01*
X106775890Y5573343D01*
X106775887Y5573345D01*
X106775881Y5573348D01*
X106563896Y5661155D01*
X106563889Y5661157D01*
X106563887Y5661158D01*
X106342238Y5720548D01*
X106304215Y5725554D01*
X106114742Y5750500D01*
X106114741Y5750500D01*
X106114734Y5750500D01*
X105885266Y5750500D01*
X105885258Y5750500D01*
X105885250Y5750500D01*
X105721755Y5728975D01*
X105668715Y5721991D01*
X105668709Y5721991D01*
X105657764Y5720549D01*
X105657760Y5720548D01*
X105564076Y5695447D01*
X105564076Y5695446D01*
X105507651Y5680328D01*
X105436107Y5661157D01*
X105224117Y5573348D01*
X105025388Y5458612D01*
X105025371Y5458601D01*
X104843342Y5318923D01*
X104843332Y5318914D01*
X104681086Y5156668D01*
X104681077Y5156658D01*
X104541399Y4974629D01*
X104541388Y4974612D01*
X104426652Y4775883D01*
X104338845Y4563898D01*
X104338842Y4563888D01*
X104279453Y4342241D01*
X104279452Y4342237D01*
X104279450Y4342227D01*
X104279448Y4342211D01*
X104249500Y4114743D01*
X60949863Y4114743D01*
X60988091Y4124500D01*
X85806016Y4124500D01*
X85806018Y4124500D01*
X85914237Y4153497D01*
X86011263Y4209515D01*
X90627324Y8825577D01*
X90655574Y8846725D01*
X90678666Y8859333D01*
X90738091Y8874500D01*
X92056016Y8874500D01*
X92056018Y8874500D01*
X92164237Y8903497D01*
X92261263Y8959515D01*
X92340485Y9038737D01*
X92396503Y9135763D01*
X92425500Y9243982D01*
X92425500Y15106018D01*
X92396503Y15214237D01*
X92340485Y15311263D01*
X92261263Y15390485D01*
X92224426Y15427322D01*
X92203274Y15455578D01*
X92190667Y15478667D01*
X92175500Y15538092D01*
X92175500Y15606017D01*
X92175500Y15606018D01*
X92161072Y15659863D01*
X92146503Y15714237D01*
X92146502Y15714240D01*
X92129330Y15743983D01*
X92092021Y15808604D01*
X92092019Y15808606D01*
X92090485Y15811263D01*
X92011263Y15890485D01*
X91974220Y15927528D01*
X91974011Y15927739D01*
X91973744Y15928232D01*
X91953274Y15955578D01*
X91940667Y15978667D01*
X91925500Y16038092D01*
X91925500Y16106019D01*
X91924084Y16111301D01*
X91924083Y16111305D01*
X91924082Y16111309D01*
X91896503Y16214237D01*
X91840484Y16311264D01*
X91724426Y16427322D01*
X91703274Y16455578D01*
X91690667Y16478667D01*
X91675500Y16538092D01*
X91675500Y16606017D01*
X91675500Y16606018D01*
X91669999Y16626547D01*
X91646503Y16714237D01*
X91620326Y16759577D01*
X91590485Y16811263D01*
X91511263Y16890485D01*
X91474426Y16927322D01*
X91453274Y16955578D01*
X91440667Y16978667D01*
X91425500Y17038092D01*
X91425500Y17057671D01*
X91430523Y17092607D01*
X91432548Y17099501D01*
X91434927Y17107606D01*
X91472672Y17166356D01*
X91474041Y17167543D01*
X91528920Y17195023D01*
X91536479Y17196667D01*
X91562832Y17199500D01*
X95057670Y17199500D01*
X95092606Y17194477D01*
X95107604Y17190073D01*
X95166355Y17152328D01*
X95167542Y17150959D01*
X95195018Y17096098D01*
X95196663Y17088540D01*
X95199500Y17062169D01*
X95199500Y16657420D01*
X95197116Y16633224D01*
X95192442Y16609731D01*
X95185387Y16586475D01*
X95134111Y16462683D01*
X95134101Y16462655D01*
X95134099Y16462648D01*
X95099500Y16288701D01*
X95099500Y16111304D01*
X95134099Y15937354D01*
X95134101Y15937347D01*
X95134109Y15937324D01*
X95201977Y15773474D01*
X95201985Y15773456D01*
X95201994Y15773441D01*
X95300536Y15625964D01*
X95300537Y15625963D01*
X95300542Y15625957D01*
X95425955Y15500544D01*
X95425961Y15500539D01*
X95425965Y15500536D01*
X95573446Y15401991D01*
X95573459Y15401984D01*
X95641619Y15373752D01*
X95737334Y15334106D01*
X95737336Y15334106D01*
X95737341Y15334104D01*
X95903680Y15301018D01*
X95906403Y15300296D01*
X95911306Y15299500D01*
X96088693Y15299500D01*
X96092814Y15299500D01*
X96100669Y15301884D01*
X96147842Y15311266D01*
X96262658Y15334104D01*
X96262660Y15334106D01*
X96262662Y15334106D01*
X96262666Y15334106D01*
X96265854Y15335427D01*
X96273835Y15338727D01*
X96273876Y15338749D01*
X96426540Y15401984D01*
X96426540Y15401985D01*
X96426547Y15401987D01*
X96574035Y15500536D01*
X96699464Y15625965D01*
X96798013Y15773453D01*
X96865894Y15937334D01*
X96866411Y15939929D01*
X96888964Y16053318D01*
X96900500Y16111309D01*
X96900500Y16288691D01*
X96900500Y16288694D01*
X96900500Y16288875D01*
X96900074Y16290831D01*
X96865896Y16462659D01*
X96865893Y16462668D01*
X96814609Y16586480D01*
X96807557Y16609731D01*
X96802881Y16633233D01*
X96800500Y16657420D01*
X96800500Y17057671D01*
X96805523Y17092607D01*
X96807548Y17099501D01*
X96809927Y17107606D01*
X96847672Y17166356D01*
X96849041Y17167543D01*
X96903920Y17195023D01*
X96911479Y17196667D01*
X96937832Y17199500D01*
X98582964Y17199500D01*
X98590814Y17201882D01*
X98733497Y17230263D01*
X98879179Y17290606D01*
X99010289Y17378211D01*
X99121789Y17489711D01*
X99209394Y17620821D01*
X99269737Y17766503D01*
X99300500Y17921158D01*
X99300500Y28092581D01*
X99302882Y28116769D01*
X99307557Y28140275D01*
X99314609Y28163521D01*
X99364211Y28283274D01*
X99365378Y28285830D01*
X99365887Y28287321D01*
X99365892Y28287330D01*
X99365894Y28287334D01*
X99392007Y28418613D01*
X99400500Y28461307D01*
X99400500Y28638803D01*
X99400401Y28639243D01*
X99400237Y28640011D01*
X99365896Y28812659D01*
X99365893Y28812668D01*
X99365256Y28814205D01*
X99348923Y28853637D01*
X99348921Y28853641D01*
X99348921Y28853644D01*
X99298021Y28976528D01*
X99298016Y28976541D01*
X99298009Y28976554D01*
X99199464Y29124035D01*
X99199461Y29124039D01*
X99199456Y29124045D01*
X99074043Y29249458D01*
X99074037Y29249463D01*
X99074036Y29249464D01*
X98926559Y29348006D01*
X98926558Y29348007D01*
X98926553Y29348010D01*
X98926540Y29348017D01*
X98926526Y29348023D01*
X98762676Y29415891D01*
X98762653Y29415899D01*
X98762646Y29415901D01*
X98588698Y29450500D01*
X98588694Y29450500D01*
X98588691Y29450500D01*
X98411309Y29450500D01*
X98411306Y29450500D01*
X98411301Y29450500D01*
X98237352Y29415900D01*
X98237345Y29415899D01*
X98237322Y29415891D01*
X98073472Y29348023D01*
X98073454Y29348015D01*
X98073439Y29348006D01*
X97925962Y29249464D01*
X97925961Y29249463D01*
X97925955Y29249458D01*
X97800542Y29124045D01*
X97800537Y29124039D01*
X97800536Y29124038D01*
X97701994Y28976561D01*
X97701985Y28976546D01*
X97701977Y28976528D01*
X97634109Y28812678D01*
X97634101Y28812655D01*
X97634099Y28812648D01*
X97599500Y28638701D01*
X97599500Y28638696D01*
X97599500Y28461305D01*
X97599500Y28461303D01*
X97599499Y28461303D01*
X97634100Y28287360D01*
X97634107Y28287329D01*
X97685387Y28163527D01*
X97692443Y28140270D01*
X97697117Y28116770D01*
X97699500Y28092581D01*
X97699500Y18942330D01*
X97694475Y18907386D01*
X97690070Y18892388D01*
X97652327Y18833645D01*
X97650958Y18832458D01*
X97596097Y18804982D01*
X97588539Y18803337D01*
X97562168Y18800500D01*
X90457419Y18800500D01*
X90433230Y18802883D01*
X90409730Y18807557D01*
X90386473Y18814613D01*
X90262676Y18865891D01*
X90262653Y18865899D01*
X90262646Y18865901D01*
X90088698Y18900500D01*
X90088694Y18900500D01*
X90088691Y18900500D01*
X89911309Y18900500D01*
X89911306Y18900500D01*
X89911301Y18900500D01*
X89737352Y18865900D01*
X89737345Y18865899D01*
X89737322Y18865891D01*
X89573472Y18798023D01*
X89573454Y18798015D01*
X89573439Y18798006D01*
X89425962Y18699464D01*
X89425961Y18699463D01*
X89425955Y18699458D01*
X89300542Y18574045D01*
X89300537Y18574039D01*
X89300536Y18574038D01*
X89201994Y18426561D01*
X89201985Y18426546D01*
X89201977Y18426528D01*
X89134109Y18262678D01*
X89134101Y18262655D01*
X89134099Y18262648D01*
X89099500Y18088701D01*
X89099500Y17911301D01*
X89134099Y17737354D01*
X89134101Y17737347D01*
X89134109Y17737324D01*
X89201977Y17573474D01*
X89201985Y17573456D01*
X89201994Y17573441D01*
X89300536Y17425964D01*
X89300537Y17425963D01*
X89300542Y17425957D01*
X89425955Y17300544D01*
X89425961Y17300539D01*
X89425965Y17300536D01*
X89573446Y17201991D01*
X89573459Y17201984D01*
X89655175Y17168137D01*
X89737334Y17134106D01*
X89737336Y17134106D01*
X89737341Y17134104D01*
X89903680Y17101018D01*
X89906403Y17100296D01*
X89911306Y17099500D01*
X90088693Y17099500D01*
X90088694Y17099500D01*
X90123645Y17106453D01*
X90158598Y17113406D01*
X90240364Y17129671D01*
X90275596Y17131560D01*
X90291172Y17130167D01*
X90356189Y17104587D01*
X90362738Y17099500D01*
X90364773Y17097919D01*
X90396084Y17061998D01*
X90408250Y17040926D01*
X90409508Y17038748D01*
X90409511Y17038742D01*
X90409516Y17038736D01*
X90525573Y16922679D01*
X90546723Y16894427D01*
X90559331Y16871338D01*
X90574500Y16811909D01*
X90574500Y16743982D01*
X90603497Y16635763D01*
X90659515Y16538737D01*
X90659517Y16538735D01*
X90775573Y16422679D01*
X90796723Y16394427D01*
X90809331Y16371338D01*
X90824500Y16311909D01*
X90824500Y16243984D01*
X90853494Y16135772D01*
X90853496Y16135766D01*
X90853497Y16135764D01*
X90853498Y16135761D01*
X90867617Y16111307D01*
X90867618Y16111304D01*
X90909510Y16038744D01*
X90909516Y16038736D01*
X91025573Y15922679D01*
X91046723Y15894427D01*
X91059331Y15871338D01*
X91074500Y15811909D01*
X91074500Y15743982D01*
X91103497Y15635763D01*
X91159515Y15538737D01*
X91159517Y15538735D01*
X91275573Y15422679D01*
X91296723Y15394427D01*
X91309331Y15371338D01*
X91324500Y15311909D01*
X91324500Y15243982D01*
X91353497Y15135763D01*
X91409515Y15038737D01*
X91409517Y15038735D01*
X91525573Y14922679D01*
X91546723Y14894427D01*
X91559331Y14871338D01*
X91574500Y14811909D01*
X91574500Y14811002D01*
X91569475Y14776061D01*
X91565564Y14762744D01*
X91527787Y14703968D01*
X91464229Y14674946D01*
X91464226Y14674946D01*
X91459466Y14674262D01*
X91391745Y14683565D01*
X91359992Y14697585D01*
X91353710Y14698314D01*
X91334868Y14700500D01*
X91334865Y14700500D01*
X89445143Y14700500D01*
X89445127Y14700499D01*
X89445113Y14700498D01*
X89427255Y14698427D01*
X89420012Y14697587D01*
X89420011Y14697587D01*
X89420005Y14697586D01*
X89419559Y14697453D01*
X89417303Y14696391D01*
X89317236Y14652208D01*
X89237793Y14572766D01*
X89192414Y14469995D01*
X89191844Y14467290D01*
X89191589Y14462876D01*
X89189502Y14444883D01*
X89189500Y14444869D01*
X89189500Y12555144D01*
X89189502Y12555118D01*
X89192003Y12533546D01*
X89192414Y12530007D01*
X89192546Y12529562D01*
X89193609Y12527304D01*
X89237791Y12427240D01*
X89237793Y12427236D01*
X89237794Y12427235D01*
X89317235Y12347794D01*
X89420009Y12302415D01*
X89445135Y12299500D01*
X89447659Y12299501D01*
X89482601Y12294480D01*
X89497598Y12290077D01*
X89556377Y12252305D01*
X89556384Y12252297D01*
X89557571Y12250927D01*
X89585017Y12196102D01*
X89586663Y12188540D01*
X89589500Y12162167D01*
X89589500Y11926455D01*
X89584476Y11891516D01*
X89577064Y11866276D01*
X89545769Y11813534D01*
X89469819Y11737585D01*
X89465684Y11730200D01*
X89434066Y11686682D01*
X89363239Y11589200D01*
X89321080Y11506457D01*
X89277454Y11420837D01*
X89219059Y11241119D01*
X89219059Y11241117D01*
X89219058Y11241114D01*
X89189500Y11054493D01*
X89189500Y10960770D01*
X89184476Y10925833D01*
X89177064Y10900592D01*
X89145769Y10847848D01*
X84810448Y6512527D01*
X84782197Y6491378D01*
X84759109Y6478770D01*
X84699679Y6463600D01*
X71572540Y6463600D01*
X71537605Y6468623D01*
X71526751Y6471810D01*
X71467973Y6509584D01*
X71438948Y6573140D01*
X71448888Y6642289D01*
X71452078Y6649276D01*
X71477187Y6685440D01*
X71929157Y7137409D01*
X74585119Y9793375D01*
X74613369Y9814522D01*
X74628354Y9822705D01*
X74693966Y9837716D01*
X74707259Y9837051D01*
X74739377Y9831140D01*
X74868882Y9789060D01*
X74899988Y9784134D01*
X75055514Y9759500D01*
X75055519Y9759500D01*
X75244485Y9759500D01*
X75244486Y9759500D01*
X75431118Y9789060D01*
X75458598Y9797989D01*
X75610832Y9847453D01*
X75614850Y9849500D01*
X75643935Y9864320D01*
X75779199Y9933240D01*
X75932073Y10044310D01*
X76065690Y10177927D01*
X76176760Y10330801D01*
X76262547Y10499168D01*
X76296559Y10603850D01*
X76334982Y10660686D01*
X76336005Y10661542D01*
X76342371Y10670852D01*
X76406727Y10698056D01*
X76475575Y10686149D01*
X76504708Y10666233D01*
X76506994Y10664134D01*
X76541087Y10611090D01*
X76577452Y10499167D01*
X76663239Y10330802D01*
X76663240Y10330801D01*
X76774310Y10177927D01*
X76907927Y10044310D01*
X76994229Y9981607D01*
X77060796Y9933243D01*
X77060797Y9933243D01*
X77060801Y9933240D01*
X77140347Y9892710D01*
X77222722Y9850737D01*
X77224320Y9849801D01*
X77228037Y9848001D01*
X77230021Y9847015D01*
X77233775Y9845957D01*
X77325497Y9816154D01*
X77408881Y9789060D01*
X77595514Y9759500D01*
X77595519Y9759500D01*
X77784485Y9759500D01*
X77784486Y9759500D01*
X77971118Y9789060D01*
X77998598Y9797989D01*
X78150832Y9847453D01*
X78154850Y9849500D01*
X78183935Y9864320D01*
X78319199Y9933240D01*
X78472073Y10044310D01*
X78605690Y10177927D01*
X78716760Y10330801D01*
X78802547Y10499168D01*
X78836559Y10603850D01*
X78874982Y10660686D01*
X78876005Y10661542D01*
X78882371Y10670852D01*
X78946727Y10698056D01*
X79015575Y10686149D01*
X79044708Y10666233D01*
X79046994Y10664134D01*
X79081087Y10611090D01*
X79117452Y10499167D01*
X79203239Y10330802D01*
X79203240Y10330801D01*
X79314310Y10177927D01*
X79447927Y10044310D01*
X79534229Y9981607D01*
X79600796Y9933243D01*
X79600797Y9933243D01*
X79600801Y9933240D01*
X79680347Y9892710D01*
X79762722Y9850737D01*
X79764320Y9849801D01*
X79768037Y9848001D01*
X79770021Y9847015D01*
X79773775Y9845957D01*
X79865497Y9816154D01*
X79948881Y9789060D01*
X80135514Y9759500D01*
X80135519Y9759500D01*
X80324485Y9759500D01*
X80324486Y9759500D01*
X80511118Y9789060D01*
X80538598Y9797989D01*
X80690832Y9847453D01*
X80694850Y9849500D01*
X80723935Y9864320D01*
X80859199Y9933240D01*
X81012073Y10044310D01*
X81145690Y10177927D01*
X81256760Y10330801D01*
X81342547Y10499168D01*
X81400940Y10678882D01*
X81414500Y10764498D01*
X81430500Y10865514D01*
X81430500Y11054487D01*
X81400940Y11241119D01*
X81363449Y11356503D01*
X81363449Y11356504D01*
X81363449Y11356505D01*
X81351499Y11393280D01*
X81342547Y11420832D01*
X81342545Y11420835D01*
X81342545Y11420837D01*
X81340294Y11425254D01*
X81339987Y11426042D01*
X81339262Y11427281D01*
X81297207Y11509818D01*
X81275580Y11552263D01*
X81256760Y11589199D01*
X81145690Y11742073D01*
X81079426Y11808337D01*
X81058274Y11836593D01*
X81045667Y11859682D01*
X81030500Y11919107D01*
X81030500Y12533546D01*
X81035522Y12568479D01*
X81042934Y12593724D01*
X81074232Y12646470D01*
X81082302Y12654539D01*
X81145690Y12717927D01*
X81256760Y12870801D01*
X81342547Y13039168D01*
X81400940Y13218882D01*
X81405184Y13245677D01*
X81430500Y13405514D01*
X81430500Y13594487D01*
X81400940Y13781119D01*
X81342545Y13960837D01*
X81256759Y14129200D01*
X81145690Y14282073D01*
X81012073Y14415690D01*
X80859199Y14526760D01*
X80690836Y14612546D01*
X80511118Y14670941D01*
X80490150Y14674262D01*
X80326840Y14700128D01*
X80311300Y14703625D01*
X80293977Y14708712D01*
X80235200Y14746488D01*
X80206177Y14810044D01*
X80216120Y14879195D01*
X80219311Y14886183D01*
X80244416Y14922340D01*
X93426871Y28104793D01*
X106621789Y41299711D01*
X106709394Y41430821D01*
X106769737Y41576503D01*
X106800500Y41731158D01*
X106800500Y41888842D01*
X106800500Y43283281D01*
X106802882Y43307469D01*
X106807557Y43330975D01*
X106814609Y43354221D01*
X106864211Y43473974D01*
X106865378Y43476530D01*
X106865887Y43478021D01*
X106865892Y43478030D01*
X106865894Y43478034D01*
X106900499Y43652003D01*
X106900500Y43652007D01*
X106900500Y43829575D01*
X106900074Y43831531D01*
X106865896Y44003359D01*
X106865893Y44003368D01*
X106814609Y44127180D01*
X106807557Y44150431D01*
X106802881Y44173933D01*
X106800500Y44198120D01*
X106800500Y51316327D01*
X106800065Y51318328D01*
X106784961Y51394261D01*
X106769738Y51470790D01*
X106769737Y51470797D01*
X106740272Y51541933D01*
X106709397Y51616473D01*
X106709390Y51616486D01*
X106621790Y51747588D01*
X106613324Y51756054D01*
X106510289Y51859089D01*
X100276782Y58092596D01*
X100261361Y58111387D01*
X100248055Y58131301D01*
X100236594Y58152743D01*
X100231824Y58164260D01*
X100187639Y58270932D01*
X100185995Y58275527D01*
X100182315Y58281034D01*
X100086764Y58424035D01*
X100086761Y58424039D01*
X100086756Y58424045D01*
X99961343Y58549458D01*
X99961337Y58549463D01*
X99961336Y58549464D01*
X99813859Y58648006D01*
X99813858Y58648007D01*
X99813853Y58648010D01*
X99813840Y58648017D01*
X99813826Y58648023D01*
X99649976Y58715891D01*
X99649953Y58715899D01*
X99649946Y58715901D01*
X99475998Y58750500D01*
X99475994Y58750500D01*
X99475991Y58750500D01*
X99298609Y58750500D01*
X99298606Y58750500D01*
X99298601Y58750500D01*
X99124652Y58715900D01*
X99124645Y58715899D01*
X99124622Y58715891D01*
X98960772Y58648023D01*
X98960754Y58648015D01*
X98960739Y58648006D01*
X98813262Y58549464D01*
X98813261Y58549463D01*
X98813255Y58549458D01*
X98687842Y58424045D01*
X98687837Y58424039D01*
X98687836Y58424038D01*
X98589294Y58276561D01*
X98589285Y58276546D01*
X98589277Y58276528D01*
X98521409Y58112678D01*
X98521401Y58112655D01*
X98521399Y58112648D01*
X98486800Y57938701D01*
X98486800Y57761301D01*
X98521399Y57587354D01*
X98521401Y57587347D01*
X98521409Y57587324D01*
X98589277Y57423474D01*
X98589285Y57423456D01*
X98589294Y57423441D01*
X98687836Y57275964D01*
X98687837Y57275963D01*
X98687842Y57275957D01*
X98813255Y57150544D01*
X98813261Y57150539D01*
X98813262Y57150538D01*
X98961771Y57051306D01*
X98966360Y57049665D01*
X99084569Y57000702D01*
X99105987Y56989253D01*
X99125921Y56975934D01*
X99144704Y56960518D01*
X105150573Y50954649D01*
X105171723Y50926397D01*
X105184331Y50903308D01*
X105199500Y50843879D01*
X105199500Y44198120D01*
X105197116Y44173924D01*
X105192442Y44150431D01*
X105185387Y44127175D01*
X105134111Y44003383D01*
X105134101Y44003355D01*
X105134099Y44003348D01*
X105099500Y43829401D01*
X105099500Y43829396D01*
X105099500Y43652005D01*
X105099500Y43652003D01*
X105099499Y43652003D01*
X105134100Y43478060D01*
X105134107Y43478029D01*
X105185387Y43354227D01*
X105192443Y43330970D01*
X105197117Y43307470D01*
X105199500Y43283281D01*
X105199500Y42210771D01*
X105194476Y42175834D01*
X105187064Y42150593D01*
X105155769Y42097849D01*
X84254388Y21196468D01*
X84226138Y21175319D01*
X84216211Y21169898D01*
X84147938Y21155044D01*
X84082473Y21179458D01*
X84040600Y21235390D01*
X84037913Y21242596D01*
X84030100Y21285916D01*
X84030100Y39904098D01*
X84035121Y39939025D01*
X84038307Y39949878D01*
X84076077Y40008659D01*
X84139631Y40037688D01*
X84208771Y40027757D01*
X84210899Y40026785D01*
X84262511Y39982873D01*
X84300536Y39925964D01*
X84300537Y39925963D01*
X84300542Y39925957D01*
X84425955Y39800544D01*
X84425961Y39800539D01*
X84425965Y39800536D01*
X84573446Y39701991D01*
X84573459Y39701984D01*
X84609579Y39687023D01*
X84695144Y39651581D01*
X84695182Y39651566D01*
X84696363Y39651077D01*
X84737334Y39634106D01*
X84737336Y39634106D01*
X84737341Y39634104D01*
X84903680Y39601018D01*
X84906403Y39600296D01*
X84911306Y39599500D01*
X85088693Y39599500D01*
X85092814Y39599500D01*
X85100667Y39601883D01*
X85146682Y39611036D01*
X85146683Y39611036D01*
X85262653Y39634103D01*
X85262653Y39634104D01*
X85262658Y39634104D01*
X85262661Y39634106D01*
X85262666Y39634106D01*
X85265854Y39635427D01*
X85273835Y39638727D01*
X85273876Y39638749D01*
X85426540Y39701984D01*
X85426540Y39701985D01*
X85426547Y39701987D01*
X85574035Y39800536D01*
X85699464Y39925965D01*
X85788752Y40059596D01*
X85803218Y40077418D01*
X85819082Y40093629D01*
X85836589Y40108479D01*
X90085828Y43082947D01*
X90108230Y43095393D01*
X90131436Y43105301D01*
X90155922Y43112875D01*
X90262666Y43134106D01*
X90386482Y43185392D01*
X90409725Y43192443D01*
X90433233Y43197119D01*
X90457419Y43199500D01*
X94557670Y43199500D01*
X94592606Y43194477D01*
X94607604Y43190073D01*
X94666355Y43152328D01*
X94667542Y43150959D01*
X94695018Y43096098D01*
X94696663Y43088540D01*
X94699500Y43062169D01*
X94699500Y40457420D01*
X94697116Y40433224D01*
X94692442Y40409731D01*
X94685387Y40386475D01*
X94634111Y40262683D01*
X94634101Y40262655D01*
X94634099Y40262648D01*
X94599500Y40088701D01*
X94599500Y39911301D01*
X94634099Y39737354D01*
X94634101Y39737347D01*
X94634109Y39737324D01*
X94701977Y39573474D01*
X94701985Y39573456D01*
X94701994Y39573441D01*
X94800536Y39425964D01*
X94800537Y39425963D01*
X94800542Y39425957D01*
X94925955Y39300544D01*
X94925961Y39300539D01*
X94925965Y39300536D01*
X95073446Y39201991D01*
X95073459Y39201984D01*
X95109579Y39187023D01*
X95195144Y39151581D01*
X95195182Y39151566D01*
X95196363Y39151077D01*
X95237334Y39134106D01*
X95237336Y39134106D01*
X95237341Y39134104D01*
X95403680Y39101018D01*
X95406403Y39100296D01*
X95411306Y39099500D01*
X95588693Y39099500D01*
X95592814Y39099500D01*
X95600667Y39101883D01*
X95646682Y39111036D01*
X95646683Y39111036D01*
X95762653Y39134103D01*
X95762653Y39134104D01*
X95762658Y39134104D01*
X95762661Y39134106D01*
X95762666Y39134106D01*
X95765854Y39135427D01*
X95773835Y39138727D01*
X95773876Y39138749D01*
X95926540Y39201984D01*
X95926540Y39201985D01*
X95926547Y39201987D01*
X96074035Y39300536D01*
X96199464Y39425965D01*
X96298013Y39573453D01*
X96365894Y39737334D01*
X96378467Y39800539D01*
X96400499Y39911305D01*
X96400500Y39911307D01*
X96400500Y40088694D01*
X96400499Y40088696D01*
X96365896Y40262659D01*
X96365893Y40262668D01*
X96314609Y40386480D01*
X96307557Y40409731D01*
X96302881Y40433233D01*
X96300500Y40457420D01*
X96300500Y43057671D01*
X96305523Y43092607D01*
X96309927Y43107605D01*
X96347672Y43166356D01*
X96349041Y43167543D01*
X96403920Y43195023D01*
X96411479Y43196667D01*
X96437832Y43199500D01*
X98582964Y43199500D01*
X98590814Y43201882D01*
X98733497Y43230263D01*
X98879179Y43290606D01*
X99010289Y43378211D01*
X99121789Y43489711D01*
X99209394Y43620821D01*
X99269737Y43766503D01*
X99300500Y43921158D01*
X99300500Y53692581D01*
X99302882Y53716769D01*
X99307557Y53740275D01*
X99314609Y53763521D01*
X99364211Y53883274D01*
X99365378Y53885830D01*
X99365887Y53887321D01*
X99365892Y53887330D01*
X99365894Y53887334D01*
X99400499Y54061303D01*
X99400500Y54061307D01*
X99400500Y54238875D01*
X99400074Y54240831D01*
X99365896Y54412659D01*
X99365893Y54412668D01*
X99298016Y54576541D01*
X99298009Y54576554D01*
X99199464Y54724035D01*
X99199461Y54724039D01*
X99199456Y54724045D01*
X99074043Y54849458D01*
X99074037Y54849463D01*
X99074036Y54849464D01*
X98926559Y54948006D01*
X98926558Y54948007D01*
X98926553Y54948010D01*
X98926540Y54948017D01*
X98926526Y54948023D01*
X98762676Y55015891D01*
X98762653Y55015899D01*
X98762646Y55015901D01*
X98588698Y55050500D01*
X98588694Y55050500D01*
X98588691Y55050500D01*
X98411309Y55050500D01*
X98411306Y55050500D01*
X98411301Y55050500D01*
X98237352Y55015900D01*
X98237345Y55015899D01*
X98237322Y55015891D01*
X98073472Y54948023D01*
X98073454Y54948015D01*
X98073439Y54948006D01*
X97925962Y54849464D01*
X97925961Y54849463D01*
X97925955Y54849458D01*
X97800542Y54724045D01*
X97800537Y54724039D01*
X97800536Y54724038D01*
X97701994Y54576561D01*
X97701985Y54576546D01*
X97701977Y54576528D01*
X97634109Y54412678D01*
X97634101Y54412655D01*
X97634099Y54412648D01*
X97599500Y54238701D01*
X97599500Y54238696D01*
X97599500Y54061305D01*
X97599500Y54061303D01*
X97599499Y54061303D01*
X97634100Y53887360D01*
X97634107Y53887329D01*
X97685387Y53763527D01*
X97692443Y53740270D01*
X97697117Y53716770D01*
X97699500Y53692581D01*
X97699500Y44942330D01*
X97694475Y44907386D01*
X97690070Y44892388D01*
X97652327Y44833645D01*
X97650958Y44832458D01*
X97596097Y44804982D01*
X97588539Y44803337D01*
X97562168Y44800500D01*
X90457419Y44800500D01*
X90433230Y44802883D01*
X90409730Y44807557D01*
X90386473Y44814613D01*
X90262676Y44865891D01*
X90262653Y44865899D01*
X90262646Y44865901D01*
X90088698Y44900500D01*
X90088694Y44900500D01*
X90088691Y44900500D01*
X89911309Y44900500D01*
X89911306Y44900500D01*
X89911301Y44900500D01*
X89737352Y44865900D01*
X89737345Y44865899D01*
X89737322Y44865891D01*
X89573472Y44798023D01*
X89573454Y44798015D01*
X89573439Y44798006D01*
X89425962Y44699464D01*
X89425961Y44699463D01*
X89425955Y44699458D01*
X89300542Y44574045D01*
X89300537Y44574039D01*
X89300536Y44574038D01*
X89211255Y44440420D01*
X89196778Y44422584D01*
X89180920Y44406379D01*
X89163404Y44391521D01*
X84914182Y41417064D01*
X84891767Y41404610D01*
X84868563Y41394702D01*
X84844060Y41387124D01*
X84737365Y41365902D01*
X84737327Y41365893D01*
X84573472Y41298023D01*
X84573454Y41298015D01*
X84573439Y41298006D01*
X84425962Y41199464D01*
X84425961Y41199463D01*
X84425955Y41199458D01*
X84300540Y41074043D01*
X84300537Y41074039D01*
X84267107Y41024007D01*
X84222206Y40983405D01*
X84212301Y40978140D01*
X84212275Y40978189D01*
X84204800Y40971943D01*
X84135474Y40963246D01*
X84072451Y40993410D01*
X84049822Y41020495D01*
X84048595Y41022482D01*
X84030100Y41087633D01*
X84030100Y47936405D01*
X84035121Y47971332D01*
X84038307Y47982185D01*
X84076077Y48040966D01*
X84139631Y48069995D01*
X84208771Y48060064D01*
X84210899Y48059092D01*
X84262510Y48015181D01*
X84357335Y47873266D01*
X84357338Y47873262D01*
X84357340Y47873260D01*
X84357342Y47873257D01*
X84482755Y47747844D01*
X84482761Y47747839D01*
X84482765Y47747836D01*
X84630246Y47649291D01*
X84630259Y47649284D01*
X84666379Y47634323D01*
X84751944Y47598881D01*
X84751982Y47598866D01*
X84753163Y47598377D01*
X84794134Y47581406D01*
X84794136Y47581406D01*
X84794141Y47581404D01*
X84960480Y47548318D01*
X84963203Y47547596D01*
X84968106Y47546800D01*
X85145493Y47546800D01*
X85149614Y47546800D01*
X85157467Y47549183D01*
X85203482Y47558336D01*
X85203483Y47558336D01*
X85319453Y47581403D01*
X85319453Y47581404D01*
X85319458Y47581404D01*
X85319461Y47581406D01*
X85319466Y47581406D01*
X85322129Y47582509D01*
X85330629Y47586024D01*
X85330676Y47586049D01*
X85483340Y47649284D01*
X85483340Y47649285D01*
X85483347Y47649287D01*
X85630835Y47747836D01*
X85756264Y47873265D01*
X85854813Y48020753D01*
X85906094Y48144564D01*
X85917552Y48165999D01*
X85930862Y48185920D01*
X85946277Y48204702D01*
X97514189Y59772611D01*
X97601794Y59903721D01*
X97610285Y59924219D01*
X97662135Y60049399D01*
X97662137Y60049403D01*
X97692900Y60204058D01*
X97692900Y60361742D01*
X97692900Y77523242D01*
X97680793Y77584111D01*
X97662137Y77677898D01*
X97644462Y77720567D01*
X97601794Y77823579D01*
X97599690Y77826728D01*
X97599690Y77826729D01*
X97514190Y77954689D01*
X97514187Y77954692D01*
X97465380Y78003498D01*
X97184136Y78284742D01*
X96544196Y78924684D01*
X96544191Y78924688D01*
X96544190Y78924689D01*
X96413091Y79012287D01*
X96413090Y79012288D01*
X96413085Y79012291D01*
X96413072Y79012298D01*
X96413065Y79012302D01*
X96267402Y79072636D01*
X96267371Y79072643D01*
X96112747Y79103400D01*
X96112745Y79103400D01*
X96112742Y79103400D01*
X95054343Y79103400D01*
X94896658Y79103400D01*
X94896655Y79103400D01*
X94896653Y79103400D01*
X94742027Y79072643D01*
X94741996Y79072636D01*
X94596333Y79012302D01*
X94596324Y79012297D01*
X94596307Y79012287D01*
X94465208Y78924689D01*
X94465207Y78924688D01*
X94465201Y78924683D01*
X92437053Y76896531D01*
X92234110Y76693588D01*
X91570311Y76029789D01*
X91514560Y75974038D01*
X91458809Y75918288D01*
X91458805Y75918284D01*
X91371213Y75787193D01*
X91371203Y75787176D01*
X91371198Y75787167D01*
X91310872Y75641525D01*
X91310864Y75641501D01*
X91310859Y75641485D01*
X91288026Y75526698D01*
X91276286Y75493419D01*
X91269853Y75481120D01*
X91221339Y75430839D01*
X91153347Y75414768D01*
X91151942Y75414844D01*
X91148115Y75415049D01*
X91085855Y75435769D01*
X91068599Y75447299D01*
X90994053Y75497110D01*
X90994040Y75497117D01*
X90994026Y75497123D01*
X90830176Y75564991D01*
X90830153Y75564999D01*
X90830146Y75565001D01*
X90656198Y75599600D01*
X90656194Y75599600D01*
X90656191Y75599600D01*
X90478809Y75599600D01*
X90478804Y75599600D01*
X90478799Y75599600D01*
X90386091Y75581159D01*
X90350849Y75579269D01*
X90329950Y75581139D01*
X90273029Y75600936D01*
X90267408Y75604620D01*
X90247699Y75620649D01*
X88777765Y77090583D01*
X88777763Y77090585D01*
X88680737Y77146603D01*
X88572518Y77175600D01*
X88572517Y77175600D01*
X82855622Y77175600D01*
X82820686Y77180623D01*
X82800552Y77186535D01*
X82748595Y77217050D01*
X82743803Y77221757D01*
X82727596Y77241325D01*
X82672264Y77324135D01*
X82672261Y77324139D01*
X82672256Y77324145D01*
X82546843Y77449558D01*
X82546837Y77449563D01*
X82546836Y77449564D01*
X82399359Y77548106D01*
X82399358Y77548107D01*
X82399353Y77548110D01*
X82399340Y77548117D01*
X82399326Y77548123D01*
X82235476Y77615991D01*
X82235453Y77615999D01*
X82235446Y77616001D01*
X82061498Y77650600D01*
X82061494Y77650600D01*
X82061491Y77650600D01*
X81884109Y77650600D01*
X81884106Y77650600D01*
X81884101Y77650600D01*
X81710152Y77616000D01*
X81710145Y77615999D01*
X81710122Y77615991D01*
X81546272Y77548123D01*
X81546254Y77548115D01*
X81546239Y77548106D01*
X81398762Y77449564D01*
X81398761Y77449563D01*
X81398755Y77449558D01*
X81273342Y77324145D01*
X81273337Y77324139D01*
X81273336Y77324138D01*
X81174794Y77176661D01*
X81174785Y77176646D01*
X81174777Y77176628D01*
X81106909Y77012778D01*
X81106901Y77012755D01*
X81106899Y77012748D01*
X81072300Y76838801D01*
X81072300Y76661401D01*
X81106899Y76487454D01*
X81106901Y76487447D01*
X81106909Y76487424D01*
X81174777Y76323574D01*
X81174785Y76323556D01*
X81174794Y76323541D01*
X81273336Y76176064D01*
X81273337Y76176063D01*
X81273342Y76176057D01*
X81398755Y76050644D01*
X81398761Y76050639D01*
X81398765Y76050636D01*
X81546246Y75952091D01*
X81546259Y75952084D01*
X81582379Y75937123D01*
X81667944Y75901681D01*
X81667982Y75901666D01*
X81669163Y75901177D01*
X81710134Y75884206D01*
X81710136Y75884206D01*
X81710141Y75884204D01*
X81876480Y75851118D01*
X81879203Y75850396D01*
X81884106Y75849600D01*
X82061493Y75849600D01*
X82065614Y75849600D01*
X82073469Y75851984D01*
X82162314Y75869655D01*
X82235458Y75884204D01*
X82235460Y75884206D01*
X82235462Y75884206D01*
X82235466Y75884206D01*
X82238654Y75885527D01*
X82246635Y75888827D01*
X82246676Y75888849D01*
X82399340Y75952084D01*
X82399340Y75952085D01*
X82399347Y75952087D01*
X82546835Y76050636D01*
X82672264Y76176065D01*
X82724789Y76254675D01*
X82748366Y76280921D01*
X82764471Y76294381D01*
X82818712Y76320627D01*
X82825293Y76321997D01*
X82850565Y76324600D01*
X88271060Y76324600D01*
X88305992Y76319579D01*
X88331236Y76312166D01*
X88383982Y76280870D01*
X89642376Y75022476D01*
X89663525Y74994227D01*
X89673582Y74975807D01*
X89688746Y74917487D01*
X89688806Y74910767D01*
X89686428Y74885469D01*
X89667000Y74787800D01*
X89667000Y74610401D01*
X89701599Y74436454D01*
X89701601Y74436447D01*
X89701609Y74436424D01*
X89769477Y74272574D01*
X89769485Y74272556D01*
X89769494Y74272541D01*
X89868036Y74125064D01*
X89868037Y74125063D01*
X89868042Y74125057D01*
X89993455Y73999644D01*
X89993461Y73999639D01*
X89993465Y73999636D01*
X90140946Y73901091D01*
X90140959Y73901084D01*
X90239582Y73860234D01*
X90304834Y73833206D01*
X90304836Y73833206D01*
X90304841Y73833204D01*
X90471180Y73800118D01*
X90473903Y73799396D01*
X90478806Y73798600D01*
X90656193Y73798600D01*
X90660314Y73798600D01*
X90668167Y73800983D01*
X90714182Y73810136D01*
X90714183Y73810136D01*
X90830153Y73833203D01*
X90830153Y73833204D01*
X90830158Y73833204D01*
X90830161Y73833206D01*
X90830166Y73833206D01*
X90833426Y73834557D01*
X90841332Y73837826D01*
X90841370Y73837848D01*
X90994047Y73901087D01*
X90994050Y73901090D01*
X90994052Y73901090D01*
X91028289Y73923968D01*
X91072385Y73953432D01*
X91104225Y73968665D01*
X91110299Y73970567D01*
X91117224Y73972734D01*
X91187083Y73973978D01*
X91246524Y73937256D01*
X91275196Y73881844D01*
X91277024Y73873790D01*
X91280100Y73846344D01*
X91280100Y72819770D01*
X91275076Y72784833D01*
X91267664Y72759592D01*
X91236369Y72706848D01*
X80649788Y62120267D01*
X80621538Y62099118D01*
X80611611Y62093697D01*
X80543338Y62078843D01*
X80477873Y62103257D01*
X80436000Y62159189D01*
X80433313Y62166395D01*
X80425500Y62209715D01*
X80425500Y62354561D01*
X80430522Y62389494D01*
X80430633Y62389872D01*
X80437934Y62414739D01*
X80469228Y62467481D01*
X80789580Y62787832D01*
X81140485Y63138737D01*
X81196503Y63235763D01*
X81225500Y63343982D01*
X81225500Y63456019D01*
X81225500Y64656018D01*
X81196503Y64764237D01*
X81140485Y64861263D01*
X81074426Y64927322D01*
X81053274Y64955578D01*
X81040667Y64978667D01*
X81025500Y65038092D01*
X81025500Y65056016D01*
X81025500Y65056018D01*
X80996503Y65164237D01*
X80940485Y65261263D01*
X80861263Y65340485D01*
X77274426Y68927322D01*
X77253274Y68955578D01*
X77240667Y68978667D01*
X77225500Y69038092D01*
X77225500Y76056016D01*
X77225500Y76056018D01*
X77196503Y76164237D01*
X77140485Y76261263D01*
X77061263Y76340485D01*
X76861263Y76540485D01*
X76764237Y76596503D01*
X76656018Y76625500D01*
X76656017Y76625500D01*
X76645440Y76625500D01*
X76610504Y76630523D01*
X76585262Y76637935D01*
X76532517Y76669231D01*
X74461265Y78740483D01*
X74461263Y78740485D01*
X74364237Y78796503D01*
X74256018Y78825500D01*
X74256017Y78825500D01*
X71845440Y78825500D01*
X71810504Y78830523D01*
X71785262Y78837935D01*
X71732517Y78869231D01*
X69715147Y80886601D01*
X69693999Y80914849D01*
X69683939Y80933272D01*
X69668777Y80991587D01*
X69668717Y80998320D01*
X69671093Y81023598D01*
X69690500Y81121156D01*
X69690500Y81232671D01*
X69695523Y81267607D01*
X69699927Y81282605D01*
X69737672Y81341356D01*
X69739041Y81342543D01*
X69793920Y81370023D01*
X69801479Y81371667D01*
X69827832Y81374500D01*
X69954560Y81374500D01*
X69989492Y81369479D01*
X70014736Y81362066D01*
X70067482Y81330770D01*
X70538737Y80859515D01*
X70635763Y80803497D01*
X70690909Y80788721D01*
X70723351Y80774829D01*
X70732130Y80769478D01*
X70747204Y80760290D01*
X70785767Y80723301D01*
X70788377Y80719395D01*
X70788378Y80719392D01*
X70788379Y80719392D01*
X70788380Y80719391D01*
X70808212Y80689709D01*
X70919707Y80578214D01*
X70919711Y80578211D01*
X71050814Y80490610D01*
X71050827Y80490603D01*
X71196498Y80430265D01*
X71196503Y80430263D01*
X71331054Y80403499D01*
X71343530Y80401018D01*
X71346251Y80400296D01*
X71351155Y80399500D01*
X71508844Y80399500D01*
X71512964Y80399500D01*
X71520814Y80401882D01*
X71663497Y80430263D01*
X71809179Y80490606D01*
X71940289Y80578211D01*
X72051789Y80689711D01*
X72139394Y80820821D01*
X72199737Y80966503D01*
X72229224Y81114743D01*
X104249500Y81114743D01*
X104249500Y80885253D01*
X104260265Y80803497D01*
X104268561Y80740487D01*
X104279452Y80657762D01*
X104311345Y80538735D01*
X104337953Y80439429D01*
X104338842Y80436114D01*
X104338845Y80436104D01*
X104426652Y80224119D01*
X104426655Y80224113D01*
X104426657Y80224110D01*
X104541392Y80025383D01*
X104541395Y80025379D01*
X104541399Y80025373D01*
X104681079Y79843341D01*
X104681081Y79843339D01*
X104681089Y79843330D01*
X104765086Y79759333D01*
X104843334Y79681085D01*
X104843338Y79681082D01*
X104843339Y79681081D01*
X104893962Y79642236D01*
X105002002Y79559333D01*
X105025583Y79541239D01*
X105027149Y79540372D01*
X105027338Y79540263D01*
X105224112Y79426656D01*
X105224117Y79426654D01*
X105224123Y79426651D01*
X105315480Y79388810D01*
X105315481Y79388809D01*
X105375796Y79363826D01*
X105436113Y79338842D01*
X105657762Y79279452D01*
X105885266Y79249500D01*
X105885273Y79249500D01*
X106114727Y79249500D01*
X106114734Y79249500D01*
X106342238Y79279452D01*
X106563887Y79338842D01*
X106775888Y79426656D01*
X106974612Y79541389D01*
X107156661Y79681081D01*
X107156665Y79681086D01*
X107156670Y79681089D01*
X107234914Y79759333D01*
X107314070Y79838488D01*
X107314840Y79839178D01*
X107318422Y79842833D01*
X107318895Y79843311D01*
X107318905Y79843325D01*
X107318911Y79843330D01*
X107318914Y79843335D01*
X107318919Y79843339D01*
X107319028Y79843482D01*
X107319322Y79843857D01*
X107319322Y79843858D01*
X107322716Y79848205D01*
X107323216Y79848939D01*
X107366110Y79904839D01*
X107458611Y80025388D01*
X107573344Y80224112D01*
X107661158Y80436113D01*
X107720548Y80657762D01*
X107750500Y80885266D01*
X107750500Y81114734D01*
X107720548Y81342238D01*
X107661158Y81563887D01*
X107623119Y81655722D01*
X107600516Y81710290D01*
X107573592Y81775289D01*
X107573360Y81775860D01*
X107546842Y81821790D01*
X107461426Y81969736D01*
X107459699Y81972728D01*
X107458768Y81974409D01*
X107318918Y82156662D01*
X107318913Y82156668D01*
X107318906Y82156675D01*
X107245058Y82230523D01*
X107156670Y82318911D01*
X107156661Y82318919D01*
X107156659Y82318921D01*
X106974627Y82458601D01*
X106974621Y82458605D01*
X106974617Y82458608D01*
X106775890Y82573343D01*
X106775887Y82573345D01*
X106775881Y82573348D01*
X106563896Y82661155D01*
X106563889Y82661157D01*
X106563887Y82661158D01*
X106342238Y82720548D01*
X106304215Y82725554D01*
X106114742Y82750500D01*
X106114741Y82750500D01*
X106114734Y82750500D01*
X105885266Y82750500D01*
X105885258Y82750500D01*
X105885250Y82750500D01*
X105721755Y82728975D01*
X105668715Y82721991D01*
X105668709Y82721991D01*
X105657764Y82720549D01*
X105657760Y82720548D01*
X105564076Y82695447D01*
X105564076Y82695446D01*
X105507651Y82680328D01*
X105436107Y82661157D01*
X105224117Y82573348D01*
X105025388Y82458612D01*
X105025371Y82458601D01*
X104843342Y82318923D01*
X104843332Y82318914D01*
X104681086Y82156668D01*
X104681077Y82156658D01*
X104541399Y81974629D01*
X104541388Y81974612D01*
X104426652Y81775883D01*
X104338844Y81563895D01*
X104338842Y81563889D01*
X104336547Y81555324D01*
X104332573Y81540487D01*
X104332572Y81540485D01*
X104332571Y81540483D01*
X104279453Y81342246D01*
X104279452Y81342238D01*
X104279221Y81340485D01*
X104264082Y81225500D01*
X104249500Y81114743D01*
X72229224Y81114743D01*
X72230500Y81121158D01*
X72230500Y81278842D01*
X72230500Y81278845D01*
X72230499Y81278847D01*
X72213946Y81362067D01*
X72207096Y81396503D01*
X72204620Y81408945D01*
X72199737Y81433497D01*
X72182785Y81474424D01*
X72173966Y81495715D01*
X72155421Y81540487D01*
X72139397Y81579173D01*
X72139390Y81579186D01*
X72051789Y81710289D01*
X72051788Y81710290D01*
X72051787Y81710292D01*
X72051786Y81710293D01*
X72051781Y81710299D01*
X71940297Y81821783D01*
X71940291Y81821788D01*
X71940290Y81821789D01*
X71809191Y81909387D01*
X71809186Y81909390D01*
X71809185Y81909391D01*
X71809172Y81909398D01*
X71809165Y81909402D01*
X71663502Y81969736D01*
X71663471Y81969743D01*
X71508847Y82000500D01*
X71508845Y82000500D01*
X71508842Y82000500D01*
X71351158Y82000500D01*
X71351155Y82000500D01*
X71351153Y82000500D01*
X71196527Y81969743D01*
X71196496Y81969736D01*
X71050833Y81909402D01*
X71050824Y81909397D01*
X71050812Y81909390D01*
X70935373Y81832256D01*
X70903540Y81817026D01*
X70888621Y81812354D01*
X70818762Y81811104D01*
X70818753Y81811107D01*
X70811668Y81813051D01*
X70756798Y81844950D01*
X70461265Y82140483D01*
X70461263Y82140485D01*
X70364237Y82196503D01*
X70256018Y82225500D01*
X70256017Y82225500D01*
X70045440Y82225500D01*
X70010504Y82230523D01*
X69985262Y82237935D01*
X69932517Y82269231D01*
X69661265Y82540483D01*
X69661263Y82540485D01*
X69596579Y82577831D01*
X69564239Y82596502D01*
X69564238Y82596503D01*
X69564237Y82596503D01*
X69456018Y82625500D01*
X69456017Y82625500D01*
X68343982Y82625500D01*
X68235770Y82596506D01*
X68235759Y82596502D01*
X68235758Y82596501D01*
X68138737Y82540486D01*
X68138728Y82540479D01*
X67226119Y81627869D01*
X67197866Y81606718D01*
X67185684Y81600066D01*
X67117411Y81585214D01*
X67051948Y81609630D01*
X67051673Y81609835D01*
X67043125Y81616235D01*
X67014340Y81646606D01*
X66971786Y81710292D01*
X66971785Y81710293D01*
X66971780Y81710299D01*
X66860296Y81821783D01*
X66860290Y81821788D01*
X66860289Y81821789D01*
X66729190Y81909387D01*
X66729185Y81909390D01*
X66729184Y81909391D01*
X66729171Y81909398D01*
X66729164Y81909402D01*
X66583501Y81969736D01*
X66583470Y81969743D01*
X66428846Y82000500D01*
X66428844Y82000500D01*
X66428841Y82000500D01*
X66271157Y82000500D01*
X66271154Y82000500D01*
X66271152Y82000500D01*
X66116526Y81969743D01*
X66116495Y81969736D01*
X65970832Y81909402D01*
X65970823Y81909397D01*
X65970806Y81909387D01*
X65839707Y81821789D01*
X65839706Y81821788D01*
X65839700Y81821783D01*
X65728215Y81710298D01*
X65728210Y81710291D01*
X65728210Y81710290D01*
X65718282Y81695432D01*
X65694695Y81669174D01*
X65678598Y81655722D01*
X65624376Y81629478D01*
X65617796Y81628107D01*
X65592503Y81625500D01*
X47543982Y81625500D01*
X47435770Y81596506D01*
X47435759Y81596502D01*
X47435758Y81596501D01*
X47338738Y81540487D01*
X47272675Y81474424D01*
X47244423Y81453275D01*
X47221338Y81440669D01*
X47161909Y81425500D01*
X47143982Y81425500D01*
X47035770Y81396506D01*
X47035759Y81396502D01*
X47035758Y81396501D01*
X46938738Y81340487D01*
X46872675Y81274424D01*
X46844423Y81253275D01*
X46821338Y81240669D01*
X46761909Y81225500D01*
X46743982Y81225500D01*
X46635770Y81196506D01*
X46635759Y81196502D01*
X46635758Y81196501D01*
X46538738Y81140487D01*
X46472675Y81074424D01*
X46444423Y81053275D01*
X46421338Y81040669D01*
X46361909Y81025500D01*
X46343982Y81025500D01*
X46235770Y80996506D01*
X46235759Y80996502D01*
X46235758Y80996501D01*
X46138738Y80940487D01*
X46072675Y80874424D01*
X46044423Y80853275D01*
X46021338Y80840669D01*
X45961909Y80825500D01*
X45743982Y80825500D01*
X45635770Y80796506D01*
X45635759Y80796502D01*
X45635758Y80796501D01*
X45538738Y80740487D01*
X45472675Y80674424D01*
X45444423Y80653275D01*
X45421338Y80640669D01*
X45361909Y80625500D01*
X45343982Y80625500D01*
X45235770Y80596506D01*
X45235759Y80596502D01*
X45235758Y80596501D01*
X45138738Y80540487D01*
X45072675Y80474424D01*
X45044423Y80453275D01*
X45021338Y80440669D01*
X44961909Y80425500D01*
X44943982Y80425500D01*
X44835770Y80396506D01*
X44835759Y80396502D01*
X44835758Y80396501D01*
X44738738Y80340487D01*
X44672675Y80274424D01*
X44644423Y80253275D01*
X44621338Y80240669D01*
X44561909Y80225500D01*
X44543982Y80225500D01*
X44435776Y80196507D01*
X44435759Y80196502D01*
X44435754Y80196500D01*
X44374657Y80161225D01*
X44370339Y80158845D01*
X44330475Y80137898D01*
X44330294Y80138134D01*
X44313470Y80128962D01*
X44312628Y80128519D01*
X44279240Y80121813D01*
X44246022Y80114609D01*
X44246016Y80114609D01*
X44237804Y80115202D01*
X44190197Y80128519D01*
X44170497Y80138612D01*
X44168082Y80138565D01*
X44153286Y80143627D01*
X44025176Y80196691D01*
X44025153Y80196699D01*
X44025146Y80196701D01*
X43851198Y80231300D01*
X43851194Y80231300D01*
X43851191Y80231300D01*
X43673809Y80231300D01*
X43673806Y80231300D01*
X43673801Y80231300D01*
X43499852Y80196700D01*
X43499845Y80196699D01*
X43499822Y80196691D01*
X43335972Y80128823D01*
X43335954Y80128815D01*
X43335939Y80128806D01*
X43188462Y80030264D01*
X43188461Y80030263D01*
X43188455Y80030258D01*
X43063042Y79904845D01*
X43063037Y79904839D01*
X43063036Y79904838D01*
X42964494Y79757361D01*
X42964485Y79757346D01*
X42964477Y79757328D01*
X42896609Y79593478D01*
X42896601Y79593455D01*
X42896599Y79593448D01*
X42862000Y79419501D01*
X42862000Y79419496D01*
X42862000Y79242105D01*
X42862000Y79242103D01*
X42861999Y79242103D01*
X42896600Y79068160D01*
X42896607Y79068129D01*
X42947887Y78944327D01*
X42954943Y78921070D01*
X42959617Y78897570D01*
X42962000Y78873381D01*
X42962000Y78127054D01*
X42962000Y78127052D01*
X42961999Y78127052D01*
X42992757Y77972429D01*
X42992764Y77972398D01*
X43053098Y77826735D01*
X43053102Y77826728D01*
X43053109Y77826715D01*
X43053112Y77826710D01*
X43053113Y77826709D01*
X43140711Y77695610D01*
X43140712Y77695609D01*
X43140717Y77695603D01*
X47240150Y73596172D01*
X47261303Y73567915D01*
X47267830Y73555961D01*
X47282680Y73487688D01*
X47258261Y73422224D01*
X47209502Y73383289D01*
X47201955Y73379924D01*
X47175649Y73371558D01*
X47166508Y73369739D01*
X47166505Y73369739D01*
X47166504Y73369738D01*
X47166475Y73369728D01*
X47020833Y73309402D01*
X47020824Y73309397D01*
X47020807Y73309387D01*
X46889708Y73221789D01*
X46889707Y73221788D01*
X46889701Y73221783D01*
X46778217Y73110299D01*
X46778212Y73110293D01*
X46778211Y73110292D01*
X46690613Y72979193D01*
X46690603Y72979176D01*
X46690598Y72979167D01*
X46630264Y72833504D01*
X46630257Y72833473D01*
X46599500Y72678850D01*
X46599500Y72678847D01*
X46599500Y72521154D01*
X46599500Y72521152D01*
X46599499Y72521152D01*
X46630257Y72366529D01*
X46630264Y72366498D01*
X46690598Y72220835D01*
X46690603Y72220826D01*
X46690613Y72220809D01*
X46778211Y72089710D01*
X46778212Y72089709D01*
X46778217Y72089703D01*
X46889698Y71978222D01*
X46889705Y71978216D01*
X46889707Y71978214D01*
X46889712Y71978210D01*
X46904566Y71968285D01*
X46930821Y71944702D01*
X46944276Y71928603D01*
X46970523Y71874375D01*
X46971894Y71867790D01*
X46974500Y71842508D01*
X46974500Y69445441D01*
X46969476Y69410504D01*
X46962064Y69385263D01*
X46930769Y69332519D01*
X41273752Y63675503D01*
X41245502Y63654354D01*
X41235575Y63648933D01*
X41167302Y63634079D01*
X41101837Y63658493D01*
X41059964Y63714425D01*
X41057791Y63720251D01*
X41050070Y63768446D01*
X41053446Y63854342D01*
X41053731Y63857128D01*
X41053743Y63859939D01*
X41053750Y63862108D01*
X41053752Y63862136D01*
X41053751Y63862141D01*
X41053752Y63862147D01*
X41053751Y63862154D01*
X41053752Y63862421D01*
X41053372Y63864546D01*
X41021380Y64066531D01*
X41021379Y64066534D01*
X41021378Y64066538D01*
X40950421Y64258872D01*
X40949833Y64260546D01*
X40864069Y64400500D01*
X40841636Y64437107D01*
X40841633Y64437110D01*
X40841631Y64437113D01*
X40841628Y64437116D01*
X40841329Y64437495D01*
X40840007Y64438870D01*
X40811615Y64469583D01*
X40701168Y64589062D01*
X40701164Y64589065D01*
X40701163Y64589066D01*
X40533769Y64710684D01*
X40533753Y64710694D01*
X40427648Y64759608D01*
X40399078Y64784543D01*
X40144623Y64845630D01*
X40144615Y64845631D01*
X38387447Y64914662D01*
X38352741Y64921050D01*
X38348942Y64922330D01*
X38337924Y64926040D01*
X38280675Y64966090D01*
X38280664Y64966103D01*
X38278726Y64968526D01*
X38253901Y65022007D01*
X38252839Y65027397D01*
X38250500Y65051368D01*
X38250500Y65206338D01*
X38255522Y65241271D01*
X38262934Y65266516D01*
X38294230Y65319260D01*
X38315456Y65340485D01*
X38352206Y65377235D01*
X38397585Y65480009D01*
X38400500Y65505135D01*
X38400499Y67394864D01*
X38400497Y67394883D01*
X38397586Y67419988D01*
X38397585Y67419990D01*
X38397585Y67419991D01*
X38352206Y67522765D01*
X38272765Y67602206D01*
X38264761Y67605740D01*
X38264759Y67605741D01*
X38169993Y67647585D01*
X38169994Y67647585D01*
X38144868Y67650500D01*
X38144865Y67650500D01*
X36255143Y67650500D01*
X36255127Y67650499D01*
X36255113Y67650498D01*
X36232622Y67647890D01*
X36232621Y67647890D01*
X36230012Y67647587D01*
X36230008Y67647585D01*
X36127235Y67602207D01*
X36059711Y67534684D01*
X36054081Y67530997D01*
X36026930Y67498853D01*
X35968635Y67460341D01*
X35961240Y67458068D01*
X35954423Y67455973D01*
X35917991Y67450500D01*
X33104323Y67450500D01*
X33069387Y67455523D01*
X33044145Y67462935D01*
X32991400Y67494231D01*
X29421381Y71064250D01*
X29421339Y71064293D01*
X29420306Y71065326D01*
X29420297Y71065336D01*
X29269657Y71215976D01*
X29269656Y71215977D01*
X29269655Y71215978D01*
X29183626Y71273460D01*
X29183625Y71273460D01*
X29097604Y71330938D01*
X29097595Y71330943D01*
X28969447Y71384023D01*
X28906420Y71410130D01*
X28906412Y71410132D01*
X28906404Y71410134D01*
X28906394Y71410136D01*
X28703471Y71450501D01*
X28697409Y71451097D01*
X28697447Y71451489D01*
X28669387Y71455523D01*
X28644145Y71462935D01*
X28591400Y71494231D01*
X24221381Y75864250D01*
X24221339Y75864293D01*
X24220306Y75865326D01*
X24220297Y75865336D01*
X24069657Y76015976D01*
X24069656Y76015977D01*
X24069655Y76015978D01*
X23983626Y76073460D01*
X23983625Y76073460D01*
X23897604Y76130938D01*
X23897595Y76130943D01*
X23769447Y76184023D01*
X23706420Y76210130D01*
X23706412Y76210132D01*
X23706404Y76210134D01*
X23706394Y76210136D01*
X23503471Y76250501D01*
X23497409Y76251097D01*
X23497447Y76251489D01*
X23469388Y76255523D01*
X23444146Y76262935D01*
X23391401Y76294231D01*
X19433418Y80252213D01*
X19433416Y80252216D01*
X19429277Y80256355D01*
X19417758Y80269636D01*
X19392492Y80303324D01*
X19368855Y80316777D01*
X19269655Y80415977D01*
X19097598Y80530941D01*
X19097595Y80530943D01*
X19097594Y80530943D01*
X19080120Y80538181D01*
X19080119Y80538181D01*
X18906420Y80610130D01*
X18906412Y80610132D01*
X18906404Y80610134D01*
X18906394Y80610136D01*
X18703471Y80650500D01*
X18703469Y80650500D01*
X18703465Y80650500D01*
X17104324Y80650500D01*
X17069388Y80655523D01*
X17044146Y80662935D01*
X16991401Y80694231D01*
X14269663Y83415970D01*
X14269656Y83415976D01*
X14097598Y83530942D01*
X14097599Y83530942D01*
X14097589Y83530947D01*
X13906421Y83610130D01*
X13906394Y83610136D01*
X13703471Y83650500D01*
X13703469Y83650500D01*
X13703465Y83650500D01*
X13496534Y83650500D01*
X13496529Y83650500D01*
X13462862Y83643805D01*
X13389987Y83629313D01*
X13389970Y83629305D01*
X13293594Y83610135D01*
X13293589Y83610134D01*
X13293569Y83610127D01*
X13102409Y83530947D01*
X13102399Y83530942D01*
X12930350Y83415982D01*
X12930348Y83415979D01*
X12930346Y83415977D01*
X12930345Y83415976D01*
X12889488Y83375121D01*
X12843329Y83328962D01*
X12843323Y83328960D01*
X12833364Y83321568D01*
X12821666Y83307299D01*
X12757184Y83242816D01*
X12757183Y83242817D01*
X12684022Y83169656D01*
X12569057Y82997596D01*
X12489870Y82806421D01*
X12489864Y82806396D01*
X12449500Y82603473D01*
X12449500Y82603470D01*
X12449500Y82396531D01*
X12449500Y82396529D01*
X12449499Y82396529D01*
X12482521Y82230523D01*
X12489868Y82193588D01*
X12489870Y82193580D01*
X12569058Y82002404D01*
X12674264Y81844950D01*
X12684027Y81830339D01*
X12830336Y81684030D01*
X12830340Y81684027D01*
X12830342Y81684025D01*
X12830345Y81684023D01*
X12830349Y81684020D01*
X12830348Y81684020D01*
X12830410Y81683969D01*
X12830446Y81683955D01*
X12955347Y81600500D01*
X12978559Y81584991D01*
X13002394Y81569064D01*
X13002399Y81569061D01*
X13002402Y81569059D01*
X13193540Y81489887D01*
X13203541Y81485211D01*
X13240451Y81465905D01*
X13270660Y81443709D01*
X13900573Y80813796D01*
X13921723Y80785544D01*
X13934331Y80762455D01*
X13949500Y80703026D01*
X13949500Y76896531D01*
X13949500Y76896529D01*
X13949499Y76896529D01*
X13989864Y76693606D01*
X13989868Y76693588D01*
X13989869Y76693581D01*
X14053281Y76540489D01*
X14053282Y76540489D01*
X14056855Y76531862D01*
X14069059Y76502402D01*
X14069060Y76502401D01*
X14069063Y76502395D01*
X14184021Y76330347D01*
X14184022Y76330346D01*
X14184023Y76330345D01*
X14283222Y76231146D01*
X14347781Y76166587D01*
X14347787Y76166582D01*
X18300573Y72213796D01*
X18321723Y72185544D01*
X18334331Y72162455D01*
X18349500Y72103026D01*
X18349500Y72096531D01*
X18349500Y72096529D01*
X18349499Y72096529D01*
X18378793Y71949267D01*
X18384305Y71921557D01*
X18389870Y71893580D01*
X18469059Y71702402D01*
X18584023Y71530345D01*
X18683222Y71431146D01*
X18747781Y71366587D01*
X18747787Y71366582D01*
X26700573Y63413796D01*
X26721723Y63385544D01*
X26734331Y63362455D01*
X26749500Y63303026D01*
X26749500Y58896531D01*
X26749500Y58896529D01*
X26749499Y58896529D01*
X26789864Y58693606D01*
X26789870Y58693579D01*
X26869055Y58502409D01*
X26869063Y58502395D01*
X26876862Y58490724D01*
X26882423Y58482401D01*
X26915099Y58433497D01*
X26918697Y58428113D01*
X26933928Y58396278D01*
X26943834Y58364643D01*
X26949500Y58327591D01*
X26949500Y58296531D01*
X26949500Y58296529D01*
X26949499Y58296529D01*
X26989864Y58093606D01*
X26989870Y58093579D01*
X27065367Y57911312D01*
X27069054Y57902412D01*
X27069061Y57902399D01*
X27123563Y57820828D01*
X27123564Y57820828D01*
X27161449Y57764128D01*
X27172905Y57742695D01*
X27182070Y57720571D01*
X27189128Y57697305D01*
X27189867Y57693589D01*
X27189869Y57693582D01*
X27244330Y57562101D01*
X27269058Y57502404D01*
X27276941Y57490606D01*
X27361449Y57364128D01*
X27372905Y57342695D01*
X27382070Y57320571D01*
X27389128Y57297305D01*
X27389867Y57293589D01*
X27389869Y57293582D01*
X27446145Y57157722D01*
X27462895Y57117282D01*
X27469059Y57102402D01*
X27584023Y56930345D01*
X27683222Y56831146D01*
X27747781Y56766587D01*
X27747787Y56766582D01*
X34500573Y50013796D01*
X34521723Y49985544D01*
X34534331Y49962455D01*
X34549500Y49903026D01*
X34549500Y49896531D01*
X34587315Y49706420D01*
X34589868Y49693588D01*
X34589870Y49693580D01*
X34669059Y49502402D01*
X34670664Y49500000D01*
X34672270Y49497596D01*
X34761449Y49364128D01*
X34772905Y49342695D01*
X34781740Y49321366D01*
X34782070Y49320571D01*
X34789128Y49297305D01*
X34789867Y49293589D01*
X34789869Y49293582D01*
X34850684Y49146764D01*
X34850684Y49146763D01*
X34869056Y49102407D01*
X34869058Y49102404D01*
X34869059Y49102402D01*
X34870664Y49100000D01*
X34872270Y49097596D01*
X34961449Y48964128D01*
X34972906Y48942693D01*
X34982071Y48920568D01*
X34989127Y48897309D01*
X34989868Y48893585D01*
X34990384Y48892076D01*
X34991552Y48889518D01*
X35038053Y48777257D01*
X35069059Y48702402D01*
X35070664Y48700000D01*
X35072270Y48697596D01*
X35161449Y48564128D01*
X35172905Y48542695D01*
X35182070Y48520571D01*
X35189128Y48497305D01*
X35189867Y48493589D01*
X35189869Y48493582D01*
X35254822Y48336774D01*
X35269059Y48302402D01*
X35301808Y48253389D01*
X35304572Y48249251D01*
X35304574Y48249249D01*
X35361449Y48164128D01*
X35372905Y48142695D01*
X35382070Y48120571D01*
X35389128Y48097305D01*
X35389867Y48093589D01*
X35389869Y48093582D01*
X35468933Y47902703D01*
X35469057Y47902405D01*
X35469062Y47902397D01*
X35488527Y47873266D01*
X35513513Y47835871D01*
X35518699Y47828110D01*
X35518699Y47828107D01*
X35533928Y47796278D01*
X35543834Y47764642D01*
X35549500Y47727591D01*
X35549500Y47696531D01*
X35549500Y47696529D01*
X35549499Y47696529D01*
X35589864Y47493606D01*
X35589868Y47493588D01*
X35589870Y47493580D01*
X35669059Y47302402D01*
X35670664Y47300000D01*
X35672270Y47297596D01*
X35761449Y47164128D01*
X35772905Y47142695D01*
X35782070Y47120571D01*
X35789128Y47097305D01*
X35789867Y47093589D01*
X35789869Y47093582D01*
X35856389Y46932988D01*
X35869058Y46902404D01*
X35872272Y46897594D01*
X35961449Y46764128D01*
X35972905Y46742695D01*
X35982070Y46720571D01*
X35989128Y46697305D01*
X35989867Y46693589D01*
X35989869Y46693582D01*
X36069057Y46502406D01*
X36161449Y46364128D01*
X36172905Y46342695D01*
X36182070Y46320571D01*
X36189128Y46297305D01*
X36189867Y46293589D01*
X36189869Y46293582D01*
X36269057Y46102405D01*
X36269058Y46102404D01*
X36318697Y46028113D01*
X36333927Y45996281D01*
X36339321Y45979056D01*
X36343833Y45964646D01*
X36349500Y45927591D01*
X36349500Y45896531D01*
X36349500Y45896529D01*
X36349499Y45896529D01*
X36389864Y45693606D01*
X36389868Y45693588D01*
X36389870Y45693580D01*
X36469059Y45502402D01*
X36584023Y45330345D01*
X36730345Y45184023D01*
X36784493Y45129875D01*
X36791458Y45122308D01*
X36798090Y45114473D01*
X36804393Y45106368D01*
X36804786Y45105817D01*
X36866433Y45047814D01*
X36867822Y45046487D01*
X36869179Y45045170D01*
X36870500Y45043868D01*
X36930345Y44984023D01*
X36935181Y44980792D01*
X36951267Y44967995D01*
X36955497Y44964015D01*
X36955499Y44964013D01*
X36979920Y44948750D01*
X37028297Y44918514D01*
X37028622Y44918310D01*
X37029907Y44917498D01*
X37102402Y44869058D01*
X37102404Y44869058D01*
X37102406Y44869056D01*
X37107773Y44866833D01*
X37121471Y44859778D01*
X37130394Y44854703D01*
X37230972Y44791842D01*
X37230974Y44791841D01*
X37424476Y44718509D01*
X37591148Y44690603D01*
X37624778Y44679877D01*
X37636566Y44674160D01*
X37688296Y44627194D01*
X37706423Y44559717D01*
X37688357Y44498083D01*
X37683651Y44490357D01*
X37665431Y44467182D01*
X32738737Y39540486D01*
X32659517Y39461267D01*
X32659514Y39461263D01*
X32603499Y39364242D01*
X32603498Y39364241D01*
X32603494Y39364230D01*
X32574500Y39256018D01*
X32574500Y39045443D01*
X32569477Y39010507D01*
X32562065Y38985265D01*
X32530774Y38932524D01*
X32521299Y38923048D01*
X32521294Y38923044D01*
X32459512Y38861263D01*
X32459508Y38861258D01*
X32442930Y38832541D01*
X32442928Y38832537D01*
X32403500Y38764249D01*
X32403498Y38764245D01*
X32403496Y38764238D01*
X32378474Y38670855D01*
X32378466Y38670827D01*
X32375910Y38661284D01*
X32375906Y38661268D01*
X32374499Y38656018D01*
X32374499Y38641461D01*
X32367588Y38600643D01*
X32366858Y38598552D01*
X32363221Y38589202D01*
X32361198Y38582316D01*
X32360176Y38579381D01*
X32350797Y38566273D01*
X32330769Y38532518D01*
X32259513Y38461262D01*
X32203499Y38364242D01*
X32203498Y38364241D01*
X32203494Y38364230D01*
X32174500Y38256018D01*
X32174500Y38245440D01*
X32169476Y38210501D01*
X32162064Y38185261D01*
X32130770Y38132519D01*
X32059513Y38061262D01*
X32003499Y37964242D01*
X32003498Y37964241D01*
X32003494Y37964230D01*
X31974500Y37856018D01*
X31974500Y37845440D01*
X31969476Y37810503D01*
X31962064Y37785262D01*
X31930769Y37732518D01*
X31859515Y37661265D01*
X31845268Y37636590D01*
X31815294Y37601725D01*
X31810689Y37598046D01*
X31806551Y37595338D01*
X31802667Y37591635D01*
X31798424Y37588244D01*
X31790928Y37585176D01*
X31768467Y37570553D01*
X31620833Y37509401D01*
X31620822Y37509396D01*
X31620807Y37509387D01*
X31489708Y37421789D01*
X31489707Y37421788D01*
X31489701Y37421783D01*
X31378216Y37310298D01*
X31378211Y37310291D01*
X31378208Y37310287D01*
X31368283Y37295432D01*
X31344696Y37269174D01*
X31328599Y37255722D01*
X31274377Y37229478D01*
X31267797Y37228107D01*
X31242504Y37225500D01*
X30036074Y37225500D01*
X30019865Y37226564D01*
X30014920Y37227216D01*
X30000087Y37229172D01*
X30000085Y37229172D01*
X30000084Y37229172D01*
X29982935Y37226918D01*
X29980248Y37226564D01*
X29980202Y37226558D01*
X29964039Y37225500D01*
X29943978Y37225500D01*
X29943956Y37225496D01*
X29924691Y37220336D01*
X29924692Y37220335D01*
X29916830Y37218229D01*
X29889006Y37214570D01*
X29862994Y37203804D01*
X29855153Y37201702D01*
X29835765Y37196506D01*
X29835758Y37196503D01*
X29822011Y37188565D01*
X29814845Y37184735D01*
X29807566Y37181146D01*
X29800158Y37177791D01*
X29785490Y37171720D01*
X29778407Y37166287D01*
X29778404Y37166287D01*
X29778401Y37166283D01*
X29769547Y37159494D01*
X29756102Y37150513D01*
X29738739Y37140487D01*
X29724628Y37126378D01*
X29715474Y37118095D01*
X29715463Y37118086D01*
X29712408Y37115666D01*
X24778204Y33331109D01*
X24713030Y33305928D01*
X24702738Y33305500D01*
X7124000Y33305500D01*
X7123991Y33305500D01*
X7123990Y33305499D01*
X7059064Y33298519D01*
X7059052Y33298517D01*
X7007546Y33287312D01*
X6969345Y33276356D01*
X6969341Y33276354D01*
X6872431Y33219677D01*
X6872428Y33219675D01*
X6819623Y33173919D01*
X6819612Y33173909D01*
X6777451Y33129193D01*
X6777445Y33129184D01*
X6726560Y33029110D01*
X6706877Y32962079D01*
X6706876Y32962072D01*
X6694500Y32876000D01*
X6694500Y27962617D01*
X6697307Y27921301D01*
X6697959Y27916520D01*
X6687523Y27847436D01*
X6641393Y27794959D01*
X6613418Y27781820D01*
X6500776Y27745219D01*
X6500774Y27745219D01*
X6500774Y27745218D01*
X6500764Y27745214D01*
X6318397Y27652292D01*
X6318385Y27652285D01*
X6152787Y27531973D01*
X6152784Y27531971D01*
X6008029Y27387216D01*
X6008027Y27387213D01*
X5887715Y27221615D01*
X5887708Y27221603D01*
X5794786Y27039236D01*
X5794780Y27039223D01*
X5731521Y26844532D01*
X5699500Y26642358D01*
X5699500Y26437649D01*
X5699551Y26437328D01*
X5699566Y26437231D01*
X5731520Y26235471D01*
X5731521Y26235470D01*
X5731522Y26235466D01*
X5794781Y26040777D01*
X5854028Y25924500D01*
X5880274Y25872989D01*
X5887715Y25858387D01*
X6008028Y25692787D01*
X6152786Y25548029D01*
X6307749Y25435444D01*
X6318390Y25427713D01*
X6417506Y25377211D01*
X6494329Y25338067D01*
X6495927Y25337131D01*
X6499615Y25335345D01*
X6501640Y25334339D01*
X6505406Y25333277D01*
X6535275Y25323573D01*
X6576515Y25310173D01*
X6576516Y25310172D01*
X6633766Y25291571D01*
X6695465Y25271523D01*
X6796557Y25255512D01*
X6897648Y25239500D01*
X6897649Y25239500D01*
X7095316Y25239500D01*
X7120781Y25236857D01*
X7148310Y25231079D01*
X7209873Y25198045D01*
X7210517Y25197405D01*
X9150573Y23257349D01*
X9171723Y23229097D01*
X9172506Y23227663D01*
X9181438Y23211305D01*
X9184331Y23206008D01*
X9199500Y23146579D01*
X9199500Y19191654D01*
X9199500Y19191652D01*
X9199499Y19191652D01*
X9230257Y19037029D01*
X9230264Y19036998D01*
X9290598Y18891335D01*
X9290603Y18891326D01*
X9290613Y18891309D01*
X9378211Y18760210D01*
X9378212Y18760209D01*
X9378217Y18760203D01*
X19062033Y9076389D01*
X19083182Y9048139D01*
X19088603Y9038212D01*
X19103457Y8969939D01*
X19079043Y8904474D01*
X19023111Y8862601D01*
X19023107Y8862599D01*
X19015919Y8859918D01*
X18972585Y8852100D01*
X14099170Y8852100D01*
X14064234Y8857123D01*
X14038992Y8864535D01*
X13986247Y8895831D01*
X3099426Y19782652D01*
X3078274Y19810908D01*
X3065667Y19833997D01*
X3050500Y19893422D01*
X3050500Y22504873D01*
X5699500Y22504873D01*
X5699500Y20415151D01*
X5699502Y20415115D01*
X5702414Y20390007D01*
X5702546Y20389562D01*
X5703609Y20387304D01*
X5747793Y20287236D01*
X5747794Y20287235D01*
X5827235Y20207794D01*
X5930009Y20162415D01*
X5955135Y20159500D01*
X8044864Y20159501D01*
X8044879Y20159503D01*
X8044882Y20159503D01*
X8044888Y20159504D01*
X8045019Y20159513D01*
X8045736Y20159603D01*
X8069987Y20162414D01*
X8069987Y20162415D01*
X8069990Y20162415D01*
X8069991Y20162415D01*
X8069991Y20162416D01*
X8070102Y20162428D01*
X8071862Y20163242D01*
X8172765Y20207794D01*
X8252206Y20287235D01*
X8297585Y20390009D01*
X8300500Y20415135D01*
X8300499Y22504864D01*
X8300497Y22504883D01*
X8297586Y22529988D01*
X8297585Y22529990D01*
X8297585Y22529991D01*
X8252206Y22632765D01*
X8172765Y22712206D01*
X8172763Y22712207D01*
X8172762Y22712208D01*
X8152937Y22720961D01*
X8141604Y22725965D01*
X8069992Y22757585D01*
X8069994Y22757585D01*
X8044868Y22760500D01*
X8044865Y22760500D01*
X5955143Y22760500D01*
X5955127Y22760499D01*
X5955113Y22760498D01*
X5937255Y22758427D01*
X5930012Y22757587D01*
X5930011Y22757587D01*
X5930005Y22757586D01*
X5929559Y22757453D01*
X5927303Y22756391D01*
X5827236Y22712208D01*
X5747793Y22632766D01*
X5702414Y22529995D01*
X5701844Y22527290D01*
X5701589Y22522876D01*
X5699500Y22504873D01*
X3050500Y22504873D01*
X3050500Y34389232D01*
X3055522Y34424165D01*
X3062934Y34449410D01*
X3094228Y34502152D01*
X6783372Y38191297D01*
X6811622Y38212445D01*
X6833397Y38224335D01*
X6892821Y38239500D01*
X7102351Y38239500D01*
X7102352Y38239500D01*
X7304534Y38271523D01*
X7499219Y38334780D01*
X7681610Y38427713D01*
X7774590Y38495268D01*
X7847213Y38548029D01*
X7847213Y38548031D01*
X7847272Y38548073D01*
X7848031Y38548847D01*
X7991966Y38692781D01*
X7991968Y38692785D01*
X7991971Y38692787D01*
X8026644Y38740511D01*
X8088387Y38825494D01*
X8088391Y38825500D01*
X8112287Y38858390D01*
X8205220Y39040781D01*
X8268477Y39235466D01*
X8300500Y39437648D01*
X8300500Y39642352D01*
X8268477Y39844534D01*
X8246780Y39911309D01*
X8205218Y40039224D01*
X8205216Y40039227D01*
X8205216Y40039229D01*
X8171503Y40105393D01*
X8169929Y40108483D01*
X8112287Y40221610D01*
X8110611Y40223917D01*
X8100865Y40237332D01*
X8100862Y40237335D01*
X7991971Y40387214D01*
X7847213Y40531972D01*
X7847212Y40531973D01*
X7847211Y40531974D01*
X7692209Y40644587D01*
X7692205Y40644590D01*
X7681613Y40652285D01*
X7681612Y40652286D01*
X7681610Y40652287D01*
X7653171Y40666778D01*
X7624654Y40681309D01*
X7624653Y40681309D01*
X7499223Y40745219D01*
X7304534Y40808478D01*
X7304532Y40808479D01*
X7304530Y40808479D01*
X7304529Y40808480D01*
X7129995Y40836122D01*
X7113409Y40838749D01*
X7102354Y40840500D01*
X7102352Y40840500D01*
X6897648Y40840500D01*
X6897647Y40840500D01*
X6873327Y40836649D01*
X6873326Y40836650D01*
X6695468Y40808479D01*
X6500777Y40745220D01*
X6500764Y40745214D01*
X6318397Y40652292D01*
X6318385Y40652285D01*
X6152787Y40531973D01*
X6152784Y40531971D01*
X6008029Y40387216D01*
X6008027Y40387213D01*
X5887715Y40221615D01*
X5887708Y40221603D01*
X5794786Y40039236D01*
X5794780Y40039223D01*
X5731521Y39844532D01*
X5699500Y39642358D01*
X5699500Y39444675D01*
X5696849Y39419174D01*
X5691067Y39391660D01*
X5658017Y39330101D01*
X5657399Y39329480D01*
X3128414Y36800492D01*
X2702422Y36374500D01*
X1739711Y35411789D01*
X1683960Y35356038D01*
X1628209Y35300288D01*
X1628205Y35300284D01*
X1540613Y35169193D01*
X1540603Y35169176D01*
X1540598Y35169167D01*
X1480264Y35023504D01*
X1480257Y35023473D01*
X1449500Y34868850D01*
X1449500Y34868847D01*
X1449500Y19421154D01*
X1449500Y19421152D01*
X1449499Y19421152D01*
X500000Y19421152D01*
X500000Y50121290D01*
X1649500Y50121290D01*
X1649500Y49878712D01*
X1681160Y49638219D01*
X1743947Y49403896D01*
X1836772Y49179797D01*
X1836773Y49179793D01*
X1836780Y49179780D01*
X1958060Y48969717D01*
X1958062Y48969714D01*
X1958281Y48969385D01*
X1959284Y48968121D01*
X2105726Y48777272D01*
X2105730Y48777267D01*
X2105733Y48777264D01*
X2105739Y48777257D01*
X2105747Y48777249D01*
X2277242Y48605753D01*
X2277256Y48605740D01*
X2277262Y48605735D01*
X2469711Y48458064D01*
X2604727Y48380112D01*
X2679780Y48336780D01*
X2679785Y48336778D01*
X2679788Y48336776D01*
X2679792Y48336775D01*
X2679797Y48336772D01*
X2762774Y48302402D01*
X2875269Y48255805D01*
X2881102Y48253389D01*
X2903900Y48243946D01*
X3138211Y48181162D01*
X3318586Y48157416D01*
X3378710Y48149500D01*
X3378711Y48149500D01*
X3378712Y48149500D01*
X3621282Y48149500D01*
X3621289Y48149500D01*
X3669454Y48155841D01*
X3861789Y48181162D01*
X4096100Y48243946D01*
X4320212Y48336776D01*
X4530289Y48458064D01*
X4722738Y48605735D01*
X4894265Y48777262D01*
X5041936Y48969711D01*
X5163224Y49179788D01*
X5256054Y49403900D01*
X5318838Y49638211D01*
X5350500Y49878712D01*
X5350500Y50121288D01*
X5318838Y50361789D01*
X5256054Y50596100D01*
X5163224Y50820212D01*
X5041936Y51030289D01*
X4894265Y51222738D01*
X4894260Y51222744D01*
X4894259Y51222745D01*
X4894247Y51222758D01*
X4722751Y51394253D01*
X4722743Y51394261D01*
X4722736Y51394267D01*
X4722733Y51394270D01*
X4722728Y51394274D01*
X4531879Y51540716D01*
X4530615Y51541719D01*
X4530286Y51541938D01*
X4530283Y51541940D01*
X4320220Y51663220D01*
X4320207Y51663227D01*
X4320203Y51663228D01*
X4096104Y51756053D01*
X3861781Y51818840D01*
X3621290Y51850500D01*
X3621289Y51850500D01*
X3621288Y51850500D01*
X3378712Y51850500D01*
X3378711Y51850500D01*
X3378710Y51850500D01*
X3138217Y51818840D01*
X2903894Y51756053D01*
X2679790Y51663226D01*
X2679782Y51663222D01*
X2469706Y51541933D01*
X2469697Y51541927D01*
X2277270Y51394274D01*
X2277255Y51394260D01*
X2277247Y51394253D01*
X2105747Y51222753D01*
X2105740Y51222745D01*
X2105726Y51222730D01*
X1958073Y51030303D01*
X1958067Y51030294D01*
X1836778Y50820218D01*
X1836774Y50820210D01*
X1743947Y50596106D01*
X1681160Y50361783D01*
X1649500Y50121290D01*
X500000Y50121290D01*
X500000Y69121285D01*
X1649500Y69121285D01*
X1649500Y68878712D01*
X1681161Y68638213D01*
X1707815Y68538741D01*
X1743947Y68403896D01*
X1836774Y68179792D01*
X1836780Y68179779D01*
X1858973Y68141339D01*
X1858974Y68141339D01*
X1958067Y67969706D01*
X1958276Y67969391D01*
X1959284Y67968121D01*
X2105726Y67777272D01*
X2105730Y67777267D01*
X2105733Y67777264D01*
X2105739Y67777257D01*
X2277256Y67605740D01*
X2277263Y67605734D01*
X2281861Y67602206D01*
X2442629Y67478845D01*
X2469715Y67458061D01*
X2679784Y67336778D01*
X2679785Y67336778D01*
X2679788Y67336776D01*
X2903900Y67243946D01*
X3138211Y67181162D01*
X3318586Y67157416D01*
X3378710Y67149500D01*
X3378711Y67149500D01*
X3378712Y67149500D01*
X3621283Y67149500D01*
X3621289Y67149500D01*
X3669388Y67155833D01*
X3861789Y67181162D01*
X4096100Y67243946D01*
X4320212Y67336776D01*
X4530289Y67458064D01*
X4722738Y67605735D01*
X4722742Y67605739D01*
X4722745Y67605741D01*
X4894260Y67777257D01*
X4894265Y67777262D01*
X5041936Y67969711D01*
X5163224Y68179788D01*
X5256054Y68403900D01*
X5318838Y68638211D01*
X5350500Y68878712D01*
X5350500Y69121288D01*
X5318838Y69361789D01*
X5256054Y69596100D01*
X5163224Y69820212D01*
X5041936Y70030289D01*
X4894265Y70222738D01*
X4894260Y70222744D01*
X4894259Y70222745D01*
X4894247Y70222758D01*
X4722751Y70394253D01*
X4722743Y70394261D01*
X4722736Y70394267D01*
X4722733Y70394270D01*
X4722728Y70394274D01*
X4531879Y70540716D01*
X4530615Y70541719D01*
X4530286Y70541938D01*
X4530283Y70541940D01*
X4320219Y70663221D01*
X4320202Y70663229D01*
X4232722Y70699464D01*
X4232721Y70699464D01*
X4096104Y70756053D01*
X3861781Y70818840D01*
X3621290Y70850500D01*
X3621289Y70850500D01*
X3621288Y70850500D01*
X3378712Y70850500D01*
X3378711Y70850500D01*
X3378710Y70850500D01*
X3138217Y70818840D01*
X2903894Y70756053D01*
X2679790Y70663226D01*
X2679782Y70663222D01*
X2469706Y70541933D01*
X2469697Y70541927D01*
X2277270Y70394274D01*
X2277255Y70394260D01*
X2277247Y70394253D01*
X2105747Y70222753D01*
X2105740Y70222745D01*
X2105726Y70222730D01*
X1958073Y70030303D01*
X1958067Y70030294D01*
X1836778Y69820218D01*
X1836774Y69820210D01*
X1743947Y69596106D01*
X1681160Y69361783D01*
X1651187Y69134116D01*
X1651188Y69134115D01*
X1651052Y69133083D01*
X1649501Y69121289D01*
X1649500Y69121285D01*
X500000Y69121285D01*
X500000Y81114743D01*
X2249500Y81114743D01*
X2249500Y80885253D01*
X2260265Y80803497D01*
X2268561Y80740487D01*
X2279452Y80657762D01*
X2311345Y80538735D01*
X2337953Y80439429D01*
X2338842Y80436114D01*
X2338845Y80436104D01*
X2426652Y80224119D01*
X2426655Y80224113D01*
X2426657Y80224110D01*
X2541392Y80025383D01*
X2541395Y80025379D01*
X2541399Y80025373D01*
X2681079Y79843341D01*
X2681081Y79843339D01*
X2681089Y79843330D01*
X2765086Y79759333D01*
X2843334Y79681085D01*
X2843338Y79681082D01*
X2843339Y79681081D01*
X2893962Y79642236D01*
X3002002Y79559333D01*
X3025583Y79541239D01*
X3027149Y79540372D01*
X3027338Y79540263D01*
X3224112Y79426656D01*
X3224117Y79426654D01*
X3224123Y79426651D01*
X3315480Y79388810D01*
X3315481Y79388809D01*
X3375796Y79363826D01*
X3436113Y79338842D01*
X3657762Y79279452D01*
X3885266Y79249500D01*
X3885273Y79249500D01*
X4114727Y79249500D01*
X4114734Y79249500D01*
X4342238Y79279452D01*
X4563887Y79338842D01*
X4775888Y79426656D01*
X4974612Y79541389D01*
X5156661Y79681081D01*
X5156665Y79681086D01*
X5156670Y79681089D01*
X5234914Y79759333D01*
X5314070Y79838488D01*
X5314840Y79839178D01*
X5318422Y79842833D01*
X5318895Y79843311D01*
X5318905Y79843325D01*
X5318911Y79843330D01*
X5318914Y79843335D01*
X5318919Y79843339D01*
X5319028Y79843482D01*
X5319322Y79843857D01*
X5319322Y79843858D01*
X5322716Y79848205D01*
X5323216Y79848939D01*
X5366110Y79904839D01*
X5458611Y80025388D01*
X5573344Y80224112D01*
X5661158Y80436113D01*
X5720548Y80657762D01*
X5750500Y80885266D01*
X5750500Y81114734D01*
X5720548Y81342238D01*
X5661158Y81563887D01*
X5623119Y81655722D01*
X5600516Y81710290D01*
X5573592Y81775289D01*
X5573360Y81775860D01*
X5546842Y81821790D01*
X5461426Y81969736D01*
X5459699Y81972728D01*
X5458768Y81974409D01*
X5318918Y82156662D01*
X5318913Y82156668D01*
X5318906Y82156675D01*
X5245058Y82230523D01*
X5156670Y82318911D01*
X5156661Y82318919D01*
X5156659Y82318921D01*
X4974627Y82458601D01*
X4974621Y82458605D01*
X4974617Y82458608D01*
X4775890Y82573343D01*
X4775887Y82573345D01*
X4775881Y82573348D01*
X4563896Y82661155D01*
X4563889Y82661157D01*
X4563887Y82661158D01*
X4342238Y82720548D01*
X4304215Y82725554D01*
X4114742Y82750500D01*
X4114741Y82750500D01*
X4114734Y82750500D01*
X3885266Y82750500D01*
X3885258Y82750500D01*
X3885250Y82750500D01*
X3721755Y82728975D01*
X3668715Y82721991D01*
X3668709Y82721991D01*
X3657764Y82720549D01*
X3657760Y82720548D01*
X3564076Y82695447D01*
X3564076Y82695446D01*
X3507651Y82680328D01*
X3436107Y82661157D01*
X3224117Y82573348D01*
X3025388Y82458612D01*
X3025371Y82458601D01*
X2843342Y82318923D01*
X2843332Y82318914D01*
X2681086Y82156668D01*
X2681077Y82156658D01*
X2541399Y81974629D01*
X2541388Y81974612D01*
X2426652Y81775883D01*
X2338844Y81563895D01*
X2338842Y81563889D01*
X2336547Y81555324D01*
X2332573Y81540487D01*
X2332572Y81540485D01*
X2332571Y81540483D01*
X2279453Y81342246D01*
X2279452Y81342238D01*
X2279221Y81340485D01*
X2264082Y81225500D01*
X2249500Y81114743D01*
X500000Y81114743D01*
X500000Y84358171D01*
X505023Y84393107D01*
X509427Y84408105D01*
X547172Y84466856D01*
X548541Y84468043D01*
X603420Y84495523D01*
X610979Y84497167D01*
X637332Y84500000D01*
X109358170Y84500000D01*
X109393106Y84494977D01*
G37*
%TD.AperFunction*%
%TD*%
%TA.AperFunction,Conductor*%
%TO.N,{slash}DC-DC Conversion{slash}-14.145V PRE*%
G36*
X29943039Y32980315D02*
G01*
X29988794Y32927511D01*
X30000000Y32876000D01*
X30000000Y27469162D01*
X29980315Y27402123D01*
X29963681Y27381481D01*
X29856238Y27274039D01*
X29856235Y27274035D01*
X29757690Y27126554D01*
X29757683Y27126541D01*
X29689806Y26962668D01*
X29689803Y26962659D01*
X29655200Y26788696D01*
X29655200Y26611305D01*
X29689803Y26437342D01*
X29689806Y26437333D01*
X29757683Y26273460D01*
X29757690Y26273447D01*
X29856235Y26125966D01*
X29856238Y26125962D01*
X29963681Y26018519D01*
X29997166Y25957196D01*
X30000000Y25930838D01*
X30000000Y10227800D01*
X29980315Y10160761D01*
X29927511Y10115006D01*
X29876000Y10103800D01*
X20350140Y10103800D01*
X20283101Y10123485D01*
X20262459Y10140119D01*
X10836819Y19565759D01*
X10803334Y19627082D01*
X10800500Y19653440D01*
X10800500Y23618843D01*
X10800499Y23618847D01*
X10769738Y23773497D01*
X10709394Y23919179D01*
X10709392Y23919182D01*
X10709390Y23919186D01*
X10621789Y24050289D01*
X10621786Y24050293D01*
X8336100Y26335978D01*
X8302615Y26397301D01*
X8300165Y26433408D01*
X8300498Y26437641D01*
X8300500Y26437648D01*
X8300500Y26642352D01*
X8268477Y26844534D01*
X8205220Y27039219D01*
X8205218Y27039222D01*
X8205218Y27039224D01*
X8160724Y27126547D01*
X8112287Y27221610D01*
X8104556Y27232251D01*
X7991971Y27387214D01*
X7847213Y27531972D01*
X7681613Y27652285D01*
X7681612Y27652286D01*
X7681610Y27652287D01*
X7624653Y27681309D01*
X7499223Y27745219D01*
X7304534Y27808478D01*
X7104602Y27840144D01*
X7041467Y27870073D01*
X7004536Y27929385D01*
X7000000Y27962617D01*
X7000000Y32876000D01*
X7019685Y32943039D01*
X7072489Y32988794D01*
X7124000Y33000000D01*
X29876000Y33000000D01*
X29943039Y32980315D01*
G37*
%TD.AperFunction*%
%TD*%
M02*
