%TF.GenerationSoftware,KiCad,Pcbnew,10.0.0*%
%TF.CreationDate,2026-09-21T23:19:18+09:00*%
%TF.ProjectId,board-b,626f6172-642d-4622-9e6b-696361645f70,rev?*%
%TF.SameCoordinates,Original*%
%TF.FileFunction,Legend,Top*%
%TF.FilePolarity,Positive*%
%FSLAX46Y46*%
G04 Gerber Fmt 4.6, Leading zero omitted, Abs format (unit mm)*
G04 Created by KiCad (PCBNEW 10.0.0) date 2026-09-21 23:19:18*
%MOMM*%
%LPD*%
G01*
G04 APERTURE LIST*
%ADD10C,0.100000*%
%ADD11C,0.150000*%
%ADD12C,0.120000*%
%ADD13C,0.080000*%
%ADD14C,0.250000*%
%ADD15C,0.060000*%
%ADD16C,0.300000*%
%ADD17C,0.000000*%
%ADD18C,0.500000*%
%ADD19C,0.200000*%
%ADD20C,0.400000*%
%ADD21R,1.650000X4.500000*%
%ADD22R,3.500000X1.200000*%
%ADD23R,1.730000X1.190000*%
%ADD24R,1.500000X2.500000*%
%ADD25R,1.200000X3.500000*%
%ADD26R,2.286000X1.066800*%
%ADD27R,8.890000X10.668000*%
%ADD28R,0.810000X0.860000*%
%ADD29C,2.000000*%
%ADD30R,2.000000X2.000000*%
%ADD31R,4.500000X1.650000*%
%ADD32R,1.410000X1.350000*%
%ADD33R,1.800000X1.800000*%
%ADD34C,1.600000*%
%ADD35R,0.860000X0.810000*%
%ADD36R,2.700000X1.635000*%
%ADD37C,3.000000*%
%ADD38R,1.900000X1.900000*%
%ADD39R,1.635000X2.700000*%
%ADD40R,1.130000X1.380000*%
%ADD41R,3.730000X5.000000*%
%ADD42R,2.350000X3.500000*%
%ADD43R,0.800000X0.532000*%
%ADD44R,1.700000X2.500000*%
%ADD45R,3.610000X1.260000*%
%ADD46R,0.800000X0.800000*%
%ADD47R,0.900000X0.800000*%
%ADD48C,1.800000*%
%ADD49R,3.080000X1.020000*%
%ADD50R,8.500000X11.000000*%
%ADD51R,2.780000X1.490000*%
%ADD52R,3.500000X1.410000*%
%ADD53C,3.200000*%
%ADD54R,1.350000X1.410000*%
G04 APERTURE END LIST*
D10*
X49000000Y16700000D02*
X51600000Y16700000D01*
X51600000Y900000D01*
X49000000Y900000D01*
X49000000Y16700000D01*
G36*
X49000000Y16700000D02*
G01*
X51600000Y16700000D01*
X51600000Y900000D01*
X49000000Y900000D01*
X49000000Y16700000D01*
G37*
X88900000Y16500000D02*
X91500000Y16500000D01*
X91500000Y700000D01*
X88900000Y700000D01*
X88900000Y16500000D01*
G36*
X88900000Y16500000D02*
G01*
X91500000Y16500000D01*
X91500000Y700000D01*
X88900000Y700000D01*
X88900000Y16500000D01*
G37*
D11*
X64733333Y8442467D02*
X65342857Y8442467D01*
X65038095Y8137705D02*
X65038095Y8747229D01*
X66142856Y8137705D02*
X65685713Y8137705D01*
X65914285Y8137705D02*
X65914285Y8937705D01*
X65914285Y8937705D02*
X65838094Y8823420D01*
X65838094Y8823420D02*
X65761904Y8747229D01*
X65761904Y8747229D02*
X65685713Y8709134D01*
X66447618Y8861515D02*
X66485714Y8899610D01*
X66485714Y8899610D02*
X66561904Y8937705D01*
X66561904Y8937705D02*
X66752380Y8937705D01*
X66752380Y8937705D02*
X66828571Y8899610D01*
X66828571Y8899610D02*
X66866666Y8861515D01*
X66866666Y8861515D02*
X66904761Y8785324D01*
X66904761Y8785324D02*
X66904761Y8709134D01*
X66904761Y8709134D02*
X66866666Y8594848D01*
X66866666Y8594848D02*
X66409523Y8137705D01*
X66409523Y8137705D02*
X66904761Y8137705D01*
X65114286Y5042467D02*
X65723810Y5042467D01*
X65419048Y4737705D02*
X65419048Y5347229D01*
X66485714Y5537705D02*
X66104762Y5537705D01*
X66104762Y5537705D02*
X66066666Y5156753D01*
X66066666Y5156753D02*
X66104762Y5194848D01*
X66104762Y5194848D02*
X66180952Y5232943D01*
X66180952Y5232943D02*
X66371428Y5232943D01*
X66371428Y5232943D02*
X66447619Y5194848D01*
X66447619Y5194848D02*
X66485714Y5156753D01*
X66485714Y5156753D02*
X66523809Y5080562D01*
X66523809Y5080562D02*
X66523809Y4890086D01*
X66523809Y4890086D02*
X66485714Y4813896D01*
X66485714Y4813896D02*
X66447619Y4775800D01*
X66447619Y4775800D02*
X66371428Y4737705D01*
X66371428Y4737705D02*
X66180952Y4737705D01*
X66180952Y4737705D02*
X66104762Y4775800D01*
X66104762Y4775800D02*
X66066666Y4813896D01*
X64733333Y1642467D02*
X65342857Y1642467D01*
X66142856Y1337705D02*
X65685713Y1337705D01*
X65914285Y1337705D02*
X65914285Y2137705D01*
X65914285Y2137705D02*
X65838094Y2023420D01*
X65838094Y2023420D02*
X65761904Y1947229D01*
X65761904Y1947229D02*
X65685713Y1909134D01*
X66447618Y2061515D02*
X66485714Y2099610D01*
X66485714Y2099610D02*
X66561904Y2137705D01*
X66561904Y2137705D02*
X66752380Y2137705D01*
X66752380Y2137705D02*
X66828571Y2099610D01*
X66828571Y2099610D02*
X66866666Y2061515D01*
X66866666Y2061515D02*
X66904761Y1985324D01*
X66904761Y1985324D02*
X66904761Y1909134D01*
X66904761Y1909134D02*
X66866666Y1794848D01*
X66866666Y1794848D02*
X66409523Y1337705D01*
X66409523Y1337705D02*
X66904761Y1337705D01*
X74799998Y83437705D02*
X75257141Y83437705D01*
X75028569Y82637705D02*
X75028569Y83437705D01*
X75523808Y82637705D02*
X75523808Y83437705D01*
X75523808Y83437705D02*
X75828570Y83437705D01*
X75828570Y83437705D02*
X75904760Y83399610D01*
X75904760Y83399610D02*
X75942855Y83361515D01*
X75942855Y83361515D02*
X75980951Y83285324D01*
X75980951Y83285324D02*
X75980951Y83171039D01*
X75980951Y83171039D02*
X75942855Y83094848D01*
X75942855Y83094848D02*
X75904760Y83056753D01*
X75904760Y83056753D02*
X75828570Y83018658D01*
X75828570Y83018658D02*
X75523808Y83018658D01*
X76247617Y83437705D02*
X76742855Y83437705D01*
X76742855Y83437705D02*
X76476189Y83132943D01*
X76476189Y83132943D02*
X76590474Y83132943D01*
X76590474Y83132943D02*
X76666665Y83094848D01*
X76666665Y83094848D02*
X76704760Y83056753D01*
X76704760Y83056753D02*
X76742855Y82980562D01*
X76742855Y82980562D02*
X76742855Y82790086D01*
X76742855Y82790086D02*
X76704760Y82713896D01*
X76704760Y82713896D02*
X76666665Y82675800D01*
X76666665Y82675800D02*
X76590474Y82637705D01*
X76590474Y82637705D02*
X76361903Y82637705D01*
X76361903Y82637705D02*
X76285712Y82675800D01*
X76285712Y82675800D02*
X76247617Y82713896D01*
X78114284Y82637705D02*
X77657141Y82637705D01*
X77885713Y82637705D02*
X77885713Y83437705D01*
X77885713Y83437705D02*
X77809522Y83323420D01*
X77809522Y83323420D02*
X77733332Y83247229D01*
X77733332Y83247229D02*
X77657141Y83209134D01*
X78380951Y83437705D02*
X78876189Y83437705D01*
X78876189Y83437705D02*
X78609523Y83132943D01*
X78609523Y83132943D02*
X78723808Y83132943D01*
X78723808Y83132943D02*
X78799999Y83094848D01*
X78799999Y83094848D02*
X78838094Y83056753D01*
X78838094Y83056753D02*
X78876189Y82980562D01*
X78876189Y82980562D02*
X78876189Y82790086D01*
X78876189Y82790086D02*
X78838094Y82713896D01*
X78838094Y82713896D02*
X78799999Y82675800D01*
X78799999Y82675800D02*
X78723808Y82637705D01*
X78723808Y82637705D02*
X78495237Y82637705D01*
X78495237Y82637705D02*
X78419046Y82675800D01*
X78419046Y82675800D02*
X78380951Y82713896D01*
X79219047Y82713896D02*
X79257142Y82675800D01*
X79257142Y82675800D02*
X79219047Y82637705D01*
X79219047Y82637705D02*
X79180951Y82675800D01*
X79180951Y82675800D02*
X79219047Y82713896D01*
X79219047Y82713896D02*
X79219047Y82637705D01*
X79942856Y83171039D02*
X79942856Y82637705D01*
X79752380Y83475800D02*
X79561903Y82904372D01*
X79561903Y82904372D02*
X80057142Y82904372D01*
X80704761Y83171039D02*
X80704761Y82637705D01*
X80514285Y83475800D02*
X80323808Y82904372D01*
X80323808Y82904372D02*
X80819047Y82904372D01*
X81009523Y83437705D02*
X81276190Y82637705D01*
X81276190Y82637705D02*
X81542856Y83437705D01*
X82990475Y83475800D02*
X82304761Y82447229D01*
X83752380Y83437705D02*
X84209523Y83437705D01*
X83980951Y82637705D02*
X83980951Y83437705D01*
X84476190Y82637705D02*
X84476190Y83437705D01*
X84476190Y83437705D02*
X84780952Y83437705D01*
X84780952Y83437705D02*
X84857142Y83399610D01*
X84857142Y83399610D02*
X84895237Y83361515D01*
X84895237Y83361515D02*
X84933333Y83285324D01*
X84933333Y83285324D02*
X84933333Y83171039D01*
X84933333Y83171039D02*
X84895237Y83094848D01*
X84895237Y83094848D02*
X84857142Y83056753D01*
X84857142Y83056753D02*
X84780952Y83018658D01*
X84780952Y83018658D02*
X84476190Y83018658D01*
X85619047Y83171039D02*
X85619047Y82637705D01*
X85428571Y83475800D02*
X85238094Y82904372D01*
X85238094Y82904372D02*
X85733333Y82904372D01*
X86990476Y83437705D02*
X86838095Y83437705D01*
X86838095Y83437705D02*
X86761904Y83399610D01*
X86761904Y83399610D02*
X86723809Y83361515D01*
X86723809Y83361515D02*
X86647619Y83247229D01*
X86647619Y83247229D02*
X86609523Y83094848D01*
X86609523Y83094848D02*
X86609523Y82790086D01*
X86609523Y82790086D02*
X86647619Y82713896D01*
X86647619Y82713896D02*
X86685714Y82675800D01*
X86685714Y82675800D02*
X86761904Y82637705D01*
X86761904Y82637705D02*
X86914285Y82637705D01*
X86914285Y82637705D02*
X86990476Y82675800D01*
X86990476Y82675800D02*
X87028571Y82713896D01*
X87028571Y82713896D02*
X87066666Y82790086D01*
X87066666Y82790086D02*
X87066666Y82980562D01*
X87066666Y82980562D02*
X87028571Y83056753D01*
X87028571Y83056753D02*
X86990476Y83094848D01*
X86990476Y83094848D02*
X86914285Y83132943D01*
X86914285Y83132943D02*
X86761904Y83132943D01*
X86761904Y83132943D02*
X86685714Y83094848D01*
X86685714Y83094848D02*
X86647619Y83056753D01*
X86647619Y83056753D02*
X86609523Y82980562D01*
X87409524Y82713896D02*
X87447619Y82675800D01*
X87447619Y82675800D02*
X87409524Y82637705D01*
X87409524Y82637705D02*
X87371428Y82675800D01*
X87371428Y82675800D02*
X87409524Y82713896D01*
X87409524Y82713896D02*
X87409524Y82637705D01*
X88171428Y83437705D02*
X87790476Y83437705D01*
X87790476Y83437705D02*
X87752380Y83056753D01*
X87752380Y83056753D02*
X87790476Y83094848D01*
X87790476Y83094848D02*
X87866666Y83132943D01*
X87866666Y83132943D02*
X88057142Y83132943D01*
X88057142Y83132943D02*
X88133333Y83094848D01*
X88133333Y83094848D02*
X88171428Y83056753D01*
X88171428Y83056753D02*
X88209523Y82980562D01*
X88209523Y82980562D02*
X88209523Y82790086D01*
X88209523Y82790086D02*
X88171428Y82713896D01*
X88171428Y82713896D02*
X88133333Y82675800D01*
X88133333Y82675800D02*
X88057142Y82637705D01*
X88057142Y82637705D02*
X87866666Y82637705D01*
X87866666Y82637705D02*
X87790476Y82675800D01*
X87790476Y82675800D02*
X87752380Y82713896D01*
X88971428Y82637705D02*
X88514285Y82637705D01*
X88742857Y82637705D02*
X88742857Y83437705D01*
X88742857Y83437705D02*
X88666666Y83323420D01*
X88666666Y83323420D02*
X88590476Y83247229D01*
X88590476Y83247229D02*
X88514285Y83209134D01*
X89352381Y82637705D02*
X89504762Y82637705D01*
X89504762Y82637705D02*
X89580952Y82675800D01*
X89580952Y82675800D02*
X89619048Y82713896D01*
X89619048Y82713896D02*
X89695238Y82828181D01*
X89695238Y82828181D02*
X89733333Y82980562D01*
X89733333Y82980562D02*
X89733333Y83285324D01*
X89733333Y83285324D02*
X89695238Y83361515D01*
X89695238Y83361515D02*
X89657143Y83399610D01*
X89657143Y83399610D02*
X89580952Y83437705D01*
X89580952Y83437705D02*
X89428571Y83437705D01*
X89428571Y83437705D02*
X89352381Y83399610D01*
X89352381Y83399610D02*
X89314286Y83361515D01*
X89314286Y83361515D02*
X89276190Y83285324D01*
X89276190Y83285324D02*
X89276190Y83094848D01*
X89276190Y83094848D02*
X89314286Y83018658D01*
X89314286Y83018658D02*
X89352381Y82980562D01*
X89352381Y82980562D02*
X89428571Y82942467D01*
X89428571Y82942467D02*
X89580952Y82942467D01*
X89580952Y82942467D02*
X89657143Y82980562D01*
X89657143Y82980562D02*
X89695238Y83018658D01*
X89695238Y83018658D02*
X89733333Y83094848D01*
X89961905Y83437705D02*
X90228572Y82637705D01*
X90228572Y82637705D02*
X90495238Y83437705D01*
X91942857Y83475800D02*
X91257143Y82447229D01*
X92704762Y83437705D02*
X93161905Y83437705D01*
X92933333Y82637705D02*
X92933333Y83437705D01*
X93428572Y82637705D02*
X93428572Y83437705D01*
X93428572Y83437705D02*
X93733334Y83437705D01*
X93733334Y83437705D02*
X93809524Y83399610D01*
X93809524Y83399610D02*
X93847619Y83361515D01*
X93847619Y83361515D02*
X93885715Y83285324D01*
X93885715Y83285324D02*
X93885715Y83171039D01*
X93885715Y83171039D02*
X93847619Y83094848D01*
X93847619Y83094848D02*
X93809524Y83056753D01*
X93809524Y83056753D02*
X93733334Y83018658D01*
X93733334Y83018658D02*
X93428572Y83018658D01*
X94609524Y83437705D02*
X94228572Y83437705D01*
X94228572Y83437705D02*
X94190476Y83056753D01*
X94190476Y83056753D02*
X94228572Y83094848D01*
X94228572Y83094848D02*
X94304762Y83132943D01*
X94304762Y83132943D02*
X94495238Y83132943D01*
X94495238Y83132943D02*
X94571429Y83094848D01*
X94571429Y83094848D02*
X94609524Y83056753D01*
X94609524Y83056753D02*
X94647619Y82980562D01*
X94647619Y82980562D02*
X94647619Y82790086D01*
X94647619Y82790086D02*
X94609524Y82713896D01*
X94609524Y82713896D02*
X94571429Y82675800D01*
X94571429Y82675800D02*
X94495238Y82637705D01*
X94495238Y82637705D02*
X94304762Y82637705D01*
X94304762Y82637705D02*
X94228572Y82675800D01*
X94228572Y82675800D02*
X94190476Y82713896D01*
X95600001Y82942467D02*
X96209525Y82942467D01*
X97009524Y82637705D02*
X96552381Y82637705D01*
X96780953Y82637705D02*
X96780953Y83437705D01*
X96780953Y83437705D02*
X96704762Y83323420D01*
X96704762Y83323420D02*
X96628572Y83247229D01*
X96628572Y83247229D02*
X96552381Y83209134D01*
X97695239Y83171039D02*
X97695239Y82637705D01*
X97504763Y83475800D02*
X97314286Y82904372D01*
X97314286Y82904372D02*
X97809525Y82904372D01*
X98114287Y82713896D02*
X98152382Y82675800D01*
X98152382Y82675800D02*
X98114287Y82637705D01*
X98114287Y82637705D02*
X98076191Y82675800D01*
X98076191Y82675800D02*
X98114287Y82713896D01*
X98114287Y82713896D02*
X98114287Y82637705D01*
X98914286Y82637705D02*
X98457143Y82637705D01*
X98685715Y82637705D02*
X98685715Y83437705D01*
X98685715Y83437705D02*
X98609524Y83323420D01*
X98609524Y83323420D02*
X98533334Y83247229D01*
X98533334Y83247229D02*
X98457143Y83209134D01*
X99600001Y83171039D02*
X99600001Y82637705D01*
X99409525Y83475800D02*
X99219048Y82904372D01*
X99219048Y82904372D02*
X99714287Y82904372D01*
X100400001Y83437705D02*
X100019049Y83437705D01*
X100019049Y83437705D02*
X99980953Y83056753D01*
X99980953Y83056753D02*
X100019049Y83094848D01*
X100019049Y83094848D02*
X100095239Y83132943D01*
X100095239Y83132943D02*
X100285715Y83132943D01*
X100285715Y83132943D02*
X100361906Y83094848D01*
X100361906Y83094848D02*
X100400001Y83056753D01*
X100400001Y83056753D02*
X100438096Y82980562D01*
X100438096Y82980562D02*
X100438096Y82790086D01*
X100438096Y82790086D02*
X100400001Y82713896D01*
X100400001Y82713896D02*
X100361906Y82675800D01*
X100361906Y82675800D02*
X100285715Y82637705D01*
X100285715Y82637705D02*
X100095239Y82637705D01*
X100095239Y82637705D02*
X100019049Y82675800D01*
X100019049Y82675800D02*
X99980953Y82713896D01*
X100666668Y83437705D02*
X100933335Y82637705D01*
X100933335Y82637705D02*
X101200001Y83437705D01*
X857533Y38130477D02*
X857533Y38740000D01*
X1162295Y39540000D02*
X1162295Y39082857D01*
X1162295Y39311429D02*
X362295Y39311429D01*
X362295Y39311429D02*
X476580Y39235238D01*
X476580Y39235238D02*
X552771Y39159048D01*
X552771Y39159048D02*
X590866Y39082857D01*
X438485Y39844762D02*
X400390Y39882858D01*
X400390Y39882858D02*
X362295Y39959048D01*
X362295Y39959048D02*
X362295Y40149524D01*
X362295Y40149524D02*
X400390Y40225715D01*
X400390Y40225715D02*
X438485Y40263810D01*
X438485Y40263810D02*
X514676Y40301905D01*
X514676Y40301905D02*
X590866Y40301905D01*
X590866Y40301905D02*
X705152Y40263810D01*
X705152Y40263810D02*
X1162295Y39806667D01*
X1162295Y39806667D02*
X1162295Y40301905D01*
X362295Y40530477D02*
X1162295Y40797144D01*
X1162295Y40797144D02*
X362295Y41063810D01*
X400390Y33850477D02*
X362295Y33774287D01*
X362295Y33774287D02*
X362295Y33660001D01*
X362295Y33660001D02*
X400390Y33545715D01*
X400390Y33545715D02*
X476580Y33469525D01*
X476580Y33469525D02*
X552771Y33431430D01*
X552771Y33431430D02*
X705152Y33393334D01*
X705152Y33393334D02*
X819438Y33393334D01*
X819438Y33393334D02*
X971819Y33431430D01*
X971819Y33431430D02*
X1048009Y33469525D01*
X1048009Y33469525D02*
X1124200Y33545715D01*
X1124200Y33545715D02*
X1162295Y33660001D01*
X1162295Y33660001D02*
X1162295Y33736192D01*
X1162295Y33736192D02*
X1124200Y33850477D01*
X1124200Y33850477D02*
X1086104Y33888573D01*
X1086104Y33888573D02*
X819438Y33888573D01*
X819438Y33888573D02*
X819438Y33736192D01*
X1162295Y34231430D02*
X362295Y34231430D01*
X362295Y34231430D02*
X1162295Y34688573D01*
X1162295Y34688573D02*
X362295Y34688573D01*
X1162295Y35069525D02*
X362295Y35069525D01*
X362295Y35069525D02*
X362295Y35260001D01*
X362295Y35260001D02*
X400390Y35374287D01*
X400390Y35374287D02*
X476580Y35450477D01*
X476580Y35450477D02*
X552771Y35488572D01*
X552771Y35488572D02*
X705152Y35526668D01*
X705152Y35526668D02*
X819438Y35526668D01*
X819438Y35526668D02*
X971819Y35488572D01*
X971819Y35488572D02*
X1048009Y35450477D01*
X1048009Y35450477D02*
X1124200Y35374287D01*
X1124200Y35374287D02*
X1162295Y35260001D01*
X1162295Y35260001D02*
X1162295Y35069525D01*
X857533Y25130477D02*
X857533Y25740000D01*
X1162295Y25435239D02*
X552771Y25435239D01*
X1162295Y26540000D02*
X1162295Y26082857D01*
X1162295Y26311429D02*
X362295Y26311429D01*
X362295Y26311429D02*
X476580Y26235238D01*
X476580Y26235238D02*
X552771Y26159048D01*
X552771Y26159048D02*
X590866Y26082857D01*
X438485Y26844762D02*
X400390Y26882858D01*
X400390Y26882858D02*
X362295Y26959048D01*
X362295Y26959048D02*
X362295Y27149524D01*
X362295Y27149524D02*
X400390Y27225715D01*
X400390Y27225715D02*
X438485Y27263810D01*
X438485Y27263810D02*
X514676Y27301905D01*
X514676Y27301905D02*
X590866Y27301905D01*
X590866Y27301905D02*
X705152Y27263810D01*
X705152Y27263810D02*
X1162295Y26806667D01*
X1162295Y26806667D02*
X1162295Y27301905D01*
X362295Y27530477D02*
X1162295Y27797144D01*
X1162295Y27797144D02*
X362295Y28063810D01*
X857533Y20431430D02*
X857533Y21040953D01*
X1162295Y20736192D02*
X552771Y20736192D01*
X362295Y21802858D02*
X362295Y21421906D01*
X362295Y21421906D02*
X743247Y21383810D01*
X743247Y21383810D02*
X705152Y21421906D01*
X705152Y21421906D02*
X667057Y21498096D01*
X667057Y21498096D02*
X667057Y21688572D01*
X667057Y21688572D02*
X705152Y21764763D01*
X705152Y21764763D02*
X743247Y21802858D01*
X743247Y21802858D02*
X819438Y21840953D01*
X819438Y21840953D02*
X1009914Y21840953D01*
X1009914Y21840953D02*
X1086104Y21802858D01*
X1086104Y21802858D02*
X1124200Y21764763D01*
X1124200Y21764763D02*
X1162295Y21688572D01*
X1162295Y21688572D02*
X1162295Y21498096D01*
X1162295Y21498096D02*
X1124200Y21421906D01*
X1124200Y21421906D02*
X1086104Y21383810D01*
X362295Y22069525D02*
X1162295Y22336192D01*
X1162295Y22336192D02*
X362295Y22602858D01*
X53557533Y10400001D02*
X53557533Y11009524D01*
X53862295Y11809524D02*
X53862295Y11352381D01*
X53862295Y11580953D02*
X53062295Y11580953D01*
X53062295Y11580953D02*
X53176580Y11504762D01*
X53176580Y11504762D02*
X53252771Y11428572D01*
X53252771Y11428572D02*
X53290866Y11352381D01*
X53138485Y12114286D02*
X53100390Y12152382D01*
X53100390Y12152382D02*
X53062295Y12228572D01*
X53062295Y12228572D02*
X53062295Y12419048D01*
X53062295Y12419048D02*
X53100390Y12495239D01*
X53100390Y12495239D02*
X53138485Y12533334D01*
X53138485Y12533334D02*
X53214676Y12571429D01*
X53214676Y12571429D02*
X53290866Y12571429D01*
X53290866Y12571429D02*
X53405152Y12533334D01*
X53405152Y12533334D02*
X53862295Y12076191D01*
X53862295Y12076191D02*
X53862295Y12571429D01*
X53062295Y12800001D02*
X53862295Y13066668D01*
X53862295Y13066668D02*
X53062295Y13333334D01*
X53024200Y14780953D02*
X54052771Y14095239D01*
X53862295Y16114287D02*
X53481342Y15847620D01*
X53862295Y15657144D02*
X53062295Y15657144D01*
X53062295Y15657144D02*
X53062295Y15961906D01*
X53062295Y15961906D02*
X53100390Y16038096D01*
X53100390Y16038096D02*
X53138485Y16076191D01*
X53138485Y16076191D02*
X53214676Y16114287D01*
X53214676Y16114287D02*
X53328961Y16114287D01*
X53328961Y16114287D02*
X53405152Y16076191D01*
X53405152Y16076191D02*
X53443247Y16038096D01*
X53443247Y16038096D02*
X53481342Y15961906D01*
X53481342Y15961906D02*
X53481342Y15657144D01*
X53443247Y16457144D02*
X53443247Y16723810D01*
X53862295Y16838096D02*
X53862295Y16457144D01*
X53862295Y16457144D02*
X53062295Y16457144D01*
X53062295Y16457144D02*
X53062295Y16838096D01*
X53862295Y17180954D02*
X53062295Y17180954D01*
X53062295Y17180954D02*
X53062295Y17371430D01*
X53062295Y17371430D02*
X53100390Y17485716D01*
X53100390Y17485716D02*
X53176580Y17561906D01*
X53176580Y17561906D02*
X53252771Y17600001D01*
X53252771Y17600001D02*
X53405152Y17638097D01*
X53405152Y17638097D02*
X53519438Y17638097D01*
X53519438Y17638097D02*
X53671819Y17600001D01*
X53671819Y17600001D02*
X53748009Y17561906D01*
X53748009Y17561906D02*
X53824200Y17485716D01*
X53824200Y17485716D02*
X53862295Y17371430D01*
X53862295Y17371430D02*
X53862295Y17180954D01*
X93057533Y11000001D02*
X93057533Y11609524D01*
X93362295Y12409524D02*
X93362295Y11952381D01*
X93362295Y12180953D02*
X92562295Y12180953D01*
X92562295Y12180953D02*
X92676580Y12104762D01*
X92676580Y12104762D02*
X92752771Y12028572D01*
X92752771Y12028572D02*
X92790866Y11952381D01*
X92638485Y12714286D02*
X92600390Y12752382D01*
X92600390Y12752382D02*
X92562295Y12828572D01*
X92562295Y12828572D02*
X92562295Y13019048D01*
X92562295Y13019048D02*
X92600390Y13095239D01*
X92600390Y13095239D02*
X92638485Y13133334D01*
X92638485Y13133334D02*
X92714676Y13171429D01*
X92714676Y13171429D02*
X92790866Y13171429D01*
X92790866Y13171429D02*
X92905152Y13133334D01*
X92905152Y13133334D02*
X93362295Y12676191D01*
X93362295Y12676191D02*
X93362295Y13171429D01*
X92562295Y13400001D02*
X93362295Y13666668D01*
X93362295Y13666668D02*
X92562295Y13933334D01*
X92524200Y15380953D02*
X93552771Y14695239D01*
X93362295Y16714287D02*
X92981342Y16447620D01*
X93362295Y16257144D02*
X92562295Y16257144D01*
X92562295Y16257144D02*
X92562295Y16561906D01*
X92562295Y16561906D02*
X92600390Y16638096D01*
X92600390Y16638096D02*
X92638485Y16676191D01*
X92638485Y16676191D02*
X92714676Y16714287D01*
X92714676Y16714287D02*
X92828961Y16714287D01*
X92828961Y16714287D02*
X92905152Y16676191D01*
X92905152Y16676191D02*
X92943247Y16638096D01*
X92943247Y16638096D02*
X92981342Y16561906D01*
X92981342Y16561906D02*
X92981342Y16257144D01*
X92943247Y17057144D02*
X92943247Y17323810D01*
X93362295Y17438096D02*
X93362295Y17057144D01*
X93362295Y17057144D02*
X92562295Y17057144D01*
X92562295Y17057144D02*
X92562295Y17438096D01*
X93362295Y17780954D02*
X92562295Y17780954D01*
X92562295Y17780954D02*
X92562295Y17971430D01*
X92562295Y17971430D02*
X92600390Y18085716D01*
X92600390Y18085716D02*
X92676580Y18161906D01*
X92676580Y18161906D02*
X92752771Y18200001D01*
X92752771Y18200001D02*
X92905152Y18238097D01*
X92905152Y18238097D02*
X93019438Y18238097D01*
X93019438Y18238097D02*
X93171819Y18200001D01*
X93171819Y18200001D02*
X93248009Y18161906D01*
X93248009Y18161906D02*
X93324200Y18085716D01*
X93324200Y18085716D02*
X93362295Y17971430D01*
X93362295Y17971430D02*
X93362295Y17780954D01*
X56072842Y25171429D02*
X56115700Y25128572D01*
X56115700Y25128572D02*
X56158557Y25000000D01*
X56158557Y25000000D02*
X56158557Y24914286D01*
X56158557Y24914286D02*
X56115700Y24785715D01*
X56115700Y24785715D02*
X56029985Y24700000D01*
X56029985Y24700000D02*
X55944271Y24657143D01*
X55944271Y24657143D02*
X55772842Y24614286D01*
X55772842Y24614286D02*
X55644271Y24614286D01*
X55644271Y24614286D02*
X55472842Y24657143D01*
X55472842Y24657143D02*
X55387128Y24700000D01*
X55387128Y24700000D02*
X55301414Y24785715D01*
X55301414Y24785715D02*
X55258557Y24914286D01*
X55258557Y24914286D02*
X55258557Y25000000D01*
X55258557Y25000000D02*
X55301414Y25128572D01*
X55301414Y25128572D02*
X55344271Y25171429D01*
X55344271Y25514286D02*
X55301414Y25557143D01*
X55301414Y25557143D02*
X55258557Y25642857D01*
X55258557Y25642857D02*
X55258557Y25857143D01*
X55258557Y25857143D02*
X55301414Y25942857D01*
X55301414Y25942857D02*
X55344271Y25985715D01*
X55344271Y25985715D02*
X55429985Y26028572D01*
X55429985Y26028572D02*
X55515700Y26028572D01*
X55515700Y26028572D02*
X55644271Y25985715D01*
X55644271Y25985715D02*
X56158557Y25471429D01*
X56158557Y25471429D02*
X56158557Y26028572D01*
X55558557Y26800000D02*
X56158557Y26800000D01*
X55215700Y26585715D02*
X55858557Y26371429D01*
X55858557Y26371429D02*
X55858557Y26928572D01*
X90121428Y20077158D02*
X90078571Y20034300D01*
X90078571Y20034300D02*
X89949999Y19991443D01*
X89949999Y19991443D02*
X89864285Y19991443D01*
X89864285Y19991443D02*
X89735714Y20034300D01*
X89735714Y20034300D02*
X89649999Y20120015D01*
X89649999Y20120015D02*
X89607142Y20205729D01*
X89607142Y20205729D02*
X89564285Y20377158D01*
X89564285Y20377158D02*
X89564285Y20505729D01*
X89564285Y20505729D02*
X89607142Y20677158D01*
X89607142Y20677158D02*
X89649999Y20762872D01*
X89649999Y20762872D02*
X89735714Y20848586D01*
X89735714Y20848586D02*
X89864285Y20891443D01*
X89864285Y20891443D02*
X89949999Y20891443D01*
X89949999Y20891443D02*
X90078571Y20848586D01*
X90078571Y20848586D02*
X90121428Y20805729D01*
X90892857Y20591443D02*
X90892857Y19991443D01*
X90678571Y20934300D02*
X90464285Y20291443D01*
X90464285Y20291443D02*
X91021428Y20291443D01*
X91321428Y20805729D02*
X91364285Y20848586D01*
X91364285Y20848586D02*
X91450000Y20891443D01*
X91450000Y20891443D02*
X91664285Y20891443D01*
X91664285Y20891443D02*
X91750000Y20848586D01*
X91750000Y20848586D02*
X91792857Y20805729D01*
X91792857Y20805729D02*
X91835714Y20720015D01*
X91835714Y20720015D02*
X91835714Y20634300D01*
X91835714Y20634300D02*
X91792857Y20505729D01*
X91792857Y20505729D02*
X91278571Y19991443D01*
X91278571Y19991443D02*
X91835714Y19991443D01*
X105008557Y30442858D02*
X104108557Y30442858D01*
X104108557Y30442858D02*
X104108557Y30785715D01*
X104108557Y30785715D02*
X104151414Y30871430D01*
X104151414Y30871430D02*
X104194271Y30914287D01*
X104194271Y30914287D02*
X104279985Y30957144D01*
X104279985Y30957144D02*
X104408557Y30957144D01*
X104408557Y30957144D02*
X104494271Y30914287D01*
X104494271Y30914287D02*
X104537128Y30871430D01*
X104537128Y30871430D02*
X104579985Y30785715D01*
X104579985Y30785715D02*
X104579985Y30442858D01*
X104108557Y31214287D02*
X104108557Y31728572D01*
X105008557Y31471430D02*
X104108557Y31471430D01*
X104922842Y32542858D02*
X104965700Y32500001D01*
X104965700Y32500001D02*
X105008557Y32371429D01*
X105008557Y32371429D02*
X105008557Y32285715D01*
X105008557Y32285715D02*
X104965700Y32157144D01*
X104965700Y32157144D02*
X104879985Y32071429D01*
X104879985Y32071429D02*
X104794271Y32028572D01*
X104794271Y32028572D02*
X104622842Y31985715D01*
X104622842Y31985715D02*
X104494271Y31985715D01*
X104494271Y31985715D02*
X104322842Y32028572D01*
X104322842Y32028572D02*
X104237128Y32071429D01*
X104237128Y32071429D02*
X104151414Y32157144D01*
X104151414Y32157144D02*
X104108557Y32285715D01*
X104108557Y32285715D02*
X104108557Y32371429D01*
X104108557Y32371429D02*
X104151414Y32500001D01*
X104151414Y32500001D02*
X104194271Y32542858D01*
X104108557Y32842858D02*
X104108557Y33400001D01*
X104108557Y33400001D02*
X104451414Y33100001D01*
X104451414Y33100001D02*
X104451414Y33228572D01*
X104451414Y33228572D02*
X104494271Y33314286D01*
X104494271Y33314286D02*
X104537128Y33357144D01*
X104537128Y33357144D02*
X104622842Y33400001D01*
X104622842Y33400001D02*
X104837128Y33400001D01*
X104837128Y33400001D02*
X104922842Y33357144D01*
X104922842Y33357144D02*
X104965700Y33314286D01*
X104965700Y33314286D02*
X105008557Y33228572D01*
X105008557Y33228572D02*
X105008557Y32971429D01*
X105008557Y32971429D02*
X104965700Y32885715D01*
X104965700Y32885715D02*
X104922842Y32842858D01*
X67880476Y80937705D02*
X68337619Y80937705D01*
X68109047Y80137705D02*
X68109047Y80937705D01*
X68604286Y80137705D02*
X68604286Y80937705D01*
X68604286Y80937705D02*
X68909048Y80937705D01*
X68909048Y80937705D02*
X68985238Y80899610D01*
X68985238Y80899610D02*
X69023333Y80861515D01*
X69023333Y80861515D02*
X69061429Y80785324D01*
X69061429Y80785324D02*
X69061429Y80671039D01*
X69061429Y80671039D02*
X69023333Y80594848D01*
X69023333Y80594848D02*
X68985238Y80556753D01*
X68985238Y80556753D02*
X68909048Y80518658D01*
X68909048Y80518658D02*
X68604286Y80518658D01*
X69747143Y80671039D02*
X69747143Y80137705D01*
X69556667Y80975800D02*
X69366190Y80404372D01*
X69366190Y80404372D02*
X69861429Y80404372D01*
X67822842Y47171429D02*
X67865700Y47128572D01*
X67865700Y47128572D02*
X67908557Y47000000D01*
X67908557Y47000000D02*
X67908557Y46914286D01*
X67908557Y46914286D02*
X67865700Y46785715D01*
X67865700Y46785715D02*
X67779985Y46700000D01*
X67779985Y46700000D02*
X67694271Y46657143D01*
X67694271Y46657143D02*
X67522842Y46614286D01*
X67522842Y46614286D02*
X67394271Y46614286D01*
X67394271Y46614286D02*
X67222842Y46657143D01*
X67222842Y46657143D02*
X67137128Y46700000D01*
X67137128Y46700000D02*
X67051414Y46785715D01*
X67051414Y46785715D02*
X67008557Y46914286D01*
X67008557Y46914286D02*
X67008557Y47000000D01*
X67008557Y47000000D02*
X67051414Y47128572D01*
X67051414Y47128572D02*
X67094271Y47171429D01*
X67094271Y47514286D02*
X67051414Y47557143D01*
X67051414Y47557143D02*
X67008557Y47642857D01*
X67008557Y47642857D02*
X67008557Y47857143D01*
X67008557Y47857143D02*
X67051414Y47942857D01*
X67051414Y47942857D02*
X67094271Y47985715D01*
X67094271Y47985715D02*
X67179985Y48028572D01*
X67179985Y48028572D02*
X67265700Y48028572D01*
X67265700Y48028572D02*
X67394271Y47985715D01*
X67394271Y47985715D02*
X67908557Y47471429D01*
X67908557Y47471429D02*
X67908557Y48028572D01*
X67094271Y48371429D02*
X67051414Y48414286D01*
X67051414Y48414286D02*
X67008557Y48500000D01*
X67008557Y48500000D02*
X67008557Y48714286D01*
X67008557Y48714286D02*
X67051414Y48800000D01*
X67051414Y48800000D02*
X67094271Y48842858D01*
X67094271Y48842858D02*
X67179985Y48885715D01*
X67179985Y48885715D02*
X67265700Y48885715D01*
X67265700Y48885715D02*
X67394271Y48842858D01*
X67394271Y48842858D02*
X67908557Y48328572D01*
X67908557Y48328572D02*
X67908557Y48885715D01*
X73314285Y76466443D02*
X73314285Y75737872D01*
X73314285Y75737872D02*
X73357142Y75652158D01*
X73357142Y75652158D02*
X73400000Y75609300D01*
X73400000Y75609300D02*
X73485714Y75566443D01*
X73485714Y75566443D02*
X73657142Y75566443D01*
X73657142Y75566443D02*
X73742857Y75609300D01*
X73742857Y75609300D02*
X73785714Y75652158D01*
X73785714Y75652158D02*
X73828571Y75737872D01*
X73828571Y75737872D02*
X73828571Y76466443D01*
X74642857Y76466443D02*
X74471428Y76466443D01*
X74471428Y76466443D02*
X74385714Y76423586D01*
X74385714Y76423586D02*
X74342857Y76380729D01*
X74342857Y76380729D02*
X74257142Y76252158D01*
X74257142Y76252158D02*
X74214285Y76080729D01*
X74214285Y76080729D02*
X74214285Y75737872D01*
X74214285Y75737872D02*
X74257142Y75652158D01*
X74257142Y75652158D02*
X74299999Y75609300D01*
X74299999Y75609300D02*
X74385714Y75566443D01*
X74385714Y75566443D02*
X74557142Y75566443D01*
X74557142Y75566443D02*
X74642857Y75609300D01*
X74642857Y75609300D02*
X74685714Y75652158D01*
X74685714Y75652158D02*
X74728571Y75737872D01*
X74728571Y75737872D02*
X74728571Y75952158D01*
X74728571Y75952158D02*
X74685714Y76037872D01*
X74685714Y76037872D02*
X74642857Y76080729D01*
X74642857Y76080729D02*
X74557142Y76123586D01*
X74557142Y76123586D02*
X74385714Y76123586D01*
X74385714Y76123586D02*
X74299999Y76080729D01*
X74299999Y76080729D02*
X74257142Y76037872D01*
X74257142Y76037872D02*
X74214285Y75952158D01*
X53262295Y82609525D02*
X52462295Y82609525D01*
X52462295Y82609525D02*
X52462295Y82914287D01*
X52462295Y82914287D02*
X52500390Y82990477D01*
X52500390Y82990477D02*
X52538485Y83028572D01*
X52538485Y83028572D02*
X52614676Y83066668D01*
X52614676Y83066668D02*
X52728961Y83066668D01*
X52728961Y83066668D02*
X52805152Y83028572D01*
X52805152Y83028572D02*
X52843247Y82990477D01*
X52843247Y82990477D02*
X52881342Y82914287D01*
X52881342Y82914287D02*
X52881342Y82609525D01*
X53262295Y83828572D02*
X53262295Y83371429D01*
X53262295Y83600001D02*
X52462295Y83600001D01*
X52462295Y83600001D02*
X52576580Y83523810D01*
X52576580Y83523810D02*
X52652771Y83447620D01*
X52652771Y83447620D02*
X52690866Y83371429D01*
D12*
X54435283Y82300000D02*
X54435283Y82680953D01*
X54663855Y82223810D02*
X53863855Y82490477D01*
X53863855Y82490477D02*
X54663855Y82757143D01*
X53863855Y82909524D02*
X53863855Y83366667D01*
X54663855Y83138095D02*
X53863855Y83138095D01*
X53863855Y83519048D02*
X53863855Y83976191D01*
X54663855Y83747619D02*
X53863855Y83747619D01*
X56671429Y80536145D02*
X56671429Y81336145D01*
X56671429Y81336145D02*
X56976191Y81336145D01*
X56976191Y81336145D02*
X57052381Y81298050D01*
X57052381Y81298050D02*
X57090476Y81259955D01*
X57090476Y81259955D02*
X57128572Y81183764D01*
X57128572Y81183764D02*
X57128572Y81069479D01*
X57128572Y81069479D02*
X57090476Y80993288D01*
X57090476Y80993288D02*
X57052381Y80955193D01*
X57052381Y80955193D02*
X56976191Y80917098D01*
X56976191Y80917098D02*
X56671429Y80917098D01*
X57471429Y80536145D02*
X57471429Y81336145D01*
X57471429Y81336145D02*
X57661905Y81336145D01*
X57661905Y81336145D02*
X57776191Y81298050D01*
X57776191Y81298050D02*
X57852381Y81221860D01*
X57852381Y81221860D02*
X57890476Y81145669D01*
X57890476Y81145669D02*
X57928572Y80993288D01*
X57928572Y80993288D02*
X57928572Y80879002D01*
X57928572Y80879002D02*
X57890476Y80726621D01*
X57890476Y80726621D02*
X57852381Y80650431D01*
X57852381Y80650431D02*
X57776191Y80574240D01*
X57776191Y80574240D02*
X57661905Y80536145D01*
X57661905Y80536145D02*
X57471429Y80536145D01*
X58423810Y81336145D02*
X58576191Y81336145D01*
X58576191Y81336145D02*
X58652381Y81298050D01*
X58652381Y81298050D02*
X58728572Y81221860D01*
X58728572Y81221860D02*
X58766667Y81069479D01*
X58766667Y81069479D02*
X58766667Y80802812D01*
X58766667Y80802812D02*
X58728572Y80650431D01*
X58728572Y80650431D02*
X58652381Y80574240D01*
X58652381Y80574240D02*
X58576191Y80536145D01*
X58576191Y80536145D02*
X58423810Y80536145D01*
X58423810Y80536145D02*
X58347619Y80574240D01*
X58347619Y80574240D02*
X58271429Y80650431D01*
X58271429Y80650431D02*
X58233333Y80802812D01*
X58233333Y80802812D02*
X58233333Y81069479D01*
X58233333Y81069479D02*
X58271429Y81221860D01*
X58271429Y81221860D02*
X58347619Y81298050D01*
X58347619Y81298050D02*
X58423810Y81336145D01*
X59109524Y80536145D02*
X59109524Y81336145D01*
X59566667Y80536145D02*
X59223809Y80993288D01*
X59566667Y81336145D02*
X59109524Y80879002D01*
X60660476Y81398050D02*
X60584286Y81436145D01*
X60584286Y81436145D02*
X60470000Y81436145D01*
X60470000Y81436145D02*
X60355714Y81398050D01*
X60355714Y81398050D02*
X60279524Y81321860D01*
X60279524Y81321860D02*
X60241429Y81245669D01*
X60241429Y81245669D02*
X60203333Y81093288D01*
X60203333Y81093288D02*
X60203333Y80979002D01*
X60203333Y80979002D02*
X60241429Y80826621D01*
X60241429Y80826621D02*
X60279524Y80750431D01*
X60279524Y80750431D02*
X60355714Y80674240D01*
X60355714Y80674240D02*
X60470000Y80636145D01*
X60470000Y80636145D02*
X60546191Y80636145D01*
X60546191Y80636145D02*
X60660476Y80674240D01*
X60660476Y80674240D02*
X60698572Y80712336D01*
X60698572Y80712336D02*
X60698572Y80979002D01*
X60698572Y80979002D02*
X60546191Y80979002D01*
X61041429Y80636145D02*
X61041429Y81436145D01*
X61041429Y81436145D02*
X61498572Y80636145D01*
X61498572Y80636145D02*
X61498572Y81436145D01*
X61879524Y80636145D02*
X61879524Y81436145D01*
X61879524Y81436145D02*
X62070000Y81436145D01*
X62070000Y81436145D02*
X62184286Y81398050D01*
X62184286Y81398050D02*
X62260476Y81321860D01*
X62260476Y81321860D02*
X62298571Y81245669D01*
X62298571Y81245669D02*
X62336667Y81093288D01*
X62336667Y81093288D02*
X62336667Y80979002D01*
X62336667Y80979002D02*
X62298571Y80826621D01*
X62298571Y80826621D02*
X62260476Y80750431D01*
X62260476Y80750431D02*
X62184286Y80674240D01*
X62184286Y80674240D02*
X62070000Y80636145D01*
X62070000Y80636145D02*
X61879524Y80636145D01*
X63181429Y80636145D02*
X63181429Y81436145D01*
X63181429Y81436145D02*
X63638572Y80636145D01*
X63638572Y80636145D02*
X63638572Y81436145D01*
X64476667Y80712336D02*
X64438571Y80674240D01*
X64438571Y80674240D02*
X64324286Y80636145D01*
X64324286Y80636145D02*
X64248095Y80636145D01*
X64248095Y80636145D02*
X64133809Y80674240D01*
X64133809Y80674240D02*
X64057619Y80750431D01*
X64057619Y80750431D02*
X64019524Y80826621D01*
X64019524Y80826621D02*
X63981428Y80979002D01*
X63981428Y80979002D02*
X63981428Y81093288D01*
X63981428Y81093288D02*
X64019524Y81245669D01*
X64019524Y81245669D02*
X64057619Y81321860D01*
X64057619Y81321860D02*
X64133809Y81398050D01*
X64133809Y81398050D02*
X64248095Y81436145D01*
X64248095Y81436145D02*
X64324286Y81436145D01*
X64324286Y81436145D02*
X64438571Y81398050D01*
X64438571Y81398050D02*
X64476667Y81359955D01*
D11*
X95421428Y59626443D02*
X95121428Y60055015D01*
X94907142Y59626443D02*
X94907142Y60526443D01*
X94907142Y60526443D02*
X95249999Y60526443D01*
X95249999Y60526443D02*
X95335714Y60483586D01*
X95335714Y60483586D02*
X95378571Y60440729D01*
X95378571Y60440729D02*
X95421428Y60355015D01*
X95421428Y60355015D02*
X95421428Y60226443D01*
X95421428Y60226443D02*
X95378571Y60140729D01*
X95378571Y60140729D02*
X95335714Y60097872D01*
X95335714Y60097872D02*
X95249999Y60055015D01*
X95249999Y60055015D02*
X94907142Y60055015D01*
X95764285Y60440729D02*
X95807142Y60483586D01*
X95807142Y60483586D02*
X95892857Y60526443D01*
X95892857Y60526443D02*
X96107142Y60526443D01*
X96107142Y60526443D02*
X96192857Y60483586D01*
X96192857Y60483586D02*
X96235714Y60440729D01*
X96235714Y60440729D02*
X96278571Y60355015D01*
X96278571Y60355015D02*
X96278571Y60269300D01*
X96278571Y60269300D02*
X96235714Y60140729D01*
X96235714Y60140729D02*
X95721428Y59626443D01*
X95721428Y59626443D02*
X96278571Y59626443D01*
X97092857Y60526443D02*
X96664285Y60526443D01*
X96664285Y60526443D02*
X96621428Y60097872D01*
X96621428Y60097872D02*
X96664285Y60140729D01*
X96664285Y60140729D02*
X96750000Y60183586D01*
X96750000Y60183586D02*
X96964285Y60183586D01*
X96964285Y60183586D02*
X97050000Y60140729D01*
X97050000Y60140729D02*
X97092857Y60097872D01*
X97092857Y60097872D02*
X97135714Y60012158D01*
X97135714Y60012158D02*
X97135714Y59797872D01*
X97135714Y59797872D02*
X97092857Y59712158D01*
X97092857Y59712158D02*
X97050000Y59669300D01*
X97050000Y59669300D02*
X96964285Y59626443D01*
X96964285Y59626443D02*
X96750000Y59626443D01*
X96750000Y59626443D02*
X96664285Y59669300D01*
X96664285Y59669300D02*
X96621428Y59712158D01*
X6733333Y44037705D02*
X6733333Y43466277D01*
X6733333Y43466277D02*
X6695238Y43351991D01*
X6695238Y43351991D02*
X6619047Y43275800D01*
X6619047Y43275800D02*
X6504762Y43237705D01*
X6504762Y43237705D02*
X6428571Y43237705D01*
X7457143Y44037705D02*
X7304762Y44037705D01*
X7304762Y44037705D02*
X7228571Y43999610D01*
X7228571Y43999610D02*
X7190476Y43961515D01*
X7190476Y43961515D02*
X7114286Y43847229D01*
X7114286Y43847229D02*
X7076190Y43694848D01*
X7076190Y43694848D02*
X7076190Y43390086D01*
X7076190Y43390086D02*
X7114286Y43313896D01*
X7114286Y43313896D02*
X7152381Y43275800D01*
X7152381Y43275800D02*
X7228571Y43237705D01*
X7228571Y43237705D02*
X7380952Y43237705D01*
X7380952Y43237705D02*
X7457143Y43275800D01*
X7457143Y43275800D02*
X7495238Y43313896D01*
X7495238Y43313896D02*
X7533333Y43390086D01*
X7533333Y43390086D02*
X7533333Y43580562D01*
X7533333Y43580562D02*
X7495238Y43656753D01*
X7495238Y43656753D02*
X7457143Y43694848D01*
X7457143Y43694848D02*
X7380952Y43732943D01*
X7380952Y43732943D02*
X7228571Y43732943D01*
X7228571Y43732943D02*
X7152381Y43694848D01*
X7152381Y43694848D02*
X7114286Y43656753D01*
X7114286Y43656753D02*
X7076190Y43580562D01*
X16722842Y41450001D02*
X16765700Y41407144D01*
X16765700Y41407144D02*
X16808557Y41278572D01*
X16808557Y41278572D02*
X16808557Y41192858D01*
X16808557Y41192858D02*
X16765700Y41064287D01*
X16765700Y41064287D02*
X16679985Y40978572D01*
X16679985Y40978572D02*
X16594271Y40935715D01*
X16594271Y40935715D02*
X16422842Y40892858D01*
X16422842Y40892858D02*
X16294271Y40892858D01*
X16294271Y40892858D02*
X16122842Y40935715D01*
X16122842Y40935715D02*
X16037128Y40978572D01*
X16037128Y40978572D02*
X15951414Y41064287D01*
X15951414Y41064287D02*
X15908557Y41192858D01*
X15908557Y41192858D02*
X15908557Y41278572D01*
X15908557Y41278572D02*
X15951414Y41407144D01*
X15951414Y41407144D02*
X15994271Y41450001D01*
X15908557Y41750001D02*
X15908557Y42350001D01*
X15908557Y42350001D02*
X16808557Y41964287D01*
X42658557Y75100001D02*
X42229985Y74800001D01*
X42658557Y74585715D02*
X41758557Y74585715D01*
X41758557Y74585715D02*
X41758557Y74928572D01*
X41758557Y74928572D02*
X41801414Y75014287D01*
X41801414Y75014287D02*
X41844271Y75057144D01*
X41844271Y75057144D02*
X41929985Y75100001D01*
X41929985Y75100001D02*
X42058557Y75100001D01*
X42058557Y75100001D02*
X42144271Y75057144D01*
X42144271Y75057144D02*
X42187128Y75014287D01*
X42187128Y75014287D02*
X42229985Y74928572D01*
X42229985Y74928572D02*
X42229985Y74585715D01*
X41844271Y75442858D02*
X41801414Y75485715D01*
X41801414Y75485715D02*
X41758557Y75571429D01*
X41758557Y75571429D02*
X41758557Y75785715D01*
X41758557Y75785715D02*
X41801414Y75871429D01*
X41801414Y75871429D02*
X41844271Y75914287D01*
X41844271Y75914287D02*
X41929985Y75957144D01*
X41929985Y75957144D02*
X42015700Y75957144D01*
X42015700Y75957144D02*
X42144271Y75914287D01*
X42144271Y75914287D02*
X42658557Y75400001D01*
X42658557Y75400001D02*
X42658557Y75957144D01*
X85421428Y73432158D02*
X85378571Y73389300D01*
X85378571Y73389300D02*
X85249999Y73346443D01*
X85249999Y73346443D02*
X85164285Y73346443D01*
X85164285Y73346443D02*
X85035714Y73389300D01*
X85035714Y73389300D02*
X84949999Y73475015D01*
X84949999Y73475015D02*
X84907142Y73560729D01*
X84907142Y73560729D02*
X84864285Y73732158D01*
X84864285Y73732158D02*
X84864285Y73860729D01*
X84864285Y73860729D02*
X84907142Y74032158D01*
X84907142Y74032158D02*
X84949999Y74117872D01*
X84949999Y74117872D02*
X85035714Y74203586D01*
X85035714Y74203586D02*
X85164285Y74246443D01*
X85164285Y74246443D02*
X85249999Y74246443D01*
X85249999Y74246443D02*
X85378571Y74203586D01*
X85378571Y74203586D02*
X85421428Y74160729D01*
X86192857Y73946443D02*
X86192857Y73346443D01*
X85978571Y74289300D02*
X85764285Y73646443D01*
X85764285Y73646443D02*
X86321428Y73646443D01*
X86835714Y74246443D02*
X86921428Y74246443D01*
X86921428Y74246443D02*
X87007142Y74203586D01*
X87007142Y74203586D02*
X87050000Y74160729D01*
X87050000Y74160729D02*
X87092857Y74075015D01*
X87092857Y74075015D02*
X87135714Y73903586D01*
X87135714Y73903586D02*
X87135714Y73689300D01*
X87135714Y73689300D02*
X87092857Y73517872D01*
X87092857Y73517872D02*
X87050000Y73432158D01*
X87050000Y73432158D02*
X87007142Y73389300D01*
X87007142Y73389300D02*
X86921428Y73346443D01*
X86921428Y73346443D02*
X86835714Y73346443D01*
X86835714Y73346443D02*
X86750000Y73389300D01*
X86750000Y73389300D02*
X86707142Y73432158D01*
X86707142Y73432158D02*
X86664285Y73517872D01*
X86664285Y73517872D02*
X86621428Y73689300D01*
X86621428Y73689300D02*
X86621428Y73903586D01*
X86621428Y73903586D02*
X86664285Y74075015D01*
X86664285Y74075015D02*
X86707142Y74160729D01*
X86707142Y74160729D02*
X86750000Y74203586D01*
X86750000Y74203586D02*
X86835714Y74246443D01*
X25321428Y65177158D02*
X25278571Y65134300D01*
X25278571Y65134300D02*
X25149999Y65091443D01*
X25149999Y65091443D02*
X25064285Y65091443D01*
X25064285Y65091443D02*
X24935714Y65134300D01*
X24935714Y65134300D02*
X24849999Y65220015D01*
X24849999Y65220015D02*
X24807142Y65305729D01*
X24807142Y65305729D02*
X24764285Y65477158D01*
X24764285Y65477158D02*
X24764285Y65605729D01*
X24764285Y65605729D02*
X24807142Y65777158D01*
X24807142Y65777158D02*
X24849999Y65862872D01*
X24849999Y65862872D02*
X24935714Y65948586D01*
X24935714Y65948586D02*
X25064285Y65991443D01*
X25064285Y65991443D02*
X25149999Y65991443D01*
X25149999Y65991443D02*
X25278571Y65948586D01*
X25278571Y65948586D02*
X25321428Y65905729D01*
X25621428Y65991443D02*
X26178571Y65991443D01*
X26178571Y65991443D02*
X25878571Y65648586D01*
X25878571Y65648586D02*
X26007142Y65648586D01*
X26007142Y65648586D02*
X26092857Y65605729D01*
X26092857Y65605729D02*
X26135714Y65562872D01*
X26135714Y65562872D02*
X26178571Y65477158D01*
X26178571Y65477158D02*
X26178571Y65262872D01*
X26178571Y65262872D02*
X26135714Y65177158D01*
X26135714Y65177158D02*
X26092857Y65134300D01*
X26092857Y65134300D02*
X26007142Y65091443D01*
X26007142Y65091443D02*
X25749999Y65091443D01*
X25749999Y65091443D02*
X25664285Y65134300D01*
X25664285Y65134300D02*
X25621428Y65177158D01*
X26521428Y65905729D02*
X26564285Y65948586D01*
X26564285Y65948586D02*
X26650000Y65991443D01*
X26650000Y65991443D02*
X26864285Y65991443D01*
X26864285Y65991443D02*
X26950000Y65948586D01*
X26950000Y65948586D02*
X26992857Y65905729D01*
X26992857Y65905729D02*
X27035714Y65820015D01*
X27035714Y65820015D02*
X27035714Y65734300D01*
X27035714Y65734300D02*
X26992857Y65605729D01*
X26992857Y65605729D02*
X26478571Y65091443D01*
X26478571Y65091443D02*
X27035714Y65091443D01*
X34133333Y67637705D02*
X34133333Y67066277D01*
X34133333Y67066277D02*
X34095238Y66951991D01*
X34095238Y66951991D02*
X34019047Y66875800D01*
X34019047Y66875800D02*
X33904762Y66837705D01*
X33904762Y66837705D02*
X33828571Y66837705D01*
X34895238Y67637705D02*
X34514286Y67637705D01*
X34514286Y67637705D02*
X34476190Y67256753D01*
X34476190Y67256753D02*
X34514286Y67294848D01*
X34514286Y67294848D02*
X34590476Y67332943D01*
X34590476Y67332943D02*
X34780952Y67332943D01*
X34780952Y67332943D02*
X34857143Y67294848D01*
X34857143Y67294848D02*
X34895238Y67256753D01*
X34895238Y67256753D02*
X34933333Y67180562D01*
X34933333Y67180562D02*
X34933333Y66990086D01*
X34933333Y66990086D02*
X34895238Y66913896D01*
X34895238Y66913896D02*
X34857143Y66875800D01*
X34857143Y66875800D02*
X34780952Y66837705D01*
X34780952Y66837705D02*
X34590476Y66837705D01*
X34590476Y66837705D02*
X34514286Y66875800D01*
X34514286Y66875800D02*
X34476190Y66913896D01*
X81208557Y35521429D02*
X80779985Y35221429D01*
X81208557Y35007143D02*
X80308557Y35007143D01*
X80308557Y35007143D02*
X80308557Y35350000D01*
X80308557Y35350000D02*
X80351414Y35435715D01*
X80351414Y35435715D02*
X80394271Y35478572D01*
X80394271Y35478572D02*
X80479985Y35521429D01*
X80479985Y35521429D02*
X80608557Y35521429D01*
X80608557Y35521429D02*
X80694271Y35478572D01*
X80694271Y35478572D02*
X80737128Y35435715D01*
X80737128Y35435715D02*
X80779985Y35350000D01*
X80779985Y35350000D02*
X80779985Y35007143D01*
X80394271Y35864286D02*
X80351414Y35907143D01*
X80351414Y35907143D02*
X80308557Y35992857D01*
X80308557Y35992857D02*
X80308557Y36207143D01*
X80308557Y36207143D02*
X80351414Y36292857D01*
X80351414Y36292857D02*
X80394271Y36335715D01*
X80394271Y36335715D02*
X80479985Y36378572D01*
X80479985Y36378572D02*
X80565700Y36378572D01*
X80565700Y36378572D02*
X80694271Y36335715D01*
X80694271Y36335715D02*
X81208557Y35821429D01*
X81208557Y35821429D02*
X81208557Y36378572D01*
X80308557Y36678572D02*
X80308557Y37278572D01*
X80308557Y37278572D02*
X81208557Y36892858D01*
X85421428Y44952158D02*
X85378571Y44909300D01*
X85378571Y44909300D02*
X85249999Y44866443D01*
X85249999Y44866443D02*
X85164285Y44866443D01*
X85164285Y44866443D02*
X85035714Y44909300D01*
X85035714Y44909300D02*
X84949999Y44995015D01*
X84949999Y44995015D02*
X84907142Y45080729D01*
X84907142Y45080729D02*
X84864285Y45252158D01*
X84864285Y45252158D02*
X84864285Y45380729D01*
X84864285Y45380729D02*
X84907142Y45552158D01*
X84907142Y45552158D02*
X84949999Y45637872D01*
X84949999Y45637872D02*
X85035714Y45723586D01*
X85035714Y45723586D02*
X85164285Y45766443D01*
X85164285Y45766443D02*
X85249999Y45766443D01*
X85249999Y45766443D02*
X85378571Y45723586D01*
X85378571Y45723586D02*
X85421428Y45680729D01*
X86278571Y44866443D02*
X85764285Y44866443D01*
X86021428Y44866443D02*
X86021428Y45766443D01*
X86021428Y45766443D02*
X85935714Y45637872D01*
X85935714Y45637872D02*
X85849999Y45552158D01*
X85849999Y45552158D02*
X85764285Y45509300D01*
X86792857Y45380729D02*
X86707142Y45423586D01*
X86707142Y45423586D02*
X86664285Y45466443D01*
X86664285Y45466443D02*
X86621428Y45552158D01*
X86621428Y45552158D02*
X86621428Y45595015D01*
X86621428Y45595015D02*
X86664285Y45680729D01*
X86664285Y45680729D02*
X86707142Y45723586D01*
X86707142Y45723586D02*
X86792857Y45766443D01*
X86792857Y45766443D02*
X86964285Y45766443D01*
X86964285Y45766443D02*
X87050000Y45723586D01*
X87050000Y45723586D02*
X87092857Y45680729D01*
X87092857Y45680729D02*
X87135714Y45595015D01*
X87135714Y45595015D02*
X87135714Y45552158D01*
X87135714Y45552158D02*
X87092857Y45466443D01*
X87092857Y45466443D02*
X87050000Y45423586D01*
X87050000Y45423586D02*
X86964285Y45380729D01*
X86964285Y45380729D02*
X86792857Y45380729D01*
X86792857Y45380729D02*
X86707142Y45337872D01*
X86707142Y45337872D02*
X86664285Y45295015D01*
X86664285Y45295015D02*
X86621428Y45209300D01*
X86621428Y45209300D02*
X86621428Y45037872D01*
X86621428Y45037872D02*
X86664285Y44952158D01*
X86664285Y44952158D02*
X86707142Y44909300D01*
X86707142Y44909300D02*
X86792857Y44866443D01*
X86792857Y44866443D02*
X86964285Y44866443D01*
X86964285Y44866443D02*
X87050000Y44909300D01*
X87050000Y44909300D02*
X87092857Y44952158D01*
X87092857Y44952158D02*
X87135714Y45037872D01*
X87135714Y45037872D02*
X87135714Y45209300D01*
X87135714Y45209300D02*
X87092857Y45295015D01*
X87092857Y45295015D02*
X87050000Y45337872D01*
X87050000Y45337872D02*
X86964285Y45380729D01*
X65322842Y76621429D02*
X65365700Y76578572D01*
X65365700Y76578572D02*
X65408557Y76450000D01*
X65408557Y76450000D02*
X65408557Y76364286D01*
X65408557Y76364286D02*
X65365700Y76235715D01*
X65365700Y76235715D02*
X65279985Y76150000D01*
X65279985Y76150000D02*
X65194271Y76107143D01*
X65194271Y76107143D02*
X65022842Y76064286D01*
X65022842Y76064286D02*
X64894271Y76064286D01*
X64894271Y76064286D02*
X64722842Y76107143D01*
X64722842Y76107143D02*
X64637128Y76150000D01*
X64637128Y76150000D02*
X64551414Y76235715D01*
X64551414Y76235715D02*
X64508557Y76364286D01*
X64508557Y76364286D02*
X64508557Y76450000D01*
X64508557Y76450000D02*
X64551414Y76578572D01*
X64551414Y76578572D02*
X64594271Y76621429D01*
X64508557Y76921429D02*
X64508557Y77478572D01*
X64508557Y77478572D02*
X64851414Y77178572D01*
X64851414Y77178572D02*
X64851414Y77307143D01*
X64851414Y77307143D02*
X64894271Y77392857D01*
X64894271Y77392857D02*
X64937128Y77435715D01*
X64937128Y77435715D02*
X65022842Y77478572D01*
X65022842Y77478572D02*
X65237128Y77478572D01*
X65237128Y77478572D02*
X65322842Y77435715D01*
X65322842Y77435715D02*
X65365700Y77392857D01*
X65365700Y77392857D02*
X65408557Y77307143D01*
X65408557Y77307143D02*
X65408557Y77050000D01*
X65408557Y77050000D02*
X65365700Y76964286D01*
X65365700Y76964286D02*
X65322842Y76921429D01*
X64508557Y78250000D02*
X64508557Y78078572D01*
X64508557Y78078572D02*
X64551414Y77992858D01*
X64551414Y77992858D02*
X64594271Y77950000D01*
X64594271Y77950000D02*
X64722842Y77864286D01*
X64722842Y77864286D02*
X64894271Y77821429D01*
X64894271Y77821429D02*
X65237128Y77821429D01*
X65237128Y77821429D02*
X65322842Y77864286D01*
X65322842Y77864286D02*
X65365700Y77907143D01*
X65365700Y77907143D02*
X65408557Y77992858D01*
X65408557Y77992858D02*
X65408557Y78164286D01*
X65408557Y78164286D02*
X65365700Y78250000D01*
X65365700Y78250000D02*
X65322842Y78292858D01*
X65322842Y78292858D02*
X65237128Y78335715D01*
X65237128Y78335715D02*
X65022842Y78335715D01*
X65022842Y78335715D02*
X64937128Y78292858D01*
X64937128Y78292858D02*
X64894271Y78250000D01*
X64894271Y78250000D02*
X64851414Y78164286D01*
X64851414Y78164286D02*
X64851414Y77992858D01*
X64851414Y77992858D02*
X64894271Y77907143D01*
X64894271Y77907143D02*
X64937128Y77864286D01*
X64937128Y77864286D02*
X65022842Y77821429D01*
X33085714Y54191443D02*
X33085714Y55091443D01*
X33085714Y55091443D02*
X33300000Y55091443D01*
X33300000Y55091443D02*
X33428571Y55048586D01*
X33428571Y55048586D02*
X33514286Y54962872D01*
X33514286Y54962872D02*
X33557143Y54877158D01*
X33557143Y54877158D02*
X33600000Y54705729D01*
X33600000Y54705729D02*
X33600000Y54577158D01*
X33600000Y54577158D02*
X33557143Y54405729D01*
X33557143Y54405729D02*
X33514286Y54320015D01*
X33514286Y54320015D02*
X33428571Y54234300D01*
X33428571Y54234300D02*
X33300000Y54191443D01*
X33300000Y54191443D02*
X33085714Y54191443D01*
X33942857Y55005729D02*
X33985714Y55048586D01*
X33985714Y55048586D02*
X34071429Y55091443D01*
X34071429Y55091443D02*
X34285714Y55091443D01*
X34285714Y55091443D02*
X34371429Y55048586D01*
X34371429Y55048586D02*
X34414286Y55005729D01*
X34414286Y55005729D02*
X34457143Y54920015D01*
X34457143Y54920015D02*
X34457143Y54834300D01*
X34457143Y54834300D02*
X34414286Y54705729D01*
X34414286Y54705729D02*
X33900000Y54191443D01*
X33900000Y54191443D02*
X34457143Y54191443D01*
X91421428Y77626443D02*
X91121428Y78055015D01*
X90907142Y77626443D02*
X90907142Y78526443D01*
X90907142Y78526443D02*
X91249999Y78526443D01*
X91249999Y78526443D02*
X91335714Y78483586D01*
X91335714Y78483586D02*
X91378571Y78440729D01*
X91378571Y78440729D02*
X91421428Y78355015D01*
X91421428Y78355015D02*
X91421428Y78226443D01*
X91421428Y78226443D02*
X91378571Y78140729D01*
X91378571Y78140729D02*
X91335714Y78097872D01*
X91335714Y78097872D02*
X91249999Y78055015D01*
X91249999Y78055015D02*
X90907142Y78055015D01*
X91764285Y78440729D02*
X91807142Y78483586D01*
X91807142Y78483586D02*
X91892857Y78526443D01*
X91892857Y78526443D02*
X92107142Y78526443D01*
X92107142Y78526443D02*
X92192857Y78483586D01*
X92192857Y78483586D02*
X92235714Y78440729D01*
X92235714Y78440729D02*
X92278571Y78355015D01*
X92278571Y78355015D02*
X92278571Y78269300D01*
X92278571Y78269300D02*
X92235714Y78140729D01*
X92235714Y78140729D02*
X91721428Y77626443D01*
X91721428Y77626443D02*
X92278571Y77626443D01*
X92621428Y78440729D02*
X92664285Y78483586D01*
X92664285Y78483586D02*
X92750000Y78526443D01*
X92750000Y78526443D02*
X92964285Y78526443D01*
X92964285Y78526443D02*
X93050000Y78483586D01*
X93050000Y78483586D02*
X93092857Y78440729D01*
X93092857Y78440729D02*
X93135714Y78355015D01*
X93135714Y78355015D02*
X93135714Y78269300D01*
X93135714Y78269300D02*
X93092857Y78140729D01*
X93092857Y78140729D02*
X92578571Y77626443D01*
X92578571Y77626443D02*
X93135714Y77626443D01*
X76314285Y32466443D02*
X76314285Y31737872D01*
X76314285Y31737872D02*
X76357142Y31652158D01*
X76357142Y31652158D02*
X76400000Y31609300D01*
X76400000Y31609300D02*
X76485714Y31566443D01*
X76485714Y31566443D02*
X76657142Y31566443D01*
X76657142Y31566443D02*
X76742857Y31609300D01*
X76742857Y31609300D02*
X76785714Y31652158D01*
X76785714Y31652158D02*
X76828571Y31737872D01*
X76828571Y31737872D02*
X76828571Y32466443D01*
X77385714Y32080729D02*
X77299999Y32123586D01*
X77299999Y32123586D02*
X77257142Y32166443D01*
X77257142Y32166443D02*
X77214285Y32252158D01*
X77214285Y32252158D02*
X77214285Y32295015D01*
X77214285Y32295015D02*
X77257142Y32380729D01*
X77257142Y32380729D02*
X77299999Y32423586D01*
X77299999Y32423586D02*
X77385714Y32466443D01*
X77385714Y32466443D02*
X77557142Y32466443D01*
X77557142Y32466443D02*
X77642857Y32423586D01*
X77642857Y32423586D02*
X77685714Y32380729D01*
X77685714Y32380729D02*
X77728571Y32295015D01*
X77728571Y32295015D02*
X77728571Y32252158D01*
X77728571Y32252158D02*
X77685714Y32166443D01*
X77685714Y32166443D02*
X77642857Y32123586D01*
X77642857Y32123586D02*
X77557142Y32080729D01*
X77557142Y32080729D02*
X77385714Y32080729D01*
X77385714Y32080729D02*
X77299999Y32037872D01*
X77299999Y32037872D02*
X77257142Y31995015D01*
X77257142Y31995015D02*
X77214285Y31909300D01*
X77214285Y31909300D02*
X77214285Y31737872D01*
X77214285Y31737872D02*
X77257142Y31652158D01*
X77257142Y31652158D02*
X77299999Y31609300D01*
X77299999Y31609300D02*
X77385714Y31566443D01*
X77385714Y31566443D02*
X77557142Y31566443D01*
X77557142Y31566443D02*
X77642857Y31609300D01*
X77642857Y31609300D02*
X77685714Y31652158D01*
X77685714Y31652158D02*
X77728571Y31737872D01*
X77728571Y31737872D02*
X77728571Y31909300D01*
X77728571Y31909300D02*
X77685714Y31995015D01*
X77685714Y31995015D02*
X77642857Y32037872D01*
X77642857Y32037872D02*
X77557142Y32080729D01*
X93922842Y48221429D02*
X93965700Y48178572D01*
X93965700Y48178572D02*
X94008557Y48050000D01*
X94008557Y48050000D02*
X94008557Y47964286D01*
X94008557Y47964286D02*
X93965700Y47835715D01*
X93965700Y47835715D02*
X93879985Y47750000D01*
X93879985Y47750000D02*
X93794271Y47707143D01*
X93794271Y47707143D02*
X93622842Y47664286D01*
X93622842Y47664286D02*
X93494271Y47664286D01*
X93494271Y47664286D02*
X93322842Y47707143D01*
X93322842Y47707143D02*
X93237128Y47750000D01*
X93237128Y47750000D02*
X93151414Y47835715D01*
X93151414Y47835715D02*
X93108557Y47964286D01*
X93108557Y47964286D02*
X93108557Y48050000D01*
X93108557Y48050000D02*
X93151414Y48178572D01*
X93151414Y48178572D02*
X93194271Y48221429D01*
X93408557Y48992857D02*
X94008557Y48992857D01*
X93065700Y48778572D02*
X93708557Y48564286D01*
X93708557Y48564286D02*
X93708557Y49121429D01*
X94008557Y49935715D02*
X94008557Y49421429D01*
X94008557Y49678572D02*
X93108557Y49678572D01*
X93108557Y49678572D02*
X93237128Y49592858D01*
X93237128Y49592858D02*
X93322842Y49507143D01*
X93322842Y49507143D02*
X93365700Y49421429D01*
X102708557Y48100001D02*
X102708557Y48614286D01*
X103608557Y48357144D02*
X102708557Y48357144D01*
X102708557Y48785715D02*
X103608557Y49085715D01*
X103608557Y49085715D02*
X102708557Y49385715D01*
X103565700Y49642858D02*
X103608557Y49771429D01*
X103608557Y49771429D02*
X103608557Y49985715D01*
X103608557Y49985715D02*
X103565700Y50071429D01*
X103565700Y50071429D02*
X103522842Y50114287D01*
X103522842Y50114287D02*
X103437128Y50157144D01*
X103437128Y50157144D02*
X103351414Y50157144D01*
X103351414Y50157144D02*
X103265700Y50114287D01*
X103265700Y50114287D02*
X103222842Y50071429D01*
X103222842Y50071429D02*
X103179985Y49985715D01*
X103179985Y49985715D02*
X103137128Y49814287D01*
X103137128Y49814287D02*
X103094271Y49728572D01*
X103094271Y49728572D02*
X103051414Y49685715D01*
X103051414Y49685715D02*
X102965700Y49642858D01*
X102965700Y49642858D02*
X102879985Y49642858D01*
X102879985Y49642858D02*
X102794271Y49685715D01*
X102794271Y49685715D02*
X102751414Y49728572D01*
X102751414Y49728572D02*
X102708557Y49814287D01*
X102708557Y49814287D02*
X102708557Y50028572D01*
X102708557Y50028572D02*
X102751414Y50157144D01*
X102794271Y50500001D02*
X102751414Y50542858D01*
X102751414Y50542858D02*
X102708557Y50628572D01*
X102708557Y50628572D02*
X102708557Y50842858D01*
X102708557Y50842858D02*
X102751414Y50928572D01*
X102751414Y50928572D02*
X102794271Y50971430D01*
X102794271Y50971430D02*
X102879985Y51014287D01*
X102879985Y51014287D02*
X102965700Y51014287D01*
X102965700Y51014287D02*
X103094271Y50971430D01*
X103094271Y50971430D02*
X103608557Y50457144D01*
X103608557Y50457144D02*
X103608557Y51014287D01*
X57121428Y72377158D02*
X57078571Y72334300D01*
X57078571Y72334300D02*
X56949999Y72291443D01*
X56949999Y72291443D02*
X56864285Y72291443D01*
X56864285Y72291443D02*
X56735714Y72334300D01*
X56735714Y72334300D02*
X56649999Y72420015D01*
X56649999Y72420015D02*
X56607142Y72505729D01*
X56607142Y72505729D02*
X56564285Y72677158D01*
X56564285Y72677158D02*
X56564285Y72805729D01*
X56564285Y72805729D02*
X56607142Y72977158D01*
X56607142Y72977158D02*
X56649999Y73062872D01*
X56649999Y73062872D02*
X56735714Y73148586D01*
X56735714Y73148586D02*
X56864285Y73191443D01*
X56864285Y73191443D02*
X56949999Y73191443D01*
X56949999Y73191443D02*
X57078571Y73148586D01*
X57078571Y73148586D02*
X57121428Y73105729D01*
X57978571Y72291443D02*
X57464285Y72291443D01*
X57721428Y72291443D02*
X57721428Y73191443D01*
X57721428Y73191443D02*
X57635714Y73062872D01*
X57635714Y73062872D02*
X57549999Y72977158D01*
X57549999Y72977158D02*
X57464285Y72934300D01*
X58750000Y72891443D02*
X58750000Y72291443D01*
X58535714Y73234300D02*
X58321428Y72591443D01*
X58321428Y72591443D02*
X58878571Y72591443D01*
X81321428Y40391443D02*
X81021428Y40820015D01*
X80807142Y40391443D02*
X80807142Y41291443D01*
X80807142Y41291443D02*
X81149999Y41291443D01*
X81149999Y41291443D02*
X81235714Y41248586D01*
X81235714Y41248586D02*
X81278571Y41205729D01*
X81278571Y41205729D02*
X81321428Y41120015D01*
X81321428Y41120015D02*
X81321428Y40991443D01*
X81321428Y40991443D02*
X81278571Y40905729D01*
X81278571Y40905729D02*
X81235714Y40862872D01*
X81235714Y40862872D02*
X81149999Y40820015D01*
X81149999Y40820015D02*
X80807142Y40820015D01*
X81664285Y41205729D02*
X81707142Y41248586D01*
X81707142Y41248586D02*
X81792857Y41291443D01*
X81792857Y41291443D02*
X82007142Y41291443D01*
X82007142Y41291443D02*
X82092857Y41248586D01*
X82092857Y41248586D02*
X82135714Y41205729D01*
X82135714Y41205729D02*
X82178571Y41120015D01*
X82178571Y41120015D02*
X82178571Y41034300D01*
X82178571Y41034300D02*
X82135714Y40905729D01*
X82135714Y40905729D02*
X81621428Y40391443D01*
X81621428Y40391443D02*
X82178571Y40391443D01*
X82692857Y40905729D02*
X82607142Y40948586D01*
X82607142Y40948586D02*
X82564285Y40991443D01*
X82564285Y40991443D02*
X82521428Y41077158D01*
X82521428Y41077158D02*
X82521428Y41120015D01*
X82521428Y41120015D02*
X82564285Y41205729D01*
X82564285Y41205729D02*
X82607142Y41248586D01*
X82607142Y41248586D02*
X82692857Y41291443D01*
X82692857Y41291443D02*
X82864285Y41291443D01*
X82864285Y41291443D02*
X82950000Y41248586D01*
X82950000Y41248586D02*
X82992857Y41205729D01*
X82992857Y41205729D02*
X83035714Y41120015D01*
X83035714Y41120015D02*
X83035714Y41077158D01*
X83035714Y41077158D02*
X82992857Y40991443D01*
X82992857Y40991443D02*
X82950000Y40948586D01*
X82950000Y40948586D02*
X82864285Y40905729D01*
X82864285Y40905729D02*
X82692857Y40905729D01*
X82692857Y40905729D02*
X82607142Y40862872D01*
X82607142Y40862872D02*
X82564285Y40820015D01*
X82564285Y40820015D02*
X82521428Y40734300D01*
X82521428Y40734300D02*
X82521428Y40562872D01*
X82521428Y40562872D02*
X82564285Y40477158D01*
X82564285Y40477158D02*
X82607142Y40434300D01*
X82607142Y40434300D02*
X82692857Y40391443D01*
X82692857Y40391443D02*
X82864285Y40391443D01*
X82864285Y40391443D02*
X82950000Y40434300D01*
X82950000Y40434300D02*
X82992857Y40477158D01*
X82992857Y40477158D02*
X83035714Y40562872D01*
X83035714Y40562872D02*
X83035714Y40734300D01*
X83035714Y40734300D02*
X82992857Y40820015D01*
X82992857Y40820015D02*
X82950000Y40862872D01*
X82950000Y40862872D02*
X82864285Y40905729D01*
X40072842Y66421429D02*
X40115700Y66378572D01*
X40115700Y66378572D02*
X40158557Y66250000D01*
X40158557Y66250000D02*
X40158557Y66164286D01*
X40158557Y66164286D02*
X40115700Y66035715D01*
X40115700Y66035715D02*
X40029985Y65950000D01*
X40029985Y65950000D02*
X39944271Y65907143D01*
X39944271Y65907143D02*
X39772842Y65864286D01*
X39772842Y65864286D02*
X39644271Y65864286D01*
X39644271Y65864286D02*
X39472842Y65907143D01*
X39472842Y65907143D02*
X39387128Y65950000D01*
X39387128Y65950000D02*
X39301414Y66035715D01*
X39301414Y66035715D02*
X39258557Y66164286D01*
X39258557Y66164286D02*
X39258557Y66250000D01*
X39258557Y66250000D02*
X39301414Y66378572D01*
X39301414Y66378572D02*
X39344271Y66421429D01*
X39258557Y66721429D02*
X39258557Y67278572D01*
X39258557Y67278572D02*
X39601414Y66978572D01*
X39601414Y66978572D02*
X39601414Y67107143D01*
X39601414Y67107143D02*
X39644271Y67192857D01*
X39644271Y67192857D02*
X39687128Y67235715D01*
X39687128Y67235715D02*
X39772842Y67278572D01*
X39772842Y67278572D02*
X39987128Y67278572D01*
X39987128Y67278572D02*
X40072842Y67235715D01*
X40072842Y67235715D02*
X40115700Y67192857D01*
X40115700Y67192857D02*
X40158557Y67107143D01*
X40158557Y67107143D02*
X40158557Y66850000D01*
X40158557Y66850000D02*
X40115700Y66764286D01*
X40115700Y66764286D02*
X40072842Y66721429D01*
X40158557Y67707143D02*
X40158557Y67878572D01*
X40158557Y67878572D02*
X40115700Y67964286D01*
X40115700Y67964286D02*
X40072842Y68007143D01*
X40072842Y68007143D02*
X39944271Y68092858D01*
X39944271Y68092858D02*
X39772842Y68135715D01*
X39772842Y68135715D02*
X39429985Y68135715D01*
X39429985Y68135715D02*
X39344271Y68092858D01*
X39344271Y68092858D02*
X39301414Y68050000D01*
X39301414Y68050000D02*
X39258557Y67964286D01*
X39258557Y67964286D02*
X39258557Y67792858D01*
X39258557Y67792858D02*
X39301414Y67707143D01*
X39301414Y67707143D02*
X39344271Y67664286D01*
X39344271Y67664286D02*
X39429985Y67621429D01*
X39429985Y67621429D02*
X39644271Y67621429D01*
X39644271Y67621429D02*
X39729985Y67664286D01*
X39729985Y67664286D02*
X39772842Y67707143D01*
X39772842Y67707143D02*
X39815700Y67792858D01*
X39815700Y67792858D02*
X39815700Y67964286D01*
X39815700Y67964286D02*
X39772842Y68050000D01*
X39772842Y68050000D02*
X39729985Y68092858D01*
X39729985Y68092858D02*
X39644271Y68135715D01*
X40350000Y79091443D02*
X40050000Y79520015D01*
X39835714Y79091443D02*
X39835714Y79991443D01*
X39835714Y79991443D02*
X40178571Y79991443D01*
X40178571Y79991443D02*
X40264286Y79948586D01*
X40264286Y79948586D02*
X40307143Y79905729D01*
X40307143Y79905729D02*
X40350000Y79820015D01*
X40350000Y79820015D02*
X40350000Y79691443D01*
X40350000Y79691443D02*
X40307143Y79605729D01*
X40307143Y79605729D02*
X40264286Y79562872D01*
X40264286Y79562872D02*
X40178571Y79520015D01*
X40178571Y79520015D02*
X39835714Y79520015D01*
X41207143Y79091443D02*
X40692857Y79091443D01*
X40950000Y79091443D02*
X40950000Y79991443D01*
X40950000Y79991443D02*
X40864286Y79862872D01*
X40864286Y79862872D02*
X40778571Y79777158D01*
X40778571Y79777158D02*
X40692857Y79734300D01*
X39850000Y32341443D02*
X39421428Y32341443D01*
X39421428Y32341443D02*
X39421428Y33241443D01*
X40064285Y33241443D02*
X40621428Y33241443D01*
X40621428Y33241443D02*
X40321428Y32898586D01*
X40321428Y32898586D02*
X40449999Y32898586D01*
X40449999Y32898586D02*
X40535714Y32855729D01*
X40535714Y32855729D02*
X40578571Y32812872D01*
X40578571Y32812872D02*
X40621428Y32727158D01*
X40621428Y32727158D02*
X40621428Y32512872D01*
X40621428Y32512872D02*
X40578571Y32427158D01*
X40578571Y32427158D02*
X40535714Y32384300D01*
X40535714Y32384300D02*
X40449999Y32341443D01*
X40449999Y32341443D02*
X40192856Y32341443D01*
X40192856Y32341443D02*
X40107142Y32384300D01*
X40107142Y32384300D02*
X40064285Y32427158D01*
X86421428Y77091443D02*
X86121428Y77520015D01*
X85907142Y77091443D02*
X85907142Y77991443D01*
X85907142Y77991443D02*
X86249999Y77991443D01*
X86249999Y77991443D02*
X86335714Y77948586D01*
X86335714Y77948586D02*
X86378571Y77905729D01*
X86378571Y77905729D02*
X86421428Y77820015D01*
X86421428Y77820015D02*
X86421428Y77691443D01*
X86421428Y77691443D02*
X86378571Y77605729D01*
X86378571Y77605729D02*
X86335714Y77562872D01*
X86335714Y77562872D02*
X86249999Y77520015D01*
X86249999Y77520015D02*
X85907142Y77520015D01*
X86764285Y77905729D02*
X86807142Y77948586D01*
X86807142Y77948586D02*
X86892857Y77991443D01*
X86892857Y77991443D02*
X87107142Y77991443D01*
X87107142Y77991443D02*
X87192857Y77948586D01*
X87192857Y77948586D02*
X87235714Y77905729D01*
X87235714Y77905729D02*
X87278571Y77820015D01*
X87278571Y77820015D02*
X87278571Y77734300D01*
X87278571Y77734300D02*
X87235714Y77605729D01*
X87235714Y77605729D02*
X86721428Y77091443D01*
X86721428Y77091443D02*
X87278571Y77091443D01*
X88135714Y77091443D02*
X87621428Y77091443D01*
X87878571Y77091443D02*
X87878571Y77991443D01*
X87878571Y77991443D02*
X87792857Y77862872D01*
X87792857Y77862872D02*
X87707142Y77777158D01*
X87707142Y77777158D02*
X87621428Y77734300D01*
X50850000Y74466443D02*
X50421428Y74466443D01*
X50421428Y74466443D02*
X50421428Y75366443D01*
X51621428Y74466443D02*
X51107142Y74466443D01*
X51364285Y74466443D02*
X51364285Y75366443D01*
X51364285Y75366443D02*
X51278571Y75237872D01*
X51278571Y75237872D02*
X51192856Y75152158D01*
X51192856Y75152158D02*
X51107142Y75109300D01*
X32572842Y20171429D02*
X32615700Y20128572D01*
X32615700Y20128572D02*
X32658557Y20000000D01*
X32658557Y20000000D02*
X32658557Y19914286D01*
X32658557Y19914286D02*
X32615700Y19785715D01*
X32615700Y19785715D02*
X32529985Y19700000D01*
X32529985Y19700000D02*
X32444271Y19657143D01*
X32444271Y19657143D02*
X32272842Y19614286D01*
X32272842Y19614286D02*
X32144271Y19614286D01*
X32144271Y19614286D02*
X31972842Y19657143D01*
X31972842Y19657143D02*
X31887128Y19700000D01*
X31887128Y19700000D02*
X31801414Y19785715D01*
X31801414Y19785715D02*
X31758557Y19914286D01*
X31758557Y19914286D02*
X31758557Y20000000D01*
X31758557Y20000000D02*
X31801414Y20128572D01*
X31801414Y20128572D02*
X31844271Y20171429D01*
X32658557Y21028572D02*
X32658557Y20514286D01*
X32658557Y20771429D02*
X31758557Y20771429D01*
X31758557Y20771429D02*
X31887128Y20685715D01*
X31887128Y20685715D02*
X31972842Y20600000D01*
X31972842Y20600000D02*
X32015700Y20514286D01*
X31758557Y21585715D02*
X31758557Y21671429D01*
X31758557Y21671429D02*
X31801414Y21757143D01*
X31801414Y21757143D02*
X31844271Y21800000D01*
X31844271Y21800000D02*
X31929985Y21842858D01*
X31929985Y21842858D02*
X32101414Y21885715D01*
X32101414Y21885715D02*
X32315700Y21885715D01*
X32315700Y21885715D02*
X32487128Y21842858D01*
X32487128Y21842858D02*
X32572842Y21800000D01*
X32572842Y21800000D02*
X32615700Y21757143D01*
X32615700Y21757143D02*
X32658557Y21671429D01*
X32658557Y21671429D02*
X32658557Y21585715D01*
X32658557Y21585715D02*
X32615700Y21500000D01*
X32615700Y21500000D02*
X32572842Y21457143D01*
X32572842Y21457143D02*
X32487128Y21414286D01*
X32487128Y21414286D02*
X32315700Y21371429D01*
X32315700Y21371429D02*
X32101414Y21371429D01*
X32101414Y21371429D02*
X31929985Y21414286D01*
X31929985Y21414286D02*
X31844271Y21457143D01*
X31844271Y21457143D02*
X31801414Y21500000D01*
X31801414Y21500000D02*
X31758557Y21585715D01*
X37721428Y37952158D02*
X37678571Y37909300D01*
X37678571Y37909300D02*
X37549999Y37866443D01*
X37549999Y37866443D02*
X37464285Y37866443D01*
X37464285Y37866443D02*
X37335714Y37909300D01*
X37335714Y37909300D02*
X37249999Y37995015D01*
X37249999Y37995015D02*
X37207142Y38080729D01*
X37207142Y38080729D02*
X37164285Y38252158D01*
X37164285Y38252158D02*
X37164285Y38380729D01*
X37164285Y38380729D02*
X37207142Y38552158D01*
X37207142Y38552158D02*
X37249999Y38637872D01*
X37249999Y38637872D02*
X37335714Y38723586D01*
X37335714Y38723586D02*
X37464285Y38766443D01*
X37464285Y38766443D02*
X37549999Y38766443D01*
X37549999Y38766443D02*
X37678571Y38723586D01*
X37678571Y38723586D02*
X37721428Y38680729D01*
X38021428Y38766443D02*
X38578571Y38766443D01*
X38578571Y38766443D02*
X38278571Y38423586D01*
X38278571Y38423586D02*
X38407142Y38423586D01*
X38407142Y38423586D02*
X38492857Y38380729D01*
X38492857Y38380729D02*
X38535714Y38337872D01*
X38535714Y38337872D02*
X38578571Y38252158D01*
X38578571Y38252158D02*
X38578571Y38037872D01*
X38578571Y38037872D02*
X38535714Y37952158D01*
X38535714Y37952158D02*
X38492857Y37909300D01*
X38492857Y37909300D02*
X38407142Y37866443D01*
X38407142Y37866443D02*
X38149999Y37866443D01*
X38149999Y37866443D02*
X38064285Y37909300D01*
X38064285Y37909300D02*
X38021428Y37952158D01*
X38878571Y38766443D02*
X39435714Y38766443D01*
X39435714Y38766443D02*
X39135714Y38423586D01*
X39135714Y38423586D02*
X39264285Y38423586D01*
X39264285Y38423586D02*
X39350000Y38380729D01*
X39350000Y38380729D02*
X39392857Y38337872D01*
X39392857Y38337872D02*
X39435714Y38252158D01*
X39435714Y38252158D02*
X39435714Y38037872D01*
X39435714Y38037872D02*
X39392857Y37952158D01*
X39392857Y37952158D02*
X39350000Y37909300D01*
X39350000Y37909300D02*
X39264285Y37866443D01*
X39264285Y37866443D02*
X39007142Y37866443D01*
X39007142Y37866443D02*
X38921428Y37909300D01*
X38921428Y37909300D02*
X38878571Y37952158D01*
X86521428Y80191443D02*
X86221428Y80620015D01*
X86007142Y80191443D02*
X86007142Y81091443D01*
X86007142Y81091443D02*
X86349999Y81091443D01*
X86349999Y81091443D02*
X86435714Y81048586D01*
X86435714Y81048586D02*
X86478571Y81005729D01*
X86478571Y81005729D02*
X86521428Y80920015D01*
X86521428Y80920015D02*
X86521428Y80791443D01*
X86521428Y80791443D02*
X86478571Y80705729D01*
X86478571Y80705729D02*
X86435714Y80662872D01*
X86435714Y80662872D02*
X86349999Y80620015D01*
X86349999Y80620015D02*
X86007142Y80620015D01*
X86864285Y81005729D02*
X86907142Y81048586D01*
X86907142Y81048586D02*
X86992857Y81091443D01*
X86992857Y81091443D02*
X87207142Y81091443D01*
X87207142Y81091443D02*
X87292857Y81048586D01*
X87292857Y81048586D02*
X87335714Y81005729D01*
X87335714Y81005729D02*
X87378571Y80920015D01*
X87378571Y80920015D02*
X87378571Y80834300D01*
X87378571Y80834300D02*
X87335714Y80705729D01*
X87335714Y80705729D02*
X86821428Y80191443D01*
X86821428Y80191443D02*
X87378571Y80191443D01*
X87935714Y81091443D02*
X88021428Y81091443D01*
X88021428Y81091443D02*
X88107142Y81048586D01*
X88107142Y81048586D02*
X88150000Y81005729D01*
X88150000Y81005729D02*
X88192857Y80920015D01*
X88192857Y80920015D02*
X88235714Y80748586D01*
X88235714Y80748586D02*
X88235714Y80534300D01*
X88235714Y80534300D02*
X88192857Y80362872D01*
X88192857Y80362872D02*
X88150000Y80277158D01*
X88150000Y80277158D02*
X88107142Y80234300D01*
X88107142Y80234300D02*
X88021428Y80191443D01*
X88021428Y80191443D02*
X87935714Y80191443D01*
X87935714Y80191443D02*
X87850000Y80234300D01*
X87850000Y80234300D02*
X87807142Y80277158D01*
X87807142Y80277158D02*
X87764285Y80362872D01*
X87764285Y80362872D02*
X87721428Y80534300D01*
X87721428Y80534300D02*
X87721428Y80748586D01*
X87721428Y80748586D02*
X87764285Y80920015D01*
X87764285Y80920015D02*
X87807142Y81005729D01*
X87807142Y81005729D02*
X87850000Y81048586D01*
X87850000Y81048586D02*
X87935714Y81091443D01*
X39758557Y70564286D02*
X40487128Y70564286D01*
X40487128Y70564286D02*
X40572842Y70607143D01*
X40572842Y70607143D02*
X40615700Y70650000D01*
X40615700Y70650000D02*
X40658557Y70735715D01*
X40658557Y70735715D02*
X40658557Y70907143D01*
X40658557Y70907143D02*
X40615700Y70992858D01*
X40615700Y70992858D02*
X40572842Y71035715D01*
X40572842Y71035715D02*
X40487128Y71078572D01*
X40487128Y71078572D02*
X39758557Y71078572D01*
X39844271Y71464286D02*
X39801414Y71507143D01*
X39801414Y71507143D02*
X39758557Y71592857D01*
X39758557Y71592857D02*
X39758557Y71807143D01*
X39758557Y71807143D02*
X39801414Y71892857D01*
X39801414Y71892857D02*
X39844271Y71935715D01*
X39844271Y71935715D02*
X39929985Y71978572D01*
X39929985Y71978572D02*
X40015700Y71978572D01*
X40015700Y71978572D02*
X40144271Y71935715D01*
X40144271Y71935715D02*
X40658557Y71421429D01*
X40658557Y71421429D02*
X40658557Y71978572D01*
X70420476Y80937705D02*
X70877619Y80937705D01*
X70649047Y80137705D02*
X70649047Y80937705D01*
X71144286Y80137705D02*
X71144286Y80937705D01*
X71144286Y80937705D02*
X71449048Y80937705D01*
X71449048Y80937705D02*
X71525238Y80899610D01*
X71525238Y80899610D02*
X71563333Y80861515D01*
X71563333Y80861515D02*
X71601429Y80785324D01*
X71601429Y80785324D02*
X71601429Y80671039D01*
X71601429Y80671039D02*
X71563333Y80594848D01*
X71563333Y80594848D02*
X71525238Y80556753D01*
X71525238Y80556753D02*
X71449048Y80518658D01*
X71449048Y80518658D02*
X71144286Y80518658D01*
X72325238Y80937705D02*
X71944286Y80937705D01*
X71944286Y80937705D02*
X71906190Y80556753D01*
X71906190Y80556753D02*
X71944286Y80594848D01*
X71944286Y80594848D02*
X72020476Y80632943D01*
X72020476Y80632943D02*
X72210952Y80632943D01*
X72210952Y80632943D02*
X72287143Y80594848D01*
X72287143Y80594848D02*
X72325238Y80556753D01*
X72325238Y80556753D02*
X72363333Y80480562D01*
X72363333Y80480562D02*
X72363333Y80290086D01*
X72363333Y80290086D02*
X72325238Y80213896D01*
X72325238Y80213896D02*
X72287143Y80175800D01*
X72287143Y80175800D02*
X72210952Y80137705D01*
X72210952Y80137705D02*
X72020476Y80137705D01*
X72020476Y80137705D02*
X71944286Y80175800D01*
X71944286Y80175800D02*
X71906190Y80213896D01*
X82421428Y62952159D02*
X82378571Y62909301D01*
X82378571Y62909301D02*
X82249999Y62866444D01*
X82249999Y62866444D02*
X82164285Y62866444D01*
X82164285Y62866444D02*
X82035714Y62909301D01*
X82035714Y62909301D02*
X81949999Y62995016D01*
X81949999Y62995016D02*
X81907142Y63080730D01*
X81907142Y63080730D02*
X81864285Y63252159D01*
X81864285Y63252159D02*
X81864285Y63380730D01*
X81864285Y63380730D02*
X81907142Y63552159D01*
X81907142Y63552159D02*
X81949999Y63637873D01*
X81949999Y63637873D02*
X82035714Y63723587D01*
X82035714Y63723587D02*
X82164285Y63766444D01*
X82164285Y63766444D02*
X82249999Y63766444D01*
X82249999Y63766444D02*
X82378571Y63723587D01*
X82378571Y63723587D02*
X82421428Y63680730D01*
X83278571Y62866444D02*
X82764285Y62866444D01*
X83021428Y62866444D02*
X83021428Y63766444D01*
X83021428Y63766444D02*
X82935714Y63637873D01*
X82935714Y63637873D02*
X82849999Y63552159D01*
X82849999Y63552159D02*
X82764285Y63509301D01*
X83578571Y63766444D02*
X84178571Y63766444D01*
X84178571Y63766444D02*
X83792857Y62866444D01*
X31850000Y37356443D02*
X31550000Y37785015D01*
X31335714Y37356443D02*
X31335714Y38256443D01*
X31335714Y38256443D02*
X31678571Y38256443D01*
X31678571Y38256443D02*
X31764286Y38213586D01*
X31764286Y38213586D02*
X31807143Y38170729D01*
X31807143Y38170729D02*
X31850000Y38085015D01*
X31850000Y38085015D02*
X31850000Y37956443D01*
X31850000Y37956443D02*
X31807143Y37870729D01*
X31807143Y37870729D02*
X31764286Y37827872D01*
X31764286Y37827872D02*
X31678571Y37785015D01*
X31678571Y37785015D02*
X31335714Y37785015D01*
X32621429Y38256443D02*
X32450000Y38256443D01*
X32450000Y38256443D02*
X32364286Y38213586D01*
X32364286Y38213586D02*
X32321429Y38170729D01*
X32321429Y38170729D02*
X32235714Y38042158D01*
X32235714Y38042158D02*
X32192857Y37870729D01*
X32192857Y37870729D02*
X32192857Y37527872D01*
X32192857Y37527872D02*
X32235714Y37442158D01*
X32235714Y37442158D02*
X32278571Y37399300D01*
X32278571Y37399300D02*
X32364286Y37356443D01*
X32364286Y37356443D02*
X32535714Y37356443D01*
X32535714Y37356443D02*
X32621429Y37399300D01*
X32621429Y37399300D02*
X32664286Y37442158D01*
X32664286Y37442158D02*
X32707143Y37527872D01*
X32707143Y37527872D02*
X32707143Y37742158D01*
X32707143Y37742158D02*
X32664286Y37827872D01*
X32664286Y37827872D02*
X32621429Y37870729D01*
X32621429Y37870729D02*
X32535714Y37913586D01*
X32535714Y37913586D02*
X32364286Y37913586D01*
X32364286Y37913586D02*
X32278571Y37870729D01*
X32278571Y37870729D02*
X32235714Y37827872D01*
X32235714Y37827872D02*
X32192857Y37742158D01*
X37908557Y23635715D02*
X37008557Y23635715D01*
X37008557Y23635715D02*
X37008557Y23850001D01*
X37008557Y23850001D02*
X37051414Y23978572D01*
X37051414Y23978572D02*
X37137128Y24064287D01*
X37137128Y24064287D02*
X37222842Y24107144D01*
X37222842Y24107144D02*
X37394271Y24150001D01*
X37394271Y24150001D02*
X37522842Y24150001D01*
X37522842Y24150001D02*
X37694271Y24107144D01*
X37694271Y24107144D02*
X37779985Y24064287D01*
X37779985Y24064287D02*
X37865700Y23978572D01*
X37865700Y23978572D02*
X37908557Y23850001D01*
X37908557Y23850001D02*
X37908557Y23635715D01*
X37008557Y24450001D02*
X37008557Y25007144D01*
X37008557Y25007144D02*
X37351414Y24707144D01*
X37351414Y24707144D02*
X37351414Y24835715D01*
X37351414Y24835715D02*
X37394271Y24921429D01*
X37394271Y24921429D02*
X37437128Y24964287D01*
X37437128Y24964287D02*
X37522842Y25007144D01*
X37522842Y25007144D02*
X37737128Y25007144D01*
X37737128Y25007144D02*
X37822842Y24964287D01*
X37822842Y24964287D02*
X37865700Y24921429D01*
X37865700Y24921429D02*
X37908557Y24835715D01*
X37908557Y24835715D02*
X37908557Y24578572D01*
X37908557Y24578572D02*
X37865700Y24492858D01*
X37865700Y24492858D02*
X37822842Y24450001D01*
X89421428Y62626443D02*
X89121428Y63055015D01*
X88907142Y62626443D02*
X88907142Y63526443D01*
X88907142Y63526443D02*
X89249999Y63526443D01*
X89249999Y63526443D02*
X89335714Y63483586D01*
X89335714Y63483586D02*
X89378571Y63440729D01*
X89378571Y63440729D02*
X89421428Y63355015D01*
X89421428Y63355015D02*
X89421428Y63226443D01*
X89421428Y63226443D02*
X89378571Y63140729D01*
X89378571Y63140729D02*
X89335714Y63097872D01*
X89335714Y63097872D02*
X89249999Y63055015D01*
X89249999Y63055015D02*
X88907142Y63055015D01*
X89764285Y63440729D02*
X89807142Y63483586D01*
X89807142Y63483586D02*
X89892857Y63526443D01*
X89892857Y63526443D02*
X90107142Y63526443D01*
X90107142Y63526443D02*
X90192857Y63483586D01*
X90192857Y63483586D02*
X90235714Y63440729D01*
X90235714Y63440729D02*
X90278571Y63355015D01*
X90278571Y63355015D02*
X90278571Y63269300D01*
X90278571Y63269300D02*
X90235714Y63140729D01*
X90235714Y63140729D02*
X89721428Y62626443D01*
X89721428Y62626443D02*
X90278571Y62626443D01*
X90578571Y63526443D02*
X91135714Y63526443D01*
X91135714Y63526443D02*
X90835714Y63183586D01*
X90835714Y63183586D02*
X90964285Y63183586D01*
X90964285Y63183586D02*
X91050000Y63140729D01*
X91050000Y63140729D02*
X91092857Y63097872D01*
X91092857Y63097872D02*
X91135714Y63012158D01*
X91135714Y63012158D02*
X91135714Y62797872D01*
X91135714Y62797872D02*
X91092857Y62712158D01*
X91092857Y62712158D02*
X91050000Y62669300D01*
X91050000Y62669300D02*
X90964285Y62626443D01*
X90964285Y62626443D02*
X90707142Y62626443D01*
X90707142Y62626443D02*
X90621428Y62669300D01*
X90621428Y62669300D02*
X90578571Y62712158D01*
X56072842Y44421429D02*
X56115700Y44378572D01*
X56115700Y44378572D02*
X56158557Y44250000D01*
X56158557Y44250000D02*
X56158557Y44164286D01*
X56158557Y44164286D02*
X56115700Y44035715D01*
X56115700Y44035715D02*
X56029985Y43950000D01*
X56029985Y43950000D02*
X55944271Y43907143D01*
X55944271Y43907143D02*
X55772842Y43864286D01*
X55772842Y43864286D02*
X55644271Y43864286D01*
X55644271Y43864286D02*
X55472842Y43907143D01*
X55472842Y43907143D02*
X55387128Y43950000D01*
X55387128Y43950000D02*
X55301414Y44035715D01*
X55301414Y44035715D02*
X55258557Y44164286D01*
X55258557Y44164286D02*
X55258557Y44250000D01*
X55258557Y44250000D02*
X55301414Y44378572D01*
X55301414Y44378572D02*
X55344271Y44421429D01*
X56158557Y45278572D02*
X56158557Y44764286D01*
X56158557Y45021429D02*
X55258557Y45021429D01*
X55258557Y45021429D02*
X55387128Y44935715D01*
X55387128Y44935715D02*
X55472842Y44850000D01*
X55472842Y44850000D02*
X55515700Y44764286D01*
X55344271Y45621429D02*
X55301414Y45664286D01*
X55301414Y45664286D02*
X55258557Y45750000D01*
X55258557Y45750000D02*
X55258557Y45964286D01*
X55258557Y45964286D02*
X55301414Y46050000D01*
X55301414Y46050000D02*
X55344271Y46092858D01*
X55344271Y46092858D02*
X55429985Y46135715D01*
X55429985Y46135715D02*
X55515700Y46135715D01*
X55515700Y46135715D02*
X55644271Y46092858D01*
X55644271Y46092858D02*
X56158557Y45578572D01*
X56158557Y45578572D02*
X56158557Y46135715D01*
X65340475Y80937705D02*
X65797618Y80937705D01*
X65569046Y80137705D02*
X65569046Y80937705D01*
X66064285Y80137705D02*
X66064285Y80937705D01*
X66064285Y80937705D02*
X66369047Y80937705D01*
X66369047Y80937705D02*
X66445237Y80899610D01*
X66445237Y80899610D02*
X66483332Y80861515D01*
X66483332Y80861515D02*
X66521428Y80785324D01*
X66521428Y80785324D02*
X66521428Y80671039D01*
X66521428Y80671039D02*
X66483332Y80594848D01*
X66483332Y80594848D02*
X66445237Y80556753D01*
X66445237Y80556753D02*
X66369047Y80518658D01*
X66369047Y80518658D02*
X66064285Y80518658D01*
X66788094Y80937705D02*
X67283332Y80937705D01*
X67283332Y80937705D02*
X67016666Y80632943D01*
X67016666Y80632943D02*
X67130951Y80632943D01*
X67130951Y80632943D02*
X67207142Y80594848D01*
X67207142Y80594848D02*
X67245237Y80556753D01*
X67245237Y80556753D02*
X67283332Y80480562D01*
X67283332Y80480562D02*
X67283332Y80290086D01*
X67283332Y80290086D02*
X67245237Y80213896D01*
X67245237Y80213896D02*
X67207142Y80175800D01*
X67207142Y80175800D02*
X67130951Y80137705D01*
X67130951Y80137705D02*
X66902380Y80137705D01*
X66902380Y80137705D02*
X66826189Y80175800D01*
X66826189Y80175800D02*
X66788094Y80213896D01*
X46850000Y58366444D02*
X46421428Y58366444D01*
X46421428Y58366444D02*
X46421428Y59266444D01*
X47107142Y59180730D02*
X47149999Y59223587D01*
X47149999Y59223587D02*
X47235714Y59266444D01*
X47235714Y59266444D02*
X47449999Y59266444D01*
X47449999Y59266444D02*
X47535714Y59223587D01*
X47535714Y59223587D02*
X47578571Y59180730D01*
X47578571Y59180730D02*
X47621428Y59095016D01*
X47621428Y59095016D02*
X47621428Y59009301D01*
X47621428Y59009301D02*
X47578571Y58880730D01*
X47578571Y58880730D02*
X47064285Y58366444D01*
X47064285Y58366444D02*
X47621428Y58366444D01*
X61421428Y35282159D02*
X61378571Y35239301D01*
X61378571Y35239301D02*
X61249999Y35196444D01*
X61249999Y35196444D02*
X61164285Y35196444D01*
X61164285Y35196444D02*
X61035714Y35239301D01*
X61035714Y35239301D02*
X60949999Y35325016D01*
X60949999Y35325016D02*
X60907142Y35410730D01*
X60907142Y35410730D02*
X60864285Y35582159D01*
X60864285Y35582159D02*
X60864285Y35710730D01*
X60864285Y35710730D02*
X60907142Y35882159D01*
X60907142Y35882159D02*
X60949999Y35967873D01*
X60949999Y35967873D02*
X61035714Y36053587D01*
X61035714Y36053587D02*
X61164285Y36096444D01*
X61164285Y36096444D02*
X61249999Y36096444D01*
X61249999Y36096444D02*
X61378571Y36053587D01*
X61378571Y36053587D02*
X61421428Y36010730D01*
X62278571Y35196444D02*
X61764285Y35196444D01*
X62021428Y35196444D02*
X62021428Y36096444D01*
X62021428Y36096444D02*
X61935714Y35967873D01*
X61935714Y35967873D02*
X61849999Y35882159D01*
X61849999Y35882159D02*
X61764285Y35839301D01*
X63135714Y35196444D02*
X62621428Y35196444D01*
X62878571Y35196444D02*
X62878571Y36096444D01*
X62878571Y36096444D02*
X62792857Y35967873D01*
X62792857Y35967873D02*
X62707142Y35882159D01*
X62707142Y35882159D02*
X62621428Y35839301D01*
X24822842Y74550001D02*
X24865700Y74507144D01*
X24865700Y74507144D02*
X24908557Y74378572D01*
X24908557Y74378572D02*
X24908557Y74292858D01*
X24908557Y74292858D02*
X24865700Y74164287D01*
X24865700Y74164287D02*
X24779985Y74078572D01*
X24779985Y74078572D02*
X24694271Y74035715D01*
X24694271Y74035715D02*
X24522842Y73992858D01*
X24522842Y73992858D02*
X24394271Y73992858D01*
X24394271Y73992858D02*
X24222842Y74035715D01*
X24222842Y74035715D02*
X24137128Y74078572D01*
X24137128Y74078572D02*
X24051414Y74164287D01*
X24051414Y74164287D02*
X24008557Y74292858D01*
X24008557Y74292858D02*
X24008557Y74378572D01*
X24008557Y74378572D02*
X24051414Y74507144D01*
X24051414Y74507144D02*
X24094271Y74550001D01*
X24008557Y75364287D02*
X24008557Y74935715D01*
X24008557Y74935715D02*
X24437128Y74892858D01*
X24437128Y74892858D02*
X24394271Y74935715D01*
X24394271Y74935715D02*
X24351414Y75021429D01*
X24351414Y75021429D02*
X24351414Y75235715D01*
X24351414Y75235715D02*
X24394271Y75321429D01*
X24394271Y75321429D02*
X24437128Y75364287D01*
X24437128Y75364287D02*
X24522842Y75407144D01*
X24522842Y75407144D02*
X24737128Y75407144D01*
X24737128Y75407144D02*
X24822842Y75364287D01*
X24822842Y75364287D02*
X24865700Y75321429D01*
X24865700Y75321429D02*
X24908557Y75235715D01*
X24908557Y75235715D02*
X24908557Y75021429D01*
X24908557Y75021429D02*
X24865700Y74935715D01*
X24865700Y74935715D02*
X24822842Y74892858D01*
X89421428Y55891443D02*
X89121428Y56320015D01*
X88907142Y55891443D02*
X88907142Y56791443D01*
X88907142Y56791443D02*
X89249999Y56791443D01*
X89249999Y56791443D02*
X89335714Y56748586D01*
X89335714Y56748586D02*
X89378571Y56705729D01*
X89378571Y56705729D02*
X89421428Y56620015D01*
X89421428Y56620015D02*
X89421428Y56491443D01*
X89421428Y56491443D02*
X89378571Y56405729D01*
X89378571Y56405729D02*
X89335714Y56362872D01*
X89335714Y56362872D02*
X89249999Y56320015D01*
X89249999Y56320015D02*
X88907142Y56320015D01*
X89764285Y56705729D02*
X89807142Y56748586D01*
X89807142Y56748586D02*
X89892857Y56791443D01*
X89892857Y56791443D02*
X90107142Y56791443D01*
X90107142Y56791443D02*
X90192857Y56748586D01*
X90192857Y56748586D02*
X90235714Y56705729D01*
X90235714Y56705729D02*
X90278571Y56620015D01*
X90278571Y56620015D02*
X90278571Y56534300D01*
X90278571Y56534300D02*
X90235714Y56405729D01*
X90235714Y56405729D02*
X89721428Y55891443D01*
X89721428Y55891443D02*
X90278571Y55891443D01*
X91050000Y56491443D02*
X91050000Y55891443D01*
X90835714Y56834300D02*
X90621428Y56191443D01*
X90621428Y56191443D02*
X91178571Y56191443D01*
X60822842Y64421429D02*
X60865700Y64378572D01*
X60865700Y64378572D02*
X60908557Y64250000D01*
X60908557Y64250000D02*
X60908557Y64164286D01*
X60908557Y64164286D02*
X60865700Y64035715D01*
X60865700Y64035715D02*
X60779985Y63950000D01*
X60779985Y63950000D02*
X60694271Y63907143D01*
X60694271Y63907143D02*
X60522842Y63864286D01*
X60522842Y63864286D02*
X60394271Y63864286D01*
X60394271Y63864286D02*
X60222842Y63907143D01*
X60222842Y63907143D02*
X60137128Y63950000D01*
X60137128Y63950000D02*
X60051414Y64035715D01*
X60051414Y64035715D02*
X60008557Y64164286D01*
X60008557Y64164286D02*
X60008557Y64250000D01*
X60008557Y64250000D02*
X60051414Y64378572D01*
X60051414Y64378572D02*
X60094271Y64421429D01*
X60094271Y64764286D02*
X60051414Y64807143D01*
X60051414Y64807143D02*
X60008557Y64892857D01*
X60008557Y64892857D02*
X60008557Y65107143D01*
X60008557Y65107143D02*
X60051414Y65192857D01*
X60051414Y65192857D02*
X60094271Y65235715D01*
X60094271Y65235715D02*
X60179985Y65278572D01*
X60179985Y65278572D02*
X60265700Y65278572D01*
X60265700Y65278572D02*
X60394271Y65235715D01*
X60394271Y65235715D02*
X60908557Y64721429D01*
X60908557Y64721429D02*
X60908557Y65278572D01*
X60008557Y65835715D02*
X60008557Y65921429D01*
X60008557Y65921429D02*
X60051414Y66007143D01*
X60051414Y66007143D02*
X60094271Y66050000D01*
X60094271Y66050000D02*
X60179985Y66092858D01*
X60179985Y66092858D02*
X60351414Y66135715D01*
X60351414Y66135715D02*
X60565700Y66135715D01*
X60565700Y66135715D02*
X60737128Y66092858D01*
X60737128Y66092858D02*
X60822842Y66050000D01*
X60822842Y66050000D02*
X60865700Y66007143D01*
X60865700Y66007143D02*
X60908557Y65921429D01*
X60908557Y65921429D02*
X60908557Y65835715D01*
X60908557Y65835715D02*
X60865700Y65750000D01*
X60865700Y65750000D02*
X60822842Y65707143D01*
X60822842Y65707143D02*
X60737128Y65664286D01*
X60737128Y65664286D02*
X60565700Y65621429D01*
X60565700Y65621429D02*
X60351414Y65621429D01*
X60351414Y65621429D02*
X60179985Y65664286D01*
X60179985Y65664286D02*
X60094271Y65707143D01*
X60094271Y65707143D02*
X60051414Y65750000D01*
X60051414Y65750000D02*
X60008557Y65835715D01*
X99321428Y44877158D02*
X99278571Y44834300D01*
X99278571Y44834300D02*
X99149999Y44791443D01*
X99149999Y44791443D02*
X99064285Y44791443D01*
X99064285Y44791443D02*
X98935714Y44834300D01*
X98935714Y44834300D02*
X98849999Y44920015D01*
X98849999Y44920015D02*
X98807142Y45005729D01*
X98807142Y45005729D02*
X98764285Y45177158D01*
X98764285Y45177158D02*
X98764285Y45305729D01*
X98764285Y45305729D02*
X98807142Y45477158D01*
X98807142Y45477158D02*
X98849999Y45562872D01*
X98849999Y45562872D02*
X98935714Y45648586D01*
X98935714Y45648586D02*
X99064285Y45691443D01*
X99064285Y45691443D02*
X99149999Y45691443D01*
X99149999Y45691443D02*
X99278571Y45648586D01*
X99278571Y45648586D02*
X99321428Y45605729D01*
X99664285Y45605729D02*
X99707142Y45648586D01*
X99707142Y45648586D02*
X99792857Y45691443D01*
X99792857Y45691443D02*
X100007142Y45691443D01*
X100007142Y45691443D02*
X100092857Y45648586D01*
X100092857Y45648586D02*
X100135714Y45605729D01*
X100135714Y45605729D02*
X100178571Y45520015D01*
X100178571Y45520015D02*
X100178571Y45434300D01*
X100178571Y45434300D02*
X100135714Y45305729D01*
X100135714Y45305729D02*
X99621428Y44791443D01*
X99621428Y44791443D02*
X100178571Y44791443D01*
X100478571Y45691443D02*
X101035714Y45691443D01*
X101035714Y45691443D02*
X100735714Y45348586D01*
X100735714Y45348586D02*
X100864285Y45348586D01*
X100864285Y45348586D02*
X100950000Y45305729D01*
X100950000Y45305729D02*
X100992857Y45262872D01*
X100992857Y45262872D02*
X101035714Y45177158D01*
X101035714Y45177158D02*
X101035714Y44962872D01*
X101035714Y44962872D02*
X100992857Y44877158D01*
X100992857Y44877158D02*
X100950000Y44834300D01*
X100950000Y44834300D02*
X100864285Y44791443D01*
X100864285Y44791443D02*
X100607142Y44791443D01*
X100607142Y44791443D02*
X100521428Y44834300D01*
X100521428Y44834300D02*
X100478571Y44877158D01*
X61850000Y55432159D02*
X61807143Y55389301D01*
X61807143Y55389301D02*
X61678571Y55346444D01*
X61678571Y55346444D02*
X61592857Y55346444D01*
X61592857Y55346444D02*
X61464286Y55389301D01*
X61464286Y55389301D02*
X61378571Y55475016D01*
X61378571Y55475016D02*
X61335714Y55560730D01*
X61335714Y55560730D02*
X61292857Y55732159D01*
X61292857Y55732159D02*
X61292857Y55860730D01*
X61292857Y55860730D02*
X61335714Y56032159D01*
X61335714Y56032159D02*
X61378571Y56117873D01*
X61378571Y56117873D02*
X61464286Y56203587D01*
X61464286Y56203587D02*
X61592857Y56246444D01*
X61592857Y56246444D02*
X61678571Y56246444D01*
X61678571Y56246444D02*
X61807143Y56203587D01*
X61807143Y56203587D02*
X61850000Y56160730D01*
X62621429Y55946444D02*
X62621429Y55346444D01*
X62407143Y56289301D02*
X62192857Y55646444D01*
X62192857Y55646444D02*
X62750000Y55646444D01*
X22250000Y6177158D02*
X22207143Y6134300D01*
X22207143Y6134300D02*
X22078571Y6091443D01*
X22078571Y6091443D02*
X21992857Y6091443D01*
X21992857Y6091443D02*
X21864286Y6134300D01*
X21864286Y6134300D02*
X21778571Y6220015D01*
X21778571Y6220015D02*
X21735714Y6305729D01*
X21735714Y6305729D02*
X21692857Y6477158D01*
X21692857Y6477158D02*
X21692857Y6605729D01*
X21692857Y6605729D02*
X21735714Y6777158D01*
X21735714Y6777158D02*
X21778571Y6862872D01*
X21778571Y6862872D02*
X21864286Y6948586D01*
X21864286Y6948586D02*
X21992857Y6991443D01*
X21992857Y6991443D02*
X22078571Y6991443D01*
X22078571Y6991443D02*
X22207143Y6948586D01*
X22207143Y6948586D02*
X22250000Y6905729D01*
X22678571Y6091443D02*
X22850000Y6091443D01*
X22850000Y6091443D02*
X22935714Y6134300D01*
X22935714Y6134300D02*
X22978571Y6177158D01*
X22978571Y6177158D02*
X23064286Y6305729D01*
X23064286Y6305729D02*
X23107143Y6477158D01*
X23107143Y6477158D02*
X23107143Y6820015D01*
X23107143Y6820015D02*
X23064286Y6905729D01*
X23064286Y6905729D02*
X23021429Y6948586D01*
X23021429Y6948586D02*
X22935714Y6991443D01*
X22935714Y6991443D02*
X22764286Y6991443D01*
X22764286Y6991443D02*
X22678571Y6948586D01*
X22678571Y6948586D02*
X22635714Y6905729D01*
X22635714Y6905729D02*
X22592857Y6820015D01*
X22592857Y6820015D02*
X22592857Y6605729D01*
X22592857Y6605729D02*
X22635714Y6520015D01*
X22635714Y6520015D02*
X22678571Y6477158D01*
X22678571Y6477158D02*
X22764286Y6434300D01*
X22764286Y6434300D02*
X22935714Y6434300D01*
X22935714Y6434300D02*
X23021429Y6477158D01*
X23021429Y6477158D02*
X23064286Y6520015D01*
X23064286Y6520015D02*
X23107143Y6605729D01*
X62421428Y61442158D02*
X62378571Y61399300D01*
X62378571Y61399300D02*
X62249999Y61356443D01*
X62249999Y61356443D02*
X62164285Y61356443D01*
X62164285Y61356443D02*
X62035714Y61399300D01*
X62035714Y61399300D02*
X61949999Y61485015D01*
X61949999Y61485015D02*
X61907142Y61570729D01*
X61907142Y61570729D02*
X61864285Y61742158D01*
X61864285Y61742158D02*
X61864285Y61870729D01*
X61864285Y61870729D02*
X61907142Y62042158D01*
X61907142Y62042158D02*
X61949999Y62127872D01*
X61949999Y62127872D02*
X62035714Y62213586D01*
X62035714Y62213586D02*
X62164285Y62256443D01*
X62164285Y62256443D02*
X62249999Y62256443D01*
X62249999Y62256443D02*
X62378571Y62213586D01*
X62378571Y62213586D02*
X62421428Y62170729D01*
X63278571Y61356443D02*
X62764285Y61356443D01*
X63021428Y61356443D02*
X63021428Y62256443D01*
X63021428Y62256443D02*
X62935714Y62127872D01*
X62935714Y62127872D02*
X62849999Y62042158D01*
X62849999Y62042158D02*
X62764285Y61999300D01*
X64092857Y62256443D02*
X63664285Y62256443D01*
X63664285Y62256443D02*
X63621428Y61827872D01*
X63621428Y61827872D02*
X63664285Y61870729D01*
X63664285Y61870729D02*
X63750000Y61913586D01*
X63750000Y61913586D02*
X63964285Y61913586D01*
X63964285Y61913586D02*
X64050000Y61870729D01*
X64050000Y61870729D02*
X64092857Y61827872D01*
X64092857Y61827872D02*
X64135714Y61742158D01*
X64135714Y61742158D02*
X64135714Y61527872D01*
X64135714Y61527872D02*
X64092857Y61442158D01*
X64092857Y61442158D02*
X64050000Y61399300D01*
X64050000Y61399300D02*
X63964285Y61356443D01*
X63964285Y61356443D02*
X63750000Y61356443D01*
X63750000Y61356443D02*
X63664285Y61399300D01*
X63664285Y61399300D02*
X63621428Y61442158D01*
X29808557Y11571429D02*
X30451414Y11571429D01*
X30451414Y11571429D02*
X30579985Y11528572D01*
X30579985Y11528572D02*
X30665700Y11442858D01*
X30665700Y11442858D02*
X30708557Y11314286D01*
X30708557Y11314286D02*
X30708557Y11228572D01*
X30708557Y12471429D02*
X30708557Y11957143D01*
X30708557Y12214286D02*
X29808557Y12214286D01*
X29808557Y12214286D02*
X29937128Y12128572D01*
X29937128Y12128572D02*
X30022842Y12042857D01*
X30022842Y12042857D02*
X30065700Y11957143D01*
X29808557Y13028572D02*
X29808557Y13114286D01*
X29808557Y13114286D02*
X29851414Y13200000D01*
X29851414Y13200000D02*
X29894271Y13242857D01*
X29894271Y13242857D02*
X29979985Y13285715D01*
X29979985Y13285715D02*
X30151414Y13328572D01*
X30151414Y13328572D02*
X30365700Y13328572D01*
X30365700Y13328572D02*
X30537128Y13285715D01*
X30537128Y13285715D02*
X30622842Y13242857D01*
X30622842Y13242857D02*
X30665700Y13200000D01*
X30665700Y13200000D02*
X30708557Y13114286D01*
X30708557Y13114286D02*
X30708557Y13028572D01*
X30708557Y13028572D02*
X30665700Y12942857D01*
X30665700Y12942857D02*
X30622842Y12900000D01*
X30622842Y12900000D02*
X30537128Y12857143D01*
X30537128Y12857143D02*
X30365700Y12814286D01*
X30365700Y12814286D02*
X30151414Y12814286D01*
X30151414Y12814286D02*
X29979985Y12857143D01*
X29979985Y12857143D02*
X29894271Y12900000D01*
X29894271Y12900000D02*
X29851414Y12942857D01*
X29851414Y12942857D02*
X29808557Y13028572D01*
X76314285Y58466443D02*
X76314285Y57737872D01*
X76314285Y57737872D02*
X76357142Y57652158D01*
X76357142Y57652158D02*
X76400000Y57609300D01*
X76400000Y57609300D02*
X76485714Y57566443D01*
X76485714Y57566443D02*
X76657142Y57566443D01*
X76657142Y57566443D02*
X76742857Y57609300D01*
X76742857Y57609300D02*
X76785714Y57652158D01*
X76785714Y57652158D02*
X76828571Y57737872D01*
X76828571Y57737872D02*
X76828571Y58466443D01*
X77171428Y58466443D02*
X77771428Y58466443D01*
X77771428Y58466443D02*
X77385714Y57566443D01*
X69508557Y11571429D02*
X70151414Y11571429D01*
X70151414Y11571429D02*
X70279985Y11528572D01*
X70279985Y11528572D02*
X70365700Y11442858D01*
X70365700Y11442858D02*
X70408557Y11314286D01*
X70408557Y11314286D02*
X70408557Y11228572D01*
X70408557Y12471429D02*
X70408557Y11957143D01*
X70408557Y12214286D02*
X69508557Y12214286D01*
X69508557Y12214286D02*
X69637128Y12128572D01*
X69637128Y12128572D02*
X69722842Y12042857D01*
X69722842Y12042857D02*
X69765700Y11957143D01*
X70408557Y13328572D02*
X70408557Y12814286D01*
X70408557Y13071429D02*
X69508557Y13071429D01*
X69508557Y13071429D02*
X69637128Y12985715D01*
X69637128Y12985715D02*
X69722842Y12900000D01*
X69722842Y12900000D02*
X69765700Y12814286D01*
X17314285Y56591443D02*
X17314285Y55862872D01*
X17314285Y55862872D02*
X17357142Y55777158D01*
X17357142Y55777158D02*
X17400000Y55734300D01*
X17400000Y55734300D02*
X17485714Y55691443D01*
X17485714Y55691443D02*
X17657142Y55691443D01*
X17657142Y55691443D02*
X17742857Y55734300D01*
X17742857Y55734300D02*
X17785714Y55777158D01*
X17785714Y55777158D02*
X17828571Y55862872D01*
X17828571Y55862872D02*
X17828571Y56591443D01*
X18171428Y56591443D02*
X18728571Y56591443D01*
X18728571Y56591443D02*
X18428571Y56248586D01*
X18428571Y56248586D02*
X18557142Y56248586D01*
X18557142Y56248586D02*
X18642857Y56205729D01*
X18642857Y56205729D02*
X18685714Y56162872D01*
X18685714Y56162872D02*
X18728571Y56077158D01*
X18728571Y56077158D02*
X18728571Y55862872D01*
X18728571Y55862872D02*
X18685714Y55777158D01*
X18685714Y55777158D02*
X18642857Y55734300D01*
X18642857Y55734300D02*
X18557142Y55691443D01*
X18557142Y55691443D02*
X18299999Y55691443D01*
X18299999Y55691443D02*
X18214285Y55734300D01*
X18214285Y55734300D02*
X18171428Y55777158D01*
X26050000Y53391443D02*
X25750000Y53820015D01*
X25535714Y53391443D02*
X25535714Y54291443D01*
X25535714Y54291443D02*
X25878571Y54291443D01*
X25878571Y54291443D02*
X25964286Y54248586D01*
X25964286Y54248586D02*
X26007143Y54205729D01*
X26007143Y54205729D02*
X26050000Y54120015D01*
X26050000Y54120015D02*
X26050000Y53991443D01*
X26050000Y53991443D02*
X26007143Y53905729D01*
X26007143Y53905729D02*
X25964286Y53862872D01*
X25964286Y53862872D02*
X25878571Y53820015D01*
X25878571Y53820015D02*
X25535714Y53820015D01*
X26350000Y54291443D02*
X26907143Y54291443D01*
X26907143Y54291443D02*
X26607143Y53948586D01*
X26607143Y53948586D02*
X26735714Y53948586D01*
X26735714Y53948586D02*
X26821429Y53905729D01*
X26821429Y53905729D02*
X26864286Y53862872D01*
X26864286Y53862872D02*
X26907143Y53777158D01*
X26907143Y53777158D02*
X26907143Y53562872D01*
X26907143Y53562872D02*
X26864286Y53477158D01*
X26864286Y53477158D02*
X26821429Y53434300D01*
X26821429Y53434300D02*
X26735714Y53391443D01*
X26735714Y53391443D02*
X26478571Y53391443D01*
X26478571Y53391443D02*
X26392857Y53434300D01*
X26392857Y53434300D02*
X26350000Y53477158D01*
X85421428Y34952158D02*
X85378571Y34909300D01*
X85378571Y34909300D02*
X85249999Y34866443D01*
X85249999Y34866443D02*
X85164285Y34866443D01*
X85164285Y34866443D02*
X85035714Y34909300D01*
X85035714Y34909300D02*
X84949999Y34995015D01*
X84949999Y34995015D02*
X84907142Y35080729D01*
X84907142Y35080729D02*
X84864285Y35252158D01*
X84864285Y35252158D02*
X84864285Y35380729D01*
X84864285Y35380729D02*
X84907142Y35552158D01*
X84907142Y35552158D02*
X84949999Y35637872D01*
X84949999Y35637872D02*
X85035714Y35723586D01*
X85035714Y35723586D02*
X85164285Y35766443D01*
X85164285Y35766443D02*
X85249999Y35766443D01*
X85249999Y35766443D02*
X85378571Y35723586D01*
X85378571Y35723586D02*
X85421428Y35680729D01*
X86278571Y34866443D02*
X85764285Y34866443D01*
X86021428Y34866443D02*
X86021428Y35766443D01*
X86021428Y35766443D02*
X85935714Y35637872D01*
X85935714Y35637872D02*
X85849999Y35552158D01*
X85849999Y35552158D02*
X85764285Y35509300D01*
X86707142Y34866443D02*
X86878571Y34866443D01*
X86878571Y34866443D02*
X86964285Y34909300D01*
X86964285Y34909300D02*
X87007142Y34952158D01*
X87007142Y34952158D02*
X87092857Y35080729D01*
X87092857Y35080729D02*
X87135714Y35252158D01*
X87135714Y35252158D02*
X87135714Y35595015D01*
X87135714Y35595015D02*
X87092857Y35680729D01*
X87092857Y35680729D02*
X87050000Y35723586D01*
X87050000Y35723586D02*
X86964285Y35766443D01*
X86964285Y35766443D02*
X86792857Y35766443D01*
X86792857Y35766443D02*
X86707142Y35723586D01*
X86707142Y35723586D02*
X86664285Y35680729D01*
X86664285Y35680729D02*
X86621428Y35595015D01*
X86621428Y35595015D02*
X86621428Y35380729D01*
X86621428Y35380729D02*
X86664285Y35295015D01*
X86664285Y35295015D02*
X86707142Y35252158D01*
X86707142Y35252158D02*
X86792857Y35209300D01*
X86792857Y35209300D02*
X86964285Y35209300D01*
X86964285Y35209300D02*
X87050000Y35252158D01*
X87050000Y35252158D02*
X87092857Y35295015D01*
X87092857Y35295015D02*
X87135714Y35380729D01*
X103908557Y76042858D02*
X103008557Y76042858D01*
X103008557Y76042858D02*
X103008557Y76385715D01*
X103008557Y76385715D02*
X103051414Y76471430D01*
X103051414Y76471430D02*
X103094271Y76514287D01*
X103094271Y76514287D02*
X103179985Y76557144D01*
X103179985Y76557144D02*
X103308557Y76557144D01*
X103308557Y76557144D02*
X103394271Y76514287D01*
X103394271Y76514287D02*
X103437128Y76471430D01*
X103437128Y76471430D02*
X103479985Y76385715D01*
X103479985Y76385715D02*
X103479985Y76042858D01*
X103008557Y76814287D02*
X103008557Y77328572D01*
X103908557Y77071430D02*
X103008557Y77071430D01*
X103822842Y78142858D02*
X103865700Y78100001D01*
X103865700Y78100001D02*
X103908557Y77971429D01*
X103908557Y77971429D02*
X103908557Y77885715D01*
X103908557Y77885715D02*
X103865700Y77757144D01*
X103865700Y77757144D02*
X103779985Y77671429D01*
X103779985Y77671429D02*
X103694271Y77628572D01*
X103694271Y77628572D02*
X103522842Y77585715D01*
X103522842Y77585715D02*
X103394271Y77585715D01*
X103394271Y77585715D02*
X103222842Y77628572D01*
X103222842Y77628572D02*
X103137128Y77671429D01*
X103137128Y77671429D02*
X103051414Y77757144D01*
X103051414Y77757144D02*
X103008557Y77885715D01*
X103008557Y77885715D02*
X103008557Y77971429D01*
X103008557Y77971429D02*
X103051414Y78100001D01*
X103051414Y78100001D02*
X103094271Y78142858D01*
X103908557Y79000001D02*
X103908557Y78485715D01*
X103908557Y78742858D02*
X103008557Y78742858D01*
X103008557Y78742858D02*
X103137128Y78657144D01*
X103137128Y78657144D02*
X103222842Y78571429D01*
X103222842Y78571429D02*
X103265700Y78485715D01*
X81108557Y32021429D02*
X80679985Y31721429D01*
X81108557Y31507143D02*
X80208557Y31507143D01*
X80208557Y31507143D02*
X80208557Y31850000D01*
X80208557Y31850000D02*
X80251414Y31935715D01*
X80251414Y31935715D02*
X80294271Y31978572D01*
X80294271Y31978572D02*
X80379985Y32021429D01*
X80379985Y32021429D02*
X80508557Y32021429D01*
X80508557Y32021429D02*
X80594271Y31978572D01*
X80594271Y31978572D02*
X80637128Y31935715D01*
X80637128Y31935715D02*
X80679985Y31850000D01*
X80679985Y31850000D02*
X80679985Y31507143D01*
X80294271Y32364286D02*
X80251414Y32407143D01*
X80251414Y32407143D02*
X80208557Y32492857D01*
X80208557Y32492857D02*
X80208557Y32707143D01*
X80208557Y32707143D02*
X80251414Y32792857D01*
X80251414Y32792857D02*
X80294271Y32835715D01*
X80294271Y32835715D02*
X80379985Y32878572D01*
X80379985Y32878572D02*
X80465700Y32878572D01*
X80465700Y32878572D02*
X80594271Y32835715D01*
X80594271Y32835715D02*
X81108557Y32321429D01*
X81108557Y32321429D02*
X81108557Y32878572D01*
X80208557Y33650000D02*
X80208557Y33478572D01*
X80208557Y33478572D02*
X80251414Y33392858D01*
X80251414Y33392858D02*
X80294271Y33350000D01*
X80294271Y33350000D02*
X80422842Y33264286D01*
X80422842Y33264286D02*
X80594271Y33221429D01*
X80594271Y33221429D02*
X80937128Y33221429D01*
X80937128Y33221429D02*
X81022842Y33264286D01*
X81022842Y33264286D02*
X81065700Y33307143D01*
X81065700Y33307143D02*
X81108557Y33392858D01*
X81108557Y33392858D02*
X81108557Y33564286D01*
X81108557Y33564286D02*
X81065700Y33650000D01*
X81065700Y33650000D02*
X81022842Y33692858D01*
X81022842Y33692858D02*
X80937128Y33735715D01*
X80937128Y33735715D02*
X80722842Y33735715D01*
X80722842Y33735715D02*
X80637128Y33692858D01*
X80637128Y33692858D02*
X80594271Y33650000D01*
X80594271Y33650000D02*
X80551414Y33564286D01*
X80551414Y33564286D02*
X80551414Y33392858D01*
X80551414Y33392858D02*
X80594271Y33307143D01*
X80594271Y33307143D02*
X80637128Y33264286D01*
X80637128Y33264286D02*
X80722842Y33221429D01*
X105021428Y9277158D02*
X104978571Y9234300D01*
X104978571Y9234300D02*
X104849999Y9191443D01*
X104849999Y9191443D02*
X104764285Y9191443D01*
X104764285Y9191443D02*
X104635714Y9234300D01*
X104635714Y9234300D02*
X104549999Y9320015D01*
X104549999Y9320015D02*
X104507142Y9405729D01*
X104507142Y9405729D02*
X104464285Y9577158D01*
X104464285Y9577158D02*
X104464285Y9705729D01*
X104464285Y9705729D02*
X104507142Y9877158D01*
X104507142Y9877158D02*
X104549999Y9962872D01*
X104549999Y9962872D02*
X104635714Y10048586D01*
X104635714Y10048586D02*
X104764285Y10091443D01*
X104764285Y10091443D02*
X104849999Y10091443D01*
X104849999Y10091443D02*
X104978571Y10048586D01*
X104978571Y10048586D02*
X105021428Y10005729D01*
X105364285Y10005729D02*
X105407142Y10048586D01*
X105407142Y10048586D02*
X105492857Y10091443D01*
X105492857Y10091443D02*
X105707142Y10091443D01*
X105707142Y10091443D02*
X105792857Y10048586D01*
X105792857Y10048586D02*
X105835714Y10005729D01*
X105835714Y10005729D02*
X105878571Y9920015D01*
X105878571Y9920015D02*
X105878571Y9834300D01*
X105878571Y9834300D02*
X105835714Y9705729D01*
X105835714Y9705729D02*
X105321428Y9191443D01*
X105321428Y9191443D02*
X105878571Y9191443D01*
X106692857Y10091443D02*
X106264285Y10091443D01*
X106264285Y10091443D02*
X106221428Y9662872D01*
X106221428Y9662872D02*
X106264285Y9705729D01*
X106264285Y9705729D02*
X106350000Y9748586D01*
X106350000Y9748586D02*
X106564285Y9748586D01*
X106564285Y9748586D02*
X106650000Y9705729D01*
X106650000Y9705729D02*
X106692857Y9662872D01*
X106692857Y9662872D02*
X106735714Y9577158D01*
X106735714Y9577158D02*
X106735714Y9362872D01*
X106735714Y9362872D02*
X106692857Y9277158D01*
X106692857Y9277158D02*
X106650000Y9234300D01*
X106650000Y9234300D02*
X106564285Y9191443D01*
X106564285Y9191443D02*
X106350000Y9191443D01*
X106350000Y9191443D02*
X106264285Y9234300D01*
X106264285Y9234300D02*
X106221428Y9277158D01*
X15314285Y32491443D02*
X15314285Y31762872D01*
X15314285Y31762872D02*
X15357142Y31677158D01*
X15357142Y31677158D02*
X15400000Y31634300D01*
X15400000Y31634300D02*
X15485714Y31591443D01*
X15485714Y31591443D02*
X15657142Y31591443D01*
X15657142Y31591443D02*
X15742857Y31634300D01*
X15742857Y31634300D02*
X15785714Y31677158D01*
X15785714Y31677158D02*
X15828571Y31762872D01*
X15828571Y31762872D02*
X15828571Y32491443D01*
X16642857Y32191443D02*
X16642857Y31591443D01*
X16428571Y32534300D02*
X16214285Y31891443D01*
X16214285Y31891443D02*
X16771428Y31891443D01*
X24508557Y59150001D02*
X24079985Y58850001D01*
X24508557Y58635715D02*
X23608557Y58635715D01*
X23608557Y58635715D02*
X23608557Y58978572D01*
X23608557Y58978572D02*
X23651414Y59064287D01*
X23651414Y59064287D02*
X23694271Y59107144D01*
X23694271Y59107144D02*
X23779985Y59150001D01*
X23779985Y59150001D02*
X23908557Y59150001D01*
X23908557Y59150001D02*
X23994271Y59107144D01*
X23994271Y59107144D02*
X24037128Y59064287D01*
X24037128Y59064287D02*
X24079985Y58978572D01*
X24079985Y58978572D02*
X24079985Y58635715D01*
X23908557Y59921429D02*
X24508557Y59921429D01*
X23565700Y59707144D02*
X24208557Y59492858D01*
X24208557Y59492858D02*
X24208557Y60050001D01*
X100542857Y59756444D02*
X100542857Y60656444D01*
X100542857Y60656444D02*
X100885714Y60656444D01*
X100885714Y60656444D02*
X100971429Y60613587D01*
X100971429Y60613587D02*
X101014286Y60570730D01*
X101014286Y60570730D02*
X101057143Y60485016D01*
X101057143Y60485016D02*
X101057143Y60356444D01*
X101057143Y60356444D02*
X101014286Y60270730D01*
X101014286Y60270730D02*
X100971429Y60227873D01*
X100971429Y60227873D02*
X100885714Y60185016D01*
X100885714Y60185016D02*
X100542857Y60185016D01*
X101314286Y60656444D02*
X101828572Y60656444D01*
X101571429Y59756444D02*
X101571429Y60656444D01*
X102642857Y59842159D02*
X102600000Y59799301D01*
X102600000Y59799301D02*
X102471428Y59756444D01*
X102471428Y59756444D02*
X102385714Y59756444D01*
X102385714Y59756444D02*
X102257143Y59799301D01*
X102257143Y59799301D02*
X102171428Y59885016D01*
X102171428Y59885016D02*
X102128571Y59970730D01*
X102128571Y59970730D02*
X102085714Y60142159D01*
X102085714Y60142159D02*
X102085714Y60270730D01*
X102085714Y60270730D02*
X102128571Y60442159D01*
X102128571Y60442159D02*
X102171428Y60527873D01*
X102171428Y60527873D02*
X102257143Y60613587D01*
X102257143Y60613587D02*
X102385714Y60656444D01*
X102385714Y60656444D02*
X102471428Y60656444D01*
X102471428Y60656444D02*
X102600000Y60613587D01*
X102600000Y60613587D02*
X102642857Y60570730D01*
X102985714Y60570730D02*
X103028571Y60613587D01*
X103028571Y60613587D02*
X103114286Y60656444D01*
X103114286Y60656444D02*
X103328571Y60656444D01*
X103328571Y60656444D02*
X103414286Y60613587D01*
X103414286Y60613587D02*
X103457143Y60570730D01*
X103457143Y60570730D02*
X103500000Y60485016D01*
X103500000Y60485016D02*
X103500000Y60399301D01*
X103500000Y60399301D02*
X103457143Y60270730D01*
X103457143Y60270730D02*
X102942857Y59756444D01*
X102942857Y59756444D02*
X103500000Y59756444D01*
X27421428Y81377158D02*
X27378571Y81334300D01*
X27378571Y81334300D02*
X27249999Y81291443D01*
X27249999Y81291443D02*
X27164285Y81291443D01*
X27164285Y81291443D02*
X27035714Y81334300D01*
X27035714Y81334300D02*
X26949999Y81420015D01*
X26949999Y81420015D02*
X26907142Y81505729D01*
X26907142Y81505729D02*
X26864285Y81677158D01*
X26864285Y81677158D02*
X26864285Y81805729D01*
X26864285Y81805729D02*
X26907142Y81977158D01*
X26907142Y81977158D02*
X26949999Y82062872D01*
X26949999Y82062872D02*
X27035714Y82148586D01*
X27035714Y82148586D02*
X27164285Y82191443D01*
X27164285Y82191443D02*
X27249999Y82191443D01*
X27249999Y82191443D02*
X27378571Y82148586D01*
X27378571Y82148586D02*
X27421428Y82105729D01*
X28192857Y81891443D02*
X28192857Y81291443D01*
X27978571Y82234300D02*
X27764285Y81591443D01*
X27764285Y81591443D02*
X28321428Y81591443D01*
X29050000Y82191443D02*
X28878571Y82191443D01*
X28878571Y82191443D02*
X28792857Y82148586D01*
X28792857Y82148586D02*
X28750000Y82105729D01*
X28750000Y82105729D02*
X28664285Y81977158D01*
X28664285Y81977158D02*
X28621428Y81805729D01*
X28621428Y81805729D02*
X28621428Y81462872D01*
X28621428Y81462872D02*
X28664285Y81377158D01*
X28664285Y81377158D02*
X28707142Y81334300D01*
X28707142Y81334300D02*
X28792857Y81291443D01*
X28792857Y81291443D02*
X28964285Y81291443D01*
X28964285Y81291443D02*
X29050000Y81334300D01*
X29050000Y81334300D02*
X29092857Y81377158D01*
X29092857Y81377158D02*
X29135714Y81462872D01*
X29135714Y81462872D02*
X29135714Y81677158D01*
X29135714Y81677158D02*
X29092857Y81762872D01*
X29092857Y81762872D02*
X29050000Y81805729D01*
X29050000Y81805729D02*
X28964285Y81848586D01*
X28964285Y81848586D02*
X28792857Y81848586D01*
X28792857Y81848586D02*
X28707142Y81805729D01*
X28707142Y81805729D02*
X28664285Y81762872D01*
X28664285Y81762872D02*
X28621428Y81677158D01*
X102608557Y22900001D02*
X102608557Y23414286D01*
X103508557Y23157144D02*
X102608557Y23157144D01*
X102608557Y23585715D02*
X103508557Y23885715D01*
X103508557Y23885715D02*
X102608557Y24185715D01*
X103465700Y24442858D02*
X103508557Y24571429D01*
X103508557Y24571429D02*
X103508557Y24785715D01*
X103508557Y24785715D02*
X103465700Y24871429D01*
X103465700Y24871429D02*
X103422842Y24914287D01*
X103422842Y24914287D02*
X103337128Y24957144D01*
X103337128Y24957144D02*
X103251414Y24957144D01*
X103251414Y24957144D02*
X103165700Y24914287D01*
X103165700Y24914287D02*
X103122842Y24871429D01*
X103122842Y24871429D02*
X103079985Y24785715D01*
X103079985Y24785715D02*
X103037128Y24614287D01*
X103037128Y24614287D02*
X102994271Y24528572D01*
X102994271Y24528572D02*
X102951414Y24485715D01*
X102951414Y24485715D02*
X102865700Y24442858D01*
X102865700Y24442858D02*
X102779985Y24442858D01*
X102779985Y24442858D02*
X102694271Y24485715D01*
X102694271Y24485715D02*
X102651414Y24528572D01*
X102651414Y24528572D02*
X102608557Y24614287D01*
X102608557Y24614287D02*
X102608557Y24828572D01*
X102608557Y24828572D02*
X102651414Y24957144D01*
X102608557Y25257144D02*
X102608557Y25814287D01*
X102608557Y25814287D02*
X102951414Y25514287D01*
X102951414Y25514287D02*
X102951414Y25642858D01*
X102951414Y25642858D02*
X102994271Y25728572D01*
X102994271Y25728572D02*
X103037128Y25771430D01*
X103037128Y25771430D02*
X103122842Y25814287D01*
X103122842Y25814287D02*
X103337128Y25814287D01*
X103337128Y25814287D02*
X103422842Y25771430D01*
X103422842Y25771430D02*
X103465700Y25728572D01*
X103465700Y25728572D02*
X103508557Y25642858D01*
X103508557Y25642858D02*
X103508557Y25385715D01*
X103508557Y25385715D02*
X103465700Y25300001D01*
X103465700Y25300001D02*
X103422842Y25257144D01*
X42850000Y68952158D02*
X42807143Y68909300D01*
X42807143Y68909300D02*
X42678571Y68866443D01*
X42678571Y68866443D02*
X42592857Y68866443D01*
X42592857Y68866443D02*
X42464286Y68909300D01*
X42464286Y68909300D02*
X42378571Y68995015D01*
X42378571Y68995015D02*
X42335714Y69080729D01*
X42335714Y69080729D02*
X42292857Y69252158D01*
X42292857Y69252158D02*
X42292857Y69380729D01*
X42292857Y69380729D02*
X42335714Y69552158D01*
X42335714Y69552158D02*
X42378571Y69637872D01*
X42378571Y69637872D02*
X42464286Y69723586D01*
X42464286Y69723586D02*
X42592857Y69766443D01*
X42592857Y69766443D02*
X42678571Y69766443D01*
X42678571Y69766443D02*
X42807143Y69723586D01*
X42807143Y69723586D02*
X42850000Y69680729D01*
X43621429Y69766443D02*
X43450000Y69766443D01*
X43450000Y69766443D02*
X43364286Y69723586D01*
X43364286Y69723586D02*
X43321429Y69680729D01*
X43321429Y69680729D02*
X43235714Y69552158D01*
X43235714Y69552158D02*
X43192857Y69380729D01*
X43192857Y69380729D02*
X43192857Y69037872D01*
X43192857Y69037872D02*
X43235714Y68952158D01*
X43235714Y68952158D02*
X43278571Y68909300D01*
X43278571Y68909300D02*
X43364286Y68866443D01*
X43364286Y68866443D02*
X43535714Y68866443D01*
X43535714Y68866443D02*
X43621429Y68909300D01*
X43621429Y68909300D02*
X43664286Y68952158D01*
X43664286Y68952158D02*
X43707143Y69037872D01*
X43707143Y69037872D02*
X43707143Y69252158D01*
X43707143Y69252158D02*
X43664286Y69337872D01*
X43664286Y69337872D02*
X43621429Y69380729D01*
X43621429Y69380729D02*
X43535714Y69423586D01*
X43535714Y69423586D02*
X43364286Y69423586D01*
X43364286Y69423586D02*
X43278571Y69380729D01*
X43278571Y69380729D02*
X43235714Y69337872D01*
X43235714Y69337872D02*
X43192857Y69252158D01*
X31022842Y43850001D02*
X31065700Y43807144D01*
X31065700Y43807144D02*
X31108557Y43678572D01*
X31108557Y43678572D02*
X31108557Y43592858D01*
X31108557Y43592858D02*
X31065700Y43464287D01*
X31065700Y43464287D02*
X30979985Y43378572D01*
X30979985Y43378572D02*
X30894271Y43335715D01*
X30894271Y43335715D02*
X30722842Y43292858D01*
X30722842Y43292858D02*
X30594271Y43292858D01*
X30594271Y43292858D02*
X30422842Y43335715D01*
X30422842Y43335715D02*
X30337128Y43378572D01*
X30337128Y43378572D02*
X30251414Y43464287D01*
X30251414Y43464287D02*
X30208557Y43592858D01*
X30208557Y43592858D02*
X30208557Y43678572D01*
X30208557Y43678572D02*
X30251414Y43807144D01*
X30251414Y43807144D02*
X30294271Y43850001D01*
X30594271Y44364287D02*
X30551414Y44278572D01*
X30551414Y44278572D02*
X30508557Y44235715D01*
X30508557Y44235715D02*
X30422842Y44192858D01*
X30422842Y44192858D02*
X30379985Y44192858D01*
X30379985Y44192858D02*
X30294271Y44235715D01*
X30294271Y44235715D02*
X30251414Y44278572D01*
X30251414Y44278572D02*
X30208557Y44364287D01*
X30208557Y44364287D02*
X30208557Y44535715D01*
X30208557Y44535715D02*
X30251414Y44621429D01*
X30251414Y44621429D02*
X30294271Y44664287D01*
X30294271Y44664287D02*
X30379985Y44707144D01*
X30379985Y44707144D02*
X30422842Y44707144D01*
X30422842Y44707144D02*
X30508557Y44664287D01*
X30508557Y44664287D02*
X30551414Y44621429D01*
X30551414Y44621429D02*
X30594271Y44535715D01*
X30594271Y44535715D02*
X30594271Y44364287D01*
X30594271Y44364287D02*
X30637128Y44278572D01*
X30637128Y44278572D02*
X30679985Y44235715D01*
X30679985Y44235715D02*
X30765700Y44192858D01*
X30765700Y44192858D02*
X30937128Y44192858D01*
X30937128Y44192858D02*
X31022842Y44235715D01*
X31022842Y44235715D02*
X31065700Y44278572D01*
X31065700Y44278572D02*
X31108557Y44364287D01*
X31108557Y44364287D02*
X31108557Y44535715D01*
X31108557Y44535715D02*
X31065700Y44621429D01*
X31065700Y44621429D02*
X31022842Y44664287D01*
X31022842Y44664287D02*
X30937128Y44707144D01*
X30937128Y44707144D02*
X30765700Y44707144D01*
X30765700Y44707144D02*
X30679985Y44664287D01*
X30679985Y44664287D02*
X30637128Y44621429D01*
X30637128Y44621429D02*
X30594271Y44535715D01*
X65322842Y69421429D02*
X65365700Y69378572D01*
X65365700Y69378572D02*
X65408557Y69250000D01*
X65408557Y69250000D02*
X65408557Y69164286D01*
X65408557Y69164286D02*
X65365700Y69035715D01*
X65365700Y69035715D02*
X65279985Y68950000D01*
X65279985Y68950000D02*
X65194271Y68907143D01*
X65194271Y68907143D02*
X65022842Y68864286D01*
X65022842Y68864286D02*
X64894271Y68864286D01*
X64894271Y68864286D02*
X64722842Y68907143D01*
X64722842Y68907143D02*
X64637128Y68950000D01*
X64637128Y68950000D02*
X64551414Y69035715D01*
X64551414Y69035715D02*
X64508557Y69164286D01*
X64508557Y69164286D02*
X64508557Y69250000D01*
X64508557Y69250000D02*
X64551414Y69378572D01*
X64551414Y69378572D02*
X64594271Y69421429D01*
X64508557Y69721429D02*
X64508557Y70278572D01*
X64508557Y70278572D02*
X64851414Y69978572D01*
X64851414Y69978572D02*
X64851414Y70107143D01*
X64851414Y70107143D02*
X64894271Y70192857D01*
X64894271Y70192857D02*
X64937128Y70235715D01*
X64937128Y70235715D02*
X65022842Y70278572D01*
X65022842Y70278572D02*
X65237128Y70278572D01*
X65237128Y70278572D02*
X65322842Y70235715D01*
X65322842Y70235715D02*
X65365700Y70192857D01*
X65365700Y70192857D02*
X65408557Y70107143D01*
X65408557Y70107143D02*
X65408557Y69850000D01*
X65408557Y69850000D02*
X65365700Y69764286D01*
X65365700Y69764286D02*
X65322842Y69721429D01*
X64508557Y70578572D02*
X64508557Y71178572D01*
X64508557Y71178572D02*
X65408557Y70792858D01*
X105500000Y72391443D02*
X106014286Y72391443D01*
X105757143Y71491443D02*
X105757143Y72391443D01*
X106185714Y72391443D02*
X106485714Y71491443D01*
X106485714Y71491443D02*
X106785714Y72391443D01*
X107042857Y71534300D02*
X107171429Y71491443D01*
X107171429Y71491443D02*
X107385714Y71491443D01*
X107385714Y71491443D02*
X107471429Y71534300D01*
X107471429Y71534300D02*
X107514286Y71577158D01*
X107514286Y71577158D02*
X107557143Y71662872D01*
X107557143Y71662872D02*
X107557143Y71748586D01*
X107557143Y71748586D02*
X107514286Y71834300D01*
X107514286Y71834300D02*
X107471429Y71877158D01*
X107471429Y71877158D02*
X107385714Y71920015D01*
X107385714Y71920015D02*
X107214286Y71962872D01*
X107214286Y71962872D02*
X107128571Y72005729D01*
X107128571Y72005729D02*
X107085714Y72048586D01*
X107085714Y72048586D02*
X107042857Y72134300D01*
X107042857Y72134300D02*
X107042857Y72220015D01*
X107042857Y72220015D02*
X107085714Y72305729D01*
X107085714Y72305729D02*
X107128571Y72348586D01*
X107128571Y72348586D02*
X107214286Y72391443D01*
X107214286Y72391443D02*
X107428571Y72391443D01*
X107428571Y72391443D02*
X107557143Y72348586D01*
X108414286Y71491443D02*
X107900000Y71491443D01*
X108157143Y71491443D02*
X108157143Y72391443D01*
X108157143Y72391443D02*
X108071429Y72262872D01*
X108071429Y72262872D02*
X107985714Y72177158D01*
X107985714Y72177158D02*
X107900000Y72134300D01*
X3933333Y17737705D02*
X3933333Y17166277D01*
X3933333Y17166277D02*
X3895238Y17051991D01*
X3895238Y17051991D02*
X3819047Y16975800D01*
X3819047Y16975800D02*
X3704762Y16937705D01*
X3704762Y16937705D02*
X3628571Y16937705D01*
X4238095Y17737705D02*
X4771429Y17737705D01*
X4771429Y17737705D02*
X4428571Y16937705D01*
X43421428Y77512158D02*
X43378571Y77469300D01*
X43378571Y77469300D02*
X43249999Y77426443D01*
X43249999Y77426443D02*
X43164285Y77426443D01*
X43164285Y77426443D02*
X43035714Y77469300D01*
X43035714Y77469300D02*
X42949999Y77555015D01*
X42949999Y77555015D02*
X42907142Y77640729D01*
X42907142Y77640729D02*
X42864285Y77812158D01*
X42864285Y77812158D02*
X42864285Y77940729D01*
X42864285Y77940729D02*
X42907142Y78112158D01*
X42907142Y78112158D02*
X42949999Y78197872D01*
X42949999Y78197872D02*
X43035714Y78283586D01*
X43035714Y78283586D02*
X43164285Y78326443D01*
X43164285Y78326443D02*
X43249999Y78326443D01*
X43249999Y78326443D02*
X43378571Y78283586D01*
X43378571Y78283586D02*
X43421428Y78240729D01*
X43721428Y78326443D02*
X44278571Y78326443D01*
X44278571Y78326443D02*
X43978571Y77983586D01*
X43978571Y77983586D02*
X44107142Y77983586D01*
X44107142Y77983586D02*
X44192857Y77940729D01*
X44192857Y77940729D02*
X44235714Y77897872D01*
X44235714Y77897872D02*
X44278571Y77812158D01*
X44278571Y77812158D02*
X44278571Y77597872D01*
X44278571Y77597872D02*
X44235714Y77512158D01*
X44235714Y77512158D02*
X44192857Y77469300D01*
X44192857Y77469300D02*
X44107142Y77426443D01*
X44107142Y77426443D02*
X43849999Y77426443D01*
X43849999Y77426443D02*
X43764285Y77469300D01*
X43764285Y77469300D02*
X43721428Y77512158D01*
X44792857Y77940729D02*
X44707142Y77983586D01*
X44707142Y77983586D02*
X44664285Y78026443D01*
X44664285Y78026443D02*
X44621428Y78112158D01*
X44621428Y78112158D02*
X44621428Y78155015D01*
X44621428Y78155015D02*
X44664285Y78240729D01*
X44664285Y78240729D02*
X44707142Y78283586D01*
X44707142Y78283586D02*
X44792857Y78326443D01*
X44792857Y78326443D02*
X44964285Y78326443D01*
X44964285Y78326443D02*
X45050000Y78283586D01*
X45050000Y78283586D02*
X45092857Y78240729D01*
X45092857Y78240729D02*
X45135714Y78155015D01*
X45135714Y78155015D02*
X45135714Y78112158D01*
X45135714Y78112158D02*
X45092857Y78026443D01*
X45092857Y78026443D02*
X45050000Y77983586D01*
X45050000Y77983586D02*
X44964285Y77940729D01*
X44964285Y77940729D02*
X44792857Y77940729D01*
X44792857Y77940729D02*
X44707142Y77897872D01*
X44707142Y77897872D02*
X44664285Y77855015D01*
X44664285Y77855015D02*
X44621428Y77769300D01*
X44621428Y77769300D02*
X44621428Y77597872D01*
X44621428Y77597872D02*
X44664285Y77512158D01*
X44664285Y77512158D02*
X44707142Y77469300D01*
X44707142Y77469300D02*
X44792857Y77426443D01*
X44792857Y77426443D02*
X44964285Y77426443D01*
X44964285Y77426443D02*
X45050000Y77469300D01*
X45050000Y77469300D02*
X45092857Y77512158D01*
X45092857Y77512158D02*
X45135714Y77597872D01*
X45135714Y77597872D02*
X45135714Y77769300D01*
X45135714Y77769300D02*
X45092857Y77855015D01*
X45092857Y77855015D02*
X45050000Y77897872D01*
X45050000Y77897872D02*
X44964285Y77940729D01*
X57450000Y78977158D02*
X57407143Y78934300D01*
X57407143Y78934300D02*
X57278571Y78891443D01*
X57278571Y78891443D02*
X57192857Y78891443D01*
X57192857Y78891443D02*
X57064286Y78934300D01*
X57064286Y78934300D02*
X56978571Y79020015D01*
X56978571Y79020015D02*
X56935714Y79105729D01*
X56935714Y79105729D02*
X56892857Y79277158D01*
X56892857Y79277158D02*
X56892857Y79405729D01*
X56892857Y79405729D02*
X56935714Y79577158D01*
X56935714Y79577158D02*
X56978571Y79662872D01*
X56978571Y79662872D02*
X57064286Y79748586D01*
X57064286Y79748586D02*
X57192857Y79791443D01*
X57192857Y79791443D02*
X57278571Y79791443D01*
X57278571Y79791443D02*
X57407143Y79748586D01*
X57407143Y79748586D02*
X57450000Y79705729D01*
X57750000Y79791443D02*
X58307143Y79791443D01*
X58307143Y79791443D02*
X58007143Y79448586D01*
X58007143Y79448586D02*
X58135714Y79448586D01*
X58135714Y79448586D02*
X58221429Y79405729D01*
X58221429Y79405729D02*
X58264286Y79362872D01*
X58264286Y79362872D02*
X58307143Y79277158D01*
X58307143Y79277158D02*
X58307143Y79062872D01*
X58307143Y79062872D02*
X58264286Y78977158D01*
X58264286Y78977158D02*
X58221429Y78934300D01*
X58221429Y78934300D02*
X58135714Y78891443D01*
X58135714Y78891443D02*
X57878571Y78891443D01*
X57878571Y78891443D02*
X57792857Y78934300D01*
X57792857Y78934300D02*
X57750000Y78977158D01*
X32850000Y29791443D02*
X32550000Y30220015D01*
X32335714Y29791443D02*
X32335714Y30691443D01*
X32335714Y30691443D02*
X32678571Y30691443D01*
X32678571Y30691443D02*
X32764286Y30648586D01*
X32764286Y30648586D02*
X32807143Y30605729D01*
X32807143Y30605729D02*
X32850000Y30520015D01*
X32850000Y30520015D02*
X32850000Y30391443D01*
X32850000Y30391443D02*
X32807143Y30305729D01*
X32807143Y30305729D02*
X32764286Y30262872D01*
X32764286Y30262872D02*
X32678571Y30220015D01*
X32678571Y30220015D02*
X32335714Y30220015D01*
X33664286Y30691443D02*
X33235714Y30691443D01*
X33235714Y30691443D02*
X33192857Y30262872D01*
X33192857Y30262872D02*
X33235714Y30305729D01*
X33235714Y30305729D02*
X33321429Y30348586D01*
X33321429Y30348586D02*
X33535714Y30348586D01*
X33535714Y30348586D02*
X33621429Y30305729D01*
X33621429Y30305729D02*
X33664286Y30262872D01*
X33664286Y30262872D02*
X33707143Y30177158D01*
X33707143Y30177158D02*
X33707143Y29962872D01*
X33707143Y29962872D02*
X33664286Y29877158D01*
X33664286Y29877158D02*
X33621429Y29834300D01*
X33621429Y29834300D02*
X33535714Y29791443D01*
X33535714Y29791443D02*
X33321429Y29791443D01*
X33321429Y29791443D02*
X33235714Y29834300D01*
X33235714Y29834300D02*
X33192857Y29877158D01*
X101921428Y73577158D02*
X101878571Y73534300D01*
X101878571Y73534300D02*
X101749999Y73491443D01*
X101749999Y73491443D02*
X101664285Y73491443D01*
X101664285Y73491443D02*
X101535714Y73534300D01*
X101535714Y73534300D02*
X101449999Y73620015D01*
X101449999Y73620015D02*
X101407142Y73705729D01*
X101407142Y73705729D02*
X101364285Y73877158D01*
X101364285Y73877158D02*
X101364285Y74005729D01*
X101364285Y74005729D02*
X101407142Y74177158D01*
X101407142Y74177158D02*
X101449999Y74262872D01*
X101449999Y74262872D02*
X101535714Y74348586D01*
X101535714Y74348586D02*
X101664285Y74391443D01*
X101664285Y74391443D02*
X101749999Y74391443D01*
X101749999Y74391443D02*
X101878571Y74348586D01*
X101878571Y74348586D02*
X101921428Y74305729D01*
X102264285Y74305729D02*
X102307142Y74348586D01*
X102307142Y74348586D02*
X102392857Y74391443D01*
X102392857Y74391443D02*
X102607142Y74391443D01*
X102607142Y74391443D02*
X102692857Y74348586D01*
X102692857Y74348586D02*
X102735714Y74305729D01*
X102735714Y74305729D02*
X102778571Y74220015D01*
X102778571Y74220015D02*
X102778571Y74134300D01*
X102778571Y74134300D02*
X102735714Y74005729D01*
X102735714Y74005729D02*
X102221428Y73491443D01*
X102221428Y73491443D02*
X102778571Y73491443D01*
X103635714Y73491443D02*
X103121428Y73491443D01*
X103378571Y73491443D02*
X103378571Y74391443D01*
X103378571Y74391443D02*
X103292857Y74262872D01*
X103292857Y74262872D02*
X103207142Y74177158D01*
X103207142Y74177158D02*
X103121428Y74134300D01*
X56421428Y39942158D02*
X56378571Y39899300D01*
X56378571Y39899300D02*
X56249999Y39856443D01*
X56249999Y39856443D02*
X56164285Y39856443D01*
X56164285Y39856443D02*
X56035714Y39899300D01*
X56035714Y39899300D02*
X55949999Y39985015D01*
X55949999Y39985015D02*
X55907142Y40070729D01*
X55907142Y40070729D02*
X55864285Y40242158D01*
X55864285Y40242158D02*
X55864285Y40370729D01*
X55864285Y40370729D02*
X55907142Y40542158D01*
X55907142Y40542158D02*
X55949999Y40627872D01*
X55949999Y40627872D02*
X56035714Y40713586D01*
X56035714Y40713586D02*
X56164285Y40756443D01*
X56164285Y40756443D02*
X56249999Y40756443D01*
X56249999Y40756443D02*
X56378571Y40713586D01*
X56378571Y40713586D02*
X56421428Y40670729D01*
X57278571Y39856443D02*
X56764285Y39856443D01*
X57021428Y39856443D02*
X57021428Y40756443D01*
X57021428Y40756443D02*
X56935714Y40627872D01*
X56935714Y40627872D02*
X56849999Y40542158D01*
X56849999Y40542158D02*
X56764285Y40499300D01*
X58050000Y40756443D02*
X57878571Y40756443D01*
X57878571Y40756443D02*
X57792857Y40713586D01*
X57792857Y40713586D02*
X57750000Y40670729D01*
X57750000Y40670729D02*
X57664285Y40542158D01*
X57664285Y40542158D02*
X57621428Y40370729D01*
X57621428Y40370729D02*
X57621428Y40027872D01*
X57621428Y40027872D02*
X57664285Y39942158D01*
X57664285Y39942158D02*
X57707142Y39899300D01*
X57707142Y39899300D02*
X57792857Y39856443D01*
X57792857Y39856443D02*
X57964285Y39856443D01*
X57964285Y39856443D02*
X58050000Y39899300D01*
X58050000Y39899300D02*
X58092857Y39942158D01*
X58092857Y39942158D02*
X58135714Y40027872D01*
X58135714Y40027872D02*
X58135714Y40242158D01*
X58135714Y40242158D02*
X58092857Y40327872D01*
X58092857Y40327872D02*
X58050000Y40370729D01*
X58050000Y40370729D02*
X57964285Y40413586D01*
X57964285Y40413586D02*
X57792857Y40413586D01*
X57792857Y40413586D02*
X57707142Y40370729D01*
X57707142Y40370729D02*
X57664285Y40327872D01*
X57664285Y40327872D02*
X57621428Y40242158D01*
%TO.C,C24*%
X56280000Y22420000D02*
X56280000Y14110000D01*
X56280000Y14110000D02*
X58410000Y11970000D01*
X58410000Y11970000D02*
X60650000Y11970000D01*
X60650000Y22420000D02*
X56280000Y22420000D01*
X62350000Y22420000D02*
X66730000Y22420000D01*
X64590000Y11970000D02*
X62350000Y11970000D01*
X66730000Y22420000D02*
X66730000Y14110000D01*
X66730000Y14110000D02*
X64590000Y11970000D01*
%TO.C,C42*%
X85620000Y28380000D02*
X90980000Y28380000D01*
X85620000Y21620000D02*
X90980000Y21620000D01*
X85630000Y24290000D02*
X85620000Y21620000D01*
X85640000Y25740000D02*
X85620000Y28380000D01*
X90980000Y28380000D02*
X92380000Y26980000D01*
X90980000Y21620000D02*
X92380000Y23020000D01*
X92380000Y26980000D02*
X92360000Y25690000D01*
X92380000Y23020000D02*
X92380000Y24310000D01*
%TO.C,PTC3*%
X100910000Y30930000D02*
X100910000Y32120000D01*
X100910000Y29070000D02*
X100910000Y27880000D01*
X101060000Y32270000D02*
X102940000Y32270000D01*
X101060000Y27730000D02*
X102940000Y27730000D01*
X103090000Y32120000D02*
X103090000Y30930000D01*
X103090000Y27880000D02*
X103090000Y29070000D01*
D13*
X101997801Y29998731D02*
G75*
G02*
X102840000Y30000000I422198J-728730D01*
G01*
X102002199Y30001269D02*
G75*
G02*
X101160000Y30000000I-422199J728731D01*
G01*
%TO.C,C22*%
D11*
X59620000Y45380000D02*
X59620000Y40020000D01*
X59620000Y40020000D02*
X61020000Y38620000D01*
X61020000Y38620000D02*
X62310000Y38620000D01*
X62290000Y45370000D02*
X59620000Y45380000D01*
X63740000Y45360000D02*
X66380000Y45380000D01*
X64980000Y38620000D02*
X63690000Y38640000D01*
X66380000Y45380000D02*
X66380000Y40020000D01*
X66380000Y40020000D02*
X64980000Y38620000D01*
%TO.C,U6*%
X66100000Y74600000D02*
X74800000Y74600000D01*
X66100000Y63400000D02*
X74800000Y63400000D01*
X79915000Y64450000D02*
G75*
G02*
X79515000Y64450000I-200000J0D01*
G01*
X79515000Y64450000D02*
G75*
G02*
X79915000Y64450000I200000J0D01*
G01*
%TO.C,R25*%
X94610000Y58660000D02*
X95570000Y58660000D01*
X94610000Y57340000D02*
X94610000Y58660000D01*
X95570000Y57340000D02*
X94610000Y57340000D01*
X96430000Y57340000D02*
X97390000Y57340000D01*
X97390000Y58660000D02*
X96430000Y58660000D01*
X97390000Y57340000D02*
X97390000Y58660000D01*
%TO.C,J6*%
D12*
X1380000Y42200000D02*
X11620000Y42200000D01*
X11620000Y31800000D01*
X1380000Y31800000D01*
X1380000Y42200000D01*
%TO.C,C7*%
D11*
X18780000Y42230000D02*
X27090000Y42230000D01*
X18780000Y37850000D02*
X18780000Y42230000D01*
X18780000Y36150000D02*
X18780000Y31780000D01*
X18780000Y31780000D02*
X27090000Y31780000D01*
X27090000Y42230000D02*
X29230000Y40090000D01*
X27090000Y31780000D02*
X29230000Y33910000D01*
X29230000Y40090000D02*
X29230000Y37850000D01*
X29230000Y33910000D02*
X29230000Y36150000D01*
%TO.C,R2*%
X39610000Y73910000D02*
X40570000Y73910000D01*
X39610000Y72590000D02*
X39610000Y73910000D01*
X40570000Y72590000D02*
X39610000Y72590000D01*
X41430000Y72590000D02*
X42390000Y72590000D01*
X42390000Y73910000D02*
X41430000Y73910000D01*
X42390000Y72590000D02*
X42390000Y73910000D01*
%TO.C,C40*%
X82620000Y70980000D02*
X82620000Y69690000D01*
X82620000Y67020000D02*
X82640000Y68310000D01*
X84020000Y72380000D02*
X82620000Y70980000D01*
X84020000Y65620000D02*
X82620000Y67020000D01*
X89360000Y68260000D02*
X89380000Y65620000D01*
X89370000Y69710000D02*
X89380000Y72380000D01*
X89380000Y72380000D02*
X84020000Y72380000D01*
X89380000Y65620000D02*
X84020000Y65620000D01*
%TO.C,C32*%
X24040000Y62250000D02*
X24040000Y63750000D01*
X24190000Y63900000D02*
X25600000Y63900000D01*
X25600000Y62100000D02*
X24190000Y62100000D01*
X26400000Y62100000D02*
X27810000Y62100000D01*
X27810000Y63900000D02*
X26400000Y63900000D01*
X27960000Y62250000D02*
X27960000Y63750000D01*
X24040000Y63750000D02*
G75*
G02*
X24190000Y63900000I150000J0D01*
G01*
X24190000Y62100000D02*
G75*
G02*
X24040000Y62250000I0J150000D01*
G01*
X27810000Y63900000D02*
G75*
G02*
X27960000Y63750000I0J-150000D01*
G01*
X27960000Y62250000D02*
G75*
G02*
X27810000Y62100000I-150000J0D01*
G01*
%TO.C,J5*%
D14*
X35950000Y67970000D02*
X35950000Y52230000D01*
X35950000Y52230000D02*
X38450000Y52230000D01*
X38450000Y67970000D02*
X35950000Y67970000D01*
X38450000Y65180000D02*
X35950000Y65180000D01*
X38450000Y52230000D02*
X38450000Y67970000D01*
D15*
X35980000Y67970000D02*
G75*
G02*
X35920000Y67970000I-30000J0D01*
G01*
X35920000Y67970000D02*
G75*
G02*
X35980000Y67970000I30000J0D01*
G01*
%TO.C,R27*%
D11*
X81940000Y37490000D02*
X81940000Y36530000D01*
X81940000Y34710000D02*
X81940000Y35670000D01*
X83260000Y37490000D02*
X81940000Y37490000D01*
X83260000Y36530000D02*
X83260000Y37490000D01*
X83260000Y35670000D02*
X83260000Y34710000D01*
X83260000Y34710000D02*
X81940000Y34710000D01*
%TO.C,C18*%
X84040000Y42250000D02*
X84040000Y43750000D01*
X84190000Y43900000D02*
X85600000Y43900000D01*
X85600000Y42100000D02*
X84190000Y42100000D01*
X86400000Y42100000D02*
X87810000Y42100000D01*
X87810000Y43900000D02*
X86400000Y43900000D01*
X87960000Y42250000D02*
X87960000Y43750000D01*
X84040000Y43750000D02*
G75*
G02*
X84190000Y43900000I150000J0D01*
G01*
X84190000Y42100000D02*
G75*
G02*
X84040000Y42250000I0J150000D01*
G01*
X87810000Y43900000D02*
G75*
G02*
X87960000Y43750000I0J-150000D01*
G01*
X87960000Y42250000D02*
G75*
G02*
X87810000Y42100000I-150000J0D01*
G01*
%TO.C,C36*%
X60720000Y78410000D02*
X60720000Y76780000D01*
X60720000Y73590000D02*
X60720000Y75220000D01*
X63730000Y78560000D02*
X60870000Y78560000D01*
X63730000Y73440000D02*
X60870000Y73440000D01*
X63880000Y76780000D02*
X63880000Y78410000D01*
X63880000Y75220000D02*
X63880000Y73590000D01*
X60720000Y78410000D02*
G75*
G02*
X60870000Y78560000I150000J0D01*
G01*
X60870000Y73440000D02*
G75*
G02*
X60720000Y73590000I0J150000D01*
G01*
X63730000Y78560000D02*
G75*
G02*
X63880000Y78410000I0J-150000D01*
G01*
X63880000Y73590000D02*
G75*
G02*
X63730000Y73440000I-150000J0D01*
G01*
D15*
X63580000Y74400000D02*
G75*
G02*
X63520000Y74400000I-30000J0D01*
G01*
X63520000Y74400000D02*
G75*
G02*
X63580000Y74400000I30000J0D01*
G01*
%TO.C,D2*%
D11*
X32320000Y52600000D02*
X32560000Y52600000D01*
X32320000Y49120000D02*
X35180000Y49120000D01*
X32320000Y47400000D02*
X32320000Y52600000D01*
X34930000Y52590000D02*
X35160000Y52600000D01*
X35180000Y47400000D02*
X35180000Y52600000D01*
%TO.C,R22*%
X90610000Y76660000D02*
X91570000Y76660000D01*
X90610000Y75340000D02*
X90610000Y76660000D01*
X91570000Y75340000D02*
X90610000Y75340000D01*
X92430000Y75340000D02*
X93390000Y75340000D01*
X93390000Y76660000D02*
X92430000Y76660000D01*
X93390000Y75340000D02*
X93390000Y76660000D01*
%TO.C,U8*%
X69100000Y30600000D02*
X77800000Y30600000D01*
X69100000Y19400000D02*
X77800000Y19400000D01*
X82915000Y20450000D02*
G75*
G02*
X82515000Y20450000I-200000J0D01*
G01*
X82515000Y20450000D02*
G75*
G02*
X82915000Y20450000I200000J0D01*
G01*
%TO.C,C41*%
X85620000Y52980000D02*
X85620000Y51690000D01*
X85620000Y49020000D02*
X85640000Y50310000D01*
X87020000Y54380000D02*
X85620000Y52980000D01*
X87020000Y47620000D02*
X85620000Y49020000D01*
X92360000Y50260000D02*
X92380000Y47620000D01*
X92370000Y51710000D02*
X92380000Y54380000D01*
X92380000Y54380000D02*
X87020000Y54380000D01*
X92380000Y47620000D02*
X87020000Y47620000D01*
%TO.C,TVS2*%
D14*
X104500000Y50300000D02*
X104820000Y50300000D01*
X104500000Y45700000D02*
X104500000Y50300000D01*
X104500000Y45700000D02*
X104820000Y45700000D01*
X105240000Y48510000D02*
X106000000Y47750000D01*
X106000000Y49270000D02*
X106000000Y46980000D01*
X106000000Y47750000D02*
X106760000Y48510000D01*
X106760000Y48510000D02*
X105240000Y48510000D01*
X106760000Y47750000D02*
X105240000Y47750000D01*
X107180000Y50300000D02*
X107500000Y50300000D01*
X107180000Y45700000D02*
X107500000Y45700000D01*
X107500000Y50300000D02*
X107500000Y45700000D01*
%TO.C,C14*%
D11*
X56120000Y71910000D02*
X56120000Y70280000D01*
X56120000Y67090000D02*
X56120000Y68720000D01*
X59130000Y72060000D02*
X56270000Y72060000D01*
X59130000Y66940000D02*
X56270000Y66940000D01*
X59280000Y70280000D02*
X59280000Y71910000D01*
X59280000Y68720000D02*
X59280000Y67090000D01*
X56120000Y71910000D02*
G75*
G02*
X56270000Y72060000I150000J0D01*
G01*
X56270000Y66940000D02*
G75*
G02*
X56120000Y67090000I0J150000D01*
G01*
X59130000Y72060000D02*
G75*
G02*
X59280000Y71910000I0J-150000D01*
G01*
X59280000Y67090000D02*
G75*
G02*
X59130000Y66940000I-150000J0D01*
G01*
D15*
X58980000Y67900000D02*
G75*
G02*
X58920000Y67900000I-30000J0D01*
G01*
X58920000Y67900000D02*
G75*
G02*
X58980000Y67900000I30000J0D01*
G01*
%TO.C,R28*%
D11*
X80460000Y39460000D02*
X81420000Y39460000D01*
X80460000Y38140000D02*
X80460000Y39460000D01*
X81420000Y38140000D02*
X80460000Y38140000D01*
X82280000Y38140000D02*
X83240000Y38140000D01*
X83240000Y39460000D02*
X82280000Y39460000D01*
X83240000Y38140000D02*
X83240000Y39460000D01*
%TO.C,C39*%
X40440000Y62070000D02*
X40440000Y64930000D01*
X40590000Y65080000D02*
X42220000Y65080000D01*
X42220000Y61920000D02*
X40590000Y61920000D01*
X43780000Y61920000D02*
X45410000Y61920000D01*
X45410000Y65080000D02*
X43780000Y65080000D01*
X45560000Y62070000D02*
X45560000Y64930000D01*
X40440000Y64930000D02*
G75*
G02*
X40590000Y65080000I150000J0D01*
G01*
X40590000Y61920000D02*
G75*
G02*
X40440000Y62070000I0J150000D01*
G01*
X45410000Y65080000D02*
G75*
G02*
X45560000Y64930000I0J-150000D01*
G01*
X45560000Y62070000D02*
G75*
G02*
X45410000Y61920000I-150000J0D01*
G01*
D15*
X41430000Y62250000D02*
G75*
G02*
X41370000Y62250000I-30000J0D01*
G01*
X41370000Y62250000D02*
G75*
G02*
X41430000Y62250000I30000J0D01*
G01*
%TO.C,R9*%
D11*
X56240000Y2620000D02*
X57520000Y2620000D01*
X56240000Y780000D02*
X56240000Y2620000D01*
X57520000Y780000D02*
X56240000Y780000D01*
X58480000Y780000D02*
X59760000Y780000D01*
X59760000Y2620000D02*
X58480000Y2620000D01*
X59760000Y780000D02*
X59760000Y2620000D01*
%TO.C,R1*%
X39840000Y77390000D02*
X39840000Y76430000D01*
X39840000Y74610000D02*
X39840000Y75570000D01*
X41160000Y77390000D02*
X39840000Y77390000D01*
X41160000Y76430000D02*
X41160000Y77390000D01*
X41160000Y75570000D02*
X41160000Y74610000D01*
X41160000Y74610000D02*
X39840000Y74610000D01*
%TO.C,L3*%
D14*
X40100000Y31400000D02*
X53900000Y31400000D01*
X40100000Y27730000D02*
X40100000Y31400000D01*
X40100000Y18600000D02*
X40100000Y22270000D01*
X53900000Y31400000D02*
X53900000Y27730000D01*
X53900000Y22270000D02*
X53900000Y18600000D01*
X53900000Y18600000D02*
X40100000Y18600000D01*
%TO.C,R21*%
D11*
X85610000Y76660000D02*
X86570000Y76660000D01*
X85610000Y75340000D02*
X85610000Y76660000D01*
X86570000Y75340000D02*
X85610000Y75340000D01*
X87430000Y75340000D02*
X88390000Y75340000D01*
X88390000Y76660000D02*
X87430000Y76660000D01*
X88390000Y75340000D02*
X88390000Y76660000D01*
%TO.C,L1*%
X47200000Y73500000D02*
X54800000Y73500000D01*
X47200000Y66500000D02*
X54800000Y66500000D01*
%TO.C,C10*%
X32040000Y17250000D02*
X32040000Y18750000D01*
X32190000Y18900000D02*
X33600000Y18900000D01*
X33600000Y17100000D02*
X32190000Y17100000D01*
X34400000Y17100000D02*
X35810000Y17100000D01*
X35810000Y18900000D02*
X34400000Y18900000D01*
X35960000Y17250000D02*
X35960000Y18750000D01*
X32040000Y18750000D02*
G75*
G02*
X32190000Y18900000I150000J0D01*
G01*
X32190000Y17100000D02*
G75*
G02*
X32040000Y17250000I0J150000D01*
G01*
X35810000Y18900000D02*
G75*
G02*
X35960000Y18750000I0J-150000D01*
G01*
X35960000Y17250000D02*
G75*
G02*
X35810000Y17100000I-150000J0D01*
G01*
%TO.C,C33*%
X36340000Y35250000D02*
X36340000Y36750000D01*
X36490000Y36900000D02*
X37900000Y36900000D01*
X37900000Y35100000D02*
X36490000Y35100000D01*
X38700000Y35100000D02*
X40110000Y35100000D01*
X40110000Y36900000D02*
X38700000Y36900000D01*
X40260000Y35250000D02*
X40260000Y36750000D01*
X36340000Y36750000D02*
G75*
G02*
X36490000Y36900000I150000J0D01*
G01*
X36490000Y35100000D02*
G75*
G02*
X36340000Y35250000I0J150000D01*
G01*
X40110000Y36900000D02*
G75*
G02*
X40260000Y36750000I0J-150000D01*
G01*
X40260000Y35250000D02*
G75*
G02*
X40110000Y35100000I-150000J0D01*
G01*
%TO.C,R20*%
X85610000Y79660000D02*
X86570000Y79660000D01*
X85610000Y78340000D02*
X85610000Y79660000D01*
X86570000Y78340000D02*
X85610000Y78340000D01*
X87430000Y78340000D02*
X88390000Y78340000D01*
X88390000Y79660000D02*
X87430000Y79660000D01*
X88390000Y78340000D02*
X88390000Y79660000D01*
%TO.C,U2*%
X42120000Y71530000D02*
X43880000Y71530000D01*
X42120000Y68470000D02*
X43880000Y68470000D01*
D15*
X41630000Y71450000D02*
G75*
G02*
X41570000Y71450000I-30000J0D01*
G01*
X41570000Y71450000D02*
G75*
G02*
X41630000Y71450000I30000J0D01*
G01*
D16*
X41860000Y71670000D02*
G75*
G02*
X41560000Y71670000I-150000J0D01*
G01*
X41560000Y71670000D02*
G75*
G02*
X41860000Y71670000I150000J0D01*
G01*
%TO.C,C17*%
D11*
X81040000Y60250000D02*
X81040000Y61750000D01*
X81190000Y61900000D02*
X82600000Y61900000D01*
X82600000Y60100000D02*
X81190000Y60100000D01*
X83400000Y60100000D02*
X84810000Y60100000D01*
X84810000Y61900000D02*
X83400000Y61900000D01*
X84960000Y60250000D02*
X84960000Y61750000D01*
X81040000Y61750000D02*
G75*
G02*
X81190000Y61900000I150000J0D01*
G01*
X81190000Y60100000D02*
G75*
G02*
X81040000Y60250000I0J150000D01*
G01*
X84810000Y61900000D02*
G75*
G02*
X84960000Y61750000I0J-150000D01*
G01*
X84960000Y60250000D02*
G75*
G02*
X84810000Y60100000I-150000J0D01*
G01*
%TO.C,R6*%
X31340000Y36390000D02*
X31340000Y35430000D01*
X31340000Y33610000D02*
X31340000Y34570000D01*
X32660000Y36390000D02*
X31340000Y36390000D01*
X32660000Y35430000D02*
X32660000Y36390000D01*
X32660000Y34570000D02*
X32660000Y33610000D01*
X32660000Y33610000D02*
X31340000Y33610000D01*
%TO.C,D3*%
X33600000Y21750000D02*
X33600000Y26250000D01*
X33600000Y21750000D02*
X33850000Y21750000D01*
X36150000Y21750000D02*
X36400000Y21750000D01*
X36400000Y21750000D02*
X36400000Y26250000D01*
%TO.C,R23*%
X88610000Y61660000D02*
X89570000Y61660000D01*
X88610000Y60340000D02*
X88610000Y61660000D01*
X89570000Y60340000D02*
X88610000Y60340000D01*
X90430000Y60340000D02*
X91390000Y60340000D01*
X91390000Y61660000D02*
X90430000Y61660000D01*
X91390000Y60340000D02*
X91390000Y61660000D01*
%TO.C,C12*%
X42770000Y41090000D02*
X42770000Y38850000D01*
X42770000Y34910000D02*
X42770000Y37150000D01*
X44910000Y43220000D02*
X42770000Y41090000D01*
X44910000Y32770000D02*
X42770000Y34910000D01*
X53220000Y43220000D02*
X44910000Y43220000D01*
X53220000Y38850000D02*
X53220000Y43220000D01*
X53220000Y37150000D02*
X53220000Y32770000D01*
X53220000Y32770000D02*
X44910000Y32770000D01*
%TO.C,L2*%
D14*
X40100000Y57400000D02*
X53900000Y57400000D01*
X40100000Y53730000D02*
X40100000Y57400000D01*
X40100000Y44600000D02*
X40100000Y48270000D01*
X53900000Y57400000D02*
X53900000Y53730000D01*
X53900000Y48270000D02*
X53900000Y44600000D01*
X53900000Y44600000D02*
X40100000Y44600000D01*
%TO.C,C11*%
D11*
X57770000Y32490000D02*
X57770000Y30780000D01*
X57770000Y27510000D02*
X57770000Y29220000D01*
X59510000Y34230000D02*
X57770000Y32490000D01*
X59510000Y25770000D02*
X57770000Y27510000D01*
X66230000Y34230000D02*
X59510000Y34230000D01*
X66230000Y30780000D02*
X66230000Y34230000D01*
X66230000Y29220000D02*
X66230000Y25770000D01*
X66230000Y25770000D02*
X59510000Y25770000D01*
D15*
X57480000Y25850000D02*
G75*
G02*
X57420000Y25850000I-30000J0D01*
G01*
X57420000Y25850000D02*
G75*
G02*
X57480000Y25850000I30000J0D01*
G01*
D17*
G36*
X59094926Y31784426D02*
G01*
X58098916Y31784426D01*
X58098916Y32033422D01*
X59094926Y32033422D01*
X59094926Y31784426D01*
G37*
G36*
X58721419Y31078916D02*
G01*
X58472423Y31078916D01*
X58472423Y32738933D01*
X58721419Y32738933D01*
X58721419Y31078916D01*
G37*
G36*
X65900932Y31784426D02*
G01*
X64904922Y31784426D01*
X64904922Y32033422D01*
X65900932Y32033422D01*
X65900932Y31784426D01*
G37*
%TO.C,C5*%
D11*
X12770000Y82090000D02*
X12770000Y79850000D01*
X12770000Y75910000D02*
X12770000Y78150000D01*
X14910000Y84220000D02*
X12770000Y82090000D01*
X14910000Y73770000D02*
X12770000Y75910000D01*
X23220000Y84220000D02*
X14910000Y84220000D01*
X23220000Y79850000D02*
X23220000Y84220000D01*
X23220000Y78150000D02*
X23220000Y73770000D01*
X23220000Y73770000D02*
X14910000Y73770000D01*
%TO.C,R24*%
X88610000Y58660000D02*
X89570000Y58660000D01*
X88610000Y57340000D02*
X88610000Y58660000D01*
X89570000Y57340000D02*
X88610000Y57340000D01*
X90430000Y57340000D02*
X91390000Y57340000D01*
X91390000Y58660000D02*
X90430000Y58660000D01*
X91390000Y57340000D02*
X91390000Y58660000D01*
%TO.C,C20*%
X56120000Y65410000D02*
X56120000Y63780000D01*
X56120000Y60590000D02*
X56120000Y62220000D01*
X59130000Y65560000D02*
X56270000Y65560000D01*
X59130000Y60440000D02*
X56270000Y60440000D01*
X59280000Y63780000D02*
X59280000Y65410000D01*
X59280000Y62220000D02*
X59280000Y60590000D01*
X56120000Y65410000D02*
G75*
G02*
X56270000Y65560000I150000J0D01*
G01*
X56270000Y60440000D02*
G75*
G02*
X56120000Y60590000I0J150000D01*
G01*
X59130000Y65560000D02*
G75*
G02*
X59280000Y65410000I0J-150000D01*
G01*
X59280000Y60590000D02*
G75*
G02*
X59130000Y60440000I-150000J0D01*
G01*
D15*
X58980000Y61400000D02*
G75*
G02*
X58920000Y61400000I-30000J0D01*
G01*
X58920000Y61400000D02*
G75*
G02*
X58980000Y61400000I30000J0D01*
G01*
%TO.C,R8*%
D11*
X56240000Y6020000D02*
X57520000Y6020000D01*
X56240000Y4180000D02*
X56240000Y6020000D01*
X57520000Y4180000D02*
X56240000Y4180000D01*
X58480000Y4180000D02*
X59760000Y4180000D01*
X59760000Y6020000D02*
X58480000Y6020000D01*
X59760000Y4180000D02*
X59760000Y6020000D01*
%TO.C,C23*%
X96620000Y41980000D02*
X96620000Y40690000D01*
X96620000Y38020000D02*
X96640000Y39310000D01*
X98020000Y43380000D02*
X96620000Y41980000D01*
X98020000Y36620000D02*
X96620000Y38020000D01*
X103360000Y39260000D02*
X103380000Y36620000D01*
X103370000Y40710000D02*
X103380000Y43380000D01*
X103380000Y43380000D02*
X98020000Y43380000D01*
X103380000Y36620000D02*
X98020000Y36620000D01*
%TO.C,LED3*%
X62250000Y6490000D02*
X63730000Y6490000D01*
X62250000Y5340000D02*
X62250000Y6490000D01*
X62250000Y4960000D02*
X62250000Y3910000D01*
X62550000Y3610000D02*
X62250000Y3910000D01*
X62650000Y5320000D02*
X62660000Y5320000D01*
X62650000Y5320000D02*
X63330000Y5320000D01*
X62650000Y3610000D02*
X62550000Y3610000D01*
X62650000Y3610000D02*
X63350000Y3610000D01*
X62660000Y5320000D02*
X63000000Y4980000D01*
X63000000Y5320000D02*
X63000000Y4980000D01*
X63330000Y5320000D02*
X63330000Y5310000D01*
X63330000Y5310000D02*
X63000000Y4980000D01*
X63350000Y3610000D02*
X63450000Y3610000D01*
X63450000Y3610000D02*
X63750000Y3910000D01*
X63750000Y5340000D02*
X63750000Y6490000D01*
X63750000Y4960000D02*
X63750000Y3910000D01*
%TO.C,C4*%
X58620000Y52980000D02*
X58620000Y51690000D01*
X58620000Y49020000D02*
X58640000Y50310000D01*
X60020000Y54380000D02*
X58620000Y52980000D01*
X60020000Y47620000D02*
X58620000Y49020000D01*
X65360000Y50260000D02*
X65380000Y47620000D01*
X65370000Y51710000D02*
X65380000Y54380000D01*
X65380000Y54380000D02*
X60020000Y54380000D01*
X65380000Y47620000D02*
X60020000Y47620000D01*
%TO.C,R7*%
X56240000Y9420000D02*
X57520000Y9420000D01*
X56240000Y7580000D02*
X56240000Y9420000D01*
X57520000Y7580000D02*
X56240000Y7580000D01*
X58480000Y7580000D02*
X59760000Y7580000D01*
X59760000Y9420000D02*
X58480000Y9420000D01*
X59760000Y7580000D02*
X59760000Y9420000D01*
%TO.C,C9*%
X17470000Y16230000D02*
X24190000Y16230000D01*
X17470000Y12780000D02*
X17470000Y16230000D01*
X17470000Y11220000D02*
X17470000Y7770000D01*
X17470000Y7770000D02*
X24190000Y7770000D01*
X24190000Y16230000D02*
X25930000Y14490000D01*
X24190000Y7770000D02*
X25930000Y9510000D01*
X25930000Y14490000D02*
X25930000Y12780000D01*
X25930000Y9510000D02*
X25930000Y11220000D01*
D15*
X26280000Y16150000D02*
G75*
G02*
X26220000Y16150000I-30000J0D01*
G01*
X26220000Y16150000D02*
G75*
G02*
X26280000Y16150000I30000J0D01*
G01*
D17*
G36*
X18795078Y9966578D02*
G01*
X17799068Y9966578D01*
X17799068Y10215574D01*
X18795078Y10215574D01*
X18795078Y9966578D01*
G37*
G36*
X25227577Y9261067D02*
G01*
X24978581Y9261067D01*
X24978581Y10921084D01*
X25227577Y10921084D01*
X25227577Y9261067D01*
G37*
G36*
X25601084Y9966578D02*
G01*
X24605074Y9966578D01*
X24605074Y10215574D01*
X25601084Y10215574D01*
X25601084Y9966578D01*
G37*
%TO.C,C15*%
D14*
X62290000Y59280000D02*
X62290000Y60080000D01*
X62290000Y58720000D02*
X62290000Y57920000D01*
X62600000Y60390000D02*
X63400000Y60390000D01*
X63400000Y57610000D02*
X62600000Y57610000D01*
X63710000Y59280000D02*
X63710000Y60080000D01*
X63710000Y58720000D02*
X63710000Y57920000D01*
X62290000Y60080000D02*
G75*
G02*
X62600000Y60390000I310000J0D01*
G01*
X62600000Y57610000D02*
G75*
G02*
X62290000Y57920000I0J310000D01*
G01*
X63400000Y60390000D02*
G75*
G02*
X63710000Y60080000I0J-310000D01*
G01*
X63710000Y57920000D02*
G75*
G02*
X63400000Y57610000I-310000J0D01*
G01*
%TO.C,J10*%
X27430000Y9000000D02*
X55370000Y9000000D01*
X27430000Y500000D02*
X27430000Y9000000D01*
X39100000Y5300000D02*
X39100000Y500000D01*
X43700000Y5300000D02*
X39100000Y5300000D01*
X43700000Y5300000D02*
X43700000Y500000D01*
X55370000Y9000000D02*
X55370000Y500000D01*
D18*
X52270000Y13430000D02*
G75*
G02*
X52030000Y13430000I-120000J0D01*
G01*
X52030000Y13430000D02*
G75*
G02*
X52270000Y13430000I120000J0D01*
G01*
D19*
X55460000Y13500000D02*
G75*
G02*
X55260000Y13500000I-100000J0D01*
G01*
X55260000Y13500000D02*
G75*
G02*
X55460000Y13500000I100000J0D01*
G01*
%TO.C,U7*%
D11*
X69100000Y56600000D02*
X77800000Y56600000D01*
X69100000Y45400000D02*
X77800000Y45400000D01*
X82915000Y46450000D02*
G75*
G02*
X82515000Y46450000I-200000J0D01*
G01*
X82515000Y46450000D02*
G75*
G02*
X82915000Y46450000I200000J0D01*
G01*
%TO.C,J11*%
D14*
X67530000Y9000000D02*
X95470000Y9000000D01*
X67530000Y500000D02*
X67530000Y9000000D01*
X79200000Y5300000D02*
X79200000Y500000D01*
X83800000Y5300000D02*
X79200000Y5300000D01*
X83800000Y5300000D02*
X83800000Y500000D01*
X95470000Y9000000D02*
X95470000Y500000D01*
D18*
X92370000Y13430000D02*
G75*
G02*
X92130000Y13430000I-120000J0D01*
G01*
X92130000Y13430000D02*
G75*
G02*
X92370000Y13430000I120000J0D01*
G01*
D19*
X95560000Y13500000D02*
G75*
G02*
X95360000Y13500000I-100000J0D01*
G01*
X95360000Y13500000D02*
G75*
G02*
X95560000Y13500000I100000J0D01*
G01*
%TO.C,U3*%
D11*
X24030000Y54160000D02*
X24500000Y54160000D01*
X24030000Y43840000D02*
X24500000Y43840000D01*
X24130000Y54160000D02*
X22340000Y54160000D01*
X24150000Y43840000D02*
X22340000Y43840000D01*
X24500000Y43840000D02*
X24500000Y54160000D01*
D20*
X28260000Y44430000D02*
G75*
G02*
X27860000Y44430000I-200000J0D01*
G01*
X27860000Y44430000D02*
G75*
G02*
X28260000Y44430000I200000J0D01*
G01*
%TO.C,R3*%
D11*
X24610000Y56660000D02*
X24610000Y55340000D01*
X24610000Y55340000D02*
X25570000Y55340000D01*
X25570000Y56660000D02*
X24610000Y56660000D01*
X26430000Y56660000D02*
X27390000Y56660000D01*
X27390000Y56660000D02*
X27390000Y55340000D01*
X27390000Y55340000D02*
X26430000Y55340000D01*
%TO.C,C19*%
X84040000Y32250000D02*
X84040000Y33750000D01*
X84190000Y33900000D02*
X85600000Y33900000D01*
X85600000Y32100000D02*
X84190000Y32100000D01*
X86400000Y32100000D02*
X87810000Y32100000D01*
X87810000Y33900000D02*
X86400000Y33900000D01*
X87960000Y32250000D02*
X87960000Y33750000D01*
X84040000Y33750000D02*
G75*
G02*
X84190000Y33900000I150000J0D01*
G01*
X84190000Y32100000D02*
G75*
G02*
X84040000Y32250000I0J150000D01*
G01*
X87810000Y33900000D02*
G75*
G02*
X87960000Y33750000I0J-150000D01*
G01*
X87960000Y32250000D02*
G75*
G02*
X87810000Y32100000I-150000J0D01*
G01*
%TO.C,PTC1*%
X98850000Y80790000D02*
X98850000Y79400000D01*
X98850000Y76210000D02*
X98850000Y77600000D01*
X99100000Y81170000D02*
X101900000Y81170000D01*
X99100000Y75830000D02*
X101900000Y75830000D01*
X102150000Y79390000D02*
X102150000Y80790000D01*
X102150000Y77610000D02*
X102150000Y76210000D01*
X100500000Y78500000D02*
G75*
G02*
X100120000Y78500000I-190000J0D01*
G01*
X100500000Y78500000D02*
G75*
G02*
X100880000Y78500000I190000J0D01*
G01*
%TO.C,R26*%
X81940000Y34090000D02*
X81940000Y33130000D01*
X81940000Y31310000D02*
X81940000Y32270000D01*
X83260000Y34090000D02*
X81940000Y34090000D01*
X83260000Y33130000D02*
X83260000Y34090000D01*
X83260000Y32270000D02*
X83260000Y31310000D01*
X83260000Y31310000D02*
X81940000Y31310000D01*
%TO.C,C25*%
X97680000Y21430000D02*
X105990000Y21430000D01*
X97680000Y17050000D02*
X97680000Y21430000D01*
X97680000Y15350000D02*
X97680000Y10980000D01*
X97680000Y10980000D02*
X105990000Y10980000D01*
X105990000Y21430000D02*
X108130000Y19290000D01*
X105990000Y10980000D02*
X108130000Y13110000D01*
X108130000Y19290000D02*
X108130000Y17050000D01*
X108130000Y13110000D02*
X108130000Y15350000D01*
%TO.C,U4*%
X24030000Y30160000D02*
X24500000Y30160000D01*
X24030000Y19840000D02*
X24500000Y19840000D01*
X24130000Y30160000D02*
X22340000Y30160000D01*
X24150000Y19840000D02*
X22340000Y19840000D01*
X24500000Y19840000D02*
X24500000Y30160000D01*
D20*
X28260000Y20430000D02*
G75*
G02*
X27860000Y20430000I-200000J0D01*
G01*
X27860000Y20430000D02*
G75*
G02*
X28260000Y20430000I200000J0D01*
G01*
%TO.C,R4*%
D11*
X25340000Y60390000D02*
X25340000Y59430000D01*
X25340000Y57610000D02*
X25340000Y58570000D01*
X26660000Y60390000D02*
X25340000Y60390000D01*
X26660000Y59430000D02*
X26660000Y60390000D01*
X26660000Y58570000D02*
X26660000Y57610000D01*
X26660000Y57610000D02*
X25340000Y57610000D01*
%TO.C,PTC2*%
X99970000Y58540000D02*
X99970000Y57270000D01*
X99970000Y53460000D02*
X99970000Y54770000D01*
X100200000Y53210000D02*
X103760000Y53210000D01*
X100220000Y58790000D02*
X103780000Y58790000D01*
X104030000Y57270000D02*
X104030000Y58540000D01*
X104030000Y54730000D02*
X104030000Y53460000D01*
X101989040Y55994634D02*
G75*
G02*
X102630000Y56000000I320960J-54634D01*
G01*
X102010960Y56005366D02*
G75*
G02*
X101370000Y56000000I-320960J54634D01*
G01*
%TO.C,C46*%
X25440000Y79930000D02*
X25440000Y77070000D01*
X25590000Y76920000D02*
X27220000Y76920000D01*
X27220000Y80080000D02*
X25590000Y80080000D01*
X28780000Y80080000D02*
X30410000Y80080000D01*
X30410000Y76920000D02*
X28780000Y76920000D01*
X30560000Y79930000D02*
X30560000Y77070000D01*
X25440000Y79930000D02*
G75*
G02*
X25590000Y80080000I150000J0D01*
G01*
X25590000Y76920000D02*
G75*
G02*
X25440000Y77070000I0J150000D01*
G01*
X30410000Y80080000D02*
G75*
G02*
X30560000Y79930000I0J-150000D01*
G01*
X30560000Y77070000D02*
G75*
G02*
X30410000Y76920000I-150000J0D01*
G01*
D15*
X29630000Y79750000D02*
G75*
G02*
X29570000Y79750000I-30000J0D01*
G01*
X29570000Y79750000D02*
G75*
G02*
X29630000Y79750000I30000J0D01*
G01*
%TO.C,TVS3*%
D14*
X104500000Y27600000D02*
X104820000Y27600000D01*
X104500000Y23000000D02*
X104500000Y27600000D01*
X104500000Y23000000D02*
X104820000Y23000000D01*
X105240000Y25810000D02*
X106000000Y25050000D01*
X106000000Y26570000D02*
X106000000Y24280000D01*
X106000000Y25050000D02*
X106760000Y25810000D01*
X106760000Y25810000D02*
X105240000Y25810000D01*
X106760000Y25050000D02*
X105240000Y25050000D01*
X107180000Y27600000D02*
X107500000Y27600000D01*
X107180000Y23000000D02*
X107500000Y23000000D01*
X107500000Y27600000D02*
X107500000Y23000000D01*
%TO.C,C6*%
D11*
X41040000Y66250000D02*
X41040000Y67750000D01*
X41190000Y67900000D02*
X42600000Y67900000D01*
X42600000Y66100000D02*
X41190000Y66100000D01*
X43400000Y66100000D02*
X44810000Y66100000D01*
X44810000Y67900000D02*
X43400000Y67900000D01*
X44960000Y66250000D02*
X44960000Y67750000D01*
X41040000Y67750000D02*
G75*
G02*
X41190000Y67900000I150000J0D01*
G01*
X41190000Y66100000D02*
G75*
G02*
X41040000Y66250000I0J150000D01*
G01*
X44810000Y67900000D02*
G75*
G02*
X44960000Y67750000I0J-150000D01*
G01*
X44960000Y66250000D02*
G75*
G02*
X44810000Y66100000I-150000J0D01*
G01*
%TO.C,C8*%
X32040000Y43250000D02*
X32040000Y44750000D01*
X32190000Y44900000D02*
X33600000Y44900000D01*
X33600000Y43100000D02*
X32190000Y43100000D01*
X34400000Y43100000D02*
X35810000Y43100000D01*
X35810000Y44900000D02*
X34400000Y44900000D01*
X35960000Y43250000D02*
X35960000Y44750000D01*
X32040000Y44750000D02*
G75*
G02*
X32190000Y44900000I150000J0D01*
G01*
X32190000Y43100000D02*
G75*
G02*
X32040000Y43250000I0J150000D01*
G01*
X35810000Y44900000D02*
G75*
G02*
X35960000Y44750000I0J-150000D01*
G01*
X35960000Y43250000D02*
G75*
G02*
X35810000Y43100000I-150000J0D01*
G01*
%TO.C,C37*%
X60720000Y71910000D02*
X60720000Y70280000D01*
X60720000Y67090000D02*
X60720000Y68720000D01*
X63730000Y72060000D02*
X60870000Y72060000D01*
X63730000Y66940000D02*
X60870000Y66940000D01*
X63880000Y70280000D02*
X63880000Y71910000D01*
X63880000Y68720000D02*
X63880000Y67090000D01*
X60720000Y71910000D02*
G75*
G02*
X60870000Y72060000I150000J0D01*
G01*
X60870000Y66940000D02*
G75*
G02*
X60720000Y67090000I0J150000D01*
G01*
X63730000Y72060000D02*
G75*
G02*
X63880000Y71910000I0J-150000D01*
G01*
X63880000Y67090000D02*
G75*
G02*
X63730000Y66940000I-150000J0D01*
G01*
D15*
X63580000Y67900000D02*
G75*
G02*
X63520000Y67900000I-30000J0D01*
G01*
X63520000Y67900000D02*
G75*
G02*
X63580000Y67900000I30000J0D01*
G01*
%TO.C,TVS1*%
D14*
X106500000Y69800000D02*
X106820000Y69800000D01*
X106500000Y65200000D02*
X106500000Y69800000D01*
X106500000Y65200000D02*
X106820000Y65200000D01*
X107240000Y68010000D02*
X108000000Y67250000D01*
X108000000Y68770000D02*
X108000000Y66480000D01*
X108000000Y67250000D02*
X108760000Y68010000D01*
X108760000Y68010000D02*
X107240000Y68010000D01*
X108760000Y67250000D02*
X107240000Y67250000D01*
X109180000Y69800000D02*
X109500000Y69800000D01*
X109180000Y65200000D02*
X109500000Y65200000D01*
X109500000Y69800000D02*
X109500000Y65200000D01*
%TO.C,J7*%
D12*
X1380000Y29200000D02*
X11620000Y29200000D01*
X11620000Y18800000D01*
X1380000Y18800000D01*
X1380000Y29200000D01*
%TO.C,C38*%
D11*
X43100000Y76310000D02*
X43100000Y74900000D01*
X43100000Y72690000D02*
X43100000Y74100000D01*
X44750000Y76460000D02*
X43250000Y76460000D01*
X44750000Y72540000D02*
X43250000Y72540000D01*
X44900000Y74900000D02*
X44900000Y76310000D01*
X44900000Y74100000D02*
X44900000Y72690000D01*
X43100000Y76310000D02*
G75*
G02*
X43250000Y76460000I150000J0D01*
G01*
X43250000Y72540000D02*
G75*
G02*
X43100000Y72690000I0J150000D01*
G01*
X44750000Y76460000D02*
G75*
G02*
X44900000Y76310000I0J-150000D01*
G01*
X44900000Y72690000D02*
G75*
G02*
X44750000Y72540000I-150000J0D01*
G01*
%TO.C,C3*%
X56120000Y78410000D02*
X56120000Y76780000D01*
X56120000Y73590000D02*
X56120000Y75220000D01*
X59130000Y78560000D02*
X56270000Y78560000D01*
X59130000Y73440000D02*
X56270000Y73440000D01*
X59280000Y76780000D02*
X59280000Y78410000D01*
X59280000Y75220000D02*
X59280000Y73590000D01*
X56120000Y78410000D02*
G75*
G02*
X56270000Y78560000I150000J0D01*
G01*
X56270000Y73440000D02*
G75*
G02*
X56120000Y73590000I0J150000D01*
G01*
X59130000Y78560000D02*
G75*
G02*
X59280000Y78410000I0J-150000D01*
G01*
X59280000Y73590000D02*
G75*
G02*
X59130000Y73440000I-150000J0D01*
G01*
D15*
X58980000Y74400000D02*
G75*
G02*
X58920000Y74400000I-30000J0D01*
G01*
X58920000Y74400000D02*
G75*
G02*
X58980000Y74400000I30000J0D01*
G01*
%TO.C,R5*%
D11*
X32610000Y32660000D02*
X33570000Y32660000D01*
X32610000Y31340000D02*
X32610000Y32660000D01*
X33570000Y31340000D02*
X32610000Y31340000D01*
X34430000Y31340000D02*
X35390000Y31340000D01*
X35390000Y32660000D02*
X34430000Y32660000D01*
X35390000Y31340000D02*
X35390000Y32660000D01*
%TO.C,C21*%
X93780000Y72220000D02*
X93780000Y63910000D01*
X93780000Y63910000D02*
X95910000Y61770000D01*
X95910000Y61770000D02*
X98150000Y61770000D01*
X98150000Y72220000D02*
X93780000Y72220000D01*
X99850000Y72220000D02*
X104230000Y72220000D01*
X102090000Y61770000D02*
X99850000Y61770000D01*
X104230000Y72220000D02*
X104230000Y63910000D01*
X104230000Y63910000D02*
X102090000Y61770000D01*
%TO.C,C16*%
D14*
X56290000Y37780000D02*
X56290000Y38580000D01*
X56290000Y37220000D02*
X56290000Y36420000D01*
X56600000Y38890000D02*
X57400000Y38890000D01*
X57400000Y36110000D02*
X56600000Y36110000D01*
X57710000Y37780000D02*
X57710000Y38580000D01*
X57710000Y37220000D02*
X57710000Y36420000D01*
X56290000Y38580000D02*
G75*
G02*
X56600000Y38890000I310000J0D01*
G01*
X56600000Y36110000D02*
G75*
G02*
X56290000Y36420000I0J310000D01*
G01*
X57400000Y38890000D02*
G75*
G02*
X57710000Y38580000I0J-310000D01*
G01*
X57710000Y36420000D02*
G75*
G02*
X57400000Y36110000I-310000J0D01*
G01*
%TO.C,LED2*%
D11*
X62250000Y8640000D02*
X62250000Y9690000D01*
X62250000Y8260000D02*
X62250000Y7110000D01*
X62550000Y9990000D02*
X62250000Y9690000D01*
X62650000Y9990000D02*
X62550000Y9990000D01*
X62670000Y8290000D02*
X63000000Y8620000D01*
X62670000Y8280000D02*
X62670000Y8290000D01*
X63000000Y8280000D02*
X63000000Y8620000D01*
X63340000Y8280000D02*
X63000000Y8620000D01*
X63350000Y9990000D02*
X62650000Y9990000D01*
X63350000Y9990000D02*
X63450000Y9990000D01*
X63350000Y8280000D02*
X62670000Y8280000D01*
X63350000Y8280000D02*
X63340000Y8280000D01*
X63450000Y9990000D02*
X63750000Y9690000D01*
X63750000Y8640000D02*
X63750000Y9690000D01*
X63750000Y8260000D02*
X63750000Y7110000D01*
X63750000Y7110000D02*
X62270000Y7110000D01*
%TO.C,LED4*%
X62250000Y3090000D02*
X63730000Y3090000D01*
X62250000Y1940000D02*
X62250000Y3090000D01*
X62250000Y1560000D02*
X62250000Y510000D01*
X62550000Y210000D02*
X62250000Y510000D01*
X62650000Y1920000D02*
X62660000Y1920000D01*
X62650000Y1920000D02*
X63330000Y1920000D01*
X62650000Y210000D02*
X62550000Y210000D01*
X62650000Y210000D02*
X63350000Y210000D01*
X62660000Y1920000D02*
X63000000Y1580000D01*
X63000000Y1920000D02*
X63000000Y1580000D01*
X63330000Y1920000D02*
X63330000Y1910000D01*
X63330000Y1910000D02*
X63000000Y1580000D01*
X63350000Y210000D02*
X63450000Y210000D01*
X63450000Y210000D02*
X63750000Y510000D01*
X63750000Y1940000D02*
X63750000Y3090000D01*
X63750000Y1560000D02*
X63750000Y510000D01*
%TD*%
%LPC*%
D21*
%TO.C,C24*%
X61500000Y12700000D03*
X61500000Y21700000D03*
%TD*%
D22*
%TO.C,C42*%
X91670000Y25000000D03*
X86330000Y25000000D03*
%TD*%
D23*
%TO.C,PTC3*%
X102000000Y28550000D03*
X102000000Y31450000D03*
%TD*%
D24*
%TO.C,TP4*%
X68890000Y83200000D03*
%TD*%
D25*
%TO.C,C22*%
X63000000Y39330000D03*
X63000000Y44670000D03*
%TD*%
D26*
%TO.C,U6*%
X79715000Y65596400D03*
X79715000Y67298200D03*
X79715000Y69000000D03*
X79715000Y70701800D03*
X79715000Y72403600D03*
D27*
X70444000Y69000000D03*
%TD*%
D24*
%TO.C,P1*%
X56190000Y83200000D03*
X58730000Y83200000D03*
X61270000Y83200000D03*
X63810000Y83200000D03*
%TD*%
D28*
%TO.C,R25*%
X95250000Y58000000D03*
X96750000Y58000000D03*
%TD*%
D29*
%TO.C,FID3*%
X18000000Y5000000D03*
%TD*%
D30*
%TO.C,J6*%
X7000000Y34460000D03*
D29*
X7000000Y39540000D03*
%TD*%
D31*
%TO.C,C7*%
X28500000Y37000000D03*
X19500000Y37000000D03*
%TD*%
D28*
%TO.C,R2*%
X40250000Y73250000D03*
X41750000Y73250000D03*
%TD*%
D22*
%TO.C,C40*%
X83330000Y69000000D03*
X88670000Y69000000D03*
%TD*%
D32*
%TO.C,C32*%
X25000000Y63000000D03*
X27000000Y63000000D03*
%TD*%
D33*
%TO.C,J5*%
X37200000Y66450000D03*
D34*
X37200000Y63910000D03*
X37200000Y61370000D03*
X37200000Y58830000D03*
X37200000Y56290000D03*
X37200000Y53750000D03*
%TD*%
D35*
%TO.C,R27*%
X82600000Y35350000D03*
X82600000Y36850000D03*
%TD*%
D32*
%TO.C,C18*%
X85000000Y43000000D03*
X87000000Y43000000D03*
%TD*%
D36*
%TO.C,C36*%
X62300000Y74480000D03*
X62300000Y77520000D03*
%TD*%
D30*
%TO.C,D2*%
X33750000Y47800000D03*
X33750000Y52200000D03*
%TD*%
D28*
%TO.C,R22*%
X91250000Y76000000D03*
X92750000Y76000000D03*
%TD*%
D26*
%TO.C,U8*%
X82715000Y21596400D03*
X82715000Y23298200D03*
X82715000Y25000000D03*
X82715000Y26701800D03*
X82715000Y28403600D03*
D27*
X73444000Y25000000D03*
%TD*%
D22*
%TO.C,C41*%
X86330000Y51000000D03*
X91670000Y51000000D03*
%TD*%
D37*
%TO.C,H4*%
X106000000Y81000000D03*
%TD*%
D38*
%TO.C,TVS2*%
X106000000Y45670000D03*
X106000000Y50330000D03*
%TD*%
D36*
%TO.C,C14*%
X57700000Y67980000D03*
X57700000Y71020000D03*
%TD*%
D28*
%TO.C,R28*%
X81100000Y38800000D03*
X82600000Y38800000D03*
%TD*%
D39*
%TO.C,C39*%
X41480000Y63500000D03*
X44520000Y63500000D03*
%TD*%
D40*
%TO.C,R9*%
X57000000Y1700000D03*
X59000000Y1700000D03*
%TD*%
D35*
%TO.C,R1*%
X40500000Y75250000D03*
X40500000Y76750000D03*
%TD*%
D41*
%TO.C,L3*%
X41230000Y25000000D03*
X52770000Y25000000D03*
%TD*%
D28*
%TO.C,R21*%
X86250000Y76000000D03*
X87750000Y76000000D03*
%TD*%
D37*
%TO.C,H7*%
X4000000Y81000000D03*
%TD*%
D42*
%TO.C,L1*%
X47975000Y70000000D03*
X54025000Y70000000D03*
%TD*%
D32*
%TO.C,C10*%
X33000000Y18000000D03*
X35000000Y18000000D03*
%TD*%
%TO.C,C33*%
X37300000Y36000000D03*
X39300000Y36000000D03*
%TD*%
D28*
%TO.C,R20*%
X86250000Y79000000D03*
X87750000Y79000000D03*
%TD*%
D43*
%TO.C,U2*%
X41800000Y70950000D03*
X41800000Y70000000D03*
X41800000Y69050000D03*
X44200000Y69050000D03*
X44200000Y70000000D03*
X44200000Y70950000D03*
%TD*%
D24*
%TO.C,TP5*%
X71430000Y83200000D03*
%TD*%
D32*
%TO.C,C17*%
X82000000Y61000000D03*
X84000000Y61000000D03*
%TD*%
D37*
%TO.C,H6*%
X106000000Y4000000D03*
%TD*%
D35*
%TO.C,R6*%
X32000000Y34250000D03*
X32000000Y35750000D03*
%TD*%
D44*
%TO.C,D3*%
X35000000Y22000000D03*
X35000000Y26000000D03*
%TD*%
D28*
%TO.C,R23*%
X89250000Y61000000D03*
X90750000Y61000000D03*
%TD*%
D31*
%TO.C,C12*%
X43500000Y38000000D03*
X52500000Y38000000D03*
%TD*%
D24*
%TO.C,TP3*%
X66349999Y83200000D03*
%TD*%
D41*
%TO.C,L2*%
X41230000Y51000000D03*
X52770000Y51000000D03*
%TD*%
D45*
%TO.C,C11*%
X58710000Y30000000D03*
X65290000Y30000000D03*
%TD*%
D29*
%TO.C,FID2*%
X107000000Y58000000D03*
%TD*%
D31*
%TO.C,C5*%
X13500000Y79000000D03*
X22500000Y79000000D03*
%TD*%
D28*
%TO.C,R24*%
X89250000Y58000000D03*
X90750000Y58000000D03*
%TD*%
D36*
%TO.C,C20*%
X57700000Y61480000D03*
X57700000Y64520000D03*
%TD*%
D40*
%TO.C,R8*%
X57000000Y5100000D03*
X59000000Y5100000D03*
%TD*%
D22*
%TO.C,C23*%
X97330000Y40000000D03*
X102670000Y40000000D03*
%TD*%
D46*
%TO.C,LED3*%
X63000000Y4350000D03*
X63000000Y5850000D03*
%TD*%
D22*
%TO.C,C4*%
X59330000Y51000000D03*
X64670000Y51000000D03*
%TD*%
D40*
%TO.C,R7*%
X57000000Y8500000D03*
X59000000Y8500000D03*
%TD*%
D37*
%TO.C,H5*%
X4000000Y4000000D03*
%TD*%
D45*
%TO.C,C9*%
X24990000Y12000000D03*
X18410000Y12000000D03*
%TD*%
D47*
%TO.C,C15*%
X63000000Y58300000D03*
X63000000Y59700000D03*
%TD*%
D33*
%TO.C,J10*%
X50290000Y13500000D03*
D48*
X50290000Y10960000D03*
X47750000Y13500000D03*
X47750000Y10960000D03*
X45210000Y13500000D03*
X45210000Y10960000D03*
X42670000Y13500000D03*
X42670000Y10960000D03*
X40130000Y13500000D03*
X40130000Y10960000D03*
X37590000Y13500000D03*
X37590000Y10960000D03*
X35050000Y13500000D03*
X35050000Y10960000D03*
X32510000Y13500000D03*
X32510000Y10960000D03*
%TD*%
D26*
%TO.C,U7*%
X82715000Y47596400D03*
X82715000Y49298200D03*
X82715000Y51000000D03*
X82715000Y52701800D03*
X82715000Y54403600D03*
D27*
X73444000Y51000000D03*
%TD*%
D33*
%TO.C,J11*%
X90390000Y13500000D03*
D48*
X90390000Y10960000D03*
X87850000Y13500000D03*
X87850000Y10960000D03*
X85310000Y13500000D03*
X85310000Y10960000D03*
X82770000Y13500000D03*
X82770000Y10960000D03*
X80230000Y13500000D03*
X80230000Y10960000D03*
X77690000Y13500000D03*
X77690000Y10960000D03*
X75150000Y13500000D03*
X75150000Y10960000D03*
X72610000Y13500000D03*
X72610000Y10960000D03*
%TD*%
D49*
%TO.C,U3*%
X28160000Y45600000D03*
X28160000Y47300000D03*
X28160000Y49000000D03*
X28160000Y50700000D03*
X28160000Y52400000D03*
D50*
X17840000Y49000000D03*
%TD*%
D28*
%TO.C,R3*%
X26750000Y56000000D03*
X25250000Y56000000D03*
%TD*%
D32*
%TO.C,C19*%
X85000000Y33000000D03*
X87000000Y33000000D03*
%TD*%
D51*
%TO.C,PTC1*%
X100500000Y76900000D03*
X100500000Y80100000D03*
%TD*%
D35*
%TO.C,R26*%
X82600000Y31950000D03*
X82600000Y33450000D03*
%TD*%
D31*
%TO.C,C25*%
X107400000Y16200000D03*
X98400000Y16200000D03*
%TD*%
D49*
%TO.C,U4*%
X28160000Y21600000D03*
X28160000Y23300000D03*
X28160000Y25000000D03*
X28160000Y26700000D03*
X28160000Y28400000D03*
D50*
X17840000Y25000000D03*
%TD*%
D29*
%TO.C,FID1*%
X9500000Y79000000D03*
%TD*%
D35*
%TO.C,R4*%
X26000000Y58250000D03*
X26000000Y59750000D03*
%TD*%
D52*
%TO.C,PTC2*%
X102000000Y54150000D03*
X102000000Y57850000D03*
%TD*%
D53*
%TO.C,H2*%
X3500000Y50000000D03*
%TD*%
D39*
%TO.C,C46*%
X29520000Y78500000D03*
X26480000Y78500000D03*
%TD*%
D38*
%TO.C,TVS3*%
X106000000Y22970000D03*
X106000000Y27630000D03*
%TD*%
D32*
%TO.C,C6*%
X42000000Y67000000D03*
X44000000Y67000000D03*
%TD*%
%TO.C,C8*%
X33000000Y44000000D03*
X35000000Y44000000D03*
%TD*%
D36*
%TO.C,C37*%
X62300000Y67980000D03*
X62300000Y71020000D03*
%TD*%
D38*
%TO.C,TVS1*%
X108000000Y65170000D03*
X108000000Y69830000D03*
%TD*%
D30*
%TO.C,J7*%
X7000000Y21460000D03*
D29*
X7000000Y26540000D03*
%TD*%
D54*
%TO.C,C38*%
X44000000Y73500000D03*
X44000000Y75500000D03*
%TD*%
D36*
%TO.C,C3*%
X57700000Y74480000D03*
X57700000Y77520000D03*
%TD*%
D28*
%TO.C,R5*%
X33250000Y32000000D03*
X34750000Y32000000D03*
%TD*%
D21*
%TO.C,C21*%
X99000000Y62500000D03*
X99000000Y71500000D03*
%TD*%
D53*
%TO.C,H3*%
X32100000Y60200000D03*
%TD*%
D47*
%TO.C,C16*%
X57000000Y36800000D03*
X57000000Y38200000D03*
%TD*%
D53*
%TO.C,H1*%
X3500000Y69000000D03*
%TD*%
D46*
%TO.C,LED2*%
X63000000Y9250000D03*
X63000000Y7750000D03*
%TD*%
%TO.C,LED4*%
X63000000Y950000D03*
X63000000Y2450000D03*
%TD*%
%LPD*%
M02*
