%TF.GenerationSoftware,KiCad,Pcbnew,10.0.0*%
%TF.CreationDate,2026-09-21T00:02:25+09:00*%
%TF.ProjectId,board-b,626f6172-642d-4622-9e6b-696361645f70,rev?*%
%TF.SameCoordinates,Original*%
%TF.FileFunction,Paste,Top*%
%TF.FilePolarity,Positive*%
%FSLAX46Y46*%
G04 Gerber Fmt 4.6, Leading zero omitted, Abs format (unit mm)*
G04 Created by KiCad (PCBNEW 10.0.0) date 2026-09-21 00:02:25*
%MOMM*%
%LPD*%
G01*
G04 APERTURE LIST*
%ADD10R,1.650000X4.500000*%
%ADD11R,3.500000X1.200000*%
%ADD12R,1.730000X1.190000*%
%ADD13R,1.200000X3.500000*%
%ADD14R,2.286000X1.066800*%
%ADD15R,8.890000X10.668000*%
%ADD16R,0.810000X0.860000*%
%ADD17R,4.500000X1.650000*%
%ADD18R,1.410000X1.350000*%
%ADD19R,2.700000X1.635000*%
%ADD20R,2.000000X2.000000*%
%ADD21R,1.900000X1.900000*%
%ADD22R,1.635000X2.700000*%
%ADD23R,1.130000X1.380000*%
%ADD24R,0.860000X0.810000*%
%ADD25R,3.730000X5.000000*%
%ADD26R,2.350000X3.500000*%
%ADD27R,0.800000X0.532000*%
%ADD28R,1.700000X2.500000*%
%ADD29R,3.610000X1.260000*%
%ADD30R,0.800000X0.800000*%
%ADD31R,0.900000X0.800000*%
%ADD32R,3.080000X1.020000*%
%ADD33R,8.500000X11.000000*%
%ADD34R,2.780000X1.490000*%
%ADD35R,3.500000X1.410000*%
%ADD36R,1.350000X1.410000*%
G04 APERTURE END LIST*
D10*
%TO.C,C24*%
X61500000Y12700000D03*
X61500000Y21700000D03*
%TD*%
D11*
%TO.C,C42*%
X91670000Y25000000D03*
X86330000Y25000000D03*
%TD*%
D12*
%TO.C,PTC3*%
X102000000Y28550000D03*
X102000000Y31450000D03*
%TD*%
D13*
%TO.C,C22*%
X63000000Y39330000D03*
X63000000Y44670000D03*
%TD*%
D14*
%TO.C,U6*%
X79715000Y65596400D03*
X79715000Y67298200D03*
X79715000Y69000000D03*
X79715000Y70701800D03*
X79715000Y72403600D03*
D15*
X70444000Y69000000D03*
%TD*%
D16*
%TO.C,R25*%
X95250000Y58000000D03*
X96750000Y58000000D03*
%TD*%
D17*
%TO.C,C7*%
X28500000Y37000000D03*
X19500000Y37000000D03*
%TD*%
D16*
%TO.C,R2*%
X40250000Y73250000D03*
X41750000Y73250000D03*
%TD*%
D11*
%TO.C,C40*%
X83330000Y69000000D03*
X88670000Y69000000D03*
%TD*%
D18*
%TO.C,C32*%
X25000000Y63000000D03*
X27000000Y63000000D03*
%TD*%
%TO.C,C18*%
X85000000Y43000000D03*
X87000000Y43000000D03*
%TD*%
D19*
%TO.C,C36*%
X62300000Y74480000D03*
X62300000Y77520000D03*
%TD*%
D20*
%TO.C,D2*%
X33750000Y47800000D03*
X33750000Y52200000D03*
%TD*%
D16*
%TO.C,R22*%
X91250000Y76000000D03*
X92750000Y76000000D03*
%TD*%
D14*
%TO.C,U8*%
X82715000Y21596400D03*
X82715000Y23298200D03*
X82715000Y25000000D03*
X82715000Y26701800D03*
X82715000Y28403600D03*
D15*
X73444000Y25000000D03*
%TD*%
D11*
%TO.C,C41*%
X86330000Y51000000D03*
X91670000Y51000000D03*
%TD*%
D21*
%TO.C,TVS2*%
X106000000Y45670000D03*
X106000000Y50330000D03*
%TD*%
D19*
%TO.C,C14*%
X57700000Y67980000D03*
X57700000Y71020000D03*
%TD*%
D22*
%TO.C,C39*%
X41480000Y63500000D03*
X44520000Y63500000D03*
%TD*%
D23*
%TO.C,R9*%
X57000000Y1700000D03*
X59000000Y1700000D03*
%TD*%
D24*
%TO.C,R1*%
X40500000Y75250000D03*
X40500000Y76750000D03*
%TD*%
D25*
%TO.C,L3*%
X41230000Y25000000D03*
X52770000Y25000000D03*
%TD*%
D16*
%TO.C,R21*%
X86250000Y76000000D03*
X87750000Y76000000D03*
%TD*%
D26*
%TO.C,L1*%
X47975000Y70000000D03*
X54025000Y70000000D03*
%TD*%
D18*
%TO.C,C10*%
X33000000Y18000000D03*
X35000000Y18000000D03*
%TD*%
%TO.C,C33*%
X37300000Y36000000D03*
X39300000Y36000000D03*
%TD*%
D16*
%TO.C,R20*%
X86250000Y79000000D03*
X87750000Y79000000D03*
%TD*%
D27*
%TO.C,U2*%
X41800000Y70950000D03*
X41800000Y70000000D03*
X41800000Y69050000D03*
X44200000Y69050000D03*
X44200000Y70000000D03*
X44200000Y70950000D03*
%TD*%
D18*
%TO.C,C17*%
X82000000Y61000000D03*
X84000000Y61000000D03*
%TD*%
D24*
%TO.C,R6*%
X32000000Y34250000D03*
X32000000Y35750000D03*
%TD*%
D28*
%TO.C,D3*%
X35000000Y22000000D03*
X35000000Y26000000D03*
%TD*%
D16*
%TO.C,R23*%
X89250000Y61000000D03*
X90750000Y61000000D03*
%TD*%
D17*
%TO.C,C12*%
X43500000Y38000000D03*
X52500000Y38000000D03*
%TD*%
D25*
%TO.C,L2*%
X41230000Y51000000D03*
X52770000Y51000000D03*
%TD*%
D29*
%TO.C,C11*%
X58710000Y30000000D03*
X65290000Y30000000D03*
%TD*%
D17*
%TO.C,C5*%
X13500000Y79000000D03*
X22500000Y79000000D03*
%TD*%
D16*
%TO.C,R24*%
X89250000Y58000000D03*
X90750000Y58000000D03*
%TD*%
D19*
%TO.C,C20*%
X57700000Y61480000D03*
X57700000Y64520000D03*
%TD*%
D23*
%TO.C,R8*%
X57000000Y5100000D03*
X59000000Y5100000D03*
%TD*%
D11*
%TO.C,C23*%
X97330000Y40000000D03*
X102670000Y40000000D03*
%TD*%
D30*
%TO.C,LED3*%
X63000000Y4350000D03*
X63000000Y5850000D03*
%TD*%
D11*
%TO.C,C4*%
X59330000Y51000000D03*
X64670000Y51000000D03*
%TD*%
D23*
%TO.C,R7*%
X57000000Y8500000D03*
X59000000Y8500000D03*
%TD*%
D29*
%TO.C,C9*%
X24990000Y12000000D03*
X18410000Y12000000D03*
%TD*%
D31*
%TO.C,C15*%
X63000000Y58300000D03*
X63000000Y59700000D03*
%TD*%
D14*
%TO.C,U7*%
X82715000Y47596400D03*
X82715000Y49298200D03*
X82715000Y51000000D03*
X82715000Y52701800D03*
X82715000Y54403600D03*
D15*
X73444000Y51000000D03*
%TD*%
D32*
%TO.C,U3*%
X28160000Y45600000D03*
X28160000Y47300000D03*
X28160000Y49000000D03*
X28160000Y50700000D03*
X28160000Y52400000D03*
D33*
X17840000Y49000000D03*
%TD*%
D16*
%TO.C,R3*%
X26750000Y56000000D03*
X25250000Y56000000D03*
%TD*%
D18*
%TO.C,C19*%
X85000000Y33000000D03*
X87000000Y33000000D03*
%TD*%
D34*
%TO.C,PTC1*%
X100500000Y76900000D03*
X100500000Y80100000D03*
%TD*%
D17*
%TO.C,C25*%
X107400000Y16200000D03*
X98400000Y16200000D03*
%TD*%
D32*
%TO.C,U4*%
X28160000Y21600000D03*
X28160000Y23300000D03*
X28160000Y25000000D03*
X28160000Y26700000D03*
X28160000Y28400000D03*
D33*
X17840000Y25000000D03*
%TD*%
D24*
%TO.C,R4*%
X26000000Y58250000D03*
X26000000Y59750000D03*
%TD*%
D35*
%TO.C,PTC2*%
X102000000Y54150000D03*
X102000000Y57850000D03*
%TD*%
D22*
%TO.C,C46*%
X29520000Y78500000D03*
X26480000Y78500000D03*
%TD*%
D21*
%TO.C,TVS3*%
X106000000Y22970000D03*
X106000000Y27630000D03*
%TD*%
D18*
%TO.C,C6*%
X42000000Y67000000D03*
X44000000Y67000000D03*
%TD*%
%TO.C,C8*%
X33000000Y44000000D03*
X35000000Y44000000D03*
%TD*%
D19*
%TO.C,C37*%
X62300000Y67980000D03*
X62300000Y71020000D03*
%TD*%
D21*
%TO.C,TVS1*%
X108000000Y65170000D03*
X108000000Y69830000D03*
%TD*%
D36*
%TO.C,C38*%
X44000000Y73500000D03*
X44000000Y75500000D03*
%TD*%
D19*
%TO.C,C3*%
X57700000Y74480000D03*
X57700000Y77520000D03*
%TD*%
D16*
%TO.C,R5*%
X33250000Y32000000D03*
X34750000Y32000000D03*
%TD*%
D10*
%TO.C,C21*%
X99000000Y62500000D03*
X99000000Y71500000D03*
%TD*%
D31*
%TO.C,C16*%
X57000000Y36800000D03*
X57000000Y38200000D03*
%TD*%
D30*
%TO.C,LED2*%
X63000000Y7750000D03*
X63000000Y9250000D03*
%TD*%
%TO.C,LED4*%
X63000000Y950000D03*
X63000000Y2450000D03*
%TD*%
M02*
