%TF.GenerationSoftware,KiCad,Pcbnew,10.0.0*%
%TF.CreationDate,2026-09-20T04:58:47+09:00*%
%TF.ProjectId,board-b,626f6172-642d-4622-9e6b-696361645f70,rev?*%
%TF.SameCoordinates,Original*%
%TF.FileFunction,Legend,Bot*%
%TF.FilePolarity,Positive*%
%FSLAX46Y46*%
G04 Gerber Fmt 4.6, Leading zero omitted, Abs format (unit mm)*
G04 Created by KiCad (PCBNEW 10.0.0) date 2026-09-20 04:58:47*
%MOMM*%
%LPD*%
G01*
G04 APERTURE LIST*
%ADD10C,0.150000*%
%ADD11C,0.250000*%
%ADD12C,0.060000*%
%ADD13C,3.200000*%
%ADD14R,2.200000X2.200000*%
%ADD15C,2.200000*%
%ADD16R,1.800000X1.800000*%
%ADD17C,1.800000*%
%ADD18C,1.600000*%
G04 APERTURE END LIST*
D10*
X13199999Y80446443D02*
X13199999Y79803586D01*
X13199999Y79803586D02*
X13242856Y79675015D01*
X13242856Y79675015D02*
X13328570Y79589300D01*
X13328570Y79589300D02*
X13457142Y79546443D01*
X13457142Y79546443D02*
X13542856Y79546443D01*
X12342856Y80446443D02*
X12771428Y80446443D01*
X12771428Y80446443D02*
X12814285Y80017872D01*
X12814285Y80017872D02*
X12771428Y80060729D01*
X12771428Y80060729D02*
X12685714Y80103586D01*
X12685714Y80103586D02*
X12471428Y80103586D01*
X12471428Y80103586D02*
X12385714Y80060729D01*
X12385714Y80060729D02*
X12342856Y80017872D01*
X12342856Y80017872D02*
X12299999Y79932158D01*
X12299999Y79932158D02*
X12299999Y79717872D01*
X12299999Y79717872D02*
X12342856Y79632158D01*
X12342856Y79632158D02*
X12385714Y79589300D01*
X12385714Y79589300D02*
X12471428Y79546443D01*
X12471428Y79546443D02*
X12685714Y79546443D01*
X12685714Y79546443D02*
X12771428Y79589300D01*
X12771428Y79589300D02*
X12814285Y79632158D01*
%TO.C,J5*%
D11*
X5030000Y78550000D02*
X20770000Y78550000D01*
X5030000Y76050000D02*
X5030000Y78550000D01*
X7820000Y76050000D02*
X7820000Y78550000D01*
X20770000Y78550000D02*
X20770000Y76050000D01*
X20770000Y76050000D02*
X5030000Y76050000D01*
D12*
X5060000Y78550000D02*
G75*
G02*
X5000000Y78550000I-30000J0D01*
G01*
X5000000Y78550000D02*
G75*
G02*
X5060000Y78550000I30000J0D01*
G01*
%TD*%
%LPC*%
D13*
%TO.C,H1*%
X4000000Y111000000D03*
%TD*%
D14*
%TO.C,J8*%
X7460000Y15000000D03*
D15*
X12540000Y15000000D03*
%TD*%
D13*
%TO.C,H5*%
X4000000Y4000000D03*
%TD*%
%TO.C,H2*%
X23000000Y111000000D03*
%TD*%
%TO.C,H3*%
X12800000Y82400000D03*
%TD*%
D14*
%TO.C,J7*%
X7460000Y29000000D03*
D15*
X12540000Y29000000D03*
%TD*%
D16*
%TO.C,J10*%
X63890000Y13500000D03*
D17*
X63890000Y10960000D03*
X61350000Y13500000D03*
X61350000Y10960000D03*
X58810000Y13500000D03*
X58810000Y10960000D03*
X56270000Y13500000D03*
X56270000Y10960000D03*
X53730000Y13500000D03*
X53730000Y10960000D03*
X51190000Y13500000D03*
X51190000Y10960000D03*
X48650000Y13500000D03*
X48650000Y10960000D03*
X46110000Y13500000D03*
X46110000Y10960000D03*
%TD*%
D16*
%TO.C,J11*%
X104890000Y13500000D03*
D17*
X104890000Y10960000D03*
X102350000Y13500000D03*
X102350000Y10960000D03*
X99810000Y13500000D03*
X99810000Y10960000D03*
X97270000Y13500000D03*
X97270000Y10960000D03*
X94730000Y13500000D03*
X94730000Y10960000D03*
X92190000Y13500000D03*
X92190000Y10960000D03*
X89650000Y13500000D03*
X89650000Y10960000D03*
X87110000Y13500000D03*
X87110000Y10960000D03*
%TD*%
D14*
%TO.C,J6*%
X7460000Y57000000D03*
D15*
X12540000Y57000000D03*
%TD*%
D13*
%TO.C,H4*%
X146000000Y111000000D03*
%TD*%
%TO.C,H6*%
X146000000Y4000000D03*
%TD*%
D14*
%TO.C,J9*%
X7460000Y43000000D03*
D15*
X12540000Y43000000D03*
%TD*%
D16*
%TO.C,J5*%
X6550000Y77300000D03*
D18*
X9090000Y77300000D03*
X11630000Y77300000D03*
X14170000Y77300000D03*
X16710000Y77300000D03*
X19250000Y77300000D03*
%TD*%
%LPD*%
M02*
