M48
; DRILL file KiCad 10.0.0 date 2026-09-20T04:58:48
; FORMAT={-:-/ absolute / metric / decimal}
; #@! TF.CreationDate,2026-09-20T04:58:48+09:00
; #@! TF.GenerationSoftware,Kicad,Pcbnew,10.0.0
; #@! TF.FileFunction,Plated,1,2,PTH
FMAT,2
METRIC
; #@! TA.AperFunction,Plated,PTH,ViaDrill
T1C0.400
; #@! TA.AperFunction,Plated,PTH,ViaDrill
T2C0.600
; #@! TA.AperFunction,Plated,PTH,ComponentDrill
T3C1.020
; #@! TA.AperFunction,Plated,PTH,ComponentDrill
T4C1.020
; #@! TA.AperFunction,Plated,PTH,ComponentDrill
T5C1.400
%
G90
G05
T1
X34.59Y40.0
X34.59Y37.0
X34.59Y34.0
X37.34Y43.5
X37.34Y30.5
X39.84Y43.5
X39.84Y30.5
X42.34Y43.5
X42.34Y30.5
X45.09Y40.0
X45.09Y37.0
X45.09Y34.0
X56.2Y90.5
X101.999Y100.0
X101.999Y97.0
X101.999Y94.0
X101.999Y70.0
X101.999Y67.0
X101.999Y64.0
X101.999Y40.0
X101.999Y37.0
X101.999Y34.0
X104.944Y103.334
X104.944Y90.666
X104.944Y73.334
X104.944Y60.666
X104.944Y43.334
X104.944Y30.666
X107.444Y103.334
X107.444Y90.666
X107.444Y73.334
X107.444Y60.666
X107.444Y43.334
X107.444Y30.666
X109.944Y103.334
X109.944Y90.666
X109.944Y73.334
X109.944Y60.666
X109.944Y43.334
X109.944Y30.666
X112.889Y100.0
X112.889Y97.0
X112.889Y94.0
X112.889Y70.0
X112.889Y67.0
X112.889Y64.0
X112.889Y40.0
X112.889Y37.0
X112.889Y34.0
T2
X53.686Y68.684
X60.0Y78.502
X118.347Y71.589
X120.99Y72.735
X122.962Y15.0
X123.093Y58.642
X124.0Y90.0
X124.0Y60.0
X124.0Y30.0
X127.5Y54.0
X129.05Y11.683
X129.5Y27.5
X130.2Y7.367
X131.714Y8.25
X132.768Y37.078
X135.508Y14.97
X136.5Y100.4
X136.5Y70.15
X136.5Y40.55
X144.0Y87.674
T3
X46.11Y13.5
X46.11Y10.96
X48.65Y13.5
X48.65Y10.96
X51.19Y13.5
X51.19Y10.96
X53.73Y13.5
X53.73Y10.96
X56.27Y13.5
X56.27Y10.96
X58.81Y13.5
X58.81Y10.96
X61.35Y13.5
X61.35Y10.96
X63.89Y13.5
X63.89Y10.96
X87.11Y13.5
X87.11Y10.96
X89.65Y13.5
X89.65Y10.96
X92.19Y13.5
X92.19Y10.96
X94.73Y13.5
X94.73Y10.96
X97.27Y13.5
X97.27Y10.96
X99.81Y13.5
X99.81Y10.96
X102.35Y13.5
X102.35Y10.96
X104.89Y13.5
X104.89Y10.96
T4
X6.55Y77.3
X9.09Y77.3
X11.63Y77.3
X14.17Y77.3
X16.71Y77.3
X19.25Y77.3
T5
X7.46Y57.0
X7.46Y43.0
X7.46Y29.0
X7.46Y15.0
X12.54Y57.0
X12.54Y43.0
X12.54Y29.0
X12.54Y15.0
M30
