%TF.GenerationSoftware,KiCad,Pcbnew,10.0.0*%
%TF.CreationDate,2026-09-20T04:58:47+09:00*%
%TF.ProjectId,board-b,626f6172-642d-4622-9e6b-696361645f70,rev?*%
%TF.SameCoordinates,Original*%
%TF.FileFunction,Soldermask,Top*%
%TF.FilePolarity,Negative*%
%FSLAX46Y46*%
G04 Gerber Fmt 4.6, Leading zero omitted, Abs format (unit mm)*
G04 Created by KiCad (PCBNEW 10.0.0) date 2026-09-20 04:58:47*
%MOMM*%
%LPD*%
G01*
G04 APERTURE LIST*
%ADD10R,0.860000X0.810000*%
%ADD11R,3.610000X1.260000*%
%ADD12R,1.635000X2.700000*%
%ADD13C,3.200000*%
%ADD14R,2.200000X2.200000*%
%ADD15C,2.200000*%
%ADD16R,1.410000X1.350000*%
%ADD17C,1.500000*%
%ADD18R,1.730000X1.190000*%
%ADD19C,2.000000*%
%ADD20R,1.350000X1.410000*%
%ADD21R,0.800000X0.800000*%
%ADD22R,0.900000X0.800000*%
%ADD23R,0.810000X0.860000*%
%ADD24R,2.286000X1.066800*%
%ADD25R,8.890000X10.668000*%
%ADD26R,1.380000X1.130000*%
%ADD27R,3.080000X1.020000*%
%ADD28R,8.500000X11.000000*%
%ADD29R,3.730000X5.000000*%
%ADD30R,2.000000X2.000000*%
%ADD31R,2.780000X1.490000*%
%ADD32R,1.900000X1.900000*%
%ADD33R,4.500000X1.650000*%
%ADD34R,1.650000X4.500000*%
%ADD35R,1.500000X2.500000*%
%ADD36R,3.500000X1.200000*%
%ADD37R,1.800000X1.800000*%
%ADD38C,1.800000*%
%ADD39R,1.200000X3.500000*%
%ADD40R,3.500000X1.410000*%
%ADD41R,0.800000X0.532000*%
%ADD42R,1.700000X2.500000*%
%ADD43R,2.350000X3.500000*%
%ADD44C,1.600000*%
G04 APERTURE END LIST*
D10*
%TO.C,R1*%
X50000000Y102250000D03*
X50000000Y103750000D03*
%TD*%
D11*
%TO.C,C9*%
X49290000Y24000000D03*
X42710000Y24000000D03*
%TD*%
D12*
%TO.C,C37*%
X73480000Y94500000D03*
X76520000Y94500000D03*
%TD*%
D10*
%TO.C,R4*%
X51000000Y74250000D03*
X51000000Y75750000D03*
%TD*%
D13*
%TO.C,H1*%
X4000000Y111000000D03*
%TD*%
D14*
%TO.C,J8*%
X7460000Y15000000D03*
D15*
X12540000Y15000000D03*
%TD*%
D16*
%TO.C,C19*%
X119000000Y45000000D03*
X121000000Y45000000D03*
%TD*%
D17*
%TO.C,TP4*%
X87000000Y76000000D03*
%TD*%
D18*
%TO.C,PTC3*%
X140000000Y40550000D03*
X140000000Y43450000D03*
%TD*%
D19*
%TO.C,FID2*%
X140000000Y107000000D03*
%TD*%
D16*
%TO.C,C33*%
X60000000Y47000000D03*
X62000000Y47000000D03*
%TD*%
D13*
%TO.C,H5*%
X4000000Y4000000D03*
%TD*%
D20*
%TO.C,C38*%
X54000000Y100500000D03*
X54000000Y102500000D03*
%TD*%
D13*
%TO.C,H2*%
X23000000Y111000000D03*
%TD*%
D21*
%TO.C,LED4*%
X134000000Y8250000D03*
X134000000Y9750000D03*
%TD*%
D22*
%TO.C,C16*%
X95000000Y44300000D03*
X95000000Y45700000D03*
%TD*%
D12*
%TO.C,C14*%
X67480000Y101500000D03*
X70520000Y101500000D03*
%TD*%
D23*
%TO.C,R5*%
X55250000Y44000000D03*
X56750000Y44000000D03*
%TD*%
D24*
%TO.C,U6*%
X116715000Y93596400D03*
X116715000Y95298200D03*
X116715000Y97000000D03*
X116715000Y98701800D03*
X116715000Y100403600D03*
D25*
X107444000Y97000000D03*
%TD*%
D26*
%TO.C,R8*%
X127000000Y13000000D03*
X127000000Y15000000D03*
%TD*%
D27*
%TO.C,U4*%
X50160000Y33600000D03*
X50160000Y35300000D03*
X50160000Y37000000D03*
X50160000Y38700000D03*
X50160000Y40400000D03*
D28*
X39840000Y37000000D03*
%TD*%
D10*
%TO.C,R6*%
X51000000Y44250000D03*
X51000000Y45750000D03*
%TD*%
D16*
%TO.C,C10*%
X55000000Y30000000D03*
X57000000Y30000000D03*
%TD*%
%TO.C,C17*%
X119000000Y89000000D03*
X121000000Y89000000D03*
%TD*%
D29*
%TO.C,L3*%
X63230000Y37000000D03*
X74770000Y37000000D03*
%TD*%
D12*
%TO.C,C36*%
X73480000Y99000000D03*
X76520000Y99000000D03*
%TD*%
D17*
%TO.C,TP3*%
X87000000Y106000000D03*
%TD*%
D29*
%TO.C,L2*%
X63230000Y67000000D03*
X74770000Y67000000D03*
%TD*%
D23*
%TO.C,R22*%
X129250000Y104000000D03*
X130750000Y104000000D03*
%TD*%
D30*
%TO.C,D2*%
X57000000Y63800000D03*
X57000000Y68200000D03*
%TD*%
D23*
%TO.C,R2*%
X46250000Y100000000D03*
X47750000Y100000000D03*
%TD*%
D31*
%TO.C,PTC1*%
X140000000Y100400000D03*
X140000000Y103600000D03*
%TD*%
D21*
%TO.C,LED2*%
X120000000Y8250000D03*
X120000000Y9750000D03*
%TD*%
D32*
%TO.C,TVS3*%
X144000000Y29670000D03*
X144000000Y34330000D03*
%TD*%
D24*
%TO.C,U8*%
X116715000Y33596400D03*
X116715000Y35298200D03*
X116715000Y37000000D03*
X116715000Y38701800D03*
X116715000Y40403600D03*
D25*
X107444000Y37000000D03*
%TD*%
D23*
%TO.C,R25*%
X129250000Y74000000D03*
X130750000Y74000000D03*
%TD*%
D32*
%TO.C,TVS2*%
X144000000Y59670000D03*
X144000000Y64330000D03*
%TD*%
D24*
%TO.C,U7*%
X116715000Y63596400D03*
X116715000Y65298200D03*
X116715000Y67000000D03*
X116715000Y68701800D03*
X116715000Y70403600D03*
D25*
X107444000Y67000000D03*
%TD*%
D33*
%TO.C,C7*%
X50500000Y54000000D03*
X41500000Y54000000D03*
%TD*%
D34*
%TO.C,C5*%
X35000000Y86500000D03*
X35000000Y95500000D03*
%TD*%
D33*
%TO.C,C25*%
X138500000Y24000000D03*
X129500000Y24000000D03*
%TD*%
D35*
%TO.C,P1*%
X9090000Y71000000D03*
X11630000Y71000000D03*
X14170000Y71000000D03*
X16710000Y71000000D03*
%TD*%
D13*
%TO.C,H3*%
X12800000Y82400000D03*
%TD*%
D36*
%TO.C,C41*%
X120330000Y67000000D03*
X125670000Y67000000D03*
%TD*%
D34*
%TO.C,C24*%
X95000000Y26500000D03*
X95000000Y35500000D03*
%TD*%
D14*
%TO.C,J7*%
X7460000Y29000000D03*
D15*
X12540000Y29000000D03*
%TD*%
D37*
%TO.C,J10*%
X63890000Y13500000D03*
D38*
X63890000Y10960000D03*
X61350000Y13500000D03*
X61350000Y10960000D03*
X58810000Y13500000D03*
X58810000Y10960000D03*
X56270000Y13500000D03*
X56270000Y10960000D03*
X53730000Y13500000D03*
X53730000Y10960000D03*
X51190000Y13500000D03*
X51190000Y10960000D03*
X48650000Y13500000D03*
X48650000Y10960000D03*
X46110000Y13500000D03*
X46110000Y10960000D03*
%TD*%
D37*
%TO.C,J11*%
X104890000Y13500000D03*
D38*
X104890000Y10960000D03*
X102350000Y13500000D03*
X102350000Y10960000D03*
X99810000Y13500000D03*
X99810000Y10960000D03*
X97270000Y13500000D03*
X97270000Y10960000D03*
X94730000Y13500000D03*
X94730000Y10960000D03*
X92190000Y13500000D03*
X92190000Y10960000D03*
X89650000Y13500000D03*
X89650000Y10960000D03*
X87110000Y13500000D03*
X87110000Y10960000D03*
%TD*%
D16*
%TO.C,C18*%
X119000000Y59000000D03*
X121000000Y59000000D03*
%TD*%
D12*
%TO.C,C20*%
X67480000Y92500000D03*
X70520000Y92500000D03*
%TD*%
D27*
%TO.C,U3*%
X50160000Y63600000D03*
X50160000Y65300000D03*
X50160000Y67000000D03*
X50160000Y68700000D03*
X50160000Y70400000D03*
D28*
X39840000Y67000000D03*
%TD*%
D21*
%TO.C,LED3*%
X127000000Y8250000D03*
X127000000Y9750000D03*
%TD*%
D19*
%TO.C,FID1*%
X12000000Y107000000D03*
%TD*%
D12*
%TO.C,C46*%
X47020000Y86000000D03*
X43980000Y86000000D03*
%TD*%
D16*
%TO.C,C32*%
X60000000Y77000000D03*
X62000000Y77000000D03*
%TD*%
D14*
%TO.C,J6*%
X7460000Y57000000D03*
D15*
X12540000Y57000000D03*
%TD*%
D36*
%TO.C,C23*%
X131330000Y54000000D03*
X136670000Y54000000D03*
%TD*%
D23*
%TO.C,R23*%
X123250000Y77000000D03*
X124750000Y77000000D03*
%TD*%
D32*
%TO.C,TVS1*%
X144000000Y89670000D03*
X144000000Y94330000D03*
%TD*%
D36*
%TO.C,C42*%
X125670000Y37000000D03*
X120330000Y37000000D03*
%TD*%
D39*
%TO.C,C22*%
X95000000Y58330000D03*
X95000000Y63670000D03*
%TD*%
D23*
%TO.C,R20*%
X123250000Y107000000D03*
X124750000Y107000000D03*
%TD*%
D40*
%TO.C,PTC2*%
X140000000Y70150000D03*
X140000000Y73850000D03*
%TD*%
D36*
%TO.C,C40*%
X120330000Y97000000D03*
X125670000Y97000000D03*
%TD*%
D41*
%TO.C,U2*%
X51800000Y97950000D03*
X51800000Y97000000D03*
X51800000Y96050000D03*
X54200000Y96050000D03*
X54200000Y97000000D03*
X54200000Y97950000D03*
%TD*%
D33*
%TO.C,C12*%
X75500000Y24000000D03*
X84500000Y24000000D03*
%TD*%
D23*
%TO.C,R3*%
X55250000Y74000000D03*
X56750000Y74000000D03*
%TD*%
D13*
%TO.C,H4*%
X146000000Y111000000D03*
%TD*%
D23*
%TO.C,R21*%
X123250000Y104000000D03*
X124750000Y104000000D03*
%TD*%
D12*
%TO.C,C3*%
X67480000Y97000000D03*
X70520000Y97000000D03*
%TD*%
D42*
%TO.C,D3*%
X57000000Y34000000D03*
X57000000Y38000000D03*
%TD*%
D22*
%TO.C,C15*%
X95000000Y74300000D03*
X95000000Y75700000D03*
%TD*%
D13*
%TO.C,H6*%
X146000000Y4000000D03*
%TD*%
D11*
%TO.C,C11*%
X80710000Y37000000D03*
X87290000Y37000000D03*
%TD*%
D14*
%TO.C,J9*%
X7460000Y43000000D03*
D15*
X12540000Y43000000D03*
%TD*%
D23*
%TO.C,R24*%
X123250000Y74000000D03*
X124750000Y74000000D03*
%TD*%
D33*
%TO.C,C21*%
X129500000Y84000000D03*
X138500000Y84000000D03*
%TD*%
D12*
%TO.C,C39*%
X51480000Y90500000D03*
X54520000Y90500000D03*
%TD*%
D17*
%TO.C,TP5*%
X87000000Y46000000D03*
%TD*%
D26*
%TO.C,R9*%
X134000000Y13000000D03*
X134000000Y15000000D03*
%TD*%
D19*
%TO.C,FID3*%
X18000000Y8000000D03*
%TD*%
D16*
%TO.C,C6*%
X52000000Y94000000D03*
X54000000Y94000000D03*
%TD*%
%TO.C,C8*%
X55000000Y60000000D03*
X57000000Y60000000D03*
%TD*%
D36*
%TO.C,C4*%
X81330000Y67000000D03*
X86670000Y67000000D03*
%TD*%
D43*
%TO.C,L1*%
X57975000Y97000000D03*
X64025000Y97000000D03*
%TD*%
D26*
%TO.C,R7*%
X120000000Y13000000D03*
X120000000Y15000000D03*
%TD*%
D37*
%TO.C,J5*%
X6550000Y77300000D03*
D44*
X9090000Y77300000D03*
X11630000Y77300000D03*
X14170000Y77300000D03*
X16710000Y77300000D03*
X19250000Y77300000D03*
%TD*%
M02*
