%TF.GenerationSoftware,KiCad,Pcbnew,10.0.0*%
%TF.CreationDate,2026-09-20T04:58:47+09:00*%
%TF.ProjectId,board-b,626f6172-642d-4622-9e6b-696361645f70,rev?*%
%TF.SameCoordinates,Original*%
%TF.FileFunction,Paste,Top*%
%TF.FilePolarity,Positive*%
%FSLAX46Y46*%
G04 Gerber Fmt 4.6, Leading zero omitted, Abs format (unit mm)*
G04 Created by KiCad (PCBNEW 10.0.0) date 2026-09-20 04:58:47*
%MOMM*%
%LPD*%
G01*
G04 APERTURE LIST*
%ADD10R,0.860000X0.810000*%
%ADD11R,3.610000X1.260000*%
%ADD12R,1.635000X2.700000*%
%ADD13R,1.410000X1.350000*%
%ADD14R,1.730000X1.190000*%
%ADD15R,1.350000X1.410000*%
%ADD16R,0.800000X0.800000*%
%ADD17R,0.900000X0.800000*%
%ADD18R,0.810000X0.860000*%
%ADD19R,2.286000X1.066800*%
%ADD20R,8.890000X10.668000*%
%ADD21R,1.380000X1.130000*%
%ADD22R,3.080000X1.020000*%
%ADD23R,8.500000X11.000000*%
%ADD24R,3.730000X5.000000*%
%ADD25R,2.000000X2.000000*%
%ADD26R,2.780000X1.490000*%
%ADD27R,1.900000X1.900000*%
%ADD28R,4.500000X1.650000*%
%ADD29R,1.650000X4.500000*%
%ADD30R,3.500000X1.200000*%
%ADD31R,1.200000X3.500000*%
%ADD32R,3.500000X1.410000*%
%ADD33R,0.800000X0.532000*%
%ADD34R,1.700000X2.500000*%
%ADD35R,2.350000X3.500000*%
G04 APERTURE END LIST*
D10*
%TO.C,R1*%
X50000000Y102250000D03*
X50000000Y103750000D03*
%TD*%
D11*
%TO.C,C9*%
X49290000Y24000000D03*
X42710000Y24000000D03*
%TD*%
D12*
%TO.C,C37*%
X73480000Y94500000D03*
X76520000Y94500000D03*
%TD*%
D10*
%TO.C,R4*%
X51000000Y74250000D03*
X51000000Y75750000D03*
%TD*%
D13*
%TO.C,C19*%
X119000000Y45000000D03*
X121000000Y45000000D03*
%TD*%
D14*
%TO.C,PTC3*%
X140000000Y40550000D03*
X140000000Y43450000D03*
%TD*%
D13*
%TO.C,C33*%
X60000000Y47000000D03*
X62000000Y47000000D03*
%TD*%
D15*
%TO.C,C38*%
X54000000Y100500000D03*
X54000000Y102500000D03*
%TD*%
D16*
%TO.C,LED4*%
X134000000Y8250000D03*
X134000000Y9750000D03*
%TD*%
D17*
%TO.C,C16*%
X95000000Y44300000D03*
X95000000Y45700000D03*
%TD*%
D12*
%TO.C,C14*%
X67480000Y101500000D03*
X70520000Y101500000D03*
%TD*%
D18*
%TO.C,R5*%
X55250000Y44000000D03*
X56750000Y44000000D03*
%TD*%
D19*
%TO.C,U6*%
X116715000Y93596400D03*
X116715000Y95298200D03*
X116715000Y97000000D03*
X116715000Y98701800D03*
X116715000Y100403600D03*
D20*
X107444000Y97000000D03*
%TD*%
D21*
%TO.C,R8*%
X127000000Y13000000D03*
X127000000Y15000000D03*
%TD*%
D22*
%TO.C,U4*%
X50160000Y33600000D03*
X50160000Y35300000D03*
X50160000Y37000000D03*
X50160000Y38700000D03*
X50160000Y40400000D03*
D23*
X39840000Y37000000D03*
%TD*%
D10*
%TO.C,R6*%
X51000000Y44250000D03*
X51000000Y45750000D03*
%TD*%
D13*
%TO.C,C10*%
X55000000Y30000000D03*
X57000000Y30000000D03*
%TD*%
%TO.C,C17*%
X119000000Y89000000D03*
X121000000Y89000000D03*
%TD*%
D24*
%TO.C,L3*%
X63230000Y37000000D03*
X74770000Y37000000D03*
%TD*%
D12*
%TO.C,C36*%
X73480000Y99000000D03*
X76520000Y99000000D03*
%TD*%
D24*
%TO.C,L2*%
X63230000Y67000000D03*
X74770000Y67000000D03*
%TD*%
D18*
%TO.C,R22*%
X129250000Y104000000D03*
X130750000Y104000000D03*
%TD*%
D25*
%TO.C,D2*%
X57000000Y63800000D03*
X57000000Y68200000D03*
%TD*%
D18*
%TO.C,R2*%
X46250000Y100000000D03*
X47750000Y100000000D03*
%TD*%
D26*
%TO.C,PTC1*%
X140000000Y100400000D03*
X140000000Y103600000D03*
%TD*%
D16*
%TO.C,LED2*%
X120000000Y8250000D03*
X120000000Y9750000D03*
%TD*%
D27*
%TO.C,TVS3*%
X144000000Y29670000D03*
X144000000Y34330000D03*
%TD*%
D19*
%TO.C,U8*%
X116715000Y33596400D03*
X116715000Y35298200D03*
X116715000Y37000000D03*
X116715000Y38701800D03*
X116715000Y40403600D03*
D20*
X107444000Y37000000D03*
%TD*%
D18*
%TO.C,R25*%
X129250000Y74000000D03*
X130750000Y74000000D03*
%TD*%
D27*
%TO.C,TVS2*%
X144000000Y59670000D03*
X144000000Y64330000D03*
%TD*%
D19*
%TO.C,U7*%
X116715000Y63596400D03*
X116715000Y65298200D03*
X116715000Y67000000D03*
X116715000Y68701800D03*
X116715000Y70403600D03*
D20*
X107444000Y67000000D03*
%TD*%
D28*
%TO.C,C7*%
X50500000Y54000000D03*
X41500000Y54000000D03*
%TD*%
D29*
%TO.C,C5*%
X35000000Y86500000D03*
X35000000Y95500000D03*
%TD*%
D28*
%TO.C,C25*%
X138500000Y24000000D03*
X129500000Y24000000D03*
%TD*%
D30*
%TO.C,C41*%
X120330000Y67000000D03*
X125670000Y67000000D03*
%TD*%
D29*
%TO.C,C24*%
X95000000Y26500000D03*
X95000000Y35500000D03*
%TD*%
D13*
%TO.C,C18*%
X119000000Y59000000D03*
X121000000Y59000000D03*
%TD*%
D12*
%TO.C,C20*%
X67480000Y92500000D03*
X70520000Y92500000D03*
%TD*%
D22*
%TO.C,U3*%
X50160000Y63600000D03*
X50160000Y65300000D03*
X50160000Y67000000D03*
X50160000Y68700000D03*
X50160000Y70400000D03*
D23*
X39840000Y67000000D03*
%TD*%
D16*
%TO.C,LED3*%
X127000000Y8250000D03*
X127000000Y9750000D03*
%TD*%
D12*
%TO.C,C46*%
X47020000Y86000000D03*
X43980000Y86000000D03*
%TD*%
D13*
%TO.C,C32*%
X60000000Y77000000D03*
X62000000Y77000000D03*
%TD*%
D30*
%TO.C,C23*%
X131330000Y54000000D03*
X136670000Y54000000D03*
%TD*%
D18*
%TO.C,R23*%
X123250000Y77000000D03*
X124750000Y77000000D03*
%TD*%
D27*
%TO.C,TVS1*%
X144000000Y89670000D03*
X144000000Y94330000D03*
%TD*%
D30*
%TO.C,C42*%
X125670000Y37000000D03*
X120330000Y37000000D03*
%TD*%
D31*
%TO.C,C22*%
X95000000Y58330000D03*
X95000000Y63670000D03*
%TD*%
D18*
%TO.C,R20*%
X123250000Y107000000D03*
X124750000Y107000000D03*
%TD*%
D32*
%TO.C,PTC2*%
X140000000Y70150000D03*
X140000000Y73850000D03*
%TD*%
D30*
%TO.C,C40*%
X120330000Y97000000D03*
X125670000Y97000000D03*
%TD*%
D33*
%TO.C,U2*%
X51800000Y97950000D03*
X51800000Y97000000D03*
X51800000Y96050000D03*
X54200000Y96050000D03*
X54200000Y97000000D03*
X54200000Y97950000D03*
%TD*%
D28*
%TO.C,C12*%
X75500000Y24000000D03*
X84500000Y24000000D03*
%TD*%
D18*
%TO.C,R3*%
X55250000Y74000000D03*
X56750000Y74000000D03*
%TD*%
%TO.C,R21*%
X123250000Y104000000D03*
X124750000Y104000000D03*
%TD*%
D12*
%TO.C,C3*%
X67480000Y97000000D03*
X70520000Y97000000D03*
%TD*%
D34*
%TO.C,D3*%
X57000000Y34000000D03*
X57000000Y38000000D03*
%TD*%
D17*
%TO.C,C15*%
X95000000Y74300000D03*
X95000000Y75700000D03*
%TD*%
D11*
%TO.C,C11*%
X80710000Y37000000D03*
X87290000Y37000000D03*
%TD*%
D18*
%TO.C,R24*%
X123250000Y74000000D03*
X124750000Y74000000D03*
%TD*%
D28*
%TO.C,C21*%
X129500000Y84000000D03*
X138500000Y84000000D03*
%TD*%
D12*
%TO.C,C39*%
X51480000Y90500000D03*
X54520000Y90500000D03*
%TD*%
D21*
%TO.C,R9*%
X134000000Y13000000D03*
X134000000Y15000000D03*
%TD*%
D13*
%TO.C,C6*%
X52000000Y94000000D03*
X54000000Y94000000D03*
%TD*%
%TO.C,C8*%
X55000000Y60000000D03*
X57000000Y60000000D03*
%TD*%
D30*
%TO.C,C4*%
X81330000Y67000000D03*
X86670000Y67000000D03*
%TD*%
D35*
%TO.C,L1*%
X57975000Y97000000D03*
X64025000Y97000000D03*
%TD*%
D21*
%TO.C,R7*%
X120000000Y13000000D03*
X120000000Y15000000D03*
%TD*%
M02*
