%TF.GenerationSoftware,KiCad,Pcbnew,10.0.0*%
%TF.CreationDate,2026-09-20T04:58:47+09:00*%
%TF.ProjectId,board-b,626f6172-642d-4622-9e6b-696361645f70,rev?*%
%TF.SameCoordinates,Original*%
%TF.FileFunction,Copper,L2,Bot*%
%TF.FilePolarity,Positive*%
%FSLAX46Y46*%
G04 Gerber Fmt 4.6, Leading zero omitted, Abs format (unit mm)*
G04 Created by KiCad (PCBNEW 10.0.0) date 2026-09-20 04:58:47*
%MOMM*%
%LPD*%
G01*
G04 APERTURE LIST*
%TA.AperFunction,ComponentPad*%
%ADD10R,2.200000X2.200000*%
%TD*%
%TA.AperFunction,ComponentPad*%
%ADD11C,2.200000*%
%TD*%
%TA.AperFunction,ComponentPad*%
%ADD12R,1.800000X1.800000*%
%TD*%
%TA.AperFunction,ComponentPad*%
%ADD13C,1.800000*%
%TD*%
%TA.AperFunction,ComponentPad*%
%ADD14C,1.600000*%
%TD*%
%TA.AperFunction,ViaPad*%
%ADD15C,1.000000*%
%TD*%
%TA.AperFunction,ViaPad*%
%ADD16C,1.200000*%
%TD*%
%TA.AperFunction,Conductor*%
%ADD17C,1.000000*%
%TD*%
%TA.AperFunction,Conductor*%
%ADD18C,0.250000*%
%TD*%
G04 APERTURE END LIST*
D10*
%TO.P,J8,1*%
%TO.N,+5V rail*%
X7460000Y15000000D03*
D11*
%TO.P,J8,2*%
X12540000Y15000000D03*
%TD*%
D10*
%TO.P,J7,1*%
%TO.N,+12V rail*%
X7460000Y29000000D03*
D11*
%TO.P,J7,2*%
X12540000Y29000000D03*
%TD*%
D12*
%TO.P,J10,1*%
%TO.N,-12V rail*%
X63890000Y13500000D03*
D13*
%TO.P,J10,2*%
X63890000Y10960000D03*
%TO.P,J10,3*%
%TO.N,GND*%
X61350000Y13500000D03*
%TO.P,J10,4*%
X61350000Y10960000D03*
%TO.P,J10,5*%
X58810000Y13500000D03*
%TO.P,J10,6*%
X58810000Y10960000D03*
%TO.P,J10,7*%
X56270000Y13500000D03*
%TO.P,J10,8*%
X56270000Y10960000D03*
%TO.P,J10,9*%
%TO.N,+12V rail*%
X53730000Y13500000D03*
%TO.P,J10,10*%
X53730000Y10960000D03*
%TO.P,J10,11*%
%TO.N,+5V rail*%
X51190000Y13500000D03*
%TO.P,J10,12*%
X51190000Y10960000D03*
%TO.P,J10,13*%
%TO.N,CV rail*%
X48650000Y13500000D03*
%TO.P,J10,14*%
X48650000Y10960000D03*
%TO.P,J10,15*%
%TO.N,GATE rail*%
X46110000Y13500000D03*
%TO.P,J10,16*%
X46110000Y10960000D03*
%TD*%
D12*
%TO.P,J11,1*%
%TO.N,-12V rail*%
X104890000Y13500000D03*
D13*
%TO.P,J11,2*%
X104890000Y10960000D03*
%TO.P,J11,3*%
%TO.N,GND*%
X102350000Y13500000D03*
%TO.P,J11,4*%
X102350000Y10960000D03*
%TO.P,J11,5*%
X99810000Y13500000D03*
%TO.P,J11,6*%
X99810000Y10960000D03*
%TO.P,J11,7*%
X97270000Y13500000D03*
%TO.P,J11,8*%
X97270000Y10960000D03*
%TO.P,J11,9*%
%TO.N,+12V rail*%
X94730000Y13500000D03*
%TO.P,J11,10*%
X94730000Y10960000D03*
%TO.P,J11,11*%
%TO.N,+5V rail*%
X92190000Y13500000D03*
%TO.P,J11,12*%
X92190000Y10960000D03*
%TO.P,J11,13*%
%TO.N,CV rail*%
X89650000Y13500000D03*
%TO.P,J11,14*%
X89650000Y10960000D03*
%TO.P,J11,15*%
%TO.N,GATE rail*%
X87110000Y13500000D03*
%TO.P,J11,16*%
X87110000Y10960000D03*
%TD*%
D10*
%TO.P,J6,1*%
%TO.N,-12V rail*%
X7460000Y57000000D03*
D11*
%TO.P,J6,2*%
X12540000Y57000000D03*
%TD*%
D10*
%TO.P,J9,1*%
%TO.N,GND*%
X7460000Y43000000D03*
D11*
%TO.P,J9,2*%
X12540000Y43000000D03*
%TD*%
D12*
%TO.P,J5,1*%
%TO.N,+15V INPUT*%
X6550000Y77300000D03*
D14*
%TO.P,J5,2*%
X9090000Y77300000D03*
%TO.P,J5,3*%
%TO.N,ATT*%
X11630000Y77300000D03*
%TO.P,J5,4*%
%TO.N,PDOK*%
X14170000Y77300000D03*
%TO.P,J5,5*%
%TO.N,GND*%
X16710000Y77300000D03*
%TO.P,J5,6*%
X19250000Y77300000D03*
%TD*%
D15*
%TO.N,{slash}DC-DC Conversion{slash}-14.145V PRE*%
X37340000Y30500000D03*
X107444000Y43334000D03*
X39840000Y30500000D03*
X101999000Y34000000D03*
X109944000Y30666000D03*
X107444000Y30666000D03*
X42340000Y43500000D03*
X45090000Y40000000D03*
X104944000Y43334000D03*
X112889000Y37000000D03*
X112889000Y40000000D03*
X101999000Y37000000D03*
X101999000Y40000000D03*
X112889000Y34000000D03*
X104944000Y30666000D03*
X37340000Y43500000D03*
X39840000Y43500000D03*
X42340000Y30500000D03*
X34590000Y37000000D03*
X45090000Y37000000D03*
X34590000Y40000000D03*
X45090000Y34000000D03*
X109944000Y43334000D03*
X34590000Y34000000D03*
%TO.N,GND*%
X104944000Y60666000D03*
X112889000Y67000000D03*
X109944000Y60666000D03*
X107444000Y73334000D03*
X112889000Y70000000D03*
X101999000Y64000000D03*
X112889000Y94000000D03*
X112889000Y100000000D03*
X109944000Y103334000D03*
X104944000Y90666000D03*
X101999000Y100000000D03*
X56200000Y90500000D03*
X104944000Y73334000D03*
X101999000Y67000000D03*
X104944000Y103334000D03*
X109944000Y73334000D03*
X112889000Y97000000D03*
X101999000Y94000000D03*
X101999000Y70000000D03*
X107444000Y90666000D03*
X107444000Y60666000D03*
X112889000Y64000000D03*
X101999000Y97000000D03*
X107444000Y103334000D03*
X109944000Y90666000D03*
D16*
%TO.N,Net-(U3-Feedback)*%
X53686300Y68684500D03*
X60000000Y78502200D03*
%TO.N,+5V rail*%
X123093100Y58641500D03*
%TO.N,Net-(U8-OUT)*%
X136500000Y40550000D03*
X124000000Y30000000D03*
X129500000Y27500000D03*
%TO.N,-12V rail*%
X132768400Y37077500D03*
%TO.N,Net-(R9-LED4)*%
X131714500Y8250000D03*
X135507600Y14970400D03*
%TO.N,Net-(U6-OUT)*%
X136500000Y100400000D03*
X129050400Y11683300D03*
X124000000Y90000000D03*
%TO.N,Net-(U7-OUT)*%
X127500000Y54000000D03*
X124000000Y60000000D03*
X136500000Y70150000D03*
%TO.N,+12V rail*%
X144000000Y87674200D03*
%TO.N,Net-(R7-LED2)*%
X130199900Y7366900D03*
X122962200Y15000000D03*
%TO.N,U7 ADJ*%
X118346600Y71589400D03*
X120989700Y72735300D03*
%TD*%
%TO.N,{slash}DC-DC Conversion{slash}-14.145V PRE*%
D17*
X104944000Y30666000D02*
X101999000Y33611000D01*
X45090000Y33250000D02*
X45090000Y34000000D01*
X42340000Y30500000D02*
X45090000Y33250000D01*
X45090000Y37000000D02*
X45090000Y34000000D01*
X101999000Y37000000D02*
X101999000Y40000000D01*
X101999000Y34000000D02*
X101999000Y37000000D01*
X101999000Y33611000D02*
X101999000Y34000000D01*
X112889000Y40000000D02*
X112889000Y37000000D01*
X45090000Y40000000D02*
X45090000Y37000000D01*
X104944000Y43334000D02*
X101999000Y40389000D01*
X112889000Y34000000D02*
X112889000Y37000000D01*
X101999000Y40389000D02*
X101999000Y40000000D01*
X34590000Y40000000D02*
X34590000Y37000000D01*
%TO.N,GND*%
X101999000Y94000000D02*
X101999000Y97000000D01*
X112889000Y93611000D02*
X112889000Y94000000D01*
X112889000Y64000000D02*
X112889000Y67000000D01*
X102350000Y10960000D02*
X102350000Y13500000D01*
X101999000Y63611000D02*
X101999000Y64000000D01*
X101999000Y64000000D02*
X101999000Y67000000D01*
X112889000Y100000000D02*
X112889000Y97000000D01*
X104944000Y73334000D02*
X101999000Y70389000D01*
X101999000Y70000000D02*
X101999000Y67000000D01*
X109944000Y90666000D02*
X112889000Y93611000D01*
X112889000Y97000000D02*
X112889000Y94000000D01*
X43000000Y77300000D02*
X56200000Y90500000D01*
X112889000Y70000000D02*
X112889000Y67000000D01*
X104944000Y60666000D02*
X101999000Y63611000D01*
X101999000Y97000000D02*
X101999000Y100000000D01*
X61350000Y10960000D02*
X61350000Y13500000D01*
X16710000Y47170000D02*
X16710000Y77300000D01*
X104944000Y73334000D02*
X104944000Y90666000D01*
X112889000Y100389000D02*
X112889000Y100000000D01*
X101999000Y70389000D02*
X101999000Y70000000D01*
X109944000Y103334000D02*
X112889000Y100389000D01*
X12540000Y43000000D02*
X16710000Y47170000D01*
X19250000Y77300000D02*
X43000000Y77300000D01*
%TO.N,Net-(U3-Feedback)*%
D18*
X53686300Y68684500D02*
X60000000Y74998200D01*
X60000000Y74998200D02*
X60000000Y78502200D01*
%TO.N,+5V rail*%
D17*
X100607300Y19509300D02*
X98199300Y19509300D01*
X98199300Y19509300D02*
X92190000Y13500000D01*
X92190000Y10960000D02*
X92190000Y13500000D01*
X123093100Y58641500D02*
X123093100Y41995100D01*
X51190000Y10960000D02*
X51190000Y13500000D01*
X123093100Y41995100D02*
X100607300Y19509300D01*
%TO.N,Net-(U8-OUT)*%
X136500000Y30000000D02*
X136500000Y40550000D01*
X124000000Y30000000D02*
X136500000Y30000000D01*
X129500000Y27500000D02*
X129500000Y30000000D01*
%TO.N,-12V rail*%
X104890000Y10960000D02*
X104890000Y13500000D01*
X12540000Y57000000D02*
X10653600Y55113600D01*
X10653600Y42242700D02*
X33386900Y19509400D01*
X57880600Y19509400D02*
X63890000Y13500000D01*
X63890000Y10960000D02*
X63890000Y13500000D01*
X106541700Y14532300D02*
X129086900Y37077500D01*
X33386900Y19509400D02*
X57880600Y19509400D01*
X104890000Y13500000D02*
X106541700Y13500000D01*
X106541700Y13500000D02*
X106541700Y14532300D01*
X129086900Y37077500D02*
X132768400Y37077500D01*
X10653600Y55113600D02*
X10653600Y42242700D01*
%TO.N,Net-(R9-LED4)*%
D18*
X131714500Y8250000D02*
X131714500Y11177300D01*
X131714500Y11177300D02*
X135507600Y14970400D01*
%TO.N,Net-(U6-OUT)*%
D17*
X136500000Y90000000D02*
X136500000Y100400000D01*
X143653600Y90000000D02*
X145356400Y88297200D01*
X136500000Y90000000D02*
X143653600Y90000000D01*
X124000000Y90000000D02*
X136500000Y90000000D01*
X145356400Y88297200D02*
X145356400Y27989300D01*
X145356400Y27989300D02*
X129050400Y11683300D01*
%TO.N,Net-(U7-OUT)*%
X127500000Y54000000D02*
X127500000Y60000000D01*
X136500000Y60000000D02*
X136500000Y70150000D01*
X124000000Y60000000D02*
X136500000Y60000000D01*
%TO.N,+12V rail*%
X94730000Y10960000D02*
X94730000Y13500000D01*
X144000000Y61131800D02*
X98029900Y15161700D01*
X96391700Y15161700D02*
X94730000Y13500000D01*
X53730000Y10960000D02*
X53730000Y13500000D01*
X93073300Y9303300D02*
X55386700Y9303300D01*
X94730000Y10960000D02*
X93073300Y9303300D01*
X55386700Y9303300D02*
X53730000Y10960000D01*
X144000000Y87674200D02*
X144000000Y61131800D01*
X98029900Y15161700D02*
X96391700Y15161700D01*
%TO.N,Net-(R7-LED2)*%
D18*
X130199900Y7762300D02*
X130199900Y7366900D01*
X122962200Y15000000D02*
X130199900Y7762300D01*
%TO.N,U7 ADJ*%
X120989700Y72735300D02*
X119492500Y72735300D01*
X119492500Y72735300D02*
X118346600Y71589400D01*
%TO.N,CV rail*%
X89650000Y10960000D02*
X89650000Y13500000D01*
X48650000Y10960000D02*
X48650000Y13500000D01*
%TO.N,GATE rail*%
X46110000Y10960000D02*
X46110000Y13500000D01*
X87110000Y10960000D02*
X87110000Y13500000D01*
%TD*%
%TA.AperFunction,Conductor*%
%TO.N,GND*%
G36*
X149393106Y114494977D02*
G01*
X149408104Y114490573D01*
X149466855Y114452828D01*
X149468042Y114451459D01*
X149495518Y114396598D01*
X149497163Y114389040D01*
X149500000Y114362669D01*
X149500000Y641830D01*
X149494975Y606886D01*
X149490570Y591888D01*
X149452827Y533145D01*
X149451458Y531958D01*
X149396597Y504482D01*
X149389039Y502837D01*
X149362668Y500000D01*
X641830Y500000D01*
X606889Y505025D01*
X591890Y509430D01*
X533144Y547173D01*
X531957Y548542D01*
X504477Y603417D01*
X502832Y610979D01*
X500000Y637332D01*
X500000Y4121290D01*
X2149500Y4121290D01*
X2149500Y3878712D01*
X2181160Y3638219D01*
X2243947Y3403896D01*
X2336772Y3179797D01*
X2336773Y3179793D01*
X2336780Y3179780D01*
X2458060Y2969717D01*
X2458062Y2969714D01*
X2458281Y2969385D01*
X2459284Y2968121D01*
X2605726Y2777272D01*
X2605730Y2777267D01*
X2605733Y2777264D01*
X2605739Y2777257D01*
X2605747Y2777249D01*
X2777242Y2605753D01*
X2777256Y2605740D01*
X2777262Y2605735D01*
X2969711Y2458064D01*
X3179788Y2336776D01*
X3403900Y2243946D01*
X3638211Y2181162D01*
X3818586Y2157416D01*
X3878710Y2149500D01*
X3878711Y2149500D01*
X3878712Y2149500D01*
X4121283Y2149500D01*
X4121289Y2149500D01*
X4169388Y2155833D01*
X4361789Y2181162D01*
X4596100Y2243946D01*
X4820212Y2336776D01*
X5030289Y2458064D01*
X5222738Y2605735D01*
X5394265Y2777262D01*
X5541936Y2969711D01*
X5663224Y3179788D01*
X5756054Y3403900D01*
X5818838Y3638211D01*
X5850500Y3878712D01*
X5850500Y4121288D01*
X5850500Y4121290D01*
X144149500Y4121290D01*
X144149500Y3878712D01*
X144181160Y3638219D01*
X144243947Y3403896D01*
X144336772Y3179797D01*
X144336773Y3179793D01*
X144336780Y3179780D01*
X144458060Y2969717D01*
X144458062Y2969714D01*
X144458281Y2969385D01*
X144459284Y2968121D01*
X144605726Y2777272D01*
X144605730Y2777267D01*
X144605733Y2777264D01*
X144605739Y2777257D01*
X144605747Y2777249D01*
X144777242Y2605753D01*
X144777256Y2605740D01*
X144777262Y2605735D01*
X144969711Y2458064D01*
X145179788Y2336776D01*
X145403900Y2243946D01*
X145638211Y2181162D01*
X145818586Y2157416D01*
X145878710Y2149500D01*
X145878711Y2149500D01*
X145878712Y2149500D01*
X146121283Y2149500D01*
X146121289Y2149500D01*
X146169388Y2155833D01*
X146361789Y2181162D01*
X146596100Y2243946D01*
X146820212Y2336776D01*
X147030289Y2458064D01*
X147222738Y2605735D01*
X147394265Y2777262D01*
X147541936Y2969711D01*
X147663224Y3179788D01*
X147756054Y3403900D01*
X147818838Y3638211D01*
X147850500Y3878712D01*
X147850500Y4121288D01*
X147818838Y4361789D01*
X147756054Y4596100D01*
X147663224Y4820212D01*
X147541936Y5030289D01*
X147394265Y5222738D01*
X147394260Y5222744D01*
X147394259Y5222745D01*
X147394247Y5222758D01*
X147222751Y5394253D01*
X147222743Y5394261D01*
X147222736Y5394267D01*
X147222733Y5394270D01*
X147222728Y5394274D01*
X147031879Y5540716D01*
X147030615Y5541719D01*
X147030286Y5541938D01*
X147030283Y5541940D01*
X146820220Y5663220D01*
X146820207Y5663227D01*
X146820203Y5663228D01*
X146596104Y5756053D01*
X146361781Y5818840D01*
X146121290Y5850500D01*
X146121289Y5850500D01*
X146121288Y5850500D01*
X145878712Y5850500D01*
X145878711Y5850500D01*
X145878710Y5850500D01*
X145638217Y5818840D01*
X145403894Y5756053D01*
X145179790Y5663226D01*
X145179782Y5663222D01*
X144969706Y5541933D01*
X144969697Y5541927D01*
X144777270Y5394274D01*
X144777255Y5394260D01*
X144777247Y5394253D01*
X144605747Y5222753D01*
X144605740Y5222745D01*
X144605726Y5222730D01*
X144458073Y5030303D01*
X144458067Y5030294D01*
X144336778Y4820218D01*
X144336774Y4820210D01*
X144243947Y4596106D01*
X144181160Y4361783D01*
X144149500Y4121290D01*
X5850500Y4121290D01*
X5818838Y4361789D01*
X5756054Y4596100D01*
X5663224Y4820212D01*
X5541936Y5030289D01*
X5394265Y5222738D01*
X5394260Y5222744D01*
X5394259Y5222745D01*
X5394247Y5222758D01*
X5222751Y5394253D01*
X5222743Y5394261D01*
X5222736Y5394267D01*
X5222733Y5394270D01*
X5222728Y5394274D01*
X5031879Y5540716D01*
X5030615Y5541719D01*
X5030286Y5541938D01*
X5030283Y5541940D01*
X4820220Y5663220D01*
X4820207Y5663227D01*
X4820203Y5663228D01*
X4596104Y5756053D01*
X4361781Y5818840D01*
X4121290Y5850500D01*
X4121289Y5850500D01*
X4121288Y5850500D01*
X3878712Y5850500D01*
X3878711Y5850500D01*
X3878710Y5850500D01*
X3638217Y5818840D01*
X3403894Y5756053D01*
X3179790Y5663226D01*
X3179782Y5663222D01*
X2969706Y5541933D01*
X2969697Y5541927D01*
X2777270Y5394274D01*
X2777255Y5394260D01*
X2777247Y5394253D01*
X2605747Y5222753D01*
X2605740Y5222745D01*
X2605726Y5222730D01*
X2458073Y5030303D01*
X2458067Y5030294D01*
X2336778Y4820218D01*
X2336774Y4820210D01*
X2243947Y4596106D01*
X2181160Y4361783D01*
X2149500Y4121290D01*
X500000Y4121290D01*
X500000Y16144869D01*
X6059500Y16144869D01*
X6059500Y13855144D01*
X6059502Y13855118D01*
X6059503Y13855112D01*
X6062414Y13830007D01*
X6062546Y13829562D01*
X6063609Y13827304D01*
X6096590Y13752609D01*
X6107793Y13727236D01*
X6107794Y13727235D01*
X6187235Y13647794D01*
X6290009Y13602415D01*
X6315135Y13599500D01*
X8604864Y13599501D01*
X8604879Y13599503D01*
X8604882Y13599503D01*
X8604888Y13599504D01*
X8605019Y13599513D01*
X8605736Y13599603D01*
X8629987Y13602414D01*
X8629987Y13602415D01*
X8629990Y13602415D01*
X8629991Y13602415D01*
X8629991Y13602416D01*
X8630102Y13602428D01*
X8631862Y13603242D01*
X8732765Y13647794D01*
X8812206Y13727235D01*
X8857585Y13830009D01*
X8860500Y13855135D01*
X8860499Y15110228D01*
X11139500Y15110228D01*
X11139500Y14889774D01*
X11173985Y14672045D01*
X11242078Y14462470D01*
X11242103Y14462397D01*
X11242104Y14462394D01*
X11275748Y14396365D01*
X11277991Y14391964D01*
X11277991Y14391963D01*
X11293666Y14361200D01*
X11336271Y14277584D01*
X11339659Y14270936D01*
X11342186Y14265976D01*
X11388682Y14201979D01*
X11471752Y14087642D01*
X11471756Y14087637D01*
X11471761Y14087631D01*
X11627627Y13931765D01*
X11627636Y13931757D01*
X11627660Y13931739D01*
X11750186Y13842719D01*
X11750192Y13842715D01*
X11755035Y13839197D01*
X11805978Y13802185D01*
X11899910Y13754324D01*
X11953064Y13727240D01*
X12002392Y13702105D01*
X12002396Y13702104D01*
X12002419Y13702096D01*
X12107221Y13668045D01*
X12212049Y13633985D01*
X12429778Y13599500D01*
X12429779Y13599500D01*
X12650221Y13599500D01*
X12650222Y13599500D01*
X12867951Y13633985D01*
X13077606Y13702105D01*
X13274022Y13802185D01*
X13452365Y13931758D01*
X13608242Y14087635D01*
X13632789Y14121421D01*
X13737814Y14265976D01*
X13837895Y14462394D01*
X13837896Y14462397D01*
X13864362Y14543853D01*
X13906015Y14672049D01*
X13940500Y14889778D01*
X13940500Y15110222D01*
X13906015Y15327951D01*
X13837895Y15537606D01*
X13837895Y15537607D01*
X13770505Y15669864D01*
X13767982Y15674815D01*
X13737816Y15734021D01*
X13725101Y15751521D01*
X13691320Y15798017D01*
X13608247Y15912359D01*
X13608243Y15912364D01*
X13608242Y15912365D01*
X13608235Y15912373D01*
X13452369Y16068239D01*
X13452364Y16068243D01*
X13452363Y16068244D01*
X13452358Y16068248D01*
X13427810Y16086083D01*
X13284630Y16190109D01*
X13284618Y16190117D01*
X13274025Y16197813D01*
X13274024Y16197814D01*
X13274022Y16197815D01*
X13267909Y16200930D01*
X13267898Y16200937D01*
X13211098Y16229877D01*
X13211096Y16229878D01*
X13077606Y16297896D01*
X13077602Y16297898D01*
X13077579Y16297906D01*
X12867954Y16366015D01*
X12867955Y16366015D01*
X12759086Y16383258D01*
X12650227Y16400500D01*
X12650222Y16400500D01*
X12429778Y16400500D01*
X12429774Y16400500D01*
X12371716Y16391304D01*
X12357201Y16389005D01*
X12212043Y16366015D01*
X12002419Y16297906D01*
X12002396Y16297898D01*
X12002392Y16297896D01*
X11805972Y16197813D01*
X11627658Y16068261D01*
X11627629Y16068239D01*
X11471761Y15912371D01*
X11471739Y15912342D01*
X11342187Y15734028D01*
X11242104Y15537608D01*
X11242102Y15537604D01*
X11242094Y15537581D01*
X11173985Y15327957D01*
X11139500Y15110228D01*
X8860499Y15110228D01*
X8860499Y16144864D01*
X8860497Y16144883D01*
X8857586Y16169988D01*
X8857585Y16169990D01*
X8857585Y16169991D01*
X8812206Y16272765D01*
X8732765Y16352206D01*
X8732763Y16352207D01*
X8699879Y16366727D01*
X8629993Y16397585D01*
X8629994Y16397585D01*
X8604868Y16400500D01*
X8604865Y16400500D01*
X6315143Y16400500D01*
X6315127Y16400499D01*
X6315113Y16400498D01*
X6297255Y16398427D01*
X6290012Y16397587D01*
X6290011Y16397587D01*
X6290005Y16397586D01*
X6289559Y16397453D01*
X6287303Y16396391D01*
X6187236Y16352208D01*
X6107793Y16272766D01*
X6062414Y16169995D01*
X6062406Y16169955D01*
X6062405Y16169914D01*
X6059500Y16144869D01*
X500000Y16144869D01*
X500000Y30144869D01*
X6059500Y30144869D01*
X6059500Y27855144D01*
X6059502Y27855118D01*
X6061973Y27833814D01*
X6062414Y27830007D01*
X6062546Y27829562D01*
X6063609Y27827304D01*
X6095839Y27754310D01*
X6107793Y27727236D01*
X6107794Y27727235D01*
X6187235Y27647794D01*
X6290009Y27602415D01*
X6315135Y27599500D01*
X8604864Y27599501D01*
X8604879Y27599503D01*
X8604882Y27599503D01*
X8604888Y27599504D01*
X8605019Y27599513D01*
X8605736Y27599603D01*
X8629987Y27602414D01*
X8629987Y27602415D01*
X8629990Y27602415D01*
X8629991Y27602415D01*
X8629991Y27602416D01*
X8630102Y27602428D01*
X8631862Y27603242D01*
X8732765Y27647794D01*
X8812206Y27727235D01*
X8857585Y27830009D01*
X8860500Y27855135D01*
X8860499Y29110228D01*
X11139500Y29110228D01*
X11139500Y28889774D01*
X11173985Y28672045D01*
X11242094Y28462421D01*
X11242102Y28462398D01*
X11242104Y28462394D01*
X11342187Y28265974D01*
X11459235Y28104871D01*
X11471752Y28087642D01*
X11471756Y28087637D01*
X11471761Y28087631D01*
X11627627Y27931765D01*
X11627636Y27931757D01*
X11627660Y27931739D01*
X11762443Y27833814D01*
X11762449Y27833811D01*
X11767676Y27830013D01*
X11805978Y27802185D01*
X11897007Y27755803D01*
X11948049Y27729796D01*
X12002392Y27702105D01*
X12002396Y27702104D01*
X12002419Y27702096D01*
X12107221Y27668045D01*
X12212049Y27633985D01*
X12429778Y27599500D01*
X12429779Y27599500D01*
X12650221Y27599500D01*
X12650222Y27599500D01*
X12867951Y27633985D01*
X13077606Y27702105D01*
X13274022Y27802185D01*
X13452365Y27931758D01*
X13608242Y28087635D01*
X13737815Y28265978D01*
X13837895Y28462394D01*
X13906015Y28672049D01*
X13940500Y28889778D01*
X13940500Y29110222D01*
X13906015Y29327951D01*
X13853457Y29489711D01*
X13837896Y29537604D01*
X13837895Y29537607D01*
X13795491Y29620828D01*
X13737815Y29734022D01*
X13709095Y29773552D01*
X13709094Y29773554D01*
X13709093Y29773556D01*
X13608261Y29912340D01*
X13608243Y29912364D01*
X13608235Y29912373D01*
X13452369Y30068239D01*
X13452364Y30068243D01*
X13452363Y30068244D01*
X13452358Y30068248D01*
X13438940Y30077997D01*
X13284630Y30190109D01*
X13284618Y30190117D01*
X13274025Y30197813D01*
X13274024Y30197814D01*
X13274022Y30197815D01*
X13267909Y30200930D01*
X13267898Y30200937D01*
X13211098Y30229877D01*
X13211096Y30229878D01*
X13077606Y30297896D01*
X13077602Y30297898D01*
X13077579Y30297906D01*
X12867954Y30366015D01*
X12867955Y30366015D01*
X12759086Y30383258D01*
X12650227Y30400500D01*
X12650222Y30400500D01*
X12429778Y30400500D01*
X12429774Y30400500D01*
X12371716Y30391304D01*
X12357201Y30389005D01*
X12212043Y30366015D01*
X12002419Y30297906D01*
X12002396Y30297898D01*
X12002392Y30297896D01*
X11805972Y30197813D01*
X11627658Y30068261D01*
X11627629Y30068239D01*
X11471761Y29912371D01*
X11471739Y29912342D01*
X11342187Y29734028D01*
X11242104Y29537608D01*
X11242102Y29537604D01*
X11242094Y29537581D01*
X11173985Y29327957D01*
X11139500Y29110228D01*
X8860499Y29110228D01*
X8860499Y30144864D01*
X8860497Y30144883D01*
X8857586Y30169988D01*
X8857585Y30169990D01*
X8857585Y30169991D01*
X8812206Y30272765D01*
X8732765Y30352206D01*
X8732763Y30352207D01*
X8699879Y30366727D01*
X8629993Y30397585D01*
X8629994Y30397585D01*
X8604868Y30400500D01*
X8604865Y30400500D01*
X6315143Y30400500D01*
X6315127Y30400499D01*
X6315113Y30400498D01*
X6297255Y30398427D01*
X6290012Y30397587D01*
X6290011Y30397587D01*
X6290005Y30397586D01*
X6289559Y30397453D01*
X6287303Y30396391D01*
X6187236Y30352208D01*
X6107793Y30272766D01*
X6062414Y30169995D01*
X6062406Y30169955D01*
X6062405Y30169914D01*
X6059500Y30144869D01*
X500000Y30144869D01*
X500000Y42163852D01*
X9853099Y42163852D01*
X9883857Y42009229D01*
X9883864Y42009198D01*
X9944198Y41863535D01*
X9944203Y41863526D01*
X9944213Y41863509D01*
X10031811Y41732410D01*
X10031812Y41732409D01*
X10031817Y41732403D01*
X31330322Y20433900D01*
X32765111Y18999111D01*
X32876611Y18887611D01*
X32876612Y18887610D01*
X33007714Y18800010D01*
X33007727Y18800003D01*
X33153398Y18739665D01*
X33153403Y18739663D01*
X33153407Y18739663D01*
X33153408Y18739662D01*
X33153671Y18739610D01*
X33153673Y18739609D01*
X33153704Y18739603D01*
X33308051Y18708900D01*
X33308054Y18708900D01*
X33308057Y18708900D01*
X33308058Y18708900D01*
X57479830Y18708900D01*
X57514762Y18703879D01*
X57540006Y18696466D01*
X57592752Y18665170D01*
X62640573Y13617349D01*
X62661723Y13589097D01*
X62674331Y13566008D01*
X62689500Y13506579D01*
X62689500Y12555144D01*
X62689502Y12555118D01*
X62692003Y12533546D01*
X62692414Y12530007D01*
X62692546Y12529562D01*
X62693609Y12527304D01*
X62737791Y12427240D01*
X62737793Y12427236D01*
X62737794Y12427235D01*
X62817235Y12347794D01*
X62920009Y12302415D01*
X62945135Y12299500D01*
X62947659Y12299501D01*
X62982601Y12294480D01*
X62997598Y12290077D01*
X63056377Y12252305D01*
X63056384Y12252297D01*
X63057571Y12250927D01*
X63085017Y12196102D01*
X63086663Y12188540D01*
X63089500Y12162167D01*
X63089500Y11926455D01*
X63084476Y11891516D01*
X63077064Y11866276D01*
X63045769Y11813534D01*
X62969817Y11737583D01*
X62965685Y11730204D01*
X62926610Y11676422D01*
X62926610Y11676421D01*
X62863240Y11589201D01*
X62826852Y11517786D01*
X62777454Y11420837D01*
X62719059Y11241119D01*
X62719058Y11241116D01*
X62719058Y11241114D01*
X62689500Y11054493D01*
X62689500Y10865509D01*
X62717908Y10686149D01*
X62719059Y10678882D01*
X62777454Y10499164D01*
X62835366Y10385507D01*
X62863239Y10330802D01*
X62874641Y10315109D01*
X62891109Y10283898D01*
X62895461Y10271702D01*
X62899452Y10201947D01*
X62865097Y10141107D01*
X62808484Y10109665D01*
X62799488Y10107437D01*
X62769678Y10103800D01*
X55787470Y10103800D01*
X55752534Y10108823D01*
X55727292Y10116235D01*
X55674547Y10147531D01*
X54979426Y10842652D01*
X54958274Y10870908D01*
X54945667Y10893997D01*
X54930500Y10953422D01*
X54930500Y11054487D01*
X54903977Y11221942D01*
X54900940Y11241119D01*
X54844562Y11414629D01*
X54844047Y11416214D01*
X54842985Y11419980D01*
X54841988Y11421988D01*
X54840202Y11425675D01*
X54839258Y11427288D01*
X54756762Y11589194D01*
X54756759Y11589200D01*
X54752828Y11594610D01*
X54645690Y11742073D01*
X54579426Y11808337D01*
X54558274Y11836593D01*
X54545667Y11859682D01*
X54530500Y11919107D01*
X54530500Y12533546D01*
X54535522Y12568479D01*
X54542934Y12593724D01*
X54574227Y12646465D01*
X54645690Y12717927D01*
X54756760Y12870801D01*
X54842547Y13039168D01*
X54900940Y13218882D01*
X54908482Y13266499D01*
X54930500Y13405514D01*
X54930500Y13594487D01*
X54900940Y13781119D01*
X54842545Y13960837D01*
X54842543Y13960840D01*
X54842543Y13960842D01*
X54771892Y14099501D01*
X54771892Y14099502D01*
X54756761Y14129197D01*
X54756759Y14129200D01*
X54645690Y14282073D01*
X54512073Y14415690D01*
X54359199Y14526760D01*
X54325652Y14543853D01*
X54190836Y14612546D01*
X54011118Y14670941D01*
X54011112Y14670942D01*
X53824491Y14700500D01*
X53824486Y14700500D01*
X53824481Y14700500D01*
X53635519Y14700500D01*
X53635514Y14700500D01*
X53635509Y14700500D01*
X53448886Y14670942D01*
X53448884Y14670942D01*
X53448881Y14670941D01*
X53269163Y14612546D01*
X53192481Y14573474D01*
X53100807Y14526764D01*
X53100794Y14526756D01*
X53022660Y14469989D01*
X53022661Y14469988D01*
X52959798Y14424315D01*
X52952417Y14420182D01*
X52809819Y14277584D01*
X52805692Y14270213D01*
X52802620Y14265984D01*
X52802614Y14265976D01*
X52703244Y14129206D01*
X52703240Y14129200D01*
X52703238Y14129198D01*
X52703236Y14129193D01*
X52617452Y13960835D01*
X52583440Y13856154D01*
X52545017Y13799317D01*
X52543978Y13798450D01*
X52537605Y13789131D01*
X52473242Y13761942D01*
X52404398Y13773866D01*
X52375271Y13793788D01*
X52372982Y13795889D01*
X52338912Y13848912D01*
X52302545Y13960837D01*
X52302543Y13960840D01*
X52302543Y13960842D01*
X52231892Y14099501D01*
X52231892Y14099502D01*
X52216761Y14129197D01*
X52216759Y14129200D01*
X52105690Y14282073D01*
X51972073Y14415690D01*
X51819199Y14526760D01*
X51785652Y14543853D01*
X51650836Y14612546D01*
X51471118Y14670941D01*
X51471112Y14670942D01*
X51284491Y14700500D01*
X51284486Y14700500D01*
X51284481Y14700500D01*
X51095519Y14700500D01*
X51095514Y14700500D01*
X51095509Y14700500D01*
X50908886Y14670942D01*
X50908884Y14670942D01*
X50908881Y14670941D01*
X50729163Y14612546D01*
X50652481Y14573474D01*
X50560807Y14526764D01*
X50560794Y14526756D01*
X50482660Y14469989D01*
X50482661Y14469988D01*
X50419798Y14424315D01*
X50412417Y14420182D01*
X50269819Y14277584D01*
X50265692Y14270213D01*
X50262620Y14265984D01*
X50262614Y14265976D01*
X50163244Y14129206D01*
X50163240Y14129200D01*
X50163238Y14129198D01*
X50163236Y14129193D01*
X50077452Y13960835D01*
X50043440Y13856154D01*
X50005017Y13799317D01*
X50003978Y13798450D01*
X49997605Y13789131D01*
X49933242Y13761942D01*
X49864398Y13773866D01*
X49835271Y13793788D01*
X49832982Y13795889D01*
X49798912Y13848912D01*
X49762545Y13960837D01*
X49762543Y13960840D01*
X49762543Y13960842D01*
X49691892Y14099501D01*
X49691892Y14099502D01*
X49676761Y14129197D01*
X49676759Y14129200D01*
X49565690Y14282073D01*
X49432073Y14415690D01*
X49279199Y14526760D01*
X49245652Y14543853D01*
X49110836Y14612546D01*
X48931118Y14670941D01*
X48931112Y14670942D01*
X48744491Y14700500D01*
X48744486Y14700500D01*
X48744481Y14700500D01*
X48555519Y14700500D01*
X48555514Y14700500D01*
X48555509Y14700500D01*
X48368886Y14670942D01*
X48368884Y14670942D01*
X48368881Y14670941D01*
X48189163Y14612546D01*
X48112481Y14573474D01*
X48020807Y14526764D01*
X48020794Y14526756D01*
X47942660Y14469989D01*
X47942661Y14469988D01*
X47879798Y14424315D01*
X47872417Y14420182D01*
X47729819Y14277584D01*
X47725692Y14270213D01*
X47722620Y14265984D01*
X47722614Y14265976D01*
X47623244Y14129206D01*
X47623240Y14129200D01*
X47623238Y14129198D01*
X47623236Y14129193D01*
X47537452Y13960835D01*
X47503440Y13856154D01*
X47465017Y13799317D01*
X47463978Y13798450D01*
X47457605Y13789131D01*
X47393242Y13761942D01*
X47324398Y13773866D01*
X47295271Y13793788D01*
X47292982Y13795889D01*
X47258912Y13848912D01*
X47222545Y13960837D01*
X47222543Y13960840D01*
X47222543Y13960842D01*
X47151892Y14099501D01*
X47151892Y14099502D01*
X47136761Y14129197D01*
X47136759Y14129200D01*
X47025690Y14282073D01*
X46892073Y14415690D01*
X46739199Y14526760D01*
X46705652Y14543853D01*
X46570836Y14612546D01*
X46391118Y14670941D01*
X46391112Y14670942D01*
X46204491Y14700500D01*
X46204486Y14700500D01*
X46204481Y14700500D01*
X46015519Y14700500D01*
X46015514Y14700500D01*
X46015509Y14700500D01*
X45828886Y14670942D01*
X45828884Y14670942D01*
X45828881Y14670941D01*
X45649163Y14612546D01*
X45572481Y14573474D01*
X45480807Y14526764D01*
X45480794Y14526756D01*
X45402660Y14469989D01*
X45402661Y14469988D01*
X45339798Y14424315D01*
X45332417Y14420182D01*
X45189819Y14277584D01*
X45185692Y14270213D01*
X45182620Y14265984D01*
X45182614Y14265976D01*
X45083244Y14129206D01*
X45083240Y14129200D01*
X45083238Y14129198D01*
X45083236Y14129193D01*
X45064106Y14091648D01*
X44997454Y13960837D01*
X44939059Y13781119D01*
X44939058Y13781116D01*
X44939058Y13781114D01*
X44909500Y13594493D01*
X44909500Y13405509D01*
X44937908Y13226149D01*
X44939059Y13218882D01*
X44997454Y13039164D01*
X45079463Y12878214D01*
X45079461Y12878214D01*
X45079466Y12878208D01*
X45083240Y12870801D01*
X45194310Y12717927D01*
X45327927Y12584310D01*
X45480801Y12473240D01*
X45600910Y12412042D01*
X45629758Y12391705D01*
X45642167Y12379985D01*
X45676720Y12322223D01*
X45678671Y12315011D01*
X45679873Y12310567D01*
X45680196Y12309376D01*
X45684500Y12276990D01*
X45684500Y12184367D01*
X45679476Y12149428D01*
X45674666Y12133049D01*
X45638879Y12076034D01*
X45629007Y12067103D01*
X45602113Y12048572D01*
X45480798Y11986759D01*
X45480795Y11986757D01*
X45393579Y11923390D01*
X45393578Y11923390D01*
X45339794Y11884314D01*
X45332419Y11880184D01*
X45189816Y11737581D01*
X45185686Y11730206D01*
X45146610Y11676422D01*
X45146610Y11676421D01*
X45083240Y11589201D01*
X45046852Y11517786D01*
X44997454Y11420837D01*
X44939059Y11241119D01*
X44939058Y11241116D01*
X44939058Y11241114D01*
X44909500Y11054493D01*
X44909500Y10865509D01*
X44937908Y10686149D01*
X44939059Y10678882D01*
X44997454Y10499164D01*
X45083240Y10330801D01*
X45194310Y10177927D01*
X45327927Y10044310D01*
X45414229Y9981607D01*
X45480796Y9933243D01*
X45480797Y9933243D01*
X45480801Y9933240D01*
X45560347Y9892710D01*
X45642722Y9850737D01*
X45644320Y9849801D01*
X45648037Y9848001D01*
X45650021Y9847015D01*
X45653775Y9845957D01*
X45745497Y9816154D01*
X45828881Y9789060D01*
X46015514Y9759500D01*
X46015519Y9759500D01*
X46204485Y9759500D01*
X46204486Y9759500D01*
X46391118Y9789060D01*
X46570832Y9847453D01*
X46739199Y9933240D01*
X46892073Y10044310D01*
X47025690Y10177927D01*
X47136760Y10330801D01*
X47222547Y10499168D01*
X47256559Y10603850D01*
X47294982Y10660686D01*
X47296005Y10661542D01*
X47302371Y10670852D01*
X47366727Y10698056D01*
X47435575Y10686149D01*
X47464708Y10666233D01*
X47466994Y10664134D01*
X47501087Y10611090D01*
X47537452Y10499167D01*
X47537453Y10499166D01*
X47537454Y10499164D01*
X47623240Y10330801D01*
X47734310Y10177927D01*
X47867927Y10044310D01*
X47954229Y9981607D01*
X48020796Y9933243D01*
X48020797Y9933243D01*
X48020801Y9933240D01*
X48100347Y9892710D01*
X48182722Y9850737D01*
X48184320Y9849801D01*
X48188037Y9848001D01*
X48190021Y9847015D01*
X48193775Y9845957D01*
X48285497Y9816154D01*
X48368881Y9789060D01*
X48555514Y9759500D01*
X48555519Y9759500D01*
X48744485Y9759500D01*
X48744486Y9759500D01*
X48931118Y9789060D01*
X49110832Y9847453D01*
X49279199Y9933240D01*
X49432073Y10044310D01*
X49565690Y10177927D01*
X49676760Y10330801D01*
X49762547Y10499168D01*
X49796559Y10603850D01*
X49834982Y10660686D01*
X49836005Y10661542D01*
X49842371Y10670852D01*
X49906727Y10698056D01*
X49975575Y10686149D01*
X50004708Y10666233D01*
X50006994Y10664134D01*
X50041087Y10611090D01*
X50077452Y10499167D01*
X50077453Y10499166D01*
X50077454Y10499164D01*
X50163240Y10330801D01*
X50274310Y10177927D01*
X50407927Y10044310D01*
X50494229Y9981607D01*
X50560796Y9933243D01*
X50560797Y9933243D01*
X50560801Y9933240D01*
X50640347Y9892710D01*
X50722722Y9850737D01*
X50724320Y9849801D01*
X50728037Y9848001D01*
X50730021Y9847015D01*
X50733775Y9845957D01*
X50825497Y9816154D01*
X50908881Y9789060D01*
X51095514Y9759500D01*
X51095519Y9759500D01*
X51284485Y9759500D01*
X51284486Y9759500D01*
X51471118Y9789060D01*
X51650832Y9847453D01*
X51819199Y9933240D01*
X51972073Y10044310D01*
X52105690Y10177927D01*
X52216760Y10330801D01*
X52302547Y10499168D01*
X52336559Y10603850D01*
X52374982Y10660686D01*
X52376005Y10661542D01*
X52382371Y10670852D01*
X52446727Y10698056D01*
X52515575Y10686149D01*
X52544708Y10666233D01*
X52546994Y10664134D01*
X52581087Y10611090D01*
X52617452Y10499167D01*
X52617453Y10499166D01*
X52617454Y10499164D01*
X52703240Y10330801D01*
X52814310Y10177927D01*
X52947927Y10044310D01*
X53034229Y9981607D01*
X53100796Y9933243D01*
X53100797Y9933243D01*
X53100801Y9933240D01*
X53180347Y9892710D01*
X53262722Y9850737D01*
X53264320Y9849801D01*
X53268037Y9848001D01*
X53270021Y9847015D01*
X53273775Y9845957D01*
X53365497Y9816154D01*
X53448881Y9789060D01*
X53635514Y9759500D01*
X53635519Y9759500D01*
X53729230Y9759500D01*
X53764162Y9754479D01*
X53789406Y9747066D01*
X53842152Y9715770D01*
X54876402Y8681518D01*
X54876407Y8681514D01*
X54876411Y8681511D01*
X55007514Y8593910D01*
X55007518Y8593908D01*
X55007521Y8593906D01*
X55153203Y8533562D01*
X55304923Y8503384D01*
X55307122Y8502891D01*
X55307855Y8502800D01*
X93152144Y8502800D01*
X93156264Y8502800D01*
X93164114Y8505182D01*
X93306797Y8533563D01*
X93452479Y8593906D01*
X93583589Y8681511D01*
X94612654Y9710577D01*
X94640904Y9731725D01*
X94663996Y9744333D01*
X94723421Y9759500D01*
X94824485Y9759500D01*
X94824486Y9759500D01*
X95011118Y9789060D01*
X95190832Y9847453D01*
X95359199Y9933240D01*
X95512073Y10044310D01*
X95645690Y10177927D01*
X95756760Y10330801D01*
X95842547Y10499168D01*
X95900940Y10678882D01*
X95917399Y10782801D01*
X95930500Y10865514D01*
X95930500Y11054487D01*
X95900940Y11241119D01*
X95844562Y11414629D01*
X95844047Y11416214D01*
X95842985Y11419980D01*
X95841988Y11421988D01*
X95840202Y11425675D01*
X95839258Y11427288D01*
X95756762Y11589194D01*
X95756759Y11589200D01*
X95752828Y11594610D01*
X95645690Y11742073D01*
X95579426Y11808337D01*
X95558274Y11836593D01*
X95545667Y11859682D01*
X95530500Y11919107D01*
X95530500Y12533546D01*
X95535522Y12568479D01*
X95542934Y12593724D01*
X95574227Y12646465D01*
X95645690Y12717927D01*
X95756760Y12870801D01*
X95842547Y13039168D01*
X95900940Y13218882D01*
X95908482Y13266499D01*
X95930500Y13405514D01*
X95930500Y13499231D01*
X95935522Y13534164D01*
X95942934Y13559409D01*
X95974228Y13612151D01*
X96674354Y14312277D01*
X96702604Y14333425D01*
X96725696Y14346033D01*
X96785121Y14361200D01*
X98112864Y14361200D01*
X98120714Y14363582D01*
X98263397Y14391963D01*
X98391124Y14444869D01*
X103689500Y14444869D01*
X103689500Y12555144D01*
X103689502Y12555118D01*
X103692003Y12533546D01*
X103692414Y12530007D01*
X103692546Y12529562D01*
X103693609Y12527304D01*
X103737791Y12427240D01*
X103737793Y12427236D01*
X103737794Y12427235D01*
X103817235Y12347794D01*
X103920009Y12302415D01*
X103945135Y12299500D01*
X103947659Y12299501D01*
X103982601Y12294480D01*
X103997598Y12290077D01*
X104056377Y12252305D01*
X104056384Y12252297D01*
X104057571Y12250927D01*
X104085017Y12196102D01*
X104086663Y12188540D01*
X104089500Y12162167D01*
X104089500Y11926455D01*
X104084476Y11891516D01*
X104077064Y11866276D01*
X104045769Y11813534D01*
X103969817Y11737583D01*
X103965685Y11730204D01*
X103926610Y11676422D01*
X103926610Y11676421D01*
X103863240Y11589201D01*
X103826852Y11517786D01*
X103777454Y11420837D01*
X103719059Y11241119D01*
X103719058Y11241116D01*
X103719058Y11241114D01*
X103689500Y11054493D01*
X103689500Y10865509D01*
X103717908Y10686149D01*
X103719059Y10678882D01*
X103777454Y10499164D01*
X103863240Y10330801D01*
X103974310Y10177927D01*
X104107927Y10044310D01*
X104194229Y9981607D01*
X104260796Y9933243D01*
X104260797Y9933243D01*
X104260801Y9933240D01*
X104340347Y9892710D01*
X104422722Y9850737D01*
X104424320Y9849801D01*
X104428037Y9848001D01*
X104430021Y9847015D01*
X104433775Y9845957D01*
X104525497Y9816154D01*
X104608881Y9789060D01*
X104795514Y9759500D01*
X104795519Y9759500D01*
X104984485Y9759500D01*
X104984486Y9759500D01*
X105171118Y9789060D01*
X105350832Y9847453D01*
X105519199Y9933240D01*
X105672073Y10044310D01*
X105805690Y10177927D01*
X105916760Y10330801D01*
X106002547Y10499168D01*
X106060940Y10678882D01*
X106077399Y10782801D01*
X106090500Y10865514D01*
X106090500Y11054487D01*
X106060940Y11241119D01*
X106004562Y11414629D01*
X106004047Y11416214D01*
X106002985Y11419980D01*
X106001988Y11421988D01*
X106000202Y11425675D01*
X105999258Y11427288D01*
X105916762Y11589194D01*
X105916759Y11589200D01*
X105912828Y11594610D01*
X105805690Y11742073D01*
X105739426Y11808337D01*
X105718274Y11836593D01*
X105705667Y11859682D01*
X105690500Y11919107D01*
X105690500Y12157672D01*
X105695523Y12192608D01*
X105699927Y12207606D01*
X105737672Y12266357D01*
X105739041Y12267544D01*
X105793920Y12295024D01*
X105801479Y12296668D01*
X105827832Y12299501D01*
X105834850Y12299501D01*
X105834856Y12299501D01*
X105834864Y12299501D01*
X105834879Y12299503D01*
X105834882Y12299503D01*
X105834888Y12299504D01*
X105835019Y12299513D01*
X105835736Y12299603D01*
X105859987Y12302414D01*
X105859987Y12302415D01*
X105859990Y12302415D01*
X105859991Y12302415D01*
X105859991Y12302416D01*
X105860102Y12302428D01*
X105861862Y12303242D01*
X105962765Y12347794D01*
X106042206Y12427235D01*
X106087585Y12530009D01*
X106090500Y12555135D01*
X106090500Y12557671D01*
X106095523Y12592607D01*
X106099927Y12607605D01*
X106137672Y12666356D01*
X106139041Y12667543D01*
X106193920Y12695023D01*
X106201479Y12696667D01*
X106227832Y12699500D01*
X106624664Y12699500D01*
X106632514Y12701882D01*
X106775197Y12730263D01*
X106920879Y12790606D01*
X107051989Y12878211D01*
X107163489Y12989711D01*
X107251094Y13120821D01*
X107311437Y13266503D01*
X107342200Y13421158D01*
X107342200Y14131531D01*
X107347222Y14166464D01*
X107354634Y14191709D01*
X107385928Y14244451D01*
X108230179Y15088701D01*
X122061700Y15088701D01*
X122061700Y14911301D01*
X122096299Y14737354D01*
X122096301Y14737347D01*
X122096309Y14737324D01*
X122164177Y14573474D01*
X122164185Y14573456D01*
X122164194Y14573441D01*
X122262736Y14425964D01*
X122262737Y14425963D01*
X122262742Y14425957D01*
X122388155Y14300544D01*
X122388161Y14300539D01*
X122388165Y14300536D01*
X122535646Y14201991D01*
X122535659Y14201984D01*
X122571779Y14187023D01*
X122657344Y14151581D01*
X122657382Y14151566D01*
X122658563Y14151077D01*
X122699534Y14134106D01*
X122699536Y14134106D01*
X122699541Y14134104D01*
X122865880Y14101018D01*
X122868603Y14100296D01*
X122873506Y14099500D01*
X123050893Y14099500D01*
X123050894Y14099500D01*
X123129785Y14115194D01*
X123135481Y14116327D01*
X123143602Y14117943D01*
X123178843Y14119833D01*
X123199749Y14117963D01*
X123256669Y14098166D01*
X123262290Y14094482D01*
X123281999Y14078453D01*
X129383457Y7976995D01*
X129404609Y7948739D01*
X129412101Y7935018D01*
X129426952Y7866748D01*
X129426428Y7859421D01*
X129405849Y7799379D01*
X129401888Y7793452D01*
X129334007Y7629573D01*
X129334001Y7629555D01*
X129333999Y7629548D01*
X129299400Y7455601D01*
X129299400Y7278201D01*
X129333999Y7104254D01*
X129334001Y7104247D01*
X129334009Y7104224D01*
X129401877Y6940374D01*
X129401885Y6940356D01*
X129401894Y6940341D01*
X129500436Y6792864D01*
X129500437Y6792863D01*
X129500442Y6792857D01*
X129625855Y6667444D01*
X129625861Y6667439D01*
X129625865Y6667436D01*
X129773346Y6568891D01*
X129773359Y6568884D01*
X129809479Y6553923D01*
X129895044Y6518481D01*
X129895082Y6518466D01*
X129896263Y6517977D01*
X129937234Y6501006D01*
X129937236Y6501006D01*
X129937241Y6501004D01*
X130103580Y6467918D01*
X130106303Y6467196D01*
X130111206Y6466400D01*
X130288593Y6466400D01*
X130292714Y6466400D01*
X130300567Y6468783D01*
X130346582Y6477936D01*
X130346583Y6477936D01*
X130462553Y6501003D01*
X130462553Y6501004D01*
X130462558Y6501004D01*
X130462561Y6501006D01*
X130462566Y6501006D01*
X130465754Y6502327D01*
X130473735Y6505627D01*
X130473776Y6505649D01*
X130626440Y6568884D01*
X130626440Y6568885D01*
X130626447Y6568887D01*
X130773935Y6667436D01*
X130899364Y6792865D01*
X130997913Y6940353D01*
X131065794Y7104234D01*
X131100400Y7278209D01*
X131100400Y7327526D01*
X131105422Y7362459D01*
X131109333Y7375778D01*
X131147106Y7434555D01*
X131210649Y7463579D01*
X131213322Y7463963D01*
X131269630Y7459049D01*
X131272373Y7458149D01*
X131272611Y7458071D01*
X131282216Y7453969D01*
X131282356Y7454306D01*
X131287950Y7451989D01*
X131287953Y7451987D01*
X131451834Y7384106D01*
X131451835Y7384106D01*
X131451836Y7384106D01*
X131451841Y7384104D01*
X131618180Y7351018D01*
X131620903Y7350296D01*
X131625806Y7349500D01*
X131803193Y7349500D01*
X131807314Y7349500D01*
X131815167Y7351883D01*
X131861182Y7361036D01*
X131861183Y7361036D01*
X131977153Y7384103D01*
X131977153Y7384104D01*
X131977158Y7384104D01*
X131977161Y7384106D01*
X131977166Y7384106D01*
X131980354Y7385427D01*
X131988335Y7388727D01*
X131988376Y7388749D01*
X132141040Y7451984D01*
X132141040Y7451985D01*
X132141047Y7451987D01*
X132288535Y7550536D01*
X132413964Y7675965D01*
X132512513Y7823453D01*
X132580394Y7987334D01*
X132581477Y7992776D01*
X132614999Y8161305D01*
X132615000Y8161307D01*
X132615000Y8338694D01*
X132614999Y8338696D01*
X132580396Y8512659D01*
X132580393Y8512668D01*
X132512516Y8676541D01*
X132512509Y8676554D01*
X132413964Y8824035D01*
X132413961Y8824039D01*
X132413956Y8824045D01*
X132288542Y8949459D01*
X132209929Y9001988D01*
X132183673Y9025574D01*
X132170221Y9041671D01*
X132143972Y9095918D01*
X132142602Y9102500D01*
X132140000Y9127768D01*
X132140000Y10931862D01*
X132145022Y10966795D01*
X132152434Y10992040D01*
X132183728Y11044782D01*
X135184227Y14045282D01*
X135212472Y14066427D01*
X135230895Y14076487D01*
X135289208Y14091648D01*
X135295941Y14091708D01*
X135321222Y14089331D01*
X135403048Y14073055D01*
X135418905Y14069900D01*
X135596293Y14069900D01*
X135600414Y14069900D01*
X135608267Y14072283D01*
X135654282Y14081436D01*
X135654283Y14081436D01*
X135770253Y14104503D01*
X135770253Y14104504D01*
X135770258Y14104504D01*
X135770261Y14104506D01*
X135770266Y14104506D01*
X135773454Y14105827D01*
X135781435Y14109127D01*
X135781476Y14109149D01*
X135934140Y14172384D01*
X135934140Y14172385D01*
X135934147Y14172387D01*
X136081635Y14270936D01*
X136207064Y14396365D01*
X136305613Y14543853D01*
X136317877Y14573460D01*
X136350494Y14652207D01*
X136373494Y14707734D01*
X136379280Y14736819D01*
X136408099Y14881705D01*
X136408100Y14881707D01*
X136408100Y15059094D01*
X136408099Y15059096D01*
X136373496Y15233059D01*
X136373493Y15233068D01*
X136305616Y15396941D01*
X136305609Y15396954D01*
X136207064Y15544435D01*
X136207061Y15544439D01*
X136207056Y15544445D01*
X136081643Y15669858D01*
X136081636Y15669864D01*
X136081633Y15669866D01*
X135934159Y15768406D01*
X135934158Y15768407D01*
X135934153Y15768410D01*
X135934140Y15768417D01*
X135912342Y15777446D01*
X135770276Y15836291D01*
X135770253Y15836299D01*
X135770246Y15836301D01*
X135596298Y15870900D01*
X135596294Y15870900D01*
X135596291Y15870900D01*
X135418909Y15870900D01*
X135418906Y15870900D01*
X135418901Y15870900D01*
X135244952Y15836300D01*
X135244945Y15836299D01*
X135244922Y15836291D01*
X135081072Y15768423D01*
X135081054Y15768415D01*
X135081039Y15768406D01*
X134933566Y15669866D01*
X134933563Y15669864D01*
X134933555Y15669858D01*
X134808142Y15544445D01*
X134808137Y15544439D01*
X134808136Y15544438D01*
X134709594Y15396961D01*
X134709585Y15396946D01*
X134709577Y15396928D01*
X134641709Y15233078D01*
X134641701Y15233055D01*
X134641699Y15233048D01*
X134607100Y15059101D01*
X134607100Y15059096D01*
X134607100Y14881705D01*
X134607100Y14881703D01*
X134607099Y14881703D01*
X134625541Y14788995D01*
X134627431Y14753752D01*
X134625561Y14732853D01*
X134605764Y14675932D01*
X134602080Y14670311D01*
X134586051Y14650602D01*
X131453237Y11517786D01*
X131374017Y11438567D01*
X131374014Y11438563D01*
X131317999Y11341542D01*
X131317998Y11341541D01*
X131317994Y11341530D01*
X131289000Y11233318D01*
X131289000Y9132823D01*
X131283976Y9097884D01*
X131278064Y9077752D01*
X131247550Y9025797D01*
X131242840Y9021002D01*
X131223270Y9004794D01*
X131140457Y8949460D01*
X131015042Y8824045D01*
X131015037Y8824039D01*
X131015036Y8824038D01*
X130916494Y8676561D01*
X130916485Y8676546D01*
X130916477Y8676528D01*
X130848609Y8512678D01*
X130848601Y8512655D01*
X130848599Y8512648D01*
X130814000Y8338701D01*
X130814000Y8289376D01*
X130808975Y8254435D01*
X130805064Y8241118D01*
X130767287Y8182342D01*
X130703729Y8153320D01*
X130703728Y8153320D01*
X130701056Y8152936D01*
X130644781Y8157848D01*
X130641085Y8159060D01*
X130629267Y8163771D01*
X130629259Y8163750D01*
X130627712Y8164391D01*
X130626708Y8164791D01*
X130626441Y8164917D01*
X130462592Y8232785D01*
X130462578Y8232790D01*
X130462570Y8232793D01*
X130462560Y8232796D01*
X130462559Y8232797D01*
X130462554Y8232798D01*
X130352901Y8254609D01*
X130319619Y8266350D01*
X130290245Y8281715D01*
X130260038Y8303910D01*
X123887322Y14676626D01*
X123866174Y14704874D01*
X123856114Y14723297D01*
X123840952Y14781612D01*
X123840892Y14788345D01*
X123843268Y14813623D01*
X123862700Y14911307D01*
X123862700Y15088694D01*
X123862700Y15088875D01*
X123862274Y15090831D01*
X123828096Y15262659D01*
X123828093Y15262668D01*
X123760216Y15426541D01*
X123760209Y15426554D01*
X123661664Y15574035D01*
X123661661Y15574039D01*
X123661656Y15574045D01*
X123536243Y15699458D01*
X123536237Y15699463D01*
X123536236Y15699464D01*
X123388759Y15798006D01*
X123388758Y15798007D01*
X123388753Y15798010D01*
X123388740Y15798017D01*
X123336602Y15819613D01*
X123224876Y15865891D01*
X123224853Y15865899D01*
X123224846Y15865901D01*
X123050898Y15900500D01*
X123050894Y15900500D01*
X123050891Y15900500D01*
X122873509Y15900500D01*
X122873506Y15900500D01*
X122873501Y15900500D01*
X122699552Y15865900D01*
X122699545Y15865899D01*
X122699522Y15865891D01*
X122535672Y15798023D01*
X122535654Y15798015D01*
X122535639Y15798006D01*
X122388162Y15699464D01*
X122388161Y15699463D01*
X122388155Y15699458D01*
X122262742Y15574045D01*
X122262737Y15574039D01*
X122262736Y15574038D01*
X122164194Y15426561D01*
X122164185Y15426546D01*
X122164177Y15426528D01*
X122096309Y15262678D01*
X122096301Y15262655D01*
X122096299Y15262648D01*
X122061700Y15088701D01*
X108230179Y15088701D01*
X108323942Y15182464D01*
X113487697Y20346219D01*
X122915796Y29774320D01*
X122944047Y29795468D01*
X122956230Y29802121D01*
X123024504Y29816971D01*
X123089965Y29792554D01*
X123089971Y29792549D01*
X123089974Y29792547D01*
X123092139Y29790926D01*
X123128448Y29747678D01*
X123133863Y29736983D01*
X123137796Y29728423D01*
X123201977Y29573474D01*
X123201985Y29573456D01*
X123201994Y29573441D01*
X123300536Y29425964D01*
X123300537Y29425963D01*
X123300542Y29425957D01*
X123425955Y29300544D01*
X123425961Y29300539D01*
X123425965Y29300536D01*
X123573446Y29201991D01*
X123573459Y29201984D01*
X123586296Y29196667D01*
X123695144Y29151581D01*
X123695182Y29151566D01*
X123696363Y29151077D01*
X123737334Y29134106D01*
X123737336Y29134106D01*
X123737341Y29134104D01*
X123903680Y29101018D01*
X123906403Y29100296D01*
X123911306Y29099500D01*
X124088693Y29099500D01*
X124092814Y29099500D01*
X124100667Y29101883D01*
X124146682Y29111036D01*
X124146683Y29111036D01*
X124175676Y29116803D01*
X124262658Y29134104D01*
X124262661Y29134106D01*
X124262666Y29134106D01*
X124264880Y29135023D01*
X124273828Y29138724D01*
X124273870Y29138747D01*
X124386479Y29185391D01*
X124409725Y29192443D01*
X124433233Y29197119D01*
X124457419Y29199500D01*
X128557670Y29199500D01*
X128592606Y29194477D01*
X128607604Y29190073D01*
X128666355Y29152328D01*
X128667542Y29150959D01*
X128695018Y29096098D01*
X128696663Y29088540D01*
X128699500Y29062169D01*
X128699500Y27957420D01*
X128697116Y27933224D01*
X128692442Y27909731D01*
X128685387Y27886475D01*
X128634111Y27762683D01*
X128634101Y27762655D01*
X128634099Y27762648D01*
X128599500Y27588701D01*
X128599500Y27411301D01*
X128634099Y27237354D01*
X128634101Y27237347D01*
X128634109Y27237324D01*
X128701977Y27073474D01*
X128701985Y27073456D01*
X128701994Y27073441D01*
X128800536Y26925964D01*
X128800537Y26925963D01*
X128800542Y26925957D01*
X128925955Y26800544D01*
X128925961Y26800539D01*
X128925965Y26800536D01*
X129073446Y26701991D01*
X129073459Y26701984D01*
X129109579Y26687023D01*
X129195144Y26651581D01*
X129195182Y26651566D01*
X129196363Y26651077D01*
X129237334Y26634106D01*
X129237336Y26634106D01*
X129237341Y26634104D01*
X129403680Y26601018D01*
X129406403Y26600296D01*
X129411306Y26599500D01*
X129588693Y26599500D01*
X129592814Y26599500D01*
X129600667Y26601883D01*
X129646682Y26611036D01*
X129646683Y26611036D01*
X129762653Y26634103D01*
X129762653Y26634104D01*
X129762658Y26634104D01*
X129762661Y26634106D01*
X129762666Y26634106D01*
X129765854Y26635427D01*
X129773835Y26638727D01*
X129773876Y26638749D01*
X129926540Y26701984D01*
X129926540Y26701985D01*
X129926547Y26701987D01*
X130074035Y26800536D01*
X130199464Y26925965D01*
X130298013Y27073453D01*
X130365894Y27237334D01*
X130400500Y27411309D01*
X130400500Y27588691D01*
X130400500Y27588694D01*
X130400500Y27588875D01*
X130400074Y27590831D01*
X130365896Y27762659D01*
X130365893Y27762668D01*
X130314609Y27886480D01*
X130307557Y27909731D01*
X130302881Y27933233D01*
X130300500Y27957420D01*
X130300500Y29057671D01*
X130305523Y29092607D01*
X130307548Y29099501D01*
X130309927Y29107606D01*
X130347672Y29166356D01*
X130349041Y29167543D01*
X130403920Y29195023D01*
X130411479Y29196667D01*
X130437832Y29199500D01*
X136582964Y29199500D01*
X136590814Y29201882D01*
X136733497Y29230263D01*
X136879179Y29290606D01*
X137010289Y29378211D01*
X137121789Y29489711D01*
X137209394Y29620821D01*
X137209397Y29620828D01*
X137209398Y29620829D01*
X137256285Y29734026D01*
X137269737Y29766503D01*
X137300500Y29921158D01*
X137300500Y40092581D01*
X137302882Y40116769D01*
X137307557Y40140275D01*
X137314609Y40163521D01*
X137364211Y40283274D01*
X137365378Y40285830D01*
X137365887Y40287321D01*
X137365892Y40287330D01*
X137365894Y40287334D01*
X137400499Y40461303D01*
X137400500Y40461307D01*
X137400500Y40638875D01*
X137400074Y40640831D01*
X137365896Y40812659D01*
X137365893Y40812668D01*
X137298016Y40976541D01*
X137298009Y40976554D01*
X137199464Y41124035D01*
X137199461Y41124039D01*
X137199456Y41124045D01*
X137074043Y41249458D01*
X137074037Y41249463D01*
X137074036Y41249464D01*
X136926559Y41348006D01*
X136926558Y41348007D01*
X136926553Y41348010D01*
X136926540Y41348017D01*
X136926526Y41348023D01*
X136762676Y41415891D01*
X136762653Y41415899D01*
X136762646Y41415901D01*
X136588698Y41450500D01*
X136588694Y41450500D01*
X136588691Y41450500D01*
X136411309Y41450500D01*
X136411306Y41450500D01*
X136411301Y41450500D01*
X136237352Y41415900D01*
X136237345Y41415899D01*
X136237322Y41415891D01*
X136073472Y41348023D01*
X136073454Y41348015D01*
X136073439Y41348006D01*
X135925962Y41249464D01*
X135925961Y41249463D01*
X135925955Y41249458D01*
X135800542Y41124045D01*
X135800537Y41124039D01*
X135800536Y41124038D01*
X135701994Y40976561D01*
X135701985Y40976546D01*
X135701977Y40976528D01*
X135634109Y40812678D01*
X135634101Y40812655D01*
X135634099Y40812648D01*
X135599500Y40638701D01*
X135599500Y40638696D01*
X135599500Y40461305D01*
X135599500Y40461303D01*
X135599499Y40461303D01*
X135634100Y40287360D01*
X135634107Y40287329D01*
X135685387Y40163527D01*
X135692443Y40140270D01*
X135697117Y40116770D01*
X135699500Y40092581D01*
X135699500Y30942330D01*
X135694475Y30907386D01*
X135690070Y30892388D01*
X135652327Y30833645D01*
X135650958Y30832458D01*
X135596097Y30804982D01*
X135588539Y30803337D01*
X135562168Y30800500D01*
X124457343Y30800500D01*
X124433297Y30802854D01*
X124410087Y30807442D01*
X124386680Y30814527D01*
X124268849Y30863334D01*
X124238735Y30881151D01*
X124228595Y30889281D01*
X124188605Y30946575D01*
X124183589Y31004785D01*
X124184011Y31007545D01*
X124184013Y31007551D01*
X124184049Y31007787D01*
X124205079Y31060195D01*
X124206868Y31062746D01*
X124220713Y31079237D01*
X129369554Y36228077D01*
X129397804Y36249225D01*
X129420896Y36261833D01*
X129480321Y36277000D01*
X132310981Y36277000D01*
X132335165Y36274619D01*
X132358674Y36269943D01*
X132381920Y36262891D01*
X132505734Y36211606D01*
X132505735Y36211606D01*
X132505736Y36211606D01*
X132505741Y36211604D01*
X132672080Y36178518D01*
X132674803Y36177796D01*
X132679706Y36177000D01*
X132857093Y36177000D01*
X132861214Y36177000D01*
X132869067Y36179383D01*
X132915082Y36188536D01*
X132915083Y36188536D01*
X133031053Y36211603D01*
X133031053Y36211604D01*
X133031058Y36211604D01*
X133031061Y36211606D01*
X133031066Y36211606D01*
X133034254Y36212927D01*
X133042235Y36216227D01*
X133042276Y36216249D01*
X133194940Y36279484D01*
X133194940Y36279485D01*
X133194947Y36279487D01*
X133342435Y36378036D01*
X133467864Y36503465D01*
X133566413Y36650953D01*
X133634294Y36814834D01*
X133655443Y36921154D01*
X133668899Y36988805D01*
X133668900Y36988807D01*
X133668900Y37166194D01*
X133668899Y37166196D01*
X133634296Y37340159D01*
X133634293Y37340168D01*
X133566416Y37504041D01*
X133566409Y37504054D01*
X133467864Y37651535D01*
X133467861Y37651539D01*
X133467856Y37651545D01*
X133342443Y37776958D01*
X133342437Y37776963D01*
X133342436Y37776964D01*
X133194959Y37875506D01*
X133194958Y37875507D01*
X133194953Y37875510D01*
X133194940Y37875517D01*
X133194926Y37875523D01*
X133031076Y37943391D01*
X133031053Y37943399D01*
X133031046Y37943401D01*
X132857098Y37978000D01*
X132857094Y37978000D01*
X132857091Y37978000D01*
X132679709Y37978000D01*
X132679706Y37978000D01*
X132679701Y37978000D01*
X132505752Y37943400D01*
X132505745Y37943399D01*
X132505717Y37943389D01*
X132381925Y37892113D01*
X132358670Y37885058D01*
X132335178Y37880384D01*
X132310981Y37878000D01*
X129008048Y37878000D01*
X128853435Y37847246D01*
X128853402Y37847238D01*
X128707718Y37786894D01*
X128707716Y37786893D01*
X128576608Y37699289D01*
X128576607Y37699288D01*
X128576601Y37699283D01*
X111223541Y20346219D01*
X106031410Y15154088D01*
X105987543Y15110222D01*
X105919909Y15042589D01*
X105919906Y15042585D01*
X105832313Y14911494D01*
X105832308Y14911486D01*
X105783443Y14793516D01*
X105765435Y14763166D01*
X105755629Y14750997D01*
X105698242Y14711149D01*
X105685322Y14706848D01*
X105646156Y14700500D01*
X103945143Y14700500D01*
X103945127Y14700499D01*
X103945113Y14700498D01*
X103927255Y14698427D01*
X103920012Y14697587D01*
X103920011Y14697587D01*
X103920005Y14697586D01*
X103919559Y14697453D01*
X103917303Y14696391D01*
X103817236Y14652208D01*
X103737793Y14572766D01*
X103692414Y14469995D01*
X103692404Y14469946D01*
X103692403Y14469897D01*
X103689500Y14444869D01*
X98391124Y14444869D01*
X98409079Y14452306D01*
X98540189Y14539911D01*
X144331614Y60331337D01*
X144359857Y60352481D01*
X144369791Y60357905D01*
X144438061Y60372758D01*
X144503526Y60348344D01*
X144545399Y60292412D01*
X144545401Y60292408D01*
X144548082Y60285220D01*
X144555900Y60241886D01*
X144555900Y28390071D01*
X144550876Y28355134D01*
X144543464Y28329893D01*
X144512169Y28277149D01*
X128807807Y12572788D01*
X128789016Y12557366D01*
X128769090Y12544052D01*
X128747653Y12532594D01*
X128623857Y12481317D01*
X128623849Y12481312D01*
X128520181Y12412042D01*
X128478166Y12383968D01*
X128476358Y12382760D01*
X128476355Y12382758D01*
X128350942Y12257345D01*
X128350937Y12257339D01*
X128350936Y12257338D01*
X128252394Y12109861D01*
X128252385Y12109846D01*
X128252377Y12109828D01*
X128184509Y11945978D01*
X128184501Y11945955D01*
X128184499Y11945948D01*
X128149900Y11772001D01*
X128149900Y11594601D01*
X128184499Y11420654D01*
X128184501Y11420647D01*
X128184509Y11420624D01*
X128230781Y11308912D01*
X128252383Y11256760D01*
X128252389Y11256748D01*
X128252394Y11256741D01*
X128350936Y11109264D01*
X128350937Y11109263D01*
X128350942Y11109257D01*
X128476355Y10983844D01*
X128476361Y10983839D01*
X128476365Y10983836D01*
X128623846Y10885291D01*
X128623859Y10885284D01*
X128658567Y10870908D01*
X128745544Y10834881D01*
X128745582Y10834866D01*
X128746763Y10834377D01*
X128787734Y10817406D01*
X128787736Y10817406D01*
X128787741Y10817404D01*
X128954080Y10784318D01*
X128956803Y10783596D01*
X128961706Y10782800D01*
X129139093Y10782800D01*
X129143214Y10782800D01*
X129151067Y10785183D01*
X129197082Y10794336D01*
X129197083Y10794336D01*
X129313053Y10817403D01*
X129313053Y10817404D01*
X129313058Y10817404D01*
X129313061Y10817406D01*
X129313066Y10817406D01*
X129316254Y10818727D01*
X129324235Y10822027D01*
X129324276Y10822049D01*
X129476940Y10885284D01*
X129476940Y10885285D01*
X129476947Y10885287D01*
X129624435Y10983836D01*
X129749864Y11109265D01*
X129848413Y11256753D01*
X129899694Y11380564D01*
X129911152Y11401999D01*
X129920648Y11416211D01*
X129924462Y11421920D01*
X129939877Y11440702D01*
X145978188Y27479010D01*
X145978189Y27479011D01*
X146065794Y27610121D01*
X146126137Y27755803D01*
X146145896Y27855135D01*
X146156900Y27910457D01*
X146156900Y28068142D01*
X146156900Y88376042D01*
X146156900Y88376043D01*
X146156900Y88376045D01*
X146156900Y88376227D01*
X146156465Y88378228D01*
X146137771Y88472206D01*
X146126795Y88527385D01*
X146126384Y88529794D01*
X146126137Y88530693D01*
X146126137Y88530697D01*
X146122048Y88540570D01*
X146115714Y88555863D01*
X146065798Y88676370D01*
X146065797Y88676373D01*
X146065790Y88676386D01*
X145978190Y88807488D01*
X145978189Y88807489D01*
X145866689Y88918989D01*
X145048336Y89737342D01*
X144874373Y89911305D01*
X144163896Y90621784D01*
X144163891Y90621788D01*
X144163890Y90621789D01*
X144032791Y90709387D01*
X144032790Y90709388D01*
X144032785Y90709391D01*
X144032772Y90709398D01*
X144032765Y90709402D01*
X143887102Y90769736D01*
X143887071Y90769743D01*
X143732447Y90800500D01*
X143732445Y90800500D01*
X143732442Y90800500D01*
X137442330Y90800500D01*
X137407389Y90805525D01*
X137392390Y90809930D01*
X137333644Y90847673D01*
X137332457Y90849042D01*
X137304977Y90903917D01*
X137303332Y90911479D01*
X137300500Y90937832D01*
X137300500Y99942581D01*
X137302882Y99966769D01*
X137307557Y99990275D01*
X137314609Y100013521D01*
X137364211Y100133274D01*
X137365378Y100135830D01*
X137365887Y100137321D01*
X137365892Y100137330D01*
X137365894Y100137334D01*
X137400499Y100311303D01*
X137400500Y100311307D01*
X137400500Y100488875D01*
X137400074Y100490831D01*
X137365896Y100662659D01*
X137365893Y100662668D01*
X137298016Y100826541D01*
X137298009Y100826554D01*
X137199464Y100974035D01*
X137199461Y100974039D01*
X137199456Y100974045D01*
X137074043Y101099458D01*
X137074037Y101099463D01*
X137074036Y101099464D01*
X136926559Y101198006D01*
X136926558Y101198007D01*
X136926553Y101198010D01*
X136926540Y101198017D01*
X136926526Y101198023D01*
X136762676Y101265891D01*
X136762653Y101265899D01*
X136762646Y101265901D01*
X136588698Y101300500D01*
X136588694Y101300500D01*
X136588691Y101300500D01*
X136411309Y101300500D01*
X136411306Y101300500D01*
X136411301Y101300500D01*
X136237352Y101265900D01*
X136237345Y101265899D01*
X136237322Y101265891D01*
X136073472Y101198023D01*
X136073454Y101198015D01*
X136073439Y101198006D01*
X135925962Y101099464D01*
X135925961Y101099463D01*
X135925955Y101099458D01*
X135800542Y100974045D01*
X135800537Y100974039D01*
X135800536Y100974038D01*
X135701994Y100826561D01*
X135701985Y100826546D01*
X135701977Y100826528D01*
X135634109Y100662678D01*
X135634101Y100662655D01*
X135634099Y100662648D01*
X135599500Y100488701D01*
X135599500Y100488696D01*
X135599500Y100311305D01*
X135599500Y100311303D01*
X135599499Y100311303D01*
X135634100Y100137360D01*
X135634107Y100137329D01*
X135685387Y100013527D01*
X135692443Y99990270D01*
X135697117Y99966770D01*
X135699500Y99942581D01*
X135699500Y90942330D01*
X135694475Y90907386D01*
X135690070Y90892388D01*
X135652327Y90833645D01*
X135650958Y90832458D01*
X135596097Y90804982D01*
X135588539Y90803337D01*
X135562168Y90800500D01*
X124457419Y90800500D01*
X124433230Y90802883D01*
X124409730Y90807557D01*
X124386473Y90814613D01*
X124262676Y90865891D01*
X124262653Y90865899D01*
X124262646Y90865901D01*
X124088698Y90900500D01*
X124088694Y90900500D01*
X124088691Y90900500D01*
X123911309Y90900500D01*
X123911306Y90900500D01*
X123911301Y90900500D01*
X123737352Y90865900D01*
X123737345Y90865899D01*
X123737322Y90865891D01*
X123573472Y90798023D01*
X123573454Y90798015D01*
X123573439Y90798006D01*
X123425962Y90699464D01*
X123425961Y90699463D01*
X123425955Y90699458D01*
X123300542Y90574045D01*
X123300537Y90574039D01*
X123300536Y90574038D01*
X123201994Y90426561D01*
X123201985Y90426546D01*
X123201977Y90426528D01*
X123134109Y90262678D01*
X123134101Y90262655D01*
X123134099Y90262648D01*
X123099500Y90088701D01*
X123099500Y89911301D01*
X123134099Y89737354D01*
X123134101Y89737347D01*
X123134103Y89737342D01*
X123134109Y89737324D01*
X123201977Y89573474D01*
X123201985Y89573456D01*
X123201994Y89573441D01*
X123300536Y89425964D01*
X123300537Y89425963D01*
X123300542Y89425957D01*
X123425955Y89300544D01*
X123425961Y89300539D01*
X123425965Y89300536D01*
X123573446Y89201991D01*
X123573459Y89201984D01*
X123667140Y89163181D01*
X123737334Y89134106D01*
X123737336Y89134106D01*
X123737341Y89134104D01*
X123903680Y89101018D01*
X123906403Y89100296D01*
X123911306Y89099500D01*
X124088693Y89099500D01*
X124092814Y89099500D01*
X124100667Y89101883D01*
X124146682Y89111036D01*
X124146683Y89111036D01*
X124175676Y89116803D01*
X124262658Y89134104D01*
X124262661Y89134106D01*
X124262666Y89134106D01*
X124264880Y89135023D01*
X124273828Y89138724D01*
X124273870Y89138747D01*
X124386479Y89185391D01*
X124409725Y89192443D01*
X124433233Y89197119D01*
X124457419Y89199500D01*
X143252830Y89199500D01*
X143287762Y89194479D01*
X143313006Y89187066D01*
X143365752Y89155770D01*
X143766102Y88755420D01*
X143787253Y88727167D01*
X143793905Y88714985D01*
X143808757Y88646712D01*
X143784341Y88581247D01*
X143784330Y88581233D01*
X143781191Y88577041D01*
X143729387Y88536804D01*
X143573465Y88472220D01*
X143573454Y88472215D01*
X143573439Y88472206D01*
X143425962Y88373664D01*
X143425961Y88373663D01*
X143425955Y88373658D01*
X143300542Y88248245D01*
X143300537Y88248239D01*
X143300536Y88248238D01*
X143201994Y88100761D01*
X143201985Y88100746D01*
X143201977Y88100728D01*
X143134109Y87936878D01*
X143134101Y87936855D01*
X143134099Y87936848D01*
X143099500Y87762901D01*
X143099500Y87762896D01*
X143099500Y87585505D01*
X143099500Y87585503D01*
X143099499Y87585503D01*
X143134100Y87411560D01*
X143134107Y87411529D01*
X143185387Y87287727D01*
X143192443Y87264470D01*
X143197117Y87240970D01*
X143199500Y87216781D01*
X143199500Y61532570D01*
X143194476Y61497633D01*
X143187064Y61472392D01*
X143155769Y61419648D01*
X124117888Y42381767D01*
X124089638Y42360618D01*
X124079711Y42355197D01*
X124011438Y42340343D01*
X123945973Y42364757D01*
X123904100Y42420689D01*
X123901413Y42427895D01*
X123893600Y42471215D01*
X123893600Y58184081D01*
X123895982Y58208269D01*
X123900657Y58231775D01*
X123907709Y58255021D01*
X123957311Y58374774D01*
X123958478Y58377330D01*
X123958987Y58378821D01*
X123958992Y58378830D01*
X123958994Y58378834D01*
X123993599Y58552803D01*
X123993600Y58552807D01*
X123993600Y58730377D01*
X123993164Y58732382D01*
X123958996Y58904159D01*
X123958994Y58904162D01*
X123958994Y58904166D01*
X123957943Y58906702D01*
X123955898Y58911647D01*
X123947193Y58945792D01*
X123945711Y58959579D01*
X123958120Y59028337D01*
X124005733Y59079472D01*
X124005737Y59079474D01*
X124010243Y59082147D01*
X124073507Y59099500D01*
X124092814Y59099500D01*
X124100667Y59101883D01*
X124146682Y59111036D01*
X124146683Y59111036D01*
X124175676Y59116803D01*
X124262658Y59134104D01*
X124262661Y59134106D01*
X124262666Y59134106D01*
X124264880Y59135023D01*
X124273828Y59138724D01*
X124273870Y59138747D01*
X124386479Y59185391D01*
X124409725Y59192443D01*
X124433233Y59197119D01*
X124457419Y59199500D01*
X126557670Y59199500D01*
X126592606Y59194477D01*
X126607604Y59190073D01*
X126666355Y59152328D01*
X126667542Y59150959D01*
X126695018Y59096098D01*
X126696663Y59088540D01*
X126699500Y59062169D01*
X126699500Y54457420D01*
X126697116Y54433224D01*
X126692442Y54409731D01*
X126685387Y54386475D01*
X126634111Y54262683D01*
X126634101Y54262655D01*
X126634099Y54262648D01*
X126599500Y54088701D01*
X126599500Y53911301D01*
X126634099Y53737354D01*
X126634101Y53737347D01*
X126634109Y53737324D01*
X126701977Y53573474D01*
X126701985Y53573456D01*
X126701994Y53573441D01*
X126800536Y53425964D01*
X126800537Y53425963D01*
X126800542Y53425957D01*
X126925955Y53300544D01*
X126925961Y53300539D01*
X126925965Y53300536D01*
X127073446Y53201991D01*
X127073459Y53201984D01*
X127109579Y53187023D01*
X127195144Y53151581D01*
X127195182Y53151566D01*
X127196363Y53151077D01*
X127237334Y53134106D01*
X127237336Y53134106D01*
X127237341Y53134104D01*
X127403680Y53101018D01*
X127406403Y53100296D01*
X127411306Y53099500D01*
X127588693Y53099500D01*
X127592814Y53099500D01*
X127600667Y53101883D01*
X127646682Y53111036D01*
X127646683Y53111036D01*
X127762653Y53134103D01*
X127762653Y53134104D01*
X127762658Y53134104D01*
X127762661Y53134106D01*
X127762666Y53134106D01*
X127765854Y53135427D01*
X127773835Y53138727D01*
X127773876Y53138749D01*
X127926540Y53201984D01*
X127926540Y53201985D01*
X127926547Y53201987D01*
X128074035Y53300536D01*
X128199464Y53425965D01*
X128298013Y53573453D01*
X128365894Y53737334D01*
X128400500Y53911309D01*
X128400500Y54088691D01*
X128400500Y54088694D01*
X128400500Y54088875D01*
X128400074Y54090831D01*
X128365896Y54262659D01*
X128365893Y54262668D01*
X128314609Y54386480D01*
X128307557Y54409731D01*
X128302881Y54433233D01*
X128300500Y54457420D01*
X128300500Y59057671D01*
X128305523Y59092607D01*
X128307548Y59099501D01*
X128309927Y59107606D01*
X128347672Y59166356D01*
X128349041Y59167543D01*
X128403920Y59195023D01*
X128411479Y59196667D01*
X128437832Y59199500D01*
X136582964Y59199500D01*
X136590814Y59201882D01*
X136733497Y59230263D01*
X136879179Y59290606D01*
X137010289Y59378211D01*
X137121789Y59489711D01*
X137209394Y59620821D01*
X137269737Y59766503D01*
X137300500Y59921158D01*
X137300500Y69692581D01*
X137302882Y69716769D01*
X137307557Y69740275D01*
X137314609Y69763521D01*
X137364211Y69883274D01*
X137365378Y69885830D01*
X137365887Y69887321D01*
X137365892Y69887330D01*
X137365894Y69887334D01*
X137400499Y70061303D01*
X137400500Y70061307D01*
X137400500Y70238875D01*
X137400074Y70240831D01*
X137365896Y70412659D01*
X137365893Y70412668D01*
X137298016Y70576541D01*
X137298009Y70576554D01*
X137199464Y70724035D01*
X137199461Y70724039D01*
X137199456Y70724045D01*
X137074043Y70849458D01*
X137074037Y70849463D01*
X137074036Y70849464D01*
X136926559Y70948006D01*
X136926558Y70948007D01*
X136926553Y70948010D01*
X136926540Y70948017D01*
X136926526Y70948023D01*
X136762676Y71015891D01*
X136762653Y71015899D01*
X136762646Y71015901D01*
X136588698Y71050500D01*
X136588694Y71050500D01*
X136588691Y71050500D01*
X136411309Y71050500D01*
X136411306Y71050500D01*
X136411301Y71050500D01*
X136237352Y71015900D01*
X136237345Y71015899D01*
X136237322Y71015891D01*
X136073472Y70948023D01*
X136073454Y70948015D01*
X136073439Y70948006D01*
X135925962Y70849464D01*
X135925961Y70849463D01*
X135925955Y70849458D01*
X135800542Y70724045D01*
X135800537Y70724039D01*
X135800536Y70724038D01*
X135701994Y70576561D01*
X135701985Y70576546D01*
X135701977Y70576528D01*
X135634109Y70412678D01*
X135634101Y70412655D01*
X135634099Y70412648D01*
X135599500Y70238701D01*
X135599500Y70238696D01*
X135599500Y70061305D01*
X135599500Y70061303D01*
X135599499Y70061303D01*
X135634100Y69887360D01*
X135634107Y69887329D01*
X135685387Y69763527D01*
X135692443Y69740270D01*
X135697117Y69716770D01*
X135699500Y69692581D01*
X135699500Y60942330D01*
X135694475Y60907386D01*
X135690070Y60892388D01*
X135652327Y60833645D01*
X135650958Y60832458D01*
X135596097Y60804982D01*
X135588539Y60803337D01*
X135562168Y60800500D01*
X124457419Y60800500D01*
X124433230Y60802883D01*
X124409730Y60807557D01*
X124386473Y60814613D01*
X124262676Y60865891D01*
X124262653Y60865899D01*
X124262646Y60865901D01*
X124088698Y60900500D01*
X124088694Y60900500D01*
X124088691Y60900500D01*
X123911309Y60900500D01*
X123911306Y60900500D01*
X123911301Y60900500D01*
X123737352Y60865900D01*
X123737345Y60865899D01*
X123737322Y60865891D01*
X123573472Y60798023D01*
X123573454Y60798015D01*
X123573439Y60798006D01*
X123425962Y60699464D01*
X123425961Y60699463D01*
X123425955Y60699458D01*
X123300542Y60574045D01*
X123300537Y60574039D01*
X123300536Y60574038D01*
X123201994Y60426561D01*
X123201985Y60426546D01*
X123201977Y60426528D01*
X123134109Y60262678D01*
X123134101Y60262655D01*
X123134099Y60262648D01*
X123099500Y60088701D01*
X123099500Y59911302D01*
X123134102Y59737343D01*
X123134620Y59735833D01*
X123135786Y59733278D01*
X123137176Y59729922D01*
X123145904Y59695722D01*
X123147387Y59681923D01*
X123134979Y59613164D01*
X123087382Y59562038D01*
X123082878Y59559365D01*
X123019593Y59542000D01*
X123004401Y59542000D01*
X122830452Y59507400D01*
X122830445Y59507399D01*
X122830422Y59507391D01*
X122666572Y59439523D01*
X122666554Y59439515D01*
X122666539Y59439506D01*
X122519062Y59340964D01*
X122519061Y59340963D01*
X122519055Y59340958D01*
X122393642Y59215545D01*
X122393637Y59215539D01*
X122393636Y59215538D01*
X122295094Y59068061D01*
X122295085Y59068046D01*
X122295077Y59068028D01*
X122227209Y58904178D01*
X122227201Y58904155D01*
X122227199Y58904148D01*
X122192600Y58730201D01*
X122192600Y58730196D01*
X122192600Y58552805D01*
X122192600Y58552803D01*
X122192599Y58552803D01*
X122227200Y58378860D01*
X122227207Y58378829D01*
X122278487Y58255027D01*
X122285543Y58231770D01*
X122290217Y58208270D01*
X122292600Y58184081D01*
X122292600Y52429500D01*
X122272915Y52362461D01*
X122220111Y52316706D01*
X122168600Y52305500D01*
X90124010Y52305500D01*
X90124000Y52305500D01*
X90123991Y52305500D01*
X90123990Y52305499D01*
X90059064Y52298519D01*
X90059052Y52298517D01*
X90007546Y52287312D01*
X89969345Y52276356D01*
X89969341Y52276354D01*
X89872431Y52219677D01*
X89872428Y52219675D01*
X89819623Y52173919D01*
X89819612Y52173909D01*
X89777451Y52129193D01*
X89777445Y52129184D01*
X89726560Y52029110D01*
X89706877Y51962079D01*
X89706876Y51962072D01*
X89694500Y51876000D01*
X89694500Y16124000D01*
X89694501Y16123991D01*
X89701481Y16059065D01*
X89701483Y16059053D01*
X89712688Y16007547D01*
X89723644Y15969346D01*
X89723646Y15969342D01*
X89780323Y15872432D01*
X89780325Y15872429D01*
X89826081Y15819624D01*
X89826091Y15819613D01*
X89870807Y15777452D01*
X89870809Y15777451D01*
X89870813Y15777447D01*
X89970889Y15726561D01*
X90037928Y15706876D01*
X90124000Y15694500D01*
X92953060Y15694500D01*
X93020099Y15674815D01*
X93065854Y15622011D01*
X93075798Y15552853D01*
X93046773Y15489297D01*
X93040741Y15482819D01*
X92307348Y14749427D01*
X92279097Y14728278D01*
X92256009Y14715670D01*
X92196579Y14700500D01*
X92095509Y14700500D01*
X91908886Y14670942D01*
X91908884Y14670942D01*
X91908881Y14670941D01*
X91729163Y14612546D01*
X91652481Y14573474D01*
X91560807Y14526764D01*
X91560794Y14526756D01*
X91482660Y14469989D01*
X91482661Y14469988D01*
X91419798Y14424315D01*
X91412417Y14420182D01*
X91269819Y14277584D01*
X91265692Y14270213D01*
X91262620Y14265984D01*
X91262614Y14265976D01*
X91163244Y14129206D01*
X91163240Y14129200D01*
X91163238Y14129198D01*
X91163236Y14129193D01*
X91077452Y13960835D01*
X91043440Y13856154D01*
X91005017Y13799317D01*
X91003978Y13798450D01*
X90997605Y13789131D01*
X90933242Y13761942D01*
X90864398Y13773866D01*
X90835271Y13793788D01*
X90832982Y13795889D01*
X90798912Y13848912D01*
X90762545Y13960837D01*
X90762543Y13960840D01*
X90762543Y13960842D01*
X90691892Y14099501D01*
X90691892Y14099502D01*
X90676761Y14129197D01*
X90676759Y14129200D01*
X90565690Y14282073D01*
X90432073Y14415690D01*
X90279199Y14526760D01*
X90245652Y14543853D01*
X90110836Y14612546D01*
X89931118Y14670941D01*
X89931112Y14670942D01*
X89744491Y14700500D01*
X89744486Y14700500D01*
X89744481Y14700500D01*
X89555519Y14700500D01*
X89555514Y14700500D01*
X89555509Y14700500D01*
X89368886Y14670942D01*
X89368884Y14670942D01*
X89368881Y14670941D01*
X89189163Y14612546D01*
X89112481Y14573474D01*
X89020807Y14526764D01*
X89020794Y14526756D01*
X88942660Y14469989D01*
X88942661Y14469988D01*
X88879798Y14424315D01*
X88872417Y14420182D01*
X88729819Y14277584D01*
X88725692Y14270213D01*
X88722620Y14265984D01*
X88722614Y14265976D01*
X88623244Y14129206D01*
X88623240Y14129200D01*
X88623238Y14129198D01*
X88623236Y14129193D01*
X88537452Y13960835D01*
X88503440Y13856154D01*
X88465017Y13799317D01*
X88463978Y13798450D01*
X88457605Y13789131D01*
X88393242Y13761942D01*
X88324398Y13773866D01*
X88295271Y13793788D01*
X88292982Y13795889D01*
X88258912Y13848912D01*
X88222545Y13960837D01*
X88222543Y13960840D01*
X88222543Y13960842D01*
X88151892Y14099501D01*
X88151892Y14099502D01*
X88136761Y14129197D01*
X88136759Y14129200D01*
X88025690Y14282073D01*
X87892073Y14415690D01*
X87739199Y14526760D01*
X87705652Y14543853D01*
X87570836Y14612546D01*
X87391118Y14670941D01*
X87391112Y14670942D01*
X87204491Y14700500D01*
X87204486Y14700500D01*
X87204481Y14700500D01*
X87015519Y14700500D01*
X87015514Y14700500D01*
X87015509Y14700500D01*
X86828886Y14670942D01*
X86828884Y14670942D01*
X86828881Y14670941D01*
X86649163Y14612546D01*
X86572481Y14573474D01*
X86480807Y14526764D01*
X86480794Y14526756D01*
X86402660Y14469989D01*
X86402661Y14469988D01*
X86339798Y14424315D01*
X86332417Y14420182D01*
X86189819Y14277584D01*
X86185692Y14270213D01*
X86182620Y14265984D01*
X86182614Y14265976D01*
X86083244Y14129206D01*
X86083240Y14129200D01*
X86083238Y14129198D01*
X86083236Y14129193D01*
X86064106Y14091648D01*
X85997454Y13960837D01*
X85939059Y13781119D01*
X85939058Y13781116D01*
X85939058Y13781114D01*
X85909500Y13594493D01*
X85909500Y13405509D01*
X85937908Y13226149D01*
X85939059Y13218882D01*
X85997454Y13039164D01*
X86079463Y12878214D01*
X86079461Y12878214D01*
X86079466Y12878208D01*
X86083240Y12870801D01*
X86194310Y12717927D01*
X86327927Y12584310D01*
X86480801Y12473240D01*
X86600910Y12412042D01*
X86629758Y12391705D01*
X86642167Y12379985D01*
X86676720Y12322223D01*
X86678671Y12315011D01*
X86679873Y12310567D01*
X86680196Y12309376D01*
X86684500Y12276990D01*
X86684500Y12184367D01*
X86679476Y12149428D01*
X86674666Y12133049D01*
X86638879Y12076034D01*
X86629007Y12067103D01*
X86602113Y12048572D01*
X86480798Y11986759D01*
X86480795Y11986757D01*
X86393579Y11923390D01*
X86393578Y11923390D01*
X86339794Y11884314D01*
X86332419Y11880184D01*
X86189816Y11737581D01*
X86185686Y11730206D01*
X86146610Y11676422D01*
X86146610Y11676421D01*
X86083240Y11589201D01*
X86046852Y11517786D01*
X85997454Y11420837D01*
X85939059Y11241119D01*
X85939058Y11241116D01*
X85939058Y11241114D01*
X85909500Y11054493D01*
X85909500Y10865509D01*
X85937908Y10686149D01*
X85939059Y10678882D01*
X85997454Y10499164D01*
X86055366Y10385507D01*
X86083239Y10330802D01*
X86094641Y10315109D01*
X86111109Y10283898D01*
X86115461Y10271702D01*
X86119452Y10201947D01*
X86085097Y10141107D01*
X86028484Y10109665D01*
X86019488Y10107437D01*
X85989678Y10103800D01*
X65013028Y10103800D01*
X64978090Y10108824D01*
X64965664Y10112473D01*
X64906887Y10150249D01*
X64877864Y10213806D01*
X64885706Y10278085D01*
X64889194Y10286678D01*
X64903772Y10312925D01*
X64905359Y10315109D01*
X64916760Y10330801D01*
X65002547Y10499168D01*
X65060940Y10678882D01*
X65077399Y10782801D01*
X65090500Y10865514D01*
X65090500Y11054487D01*
X65060940Y11241119D01*
X65004562Y11414629D01*
X65004047Y11416214D01*
X65002985Y11419980D01*
X65001988Y11421988D01*
X65000202Y11425675D01*
X64999258Y11427288D01*
X64916762Y11589194D01*
X64916759Y11589200D01*
X64912828Y11594610D01*
X64805690Y11742073D01*
X64739426Y11808337D01*
X64718274Y11836593D01*
X64705667Y11859682D01*
X64690500Y11919107D01*
X64690500Y12157672D01*
X64695523Y12192608D01*
X64699927Y12207606D01*
X64737672Y12266357D01*
X64739041Y12267544D01*
X64793920Y12295024D01*
X64801479Y12296668D01*
X64827832Y12299501D01*
X64834850Y12299501D01*
X64834856Y12299501D01*
X64834864Y12299501D01*
X64834879Y12299503D01*
X64834882Y12299503D01*
X64834888Y12299504D01*
X64835019Y12299513D01*
X64835736Y12299603D01*
X64859987Y12302414D01*
X64859987Y12302415D01*
X64859990Y12302415D01*
X64859991Y12302415D01*
X64859991Y12302416D01*
X64860102Y12302428D01*
X64861862Y12303242D01*
X64962765Y12347794D01*
X65042206Y12427235D01*
X65087585Y12530009D01*
X65090500Y12555135D01*
X65090499Y14444864D01*
X65090497Y14444883D01*
X65087586Y14469988D01*
X65087585Y14469990D01*
X65087585Y14469991D01*
X65042206Y14572765D01*
X64962765Y14652206D01*
X64962764Y14652207D01*
X64945942Y14659635D01*
X64945940Y14659635D01*
X64859994Y14697585D01*
X64834869Y14700500D01*
X64834868Y14700500D01*
X64834865Y14700500D01*
X63890770Y14700500D01*
X63855834Y14705523D01*
X63830592Y14712935D01*
X63777847Y14744231D01*
X58390897Y20131183D01*
X58390891Y20131188D01*
X58390890Y20131189D01*
X58259791Y20218787D01*
X58259790Y20218788D01*
X58259785Y20218791D01*
X58259772Y20218798D01*
X58259765Y20218802D01*
X58114102Y20279136D01*
X58114071Y20279143D01*
X57959447Y20309900D01*
X57959445Y20309900D01*
X57959442Y20309900D01*
X52429500Y20309900D01*
X52362461Y20329585D01*
X52316706Y20382389D01*
X52305500Y20433900D01*
X52305500Y48875990D01*
X52305500Y48876000D01*
X52298518Y48940941D01*
X52287312Y48992452D01*
X52276354Y49030658D01*
X52219675Y49127571D01*
X52173920Y49180375D01*
X52173918Y49180377D01*
X52173908Y49180388D01*
X52129192Y49222549D01*
X52129189Y49222551D01*
X52129187Y49222553D01*
X52029111Y49273439D01*
X52029110Y49273440D01*
X52029109Y49273440D01*
X51962078Y49293123D01*
X51962072Y49293124D01*
X51876000Y49305500D01*
X51875997Y49305500D01*
X29124010Y49305500D01*
X29124000Y49305500D01*
X29123991Y49305500D01*
X29123990Y49305499D01*
X29059064Y49298519D01*
X29059052Y49298517D01*
X29007546Y49287312D01*
X28969345Y49276356D01*
X28969341Y49276354D01*
X28872431Y49219677D01*
X28872428Y49219675D01*
X28819623Y49173919D01*
X28819612Y49173909D01*
X28777451Y49129193D01*
X28777445Y49129184D01*
X28726560Y49029110D01*
X28706877Y48962079D01*
X28706876Y48962072D01*
X28694502Y48876010D01*
X28694500Y48875998D01*
X28694500Y25633240D01*
X28674815Y25566201D01*
X28622011Y25520446D01*
X28552853Y25510502D01*
X28489297Y25539527D01*
X28482819Y25545559D01*
X11503026Y42525352D01*
X11481874Y42553608D01*
X11469267Y42576697D01*
X11454100Y42636122D01*
X11454100Y54712832D01*
X11459122Y54747765D01*
X11466534Y54773010D01*
X11497828Y54825752D01*
X12235929Y55563854D01*
X12264177Y55585000D01*
X12283729Y55595676D01*
X12339613Y55610792D01*
X12344089Y55610920D01*
X12366998Y55609444D01*
X12429778Y55599500D01*
X12429780Y55599500D01*
X12650221Y55599500D01*
X12650222Y55599500D01*
X12867951Y55633985D01*
X13077606Y55702105D01*
X13274022Y55802185D01*
X13452365Y55931758D01*
X13608242Y56087635D01*
X13737815Y56265978D01*
X13837895Y56462394D01*
X13906015Y56672049D01*
X13940500Y56889778D01*
X13940500Y57110222D01*
X13906015Y57327951D01*
X13837895Y57537606D01*
X13837895Y57537607D01*
X13803237Y57605625D01*
X13737815Y57734022D01*
X13737812Y57734026D01*
X13721261Y57756806D01*
X13721259Y57756810D01*
X13608261Y57912340D01*
X13608243Y57912364D01*
X13608235Y57912373D01*
X13452369Y58068239D01*
X13452364Y58068243D01*
X13452363Y58068244D01*
X13452358Y58068248D01*
X13438940Y58077997D01*
X13284630Y58190109D01*
X13284618Y58190117D01*
X13274025Y58197813D01*
X13274024Y58197814D01*
X13274022Y58197815D01*
X13267909Y58200930D01*
X13267898Y58200937D01*
X13211098Y58229877D01*
X13211096Y58229878D01*
X13077606Y58297896D01*
X13077602Y58297898D01*
X13077579Y58297906D01*
X12867954Y58366015D01*
X12867955Y58366015D01*
X12759086Y58383258D01*
X12650227Y58400500D01*
X12650222Y58400500D01*
X12429778Y58400500D01*
X12429774Y58400500D01*
X12371716Y58391304D01*
X12357201Y58389005D01*
X12212043Y58366015D01*
X12002419Y58297906D01*
X12002396Y58297898D01*
X12002392Y58297896D01*
X11805972Y58197813D01*
X11627658Y58068261D01*
X11627629Y58068239D01*
X11471761Y57912371D01*
X11471739Y57912342D01*
X11342187Y57734028D01*
X11242104Y57537608D01*
X11242102Y57537604D01*
X11242094Y57537581D01*
X11173985Y57327957D01*
X11139500Y57110228D01*
X11139500Y56889773D01*
X11139499Y56889773D01*
X11148456Y56833224D01*
X11148961Y56797938D01*
X11146107Y56775848D01*
X11125484Y56721741D01*
X11122964Y56718056D01*
X11108290Y56700371D01*
X10339680Y55931758D01*
X10143311Y55735389D01*
X10110027Y55702105D01*
X10110026Y55702104D01*
X10110025Y55702105D01*
X10031806Y55623886D01*
X9944213Y55492793D01*
X9944203Y55492776D01*
X9944198Y55492767D01*
X9883864Y55347104D01*
X9883857Y55347073D01*
X9853100Y55192450D01*
X9853100Y55192447D01*
X9853100Y42163854D01*
X9853100Y42163852D01*
X9853099Y42163852D01*
X500000Y42163852D01*
X500000Y58144869D01*
X6059500Y58144869D01*
X6059500Y55855144D01*
X6059502Y55855118D01*
X6059503Y55855112D01*
X6062414Y55830007D01*
X6062546Y55829562D01*
X6063609Y55827304D01*
X6107793Y55727236D01*
X6107794Y55727235D01*
X6187235Y55647794D01*
X6290009Y55602415D01*
X6315135Y55599500D01*
X8604864Y55599501D01*
X8604879Y55599503D01*
X8604882Y55599503D01*
X8604888Y55599504D01*
X8605019Y55599513D01*
X8605736Y55599603D01*
X8629987Y55602414D01*
X8629987Y55602415D01*
X8629990Y55602415D01*
X8629991Y55602415D01*
X8629991Y55602416D01*
X8630102Y55602428D01*
X8631862Y55603242D01*
X8732765Y55647794D01*
X8812206Y55727235D01*
X8857585Y55830009D01*
X8860500Y55855135D01*
X8860499Y58144864D01*
X8860497Y58144883D01*
X8857586Y58169988D01*
X8857585Y58169990D01*
X8857585Y58169991D01*
X8812206Y58272765D01*
X8732765Y58352206D01*
X8732763Y58352207D01*
X8675865Y58377330D01*
X8629993Y58397585D01*
X8629994Y58397585D01*
X8604868Y58400500D01*
X8604865Y58400500D01*
X6315143Y58400500D01*
X6315127Y58400499D01*
X6315113Y58400498D01*
X6297255Y58398427D01*
X6290012Y58397587D01*
X6290011Y58397587D01*
X6290005Y58397586D01*
X6289559Y58397453D01*
X6287303Y58396391D01*
X6187236Y58352208D01*
X6107793Y58272766D01*
X6062414Y58169995D01*
X6062406Y58169955D01*
X6062405Y58169914D01*
X6059500Y58144869D01*
X500000Y58144869D01*
X500000Y68773201D01*
X52785800Y68773201D01*
X52785800Y68595801D01*
X52820399Y68421854D01*
X52820401Y68421847D01*
X52820409Y68421824D01*
X52888277Y68257974D01*
X52888285Y68257956D01*
X52888294Y68257941D01*
X52986836Y68110464D01*
X52986837Y68110463D01*
X52986842Y68110457D01*
X53112255Y67985044D01*
X53112261Y67985039D01*
X53112265Y67985036D01*
X53259746Y67886491D01*
X53259759Y67886484D01*
X53295879Y67871523D01*
X53381444Y67836081D01*
X53381482Y67836066D01*
X53382663Y67835577D01*
X53423634Y67818606D01*
X53423636Y67818606D01*
X53423641Y67818604D01*
X53589980Y67785518D01*
X53592703Y67784796D01*
X53597606Y67784000D01*
X53774993Y67784000D01*
X53779114Y67784000D01*
X53786967Y67786383D01*
X53832982Y67795536D01*
X53832983Y67795536D01*
X53948953Y67818603D01*
X53948953Y67818604D01*
X53948958Y67818604D01*
X53948961Y67818606D01*
X53948966Y67818606D01*
X53952154Y67819927D01*
X53960135Y67823227D01*
X53960176Y67823249D01*
X54112840Y67886484D01*
X54112840Y67886485D01*
X54112847Y67886487D01*
X54260335Y67985036D01*
X54385764Y68110465D01*
X54484313Y68257953D01*
X54552194Y68421834D01*
X54586800Y68595809D01*
X54586800Y68773191D01*
X54586800Y68773194D01*
X54568356Y68865913D01*
X54566467Y68901147D01*
X54568338Y68922056D01*
X54588134Y68978972D01*
X54591821Y68984599D01*
X54607839Y69004294D01*
X57281647Y71678101D01*
X117446100Y71678101D01*
X117446100Y71500701D01*
X117480699Y71326754D01*
X117480701Y71326747D01*
X117480709Y71326724D01*
X117548577Y71162874D01*
X117548585Y71162856D01*
X117548594Y71162841D01*
X117647136Y71015364D01*
X117647137Y71015363D01*
X117647142Y71015357D01*
X117772555Y70889944D01*
X117772561Y70889939D01*
X117772565Y70889936D01*
X117920046Y70791391D01*
X117920059Y70791384D01*
X117956179Y70776423D01*
X118041744Y70740981D01*
X118041782Y70740966D01*
X118042963Y70740477D01*
X118083934Y70723506D01*
X118083936Y70723506D01*
X118083941Y70723504D01*
X118250280Y70690418D01*
X118253003Y70689696D01*
X118257906Y70688900D01*
X118435293Y70688900D01*
X118439414Y70688900D01*
X118447267Y70691283D01*
X118493282Y70700436D01*
X118493283Y70700436D01*
X118609253Y70723503D01*
X118609253Y70723504D01*
X118609258Y70723504D01*
X118609261Y70723506D01*
X118609266Y70723506D01*
X118612454Y70724827D01*
X118620435Y70728127D01*
X118620476Y70728149D01*
X118773140Y70791384D01*
X118773140Y70791385D01*
X118773147Y70791387D01*
X118920635Y70889936D01*
X119046064Y71015365D01*
X119144613Y71162853D01*
X119212494Y71326734D01*
X119247100Y71500709D01*
X119247100Y71678091D01*
X119247100Y71678094D01*
X119228656Y71770813D01*
X119226767Y71806047D01*
X119228638Y71826956D01*
X119248434Y71883872D01*
X119252121Y71889499D01*
X119268139Y71909194D01*
X119619823Y72260877D01*
X119648073Y72282025D01*
X119671165Y72294633D01*
X119730590Y72309800D01*
X120106878Y72309800D01*
X120141810Y72304778D01*
X120148572Y72302793D01*
X120161944Y72298866D01*
X120213904Y72268351D01*
X120218696Y72263644D01*
X120234905Y72244073D01*
X120290236Y72161264D01*
X120290237Y72161263D01*
X120290242Y72161257D01*
X120415655Y72035844D01*
X120415661Y72035839D01*
X120415665Y72035836D01*
X120563146Y71937291D01*
X120563159Y71937284D01*
X120599279Y71922323D01*
X120684844Y71886881D01*
X120684882Y71886866D01*
X120686063Y71886377D01*
X120727034Y71869406D01*
X120727036Y71869406D01*
X120727041Y71869404D01*
X120893380Y71836318D01*
X120896103Y71835596D01*
X120901006Y71834800D01*
X121078393Y71834800D01*
X121082514Y71834800D01*
X121090367Y71837183D01*
X121136382Y71846336D01*
X121136383Y71846336D01*
X121252353Y71869403D01*
X121252353Y71869404D01*
X121252358Y71869404D01*
X121252361Y71869406D01*
X121252366Y71869406D01*
X121255554Y71870727D01*
X121263535Y71874027D01*
X121263576Y71874049D01*
X121416240Y71937284D01*
X121416240Y71937285D01*
X121416247Y71937287D01*
X121563735Y72035836D01*
X121689164Y72161265D01*
X121787713Y72308753D01*
X121855594Y72472634D01*
X121859029Y72489900D01*
X121890199Y72646605D01*
X121890200Y72646607D01*
X121890200Y72823994D01*
X121890199Y72823996D01*
X121855596Y72997959D01*
X121855593Y72997968D01*
X121787716Y73161841D01*
X121787709Y73161854D01*
X121689164Y73309335D01*
X121689162Y73309338D01*
X121689161Y73309339D01*
X121689156Y73309345D01*
X121563743Y73434758D01*
X121563737Y73434763D01*
X121563736Y73434764D01*
X121416259Y73533306D01*
X121416258Y73533307D01*
X121416253Y73533310D01*
X121416240Y73533317D01*
X121416226Y73533323D01*
X121252376Y73601191D01*
X121252353Y73601199D01*
X121252346Y73601201D01*
X121078398Y73635800D01*
X121078394Y73635800D01*
X121078391Y73635800D01*
X120901009Y73635800D01*
X120901006Y73635800D01*
X120901001Y73635800D01*
X120727052Y73601200D01*
X120727045Y73601199D01*
X120727022Y73601191D01*
X120563172Y73533323D01*
X120563154Y73533315D01*
X120563139Y73533306D01*
X120415662Y73434764D01*
X120415661Y73434763D01*
X120415655Y73434758D01*
X120290239Y73309342D01*
X120290236Y73309337D01*
X120237714Y73230732D01*
X120214127Y73204474D01*
X120198030Y73191022D01*
X120143808Y73164778D01*
X120137228Y73163407D01*
X120111935Y73160800D01*
X119436481Y73160800D01*
X119328260Y73131803D01*
X119231237Y73075786D01*
X119231233Y73075783D01*
X119152012Y72996561D01*
X118669973Y72514524D01*
X118641722Y72493374D01*
X118635360Y72489900D01*
X118623305Y72483318D01*
X118564984Y72468154D01*
X118558264Y72468094D01*
X118532966Y72470472D01*
X118502607Y72476511D01*
X118435297Y72489900D01*
X118435295Y72489900D01*
X118435291Y72489900D01*
X118257909Y72489900D01*
X118257906Y72489900D01*
X118257901Y72489900D01*
X118083952Y72455300D01*
X118083945Y72455299D01*
X118083922Y72455291D01*
X117920072Y72387423D01*
X117920054Y72387415D01*
X117920039Y72387406D01*
X117772562Y72288864D01*
X117772561Y72288863D01*
X117772555Y72288858D01*
X117647142Y72163445D01*
X117647137Y72163439D01*
X117647136Y72163438D01*
X117548594Y72015961D01*
X117548585Y72015946D01*
X117548577Y72015928D01*
X117480709Y71852078D01*
X117480701Y71852055D01*
X117480699Y71852048D01*
X117446100Y71678101D01*
X57281647Y71678101D01*
X60340485Y74736937D01*
X60396503Y74833963D01*
X60425500Y74942181D01*
X60425500Y75054218D01*
X60425500Y77619380D01*
X60430522Y77654313D01*
X60431105Y77656298D01*
X60436434Y77674448D01*
X60466949Y77726405D01*
X60471657Y77731198D01*
X60491224Y77747405D01*
X60574035Y77802736D01*
X60699464Y77928165D01*
X60798013Y78075653D01*
X60824423Y78139412D01*
X60865890Y78239524D01*
X60865890Y78239526D01*
X60865894Y78239534D01*
X60866955Y78244864D01*
X60900499Y78413505D01*
X60900500Y78413507D01*
X60900500Y78590894D01*
X60900499Y78590896D01*
X60865896Y78764859D01*
X60865893Y78764868D01*
X60798016Y78928741D01*
X60798009Y78928754D01*
X60699464Y79076235D01*
X60699461Y79076239D01*
X60699456Y79076245D01*
X60574043Y79201658D01*
X60574037Y79201663D01*
X60574036Y79201664D01*
X60426559Y79300206D01*
X60426558Y79300207D01*
X60426553Y79300210D01*
X60426540Y79300217D01*
X60426526Y79300223D01*
X60262676Y79368091D01*
X60262653Y79368099D01*
X60262646Y79368101D01*
X60088698Y79402700D01*
X60088694Y79402700D01*
X60088691Y79402700D01*
X59911309Y79402700D01*
X59911306Y79402700D01*
X59911301Y79402700D01*
X59737352Y79368100D01*
X59737345Y79368099D01*
X59737322Y79368091D01*
X59573472Y79300223D01*
X59573454Y79300215D01*
X59573439Y79300206D01*
X59425962Y79201664D01*
X59425961Y79201663D01*
X59425955Y79201658D01*
X59300542Y79076245D01*
X59300537Y79076239D01*
X59300536Y79076238D01*
X59201994Y78928761D01*
X59201985Y78928746D01*
X59201977Y78928728D01*
X59134109Y78764878D01*
X59134101Y78764855D01*
X59134099Y78764848D01*
X59099500Y78590901D01*
X59099500Y78413501D01*
X59134099Y78239554D01*
X59134101Y78239547D01*
X59134109Y78239524D01*
X59201977Y78075674D01*
X59201985Y78075656D01*
X59201994Y78075641D01*
X59300536Y77928164D01*
X59300537Y77928163D01*
X59300542Y77928157D01*
X59425957Y77802742D01*
X59425960Y77802740D01*
X59425962Y77802738D01*
X59425965Y77802736D01*
X59468374Y77774399D01*
X59504566Y77750216D01*
X59530821Y77726633D01*
X59544276Y77710534D01*
X59570525Y77656298D01*
X59571895Y77649720D01*
X59574500Y77624437D01*
X59574500Y75243641D01*
X59569476Y75208704D01*
X59562064Y75183463D01*
X59530769Y75130719D01*
X54009673Y69609624D01*
X53981422Y69588474D01*
X53975060Y69585000D01*
X53963005Y69578418D01*
X53904684Y69563254D01*
X53897964Y69563194D01*
X53872666Y69565572D01*
X53842307Y69571611D01*
X53774997Y69585000D01*
X53774995Y69585000D01*
X53774991Y69585000D01*
X53597609Y69585000D01*
X53597606Y69585000D01*
X53597601Y69585000D01*
X53423652Y69550400D01*
X53423645Y69550399D01*
X53423622Y69550391D01*
X53259772Y69482523D01*
X53259754Y69482515D01*
X53259739Y69482506D01*
X53112262Y69383964D01*
X53112261Y69383963D01*
X53112255Y69383958D01*
X52986842Y69258545D01*
X52986837Y69258539D01*
X52986836Y69258538D01*
X52888294Y69111061D01*
X52888285Y69111046D01*
X52888277Y69111028D01*
X52820409Y68947178D01*
X52820401Y68947155D01*
X52820399Y68947148D01*
X52785800Y68773201D01*
X500000Y68773201D01*
X500000Y78244869D01*
X5349500Y78244869D01*
X5349500Y76355144D01*
X5349502Y76355118D01*
X5349503Y76355110D01*
X5349503Y76355106D01*
X5352414Y76330007D01*
X5352546Y76329562D01*
X5353609Y76327304D01*
X5397791Y76227240D01*
X5397793Y76227236D01*
X5397794Y76227235D01*
X5477235Y76147794D01*
X5580009Y76102415D01*
X5605135Y76099500D01*
X7494864Y76099501D01*
X7494879Y76099503D01*
X7494882Y76099503D01*
X7494888Y76099504D01*
X7495019Y76099513D01*
X7495736Y76099603D01*
X7519987Y76102414D01*
X7519987Y76102415D01*
X7519990Y76102415D01*
X7519991Y76102415D01*
X7519991Y76102416D01*
X7520102Y76102428D01*
X7521862Y76103242D01*
X7622765Y76147794D01*
X7702206Y76227235D01*
X7747585Y76330009D01*
X7750500Y76355135D01*
X7750499Y77128987D01*
X7757648Y77170480D01*
X7759600Y77175977D01*
X7763860Y77174465D01*
X7771988Y77202016D01*
X7824850Y77247704D01*
X7894021Y77257561D01*
X7957540Y77228456D01*
X7980619Y77201753D01*
X7980851Y77201391D01*
X7998924Y77153881D01*
X8016594Y77042316D01*
X8016596Y77042305D01*
X8016600Y77042291D01*
X8070128Y76877551D01*
X8148768Y76723212D01*
X8250586Y76583072D01*
X8373072Y76460586D01*
X8513212Y76358768D01*
X8667555Y76280127D01*
X8832299Y76226598D01*
X9003389Y76199500D01*
X9003390Y76199500D01*
X9176610Y76199500D01*
X9176611Y76199500D01*
X9347701Y76226598D01*
X9512445Y76280127D01*
X9666788Y76358768D01*
X9806928Y76460586D01*
X9929414Y76583072D01*
X10031232Y76723212D01*
X10109873Y76877555D01*
X10163402Y77042299D01*
X10190500Y77213389D01*
X10190500Y77386611D01*
X10529500Y77386611D01*
X10529500Y77213389D01*
X10556598Y77042299D01*
X10610127Y76877555D01*
X10688768Y76723212D01*
X10790586Y76583072D01*
X10913072Y76460586D01*
X11053212Y76358768D01*
X11207555Y76280127D01*
X11372299Y76226598D01*
X11543389Y76199500D01*
X11543390Y76199500D01*
X11716610Y76199500D01*
X11716611Y76199500D01*
X11887701Y76226598D01*
X12052445Y76280127D01*
X12206788Y76358768D01*
X12346928Y76460586D01*
X12469414Y76583072D01*
X12571232Y76723212D01*
X12649873Y76877555D01*
X12703402Y77042299D01*
X12730500Y77213389D01*
X12730500Y77386611D01*
X13069500Y77386611D01*
X13069500Y77213389D01*
X13096598Y77042299D01*
X13150127Y76877555D01*
X13228768Y76723212D01*
X13330586Y76583072D01*
X13453072Y76460586D01*
X13593212Y76358768D01*
X13747555Y76280127D01*
X13912299Y76226598D01*
X14083389Y76199500D01*
X14083390Y76199500D01*
X14256610Y76199500D01*
X14256611Y76199500D01*
X14427701Y76226598D01*
X14592445Y76280127D01*
X14746788Y76358768D01*
X14886928Y76460586D01*
X15009414Y76583072D01*
X15111232Y76723212D01*
X15189873Y76877555D01*
X15243402Y77042299D01*
X15270500Y77213389D01*
X15270500Y77386611D01*
X15243402Y77557701D01*
X15189873Y77722445D01*
X15111232Y77876788D01*
X15009414Y78016928D01*
X14886928Y78139414D01*
X14746788Y78241232D01*
X14739679Y78244854D01*
X14592449Y78319872D01*
X14441215Y78369012D01*
X14441203Y78369015D01*
X14427701Y78373402D01*
X14427699Y78373403D01*
X14427698Y78373403D01*
X14413312Y78375682D01*
X14413306Y78375683D01*
X14323188Y78389956D01*
X14296271Y78394219D01*
X14280407Y78396732D01*
X14256614Y78400500D01*
X14256611Y78400500D01*
X14083389Y78400500D01*
X14083388Y78400500D01*
X14043726Y78394219D01*
X14043725Y78394220D01*
X13912304Y78373404D01*
X13747549Y78319871D01*
X13593210Y78241232D01*
X13513256Y78183141D01*
X13513255Y78183141D01*
X13464941Y78148039D01*
X13457564Y78143908D01*
X13326092Y78012436D01*
X13321961Y78005059D01*
X13286859Y77956745D01*
X13286859Y77956744D01*
X13228768Y77876790D01*
X13150129Y77722453D01*
X13096598Y77557703D01*
X13096596Y77557696D01*
X13082022Y77465673D01*
X13080045Y77453188D01*
X13069500Y77386611D01*
X12730500Y77386611D01*
X12703402Y77557701D01*
X12649873Y77722445D01*
X12571232Y77876788D01*
X12469414Y78016928D01*
X12346928Y78139414D01*
X12206788Y78241232D01*
X12199679Y78244854D01*
X12052449Y78319872D01*
X11901215Y78369012D01*
X11901203Y78369015D01*
X11887701Y78373402D01*
X11887699Y78373403D01*
X11887698Y78373403D01*
X11873312Y78375682D01*
X11873306Y78375683D01*
X11783188Y78389956D01*
X11756271Y78394219D01*
X11740407Y78396732D01*
X11716614Y78400500D01*
X11716611Y78400500D01*
X11543389Y78400500D01*
X11543388Y78400500D01*
X11503726Y78394219D01*
X11503725Y78394220D01*
X11372304Y78373404D01*
X11207549Y78319871D01*
X11053210Y78241232D01*
X10973256Y78183141D01*
X10973255Y78183141D01*
X10924941Y78148039D01*
X10917564Y78143908D01*
X10786092Y78012436D01*
X10781961Y78005059D01*
X10746859Y77956745D01*
X10746859Y77956744D01*
X10688768Y77876790D01*
X10610129Y77722453D01*
X10556598Y77557703D01*
X10556596Y77557696D01*
X10542022Y77465673D01*
X10540045Y77453188D01*
X10529500Y77386611D01*
X10190500Y77386611D01*
X10163402Y77557701D01*
X10109873Y77722445D01*
X10031232Y77876788D01*
X9929414Y78016928D01*
X9806928Y78139414D01*
X9666788Y78241232D01*
X9659679Y78244854D01*
X9512449Y78319872D01*
X9361215Y78369012D01*
X9361203Y78369015D01*
X9347701Y78373402D01*
X9347699Y78373403D01*
X9347698Y78373403D01*
X9333312Y78375682D01*
X9333306Y78375683D01*
X9243188Y78389956D01*
X9216271Y78394219D01*
X9200407Y78396732D01*
X9176614Y78400500D01*
X9176611Y78400500D01*
X9003389Y78400500D01*
X9003388Y78400500D01*
X8963726Y78394219D01*
X8963725Y78394220D01*
X8832304Y78373404D01*
X8667549Y78319871D01*
X8513210Y78241232D01*
X8433256Y78183141D01*
X8433255Y78183141D01*
X8384941Y78148039D01*
X8377564Y78143908D01*
X8246092Y78012436D01*
X8241961Y78005059D01*
X8206859Y77956745D01*
X8206859Y77956744D01*
X8148768Y77876790D01*
X8070129Y77722451D01*
X8016596Y77557695D01*
X7999761Y77451401D01*
X7986210Y77411536D01*
X7983421Y77406410D01*
X7979446Y77408573D01*
X7967085Y77382602D01*
X7907715Y77345764D01*
X7837854Y77346872D01*
X7779682Y77385573D01*
X7761074Y77415563D01*
X7760902Y77415956D01*
X7750499Y77465673D01*
X7750499Y78244858D01*
X7750499Y78244864D01*
X7750497Y78244883D01*
X7747586Y78269988D01*
X7747585Y78269990D01*
X7747585Y78269991D01*
X7702206Y78372765D01*
X7622765Y78452206D01*
X7622763Y78452207D01*
X7589879Y78466727D01*
X7519993Y78497585D01*
X7519994Y78497585D01*
X7494868Y78500500D01*
X7494865Y78500500D01*
X5605143Y78500500D01*
X5605127Y78500499D01*
X5605113Y78500498D01*
X5587255Y78498427D01*
X5580012Y78497587D01*
X5580011Y78497587D01*
X5580005Y78497586D01*
X5579559Y78497453D01*
X5577303Y78496391D01*
X5477236Y78452208D01*
X5397793Y78372766D01*
X5352414Y78269995D01*
X5352404Y78269946D01*
X5352403Y78269897D01*
X5349500Y78244869D01*
X500000Y78244869D01*
X500000Y82521290D01*
X10949500Y82521290D01*
X10949500Y82278712D01*
X10981160Y82038219D01*
X11043947Y81803896D01*
X11136772Y81579797D01*
X11136773Y81579793D01*
X11136780Y81579780D01*
X11258060Y81369717D01*
X11258062Y81369714D01*
X11258281Y81369385D01*
X11259284Y81368121D01*
X11405726Y81177272D01*
X11405730Y81177267D01*
X11405733Y81177264D01*
X11405739Y81177257D01*
X11405747Y81177249D01*
X11577242Y81005753D01*
X11577256Y81005740D01*
X11577262Y81005735D01*
X11769711Y80858064D01*
X11979788Y80736776D01*
X12203900Y80643946D01*
X12438211Y80581162D01*
X12618586Y80557416D01*
X12678710Y80549500D01*
X12678711Y80549500D01*
X12678712Y80549500D01*
X12921283Y80549500D01*
X12921289Y80549500D01*
X12969388Y80555833D01*
X13161789Y80581162D01*
X13396100Y80643946D01*
X13620212Y80736776D01*
X13830289Y80858064D01*
X14022738Y81005735D01*
X14194265Y81177262D01*
X14341936Y81369711D01*
X14463224Y81579788D01*
X14556054Y81803900D01*
X14618838Y82038211D01*
X14650500Y82278712D01*
X14650500Y82521288D01*
X14618838Y82761789D01*
X14556054Y82996100D01*
X14463224Y83220212D01*
X14341936Y83430289D01*
X14194265Y83622738D01*
X14194260Y83622744D01*
X14194259Y83622745D01*
X14194247Y83622758D01*
X14022751Y83794253D01*
X14022743Y83794261D01*
X14022736Y83794267D01*
X14022733Y83794270D01*
X14022728Y83794274D01*
X13831879Y83940716D01*
X13830615Y83941719D01*
X13830286Y83941938D01*
X13830283Y83941940D01*
X13620220Y84063220D01*
X13620207Y84063227D01*
X13620203Y84063228D01*
X13396104Y84156053D01*
X13161781Y84218840D01*
X12921290Y84250500D01*
X12921289Y84250500D01*
X12921288Y84250500D01*
X12678712Y84250500D01*
X12678711Y84250500D01*
X12678710Y84250500D01*
X12438217Y84218840D01*
X12203894Y84156053D01*
X11979790Y84063226D01*
X11979782Y84063222D01*
X11769706Y83941933D01*
X11769697Y83941927D01*
X11577270Y83794274D01*
X11577255Y83794260D01*
X11577247Y83794253D01*
X11405747Y83622753D01*
X11405740Y83622745D01*
X11405726Y83622730D01*
X11258073Y83430303D01*
X11258067Y83430294D01*
X11136778Y83220218D01*
X11136774Y83220210D01*
X11043947Y82996106D01*
X10981160Y82761783D01*
X10949500Y82521290D01*
X500000Y82521290D01*
X500000Y111121290D01*
X2149500Y111121290D01*
X2149500Y110878712D01*
X2181160Y110638219D01*
X2243947Y110403896D01*
X2336772Y110179797D01*
X2336773Y110179793D01*
X2336780Y110179780D01*
X2458060Y109969717D01*
X2458062Y109969714D01*
X2458281Y109969385D01*
X2459284Y109968121D01*
X2605726Y109777272D01*
X2605730Y109777267D01*
X2605733Y109777264D01*
X2605739Y109777257D01*
X2605747Y109777249D01*
X2777242Y109605753D01*
X2777256Y109605740D01*
X2777262Y109605735D01*
X2969711Y109458064D01*
X3179788Y109336776D01*
X3403900Y109243946D01*
X3638211Y109181162D01*
X3818586Y109157416D01*
X3878710Y109149500D01*
X3878711Y109149500D01*
X3878712Y109149500D01*
X4121283Y109149500D01*
X4121289Y109149500D01*
X4169388Y109155833D01*
X4361789Y109181162D01*
X4596100Y109243946D01*
X4820212Y109336776D01*
X5030289Y109458064D01*
X5222738Y109605735D01*
X5394265Y109777262D01*
X5541936Y109969711D01*
X5663224Y110179788D01*
X5756054Y110403900D01*
X5818838Y110638211D01*
X5850500Y110878712D01*
X5850500Y111121288D01*
X5850500Y111121290D01*
X21149500Y111121290D01*
X21149500Y110878712D01*
X21181160Y110638219D01*
X21243947Y110403896D01*
X21336772Y110179797D01*
X21336773Y110179793D01*
X21336780Y110179780D01*
X21458060Y109969717D01*
X21458062Y109969714D01*
X21458281Y109969385D01*
X21459284Y109968121D01*
X21605726Y109777272D01*
X21605730Y109777267D01*
X21605733Y109777264D01*
X21605739Y109777257D01*
X21605747Y109777249D01*
X21777242Y109605753D01*
X21777256Y109605740D01*
X21777262Y109605735D01*
X21969711Y109458064D01*
X22179788Y109336776D01*
X22403900Y109243946D01*
X22638211Y109181162D01*
X22818586Y109157416D01*
X22878710Y109149500D01*
X22878711Y109149500D01*
X22878712Y109149500D01*
X23121283Y109149500D01*
X23121289Y109149500D01*
X23169388Y109155833D01*
X23361789Y109181162D01*
X23596100Y109243946D01*
X23820212Y109336776D01*
X24030289Y109458064D01*
X24222738Y109605735D01*
X24394265Y109777262D01*
X24541936Y109969711D01*
X24663224Y110179788D01*
X24756054Y110403900D01*
X24818838Y110638211D01*
X24850500Y110878712D01*
X24850500Y111121288D01*
X24850500Y111121290D01*
X144149500Y111121290D01*
X144149500Y110878712D01*
X144181160Y110638219D01*
X144243947Y110403896D01*
X144336772Y110179797D01*
X144336773Y110179793D01*
X144336780Y110179780D01*
X144458060Y109969717D01*
X144458062Y109969714D01*
X144458281Y109969385D01*
X144459284Y109968121D01*
X144605726Y109777272D01*
X144605730Y109777267D01*
X144605733Y109777264D01*
X144605739Y109777257D01*
X144605747Y109777249D01*
X144777242Y109605753D01*
X144777256Y109605740D01*
X144777262Y109605735D01*
X144969711Y109458064D01*
X145179788Y109336776D01*
X145403900Y109243946D01*
X145638211Y109181162D01*
X145818586Y109157416D01*
X145878710Y109149500D01*
X145878711Y109149500D01*
X145878712Y109149500D01*
X146121283Y109149500D01*
X146121289Y109149500D01*
X146169388Y109155833D01*
X146361789Y109181162D01*
X146596100Y109243946D01*
X146820212Y109336776D01*
X147030289Y109458064D01*
X147222738Y109605735D01*
X147394265Y109777262D01*
X147541936Y109969711D01*
X147663224Y110179788D01*
X147756054Y110403900D01*
X147818838Y110638211D01*
X147850500Y110878712D01*
X147850500Y111121288D01*
X147818838Y111361789D01*
X147756054Y111596100D01*
X147663224Y111820212D01*
X147541936Y112030289D01*
X147394265Y112222738D01*
X147394260Y112222744D01*
X147394259Y112222745D01*
X147394247Y112222758D01*
X147222751Y112394253D01*
X147222743Y112394261D01*
X147222736Y112394267D01*
X147222733Y112394270D01*
X147222728Y112394274D01*
X147031879Y112540716D01*
X147030615Y112541719D01*
X147030286Y112541938D01*
X147030283Y112541940D01*
X146820220Y112663220D01*
X146820207Y112663227D01*
X146820203Y112663228D01*
X146596104Y112756053D01*
X146361781Y112818840D01*
X146121290Y112850500D01*
X146121289Y112850500D01*
X146121288Y112850500D01*
X145878712Y112850500D01*
X145878711Y112850500D01*
X145878710Y112850500D01*
X145638217Y112818840D01*
X145403894Y112756053D01*
X145179790Y112663226D01*
X145179782Y112663222D01*
X144969706Y112541933D01*
X144969697Y112541927D01*
X144777270Y112394274D01*
X144777255Y112394260D01*
X144777247Y112394253D01*
X144605747Y112222753D01*
X144605740Y112222745D01*
X144605726Y112222730D01*
X144458073Y112030303D01*
X144458067Y112030294D01*
X144336778Y111820218D01*
X144336774Y111820210D01*
X144243947Y111596106D01*
X144181160Y111361783D01*
X144149500Y111121290D01*
X24850500Y111121290D01*
X24818838Y111361789D01*
X24756054Y111596100D01*
X24663224Y111820212D01*
X24541936Y112030289D01*
X24394265Y112222738D01*
X24394260Y112222744D01*
X24394259Y112222745D01*
X24394247Y112222758D01*
X24222751Y112394253D01*
X24222743Y112394261D01*
X24222736Y112394267D01*
X24222733Y112394270D01*
X24222728Y112394274D01*
X24031879Y112540716D01*
X24030615Y112541719D01*
X24030286Y112541938D01*
X24030283Y112541940D01*
X23820220Y112663220D01*
X23820207Y112663227D01*
X23820203Y112663228D01*
X23596104Y112756053D01*
X23361781Y112818840D01*
X23121290Y112850500D01*
X23121289Y112850500D01*
X23121288Y112850500D01*
X22878712Y112850500D01*
X22878711Y112850500D01*
X22878710Y112850500D01*
X22638217Y112818840D01*
X22403894Y112756053D01*
X22179790Y112663226D01*
X22179782Y112663222D01*
X21969706Y112541933D01*
X21969697Y112541927D01*
X21777270Y112394274D01*
X21777255Y112394260D01*
X21777247Y112394253D01*
X21605747Y112222753D01*
X21605740Y112222745D01*
X21605726Y112222730D01*
X21458073Y112030303D01*
X21458067Y112030294D01*
X21336778Y111820218D01*
X21336774Y111820210D01*
X21243947Y111596106D01*
X21181160Y111361783D01*
X21149500Y111121290D01*
X5850500Y111121290D01*
X5818838Y111361789D01*
X5756054Y111596100D01*
X5663224Y111820212D01*
X5541936Y112030289D01*
X5394265Y112222738D01*
X5394260Y112222744D01*
X5394259Y112222745D01*
X5394247Y112222758D01*
X5222751Y112394253D01*
X5222743Y112394261D01*
X5222736Y112394267D01*
X5222733Y112394270D01*
X5222728Y112394274D01*
X5031879Y112540716D01*
X5030615Y112541719D01*
X5030286Y112541938D01*
X5030283Y112541940D01*
X4820220Y112663220D01*
X4820207Y112663227D01*
X4820203Y112663228D01*
X4596104Y112756053D01*
X4361781Y112818840D01*
X4121290Y112850500D01*
X4121289Y112850500D01*
X4121288Y112850500D01*
X3878712Y112850500D01*
X3878711Y112850500D01*
X3878710Y112850500D01*
X3638217Y112818840D01*
X3403894Y112756053D01*
X3179790Y112663226D01*
X3179782Y112663222D01*
X2969706Y112541933D01*
X2969697Y112541927D01*
X2777270Y112394274D01*
X2777255Y112394260D01*
X2777247Y112394253D01*
X2605747Y112222753D01*
X2605740Y112222745D01*
X2605726Y112222730D01*
X2458073Y112030303D01*
X2458067Y112030294D01*
X2336778Y111820218D01*
X2336774Y111820210D01*
X2243947Y111596106D01*
X2181160Y111361783D01*
X2149500Y111121290D01*
X500000Y111121290D01*
X500000Y114358171D01*
X505023Y114393107D01*
X509427Y114408105D01*
X547172Y114466856D01*
X548541Y114468043D01*
X603420Y114495523D01*
X610979Y114497167D01*
X637332Y114500000D01*
X149358170Y114500000D01*
X149393106Y114494977D01*
G37*
%TD.AperFunction*%
%TD*%
%TA.AperFunction,Conductor*%
%TO.N,{slash}DC-DC Conversion{slash}-14.145V PRE*%
G36*
X122235639Y51980315D02*
G01*
X122281394Y51927511D01*
X122292600Y51876000D01*
X122292600Y42378040D01*
X122272915Y42311001D01*
X122256281Y42290359D01*
X100312041Y20346119D01*
X100250718Y20312634D01*
X100224360Y20309800D01*
X98120453Y20309800D01*
X97965810Y20279040D01*
X97965802Y20279038D01*
X97820124Y20218696D01*
X97820114Y20218691D01*
X97689011Y20131090D01*
X97689007Y20131087D01*
X93594241Y16036319D01*
X93532918Y16002834D01*
X93506560Y16000000D01*
X90124000Y16000000D01*
X90056961Y16019685D01*
X90011206Y16072489D01*
X90000000Y16124000D01*
X90000000Y51876000D01*
X90019685Y51943039D01*
X90072489Y51988794D01*
X90124000Y52000000D01*
X122168600Y52000000D01*
X122235639Y51980315D01*
G37*
%TD.AperFunction*%
%TD*%
%TA.AperFunction,Conductor*%
%TO.N,{slash}DC-DC Conversion{slash}-14.145V PRE*%
G36*
X51943039Y48980315D02*
G01*
X51988794Y48927511D01*
X52000000Y48876000D01*
X52000000Y20433900D01*
X51980315Y20366861D01*
X51927511Y20321106D01*
X51876000Y20309900D01*
X33769840Y20309900D01*
X33702801Y20329585D01*
X33682159Y20346219D01*
X29036319Y24992059D01*
X29002834Y25053382D01*
X29000000Y25079740D01*
X29000000Y48876000D01*
X29019685Y48943039D01*
X29072489Y48988794D01*
X29124000Y49000000D01*
X51876000Y49000000D01*
X51943039Y48980315D01*
G37*
%TD.AperFunction*%
%TD*%
M02*
