%TF.GenerationSoftware,KiCad,Pcbnew,10.0.0*%
%TF.CreationDate,2026-09-20T04:58:47+09:00*%
%TF.ProjectId,board-b,626f6172-642d-4622-9e6b-696361645f70,rev?*%
%TF.SameCoordinates,Original*%
%TF.FileFunction,Legend,Top*%
%TF.FilePolarity,Positive*%
%FSLAX46Y46*%
G04 Gerber Fmt 4.6, Leading zero omitted, Abs format (unit mm)*
G04 Created by KiCad (PCBNEW 10.0.0) date 2026-09-20 04:58:47*
%MOMM*%
%LPD*%
G01*
G04 APERTURE LIST*
%ADD10C,0.150000*%
%ADD11C,0.120000*%
%ADD12C,0.060000*%
%ADD13C,0.000000*%
%ADD14C,0.250000*%
%ADD15C,0.080000*%
%ADD16C,0.400000*%
%ADD17C,0.500000*%
%ADD18C,0.200000*%
%ADD19C,0.300000*%
%ADD20R,0.860000X0.810000*%
%ADD21R,3.610000X1.260000*%
%ADD22R,1.635000X2.700000*%
%ADD23C,3.200000*%
%ADD24R,2.200000X2.200000*%
%ADD25C,2.200000*%
%ADD26R,1.410000X1.350000*%
%ADD27C,1.500000*%
%ADD28R,1.730000X1.190000*%
%ADD29C,2.000000*%
%ADD30R,1.350000X1.410000*%
%ADD31R,0.800000X0.800000*%
%ADD32R,0.900000X0.800000*%
%ADD33R,0.810000X0.860000*%
%ADD34R,2.286000X1.066800*%
%ADD35R,8.890000X10.668000*%
%ADD36R,1.380000X1.130000*%
%ADD37R,3.080000X1.020000*%
%ADD38R,8.500000X11.000000*%
%ADD39R,3.730000X5.000000*%
%ADD40R,2.000000X2.000000*%
%ADD41R,2.780000X1.490000*%
%ADD42R,1.900000X1.900000*%
%ADD43R,4.500000X1.650000*%
%ADD44R,1.650000X4.500000*%
%ADD45R,1.500000X2.500000*%
%ADD46R,3.500000X1.200000*%
%ADD47R,1.800000X1.800000*%
%ADD48C,1.800000*%
%ADD49R,1.200000X3.500000*%
%ADD50R,3.500000X1.410000*%
%ADD51R,0.800000X0.532000*%
%ADD52R,1.700000X2.500000*%
%ADD53R,2.350000X3.500000*%
%ADD54C,1.600000*%
G04 APERTURE END LIST*
D10*
X118799999Y3934300D02*
X119485714Y3934300D01*
X119142856Y3591443D02*
X119142856Y4277158D01*
X120385714Y3591443D02*
X119871428Y3591443D01*
X120128571Y3591443D02*
X120128571Y4491443D01*
X120128571Y4491443D02*
X120042857Y4362872D01*
X120042857Y4362872D02*
X119957142Y4277158D01*
X119957142Y4277158D02*
X119871428Y4234300D01*
X120728571Y4405729D02*
X120771428Y4448586D01*
X120771428Y4448586D02*
X120857143Y4491443D01*
X120857143Y4491443D02*
X121071428Y4491443D01*
X121071428Y4491443D02*
X121157143Y4448586D01*
X121157143Y4448586D02*
X121200000Y4405729D01*
X121200000Y4405729D02*
X121242857Y4320015D01*
X121242857Y4320015D02*
X121242857Y4234300D01*
X121242857Y4234300D02*
X121200000Y4105729D01*
X121200000Y4105729D02*
X120685714Y3591443D01*
X120685714Y3591443D02*
X121242857Y3591443D01*
X126228571Y3934300D02*
X126914286Y3934300D01*
X126571428Y3591443D02*
X126571428Y4277158D01*
X127771429Y4491443D02*
X127342857Y4491443D01*
X127342857Y4491443D02*
X127300000Y4062872D01*
X127300000Y4062872D02*
X127342857Y4105729D01*
X127342857Y4105729D02*
X127428572Y4148586D01*
X127428572Y4148586D02*
X127642857Y4148586D01*
X127642857Y4148586D02*
X127728572Y4105729D01*
X127728572Y4105729D02*
X127771429Y4062872D01*
X127771429Y4062872D02*
X127814286Y3977158D01*
X127814286Y3977158D02*
X127814286Y3762872D01*
X127814286Y3762872D02*
X127771429Y3677158D01*
X127771429Y3677158D02*
X127728572Y3634300D01*
X127728572Y3634300D02*
X127642857Y3591443D01*
X127642857Y3591443D02*
X127428572Y3591443D01*
X127428572Y3591443D02*
X127342857Y3634300D01*
X127342857Y3634300D02*
X127300000Y3677158D01*
X132799999Y3934300D02*
X133485714Y3934300D01*
X134385714Y3591443D02*
X133871428Y3591443D01*
X134128571Y3591443D02*
X134128571Y4491443D01*
X134128571Y4491443D02*
X134042857Y4362872D01*
X134042857Y4362872D02*
X133957142Y4277158D01*
X133957142Y4277158D02*
X133871428Y4234300D01*
X134728571Y4405729D02*
X134771428Y4448586D01*
X134771428Y4448586D02*
X134857143Y4491443D01*
X134857143Y4491443D02*
X135071428Y4491443D01*
X135071428Y4491443D02*
X135157143Y4448586D01*
X135157143Y4448586D02*
X135200000Y4405729D01*
X135200000Y4405729D02*
X135242857Y4320015D01*
X135242857Y4320015D02*
X135242857Y4234300D01*
X135242857Y4234300D02*
X135200000Y4105729D01*
X135200000Y4105729D02*
X134685714Y3591443D01*
X134685714Y3591443D02*
X135242857Y3591443D01*
X7142856Y96545181D02*
X7142856Y97545181D01*
X7142856Y97545181D02*
X7523808Y97545181D01*
X7523808Y97545181D02*
X7619046Y97497562D01*
X7619046Y97497562D02*
X7666665Y97449943D01*
X7666665Y97449943D02*
X7714284Y97354705D01*
X7714284Y97354705D02*
X7714284Y97211848D01*
X7714284Y97211848D02*
X7666665Y97116610D01*
X7666665Y97116610D02*
X7619046Y97068991D01*
X7619046Y97068991D02*
X7523808Y97021372D01*
X7523808Y97021372D02*
X7142856Y97021372D01*
X8142856Y96545181D02*
X8142856Y97545181D01*
X8142856Y97545181D02*
X8380951Y97545181D01*
X8380951Y97545181D02*
X8523808Y97497562D01*
X8523808Y97497562D02*
X8619046Y97402324D01*
X8619046Y97402324D02*
X8666665Y97307086D01*
X8666665Y97307086D02*
X8714284Y97116610D01*
X8714284Y97116610D02*
X8714284Y96973753D01*
X8714284Y96973753D02*
X8666665Y96783277D01*
X8666665Y96783277D02*
X8619046Y96688039D01*
X8619046Y96688039D02*
X8523808Y96592800D01*
X8523808Y96592800D02*
X8380951Y96545181D01*
X8380951Y96545181D02*
X8142856Y96545181D01*
X9904761Y96545181D02*
X9904761Y97211848D01*
X9904761Y97116610D02*
X9952380Y97164229D01*
X9952380Y97164229D02*
X10047618Y97211848D01*
X10047618Y97211848D02*
X10190475Y97211848D01*
X10190475Y97211848D02*
X10285713Y97164229D01*
X10285713Y97164229D02*
X10333332Y97068991D01*
X10333332Y97068991D02*
X10333332Y96545181D01*
X10333332Y97068991D02*
X10380951Y97164229D01*
X10380951Y97164229D02*
X10476189Y97211848D01*
X10476189Y97211848D02*
X10619046Y97211848D01*
X10619046Y97211848D02*
X10714285Y97164229D01*
X10714285Y97164229D02*
X10761904Y97068991D01*
X10761904Y97068991D02*
X10761904Y96545181D01*
X11380951Y96545181D02*
X11285713Y96592800D01*
X11285713Y96592800D02*
X11238094Y96640420D01*
X11238094Y96640420D02*
X11190475Y96735658D01*
X11190475Y96735658D02*
X11190475Y97021372D01*
X11190475Y97021372D02*
X11238094Y97116610D01*
X11238094Y97116610D02*
X11285713Y97164229D01*
X11285713Y97164229D02*
X11380951Y97211848D01*
X11380951Y97211848D02*
X11523808Y97211848D01*
X11523808Y97211848D02*
X11619046Y97164229D01*
X11619046Y97164229D02*
X11666665Y97116610D01*
X11666665Y97116610D02*
X11714284Y97021372D01*
X11714284Y97021372D02*
X11714284Y96735658D01*
X11714284Y96735658D02*
X11666665Y96640420D01*
X11666665Y96640420D02*
X11619046Y96592800D01*
X11619046Y96592800D02*
X11523808Y96545181D01*
X11523808Y96545181D02*
X11380951Y96545181D01*
X12571427Y96545181D02*
X12571427Y97545181D01*
X12571427Y96592800D02*
X12476189Y96545181D01*
X12476189Y96545181D02*
X12285713Y96545181D01*
X12285713Y96545181D02*
X12190475Y96592800D01*
X12190475Y96592800D02*
X12142856Y96640420D01*
X12142856Y96640420D02*
X12095237Y96735658D01*
X12095237Y96735658D02*
X12095237Y97021372D01*
X12095237Y97021372D02*
X12142856Y97116610D01*
X12142856Y97116610D02*
X12190475Y97164229D01*
X12190475Y97164229D02*
X12285713Y97211848D01*
X12285713Y97211848D02*
X12476189Y97211848D01*
X12476189Y97211848D02*
X12571427Y97164229D01*
X13476189Y97211848D02*
X13476189Y96545181D01*
X13047618Y97211848D02*
X13047618Y96688039D01*
X13047618Y96688039D02*
X13095237Y96592800D01*
X13095237Y96592800D02*
X13190475Y96545181D01*
X13190475Y96545181D02*
X13333332Y96545181D01*
X13333332Y96545181D02*
X13428570Y96592800D01*
X13428570Y96592800D02*
X13476189Y96640420D01*
X14095237Y96545181D02*
X13999999Y96592800D01*
X13999999Y96592800D02*
X13952380Y96688039D01*
X13952380Y96688039D02*
X13952380Y97545181D01*
X14857142Y96592800D02*
X14761904Y96545181D01*
X14761904Y96545181D02*
X14571428Y96545181D01*
X14571428Y96545181D02*
X14476190Y96592800D01*
X14476190Y96592800D02*
X14428571Y96688039D01*
X14428571Y96688039D02*
X14428571Y97068991D01*
X14428571Y97068991D02*
X14476190Y97164229D01*
X14476190Y97164229D02*
X14571428Y97211848D01*
X14571428Y97211848D02*
X14761904Y97211848D01*
X14761904Y97211848D02*
X14857142Y97164229D01*
X14857142Y97164229D02*
X14904761Y97068991D01*
X14904761Y97068991D02*
X14904761Y96973753D01*
X14904761Y96973753D02*
X14428571Y96878515D01*
X16095238Y96545181D02*
X16095238Y97545181D01*
X16095238Y97164229D02*
X16190476Y97211848D01*
X16190476Y97211848D02*
X16380952Y97211848D01*
X16380952Y97211848D02*
X16476190Y97164229D01*
X16476190Y97164229D02*
X16523809Y97116610D01*
X16523809Y97116610D02*
X16571428Y97021372D01*
X16571428Y97021372D02*
X16571428Y96735658D01*
X16571428Y96735658D02*
X16523809Y96640420D01*
X16523809Y96640420D02*
X16476190Y96592800D01*
X16476190Y96592800D02*
X16380952Y96545181D01*
X16380952Y96545181D02*
X16190476Y96545181D01*
X16190476Y96545181D02*
X16095238Y96592800D01*
X17380952Y96592800D02*
X17285714Y96545181D01*
X17285714Y96545181D02*
X17095238Y96545181D01*
X17095238Y96545181D02*
X17000000Y96592800D01*
X17000000Y96592800D02*
X16952381Y96688039D01*
X16952381Y96688039D02*
X16952381Y97068991D01*
X16952381Y97068991D02*
X17000000Y97164229D01*
X17000000Y97164229D02*
X17095238Y97211848D01*
X17095238Y97211848D02*
X17285714Y97211848D01*
X17285714Y97211848D02*
X17380952Y97164229D01*
X17380952Y97164229D02*
X17428571Y97068991D01*
X17428571Y97068991D02*
X17428571Y96973753D01*
X17428571Y96973753D02*
X16952381Y96878515D01*
X18000000Y96545181D02*
X17904762Y96592800D01*
X17904762Y96592800D02*
X17857143Y96688039D01*
X17857143Y96688039D02*
X17857143Y97545181D01*
X18523810Y96545181D02*
X18428572Y96592800D01*
X18428572Y96592800D02*
X18380953Y96640420D01*
X18380953Y96640420D02*
X18333334Y96735658D01*
X18333334Y96735658D02*
X18333334Y97021372D01*
X18333334Y97021372D02*
X18380953Y97116610D01*
X18380953Y97116610D02*
X18428572Y97164229D01*
X18428572Y97164229D02*
X18523810Y97211848D01*
X18523810Y97211848D02*
X18666667Y97211848D01*
X18666667Y97211848D02*
X18761905Y97164229D01*
X18761905Y97164229D02*
X18809524Y97116610D01*
X18809524Y97116610D02*
X18857143Y97021372D01*
X18857143Y97021372D02*
X18857143Y96735658D01*
X18857143Y96735658D02*
X18809524Y96640420D01*
X18809524Y96640420D02*
X18761905Y96592800D01*
X18761905Y96592800D02*
X18666667Y96545181D01*
X18666667Y96545181D02*
X18523810Y96545181D01*
X19190477Y97211848D02*
X19380953Y96545181D01*
X19380953Y96545181D02*
X19571429Y97021372D01*
X19571429Y97021372D02*
X19761905Y96545181D01*
X19761905Y96545181D02*
X19952381Y97211848D01*
X10619047Y91545181D02*
X10047619Y91545181D01*
X10333333Y91545181D02*
X10333333Y92545181D01*
X10333333Y92545181D02*
X10238095Y92402324D01*
X10238095Y92402324D02*
X10142857Y92307086D01*
X10142857Y92307086D02*
X10047619Y92259467D01*
X11523809Y92545181D02*
X11047619Y92545181D01*
X11047619Y92545181D02*
X11000000Y92068991D01*
X11000000Y92068991D02*
X11047619Y92116610D01*
X11047619Y92116610D02*
X11142857Y92164229D01*
X11142857Y92164229D02*
X11380952Y92164229D01*
X11380952Y92164229D02*
X11476190Y92116610D01*
X11476190Y92116610D02*
X11523809Y92068991D01*
X11523809Y92068991D02*
X11571428Y91973753D01*
X11571428Y91973753D02*
X11571428Y91735658D01*
X11571428Y91735658D02*
X11523809Y91640420D01*
X11523809Y91640420D02*
X11476190Y91592800D01*
X11476190Y91592800D02*
X11380952Y91545181D01*
X11380952Y91545181D02*
X11142857Y91545181D01*
X11142857Y91545181D02*
X11047619Y91592800D01*
X11047619Y91592800D02*
X11000000Y91640420D01*
X11857143Y92545181D02*
X12190476Y91545181D01*
X12190476Y91545181D02*
X12523809Y92545181D01*
X13809524Y92545181D02*
X14000000Y92545181D01*
X14000000Y92545181D02*
X14095238Y92497562D01*
X14095238Y92497562D02*
X14190476Y92402324D01*
X14190476Y92402324D02*
X14238095Y92211848D01*
X14238095Y92211848D02*
X14238095Y91878515D01*
X14238095Y91878515D02*
X14190476Y91688039D01*
X14190476Y91688039D02*
X14095238Y91592800D01*
X14095238Y91592800D02*
X14000000Y91545181D01*
X14000000Y91545181D02*
X13809524Y91545181D01*
X13809524Y91545181D02*
X13714286Y91592800D01*
X13714286Y91592800D02*
X13619048Y91688039D01*
X13619048Y91688039D02*
X13571429Y91878515D01*
X13571429Y91878515D02*
X13571429Y92211848D01*
X13571429Y92211848D02*
X13619048Y92402324D01*
X13619048Y92402324D02*
X13714286Y92497562D01*
X13714286Y92497562D02*
X13809524Y92545181D01*
X14666667Y91545181D02*
X14666667Y92545181D01*
X14666667Y92545181D02*
X15238095Y91545181D01*
X15238095Y91545181D02*
X15238095Y92545181D01*
X16190476Y91545181D02*
X15714286Y91545181D01*
X15714286Y91545181D02*
X15714286Y92545181D01*
X16714286Y92021372D02*
X16714286Y91545181D01*
X16380953Y92545181D02*
X16714286Y92021372D01*
X16714286Y92021372D02*
X17047619Y92545181D01*
X18238095Y59426134D02*
X19000000Y59426134D01*
X19999999Y59045181D02*
X19428571Y59045181D01*
X19714285Y59045181D02*
X19714285Y60045181D01*
X19714285Y60045181D02*
X19619047Y59902324D01*
X19619047Y59902324D02*
X19523809Y59807086D01*
X19523809Y59807086D02*
X19428571Y59759467D01*
X20380952Y59949943D02*
X20428571Y59997562D01*
X20428571Y59997562D02*
X20523809Y60045181D01*
X20523809Y60045181D02*
X20761904Y60045181D01*
X20761904Y60045181D02*
X20857142Y59997562D01*
X20857142Y59997562D02*
X20904761Y59949943D01*
X20904761Y59949943D02*
X20952380Y59854705D01*
X20952380Y59854705D02*
X20952380Y59759467D01*
X20952380Y59759467D02*
X20904761Y59616610D01*
X20904761Y59616610D02*
X20333333Y59045181D01*
X20333333Y59045181D02*
X20952380Y59045181D01*
X21238095Y60045181D02*
X21571428Y59045181D01*
X21571428Y59045181D02*
X21904761Y60045181D01*
X19238095Y45997562D02*
X19142857Y46045181D01*
X19142857Y46045181D02*
X19000000Y46045181D01*
X19000000Y46045181D02*
X18857143Y45997562D01*
X18857143Y45997562D02*
X18761905Y45902324D01*
X18761905Y45902324D02*
X18714286Y45807086D01*
X18714286Y45807086D02*
X18666667Y45616610D01*
X18666667Y45616610D02*
X18666667Y45473753D01*
X18666667Y45473753D02*
X18714286Y45283277D01*
X18714286Y45283277D02*
X18761905Y45188039D01*
X18761905Y45188039D02*
X18857143Y45092800D01*
X18857143Y45092800D02*
X19000000Y45045181D01*
X19000000Y45045181D02*
X19095238Y45045181D01*
X19095238Y45045181D02*
X19238095Y45092800D01*
X19238095Y45092800D02*
X19285714Y45140420D01*
X19285714Y45140420D02*
X19285714Y45473753D01*
X19285714Y45473753D02*
X19095238Y45473753D01*
X19714286Y45045181D02*
X19714286Y46045181D01*
X19714286Y46045181D02*
X20285714Y45045181D01*
X20285714Y45045181D02*
X20285714Y46045181D01*
X20761905Y45045181D02*
X20761905Y46045181D01*
X20761905Y46045181D02*
X21000000Y46045181D01*
X21000000Y46045181D02*
X21142857Y45997562D01*
X21142857Y45997562D02*
X21238095Y45902324D01*
X21238095Y45902324D02*
X21285714Y45807086D01*
X21285714Y45807086D02*
X21333333Y45616610D01*
X21333333Y45616610D02*
X21333333Y45473753D01*
X21333333Y45473753D02*
X21285714Y45283277D01*
X21285714Y45283277D02*
X21238095Y45188039D01*
X21238095Y45188039D02*
X21142857Y45092800D01*
X21142857Y45092800D02*
X21000000Y45045181D01*
X21000000Y45045181D02*
X20761905Y45045181D01*
X18238095Y31426134D02*
X19000000Y31426134D01*
X18619047Y31045181D02*
X18619047Y31807086D01*
X19999999Y31045181D02*
X19428571Y31045181D01*
X19714285Y31045181D02*
X19714285Y32045181D01*
X19714285Y32045181D02*
X19619047Y31902324D01*
X19619047Y31902324D02*
X19523809Y31807086D01*
X19523809Y31807086D02*
X19428571Y31759467D01*
X20380952Y31949943D02*
X20428571Y31997562D01*
X20428571Y31997562D02*
X20523809Y32045181D01*
X20523809Y32045181D02*
X20761904Y32045181D01*
X20761904Y32045181D02*
X20857142Y31997562D01*
X20857142Y31997562D02*
X20904761Y31949943D01*
X20904761Y31949943D02*
X20952380Y31854705D01*
X20952380Y31854705D02*
X20952380Y31759467D01*
X20952380Y31759467D02*
X20904761Y31616610D01*
X20904761Y31616610D02*
X20333333Y31045181D01*
X20333333Y31045181D02*
X20952380Y31045181D01*
X21238095Y32045181D02*
X21571428Y31045181D01*
X21571428Y31045181D02*
X21904761Y32045181D01*
X18714286Y17426134D02*
X19476191Y17426134D01*
X19095238Y17045181D02*
X19095238Y17807086D01*
X20428571Y18045181D02*
X19952381Y18045181D01*
X19952381Y18045181D02*
X19904762Y17568991D01*
X19904762Y17568991D02*
X19952381Y17616610D01*
X19952381Y17616610D02*
X20047619Y17664229D01*
X20047619Y17664229D02*
X20285714Y17664229D01*
X20285714Y17664229D02*
X20380952Y17616610D01*
X20380952Y17616610D02*
X20428571Y17568991D01*
X20428571Y17568991D02*
X20476190Y17473753D01*
X20476190Y17473753D02*
X20476190Y17235658D01*
X20476190Y17235658D02*
X20428571Y17140420D01*
X20428571Y17140420D02*
X20380952Y17092800D01*
X20380952Y17092800D02*
X20285714Y17045181D01*
X20285714Y17045181D02*
X20047619Y17045181D01*
X20047619Y17045181D02*
X19952381Y17092800D01*
X19952381Y17092800D02*
X19904762Y17140420D01*
X20761905Y18045181D02*
X21095238Y17045181D01*
X21095238Y17045181D02*
X21428571Y18045181D01*
X63500000Y16926134D02*
X64261905Y16926134D01*
X65261904Y16545181D02*
X64690476Y16545181D01*
X64976190Y16545181D02*
X64976190Y17545181D01*
X64976190Y17545181D02*
X64880952Y17402324D01*
X64880952Y17402324D02*
X64785714Y17307086D01*
X64785714Y17307086D02*
X64690476Y17259467D01*
X65642857Y17449943D02*
X65690476Y17497562D01*
X65690476Y17497562D02*
X65785714Y17545181D01*
X65785714Y17545181D02*
X66023809Y17545181D01*
X66023809Y17545181D02*
X66119047Y17497562D01*
X66119047Y17497562D02*
X66166666Y17449943D01*
X66166666Y17449943D02*
X66214285Y17354705D01*
X66214285Y17354705D02*
X66214285Y17259467D01*
X66214285Y17259467D02*
X66166666Y17116610D01*
X66166666Y17116610D02*
X65595238Y16545181D01*
X65595238Y16545181D02*
X66214285Y16545181D01*
X66500000Y17545181D02*
X66833333Y16545181D01*
X66833333Y16545181D02*
X67166666Y17545181D01*
X68976190Y17592800D02*
X68119048Y16307086D01*
X70642857Y16545181D02*
X70309524Y17021372D01*
X70071429Y16545181D02*
X70071429Y17545181D01*
X70071429Y17545181D02*
X70452381Y17545181D01*
X70452381Y17545181D02*
X70547619Y17497562D01*
X70547619Y17497562D02*
X70595238Y17449943D01*
X70595238Y17449943D02*
X70642857Y17354705D01*
X70642857Y17354705D02*
X70642857Y17211848D01*
X70642857Y17211848D02*
X70595238Y17116610D01*
X70595238Y17116610D02*
X70547619Y17068991D01*
X70547619Y17068991D02*
X70452381Y17021372D01*
X70452381Y17021372D02*
X70071429Y17021372D01*
X71071429Y17068991D02*
X71404762Y17068991D01*
X71547619Y16545181D02*
X71071429Y16545181D01*
X71071429Y16545181D02*
X71071429Y17545181D01*
X71071429Y17545181D02*
X71547619Y17545181D01*
X71976191Y16545181D02*
X71976191Y17545181D01*
X71976191Y17545181D02*
X72214286Y17545181D01*
X72214286Y17545181D02*
X72357143Y17497562D01*
X72357143Y17497562D02*
X72452381Y17402324D01*
X72452381Y17402324D02*
X72500000Y17307086D01*
X72500000Y17307086D02*
X72547619Y17116610D01*
X72547619Y17116610D02*
X72547619Y16973753D01*
X72547619Y16973753D02*
X72500000Y16783277D01*
X72500000Y16783277D02*
X72452381Y16688039D01*
X72452381Y16688039D02*
X72357143Y16592800D01*
X72357143Y16592800D02*
X72214286Y16545181D01*
X72214286Y16545181D02*
X71976191Y16545181D01*
X104500000Y16926134D02*
X105261905Y16926134D01*
X106261904Y16545181D02*
X105690476Y16545181D01*
X105976190Y16545181D02*
X105976190Y17545181D01*
X105976190Y17545181D02*
X105880952Y17402324D01*
X105880952Y17402324D02*
X105785714Y17307086D01*
X105785714Y17307086D02*
X105690476Y17259467D01*
X106642857Y17449943D02*
X106690476Y17497562D01*
X106690476Y17497562D02*
X106785714Y17545181D01*
X106785714Y17545181D02*
X107023809Y17545181D01*
X107023809Y17545181D02*
X107119047Y17497562D01*
X107119047Y17497562D02*
X107166666Y17449943D01*
X107166666Y17449943D02*
X107214285Y17354705D01*
X107214285Y17354705D02*
X107214285Y17259467D01*
X107214285Y17259467D02*
X107166666Y17116610D01*
X107166666Y17116610D02*
X106595238Y16545181D01*
X106595238Y16545181D02*
X107214285Y16545181D01*
X107500000Y17545181D02*
X107833333Y16545181D01*
X107833333Y16545181D02*
X108166666Y17545181D01*
X109976190Y17592800D02*
X109119048Y16307086D01*
X111642857Y16545181D02*
X111309524Y17021372D01*
X111071429Y16545181D02*
X111071429Y17545181D01*
X111071429Y17545181D02*
X111452381Y17545181D01*
X111452381Y17545181D02*
X111547619Y17497562D01*
X111547619Y17497562D02*
X111595238Y17449943D01*
X111595238Y17449943D02*
X111642857Y17354705D01*
X111642857Y17354705D02*
X111642857Y17211848D01*
X111642857Y17211848D02*
X111595238Y17116610D01*
X111595238Y17116610D02*
X111547619Y17068991D01*
X111547619Y17068991D02*
X111452381Y17021372D01*
X111452381Y17021372D02*
X111071429Y17021372D01*
X112071429Y17068991D02*
X112404762Y17068991D01*
X112547619Y16545181D02*
X112071429Y16545181D01*
X112071429Y16545181D02*
X112071429Y17545181D01*
X112071429Y17545181D02*
X112547619Y17545181D01*
X112976191Y16545181D02*
X112976191Y17545181D01*
X112976191Y17545181D02*
X113214286Y17545181D01*
X113214286Y17545181D02*
X113357143Y17497562D01*
X113357143Y17497562D02*
X113452381Y17402324D01*
X113452381Y17402324D02*
X113500000Y17307086D01*
X113500000Y17307086D02*
X113547619Y17116610D01*
X113547619Y17116610D02*
X113547619Y16973753D01*
X113547619Y16973753D02*
X113500000Y16783277D01*
X113500000Y16783277D02*
X113452381Y16688039D01*
X113452381Y16688039D02*
X113357143Y16592800D01*
X113357143Y16592800D02*
X113214286Y16545181D01*
X113214286Y16545181D02*
X112976191Y16545181D01*
X69059527Y111273062D02*
X69740479Y111273062D01*
X69740479Y111273062D02*
X69059527Y110406396D01*
X69059527Y110406396D02*
X69740479Y110406396D01*
X70792860Y111273062D02*
X70792860Y110406396D01*
X70235717Y111273062D02*
X70235717Y110592110D01*
X70235717Y110592110D02*
X70297622Y110468300D01*
X70297622Y110468300D02*
X70421432Y110406396D01*
X70421432Y110406396D02*
X70607146Y110406396D01*
X70607146Y110406396D02*
X70730955Y110468300D01*
X70730955Y110468300D02*
X70792860Y110530205D01*
X71969050Y110406396D02*
X71969050Y111706396D01*
X71969050Y110468300D02*
X71845241Y110406396D01*
X71845241Y110406396D02*
X71597622Y110406396D01*
X71597622Y110406396D02*
X71473812Y110468300D01*
X71473812Y110468300D02*
X71411907Y110530205D01*
X71411907Y110530205D02*
X71350003Y110654015D01*
X71350003Y110654015D02*
X71350003Y111025443D01*
X71350003Y111025443D02*
X71411907Y111149253D01*
X71411907Y111149253D02*
X71473812Y111211158D01*
X71473812Y111211158D02*
X71597622Y111273062D01*
X71597622Y111273062D02*
X71845241Y111273062D01*
X71845241Y111273062D02*
X71969050Y111211158D01*
X72773812Y110406396D02*
X72650002Y110468300D01*
X72650002Y110468300D02*
X72588097Y110530205D01*
X72588097Y110530205D02*
X72526193Y110654015D01*
X72526193Y110654015D02*
X72526193Y111025443D01*
X72526193Y111025443D02*
X72588097Y111149253D01*
X72588097Y111149253D02*
X72650002Y111211158D01*
X72650002Y111211158D02*
X72773812Y111273062D01*
X72773812Y111273062D02*
X72959526Y111273062D01*
X72959526Y111273062D02*
X73083335Y111211158D01*
X73083335Y111211158D02*
X73145240Y111149253D01*
X73145240Y111149253D02*
X73207145Y111025443D01*
X73207145Y111025443D02*
X73207145Y110654015D01*
X73207145Y110654015D02*
X73145240Y110530205D01*
X73145240Y110530205D02*
X73083335Y110468300D01*
X73083335Y110468300D02*
X72959526Y110406396D01*
X72959526Y110406396D02*
X72773812Y110406396D01*
X73764287Y110901634D02*
X74754764Y110901634D01*
X75373811Y111273062D02*
X75373811Y109973062D01*
X75373811Y111211158D02*
X75497621Y111273062D01*
X75497621Y111273062D02*
X75745240Y111273062D01*
X75745240Y111273062D02*
X75869049Y111211158D01*
X75869049Y111211158D02*
X75930954Y111149253D01*
X75930954Y111149253D02*
X75992859Y111025443D01*
X75992859Y111025443D02*
X75992859Y110654015D01*
X75992859Y110654015D02*
X75930954Y110530205D01*
X75930954Y110530205D02*
X75869049Y110468300D01*
X75869049Y110468300D02*
X75745240Y110406396D01*
X75745240Y110406396D02*
X75497621Y110406396D01*
X75497621Y110406396D02*
X75373811Y110468300D01*
X77107144Y110406396D02*
X77107144Y111706396D01*
X77107144Y110468300D02*
X76983335Y110406396D01*
X76983335Y110406396D02*
X76735716Y110406396D01*
X76735716Y110406396D02*
X76611906Y110468300D01*
X76611906Y110468300D02*
X76550001Y110530205D01*
X76550001Y110530205D02*
X76488097Y110654015D01*
X76488097Y110654015D02*
X76488097Y111025443D01*
X76488097Y111025443D02*
X76550001Y111149253D01*
X76550001Y111149253D02*
X76611906Y111211158D01*
X76611906Y111211158D02*
X76735716Y111273062D01*
X76735716Y111273062D02*
X76983335Y111273062D01*
X76983335Y111273062D02*
X77107144Y111211158D01*
X79645239Y111768300D02*
X78530953Y110096872D01*
X81502382Y111087348D02*
X81688096Y111025443D01*
X81688096Y111025443D02*
X81750001Y110963539D01*
X81750001Y110963539D02*
X81811905Y110839729D01*
X81811905Y110839729D02*
X81811905Y110654015D01*
X81811905Y110654015D02*
X81750001Y110530205D01*
X81750001Y110530205D02*
X81688096Y110468300D01*
X81688096Y110468300D02*
X81564286Y110406396D01*
X81564286Y110406396D02*
X81069048Y110406396D01*
X81069048Y110406396D02*
X81069048Y111706396D01*
X81069048Y111706396D02*
X81502382Y111706396D01*
X81502382Y111706396D02*
X81626191Y111644491D01*
X81626191Y111644491D02*
X81688096Y111582586D01*
X81688096Y111582586D02*
X81750001Y111458777D01*
X81750001Y111458777D02*
X81750001Y111334967D01*
X81750001Y111334967D02*
X81688096Y111211158D01*
X81688096Y111211158D02*
X81626191Y111149253D01*
X81626191Y111149253D02*
X81502382Y111087348D01*
X81502382Y111087348D02*
X81069048Y111087348D01*
X82554763Y110406396D02*
X82430953Y110468300D01*
X82430953Y110468300D02*
X82369048Y110530205D01*
X82369048Y110530205D02*
X82307144Y110654015D01*
X82307144Y110654015D02*
X82307144Y111025443D01*
X82307144Y111025443D02*
X82369048Y111149253D01*
X82369048Y111149253D02*
X82430953Y111211158D01*
X82430953Y111211158D02*
X82554763Y111273062D01*
X82554763Y111273062D02*
X82740477Y111273062D01*
X82740477Y111273062D02*
X82864286Y111211158D01*
X82864286Y111211158D02*
X82926191Y111149253D01*
X82926191Y111149253D02*
X82988096Y111025443D01*
X82988096Y111025443D02*
X82988096Y110654015D01*
X82988096Y110654015D02*
X82926191Y110530205D01*
X82926191Y110530205D02*
X82864286Y110468300D01*
X82864286Y110468300D02*
X82740477Y110406396D01*
X82740477Y110406396D02*
X82554763Y110406396D01*
X84102381Y110406396D02*
X84102381Y111087348D01*
X84102381Y111087348D02*
X84040476Y111211158D01*
X84040476Y111211158D02*
X83916667Y111273062D01*
X83916667Y111273062D02*
X83669048Y111273062D01*
X83669048Y111273062D02*
X83545238Y111211158D01*
X84102381Y110468300D02*
X83978572Y110406396D01*
X83978572Y110406396D02*
X83669048Y110406396D01*
X83669048Y110406396D02*
X83545238Y110468300D01*
X83545238Y110468300D02*
X83483334Y110592110D01*
X83483334Y110592110D02*
X83483334Y110715920D01*
X83483334Y110715920D02*
X83545238Y110839729D01*
X83545238Y110839729D02*
X83669048Y110901634D01*
X83669048Y110901634D02*
X83978572Y110901634D01*
X83978572Y110901634D02*
X84102381Y110963539D01*
X84721428Y110406396D02*
X84721428Y111273062D01*
X84721428Y111025443D02*
X84783333Y111149253D01*
X84783333Y111149253D02*
X84845238Y111211158D01*
X84845238Y111211158D02*
X84969047Y111273062D01*
X84969047Y111273062D02*
X85092857Y111273062D01*
X86083333Y110406396D02*
X86083333Y111706396D01*
X86083333Y110468300D02*
X85959524Y110406396D01*
X85959524Y110406396D02*
X85711905Y110406396D01*
X85711905Y110406396D02*
X85588095Y110468300D01*
X85588095Y110468300D02*
X85526190Y110530205D01*
X85526190Y110530205D02*
X85464286Y110654015D01*
X85464286Y110654015D02*
X85464286Y111025443D01*
X85464286Y111025443D02*
X85526190Y111149253D01*
X85526190Y111149253D02*
X85588095Y111211158D01*
X85588095Y111211158D02*
X85711905Y111273062D01*
X85711905Y111273062D02*
X85959524Y111273062D01*
X85959524Y111273062D02*
X86083333Y111211158D01*
X88126190Y111087348D02*
X88311904Y111025443D01*
X88311904Y111025443D02*
X88373809Y110963539D01*
X88373809Y110963539D02*
X88435713Y110839729D01*
X88435713Y110839729D02*
X88435713Y110654015D01*
X88435713Y110654015D02*
X88373809Y110530205D01*
X88373809Y110530205D02*
X88311904Y110468300D01*
X88311904Y110468300D02*
X88188094Y110406396D01*
X88188094Y110406396D02*
X87692856Y110406396D01*
X87692856Y110406396D02*
X87692856Y111706396D01*
X87692856Y111706396D02*
X88126190Y111706396D01*
X88126190Y111706396D02*
X88249999Y111644491D01*
X88249999Y111644491D02*
X88311904Y111582586D01*
X88311904Y111582586D02*
X88373809Y111458777D01*
X88373809Y111458777D02*
X88373809Y111334967D01*
X88373809Y111334967D02*
X88311904Y111211158D01*
X88311904Y111211158D02*
X88249999Y111149253D01*
X88249999Y111149253D02*
X88126190Y111087348D01*
X88126190Y111087348D02*
X87692856Y111087348D01*
X90911904Y111768300D02*
X89797618Y110096872D01*
X92335713Y111273062D02*
X92335713Y109973062D01*
X92335713Y111211158D02*
X92459523Y111273062D01*
X92459523Y111273062D02*
X92707142Y111273062D01*
X92707142Y111273062D02*
X92830951Y111211158D01*
X92830951Y111211158D02*
X92892856Y111149253D01*
X92892856Y111149253D02*
X92954761Y111025443D01*
X92954761Y111025443D02*
X92954761Y110654015D01*
X92954761Y110654015D02*
X92892856Y110530205D01*
X92892856Y110530205D02*
X92830951Y110468300D01*
X92830951Y110468300D02*
X92707142Y110406396D01*
X92707142Y110406396D02*
X92459523Y110406396D01*
X92459523Y110406396D02*
X92335713Y110468300D01*
X93511903Y110406396D02*
X93511903Y111273062D01*
X93511903Y111025443D02*
X93573808Y111149253D01*
X93573808Y111149253D02*
X93635713Y111211158D01*
X93635713Y111211158D02*
X93759522Y111273062D01*
X93759522Y111273062D02*
X93883332Y111273062D01*
X94502380Y110406396D02*
X94378570Y110468300D01*
X94378570Y110468300D02*
X94316665Y110530205D01*
X94316665Y110530205D02*
X94254761Y110654015D01*
X94254761Y110654015D02*
X94254761Y111025443D01*
X94254761Y111025443D02*
X94316665Y111149253D01*
X94316665Y111149253D02*
X94378570Y111211158D01*
X94378570Y111211158D02*
X94502380Y111273062D01*
X94502380Y111273062D02*
X94688094Y111273062D01*
X94688094Y111273062D02*
X94811903Y111211158D01*
X94811903Y111211158D02*
X94873808Y111149253D01*
X94873808Y111149253D02*
X94935713Y111025443D01*
X94935713Y111025443D02*
X94935713Y110654015D01*
X94935713Y110654015D02*
X94873808Y110530205D01*
X94873808Y110530205D02*
X94811903Y110468300D01*
X94811903Y110468300D02*
X94688094Y110406396D01*
X94688094Y110406396D02*
X94502380Y110406396D01*
X95307141Y111273062D02*
X95802379Y111273062D01*
X95492855Y111706396D02*
X95492855Y110592110D01*
X95492855Y110592110D02*
X95554760Y110468300D01*
X95554760Y110468300D02*
X95678570Y110406396D01*
X95678570Y110406396D02*
X95802379Y110406396D01*
X96421427Y110406396D02*
X96297617Y110468300D01*
X96297617Y110468300D02*
X96235712Y110530205D01*
X96235712Y110530205D02*
X96173808Y110654015D01*
X96173808Y110654015D02*
X96173808Y111025443D01*
X96173808Y111025443D02*
X96235712Y111149253D01*
X96235712Y111149253D02*
X96297617Y111211158D01*
X96297617Y111211158D02*
X96421427Y111273062D01*
X96421427Y111273062D02*
X96607141Y111273062D01*
X96607141Y111273062D02*
X96730950Y111211158D01*
X96730950Y111211158D02*
X96792855Y111149253D01*
X96792855Y111149253D02*
X96854760Y111025443D01*
X96854760Y111025443D02*
X96854760Y110654015D01*
X96854760Y110654015D02*
X96792855Y110530205D01*
X96792855Y110530205D02*
X96730950Y110468300D01*
X96730950Y110468300D02*
X96607141Y110406396D01*
X96607141Y110406396D02*
X96421427Y110406396D01*
X97226188Y111273062D02*
X97721426Y111273062D01*
X97411902Y111706396D02*
X97411902Y110592110D01*
X97411902Y110592110D02*
X97473807Y110468300D01*
X97473807Y110468300D02*
X97597617Y110406396D01*
X97597617Y110406396D02*
X97721426Y110406396D01*
X98030950Y111273062D02*
X98340474Y110406396D01*
X98649997Y111273062D02*
X98340474Y110406396D01*
X98340474Y110406396D02*
X98216664Y110096872D01*
X98216664Y110096872D02*
X98154759Y110034967D01*
X98154759Y110034967D02*
X98030950Y109973062D01*
X99145235Y111273062D02*
X99145235Y109973062D01*
X99145235Y111211158D02*
X99269045Y111273062D01*
X99269045Y111273062D02*
X99516664Y111273062D01*
X99516664Y111273062D02*
X99640473Y111211158D01*
X99640473Y111211158D02*
X99702378Y111149253D01*
X99702378Y111149253D02*
X99764283Y111025443D01*
X99764283Y111025443D02*
X99764283Y110654015D01*
X99764283Y110654015D02*
X99702378Y110530205D01*
X99702378Y110530205D02*
X99640473Y110468300D01*
X99640473Y110468300D02*
X99516664Y110406396D01*
X99516664Y110406396D02*
X99269045Y110406396D01*
X99269045Y110406396D02*
X99145235Y110468300D01*
X100816663Y110468300D02*
X100692854Y110406396D01*
X100692854Y110406396D02*
X100445235Y110406396D01*
X100445235Y110406396D02*
X100321425Y110468300D01*
X100321425Y110468300D02*
X100259521Y110592110D01*
X100259521Y110592110D02*
X100259521Y111087348D01*
X100259521Y111087348D02*
X100321425Y111211158D01*
X100321425Y111211158D02*
X100445235Y111273062D01*
X100445235Y111273062D02*
X100692854Y111273062D01*
X100692854Y111273062D02*
X100816663Y111211158D01*
X100816663Y111211158D02*
X100878568Y111087348D01*
X100878568Y111087348D02*
X100878568Y110963539D01*
X100878568Y110963539D02*
X100259521Y110839729D01*
X49850000Y105356443D02*
X49550000Y105785015D01*
X49335714Y105356443D02*
X49335714Y106256443D01*
X49335714Y106256443D02*
X49678571Y106256443D01*
X49678571Y106256443D02*
X49764286Y106213586D01*
X49764286Y106213586D02*
X49807143Y106170729D01*
X49807143Y106170729D02*
X49850000Y106085015D01*
X49850000Y106085015D02*
X49850000Y105956443D01*
X49850000Y105956443D02*
X49807143Y105870729D01*
X49807143Y105870729D02*
X49764286Y105827872D01*
X49764286Y105827872D02*
X49678571Y105785015D01*
X49678571Y105785015D02*
X49335714Y105785015D01*
X50707143Y105356443D02*
X50192857Y105356443D01*
X50450000Y105356443D02*
X50450000Y106256443D01*
X50450000Y106256443D02*
X50364286Y106127872D01*
X50364286Y106127872D02*
X50278571Y106042158D01*
X50278571Y106042158D02*
X50192857Y105999300D01*
X45850000Y29282158D02*
X45807143Y29239300D01*
X45807143Y29239300D02*
X45678571Y29196443D01*
X45678571Y29196443D02*
X45592857Y29196443D01*
X45592857Y29196443D02*
X45464286Y29239300D01*
X45464286Y29239300D02*
X45378571Y29325015D01*
X45378571Y29325015D02*
X45335714Y29410729D01*
X45335714Y29410729D02*
X45292857Y29582158D01*
X45292857Y29582158D02*
X45292857Y29710729D01*
X45292857Y29710729D02*
X45335714Y29882158D01*
X45335714Y29882158D02*
X45378571Y29967872D01*
X45378571Y29967872D02*
X45464286Y30053586D01*
X45464286Y30053586D02*
X45592857Y30096443D01*
X45592857Y30096443D02*
X45678571Y30096443D01*
X45678571Y30096443D02*
X45807143Y30053586D01*
X45807143Y30053586D02*
X45850000Y30010729D01*
X46278571Y29196443D02*
X46450000Y29196443D01*
X46450000Y29196443D02*
X46535714Y29239300D01*
X46535714Y29239300D02*
X46578571Y29282158D01*
X46578571Y29282158D02*
X46664286Y29410729D01*
X46664286Y29410729D02*
X46707143Y29582158D01*
X46707143Y29582158D02*
X46707143Y29925015D01*
X46707143Y29925015D02*
X46664286Y30010729D01*
X46664286Y30010729D02*
X46621429Y30053586D01*
X46621429Y30053586D02*
X46535714Y30096443D01*
X46535714Y30096443D02*
X46364286Y30096443D01*
X46364286Y30096443D02*
X46278571Y30053586D01*
X46278571Y30053586D02*
X46235714Y30010729D01*
X46235714Y30010729D02*
X46192857Y29925015D01*
X46192857Y29925015D02*
X46192857Y29710729D01*
X46192857Y29710729D02*
X46235714Y29625015D01*
X46235714Y29625015D02*
X46278571Y29582158D01*
X46278571Y29582158D02*
X46364286Y29539300D01*
X46364286Y29539300D02*
X46535714Y29539300D01*
X46535714Y29539300D02*
X46621429Y29582158D01*
X46621429Y29582158D02*
X46664286Y29625015D01*
X46664286Y29625015D02*
X46707143Y29710729D01*
X74485714Y96463896D02*
X74447618Y96425800D01*
X74447618Y96425800D02*
X74333333Y96387705D01*
X74333333Y96387705D02*
X74257142Y96387705D01*
X74257142Y96387705D02*
X74142856Y96425800D01*
X74142856Y96425800D02*
X74066666Y96501991D01*
X74066666Y96501991D02*
X74028571Y96578181D01*
X74028571Y96578181D02*
X73990475Y96730562D01*
X73990475Y96730562D02*
X73990475Y96844848D01*
X73990475Y96844848D02*
X74028571Y96997229D01*
X74028571Y96997229D02*
X74066666Y97073420D01*
X74066666Y97073420D02*
X74142856Y97149610D01*
X74142856Y97149610D02*
X74257142Y97187705D01*
X74257142Y97187705D02*
X74333333Y97187705D01*
X74333333Y97187705D02*
X74447618Y97149610D01*
X74447618Y97149610D02*
X74485714Y97111515D01*
X74752380Y97187705D02*
X75247618Y97187705D01*
X75247618Y97187705D02*
X74980952Y96882943D01*
X74980952Y96882943D02*
X75095237Y96882943D01*
X75095237Y96882943D02*
X75171428Y96844848D01*
X75171428Y96844848D02*
X75209523Y96806753D01*
X75209523Y96806753D02*
X75247618Y96730562D01*
X75247618Y96730562D02*
X75247618Y96540086D01*
X75247618Y96540086D02*
X75209523Y96463896D01*
X75209523Y96463896D02*
X75171428Y96425800D01*
X75171428Y96425800D02*
X75095237Y96387705D01*
X75095237Y96387705D02*
X74866666Y96387705D01*
X74866666Y96387705D02*
X74790475Y96425800D01*
X74790475Y96425800D02*
X74752380Y96463896D01*
X75514285Y97187705D02*
X76047619Y97187705D01*
X76047619Y97187705D02*
X75704761Y96387705D01*
X50850000Y77356443D02*
X50550000Y77785015D01*
X50335714Y77356443D02*
X50335714Y78256443D01*
X50335714Y78256443D02*
X50678571Y78256443D01*
X50678571Y78256443D02*
X50764286Y78213586D01*
X50764286Y78213586D02*
X50807143Y78170729D01*
X50807143Y78170729D02*
X50850000Y78085015D01*
X50850000Y78085015D02*
X50850000Y77956443D01*
X50850000Y77956443D02*
X50807143Y77870729D01*
X50807143Y77870729D02*
X50764286Y77827872D01*
X50764286Y77827872D02*
X50678571Y77785015D01*
X50678571Y77785015D02*
X50335714Y77785015D01*
X51621429Y77956443D02*
X51621429Y77356443D01*
X51407143Y78299300D02*
X51192857Y77656443D01*
X51192857Y77656443D02*
X51750000Y77656443D01*
X9700000Y17966443D02*
X9700000Y17323586D01*
X9700000Y17323586D02*
X9657143Y17195015D01*
X9657143Y17195015D02*
X9571429Y17109300D01*
X9571429Y17109300D02*
X9442857Y17066443D01*
X9442857Y17066443D02*
X9357143Y17066443D01*
X10257143Y17580729D02*
X10171428Y17623586D01*
X10171428Y17623586D02*
X10128571Y17666443D01*
X10128571Y17666443D02*
X10085714Y17752158D01*
X10085714Y17752158D02*
X10085714Y17795015D01*
X10085714Y17795015D02*
X10128571Y17880729D01*
X10128571Y17880729D02*
X10171428Y17923586D01*
X10171428Y17923586D02*
X10257143Y17966443D01*
X10257143Y17966443D02*
X10428571Y17966443D01*
X10428571Y17966443D02*
X10514286Y17923586D01*
X10514286Y17923586D02*
X10557143Y17880729D01*
X10557143Y17880729D02*
X10600000Y17795015D01*
X10600000Y17795015D02*
X10600000Y17752158D01*
X10600000Y17752158D02*
X10557143Y17666443D01*
X10557143Y17666443D02*
X10514286Y17623586D01*
X10514286Y17623586D02*
X10428571Y17580729D01*
X10428571Y17580729D02*
X10257143Y17580729D01*
X10257143Y17580729D02*
X10171428Y17537872D01*
X10171428Y17537872D02*
X10128571Y17495015D01*
X10128571Y17495015D02*
X10085714Y17409300D01*
X10085714Y17409300D02*
X10085714Y17237872D01*
X10085714Y17237872D02*
X10128571Y17152158D01*
X10128571Y17152158D02*
X10171428Y17109300D01*
X10171428Y17109300D02*
X10257143Y17066443D01*
X10257143Y17066443D02*
X10428571Y17066443D01*
X10428571Y17066443D02*
X10514286Y17109300D01*
X10514286Y17109300D02*
X10557143Y17152158D01*
X10557143Y17152158D02*
X10600000Y17237872D01*
X10600000Y17237872D02*
X10600000Y17409300D01*
X10600000Y17409300D02*
X10557143Y17495015D01*
X10557143Y17495015D02*
X10514286Y17537872D01*
X10514286Y17537872D02*
X10428571Y17580729D01*
X119421428Y46952158D02*
X119378571Y46909300D01*
X119378571Y46909300D02*
X119249999Y46866443D01*
X119249999Y46866443D02*
X119164285Y46866443D01*
X119164285Y46866443D02*
X119035714Y46909300D01*
X119035714Y46909300D02*
X118949999Y46995015D01*
X118949999Y46995015D02*
X118907142Y47080729D01*
X118907142Y47080729D02*
X118864285Y47252158D01*
X118864285Y47252158D02*
X118864285Y47380729D01*
X118864285Y47380729D02*
X118907142Y47552158D01*
X118907142Y47552158D02*
X118949999Y47637872D01*
X118949999Y47637872D02*
X119035714Y47723586D01*
X119035714Y47723586D02*
X119164285Y47766443D01*
X119164285Y47766443D02*
X119249999Y47766443D01*
X119249999Y47766443D02*
X119378571Y47723586D01*
X119378571Y47723586D02*
X119421428Y47680729D01*
X120278571Y46866443D02*
X119764285Y46866443D01*
X120021428Y46866443D02*
X120021428Y47766443D01*
X120021428Y47766443D02*
X119935714Y47637872D01*
X119935714Y47637872D02*
X119849999Y47552158D01*
X119849999Y47552158D02*
X119764285Y47509300D01*
X120707142Y46866443D02*
X120878571Y46866443D01*
X120878571Y46866443D02*
X120964285Y46909300D01*
X120964285Y46909300D02*
X121007142Y46952158D01*
X121007142Y46952158D02*
X121092857Y47080729D01*
X121092857Y47080729D02*
X121135714Y47252158D01*
X121135714Y47252158D02*
X121135714Y47595015D01*
X121135714Y47595015D02*
X121092857Y47680729D01*
X121092857Y47680729D02*
X121050000Y47723586D01*
X121050000Y47723586D02*
X120964285Y47766443D01*
X120964285Y47766443D02*
X120792857Y47766443D01*
X120792857Y47766443D02*
X120707142Y47723586D01*
X120707142Y47723586D02*
X120664285Y47680729D01*
X120664285Y47680729D02*
X120621428Y47595015D01*
X120621428Y47595015D02*
X120621428Y47380729D01*
X120621428Y47380729D02*
X120664285Y47295015D01*
X120664285Y47295015D02*
X120707142Y47252158D01*
X120707142Y47252158D02*
X120792857Y47209300D01*
X120792857Y47209300D02*
X120964285Y47209300D01*
X120964285Y47209300D02*
X121050000Y47252158D01*
X121050000Y47252158D02*
X121092857Y47295015D01*
X121092857Y47295015D02*
X121135714Y47380729D01*
X85864286Y78616443D02*
X86378572Y78616443D01*
X86121429Y77716443D02*
X86121429Y78616443D01*
X86678571Y77716443D02*
X86678571Y78616443D01*
X86678571Y78616443D02*
X87021428Y78616443D01*
X87021428Y78616443D02*
X87107143Y78573586D01*
X87107143Y78573586D02*
X87150000Y78530729D01*
X87150000Y78530729D02*
X87192857Y78445015D01*
X87192857Y78445015D02*
X87192857Y78316443D01*
X87192857Y78316443D02*
X87150000Y78230729D01*
X87150000Y78230729D02*
X87107143Y78187872D01*
X87107143Y78187872D02*
X87021428Y78145015D01*
X87021428Y78145015D02*
X86678571Y78145015D01*
X87964286Y78316443D02*
X87964286Y77716443D01*
X87750000Y78659300D02*
X87535714Y78016443D01*
X87535714Y78016443D02*
X88092857Y78016443D01*
X138542857Y45236443D02*
X138542857Y46136443D01*
X138542857Y46136443D02*
X138885714Y46136443D01*
X138885714Y46136443D02*
X138971429Y46093586D01*
X138971429Y46093586D02*
X139014286Y46050729D01*
X139014286Y46050729D02*
X139057143Y45965015D01*
X139057143Y45965015D02*
X139057143Y45836443D01*
X139057143Y45836443D02*
X139014286Y45750729D01*
X139014286Y45750729D02*
X138971429Y45707872D01*
X138971429Y45707872D02*
X138885714Y45665015D01*
X138885714Y45665015D02*
X138542857Y45665015D01*
X139314286Y46136443D02*
X139828572Y46136443D01*
X139571429Y45236443D02*
X139571429Y46136443D01*
X140642857Y45322158D02*
X140600000Y45279300D01*
X140600000Y45279300D02*
X140471428Y45236443D01*
X140471428Y45236443D02*
X140385714Y45236443D01*
X140385714Y45236443D02*
X140257143Y45279300D01*
X140257143Y45279300D02*
X140171428Y45365015D01*
X140171428Y45365015D02*
X140128571Y45450729D01*
X140128571Y45450729D02*
X140085714Y45622158D01*
X140085714Y45622158D02*
X140085714Y45750729D01*
X140085714Y45750729D02*
X140128571Y45922158D01*
X140128571Y45922158D02*
X140171428Y46007872D01*
X140171428Y46007872D02*
X140257143Y46093586D01*
X140257143Y46093586D02*
X140385714Y46136443D01*
X140385714Y46136443D02*
X140471428Y46136443D01*
X140471428Y46136443D02*
X140600000Y46093586D01*
X140600000Y46093586D02*
X140642857Y46050729D01*
X140942857Y46136443D02*
X141500000Y46136443D01*
X141500000Y46136443D02*
X141200000Y45793586D01*
X141200000Y45793586D02*
X141328571Y45793586D01*
X141328571Y45793586D02*
X141414286Y45750729D01*
X141414286Y45750729D02*
X141457143Y45707872D01*
X141457143Y45707872D02*
X141500000Y45622158D01*
X141500000Y45622158D02*
X141500000Y45407872D01*
X141500000Y45407872D02*
X141457143Y45322158D01*
X141457143Y45322158D02*
X141414286Y45279300D01*
X141414286Y45279300D02*
X141328571Y45236443D01*
X141328571Y45236443D02*
X141071428Y45236443D01*
X141071428Y45236443D02*
X140985714Y45279300D01*
X140985714Y45279300D02*
X140942857Y45322158D01*
X60421428Y48952158D02*
X60378571Y48909300D01*
X60378571Y48909300D02*
X60249999Y48866443D01*
X60249999Y48866443D02*
X60164285Y48866443D01*
X60164285Y48866443D02*
X60035714Y48909300D01*
X60035714Y48909300D02*
X59949999Y48995015D01*
X59949999Y48995015D02*
X59907142Y49080729D01*
X59907142Y49080729D02*
X59864285Y49252158D01*
X59864285Y49252158D02*
X59864285Y49380729D01*
X59864285Y49380729D02*
X59907142Y49552158D01*
X59907142Y49552158D02*
X59949999Y49637872D01*
X59949999Y49637872D02*
X60035714Y49723586D01*
X60035714Y49723586D02*
X60164285Y49766443D01*
X60164285Y49766443D02*
X60249999Y49766443D01*
X60249999Y49766443D02*
X60378571Y49723586D01*
X60378571Y49723586D02*
X60421428Y49680729D01*
X60721428Y49766443D02*
X61278571Y49766443D01*
X61278571Y49766443D02*
X60978571Y49423586D01*
X60978571Y49423586D02*
X61107142Y49423586D01*
X61107142Y49423586D02*
X61192857Y49380729D01*
X61192857Y49380729D02*
X61235714Y49337872D01*
X61235714Y49337872D02*
X61278571Y49252158D01*
X61278571Y49252158D02*
X61278571Y49037872D01*
X61278571Y49037872D02*
X61235714Y48952158D01*
X61235714Y48952158D02*
X61192857Y48909300D01*
X61192857Y48909300D02*
X61107142Y48866443D01*
X61107142Y48866443D02*
X60849999Y48866443D01*
X60849999Y48866443D02*
X60764285Y48909300D01*
X60764285Y48909300D02*
X60721428Y48952158D01*
X61578571Y49766443D02*
X62135714Y49766443D01*
X62135714Y49766443D02*
X61835714Y49423586D01*
X61835714Y49423586D02*
X61964285Y49423586D01*
X61964285Y49423586D02*
X62050000Y49380729D01*
X62050000Y49380729D02*
X62092857Y49337872D01*
X62092857Y49337872D02*
X62135714Y49252158D01*
X62135714Y49252158D02*
X62135714Y49037872D01*
X62135714Y49037872D02*
X62092857Y48952158D01*
X62092857Y48952158D02*
X62050000Y48909300D01*
X62050000Y48909300D02*
X61964285Y48866443D01*
X61964285Y48866443D02*
X61707142Y48866443D01*
X61707142Y48866443D02*
X61621428Y48909300D01*
X61621428Y48909300D02*
X61578571Y48952158D01*
X53421428Y104512158D02*
X53378571Y104469300D01*
X53378571Y104469300D02*
X53249999Y104426443D01*
X53249999Y104426443D02*
X53164285Y104426443D01*
X53164285Y104426443D02*
X53035714Y104469300D01*
X53035714Y104469300D02*
X52949999Y104555015D01*
X52949999Y104555015D02*
X52907142Y104640729D01*
X52907142Y104640729D02*
X52864285Y104812158D01*
X52864285Y104812158D02*
X52864285Y104940729D01*
X52864285Y104940729D02*
X52907142Y105112158D01*
X52907142Y105112158D02*
X52949999Y105197872D01*
X52949999Y105197872D02*
X53035714Y105283586D01*
X53035714Y105283586D02*
X53164285Y105326443D01*
X53164285Y105326443D02*
X53249999Y105326443D01*
X53249999Y105326443D02*
X53378571Y105283586D01*
X53378571Y105283586D02*
X53421428Y105240729D01*
X53721428Y105326443D02*
X54278571Y105326443D01*
X54278571Y105326443D02*
X53978571Y104983586D01*
X53978571Y104983586D02*
X54107142Y104983586D01*
X54107142Y104983586D02*
X54192857Y104940729D01*
X54192857Y104940729D02*
X54235714Y104897872D01*
X54235714Y104897872D02*
X54278571Y104812158D01*
X54278571Y104812158D02*
X54278571Y104597872D01*
X54278571Y104597872D02*
X54235714Y104512158D01*
X54235714Y104512158D02*
X54192857Y104469300D01*
X54192857Y104469300D02*
X54107142Y104426443D01*
X54107142Y104426443D02*
X53849999Y104426443D01*
X53849999Y104426443D02*
X53764285Y104469300D01*
X53764285Y104469300D02*
X53721428Y104512158D01*
X54792857Y104940729D02*
X54707142Y104983586D01*
X54707142Y104983586D02*
X54664285Y105026443D01*
X54664285Y105026443D02*
X54621428Y105112158D01*
X54621428Y105112158D02*
X54621428Y105155015D01*
X54621428Y105155015D02*
X54664285Y105240729D01*
X54664285Y105240729D02*
X54707142Y105283586D01*
X54707142Y105283586D02*
X54792857Y105326443D01*
X54792857Y105326443D02*
X54964285Y105326443D01*
X54964285Y105326443D02*
X55050000Y105283586D01*
X55050000Y105283586D02*
X55092857Y105240729D01*
X55092857Y105240729D02*
X55135714Y105155015D01*
X55135714Y105155015D02*
X55135714Y105112158D01*
X55135714Y105112158D02*
X55092857Y105026443D01*
X55092857Y105026443D02*
X55050000Y104983586D01*
X55050000Y104983586D02*
X54964285Y104940729D01*
X54964285Y104940729D02*
X54792857Y104940729D01*
X54792857Y104940729D02*
X54707142Y104897872D01*
X54707142Y104897872D02*
X54664285Y104855015D01*
X54664285Y104855015D02*
X54621428Y104769300D01*
X54621428Y104769300D02*
X54621428Y104597872D01*
X54621428Y104597872D02*
X54664285Y104512158D01*
X54664285Y104512158D02*
X54707142Y104469300D01*
X54707142Y104469300D02*
X54792857Y104426443D01*
X54792857Y104426443D02*
X54964285Y104426443D01*
X54964285Y104426443D02*
X55050000Y104469300D01*
X55050000Y104469300D02*
X55092857Y104512158D01*
X55092857Y104512158D02*
X55135714Y104597872D01*
X55135714Y104597872D02*
X55135714Y104769300D01*
X55135714Y104769300D02*
X55092857Y104855015D01*
X55092857Y104855015D02*
X55050000Y104897872D01*
X55050000Y104897872D02*
X54964285Y104940729D01*
X136292857Y8591443D02*
X135864285Y8591443D01*
X135864285Y8591443D02*
X135864285Y9491443D01*
X136592856Y9062872D02*
X136892856Y9062872D01*
X137021428Y8591443D02*
X136592856Y8591443D01*
X136592856Y8591443D02*
X136592856Y9491443D01*
X136592856Y9491443D02*
X137021428Y9491443D01*
X137407142Y8591443D02*
X137407142Y9491443D01*
X137407142Y9491443D02*
X137621428Y9491443D01*
X137621428Y9491443D02*
X137749999Y9448586D01*
X137749999Y9448586D02*
X137835714Y9362872D01*
X137835714Y9362872D02*
X137878571Y9277158D01*
X137878571Y9277158D02*
X137921428Y9105729D01*
X137921428Y9105729D02*
X137921428Y8977158D01*
X137921428Y8977158D02*
X137878571Y8805729D01*
X137878571Y8805729D02*
X137835714Y8720015D01*
X137835714Y8720015D02*
X137749999Y8634300D01*
X137749999Y8634300D02*
X137621428Y8591443D01*
X137621428Y8591443D02*
X137407142Y8591443D01*
X138692857Y9191443D02*
X138692857Y8591443D01*
X138478571Y9534300D02*
X138264285Y8891443D01*
X138264285Y8891443D02*
X138821428Y8891443D01*
X94421428Y47442158D02*
X94378571Y47399300D01*
X94378571Y47399300D02*
X94249999Y47356443D01*
X94249999Y47356443D02*
X94164285Y47356443D01*
X94164285Y47356443D02*
X94035714Y47399300D01*
X94035714Y47399300D02*
X93949999Y47485015D01*
X93949999Y47485015D02*
X93907142Y47570729D01*
X93907142Y47570729D02*
X93864285Y47742158D01*
X93864285Y47742158D02*
X93864285Y47870729D01*
X93864285Y47870729D02*
X93907142Y48042158D01*
X93907142Y48042158D02*
X93949999Y48127872D01*
X93949999Y48127872D02*
X94035714Y48213586D01*
X94035714Y48213586D02*
X94164285Y48256443D01*
X94164285Y48256443D02*
X94249999Y48256443D01*
X94249999Y48256443D02*
X94378571Y48213586D01*
X94378571Y48213586D02*
X94421428Y48170729D01*
X95278571Y47356443D02*
X94764285Y47356443D01*
X95021428Y47356443D02*
X95021428Y48256443D01*
X95021428Y48256443D02*
X94935714Y48127872D01*
X94935714Y48127872D02*
X94849999Y48042158D01*
X94849999Y48042158D02*
X94764285Y47999300D01*
X96050000Y48256443D02*
X95878571Y48256443D01*
X95878571Y48256443D02*
X95792857Y48213586D01*
X95792857Y48213586D02*
X95750000Y48170729D01*
X95750000Y48170729D02*
X95664285Y48042158D01*
X95664285Y48042158D02*
X95621428Y47870729D01*
X95621428Y47870729D02*
X95621428Y47527872D01*
X95621428Y47527872D02*
X95664285Y47442158D01*
X95664285Y47442158D02*
X95707142Y47399300D01*
X95707142Y47399300D02*
X95792857Y47356443D01*
X95792857Y47356443D02*
X95964285Y47356443D01*
X95964285Y47356443D02*
X96050000Y47399300D01*
X96050000Y47399300D02*
X96092857Y47442158D01*
X96092857Y47442158D02*
X96135714Y47527872D01*
X96135714Y47527872D02*
X96135714Y47742158D01*
X96135714Y47742158D02*
X96092857Y47827872D01*
X96092857Y47827872D02*
X96050000Y47870729D01*
X96050000Y47870729D02*
X95964285Y47913586D01*
X95964285Y47913586D02*
X95792857Y47913586D01*
X95792857Y47913586D02*
X95707142Y47870729D01*
X95707142Y47870729D02*
X95664285Y47827872D01*
X95664285Y47827872D02*
X95621428Y47742158D01*
X68421428Y104132158D02*
X68378571Y104089300D01*
X68378571Y104089300D02*
X68249999Y104046443D01*
X68249999Y104046443D02*
X68164285Y104046443D01*
X68164285Y104046443D02*
X68035714Y104089300D01*
X68035714Y104089300D02*
X67949999Y104175015D01*
X67949999Y104175015D02*
X67907142Y104260729D01*
X67907142Y104260729D02*
X67864285Y104432158D01*
X67864285Y104432158D02*
X67864285Y104560729D01*
X67864285Y104560729D02*
X67907142Y104732158D01*
X67907142Y104732158D02*
X67949999Y104817872D01*
X67949999Y104817872D02*
X68035714Y104903586D01*
X68035714Y104903586D02*
X68164285Y104946443D01*
X68164285Y104946443D02*
X68249999Y104946443D01*
X68249999Y104946443D02*
X68378571Y104903586D01*
X68378571Y104903586D02*
X68421428Y104860729D01*
X69278571Y104046443D02*
X68764285Y104046443D01*
X69021428Y104046443D02*
X69021428Y104946443D01*
X69021428Y104946443D02*
X68935714Y104817872D01*
X68935714Y104817872D02*
X68849999Y104732158D01*
X68849999Y104732158D02*
X68764285Y104689300D01*
X70050000Y104646443D02*
X70050000Y104046443D01*
X69835714Y104989300D02*
X69621428Y104346443D01*
X69621428Y104346443D02*
X70178571Y104346443D01*
X55850000Y45626443D02*
X55550000Y46055015D01*
X55335714Y45626443D02*
X55335714Y46526443D01*
X55335714Y46526443D02*
X55678571Y46526443D01*
X55678571Y46526443D02*
X55764286Y46483586D01*
X55764286Y46483586D02*
X55807143Y46440729D01*
X55807143Y46440729D02*
X55850000Y46355015D01*
X55850000Y46355015D02*
X55850000Y46226443D01*
X55850000Y46226443D02*
X55807143Y46140729D01*
X55807143Y46140729D02*
X55764286Y46097872D01*
X55764286Y46097872D02*
X55678571Y46055015D01*
X55678571Y46055015D02*
X55335714Y46055015D01*
X56664286Y46526443D02*
X56235714Y46526443D01*
X56235714Y46526443D02*
X56192857Y46097872D01*
X56192857Y46097872D02*
X56235714Y46140729D01*
X56235714Y46140729D02*
X56321429Y46183586D01*
X56321429Y46183586D02*
X56535714Y46183586D01*
X56535714Y46183586D02*
X56621429Y46140729D01*
X56621429Y46140729D02*
X56664286Y46097872D01*
X56664286Y46097872D02*
X56707143Y46012158D01*
X56707143Y46012158D02*
X56707143Y45797872D01*
X56707143Y45797872D02*
X56664286Y45712158D01*
X56664286Y45712158D02*
X56621429Y45669300D01*
X56621429Y45669300D02*
X56535714Y45626443D01*
X56535714Y45626443D02*
X56321429Y45626443D01*
X56321429Y45626443D02*
X56235714Y45669300D01*
X56235714Y45669300D02*
X56192857Y45712158D01*
X110314285Y104466443D02*
X110314285Y103737872D01*
X110314285Y103737872D02*
X110357142Y103652158D01*
X110357142Y103652158D02*
X110400000Y103609300D01*
X110400000Y103609300D02*
X110485714Y103566443D01*
X110485714Y103566443D02*
X110657142Y103566443D01*
X110657142Y103566443D02*
X110742857Y103609300D01*
X110742857Y103609300D02*
X110785714Y103652158D01*
X110785714Y103652158D02*
X110828571Y103737872D01*
X110828571Y103737872D02*
X110828571Y104466443D01*
X111642857Y104466443D02*
X111471428Y104466443D01*
X111471428Y104466443D02*
X111385714Y104423586D01*
X111385714Y104423586D02*
X111342857Y104380729D01*
X111342857Y104380729D02*
X111257142Y104252158D01*
X111257142Y104252158D02*
X111214285Y104080729D01*
X111214285Y104080729D02*
X111214285Y103737872D01*
X111214285Y103737872D02*
X111257142Y103652158D01*
X111257142Y103652158D02*
X111299999Y103609300D01*
X111299999Y103609300D02*
X111385714Y103566443D01*
X111385714Y103566443D02*
X111557142Y103566443D01*
X111557142Y103566443D02*
X111642857Y103609300D01*
X111642857Y103609300D02*
X111685714Y103652158D01*
X111685714Y103652158D02*
X111728571Y103737872D01*
X111728571Y103737872D02*
X111728571Y103952158D01*
X111728571Y103952158D02*
X111685714Y104037872D01*
X111685714Y104037872D02*
X111642857Y104080729D01*
X111642857Y104080729D02*
X111557142Y104123586D01*
X111557142Y104123586D02*
X111385714Y104123586D01*
X111385714Y104123586D02*
X111299999Y104080729D01*
X111299999Y104080729D02*
X111257142Y104037872D01*
X111257142Y104037872D02*
X111214285Y103952158D01*
X126850000Y16726443D02*
X126550000Y17155015D01*
X126335714Y16726443D02*
X126335714Y17626443D01*
X126335714Y17626443D02*
X126678571Y17626443D01*
X126678571Y17626443D02*
X126764286Y17583586D01*
X126764286Y17583586D02*
X126807143Y17540729D01*
X126807143Y17540729D02*
X126850000Y17455015D01*
X126850000Y17455015D02*
X126850000Y17326443D01*
X126850000Y17326443D02*
X126807143Y17240729D01*
X126807143Y17240729D02*
X126764286Y17197872D01*
X126764286Y17197872D02*
X126678571Y17155015D01*
X126678571Y17155015D02*
X126335714Y17155015D01*
X127364286Y17240729D02*
X127278571Y17283586D01*
X127278571Y17283586D02*
X127235714Y17326443D01*
X127235714Y17326443D02*
X127192857Y17412158D01*
X127192857Y17412158D02*
X127192857Y17455015D01*
X127192857Y17455015D02*
X127235714Y17540729D01*
X127235714Y17540729D02*
X127278571Y17583586D01*
X127278571Y17583586D02*
X127364286Y17626443D01*
X127364286Y17626443D02*
X127535714Y17626443D01*
X127535714Y17626443D02*
X127621429Y17583586D01*
X127621429Y17583586D02*
X127664286Y17540729D01*
X127664286Y17540729D02*
X127707143Y17455015D01*
X127707143Y17455015D02*
X127707143Y17412158D01*
X127707143Y17412158D02*
X127664286Y17326443D01*
X127664286Y17326443D02*
X127621429Y17283586D01*
X127621429Y17283586D02*
X127535714Y17240729D01*
X127535714Y17240729D02*
X127364286Y17240729D01*
X127364286Y17240729D02*
X127278571Y17197872D01*
X127278571Y17197872D02*
X127235714Y17155015D01*
X127235714Y17155015D02*
X127192857Y17069300D01*
X127192857Y17069300D02*
X127192857Y16897872D01*
X127192857Y16897872D02*
X127235714Y16812158D01*
X127235714Y16812158D02*
X127278571Y16769300D01*
X127278571Y16769300D02*
X127364286Y16726443D01*
X127364286Y16726443D02*
X127535714Y16726443D01*
X127535714Y16726443D02*
X127621429Y16769300D01*
X127621429Y16769300D02*
X127664286Y16812158D01*
X127664286Y16812158D02*
X127707143Y16897872D01*
X127707143Y16897872D02*
X127707143Y17069300D01*
X127707143Y17069300D02*
X127664286Y17155015D01*
X127664286Y17155015D02*
X127621429Y17197872D01*
X127621429Y17197872D02*
X127535714Y17240729D01*
X44314285Y44366443D02*
X44314285Y43637872D01*
X44314285Y43637872D02*
X44357142Y43552158D01*
X44357142Y43552158D02*
X44400000Y43509300D01*
X44400000Y43509300D02*
X44485714Y43466443D01*
X44485714Y43466443D02*
X44657142Y43466443D01*
X44657142Y43466443D02*
X44742857Y43509300D01*
X44742857Y43509300D02*
X44785714Y43552158D01*
X44785714Y43552158D02*
X44828571Y43637872D01*
X44828571Y43637872D02*
X44828571Y44366443D01*
X45642857Y44066443D02*
X45642857Y43466443D01*
X45428571Y44409300D02*
X45214285Y43766443D01*
X45214285Y43766443D02*
X45771428Y43766443D01*
X50850000Y47356443D02*
X50550000Y47785015D01*
X50335714Y47356443D02*
X50335714Y48256443D01*
X50335714Y48256443D02*
X50678571Y48256443D01*
X50678571Y48256443D02*
X50764286Y48213586D01*
X50764286Y48213586D02*
X50807143Y48170729D01*
X50807143Y48170729D02*
X50850000Y48085015D01*
X50850000Y48085015D02*
X50850000Y47956443D01*
X50850000Y47956443D02*
X50807143Y47870729D01*
X50807143Y47870729D02*
X50764286Y47827872D01*
X50764286Y47827872D02*
X50678571Y47785015D01*
X50678571Y47785015D02*
X50335714Y47785015D01*
X51621429Y48256443D02*
X51450000Y48256443D01*
X51450000Y48256443D02*
X51364286Y48213586D01*
X51364286Y48213586D02*
X51321429Y48170729D01*
X51321429Y48170729D02*
X51235714Y48042158D01*
X51235714Y48042158D02*
X51192857Y47870729D01*
X51192857Y47870729D02*
X51192857Y47527872D01*
X51192857Y47527872D02*
X51235714Y47442158D01*
X51235714Y47442158D02*
X51278571Y47399300D01*
X51278571Y47399300D02*
X51364286Y47356443D01*
X51364286Y47356443D02*
X51535714Y47356443D01*
X51535714Y47356443D02*
X51621429Y47399300D01*
X51621429Y47399300D02*
X51664286Y47442158D01*
X51664286Y47442158D02*
X51707143Y47527872D01*
X51707143Y47527872D02*
X51707143Y47742158D01*
X51707143Y47742158D02*
X51664286Y47827872D01*
X51664286Y47827872D02*
X51621429Y47870729D01*
X51621429Y47870729D02*
X51535714Y47913586D01*
X51535714Y47913586D02*
X51364286Y47913586D01*
X51364286Y47913586D02*
X51278571Y47870729D01*
X51278571Y47870729D02*
X51235714Y47827872D01*
X51235714Y47827872D02*
X51192857Y47742158D01*
X58921428Y29677158D02*
X58878571Y29634300D01*
X58878571Y29634300D02*
X58749999Y29591443D01*
X58749999Y29591443D02*
X58664285Y29591443D01*
X58664285Y29591443D02*
X58535714Y29634300D01*
X58535714Y29634300D02*
X58449999Y29720015D01*
X58449999Y29720015D02*
X58407142Y29805729D01*
X58407142Y29805729D02*
X58364285Y29977158D01*
X58364285Y29977158D02*
X58364285Y30105729D01*
X58364285Y30105729D02*
X58407142Y30277158D01*
X58407142Y30277158D02*
X58449999Y30362872D01*
X58449999Y30362872D02*
X58535714Y30448586D01*
X58535714Y30448586D02*
X58664285Y30491443D01*
X58664285Y30491443D02*
X58749999Y30491443D01*
X58749999Y30491443D02*
X58878571Y30448586D01*
X58878571Y30448586D02*
X58921428Y30405729D01*
X59778571Y29591443D02*
X59264285Y29591443D01*
X59521428Y29591443D02*
X59521428Y30491443D01*
X59521428Y30491443D02*
X59435714Y30362872D01*
X59435714Y30362872D02*
X59349999Y30277158D01*
X59349999Y30277158D02*
X59264285Y30234300D01*
X60335714Y30491443D02*
X60421428Y30491443D01*
X60421428Y30491443D02*
X60507142Y30448586D01*
X60507142Y30448586D02*
X60550000Y30405729D01*
X60550000Y30405729D02*
X60592857Y30320015D01*
X60592857Y30320015D02*
X60635714Y30148586D01*
X60635714Y30148586D02*
X60635714Y29934300D01*
X60635714Y29934300D02*
X60592857Y29762872D01*
X60592857Y29762872D02*
X60550000Y29677158D01*
X60550000Y29677158D02*
X60507142Y29634300D01*
X60507142Y29634300D02*
X60421428Y29591443D01*
X60421428Y29591443D02*
X60335714Y29591443D01*
X60335714Y29591443D02*
X60250000Y29634300D01*
X60250000Y29634300D02*
X60207142Y29677158D01*
X60207142Y29677158D02*
X60164285Y29762872D01*
X60164285Y29762872D02*
X60121428Y29934300D01*
X60121428Y29934300D02*
X60121428Y30148586D01*
X60121428Y30148586D02*
X60164285Y30320015D01*
X60164285Y30320015D02*
X60207142Y30405729D01*
X60207142Y30405729D02*
X60250000Y30448586D01*
X60250000Y30448586D02*
X60335714Y30491443D01*
X119421428Y90952159D02*
X119378571Y90909301D01*
X119378571Y90909301D02*
X119249999Y90866444D01*
X119249999Y90866444D02*
X119164285Y90866444D01*
X119164285Y90866444D02*
X119035714Y90909301D01*
X119035714Y90909301D02*
X118949999Y90995016D01*
X118949999Y90995016D02*
X118907142Y91080730D01*
X118907142Y91080730D02*
X118864285Y91252159D01*
X118864285Y91252159D02*
X118864285Y91380730D01*
X118864285Y91380730D02*
X118907142Y91552159D01*
X118907142Y91552159D02*
X118949999Y91637873D01*
X118949999Y91637873D02*
X119035714Y91723587D01*
X119035714Y91723587D02*
X119164285Y91766444D01*
X119164285Y91766444D02*
X119249999Y91766444D01*
X119249999Y91766444D02*
X119378571Y91723587D01*
X119378571Y91723587D02*
X119421428Y91680730D01*
X120278571Y90866444D02*
X119764285Y90866444D01*
X120021428Y90866444D02*
X120021428Y91766444D01*
X120021428Y91766444D02*
X119935714Y91637873D01*
X119935714Y91637873D02*
X119849999Y91552159D01*
X119849999Y91552159D02*
X119764285Y91509301D01*
X120578571Y91766444D02*
X121178571Y91766444D01*
X121178571Y91766444D02*
X120792857Y90866444D01*
X68850000Y44366443D02*
X68421428Y44366443D01*
X68421428Y44366443D02*
X68421428Y45266443D01*
X69064285Y45266443D02*
X69621428Y45266443D01*
X69621428Y45266443D02*
X69321428Y44923586D01*
X69321428Y44923586D02*
X69449999Y44923586D01*
X69449999Y44923586D02*
X69535714Y44880729D01*
X69535714Y44880729D02*
X69578571Y44837872D01*
X69578571Y44837872D02*
X69621428Y44752158D01*
X69621428Y44752158D02*
X69621428Y44537872D01*
X69621428Y44537872D02*
X69578571Y44452158D01*
X69578571Y44452158D02*
X69535714Y44409300D01*
X69535714Y44409300D02*
X69449999Y44366443D01*
X69449999Y44366443D02*
X69192856Y44366443D01*
X69192856Y44366443D02*
X69107142Y44409300D01*
X69107142Y44409300D02*
X69064285Y44452158D01*
X74421428Y101632158D02*
X74378571Y101589300D01*
X74378571Y101589300D02*
X74249999Y101546443D01*
X74249999Y101546443D02*
X74164285Y101546443D01*
X74164285Y101546443D02*
X74035714Y101589300D01*
X74035714Y101589300D02*
X73949999Y101675015D01*
X73949999Y101675015D02*
X73907142Y101760729D01*
X73907142Y101760729D02*
X73864285Y101932158D01*
X73864285Y101932158D02*
X73864285Y102060729D01*
X73864285Y102060729D02*
X73907142Y102232158D01*
X73907142Y102232158D02*
X73949999Y102317872D01*
X73949999Y102317872D02*
X74035714Y102403586D01*
X74035714Y102403586D02*
X74164285Y102446443D01*
X74164285Y102446443D02*
X74249999Y102446443D01*
X74249999Y102446443D02*
X74378571Y102403586D01*
X74378571Y102403586D02*
X74421428Y102360729D01*
X74721428Y102446443D02*
X75278571Y102446443D01*
X75278571Y102446443D02*
X74978571Y102103586D01*
X74978571Y102103586D02*
X75107142Y102103586D01*
X75107142Y102103586D02*
X75192857Y102060729D01*
X75192857Y102060729D02*
X75235714Y102017872D01*
X75235714Y102017872D02*
X75278571Y101932158D01*
X75278571Y101932158D02*
X75278571Y101717872D01*
X75278571Y101717872D02*
X75235714Y101632158D01*
X75235714Y101632158D02*
X75192857Y101589300D01*
X75192857Y101589300D02*
X75107142Y101546443D01*
X75107142Y101546443D02*
X74849999Y101546443D01*
X74849999Y101546443D02*
X74764285Y101589300D01*
X74764285Y101589300D02*
X74721428Y101632158D01*
X76050000Y102446443D02*
X75878571Y102446443D01*
X75878571Y102446443D02*
X75792857Y102403586D01*
X75792857Y102403586D02*
X75750000Y102360729D01*
X75750000Y102360729D02*
X75664285Y102232158D01*
X75664285Y102232158D02*
X75621428Y102060729D01*
X75621428Y102060729D02*
X75621428Y101717872D01*
X75621428Y101717872D02*
X75664285Y101632158D01*
X75664285Y101632158D02*
X75707142Y101589300D01*
X75707142Y101589300D02*
X75792857Y101546443D01*
X75792857Y101546443D02*
X75964285Y101546443D01*
X75964285Y101546443D02*
X76050000Y101589300D01*
X76050000Y101589300D02*
X76092857Y101632158D01*
X76092857Y101632158D02*
X76135714Y101717872D01*
X76135714Y101717872D02*
X76135714Y101932158D01*
X76135714Y101932158D02*
X76092857Y102017872D01*
X76092857Y102017872D02*
X76050000Y102060729D01*
X76050000Y102060729D02*
X75964285Y102103586D01*
X75964285Y102103586D02*
X75792857Y102103586D01*
X75792857Y102103586D02*
X75707142Y102060729D01*
X75707142Y102060729D02*
X75664285Y102017872D01*
X75664285Y102017872D02*
X75621428Y101932158D01*
X85864286Y108616443D02*
X86378572Y108616443D01*
X86121429Y107716443D02*
X86121429Y108616443D01*
X86678571Y107716443D02*
X86678571Y108616443D01*
X86678571Y108616443D02*
X87021428Y108616443D01*
X87021428Y108616443D02*
X87107143Y108573586D01*
X87107143Y108573586D02*
X87150000Y108530729D01*
X87150000Y108530729D02*
X87192857Y108445015D01*
X87192857Y108445015D02*
X87192857Y108316443D01*
X87192857Y108316443D02*
X87150000Y108230729D01*
X87150000Y108230729D02*
X87107143Y108187872D01*
X87107143Y108187872D02*
X87021428Y108145015D01*
X87021428Y108145015D02*
X86678571Y108145015D01*
X87492857Y108616443D02*
X88050000Y108616443D01*
X88050000Y108616443D02*
X87750000Y108273586D01*
X87750000Y108273586D02*
X87878571Y108273586D01*
X87878571Y108273586D02*
X87964286Y108230729D01*
X87964286Y108230729D02*
X88007143Y108187872D01*
X88007143Y108187872D02*
X88050000Y108102158D01*
X88050000Y108102158D02*
X88050000Y107887872D01*
X88050000Y107887872D02*
X88007143Y107802158D01*
X88007143Y107802158D02*
X87964286Y107759300D01*
X87964286Y107759300D02*
X87878571Y107716443D01*
X87878571Y107716443D02*
X87621428Y107716443D01*
X87621428Y107716443D02*
X87535714Y107759300D01*
X87535714Y107759300D02*
X87492857Y107802158D01*
X68850000Y74366443D02*
X68421428Y74366443D01*
X68421428Y74366443D02*
X68421428Y75266443D01*
X69107142Y75180729D02*
X69149999Y75223586D01*
X69149999Y75223586D02*
X69235714Y75266443D01*
X69235714Y75266443D02*
X69449999Y75266443D01*
X69449999Y75266443D02*
X69535714Y75223586D01*
X69535714Y75223586D02*
X69578571Y75180729D01*
X69578571Y75180729D02*
X69621428Y75095015D01*
X69621428Y75095015D02*
X69621428Y75009300D01*
X69621428Y75009300D02*
X69578571Y74880729D01*
X69578571Y74880729D02*
X69064285Y74366443D01*
X69064285Y74366443D02*
X69621428Y74366443D01*
X129421428Y105626443D02*
X129121428Y106055015D01*
X128907142Y105626443D02*
X128907142Y106526443D01*
X128907142Y106526443D02*
X129249999Y106526443D01*
X129249999Y106526443D02*
X129335714Y106483586D01*
X129335714Y106483586D02*
X129378571Y106440729D01*
X129378571Y106440729D02*
X129421428Y106355015D01*
X129421428Y106355015D02*
X129421428Y106226443D01*
X129421428Y106226443D02*
X129378571Y106140729D01*
X129378571Y106140729D02*
X129335714Y106097872D01*
X129335714Y106097872D02*
X129249999Y106055015D01*
X129249999Y106055015D02*
X128907142Y106055015D01*
X129764285Y106440729D02*
X129807142Y106483586D01*
X129807142Y106483586D02*
X129892857Y106526443D01*
X129892857Y106526443D02*
X130107142Y106526443D01*
X130107142Y106526443D02*
X130192857Y106483586D01*
X130192857Y106483586D02*
X130235714Y106440729D01*
X130235714Y106440729D02*
X130278571Y106355015D01*
X130278571Y106355015D02*
X130278571Y106269300D01*
X130278571Y106269300D02*
X130235714Y106140729D01*
X130235714Y106140729D02*
X129721428Y105626443D01*
X129721428Y105626443D02*
X130278571Y105626443D01*
X130621428Y106440729D02*
X130664285Y106483586D01*
X130664285Y106483586D02*
X130750000Y106526443D01*
X130750000Y106526443D02*
X130964285Y106526443D01*
X130964285Y106526443D02*
X131050000Y106483586D01*
X131050000Y106483586D02*
X131092857Y106440729D01*
X131092857Y106440729D02*
X131135714Y106355015D01*
X131135714Y106355015D02*
X131135714Y106269300D01*
X131135714Y106269300D02*
X131092857Y106140729D01*
X131092857Y106140729D02*
X130578571Y105626443D01*
X130578571Y105626443D02*
X131135714Y105626443D01*
X56335714Y70166443D02*
X56335714Y71066443D01*
X56335714Y71066443D02*
X56550000Y71066443D01*
X56550000Y71066443D02*
X56678571Y71023586D01*
X56678571Y71023586D02*
X56764286Y70937872D01*
X56764286Y70937872D02*
X56807143Y70852158D01*
X56807143Y70852158D02*
X56850000Y70680729D01*
X56850000Y70680729D02*
X56850000Y70552158D01*
X56850000Y70552158D02*
X56807143Y70380729D01*
X56807143Y70380729D02*
X56764286Y70295015D01*
X56764286Y70295015D02*
X56678571Y70209300D01*
X56678571Y70209300D02*
X56550000Y70166443D01*
X56550000Y70166443D02*
X56335714Y70166443D01*
X57192857Y70980729D02*
X57235714Y71023586D01*
X57235714Y71023586D02*
X57321429Y71066443D01*
X57321429Y71066443D02*
X57535714Y71066443D01*
X57535714Y71066443D02*
X57621429Y71023586D01*
X57621429Y71023586D02*
X57664286Y70980729D01*
X57664286Y70980729D02*
X57707143Y70895015D01*
X57707143Y70895015D02*
X57707143Y70809300D01*
X57707143Y70809300D02*
X57664286Y70680729D01*
X57664286Y70680729D02*
X57150000Y70166443D01*
X57150000Y70166443D02*
X57707143Y70166443D01*
X46850000Y101626443D02*
X46550000Y102055015D01*
X46335714Y101626443D02*
X46335714Y102526443D01*
X46335714Y102526443D02*
X46678571Y102526443D01*
X46678571Y102526443D02*
X46764286Y102483586D01*
X46764286Y102483586D02*
X46807143Y102440729D01*
X46807143Y102440729D02*
X46850000Y102355015D01*
X46850000Y102355015D02*
X46850000Y102226443D01*
X46850000Y102226443D02*
X46807143Y102140729D01*
X46807143Y102140729D02*
X46764286Y102097872D01*
X46764286Y102097872D02*
X46678571Y102055015D01*
X46678571Y102055015D02*
X46335714Y102055015D01*
X47192857Y102440729D02*
X47235714Y102483586D01*
X47235714Y102483586D02*
X47321429Y102526443D01*
X47321429Y102526443D02*
X47535714Y102526443D01*
X47535714Y102526443D02*
X47621429Y102483586D01*
X47621429Y102483586D02*
X47664286Y102440729D01*
X47664286Y102440729D02*
X47707143Y102355015D01*
X47707143Y102355015D02*
X47707143Y102269300D01*
X47707143Y102269300D02*
X47664286Y102140729D01*
X47664286Y102140729D02*
X47150000Y101626443D01*
X47150000Y101626443D02*
X47707143Y101626443D01*
X138542857Y97091443D02*
X138542857Y97991443D01*
X138542857Y97991443D02*
X138885714Y97991443D01*
X138885714Y97991443D02*
X138971429Y97948586D01*
X138971429Y97948586D02*
X139014286Y97905729D01*
X139014286Y97905729D02*
X139057143Y97820015D01*
X139057143Y97820015D02*
X139057143Y97691443D01*
X139057143Y97691443D02*
X139014286Y97605729D01*
X139014286Y97605729D02*
X138971429Y97562872D01*
X138971429Y97562872D02*
X138885714Y97520015D01*
X138885714Y97520015D02*
X138542857Y97520015D01*
X139314286Y97991443D02*
X139828572Y97991443D01*
X139571429Y97091443D02*
X139571429Y97991443D01*
X140642857Y97177158D02*
X140600000Y97134300D01*
X140600000Y97134300D02*
X140471428Y97091443D01*
X140471428Y97091443D02*
X140385714Y97091443D01*
X140385714Y97091443D02*
X140257143Y97134300D01*
X140257143Y97134300D02*
X140171428Y97220015D01*
X140171428Y97220015D02*
X140128571Y97305729D01*
X140128571Y97305729D02*
X140085714Y97477158D01*
X140085714Y97477158D02*
X140085714Y97605729D01*
X140085714Y97605729D02*
X140128571Y97777158D01*
X140128571Y97777158D02*
X140171428Y97862872D01*
X140171428Y97862872D02*
X140257143Y97948586D01*
X140257143Y97948586D02*
X140385714Y97991443D01*
X140385714Y97991443D02*
X140471428Y97991443D01*
X140471428Y97991443D02*
X140600000Y97948586D01*
X140600000Y97948586D02*
X140642857Y97905729D01*
X141500000Y97091443D02*
X140985714Y97091443D01*
X141242857Y97091443D02*
X141242857Y97991443D01*
X141242857Y97991443D02*
X141157143Y97862872D01*
X141157143Y97862872D02*
X141071428Y97777158D01*
X141071428Y97777158D02*
X140985714Y97734300D01*
X122292857Y8591443D02*
X121864285Y8591443D01*
X121864285Y8591443D02*
X121864285Y9491443D01*
X122592856Y9062872D02*
X122892856Y9062872D01*
X123021428Y8591443D02*
X122592856Y8591443D01*
X122592856Y8591443D02*
X122592856Y9491443D01*
X122592856Y9491443D02*
X123021428Y9491443D01*
X123407142Y8591443D02*
X123407142Y9491443D01*
X123407142Y9491443D02*
X123621428Y9491443D01*
X123621428Y9491443D02*
X123749999Y9448586D01*
X123749999Y9448586D02*
X123835714Y9362872D01*
X123835714Y9362872D02*
X123878571Y9277158D01*
X123878571Y9277158D02*
X123921428Y9105729D01*
X123921428Y9105729D02*
X123921428Y8977158D01*
X123921428Y8977158D02*
X123878571Y8805729D01*
X123878571Y8805729D02*
X123835714Y8720015D01*
X123835714Y8720015D02*
X123749999Y8634300D01*
X123749999Y8634300D02*
X123621428Y8591443D01*
X123621428Y8591443D02*
X123407142Y8591443D01*
X124264285Y9405729D02*
X124307142Y9448586D01*
X124307142Y9448586D02*
X124392857Y9491443D01*
X124392857Y9491443D02*
X124607142Y9491443D01*
X124607142Y9491443D02*
X124692857Y9448586D01*
X124692857Y9448586D02*
X124735714Y9405729D01*
X124735714Y9405729D02*
X124778571Y9320015D01*
X124778571Y9320015D02*
X124778571Y9234300D01*
X124778571Y9234300D02*
X124735714Y9105729D01*
X124735714Y9105729D02*
X124221428Y8591443D01*
X124221428Y8591443D02*
X124778571Y8591443D01*
X142500000Y37146443D02*
X143014286Y37146443D01*
X142757143Y36246443D02*
X142757143Y37146443D01*
X143185714Y37146443D02*
X143485714Y36246443D01*
X143485714Y36246443D02*
X143785714Y37146443D01*
X144042857Y36289300D02*
X144171429Y36246443D01*
X144171429Y36246443D02*
X144385714Y36246443D01*
X144385714Y36246443D02*
X144471429Y36289300D01*
X144471429Y36289300D02*
X144514286Y36332158D01*
X144514286Y36332158D02*
X144557143Y36417872D01*
X144557143Y36417872D02*
X144557143Y36503586D01*
X144557143Y36503586D02*
X144514286Y36589300D01*
X144514286Y36589300D02*
X144471429Y36632158D01*
X144471429Y36632158D02*
X144385714Y36675015D01*
X144385714Y36675015D02*
X144214286Y36717872D01*
X144214286Y36717872D02*
X144128571Y36760729D01*
X144128571Y36760729D02*
X144085714Y36803586D01*
X144085714Y36803586D02*
X144042857Y36889300D01*
X144042857Y36889300D02*
X144042857Y36975015D01*
X144042857Y36975015D02*
X144085714Y37060729D01*
X144085714Y37060729D02*
X144128571Y37103586D01*
X144128571Y37103586D02*
X144214286Y37146443D01*
X144214286Y37146443D02*
X144428571Y37146443D01*
X144428571Y37146443D02*
X144557143Y37103586D01*
X144857143Y37146443D02*
X145414286Y37146443D01*
X145414286Y37146443D02*
X145114286Y36803586D01*
X145114286Y36803586D02*
X145242857Y36803586D01*
X145242857Y36803586D02*
X145328572Y36760729D01*
X145328572Y36760729D02*
X145371429Y36717872D01*
X145371429Y36717872D02*
X145414286Y36632158D01*
X145414286Y36632158D02*
X145414286Y36417872D01*
X145414286Y36417872D02*
X145371429Y36332158D01*
X145371429Y36332158D02*
X145328572Y36289300D01*
X145328572Y36289300D02*
X145242857Y36246443D01*
X145242857Y36246443D02*
X144985714Y36246443D01*
X144985714Y36246443D02*
X144900000Y36289300D01*
X144900000Y36289300D02*
X144857143Y36332158D01*
X110314285Y44466443D02*
X110314285Y43737872D01*
X110314285Y43737872D02*
X110357142Y43652158D01*
X110357142Y43652158D02*
X110400000Y43609300D01*
X110400000Y43609300D02*
X110485714Y43566443D01*
X110485714Y43566443D02*
X110657142Y43566443D01*
X110657142Y43566443D02*
X110742857Y43609300D01*
X110742857Y43609300D02*
X110785714Y43652158D01*
X110785714Y43652158D02*
X110828571Y43737872D01*
X110828571Y43737872D02*
X110828571Y44466443D01*
X111385714Y44080729D02*
X111299999Y44123586D01*
X111299999Y44123586D02*
X111257142Y44166443D01*
X111257142Y44166443D02*
X111214285Y44252158D01*
X111214285Y44252158D02*
X111214285Y44295015D01*
X111214285Y44295015D02*
X111257142Y44380729D01*
X111257142Y44380729D02*
X111299999Y44423586D01*
X111299999Y44423586D02*
X111385714Y44466443D01*
X111385714Y44466443D02*
X111557142Y44466443D01*
X111557142Y44466443D02*
X111642857Y44423586D01*
X111642857Y44423586D02*
X111685714Y44380729D01*
X111685714Y44380729D02*
X111728571Y44295015D01*
X111728571Y44295015D02*
X111728571Y44252158D01*
X111728571Y44252158D02*
X111685714Y44166443D01*
X111685714Y44166443D02*
X111642857Y44123586D01*
X111642857Y44123586D02*
X111557142Y44080729D01*
X111557142Y44080729D02*
X111385714Y44080729D01*
X111385714Y44080729D02*
X111299999Y44037872D01*
X111299999Y44037872D02*
X111257142Y43995015D01*
X111257142Y43995015D02*
X111214285Y43909300D01*
X111214285Y43909300D02*
X111214285Y43737872D01*
X111214285Y43737872D02*
X111257142Y43652158D01*
X111257142Y43652158D02*
X111299999Y43609300D01*
X111299999Y43609300D02*
X111385714Y43566443D01*
X111385714Y43566443D02*
X111557142Y43566443D01*
X111557142Y43566443D02*
X111642857Y43609300D01*
X111642857Y43609300D02*
X111685714Y43652158D01*
X111685714Y43652158D02*
X111728571Y43737872D01*
X111728571Y43737872D02*
X111728571Y43909300D01*
X111728571Y43909300D02*
X111685714Y43995015D01*
X111685714Y43995015D02*
X111642857Y44037872D01*
X111642857Y44037872D02*
X111557142Y44080729D01*
X129421428Y75626443D02*
X129121428Y76055015D01*
X128907142Y75626443D02*
X128907142Y76526443D01*
X128907142Y76526443D02*
X129249999Y76526443D01*
X129249999Y76526443D02*
X129335714Y76483586D01*
X129335714Y76483586D02*
X129378571Y76440729D01*
X129378571Y76440729D02*
X129421428Y76355015D01*
X129421428Y76355015D02*
X129421428Y76226443D01*
X129421428Y76226443D02*
X129378571Y76140729D01*
X129378571Y76140729D02*
X129335714Y76097872D01*
X129335714Y76097872D02*
X129249999Y76055015D01*
X129249999Y76055015D02*
X128907142Y76055015D01*
X129764285Y76440729D02*
X129807142Y76483586D01*
X129807142Y76483586D02*
X129892857Y76526443D01*
X129892857Y76526443D02*
X130107142Y76526443D01*
X130107142Y76526443D02*
X130192857Y76483586D01*
X130192857Y76483586D02*
X130235714Y76440729D01*
X130235714Y76440729D02*
X130278571Y76355015D01*
X130278571Y76355015D02*
X130278571Y76269300D01*
X130278571Y76269300D02*
X130235714Y76140729D01*
X130235714Y76140729D02*
X129721428Y75626443D01*
X129721428Y75626443D02*
X130278571Y75626443D01*
X131092857Y76526443D02*
X130664285Y76526443D01*
X130664285Y76526443D02*
X130621428Y76097872D01*
X130621428Y76097872D02*
X130664285Y76140729D01*
X130664285Y76140729D02*
X130750000Y76183586D01*
X130750000Y76183586D02*
X130964285Y76183586D01*
X130964285Y76183586D02*
X131050000Y76140729D01*
X131050000Y76140729D02*
X131092857Y76097872D01*
X131092857Y76097872D02*
X131135714Y76012158D01*
X131135714Y76012158D02*
X131135714Y75797872D01*
X131135714Y75797872D02*
X131092857Y75712158D01*
X131092857Y75712158D02*
X131050000Y75669300D01*
X131050000Y75669300D02*
X130964285Y75626443D01*
X130964285Y75626443D02*
X130750000Y75626443D01*
X130750000Y75626443D02*
X130664285Y75669300D01*
X130664285Y75669300D02*
X130621428Y75712158D01*
X142500000Y67146443D02*
X143014286Y67146443D01*
X142757143Y66246443D02*
X142757143Y67146443D01*
X143185714Y67146443D02*
X143485714Y66246443D01*
X143485714Y66246443D02*
X143785714Y67146443D01*
X144042857Y66289300D02*
X144171429Y66246443D01*
X144171429Y66246443D02*
X144385714Y66246443D01*
X144385714Y66246443D02*
X144471429Y66289300D01*
X144471429Y66289300D02*
X144514286Y66332158D01*
X144514286Y66332158D02*
X144557143Y66417872D01*
X144557143Y66417872D02*
X144557143Y66503586D01*
X144557143Y66503586D02*
X144514286Y66589300D01*
X144514286Y66589300D02*
X144471429Y66632158D01*
X144471429Y66632158D02*
X144385714Y66675015D01*
X144385714Y66675015D02*
X144214286Y66717872D01*
X144214286Y66717872D02*
X144128571Y66760729D01*
X144128571Y66760729D02*
X144085714Y66803586D01*
X144085714Y66803586D02*
X144042857Y66889300D01*
X144042857Y66889300D02*
X144042857Y66975015D01*
X144042857Y66975015D02*
X144085714Y67060729D01*
X144085714Y67060729D02*
X144128571Y67103586D01*
X144128571Y67103586D02*
X144214286Y67146443D01*
X144214286Y67146443D02*
X144428571Y67146443D01*
X144428571Y67146443D02*
X144557143Y67103586D01*
X144900000Y67060729D02*
X144942857Y67103586D01*
X144942857Y67103586D02*
X145028572Y67146443D01*
X145028572Y67146443D02*
X145242857Y67146443D01*
X145242857Y67146443D02*
X145328572Y67103586D01*
X145328572Y67103586D02*
X145371429Y67060729D01*
X145371429Y67060729D02*
X145414286Y66975015D01*
X145414286Y66975015D02*
X145414286Y66889300D01*
X145414286Y66889300D02*
X145371429Y66760729D01*
X145371429Y66760729D02*
X144857143Y66246443D01*
X144857143Y66246443D02*
X145414286Y66246443D01*
X110314285Y74466443D02*
X110314285Y73737872D01*
X110314285Y73737872D02*
X110357142Y73652158D01*
X110357142Y73652158D02*
X110400000Y73609300D01*
X110400000Y73609300D02*
X110485714Y73566443D01*
X110485714Y73566443D02*
X110657142Y73566443D01*
X110657142Y73566443D02*
X110742857Y73609300D01*
X110742857Y73609300D02*
X110785714Y73652158D01*
X110785714Y73652158D02*
X110828571Y73737872D01*
X110828571Y73737872D02*
X110828571Y74466443D01*
X111171428Y74466443D02*
X111771428Y74466443D01*
X111771428Y74466443D02*
X111385714Y73566443D01*
X45850000Y60282159D02*
X45807143Y60239301D01*
X45807143Y60239301D02*
X45678571Y60196444D01*
X45678571Y60196444D02*
X45592857Y60196444D01*
X45592857Y60196444D02*
X45464286Y60239301D01*
X45464286Y60239301D02*
X45378571Y60325016D01*
X45378571Y60325016D02*
X45335714Y60410730D01*
X45335714Y60410730D02*
X45292857Y60582159D01*
X45292857Y60582159D02*
X45292857Y60710730D01*
X45292857Y60710730D02*
X45335714Y60882159D01*
X45335714Y60882159D02*
X45378571Y60967873D01*
X45378571Y60967873D02*
X45464286Y61053587D01*
X45464286Y61053587D02*
X45592857Y61096444D01*
X45592857Y61096444D02*
X45678571Y61096444D01*
X45678571Y61096444D02*
X45807143Y61053587D01*
X45807143Y61053587D02*
X45850000Y61010730D01*
X46150000Y61096444D02*
X46750000Y61096444D01*
X46750000Y61096444D02*
X46364286Y60196444D01*
X34850000Y98802158D02*
X34807143Y98759300D01*
X34807143Y98759300D02*
X34678571Y98716443D01*
X34678571Y98716443D02*
X34592857Y98716443D01*
X34592857Y98716443D02*
X34464286Y98759300D01*
X34464286Y98759300D02*
X34378571Y98845015D01*
X34378571Y98845015D02*
X34335714Y98930729D01*
X34335714Y98930729D02*
X34292857Y99102158D01*
X34292857Y99102158D02*
X34292857Y99230729D01*
X34292857Y99230729D02*
X34335714Y99402158D01*
X34335714Y99402158D02*
X34378571Y99487872D01*
X34378571Y99487872D02*
X34464286Y99573586D01*
X34464286Y99573586D02*
X34592857Y99616443D01*
X34592857Y99616443D02*
X34678571Y99616443D01*
X34678571Y99616443D02*
X34807143Y99573586D01*
X34807143Y99573586D02*
X34850000Y99530729D01*
X35664286Y99616443D02*
X35235714Y99616443D01*
X35235714Y99616443D02*
X35192857Y99187872D01*
X35192857Y99187872D02*
X35235714Y99230729D01*
X35235714Y99230729D02*
X35321429Y99273586D01*
X35321429Y99273586D02*
X35535714Y99273586D01*
X35535714Y99273586D02*
X35621429Y99230729D01*
X35621429Y99230729D02*
X35664286Y99187872D01*
X35664286Y99187872D02*
X35707143Y99102158D01*
X35707143Y99102158D02*
X35707143Y98887872D01*
X35707143Y98887872D02*
X35664286Y98802158D01*
X35664286Y98802158D02*
X35621429Y98759300D01*
X35621429Y98759300D02*
X35535714Y98716443D01*
X35535714Y98716443D02*
X35321429Y98716443D01*
X35321429Y98716443D02*
X35235714Y98759300D01*
X35235714Y98759300D02*
X35192857Y98802158D01*
X133421428Y30282158D02*
X133378571Y30239300D01*
X133378571Y30239300D02*
X133249999Y30196443D01*
X133249999Y30196443D02*
X133164285Y30196443D01*
X133164285Y30196443D02*
X133035714Y30239300D01*
X133035714Y30239300D02*
X132949999Y30325015D01*
X132949999Y30325015D02*
X132907142Y30410729D01*
X132907142Y30410729D02*
X132864285Y30582158D01*
X132864285Y30582158D02*
X132864285Y30710729D01*
X132864285Y30710729D02*
X132907142Y30882158D01*
X132907142Y30882158D02*
X132949999Y30967872D01*
X132949999Y30967872D02*
X133035714Y31053586D01*
X133035714Y31053586D02*
X133164285Y31096443D01*
X133164285Y31096443D02*
X133249999Y31096443D01*
X133249999Y31096443D02*
X133378571Y31053586D01*
X133378571Y31053586D02*
X133421428Y31010729D01*
X133764285Y31010729D02*
X133807142Y31053586D01*
X133807142Y31053586D02*
X133892857Y31096443D01*
X133892857Y31096443D02*
X134107142Y31096443D01*
X134107142Y31096443D02*
X134192857Y31053586D01*
X134192857Y31053586D02*
X134235714Y31010729D01*
X134235714Y31010729D02*
X134278571Y30925015D01*
X134278571Y30925015D02*
X134278571Y30839300D01*
X134278571Y30839300D02*
X134235714Y30710729D01*
X134235714Y30710729D02*
X133721428Y30196443D01*
X133721428Y30196443D02*
X134278571Y30196443D01*
X135092857Y31096443D02*
X134664285Y31096443D01*
X134664285Y31096443D02*
X134621428Y30667872D01*
X134621428Y30667872D02*
X134664285Y30710729D01*
X134664285Y30710729D02*
X134750000Y30753586D01*
X134750000Y30753586D02*
X134964285Y30753586D01*
X134964285Y30753586D02*
X135050000Y30710729D01*
X135050000Y30710729D02*
X135092857Y30667872D01*
X135092857Y30667872D02*
X135135714Y30582158D01*
X135135714Y30582158D02*
X135135714Y30367872D01*
X135135714Y30367872D02*
X135092857Y30282158D01*
X135092857Y30282158D02*
X135050000Y30239300D01*
X135050000Y30239300D02*
X134964285Y30196443D01*
X134964285Y30196443D02*
X134750000Y30196443D01*
X134750000Y30196443D02*
X134664285Y30239300D01*
X134664285Y30239300D02*
X134621428Y30282158D01*
X12235714Y74091443D02*
X12235714Y74991443D01*
X12235714Y74991443D02*
X12578571Y74991443D01*
X12578571Y74991443D02*
X12664286Y74948586D01*
X12664286Y74948586D02*
X12707143Y74905729D01*
X12707143Y74905729D02*
X12750000Y74820015D01*
X12750000Y74820015D02*
X12750000Y74691443D01*
X12750000Y74691443D02*
X12707143Y74605729D01*
X12707143Y74605729D02*
X12664286Y74562872D01*
X12664286Y74562872D02*
X12578571Y74520015D01*
X12578571Y74520015D02*
X12235714Y74520015D01*
X13607143Y74091443D02*
X13092857Y74091443D01*
X13350000Y74091443D02*
X13350000Y74991443D01*
X13350000Y74991443D02*
X13264286Y74862872D01*
X13264286Y74862872D02*
X13178571Y74777158D01*
X13178571Y74777158D02*
X13092857Y74734300D01*
D11*
X8289999Y68664717D02*
X8670952Y68664717D01*
X8213809Y68436145D02*
X8480476Y69236145D01*
X8480476Y69236145D02*
X8747142Y68436145D01*
X8899523Y69236145D02*
X9356666Y69236145D01*
X9128094Y68436145D02*
X9128094Y69236145D01*
X9509047Y69236145D02*
X9966190Y69236145D01*
X9737618Y68436145D02*
X9737618Y69236145D01*
X10201429Y68436145D02*
X10201429Y69236145D01*
X10201429Y69236145D02*
X10506191Y69236145D01*
X10506191Y69236145D02*
X10582381Y69198050D01*
X10582381Y69198050D02*
X10620476Y69159955D01*
X10620476Y69159955D02*
X10658572Y69083764D01*
X10658572Y69083764D02*
X10658572Y68969479D01*
X10658572Y68969479D02*
X10620476Y68893288D01*
X10620476Y68893288D02*
X10582381Y68855193D01*
X10582381Y68855193D02*
X10506191Y68817098D01*
X10506191Y68817098D02*
X10201429Y68817098D01*
X11001429Y68436145D02*
X11001429Y69236145D01*
X11001429Y69236145D02*
X11191905Y69236145D01*
X11191905Y69236145D02*
X11306191Y69198050D01*
X11306191Y69198050D02*
X11382381Y69121860D01*
X11382381Y69121860D02*
X11420476Y69045669D01*
X11420476Y69045669D02*
X11458572Y68893288D01*
X11458572Y68893288D02*
X11458572Y68779002D01*
X11458572Y68779002D02*
X11420476Y68626621D01*
X11420476Y68626621D02*
X11382381Y68550431D01*
X11382381Y68550431D02*
X11306191Y68474240D01*
X11306191Y68474240D02*
X11191905Y68436145D01*
X11191905Y68436145D02*
X11001429Y68436145D01*
X11953810Y69236145D02*
X12106191Y69236145D01*
X12106191Y69236145D02*
X12182381Y69198050D01*
X12182381Y69198050D02*
X12258572Y69121860D01*
X12258572Y69121860D02*
X12296667Y68969479D01*
X12296667Y68969479D02*
X12296667Y68702812D01*
X12296667Y68702812D02*
X12258572Y68550431D01*
X12258572Y68550431D02*
X12182381Y68474240D01*
X12182381Y68474240D02*
X12106191Y68436145D01*
X12106191Y68436145D02*
X11953810Y68436145D01*
X11953810Y68436145D02*
X11877619Y68474240D01*
X11877619Y68474240D02*
X11801429Y68550431D01*
X11801429Y68550431D02*
X11763333Y68702812D01*
X11763333Y68702812D02*
X11763333Y68969479D01*
X11763333Y68969479D02*
X11801429Y69121860D01*
X11801429Y69121860D02*
X11877619Y69198050D01*
X11877619Y69198050D02*
X11953810Y69236145D01*
X12639524Y68436145D02*
X12639524Y69236145D01*
X13096667Y68436145D02*
X12753809Y68893288D01*
X13096667Y69236145D02*
X12639524Y68779002D01*
X13560476Y69198050D02*
X13484286Y69236145D01*
X13484286Y69236145D02*
X13370000Y69236145D01*
X13370000Y69236145D02*
X13255714Y69198050D01*
X13255714Y69198050D02*
X13179524Y69121860D01*
X13179524Y69121860D02*
X13141429Y69045669D01*
X13141429Y69045669D02*
X13103333Y68893288D01*
X13103333Y68893288D02*
X13103333Y68779002D01*
X13103333Y68779002D02*
X13141429Y68626621D01*
X13141429Y68626621D02*
X13179524Y68550431D01*
X13179524Y68550431D02*
X13255714Y68474240D01*
X13255714Y68474240D02*
X13370000Y68436145D01*
X13370000Y68436145D02*
X13446191Y68436145D01*
X13446191Y68436145D02*
X13560476Y68474240D01*
X13560476Y68474240D02*
X13598572Y68512336D01*
X13598572Y68512336D02*
X13598572Y68779002D01*
X13598572Y68779002D02*
X13446191Y68779002D01*
X13941429Y68436145D02*
X13941429Y69236145D01*
X13941429Y69236145D02*
X14398572Y68436145D01*
X14398572Y68436145D02*
X14398572Y69236145D01*
X14779524Y68436145D02*
X14779524Y69236145D01*
X14779524Y69236145D02*
X14970000Y69236145D01*
X14970000Y69236145D02*
X15084286Y69198050D01*
X15084286Y69198050D02*
X15160476Y69121860D01*
X15160476Y69121860D02*
X15198571Y69045669D01*
X15198571Y69045669D02*
X15236667Y68893288D01*
X15236667Y68893288D02*
X15236667Y68779002D01*
X15236667Y68779002D02*
X15198571Y68626621D01*
X15198571Y68626621D02*
X15160476Y68550431D01*
X15160476Y68550431D02*
X15084286Y68474240D01*
X15084286Y68474240D02*
X14970000Y68436145D01*
X14970000Y68436145D02*
X14779524Y68436145D01*
X16081429Y68436145D02*
X16081429Y69236145D01*
X16081429Y69236145D02*
X16538572Y68436145D01*
X16538572Y68436145D02*
X16538572Y69236145D01*
X17376667Y68512336D02*
X17338571Y68474240D01*
X17338571Y68474240D02*
X17224286Y68436145D01*
X17224286Y68436145D02*
X17148095Y68436145D01*
X17148095Y68436145D02*
X17033809Y68474240D01*
X17033809Y68474240D02*
X16957619Y68550431D01*
X16957619Y68550431D02*
X16919524Y68626621D01*
X16919524Y68626621D02*
X16881428Y68779002D01*
X16881428Y68779002D02*
X16881428Y68893288D01*
X16881428Y68893288D02*
X16919524Y69045669D01*
X16919524Y69045669D02*
X16957619Y69121860D01*
X16957619Y69121860D02*
X17033809Y69198050D01*
X17033809Y69198050D02*
X17148095Y69236145D01*
X17148095Y69236145D02*
X17224286Y69236145D01*
X17224286Y69236145D02*
X17338571Y69198050D01*
X17338571Y69198050D02*
X17376667Y69159955D01*
D10*
X127421428Y61677158D02*
X127378571Y61634300D01*
X127378571Y61634300D02*
X127249999Y61591443D01*
X127249999Y61591443D02*
X127164285Y61591443D01*
X127164285Y61591443D02*
X127035714Y61634300D01*
X127035714Y61634300D02*
X126949999Y61720015D01*
X126949999Y61720015D02*
X126907142Y61805729D01*
X126907142Y61805729D02*
X126864285Y61977158D01*
X126864285Y61977158D02*
X126864285Y62105729D01*
X126864285Y62105729D02*
X126907142Y62277158D01*
X126907142Y62277158D02*
X126949999Y62362872D01*
X126949999Y62362872D02*
X127035714Y62448586D01*
X127035714Y62448586D02*
X127164285Y62491443D01*
X127164285Y62491443D02*
X127249999Y62491443D01*
X127249999Y62491443D02*
X127378571Y62448586D01*
X127378571Y62448586D02*
X127421428Y62405729D01*
X128192857Y62191443D02*
X128192857Y61591443D01*
X127978571Y62534300D02*
X127764285Y61891443D01*
X127764285Y61891443D02*
X128321428Y61891443D01*
X129135714Y61591443D02*
X128621428Y61591443D01*
X128878571Y61591443D02*
X128878571Y62491443D01*
X128878571Y62491443D02*
X128792857Y62362872D01*
X128792857Y62362872D02*
X128707142Y62277158D01*
X128707142Y62277158D02*
X128621428Y62234300D01*
X94421428Y38802158D02*
X94378571Y38759300D01*
X94378571Y38759300D02*
X94249999Y38716443D01*
X94249999Y38716443D02*
X94164285Y38716443D01*
X94164285Y38716443D02*
X94035714Y38759300D01*
X94035714Y38759300D02*
X93949999Y38845015D01*
X93949999Y38845015D02*
X93907142Y38930729D01*
X93907142Y38930729D02*
X93864285Y39102158D01*
X93864285Y39102158D02*
X93864285Y39230729D01*
X93864285Y39230729D02*
X93907142Y39402158D01*
X93907142Y39402158D02*
X93949999Y39487872D01*
X93949999Y39487872D02*
X94035714Y39573586D01*
X94035714Y39573586D02*
X94164285Y39616443D01*
X94164285Y39616443D02*
X94249999Y39616443D01*
X94249999Y39616443D02*
X94378571Y39573586D01*
X94378571Y39573586D02*
X94421428Y39530729D01*
X94764285Y39530729D02*
X94807142Y39573586D01*
X94807142Y39573586D02*
X94892857Y39616443D01*
X94892857Y39616443D02*
X95107142Y39616443D01*
X95107142Y39616443D02*
X95192857Y39573586D01*
X95192857Y39573586D02*
X95235714Y39530729D01*
X95235714Y39530729D02*
X95278571Y39445015D01*
X95278571Y39445015D02*
X95278571Y39359300D01*
X95278571Y39359300D02*
X95235714Y39230729D01*
X95235714Y39230729D02*
X94721428Y38716443D01*
X94721428Y38716443D02*
X95278571Y38716443D01*
X96050000Y39316443D02*
X96050000Y38716443D01*
X95835714Y39659300D02*
X95621428Y39016443D01*
X95621428Y39016443D02*
X96178571Y39016443D01*
X9700000Y31966443D02*
X9700000Y31323586D01*
X9700000Y31323586D02*
X9657143Y31195015D01*
X9657143Y31195015D02*
X9571429Y31109300D01*
X9571429Y31109300D02*
X9442857Y31066443D01*
X9442857Y31066443D02*
X9357143Y31066443D01*
X10042857Y31966443D02*
X10642857Y31966443D01*
X10642857Y31966443D02*
X10257143Y31066443D01*
X54271428Y16266443D02*
X54271428Y15623586D01*
X54271428Y15623586D02*
X54228571Y15495015D01*
X54228571Y15495015D02*
X54142857Y15409300D01*
X54142857Y15409300D02*
X54014285Y15366443D01*
X54014285Y15366443D02*
X53928571Y15366443D01*
X55171428Y15366443D02*
X54657142Y15366443D01*
X54914285Y15366443D02*
X54914285Y16266443D01*
X54914285Y16266443D02*
X54828571Y16137872D01*
X54828571Y16137872D02*
X54742856Y16052158D01*
X54742856Y16052158D02*
X54657142Y16009300D01*
X55728571Y16266443D02*
X55814285Y16266443D01*
X55814285Y16266443D02*
X55899999Y16223586D01*
X55899999Y16223586D02*
X55942857Y16180729D01*
X55942857Y16180729D02*
X55985714Y16095015D01*
X55985714Y16095015D02*
X56028571Y15923586D01*
X56028571Y15923586D02*
X56028571Y15709300D01*
X56028571Y15709300D02*
X55985714Y15537872D01*
X55985714Y15537872D02*
X55942857Y15452158D01*
X55942857Y15452158D02*
X55899999Y15409300D01*
X55899999Y15409300D02*
X55814285Y15366443D01*
X55814285Y15366443D02*
X55728571Y15366443D01*
X55728571Y15366443D02*
X55642857Y15409300D01*
X55642857Y15409300D02*
X55599999Y15452158D01*
X55599999Y15452158D02*
X55557142Y15537872D01*
X55557142Y15537872D02*
X55514285Y15709300D01*
X55514285Y15709300D02*
X55514285Y15923586D01*
X55514285Y15923586D02*
X55557142Y16095015D01*
X55557142Y16095015D02*
X55599999Y16180729D01*
X55599999Y16180729D02*
X55642857Y16223586D01*
X55642857Y16223586D02*
X55728571Y16266443D01*
X95271428Y16266443D02*
X95271428Y15623586D01*
X95271428Y15623586D02*
X95228571Y15495015D01*
X95228571Y15495015D02*
X95142857Y15409300D01*
X95142857Y15409300D02*
X95014285Y15366443D01*
X95014285Y15366443D02*
X94928571Y15366443D01*
X96171428Y15366443D02*
X95657142Y15366443D01*
X95914285Y15366443D02*
X95914285Y16266443D01*
X95914285Y16266443D02*
X95828571Y16137872D01*
X95828571Y16137872D02*
X95742856Y16052158D01*
X95742856Y16052158D02*
X95657142Y16009300D01*
X97028571Y15366443D02*
X96514285Y15366443D01*
X96771428Y15366443D02*
X96771428Y16266443D01*
X96771428Y16266443D02*
X96685714Y16137872D01*
X96685714Y16137872D02*
X96599999Y16052158D01*
X96599999Y16052158D02*
X96514285Y16009300D01*
X119421428Y60952158D02*
X119378571Y60909300D01*
X119378571Y60909300D02*
X119249999Y60866443D01*
X119249999Y60866443D02*
X119164285Y60866443D01*
X119164285Y60866443D02*
X119035714Y60909300D01*
X119035714Y60909300D02*
X118949999Y60995015D01*
X118949999Y60995015D02*
X118907142Y61080729D01*
X118907142Y61080729D02*
X118864285Y61252158D01*
X118864285Y61252158D02*
X118864285Y61380729D01*
X118864285Y61380729D02*
X118907142Y61552158D01*
X118907142Y61552158D02*
X118949999Y61637872D01*
X118949999Y61637872D02*
X119035714Y61723586D01*
X119035714Y61723586D02*
X119164285Y61766443D01*
X119164285Y61766443D02*
X119249999Y61766443D01*
X119249999Y61766443D02*
X119378571Y61723586D01*
X119378571Y61723586D02*
X119421428Y61680729D01*
X120278571Y60866443D02*
X119764285Y60866443D01*
X120021428Y60866443D02*
X120021428Y61766443D01*
X120021428Y61766443D02*
X119935714Y61637872D01*
X119935714Y61637872D02*
X119849999Y61552158D01*
X119849999Y61552158D02*
X119764285Y61509300D01*
X120792857Y61380729D02*
X120707142Y61423586D01*
X120707142Y61423586D02*
X120664285Y61466443D01*
X120664285Y61466443D02*
X120621428Y61552158D01*
X120621428Y61552158D02*
X120621428Y61595015D01*
X120621428Y61595015D02*
X120664285Y61680729D01*
X120664285Y61680729D02*
X120707142Y61723586D01*
X120707142Y61723586D02*
X120792857Y61766443D01*
X120792857Y61766443D02*
X120964285Y61766443D01*
X120964285Y61766443D02*
X121050000Y61723586D01*
X121050000Y61723586D02*
X121092857Y61680729D01*
X121092857Y61680729D02*
X121135714Y61595015D01*
X121135714Y61595015D02*
X121135714Y61552158D01*
X121135714Y61552158D02*
X121092857Y61466443D01*
X121092857Y61466443D02*
X121050000Y61423586D01*
X121050000Y61423586D02*
X120964285Y61380729D01*
X120964285Y61380729D02*
X120792857Y61380729D01*
X120792857Y61380729D02*
X120707142Y61337872D01*
X120707142Y61337872D02*
X120664285Y61295015D01*
X120664285Y61295015D02*
X120621428Y61209300D01*
X120621428Y61209300D02*
X120621428Y61037872D01*
X120621428Y61037872D02*
X120664285Y60952158D01*
X120664285Y60952158D02*
X120707142Y60909300D01*
X120707142Y60909300D02*
X120792857Y60866443D01*
X120792857Y60866443D02*
X120964285Y60866443D01*
X120964285Y60866443D02*
X121050000Y60909300D01*
X121050000Y60909300D02*
X121092857Y60952158D01*
X121092857Y60952158D02*
X121135714Y61037872D01*
X121135714Y61037872D02*
X121135714Y61209300D01*
X121135714Y61209300D02*
X121092857Y61295015D01*
X121092857Y61295015D02*
X121050000Y61337872D01*
X121050000Y61337872D02*
X120964285Y61380729D01*
X68485714Y94463896D02*
X68447618Y94425800D01*
X68447618Y94425800D02*
X68333333Y94387705D01*
X68333333Y94387705D02*
X68257142Y94387705D01*
X68257142Y94387705D02*
X68142856Y94425800D01*
X68142856Y94425800D02*
X68066666Y94501991D01*
X68066666Y94501991D02*
X68028571Y94578181D01*
X68028571Y94578181D02*
X67990475Y94730562D01*
X67990475Y94730562D02*
X67990475Y94844848D01*
X67990475Y94844848D02*
X68028571Y94997229D01*
X68028571Y94997229D02*
X68066666Y95073420D01*
X68066666Y95073420D02*
X68142856Y95149610D01*
X68142856Y95149610D02*
X68257142Y95187705D01*
X68257142Y95187705D02*
X68333333Y95187705D01*
X68333333Y95187705D02*
X68447618Y95149610D01*
X68447618Y95149610D02*
X68485714Y95111515D01*
X68790475Y95111515D02*
X68828571Y95149610D01*
X68828571Y95149610D02*
X68904761Y95187705D01*
X68904761Y95187705D02*
X69095237Y95187705D01*
X69095237Y95187705D02*
X69171428Y95149610D01*
X69171428Y95149610D02*
X69209523Y95111515D01*
X69209523Y95111515D02*
X69247618Y95035324D01*
X69247618Y95035324D02*
X69247618Y94959134D01*
X69247618Y94959134D02*
X69209523Y94844848D01*
X69209523Y94844848D02*
X68752380Y94387705D01*
X68752380Y94387705D02*
X69247618Y94387705D01*
X69742857Y95187705D02*
X69819047Y95187705D01*
X69819047Y95187705D02*
X69895238Y95149610D01*
X69895238Y95149610D02*
X69933333Y95111515D01*
X69933333Y95111515D02*
X69971428Y95035324D01*
X69971428Y95035324D02*
X70009523Y94882943D01*
X70009523Y94882943D02*
X70009523Y94692467D01*
X70009523Y94692467D02*
X69971428Y94540086D01*
X69971428Y94540086D02*
X69933333Y94463896D01*
X69933333Y94463896D02*
X69895238Y94425800D01*
X69895238Y94425800D02*
X69819047Y94387705D01*
X69819047Y94387705D02*
X69742857Y94387705D01*
X69742857Y94387705D02*
X69666666Y94425800D01*
X69666666Y94425800D02*
X69628571Y94463896D01*
X69628571Y94463896D02*
X69590476Y94540086D01*
X69590476Y94540086D02*
X69552380Y94692467D01*
X69552380Y94692467D02*
X69552380Y94882943D01*
X69552380Y94882943D02*
X69590476Y95035324D01*
X69590476Y95035324D02*
X69628571Y95111515D01*
X69628571Y95111515D02*
X69666666Y95149610D01*
X69666666Y95149610D02*
X69742857Y95187705D01*
X44314285Y74366443D02*
X44314285Y73637872D01*
X44314285Y73637872D02*
X44357142Y73552158D01*
X44357142Y73552158D02*
X44400000Y73509300D01*
X44400000Y73509300D02*
X44485714Y73466443D01*
X44485714Y73466443D02*
X44657142Y73466443D01*
X44657142Y73466443D02*
X44742857Y73509300D01*
X44742857Y73509300D02*
X44785714Y73552158D01*
X44785714Y73552158D02*
X44828571Y73637872D01*
X44828571Y73637872D02*
X44828571Y74366443D01*
X45171428Y74366443D02*
X45728571Y74366443D01*
X45728571Y74366443D02*
X45428571Y74023586D01*
X45428571Y74023586D02*
X45557142Y74023586D01*
X45557142Y74023586D02*
X45642857Y73980729D01*
X45642857Y73980729D02*
X45685714Y73937872D01*
X45685714Y73937872D02*
X45728571Y73852158D01*
X45728571Y73852158D02*
X45728571Y73637872D01*
X45728571Y73637872D02*
X45685714Y73552158D01*
X45685714Y73552158D02*
X45642857Y73509300D01*
X45642857Y73509300D02*
X45557142Y73466443D01*
X45557142Y73466443D02*
X45299999Y73466443D01*
X45299999Y73466443D02*
X45214285Y73509300D01*
X45214285Y73509300D02*
X45171428Y73552158D01*
X129292857Y8591443D02*
X128864285Y8591443D01*
X128864285Y8591443D02*
X128864285Y9491443D01*
X129592856Y9062872D02*
X129892856Y9062872D01*
X130021428Y8591443D02*
X129592856Y8591443D01*
X129592856Y8591443D02*
X129592856Y9491443D01*
X129592856Y9491443D02*
X130021428Y9491443D01*
X130407142Y8591443D02*
X130407142Y9491443D01*
X130407142Y9491443D02*
X130621428Y9491443D01*
X130621428Y9491443D02*
X130749999Y9448586D01*
X130749999Y9448586D02*
X130835714Y9362872D01*
X130835714Y9362872D02*
X130878571Y9277158D01*
X130878571Y9277158D02*
X130921428Y9105729D01*
X130921428Y9105729D02*
X130921428Y8977158D01*
X130921428Y8977158D02*
X130878571Y8805729D01*
X130878571Y8805729D02*
X130835714Y8720015D01*
X130835714Y8720015D02*
X130749999Y8634300D01*
X130749999Y8634300D02*
X130621428Y8591443D01*
X130621428Y8591443D02*
X130407142Y8591443D01*
X131221428Y9491443D02*
X131778571Y9491443D01*
X131778571Y9491443D02*
X131478571Y9148586D01*
X131478571Y9148586D02*
X131607142Y9148586D01*
X131607142Y9148586D02*
X131692857Y9105729D01*
X131692857Y9105729D02*
X131735714Y9062872D01*
X131735714Y9062872D02*
X131778571Y8977158D01*
X131778571Y8977158D02*
X131778571Y8762872D01*
X131778571Y8762872D02*
X131735714Y8677158D01*
X131735714Y8677158D02*
X131692857Y8634300D01*
X131692857Y8634300D02*
X131607142Y8591443D01*
X131607142Y8591443D02*
X131349999Y8591443D01*
X131349999Y8591443D02*
X131264285Y8634300D01*
X131264285Y8634300D02*
X131221428Y8677158D01*
X44921428Y88632158D02*
X44878571Y88589300D01*
X44878571Y88589300D02*
X44749999Y88546443D01*
X44749999Y88546443D02*
X44664285Y88546443D01*
X44664285Y88546443D02*
X44535714Y88589300D01*
X44535714Y88589300D02*
X44449999Y88675015D01*
X44449999Y88675015D02*
X44407142Y88760729D01*
X44407142Y88760729D02*
X44364285Y88932158D01*
X44364285Y88932158D02*
X44364285Y89060729D01*
X44364285Y89060729D02*
X44407142Y89232158D01*
X44407142Y89232158D02*
X44449999Y89317872D01*
X44449999Y89317872D02*
X44535714Y89403586D01*
X44535714Y89403586D02*
X44664285Y89446443D01*
X44664285Y89446443D02*
X44749999Y89446443D01*
X44749999Y89446443D02*
X44878571Y89403586D01*
X44878571Y89403586D02*
X44921428Y89360729D01*
X45692857Y89146443D02*
X45692857Y88546443D01*
X45478571Y89489300D02*
X45264285Y88846443D01*
X45264285Y88846443D02*
X45821428Y88846443D01*
X46550000Y89446443D02*
X46378571Y89446443D01*
X46378571Y89446443D02*
X46292857Y89403586D01*
X46292857Y89403586D02*
X46250000Y89360729D01*
X46250000Y89360729D02*
X46164285Y89232158D01*
X46164285Y89232158D02*
X46121428Y89060729D01*
X46121428Y89060729D02*
X46121428Y88717872D01*
X46121428Y88717872D02*
X46164285Y88632158D01*
X46164285Y88632158D02*
X46207142Y88589300D01*
X46207142Y88589300D02*
X46292857Y88546443D01*
X46292857Y88546443D02*
X46464285Y88546443D01*
X46464285Y88546443D02*
X46550000Y88589300D01*
X46550000Y88589300D02*
X46592857Y88632158D01*
X46592857Y88632158D02*
X46635714Y88717872D01*
X46635714Y88717872D02*
X46635714Y88932158D01*
X46635714Y88932158D02*
X46592857Y89017872D01*
X46592857Y89017872D02*
X46550000Y89060729D01*
X46550000Y89060729D02*
X46464285Y89103586D01*
X46464285Y89103586D02*
X46292857Y89103586D01*
X46292857Y89103586D02*
X46207142Y89060729D01*
X46207142Y89060729D02*
X46164285Y89017872D01*
X46164285Y89017872D02*
X46121428Y88932158D01*
X60421428Y78952158D02*
X60378571Y78909300D01*
X60378571Y78909300D02*
X60249999Y78866443D01*
X60249999Y78866443D02*
X60164285Y78866443D01*
X60164285Y78866443D02*
X60035714Y78909300D01*
X60035714Y78909300D02*
X59949999Y78995015D01*
X59949999Y78995015D02*
X59907142Y79080729D01*
X59907142Y79080729D02*
X59864285Y79252158D01*
X59864285Y79252158D02*
X59864285Y79380729D01*
X59864285Y79380729D02*
X59907142Y79552158D01*
X59907142Y79552158D02*
X59949999Y79637872D01*
X59949999Y79637872D02*
X60035714Y79723586D01*
X60035714Y79723586D02*
X60164285Y79766443D01*
X60164285Y79766443D02*
X60249999Y79766443D01*
X60249999Y79766443D02*
X60378571Y79723586D01*
X60378571Y79723586D02*
X60421428Y79680729D01*
X60721428Y79766443D02*
X61278571Y79766443D01*
X61278571Y79766443D02*
X60978571Y79423586D01*
X60978571Y79423586D02*
X61107142Y79423586D01*
X61107142Y79423586D02*
X61192857Y79380729D01*
X61192857Y79380729D02*
X61235714Y79337872D01*
X61235714Y79337872D02*
X61278571Y79252158D01*
X61278571Y79252158D02*
X61278571Y79037872D01*
X61278571Y79037872D02*
X61235714Y78952158D01*
X61235714Y78952158D02*
X61192857Y78909300D01*
X61192857Y78909300D02*
X61107142Y78866443D01*
X61107142Y78866443D02*
X60849999Y78866443D01*
X60849999Y78866443D02*
X60764285Y78909300D01*
X60764285Y78909300D02*
X60721428Y78952158D01*
X61621428Y79680729D02*
X61664285Y79723586D01*
X61664285Y79723586D02*
X61750000Y79766443D01*
X61750000Y79766443D02*
X61964285Y79766443D01*
X61964285Y79766443D02*
X62050000Y79723586D01*
X62050000Y79723586D02*
X62092857Y79680729D01*
X62092857Y79680729D02*
X62135714Y79595015D01*
X62135714Y79595015D02*
X62135714Y79509300D01*
X62135714Y79509300D02*
X62092857Y79380729D01*
X62092857Y79380729D02*
X61578571Y78866443D01*
X61578571Y78866443D02*
X62135714Y78866443D01*
X9700000Y59966443D02*
X9700000Y59323586D01*
X9700000Y59323586D02*
X9657143Y59195015D01*
X9657143Y59195015D02*
X9571429Y59109300D01*
X9571429Y59109300D02*
X9442857Y59066443D01*
X9442857Y59066443D02*
X9357143Y59066443D01*
X10514286Y59966443D02*
X10342857Y59966443D01*
X10342857Y59966443D02*
X10257143Y59923586D01*
X10257143Y59923586D02*
X10214286Y59880729D01*
X10214286Y59880729D02*
X10128571Y59752158D01*
X10128571Y59752158D02*
X10085714Y59580729D01*
X10085714Y59580729D02*
X10085714Y59237872D01*
X10085714Y59237872D02*
X10128571Y59152158D01*
X10128571Y59152158D02*
X10171428Y59109300D01*
X10171428Y59109300D02*
X10257143Y59066443D01*
X10257143Y59066443D02*
X10428571Y59066443D01*
X10428571Y59066443D02*
X10514286Y59109300D01*
X10514286Y59109300D02*
X10557143Y59152158D01*
X10557143Y59152158D02*
X10600000Y59237872D01*
X10600000Y59237872D02*
X10600000Y59452158D01*
X10600000Y59452158D02*
X10557143Y59537872D01*
X10557143Y59537872D02*
X10514286Y59580729D01*
X10514286Y59580729D02*
X10428571Y59623586D01*
X10428571Y59623586D02*
X10257143Y59623586D01*
X10257143Y59623586D02*
X10171428Y59580729D01*
X10171428Y59580729D02*
X10128571Y59537872D01*
X10128571Y59537872D02*
X10085714Y59452158D01*
X133421428Y58432158D02*
X133378571Y58389300D01*
X133378571Y58389300D02*
X133249999Y58346443D01*
X133249999Y58346443D02*
X133164285Y58346443D01*
X133164285Y58346443D02*
X133035714Y58389300D01*
X133035714Y58389300D02*
X132949999Y58475015D01*
X132949999Y58475015D02*
X132907142Y58560729D01*
X132907142Y58560729D02*
X132864285Y58732158D01*
X132864285Y58732158D02*
X132864285Y58860729D01*
X132864285Y58860729D02*
X132907142Y59032158D01*
X132907142Y59032158D02*
X132949999Y59117872D01*
X132949999Y59117872D02*
X133035714Y59203586D01*
X133035714Y59203586D02*
X133164285Y59246443D01*
X133164285Y59246443D02*
X133249999Y59246443D01*
X133249999Y59246443D02*
X133378571Y59203586D01*
X133378571Y59203586D02*
X133421428Y59160729D01*
X133764285Y59160729D02*
X133807142Y59203586D01*
X133807142Y59203586D02*
X133892857Y59246443D01*
X133892857Y59246443D02*
X134107142Y59246443D01*
X134107142Y59246443D02*
X134192857Y59203586D01*
X134192857Y59203586D02*
X134235714Y59160729D01*
X134235714Y59160729D02*
X134278571Y59075015D01*
X134278571Y59075015D02*
X134278571Y58989300D01*
X134278571Y58989300D02*
X134235714Y58860729D01*
X134235714Y58860729D02*
X133721428Y58346443D01*
X133721428Y58346443D02*
X134278571Y58346443D01*
X134578571Y59246443D02*
X135135714Y59246443D01*
X135135714Y59246443D02*
X134835714Y58903586D01*
X134835714Y58903586D02*
X134964285Y58903586D01*
X134964285Y58903586D02*
X135050000Y58860729D01*
X135050000Y58860729D02*
X135092857Y58817872D01*
X135092857Y58817872D02*
X135135714Y58732158D01*
X135135714Y58732158D02*
X135135714Y58517872D01*
X135135714Y58517872D02*
X135092857Y58432158D01*
X135092857Y58432158D02*
X135050000Y58389300D01*
X135050000Y58389300D02*
X134964285Y58346443D01*
X134964285Y58346443D02*
X134707142Y58346443D01*
X134707142Y58346443D02*
X134621428Y58389300D01*
X134621428Y58389300D02*
X134578571Y58432158D01*
X123421428Y78626443D02*
X123121428Y79055015D01*
X122907142Y78626443D02*
X122907142Y79526443D01*
X122907142Y79526443D02*
X123249999Y79526443D01*
X123249999Y79526443D02*
X123335714Y79483586D01*
X123335714Y79483586D02*
X123378571Y79440729D01*
X123378571Y79440729D02*
X123421428Y79355015D01*
X123421428Y79355015D02*
X123421428Y79226443D01*
X123421428Y79226443D02*
X123378571Y79140729D01*
X123378571Y79140729D02*
X123335714Y79097872D01*
X123335714Y79097872D02*
X123249999Y79055015D01*
X123249999Y79055015D02*
X122907142Y79055015D01*
X123764285Y79440729D02*
X123807142Y79483586D01*
X123807142Y79483586D02*
X123892857Y79526443D01*
X123892857Y79526443D02*
X124107142Y79526443D01*
X124107142Y79526443D02*
X124192857Y79483586D01*
X124192857Y79483586D02*
X124235714Y79440729D01*
X124235714Y79440729D02*
X124278571Y79355015D01*
X124278571Y79355015D02*
X124278571Y79269300D01*
X124278571Y79269300D02*
X124235714Y79140729D01*
X124235714Y79140729D02*
X123721428Y78626443D01*
X123721428Y78626443D02*
X124278571Y78626443D01*
X124578571Y79526443D02*
X125135714Y79526443D01*
X125135714Y79526443D02*
X124835714Y79183586D01*
X124835714Y79183586D02*
X124964285Y79183586D01*
X124964285Y79183586D02*
X125050000Y79140729D01*
X125050000Y79140729D02*
X125092857Y79097872D01*
X125092857Y79097872D02*
X125135714Y79012158D01*
X125135714Y79012158D02*
X125135714Y78797872D01*
X125135714Y78797872D02*
X125092857Y78712158D01*
X125092857Y78712158D02*
X125050000Y78669300D01*
X125050000Y78669300D02*
X124964285Y78626443D01*
X124964285Y78626443D02*
X124707142Y78626443D01*
X124707142Y78626443D02*
X124621428Y78669300D01*
X124621428Y78669300D02*
X124578571Y78712158D01*
X142500000Y97146443D02*
X143014286Y97146443D01*
X142757143Y96246443D02*
X142757143Y97146443D01*
X143185714Y97146443D02*
X143485714Y96246443D01*
X143485714Y96246443D02*
X143785714Y97146443D01*
X144042857Y96289300D02*
X144171429Y96246443D01*
X144171429Y96246443D02*
X144385714Y96246443D01*
X144385714Y96246443D02*
X144471429Y96289300D01*
X144471429Y96289300D02*
X144514286Y96332158D01*
X144514286Y96332158D02*
X144557143Y96417872D01*
X144557143Y96417872D02*
X144557143Y96503586D01*
X144557143Y96503586D02*
X144514286Y96589300D01*
X144514286Y96589300D02*
X144471429Y96632158D01*
X144471429Y96632158D02*
X144385714Y96675015D01*
X144385714Y96675015D02*
X144214286Y96717872D01*
X144214286Y96717872D02*
X144128571Y96760729D01*
X144128571Y96760729D02*
X144085714Y96803586D01*
X144085714Y96803586D02*
X144042857Y96889300D01*
X144042857Y96889300D02*
X144042857Y96975015D01*
X144042857Y96975015D02*
X144085714Y97060729D01*
X144085714Y97060729D02*
X144128571Y97103586D01*
X144128571Y97103586D02*
X144214286Y97146443D01*
X144214286Y97146443D02*
X144428571Y97146443D01*
X144428571Y97146443D02*
X144557143Y97103586D01*
X145414286Y96246443D02*
X144900000Y96246443D01*
X145157143Y96246443D02*
X145157143Y97146443D01*
X145157143Y97146443D02*
X145071429Y97017872D01*
X145071429Y97017872D02*
X144985714Y96932158D01*
X144985714Y96932158D02*
X144900000Y96889300D01*
X122421428Y41432158D02*
X122378571Y41389300D01*
X122378571Y41389300D02*
X122249999Y41346443D01*
X122249999Y41346443D02*
X122164285Y41346443D01*
X122164285Y41346443D02*
X122035714Y41389300D01*
X122035714Y41389300D02*
X121949999Y41475015D01*
X121949999Y41475015D02*
X121907142Y41560729D01*
X121907142Y41560729D02*
X121864285Y41732158D01*
X121864285Y41732158D02*
X121864285Y41860729D01*
X121864285Y41860729D02*
X121907142Y42032158D01*
X121907142Y42032158D02*
X121949999Y42117872D01*
X121949999Y42117872D02*
X122035714Y42203586D01*
X122035714Y42203586D02*
X122164285Y42246443D01*
X122164285Y42246443D02*
X122249999Y42246443D01*
X122249999Y42246443D02*
X122378571Y42203586D01*
X122378571Y42203586D02*
X122421428Y42160729D01*
X123192857Y41946443D02*
X123192857Y41346443D01*
X122978571Y42289300D02*
X122764285Y41646443D01*
X122764285Y41646443D02*
X123321428Y41646443D01*
X123621428Y42160729D02*
X123664285Y42203586D01*
X123664285Y42203586D02*
X123750000Y42246443D01*
X123750000Y42246443D02*
X123964285Y42246443D01*
X123964285Y42246443D02*
X124050000Y42203586D01*
X124050000Y42203586D02*
X124092857Y42160729D01*
X124092857Y42160729D02*
X124135714Y42075015D01*
X124135714Y42075015D02*
X124135714Y41989300D01*
X124135714Y41989300D02*
X124092857Y41860729D01*
X124092857Y41860729D02*
X123578571Y41346443D01*
X123578571Y41346443D02*
X124135714Y41346443D01*
X94421428Y66472158D02*
X94378571Y66429300D01*
X94378571Y66429300D02*
X94249999Y66386443D01*
X94249999Y66386443D02*
X94164285Y66386443D01*
X94164285Y66386443D02*
X94035714Y66429300D01*
X94035714Y66429300D02*
X93949999Y66515015D01*
X93949999Y66515015D02*
X93907142Y66600729D01*
X93907142Y66600729D02*
X93864285Y66772158D01*
X93864285Y66772158D02*
X93864285Y66900729D01*
X93864285Y66900729D02*
X93907142Y67072158D01*
X93907142Y67072158D02*
X93949999Y67157872D01*
X93949999Y67157872D02*
X94035714Y67243586D01*
X94035714Y67243586D02*
X94164285Y67286443D01*
X94164285Y67286443D02*
X94249999Y67286443D01*
X94249999Y67286443D02*
X94378571Y67243586D01*
X94378571Y67243586D02*
X94421428Y67200729D01*
X94764285Y67200729D02*
X94807142Y67243586D01*
X94807142Y67243586D02*
X94892857Y67286443D01*
X94892857Y67286443D02*
X95107142Y67286443D01*
X95107142Y67286443D02*
X95192857Y67243586D01*
X95192857Y67243586D02*
X95235714Y67200729D01*
X95235714Y67200729D02*
X95278571Y67115015D01*
X95278571Y67115015D02*
X95278571Y67029300D01*
X95278571Y67029300D02*
X95235714Y66900729D01*
X95235714Y66900729D02*
X94721428Y66386443D01*
X94721428Y66386443D02*
X95278571Y66386443D01*
X95621428Y67200729D02*
X95664285Y67243586D01*
X95664285Y67243586D02*
X95750000Y67286443D01*
X95750000Y67286443D02*
X95964285Y67286443D01*
X95964285Y67286443D02*
X96050000Y67243586D01*
X96050000Y67243586D02*
X96092857Y67200729D01*
X96092857Y67200729D02*
X96135714Y67115015D01*
X96135714Y67115015D02*
X96135714Y67029300D01*
X96135714Y67029300D02*
X96092857Y66900729D01*
X96092857Y66900729D02*
X95578571Y66386443D01*
X95578571Y66386443D02*
X96135714Y66386443D01*
X123421428Y108626443D02*
X123121428Y109055015D01*
X122907142Y108626443D02*
X122907142Y109526443D01*
X122907142Y109526443D02*
X123249999Y109526443D01*
X123249999Y109526443D02*
X123335714Y109483586D01*
X123335714Y109483586D02*
X123378571Y109440729D01*
X123378571Y109440729D02*
X123421428Y109355015D01*
X123421428Y109355015D02*
X123421428Y109226443D01*
X123421428Y109226443D02*
X123378571Y109140729D01*
X123378571Y109140729D02*
X123335714Y109097872D01*
X123335714Y109097872D02*
X123249999Y109055015D01*
X123249999Y109055015D02*
X122907142Y109055015D01*
X123764285Y109440729D02*
X123807142Y109483586D01*
X123807142Y109483586D02*
X123892857Y109526443D01*
X123892857Y109526443D02*
X124107142Y109526443D01*
X124107142Y109526443D02*
X124192857Y109483586D01*
X124192857Y109483586D02*
X124235714Y109440729D01*
X124235714Y109440729D02*
X124278571Y109355015D01*
X124278571Y109355015D02*
X124278571Y109269300D01*
X124278571Y109269300D02*
X124235714Y109140729D01*
X124235714Y109140729D02*
X123721428Y108626443D01*
X123721428Y108626443D02*
X124278571Y108626443D01*
X124835714Y109526443D02*
X124921428Y109526443D01*
X124921428Y109526443D02*
X125007142Y109483586D01*
X125007142Y109483586D02*
X125050000Y109440729D01*
X125050000Y109440729D02*
X125092857Y109355015D01*
X125092857Y109355015D02*
X125135714Y109183586D01*
X125135714Y109183586D02*
X125135714Y108969300D01*
X125135714Y108969300D02*
X125092857Y108797872D01*
X125092857Y108797872D02*
X125050000Y108712158D01*
X125050000Y108712158D02*
X125007142Y108669300D01*
X125007142Y108669300D02*
X124921428Y108626443D01*
X124921428Y108626443D02*
X124835714Y108626443D01*
X124835714Y108626443D02*
X124750000Y108669300D01*
X124750000Y108669300D02*
X124707142Y108712158D01*
X124707142Y108712158D02*
X124664285Y108797872D01*
X124664285Y108797872D02*
X124621428Y108969300D01*
X124621428Y108969300D02*
X124621428Y109183586D01*
X124621428Y109183586D02*
X124664285Y109355015D01*
X124664285Y109355015D02*
X124707142Y109440729D01*
X124707142Y109440729D02*
X124750000Y109483586D01*
X124750000Y109483586D02*
X124835714Y109526443D01*
X138542857Y75756443D02*
X138542857Y76656443D01*
X138542857Y76656443D02*
X138885714Y76656443D01*
X138885714Y76656443D02*
X138971429Y76613586D01*
X138971429Y76613586D02*
X139014286Y76570729D01*
X139014286Y76570729D02*
X139057143Y76485015D01*
X139057143Y76485015D02*
X139057143Y76356443D01*
X139057143Y76356443D02*
X139014286Y76270729D01*
X139014286Y76270729D02*
X138971429Y76227872D01*
X138971429Y76227872D02*
X138885714Y76185015D01*
X138885714Y76185015D02*
X138542857Y76185015D01*
X139314286Y76656443D02*
X139828572Y76656443D01*
X139571429Y75756443D02*
X139571429Y76656443D01*
X140642857Y75842158D02*
X140600000Y75799300D01*
X140600000Y75799300D02*
X140471428Y75756443D01*
X140471428Y75756443D02*
X140385714Y75756443D01*
X140385714Y75756443D02*
X140257143Y75799300D01*
X140257143Y75799300D02*
X140171428Y75885015D01*
X140171428Y75885015D02*
X140128571Y75970729D01*
X140128571Y75970729D02*
X140085714Y76142158D01*
X140085714Y76142158D02*
X140085714Y76270729D01*
X140085714Y76270729D02*
X140128571Y76442158D01*
X140128571Y76442158D02*
X140171428Y76527872D01*
X140171428Y76527872D02*
X140257143Y76613586D01*
X140257143Y76613586D02*
X140385714Y76656443D01*
X140385714Y76656443D02*
X140471428Y76656443D01*
X140471428Y76656443D02*
X140600000Y76613586D01*
X140600000Y76613586D02*
X140642857Y76570729D01*
X140985714Y76570729D02*
X141028571Y76613586D01*
X141028571Y76613586D02*
X141114286Y76656443D01*
X141114286Y76656443D02*
X141328571Y76656443D01*
X141328571Y76656443D02*
X141414286Y76613586D01*
X141414286Y76613586D02*
X141457143Y76570729D01*
X141457143Y76570729D02*
X141500000Y76485015D01*
X141500000Y76485015D02*
X141500000Y76399300D01*
X141500000Y76399300D02*
X141457143Y76270729D01*
X141457143Y76270729D02*
X140942857Y75756443D01*
X140942857Y75756443D02*
X141500000Y75756443D01*
X127421428Y91677158D02*
X127378571Y91634300D01*
X127378571Y91634300D02*
X127249999Y91591443D01*
X127249999Y91591443D02*
X127164285Y91591443D01*
X127164285Y91591443D02*
X127035714Y91634300D01*
X127035714Y91634300D02*
X126949999Y91720015D01*
X126949999Y91720015D02*
X126907142Y91805729D01*
X126907142Y91805729D02*
X126864285Y91977158D01*
X126864285Y91977158D02*
X126864285Y92105729D01*
X126864285Y92105729D02*
X126907142Y92277158D01*
X126907142Y92277158D02*
X126949999Y92362872D01*
X126949999Y92362872D02*
X127035714Y92448586D01*
X127035714Y92448586D02*
X127164285Y92491443D01*
X127164285Y92491443D02*
X127249999Y92491443D01*
X127249999Y92491443D02*
X127378571Y92448586D01*
X127378571Y92448586D02*
X127421428Y92405729D01*
X128192857Y92191443D02*
X128192857Y91591443D01*
X127978571Y92534300D02*
X127764285Y91891443D01*
X127764285Y91891443D02*
X128321428Y91891443D01*
X128835714Y92491443D02*
X128921428Y92491443D01*
X128921428Y92491443D02*
X129007142Y92448586D01*
X129007142Y92448586D02*
X129050000Y92405729D01*
X129050000Y92405729D02*
X129092857Y92320015D01*
X129092857Y92320015D02*
X129135714Y92148586D01*
X129135714Y92148586D02*
X129135714Y91934300D01*
X129135714Y91934300D02*
X129092857Y91762872D01*
X129092857Y91762872D02*
X129050000Y91677158D01*
X129050000Y91677158D02*
X129007142Y91634300D01*
X129007142Y91634300D02*
X128921428Y91591443D01*
X128921428Y91591443D02*
X128835714Y91591443D01*
X128835714Y91591443D02*
X128750000Y91634300D01*
X128750000Y91634300D02*
X128707142Y91677158D01*
X128707142Y91677158D02*
X128664285Y91762872D01*
X128664285Y91762872D02*
X128621428Y91934300D01*
X128621428Y91934300D02*
X128621428Y92148586D01*
X128621428Y92148586D02*
X128664285Y92320015D01*
X128664285Y92320015D02*
X128707142Y92405729D01*
X128707142Y92405729D02*
X128750000Y92448586D01*
X128750000Y92448586D02*
X128835714Y92491443D01*
X48314285Y94491443D02*
X48314285Y93762872D01*
X48314285Y93762872D02*
X48357142Y93677158D01*
X48357142Y93677158D02*
X48400000Y93634300D01*
X48400000Y93634300D02*
X48485714Y93591443D01*
X48485714Y93591443D02*
X48657142Y93591443D01*
X48657142Y93591443D02*
X48742857Y93634300D01*
X48742857Y93634300D02*
X48785714Y93677158D01*
X48785714Y93677158D02*
X48828571Y93762872D01*
X48828571Y93762872D02*
X48828571Y94491443D01*
X49214285Y94405729D02*
X49257142Y94448586D01*
X49257142Y94448586D02*
X49342857Y94491443D01*
X49342857Y94491443D02*
X49557142Y94491443D01*
X49557142Y94491443D02*
X49642857Y94448586D01*
X49642857Y94448586D02*
X49685714Y94405729D01*
X49685714Y94405729D02*
X49728571Y94320015D01*
X49728571Y94320015D02*
X49728571Y94234300D01*
X49728571Y94234300D02*
X49685714Y94105729D01*
X49685714Y94105729D02*
X49171428Y93591443D01*
X49171428Y93591443D02*
X49728571Y93591443D01*
X79421428Y30272158D02*
X79378571Y30229300D01*
X79378571Y30229300D02*
X79249999Y30186443D01*
X79249999Y30186443D02*
X79164285Y30186443D01*
X79164285Y30186443D02*
X79035714Y30229300D01*
X79035714Y30229300D02*
X78949999Y30315015D01*
X78949999Y30315015D02*
X78907142Y30400729D01*
X78907142Y30400729D02*
X78864285Y30572158D01*
X78864285Y30572158D02*
X78864285Y30700729D01*
X78864285Y30700729D02*
X78907142Y30872158D01*
X78907142Y30872158D02*
X78949999Y30957872D01*
X78949999Y30957872D02*
X79035714Y31043586D01*
X79035714Y31043586D02*
X79164285Y31086443D01*
X79164285Y31086443D02*
X79249999Y31086443D01*
X79249999Y31086443D02*
X79378571Y31043586D01*
X79378571Y31043586D02*
X79421428Y31000729D01*
X80278571Y30186443D02*
X79764285Y30186443D01*
X80021428Y30186443D02*
X80021428Y31086443D01*
X80021428Y31086443D02*
X79935714Y30957872D01*
X79935714Y30957872D02*
X79849999Y30872158D01*
X79849999Y30872158D02*
X79764285Y30829300D01*
X80621428Y31000729D02*
X80664285Y31043586D01*
X80664285Y31043586D02*
X80750000Y31086443D01*
X80750000Y31086443D02*
X80964285Y31086443D01*
X80964285Y31086443D02*
X81050000Y31043586D01*
X81050000Y31043586D02*
X81092857Y31000729D01*
X81092857Y31000729D02*
X81135714Y30915015D01*
X81135714Y30915015D02*
X81135714Y30829300D01*
X81135714Y30829300D02*
X81092857Y30700729D01*
X81092857Y30700729D02*
X80578571Y30186443D01*
X80578571Y30186443D02*
X81135714Y30186443D01*
X55850000Y75626443D02*
X55550000Y76055015D01*
X55335714Y75626443D02*
X55335714Y76526443D01*
X55335714Y76526443D02*
X55678571Y76526443D01*
X55678571Y76526443D02*
X55764286Y76483586D01*
X55764286Y76483586D02*
X55807143Y76440729D01*
X55807143Y76440729D02*
X55850000Y76355015D01*
X55850000Y76355015D02*
X55850000Y76226443D01*
X55850000Y76226443D02*
X55807143Y76140729D01*
X55807143Y76140729D02*
X55764286Y76097872D01*
X55764286Y76097872D02*
X55678571Y76055015D01*
X55678571Y76055015D02*
X55335714Y76055015D01*
X56150000Y76526443D02*
X56707143Y76526443D01*
X56707143Y76526443D02*
X56407143Y76183586D01*
X56407143Y76183586D02*
X56535714Y76183586D01*
X56535714Y76183586D02*
X56621429Y76140729D01*
X56621429Y76140729D02*
X56664286Y76097872D01*
X56664286Y76097872D02*
X56707143Y76012158D01*
X56707143Y76012158D02*
X56707143Y75797872D01*
X56707143Y75797872D02*
X56664286Y75712158D01*
X56664286Y75712158D02*
X56621429Y75669300D01*
X56621429Y75669300D02*
X56535714Y75626443D01*
X56535714Y75626443D02*
X56278571Y75626443D01*
X56278571Y75626443D02*
X56192857Y75669300D01*
X56192857Y75669300D02*
X56150000Y75712158D01*
X123421428Y101491443D02*
X123121428Y101920015D01*
X122907142Y101491443D02*
X122907142Y102391443D01*
X122907142Y102391443D02*
X123249999Y102391443D01*
X123249999Y102391443D02*
X123335714Y102348586D01*
X123335714Y102348586D02*
X123378571Y102305729D01*
X123378571Y102305729D02*
X123421428Y102220015D01*
X123421428Y102220015D02*
X123421428Y102091443D01*
X123421428Y102091443D02*
X123378571Y102005729D01*
X123378571Y102005729D02*
X123335714Y101962872D01*
X123335714Y101962872D02*
X123249999Y101920015D01*
X123249999Y101920015D02*
X122907142Y101920015D01*
X123764285Y102305729D02*
X123807142Y102348586D01*
X123807142Y102348586D02*
X123892857Y102391443D01*
X123892857Y102391443D02*
X124107142Y102391443D01*
X124107142Y102391443D02*
X124192857Y102348586D01*
X124192857Y102348586D02*
X124235714Y102305729D01*
X124235714Y102305729D02*
X124278571Y102220015D01*
X124278571Y102220015D02*
X124278571Y102134300D01*
X124278571Y102134300D02*
X124235714Y102005729D01*
X124235714Y102005729D02*
X123721428Y101491443D01*
X123721428Y101491443D02*
X124278571Y101491443D01*
X125135714Y101491443D02*
X124621428Y101491443D01*
X124878571Y101491443D02*
X124878571Y102391443D01*
X124878571Y102391443D02*
X124792857Y102262872D01*
X124792857Y102262872D02*
X124707142Y102177158D01*
X124707142Y102177158D02*
X124621428Y102134300D01*
X68866667Y98963896D02*
X68828571Y98925800D01*
X68828571Y98925800D02*
X68714286Y98887705D01*
X68714286Y98887705D02*
X68638095Y98887705D01*
X68638095Y98887705D02*
X68523809Y98925800D01*
X68523809Y98925800D02*
X68447619Y99001991D01*
X68447619Y99001991D02*
X68409524Y99078181D01*
X68409524Y99078181D02*
X68371428Y99230562D01*
X68371428Y99230562D02*
X68371428Y99344848D01*
X68371428Y99344848D02*
X68409524Y99497229D01*
X68409524Y99497229D02*
X68447619Y99573420D01*
X68447619Y99573420D02*
X68523809Y99649610D01*
X68523809Y99649610D02*
X68638095Y99687705D01*
X68638095Y99687705D02*
X68714286Y99687705D01*
X68714286Y99687705D02*
X68828571Y99649610D01*
X68828571Y99649610D02*
X68866667Y99611515D01*
X69133333Y99687705D02*
X69628571Y99687705D01*
X69628571Y99687705D02*
X69361905Y99382943D01*
X69361905Y99382943D02*
X69476190Y99382943D01*
X69476190Y99382943D02*
X69552381Y99344848D01*
X69552381Y99344848D02*
X69590476Y99306753D01*
X69590476Y99306753D02*
X69628571Y99230562D01*
X69628571Y99230562D02*
X69628571Y99040086D01*
X69628571Y99040086D02*
X69590476Y98963896D01*
X69590476Y98963896D02*
X69552381Y98925800D01*
X69552381Y98925800D02*
X69476190Y98887705D01*
X69476190Y98887705D02*
X69247619Y98887705D01*
X69247619Y98887705D02*
X69171428Y98925800D01*
X69171428Y98925800D02*
X69133333Y98963896D01*
X56335714Y40166443D02*
X56335714Y41066443D01*
X56335714Y41066443D02*
X56550000Y41066443D01*
X56550000Y41066443D02*
X56678571Y41023586D01*
X56678571Y41023586D02*
X56764286Y40937872D01*
X56764286Y40937872D02*
X56807143Y40852158D01*
X56807143Y40852158D02*
X56850000Y40680729D01*
X56850000Y40680729D02*
X56850000Y40552158D01*
X56850000Y40552158D02*
X56807143Y40380729D01*
X56807143Y40380729D02*
X56764286Y40295015D01*
X56764286Y40295015D02*
X56678571Y40209300D01*
X56678571Y40209300D02*
X56550000Y40166443D01*
X56550000Y40166443D02*
X56335714Y40166443D01*
X57150000Y41066443D02*
X57707143Y41066443D01*
X57707143Y41066443D02*
X57407143Y40723586D01*
X57407143Y40723586D02*
X57535714Y40723586D01*
X57535714Y40723586D02*
X57621429Y40680729D01*
X57621429Y40680729D02*
X57664286Y40637872D01*
X57664286Y40637872D02*
X57707143Y40552158D01*
X57707143Y40552158D02*
X57707143Y40337872D01*
X57707143Y40337872D02*
X57664286Y40252158D01*
X57664286Y40252158D02*
X57621429Y40209300D01*
X57621429Y40209300D02*
X57535714Y40166443D01*
X57535714Y40166443D02*
X57278571Y40166443D01*
X57278571Y40166443D02*
X57192857Y40209300D01*
X57192857Y40209300D02*
X57150000Y40252158D01*
X94421428Y77442158D02*
X94378571Y77399300D01*
X94378571Y77399300D02*
X94249999Y77356443D01*
X94249999Y77356443D02*
X94164285Y77356443D01*
X94164285Y77356443D02*
X94035714Y77399300D01*
X94035714Y77399300D02*
X93949999Y77485015D01*
X93949999Y77485015D02*
X93907142Y77570729D01*
X93907142Y77570729D02*
X93864285Y77742158D01*
X93864285Y77742158D02*
X93864285Y77870729D01*
X93864285Y77870729D02*
X93907142Y78042158D01*
X93907142Y78042158D02*
X93949999Y78127872D01*
X93949999Y78127872D02*
X94035714Y78213586D01*
X94035714Y78213586D02*
X94164285Y78256443D01*
X94164285Y78256443D02*
X94249999Y78256443D01*
X94249999Y78256443D02*
X94378571Y78213586D01*
X94378571Y78213586D02*
X94421428Y78170729D01*
X95278571Y77356443D02*
X94764285Y77356443D01*
X95021428Y77356443D02*
X95021428Y78256443D01*
X95021428Y78256443D02*
X94935714Y78127872D01*
X94935714Y78127872D02*
X94849999Y78042158D01*
X94849999Y78042158D02*
X94764285Y77999300D01*
X96092857Y78256443D02*
X95664285Y78256443D01*
X95664285Y78256443D02*
X95621428Y77827872D01*
X95621428Y77827872D02*
X95664285Y77870729D01*
X95664285Y77870729D02*
X95750000Y77913586D01*
X95750000Y77913586D02*
X95964285Y77913586D01*
X95964285Y77913586D02*
X96050000Y77870729D01*
X96050000Y77870729D02*
X96092857Y77827872D01*
X96092857Y77827872D02*
X96135714Y77742158D01*
X96135714Y77742158D02*
X96135714Y77527872D01*
X96135714Y77527872D02*
X96092857Y77442158D01*
X96092857Y77442158D02*
X96050000Y77399300D01*
X96050000Y77399300D02*
X95964285Y77356443D01*
X95964285Y77356443D02*
X95750000Y77356443D01*
X95750000Y77356443D02*
X95664285Y77399300D01*
X95664285Y77399300D02*
X95621428Y77442158D01*
X83421428Y42282158D02*
X83378571Y42239300D01*
X83378571Y42239300D02*
X83249999Y42196443D01*
X83249999Y42196443D02*
X83164285Y42196443D01*
X83164285Y42196443D02*
X83035714Y42239300D01*
X83035714Y42239300D02*
X82949999Y42325015D01*
X82949999Y42325015D02*
X82907142Y42410729D01*
X82907142Y42410729D02*
X82864285Y42582158D01*
X82864285Y42582158D02*
X82864285Y42710729D01*
X82864285Y42710729D02*
X82907142Y42882158D01*
X82907142Y42882158D02*
X82949999Y42967872D01*
X82949999Y42967872D02*
X83035714Y43053586D01*
X83035714Y43053586D02*
X83164285Y43096443D01*
X83164285Y43096443D02*
X83249999Y43096443D01*
X83249999Y43096443D02*
X83378571Y43053586D01*
X83378571Y43053586D02*
X83421428Y43010729D01*
X84278571Y42196443D02*
X83764285Y42196443D01*
X84021428Y42196443D02*
X84021428Y43096443D01*
X84021428Y43096443D02*
X83935714Y42967872D01*
X83935714Y42967872D02*
X83849999Y42882158D01*
X83849999Y42882158D02*
X83764285Y42839300D01*
X85135714Y42196443D02*
X84621428Y42196443D01*
X84878571Y42196443D02*
X84878571Y43096443D01*
X84878571Y43096443D02*
X84792857Y42967872D01*
X84792857Y42967872D02*
X84707142Y42882158D01*
X84707142Y42882158D02*
X84621428Y42839300D01*
X9700000Y45966443D02*
X9700000Y45323586D01*
X9700000Y45323586D02*
X9657143Y45195015D01*
X9657143Y45195015D02*
X9571429Y45109300D01*
X9571429Y45109300D02*
X9442857Y45066443D01*
X9442857Y45066443D02*
X9357143Y45066443D01*
X10171428Y45066443D02*
X10342857Y45066443D01*
X10342857Y45066443D02*
X10428571Y45109300D01*
X10428571Y45109300D02*
X10471428Y45152158D01*
X10471428Y45152158D02*
X10557143Y45280729D01*
X10557143Y45280729D02*
X10600000Y45452158D01*
X10600000Y45452158D02*
X10600000Y45795015D01*
X10600000Y45795015D02*
X10557143Y45880729D01*
X10557143Y45880729D02*
X10514286Y45923586D01*
X10514286Y45923586D02*
X10428571Y45966443D01*
X10428571Y45966443D02*
X10257143Y45966443D01*
X10257143Y45966443D02*
X10171428Y45923586D01*
X10171428Y45923586D02*
X10128571Y45880729D01*
X10128571Y45880729D02*
X10085714Y45795015D01*
X10085714Y45795015D02*
X10085714Y45580729D01*
X10085714Y45580729D02*
X10128571Y45495015D01*
X10128571Y45495015D02*
X10171428Y45452158D01*
X10171428Y45452158D02*
X10257143Y45409300D01*
X10257143Y45409300D02*
X10428571Y45409300D01*
X10428571Y45409300D02*
X10514286Y45452158D01*
X10514286Y45452158D02*
X10557143Y45495015D01*
X10557143Y45495015D02*
X10600000Y45580729D01*
X123421428Y71491443D02*
X123121428Y71920015D01*
X122907142Y71491443D02*
X122907142Y72391443D01*
X122907142Y72391443D02*
X123249999Y72391443D01*
X123249999Y72391443D02*
X123335714Y72348586D01*
X123335714Y72348586D02*
X123378571Y72305729D01*
X123378571Y72305729D02*
X123421428Y72220015D01*
X123421428Y72220015D02*
X123421428Y72091443D01*
X123421428Y72091443D02*
X123378571Y72005729D01*
X123378571Y72005729D02*
X123335714Y71962872D01*
X123335714Y71962872D02*
X123249999Y71920015D01*
X123249999Y71920015D02*
X122907142Y71920015D01*
X123764285Y72305729D02*
X123807142Y72348586D01*
X123807142Y72348586D02*
X123892857Y72391443D01*
X123892857Y72391443D02*
X124107142Y72391443D01*
X124107142Y72391443D02*
X124192857Y72348586D01*
X124192857Y72348586D02*
X124235714Y72305729D01*
X124235714Y72305729D02*
X124278571Y72220015D01*
X124278571Y72220015D02*
X124278571Y72134300D01*
X124278571Y72134300D02*
X124235714Y72005729D01*
X124235714Y72005729D02*
X123721428Y71491443D01*
X123721428Y71491443D02*
X124278571Y71491443D01*
X125050000Y72091443D02*
X125050000Y71491443D01*
X124835714Y72434300D02*
X124621428Y71791443D01*
X124621428Y71791443D02*
X125178571Y71791443D01*
X133421428Y90272159D02*
X133378571Y90229301D01*
X133378571Y90229301D02*
X133249999Y90186444D01*
X133249999Y90186444D02*
X133164285Y90186444D01*
X133164285Y90186444D02*
X133035714Y90229301D01*
X133035714Y90229301D02*
X132949999Y90315016D01*
X132949999Y90315016D02*
X132907142Y90400730D01*
X132907142Y90400730D02*
X132864285Y90572159D01*
X132864285Y90572159D02*
X132864285Y90700730D01*
X132864285Y90700730D02*
X132907142Y90872159D01*
X132907142Y90872159D02*
X132949999Y90957873D01*
X132949999Y90957873D02*
X133035714Y91043587D01*
X133035714Y91043587D02*
X133164285Y91086444D01*
X133164285Y91086444D02*
X133249999Y91086444D01*
X133249999Y91086444D02*
X133378571Y91043587D01*
X133378571Y91043587D02*
X133421428Y91000730D01*
X133764285Y91000730D02*
X133807142Y91043587D01*
X133807142Y91043587D02*
X133892857Y91086444D01*
X133892857Y91086444D02*
X134107142Y91086444D01*
X134107142Y91086444D02*
X134192857Y91043587D01*
X134192857Y91043587D02*
X134235714Y91000730D01*
X134235714Y91000730D02*
X134278571Y90915016D01*
X134278571Y90915016D02*
X134278571Y90829301D01*
X134278571Y90829301D02*
X134235714Y90700730D01*
X134235714Y90700730D02*
X133721428Y90186444D01*
X133721428Y90186444D02*
X134278571Y90186444D01*
X135135714Y90186444D02*
X134621428Y90186444D01*
X134878571Y90186444D02*
X134878571Y91086444D01*
X134878571Y91086444D02*
X134792857Y90957873D01*
X134792857Y90957873D02*
X134707142Y90872159D01*
X134707142Y90872159D02*
X134621428Y90829301D01*
X52421428Y86377158D02*
X52378571Y86334300D01*
X52378571Y86334300D02*
X52249999Y86291443D01*
X52249999Y86291443D02*
X52164285Y86291443D01*
X52164285Y86291443D02*
X52035714Y86334300D01*
X52035714Y86334300D02*
X51949999Y86420015D01*
X51949999Y86420015D02*
X51907142Y86505729D01*
X51907142Y86505729D02*
X51864285Y86677158D01*
X51864285Y86677158D02*
X51864285Y86805729D01*
X51864285Y86805729D02*
X51907142Y86977158D01*
X51907142Y86977158D02*
X51949999Y87062872D01*
X51949999Y87062872D02*
X52035714Y87148586D01*
X52035714Y87148586D02*
X52164285Y87191443D01*
X52164285Y87191443D02*
X52249999Y87191443D01*
X52249999Y87191443D02*
X52378571Y87148586D01*
X52378571Y87148586D02*
X52421428Y87105729D01*
X52721428Y87191443D02*
X53278571Y87191443D01*
X53278571Y87191443D02*
X52978571Y86848586D01*
X52978571Y86848586D02*
X53107142Y86848586D01*
X53107142Y86848586D02*
X53192857Y86805729D01*
X53192857Y86805729D02*
X53235714Y86762872D01*
X53235714Y86762872D02*
X53278571Y86677158D01*
X53278571Y86677158D02*
X53278571Y86462872D01*
X53278571Y86462872D02*
X53235714Y86377158D01*
X53235714Y86377158D02*
X53192857Y86334300D01*
X53192857Y86334300D02*
X53107142Y86291443D01*
X53107142Y86291443D02*
X52849999Y86291443D01*
X52849999Y86291443D02*
X52764285Y86334300D01*
X52764285Y86334300D02*
X52721428Y86377158D01*
X53707142Y86291443D02*
X53878571Y86291443D01*
X53878571Y86291443D02*
X53964285Y86334300D01*
X53964285Y86334300D02*
X54007142Y86377158D01*
X54007142Y86377158D02*
X54092857Y86505729D01*
X54092857Y86505729D02*
X54135714Y86677158D01*
X54135714Y86677158D02*
X54135714Y87020015D01*
X54135714Y87020015D02*
X54092857Y87105729D01*
X54092857Y87105729D02*
X54050000Y87148586D01*
X54050000Y87148586D02*
X53964285Y87191443D01*
X53964285Y87191443D02*
X53792857Y87191443D01*
X53792857Y87191443D02*
X53707142Y87148586D01*
X53707142Y87148586D02*
X53664285Y87105729D01*
X53664285Y87105729D02*
X53621428Y87020015D01*
X53621428Y87020015D02*
X53621428Y86805729D01*
X53621428Y86805729D02*
X53664285Y86720015D01*
X53664285Y86720015D02*
X53707142Y86677158D01*
X53707142Y86677158D02*
X53792857Y86634300D01*
X53792857Y86634300D02*
X53964285Y86634300D01*
X53964285Y86634300D02*
X54050000Y86677158D01*
X54050000Y86677158D02*
X54092857Y86720015D01*
X54092857Y86720015D02*
X54135714Y86805729D01*
X85864286Y48616443D02*
X86378572Y48616443D01*
X86121429Y47716443D02*
X86121429Y48616443D01*
X86678571Y47716443D02*
X86678571Y48616443D01*
X86678571Y48616443D02*
X87021428Y48616443D01*
X87021428Y48616443D02*
X87107143Y48573586D01*
X87107143Y48573586D02*
X87150000Y48530729D01*
X87150000Y48530729D02*
X87192857Y48445015D01*
X87192857Y48445015D02*
X87192857Y48316443D01*
X87192857Y48316443D02*
X87150000Y48230729D01*
X87150000Y48230729D02*
X87107143Y48187872D01*
X87107143Y48187872D02*
X87021428Y48145015D01*
X87021428Y48145015D02*
X86678571Y48145015D01*
X88007143Y48616443D02*
X87578571Y48616443D01*
X87578571Y48616443D02*
X87535714Y48187872D01*
X87535714Y48187872D02*
X87578571Y48230729D01*
X87578571Y48230729D02*
X87664286Y48273586D01*
X87664286Y48273586D02*
X87878571Y48273586D01*
X87878571Y48273586D02*
X87964286Y48230729D01*
X87964286Y48230729D02*
X88007143Y48187872D01*
X88007143Y48187872D02*
X88050000Y48102158D01*
X88050000Y48102158D02*
X88050000Y47887872D01*
X88050000Y47887872D02*
X88007143Y47802158D01*
X88007143Y47802158D02*
X87964286Y47759300D01*
X87964286Y47759300D02*
X87878571Y47716443D01*
X87878571Y47716443D02*
X87664286Y47716443D01*
X87664286Y47716443D02*
X87578571Y47759300D01*
X87578571Y47759300D02*
X87535714Y47802158D01*
X133850000Y16726443D02*
X133550000Y17155015D01*
X133335714Y16726443D02*
X133335714Y17626443D01*
X133335714Y17626443D02*
X133678571Y17626443D01*
X133678571Y17626443D02*
X133764286Y17583586D01*
X133764286Y17583586D02*
X133807143Y17540729D01*
X133807143Y17540729D02*
X133850000Y17455015D01*
X133850000Y17455015D02*
X133850000Y17326443D01*
X133850000Y17326443D02*
X133807143Y17240729D01*
X133807143Y17240729D02*
X133764286Y17197872D01*
X133764286Y17197872D02*
X133678571Y17155015D01*
X133678571Y17155015D02*
X133335714Y17155015D01*
X134278571Y16726443D02*
X134450000Y16726443D01*
X134450000Y16726443D02*
X134535714Y16769300D01*
X134535714Y16769300D02*
X134578571Y16812158D01*
X134578571Y16812158D02*
X134664286Y16940729D01*
X134664286Y16940729D02*
X134707143Y17112158D01*
X134707143Y17112158D02*
X134707143Y17455015D01*
X134707143Y17455015D02*
X134664286Y17540729D01*
X134664286Y17540729D02*
X134621429Y17583586D01*
X134621429Y17583586D02*
X134535714Y17626443D01*
X134535714Y17626443D02*
X134364286Y17626443D01*
X134364286Y17626443D02*
X134278571Y17583586D01*
X134278571Y17583586D02*
X134235714Y17540729D01*
X134235714Y17540729D02*
X134192857Y17455015D01*
X134192857Y17455015D02*
X134192857Y17240729D01*
X134192857Y17240729D02*
X134235714Y17155015D01*
X134235714Y17155015D02*
X134278571Y17112158D01*
X134278571Y17112158D02*
X134364286Y17069300D01*
X134364286Y17069300D02*
X134535714Y17069300D01*
X134535714Y17069300D02*
X134621429Y17112158D01*
X134621429Y17112158D02*
X134664286Y17155015D01*
X134664286Y17155015D02*
X134707143Y17240729D01*
X52850000Y95952159D02*
X52807143Y95909301D01*
X52807143Y95909301D02*
X52678571Y95866444D01*
X52678571Y95866444D02*
X52592857Y95866444D01*
X52592857Y95866444D02*
X52464286Y95909301D01*
X52464286Y95909301D02*
X52378571Y95995016D01*
X52378571Y95995016D02*
X52335714Y96080730D01*
X52335714Y96080730D02*
X52292857Y96252159D01*
X52292857Y96252159D02*
X52292857Y96380730D01*
X52292857Y96380730D02*
X52335714Y96552159D01*
X52335714Y96552159D02*
X52378571Y96637873D01*
X52378571Y96637873D02*
X52464286Y96723587D01*
X52464286Y96723587D02*
X52592857Y96766444D01*
X52592857Y96766444D02*
X52678571Y96766444D01*
X52678571Y96766444D02*
X52807143Y96723587D01*
X52807143Y96723587D02*
X52850000Y96680730D01*
X53621429Y96766444D02*
X53450000Y96766444D01*
X53450000Y96766444D02*
X53364286Y96723587D01*
X53364286Y96723587D02*
X53321429Y96680730D01*
X53321429Y96680730D02*
X53235714Y96552159D01*
X53235714Y96552159D02*
X53192857Y96380730D01*
X53192857Y96380730D02*
X53192857Y96037873D01*
X53192857Y96037873D02*
X53235714Y95952159D01*
X53235714Y95952159D02*
X53278571Y95909301D01*
X53278571Y95909301D02*
X53364286Y95866444D01*
X53364286Y95866444D02*
X53535714Y95866444D01*
X53535714Y95866444D02*
X53621429Y95909301D01*
X53621429Y95909301D02*
X53664286Y95952159D01*
X53664286Y95952159D02*
X53707143Y96037873D01*
X53707143Y96037873D02*
X53707143Y96252159D01*
X53707143Y96252159D02*
X53664286Y96337873D01*
X53664286Y96337873D02*
X53621429Y96380730D01*
X53621429Y96380730D02*
X53535714Y96423587D01*
X53535714Y96423587D02*
X53364286Y96423587D01*
X53364286Y96423587D02*
X53278571Y96380730D01*
X53278571Y96380730D02*
X53235714Y96337873D01*
X53235714Y96337873D02*
X53192857Y96252159D01*
X59350000Y59677158D02*
X59307143Y59634300D01*
X59307143Y59634300D02*
X59178571Y59591443D01*
X59178571Y59591443D02*
X59092857Y59591443D01*
X59092857Y59591443D02*
X58964286Y59634300D01*
X58964286Y59634300D02*
X58878571Y59720015D01*
X58878571Y59720015D02*
X58835714Y59805729D01*
X58835714Y59805729D02*
X58792857Y59977158D01*
X58792857Y59977158D02*
X58792857Y60105729D01*
X58792857Y60105729D02*
X58835714Y60277158D01*
X58835714Y60277158D02*
X58878571Y60362872D01*
X58878571Y60362872D02*
X58964286Y60448586D01*
X58964286Y60448586D02*
X59092857Y60491443D01*
X59092857Y60491443D02*
X59178571Y60491443D01*
X59178571Y60491443D02*
X59307143Y60448586D01*
X59307143Y60448586D02*
X59350000Y60405729D01*
X59864286Y60105729D02*
X59778571Y60148586D01*
X59778571Y60148586D02*
X59735714Y60191443D01*
X59735714Y60191443D02*
X59692857Y60277158D01*
X59692857Y60277158D02*
X59692857Y60320015D01*
X59692857Y60320015D02*
X59735714Y60405729D01*
X59735714Y60405729D02*
X59778571Y60448586D01*
X59778571Y60448586D02*
X59864286Y60491443D01*
X59864286Y60491443D02*
X60035714Y60491443D01*
X60035714Y60491443D02*
X60121429Y60448586D01*
X60121429Y60448586D02*
X60164286Y60405729D01*
X60164286Y60405729D02*
X60207143Y60320015D01*
X60207143Y60320015D02*
X60207143Y60277158D01*
X60207143Y60277158D02*
X60164286Y60191443D01*
X60164286Y60191443D02*
X60121429Y60148586D01*
X60121429Y60148586D02*
X60035714Y60105729D01*
X60035714Y60105729D02*
X59864286Y60105729D01*
X59864286Y60105729D02*
X59778571Y60062872D01*
X59778571Y60062872D02*
X59735714Y60020015D01*
X59735714Y60020015D02*
X59692857Y59934300D01*
X59692857Y59934300D02*
X59692857Y59762872D01*
X59692857Y59762872D02*
X59735714Y59677158D01*
X59735714Y59677158D02*
X59778571Y59634300D01*
X59778571Y59634300D02*
X59864286Y59591443D01*
X59864286Y59591443D02*
X60035714Y59591443D01*
X60035714Y59591443D02*
X60121429Y59634300D01*
X60121429Y59634300D02*
X60164286Y59677158D01*
X60164286Y59677158D02*
X60207143Y59762872D01*
X60207143Y59762872D02*
X60207143Y59934300D01*
X60207143Y59934300D02*
X60164286Y60020015D01*
X60164286Y60020015D02*
X60121429Y60062872D01*
X60121429Y60062872D02*
X60035714Y60105729D01*
X83850000Y71432158D02*
X83807143Y71389300D01*
X83807143Y71389300D02*
X83678571Y71346443D01*
X83678571Y71346443D02*
X83592857Y71346443D01*
X83592857Y71346443D02*
X83464286Y71389300D01*
X83464286Y71389300D02*
X83378571Y71475015D01*
X83378571Y71475015D02*
X83335714Y71560729D01*
X83335714Y71560729D02*
X83292857Y71732158D01*
X83292857Y71732158D02*
X83292857Y71860729D01*
X83292857Y71860729D02*
X83335714Y72032158D01*
X83335714Y72032158D02*
X83378571Y72117872D01*
X83378571Y72117872D02*
X83464286Y72203586D01*
X83464286Y72203586D02*
X83592857Y72246443D01*
X83592857Y72246443D02*
X83678571Y72246443D01*
X83678571Y72246443D02*
X83807143Y72203586D01*
X83807143Y72203586D02*
X83850000Y72160729D01*
X84621429Y71946443D02*
X84621429Y71346443D01*
X84407143Y72289300D02*
X84192857Y71646443D01*
X84192857Y71646443D02*
X84750000Y71646443D01*
X60850000Y101466443D02*
X60421428Y101466443D01*
X60421428Y101466443D02*
X60421428Y102366443D01*
X61621428Y101466443D02*
X61107142Y101466443D01*
X61364285Y101466443D02*
X61364285Y102366443D01*
X61364285Y102366443D02*
X61278571Y102237872D01*
X61278571Y102237872D02*
X61192856Y102152158D01*
X61192856Y102152158D02*
X61107142Y102109300D01*
X119850000Y16726443D02*
X119550000Y17155015D01*
X119335714Y16726443D02*
X119335714Y17626443D01*
X119335714Y17626443D02*
X119678571Y17626443D01*
X119678571Y17626443D02*
X119764286Y17583586D01*
X119764286Y17583586D02*
X119807143Y17540729D01*
X119807143Y17540729D02*
X119850000Y17455015D01*
X119850000Y17455015D02*
X119850000Y17326443D01*
X119850000Y17326443D02*
X119807143Y17240729D01*
X119807143Y17240729D02*
X119764286Y17197872D01*
X119764286Y17197872D02*
X119678571Y17155015D01*
X119678571Y17155015D02*
X119335714Y17155015D01*
X120150000Y17626443D02*
X120750000Y17626443D01*
X120750000Y17626443D02*
X120364286Y16726443D01*
%TO.C,R1*%
X49340000Y104390000D02*
X49340000Y103430000D01*
X49340000Y101610000D02*
X49340000Y102570000D01*
X50660000Y104390000D02*
X49340000Y104390000D01*
X50660000Y103430000D02*
X50660000Y104390000D01*
X50660000Y102570000D02*
X50660000Y101610000D01*
X50660000Y101610000D02*
X49340000Y101610000D01*
%TO.C,C9*%
X41770000Y28230000D02*
X48490000Y28230000D01*
X41770000Y24780000D02*
X41770000Y28230000D01*
X41770000Y23220000D02*
X41770000Y19770000D01*
X41770000Y19770000D02*
X48490000Y19770000D01*
X48490000Y28230000D02*
X50230000Y26490000D01*
X48490000Y19770000D02*
X50230000Y21510000D01*
X50230000Y26490000D02*
X50230000Y24780000D01*
X50230000Y21510000D02*
X50230000Y23220000D01*
D12*
X50580000Y28150000D02*
G75*
G02*
X50520000Y28150000I-30000J0D01*
G01*
X50520000Y28150000D02*
G75*
G02*
X50580000Y28150000I30000J0D01*
G01*
D13*
G36*
X43095078Y21966578D02*
G01*
X42099068Y21966578D01*
X42099068Y22215574D01*
X43095078Y22215574D01*
X43095078Y21966578D01*
G37*
G36*
X49527577Y21261067D02*
G01*
X49278581Y21261067D01*
X49278581Y22921084D01*
X49527577Y22921084D01*
X49527577Y21261067D01*
G37*
G36*
X49901084Y21966578D02*
G01*
X48905074Y21966578D01*
X48905074Y22215574D01*
X49901084Y22215574D01*
X49901084Y21966578D01*
G37*
%TO.C,C37*%
D10*
X72440000Y93070000D02*
X72440000Y95930000D01*
X72590000Y96080000D02*
X74220000Y96080000D01*
X74220000Y92920000D02*
X72590000Y92920000D01*
X75780000Y92920000D02*
X77410000Y92920000D01*
X77410000Y96080000D02*
X75780000Y96080000D01*
X77560000Y93070000D02*
X77560000Y95930000D01*
X72440000Y95930000D02*
G75*
G02*
X72590000Y96080000I150000J0D01*
G01*
X72590000Y92920000D02*
G75*
G02*
X72440000Y93070000I0J150000D01*
G01*
X77410000Y96080000D02*
G75*
G02*
X77560000Y95930000I0J-150000D01*
G01*
X77560000Y93070000D02*
G75*
G02*
X77410000Y92920000I-150000J0D01*
G01*
D12*
X73430000Y93250000D02*
G75*
G02*
X73370000Y93250000I-30000J0D01*
G01*
X73370000Y93250000D02*
G75*
G02*
X73430000Y93250000I30000J0D01*
G01*
%TO.C,R4*%
D10*
X50340000Y76390000D02*
X50340000Y75430000D01*
X50340000Y73610000D02*
X50340000Y74570000D01*
X51660000Y76390000D02*
X50340000Y76390000D01*
X51660000Y75430000D02*
X51660000Y76390000D01*
X51660000Y74570000D02*
X51660000Y73610000D01*
X51660000Y73610000D02*
X50340000Y73610000D01*
%TO.C,J8*%
D14*
X8690000Y15510000D02*
X11310000Y15510000D01*
X11260000Y14620000D02*
X8730000Y14620000D01*
X13770000Y15510000D02*
X27390000Y15510000D01*
X27390000Y15510000D02*
X27390000Y14620000D01*
X27390000Y14620000D02*
X13810000Y14620000D01*
%TO.C,C19*%
D10*
X118040000Y44250000D02*
X118040000Y45750000D01*
X118190000Y45900000D02*
X119600000Y45900000D01*
X119600000Y44100000D02*
X118190000Y44100000D01*
X120400000Y44100000D02*
X121810000Y44100000D01*
X121810000Y45900000D02*
X120400000Y45900000D01*
X121960000Y44250000D02*
X121960000Y45750000D01*
X118040000Y45750000D02*
G75*
G02*
X118190000Y45900000I150000J0D01*
G01*
X118190000Y44100000D02*
G75*
G02*
X118040000Y44250000I0J150000D01*
G01*
X121810000Y45900000D02*
G75*
G02*
X121960000Y45750000I0J-150000D01*
G01*
X121960000Y44250000D02*
G75*
G02*
X121810000Y44100000I-150000J0D01*
G01*
%TO.C,PTC3*%
X138910000Y42930000D02*
X138910000Y44120000D01*
X138910000Y41070000D02*
X138910000Y39880000D01*
X139060000Y44270000D02*
X140940000Y44270000D01*
X139060000Y39730000D02*
X140940000Y39730000D01*
X141090000Y44120000D02*
X141090000Y42930000D01*
X141090000Y39880000D02*
X141090000Y41070000D01*
D15*
X139997801Y41998731D02*
G75*
G02*
X140840000Y42000000I422198J-728730D01*
G01*
X140002199Y42001269D02*
G75*
G02*
X139160000Y42000000I-422199J728731D01*
G01*
%TO.C,C33*%
D10*
X59040000Y46250000D02*
X59040000Y47750000D01*
X59190000Y47900000D02*
X60600000Y47900000D01*
X60600000Y46100000D02*
X59190000Y46100000D01*
X61400000Y46100000D02*
X62810000Y46100000D01*
X62810000Y47900000D02*
X61400000Y47900000D01*
X62960000Y46250000D02*
X62960000Y47750000D01*
X59040000Y47750000D02*
G75*
G02*
X59190000Y47900000I150000J0D01*
G01*
X59190000Y46100000D02*
G75*
G02*
X59040000Y46250000I0J150000D01*
G01*
X62810000Y47900000D02*
G75*
G02*
X62960000Y47750000I0J-150000D01*
G01*
X62960000Y46250000D02*
G75*
G02*
X62810000Y46100000I-150000J0D01*
G01*
%TO.C,C38*%
X53100000Y103310000D02*
X53100000Y101900000D01*
X53100000Y99690000D02*
X53100000Y101100000D01*
X54750000Y103460000D02*
X53250000Y103460000D01*
X54750000Y99540000D02*
X53250000Y99540000D01*
X54900000Y101900000D02*
X54900000Y103310000D01*
X54900000Y101100000D02*
X54900000Y99690000D01*
X53100000Y103310000D02*
G75*
G02*
X53250000Y103460000I150000J0D01*
G01*
X53250000Y99540000D02*
G75*
G02*
X53100000Y99690000I0J150000D01*
G01*
X54750000Y103460000D02*
G75*
G02*
X54900000Y103310000I0J-150000D01*
G01*
X54900000Y99690000D02*
G75*
G02*
X54750000Y99540000I-150000J0D01*
G01*
%TO.C,LED4*%
X133250000Y10390000D02*
X134730000Y10390000D01*
X133250000Y9240000D02*
X133250000Y10390000D01*
X133250000Y8860000D02*
X133250000Y7810000D01*
X133550000Y7510000D02*
X133250000Y7810000D01*
X133650000Y9220000D02*
X133660000Y9220000D01*
X133650000Y9220000D02*
X134330000Y9220000D01*
X133650000Y7510000D02*
X133550000Y7510000D01*
X133650000Y7510000D02*
X134350000Y7510000D01*
X133660000Y9220000D02*
X134000000Y8880000D01*
X134000000Y9220000D02*
X134000000Y8880000D01*
X134330000Y9220000D02*
X134330000Y9210000D01*
X134330000Y9210000D02*
X134000000Y8880000D01*
X134350000Y7510000D02*
X134450000Y7510000D01*
X134450000Y7510000D02*
X134750000Y7810000D01*
X134750000Y9240000D02*
X134750000Y10390000D01*
X134750000Y8860000D02*
X134750000Y7810000D01*
%TO.C,C16*%
D14*
X94290000Y45280000D02*
X94290000Y46080000D01*
X94290000Y44720000D02*
X94290000Y43920000D01*
X94600000Y46390000D02*
X95400000Y46390000D01*
X95400000Y43610000D02*
X94600000Y43610000D01*
X95710000Y45280000D02*
X95710000Y46080000D01*
X95710000Y44720000D02*
X95710000Y43920000D01*
X94290000Y46080000D02*
G75*
G02*
X94600000Y46390000I310000J0D01*
G01*
X94600000Y43610000D02*
G75*
G02*
X94290000Y43920000I0J310000D01*
G01*
X95400000Y46390000D02*
G75*
G02*
X95710000Y46080000I0J-310000D01*
G01*
X95710000Y43920000D02*
G75*
G02*
X95400000Y43610000I-310000J0D01*
G01*
%TO.C,C14*%
D10*
X66440000Y100070000D02*
X66440000Y102930000D01*
X66590000Y103080000D02*
X68220000Y103080000D01*
X68220000Y99920000D02*
X66590000Y99920000D01*
X69780000Y99920000D02*
X71410000Y99920000D01*
X71410000Y103080000D02*
X69780000Y103080000D01*
X71560000Y100070000D02*
X71560000Y102930000D01*
X66440000Y102930000D02*
G75*
G02*
X66590000Y103080000I150000J0D01*
G01*
X66590000Y99920000D02*
G75*
G02*
X66440000Y100070000I0J150000D01*
G01*
X71410000Y103080000D02*
G75*
G02*
X71560000Y102930000I0J-150000D01*
G01*
X71560000Y100070000D02*
G75*
G02*
X71410000Y99920000I-150000J0D01*
G01*
D12*
X67430000Y100250000D02*
G75*
G02*
X67370000Y100250000I-30000J0D01*
G01*
X67370000Y100250000D02*
G75*
G02*
X67430000Y100250000I30000J0D01*
G01*
%TO.C,R5*%
D10*
X54610000Y44660000D02*
X55570000Y44660000D01*
X54610000Y43340000D02*
X54610000Y44660000D01*
X55570000Y43340000D02*
X54610000Y43340000D01*
X56430000Y43340000D02*
X57390000Y43340000D01*
X57390000Y44660000D02*
X56430000Y44660000D01*
X57390000Y43340000D02*
X57390000Y44660000D01*
%TO.C,U6*%
X103100000Y102600000D02*
X111800000Y102600000D01*
X103100000Y91400000D02*
X111800000Y91400000D01*
X116915000Y92450000D02*
G75*
G02*
X116515000Y92450000I-200000J0D01*
G01*
X116515000Y92450000D02*
G75*
G02*
X116915000Y92450000I200000J0D01*
G01*
%TO.C,R8*%
X126080000Y15760000D02*
X126080000Y14480000D01*
X126080000Y12240000D02*
X126080000Y13520000D01*
X127920000Y15760000D02*
X126080000Y15760000D01*
X127920000Y14480000D02*
X127920000Y15760000D01*
X127920000Y13520000D02*
X127920000Y12240000D01*
X127920000Y12240000D02*
X126080000Y12240000D01*
%TO.C,U4*%
X46030000Y42160000D02*
X46500000Y42160000D01*
X46030000Y31840000D02*
X46500000Y31840000D01*
X46130000Y42160000D02*
X44340000Y42160000D01*
X46150000Y31840000D02*
X44340000Y31840000D01*
X46500000Y31840000D02*
X46500000Y42160000D01*
D16*
X50260000Y32430000D02*
G75*
G02*
X49860000Y32430000I-200000J0D01*
G01*
X49860000Y32430000D02*
G75*
G02*
X50260000Y32430000I200000J0D01*
G01*
%TO.C,R6*%
D10*
X50340000Y46390000D02*
X50340000Y45430000D01*
X50340000Y43610000D02*
X50340000Y44570000D01*
X51660000Y46390000D02*
X50340000Y46390000D01*
X51660000Y45430000D02*
X51660000Y46390000D01*
X51660000Y44570000D02*
X51660000Y43610000D01*
X51660000Y43610000D02*
X50340000Y43610000D01*
%TO.C,C10*%
X54040000Y29250000D02*
X54040000Y30750000D01*
X54190000Y30900000D02*
X55600000Y30900000D01*
X55600000Y29100000D02*
X54190000Y29100000D01*
X56400000Y29100000D02*
X57810000Y29100000D01*
X57810000Y30900000D02*
X56400000Y30900000D01*
X57960000Y29250000D02*
X57960000Y30750000D01*
X54040000Y30750000D02*
G75*
G02*
X54190000Y30900000I150000J0D01*
G01*
X54190000Y29100000D02*
G75*
G02*
X54040000Y29250000I0J150000D01*
G01*
X57810000Y30900000D02*
G75*
G02*
X57960000Y30750000I0J-150000D01*
G01*
X57960000Y29250000D02*
G75*
G02*
X57810000Y29100000I-150000J0D01*
G01*
%TO.C,C17*%
X118040000Y88250000D02*
X118040000Y89750000D01*
X118190000Y89900000D02*
X119600000Y89900000D01*
X119600000Y88100000D02*
X118190000Y88100000D01*
X120400000Y88100000D02*
X121810000Y88100000D01*
X121810000Y89900000D02*
X120400000Y89900000D01*
X121960000Y88250000D02*
X121960000Y89750000D01*
X118040000Y89750000D02*
G75*
G02*
X118190000Y89900000I150000J0D01*
G01*
X118190000Y88100000D02*
G75*
G02*
X118040000Y88250000I0J150000D01*
G01*
X121810000Y89900000D02*
G75*
G02*
X121960000Y89750000I0J-150000D01*
G01*
X121960000Y88250000D02*
G75*
G02*
X121810000Y88100000I-150000J0D01*
G01*
%TO.C,L3*%
D14*
X62100000Y43400000D02*
X75900000Y43400000D01*
X62100000Y39730000D02*
X62100000Y43400000D01*
X62100000Y30600000D02*
X62100000Y34270000D01*
X75900000Y43400000D02*
X75900000Y39730000D01*
X75900000Y34270000D02*
X75900000Y30600000D01*
X75900000Y30600000D02*
X62100000Y30600000D01*
%TO.C,C36*%
D10*
X72440000Y97570000D02*
X72440000Y100430000D01*
X72590000Y100580000D02*
X74220000Y100580000D01*
X74220000Y97420000D02*
X72590000Y97420000D01*
X75780000Y97420000D02*
X77410000Y97420000D01*
X77410000Y100580000D02*
X75780000Y100580000D01*
X77560000Y97570000D02*
X77560000Y100430000D01*
X72440000Y100430000D02*
G75*
G02*
X72590000Y100580000I150000J0D01*
G01*
X72590000Y97420000D02*
G75*
G02*
X72440000Y97570000I0J150000D01*
G01*
X77410000Y100580000D02*
G75*
G02*
X77560000Y100430000I0J-150000D01*
G01*
X77560000Y97570000D02*
G75*
G02*
X77410000Y97420000I-150000J0D01*
G01*
D12*
X73430000Y97750000D02*
G75*
G02*
X73370000Y97750000I-30000J0D01*
G01*
X73370000Y97750000D02*
G75*
G02*
X73430000Y97750000I30000J0D01*
G01*
%TO.C,L2*%
D14*
X62100000Y73400000D02*
X75900000Y73400000D01*
X62100000Y69730000D02*
X62100000Y73400000D01*
X62100000Y60600000D02*
X62100000Y64270000D01*
X75900000Y73400000D02*
X75900000Y69730000D01*
X75900000Y64270000D02*
X75900000Y60600000D01*
X75900000Y60600000D02*
X62100000Y60600000D01*
%TO.C,R22*%
D10*
X128610000Y104660000D02*
X129570000Y104660000D01*
X128610000Y103340000D02*
X128610000Y104660000D01*
X129570000Y103340000D02*
X128610000Y103340000D01*
X130430000Y103340000D02*
X131390000Y103340000D01*
X131390000Y104660000D02*
X130430000Y104660000D01*
X131390000Y103340000D02*
X131390000Y104660000D01*
%TO.C,D2*%
X55570000Y68600000D02*
X55810000Y68600000D01*
X55570000Y65120000D02*
X58430000Y65120000D01*
X55570000Y63400000D02*
X55570000Y68600000D01*
X58180000Y68590000D02*
X58410000Y68600000D01*
X58430000Y63400000D02*
X58430000Y68600000D01*
%TO.C,R2*%
X45610000Y100660000D02*
X46570000Y100660000D01*
X45610000Y99340000D02*
X45610000Y100660000D01*
X46570000Y99340000D02*
X45610000Y99340000D01*
X47430000Y99340000D02*
X48390000Y99340000D01*
X48390000Y100660000D02*
X47430000Y100660000D01*
X48390000Y99340000D02*
X48390000Y100660000D01*
%TO.C,PTC1*%
X138350000Y104290000D02*
X138350000Y102900000D01*
X138350000Y99710000D02*
X138350000Y101100000D01*
X138600000Y104670000D02*
X141400000Y104670000D01*
X138600000Y99330000D02*
X141400000Y99330000D01*
X141650000Y102890000D02*
X141650000Y104290000D01*
X141650000Y101110000D02*
X141650000Y99710000D01*
X140000000Y102000000D02*
G75*
G02*
X139620000Y102000000I-190000J0D01*
G01*
X140000000Y102000000D02*
G75*
G02*
X140380000Y102000000I190000J0D01*
G01*
%TO.C,LED2*%
X119250000Y10390000D02*
X120730000Y10390000D01*
X119250000Y9240000D02*
X119250000Y10390000D01*
X119250000Y8860000D02*
X119250000Y7810000D01*
X119550000Y7510000D02*
X119250000Y7810000D01*
X119650000Y9220000D02*
X119660000Y9220000D01*
X119650000Y9220000D02*
X120330000Y9220000D01*
X119650000Y7510000D02*
X119550000Y7510000D01*
X119650000Y7510000D02*
X120350000Y7510000D01*
X119660000Y9220000D02*
X120000000Y8880000D01*
X120000000Y9220000D02*
X120000000Y8880000D01*
X120330000Y9220000D02*
X120330000Y9210000D01*
X120330000Y9210000D02*
X120000000Y8880000D01*
X120350000Y7510000D02*
X120450000Y7510000D01*
X120450000Y7510000D02*
X120750000Y7810000D01*
X120750000Y9240000D02*
X120750000Y10390000D01*
X120750000Y8860000D02*
X120750000Y7810000D01*
%TO.C,TVS3*%
D14*
X142500000Y34300000D02*
X142820000Y34300000D01*
X142500000Y29700000D02*
X142500000Y34300000D01*
X142500000Y29700000D02*
X142820000Y29700000D01*
X143240000Y32510000D02*
X144000000Y31750000D01*
X144000000Y33270000D02*
X144000000Y30980000D01*
X144000000Y31750000D02*
X144760000Y32510000D01*
X144760000Y32510000D02*
X143240000Y32510000D01*
X144760000Y31750000D02*
X143240000Y31750000D01*
X145180000Y34300000D02*
X145500000Y34300000D01*
X145180000Y29700000D02*
X145500000Y29700000D01*
X145500000Y34300000D02*
X145500000Y29700000D01*
%TO.C,U8*%
D10*
X103100000Y42600000D02*
X111800000Y42600000D01*
X103100000Y31400000D02*
X111800000Y31400000D01*
X116915000Y32450000D02*
G75*
G02*
X116515000Y32450000I-200000J0D01*
G01*
X116515000Y32450000D02*
G75*
G02*
X116915000Y32450000I200000J0D01*
G01*
%TO.C,R25*%
X128610000Y74660000D02*
X129570000Y74660000D01*
X128610000Y73340000D02*
X128610000Y74660000D01*
X129570000Y73340000D02*
X128610000Y73340000D01*
X130430000Y73340000D02*
X131390000Y73340000D01*
X131390000Y74660000D02*
X130430000Y74660000D01*
X131390000Y73340000D02*
X131390000Y74660000D01*
%TO.C,TVS2*%
D14*
X142500000Y64300000D02*
X142820000Y64300000D01*
X142500000Y59700000D02*
X142500000Y64300000D01*
X142500000Y59700000D02*
X142820000Y59700000D01*
X143240000Y62510000D02*
X144000000Y61750000D01*
X144000000Y63270000D02*
X144000000Y60980000D01*
X144000000Y61750000D02*
X144760000Y62510000D01*
X144760000Y62510000D02*
X143240000Y62510000D01*
X144760000Y61750000D02*
X143240000Y61750000D01*
X145180000Y64300000D02*
X145500000Y64300000D01*
X145180000Y59700000D02*
X145500000Y59700000D01*
X145500000Y64300000D02*
X145500000Y59700000D01*
%TO.C,U7*%
D10*
X103100000Y72600000D02*
X111800000Y72600000D01*
X103100000Y61400000D02*
X111800000Y61400000D01*
X116915000Y62450000D02*
G75*
G02*
X116515000Y62450000I-200000J0D01*
G01*
X116515000Y62450000D02*
G75*
G02*
X116915000Y62450000I200000J0D01*
G01*
%TO.C,C7*%
X40780000Y59230000D02*
X49090000Y59230000D01*
X40780000Y54850000D02*
X40780000Y59230000D01*
X40780000Y53150000D02*
X40780000Y48780000D01*
X40780000Y48780000D02*
X49090000Y48780000D01*
X49090000Y59230000D02*
X51230000Y57090000D01*
X49090000Y48780000D02*
X51230000Y50910000D01*
X51230000Y57090000D02*
X51230000Y54850000D01*
X51230000Y50910000D02*
X51230000Y53150000D01*
%TO.C,C5*%
X29780000Y96220000D02*
X29780000Y87910000D01*
X29780000Y87910000D02*
X31910000Y85770000D01*
X31910000Y85770000D02*
X34150000Y85770000D01*
X34150000Y96220000D02*
X29780000Y96220000D01*
X35850000Y96220000D02*
X40230000Y96220000D01*
X38090000Y85770000D02*
X35850000Y85770000D01*
X40230000Y96220000D02*
X40230000Y87910000D01*
X40230000Y87910000D02*
X38090000Y85770000D01*
%TO.C,C25*%
X128780000Y29230000D02*
X137090000Y29230000D01*
X128780000Y24850000D02*
X128780000Y29230000D01*
X128780000Y23150000D02*
X128780000Y18780000D01*
X128780000Y18780000D02*
X137090000Y18780000D01*
X137090000Y29230000D02*
X139230000Y27090000D01*
X137090000Y18780000D02*
X139230000Y20910000D01*
X139230000Y27090000D02*
X139230000Y24850000D01*
X139230000Y20910000D02*
X139230000Y23150000D01*
%TO.C,P1*%
X7400000Y72800000D02*
X18400000Y72800000D01*
%TO.C,C41*%
X119620000Y68980000D02*
X119620000Y67690000D01*
X119620000Y65020000D02*
X119640000Y66310000D01*
X121020000Y70380000D02*
X119620000Y68980000D01*
X121020000Y63620000D02*
X119620000Y65020000D01*
X126360000Y66260000D02*
X126380000Y63620000D01*
X126370000Y67710000D02*
X126380000Y70380000D01*
X126380000Y70380000D02*
X121020000Y70380000D01*
X126380000Y63620000D02*
X121020000Y63620000D01*
%TO.C,C24*%
X89780000Y36220000D02*
X89780000Y27910000D01*
X89780000Y27910000D02*
X91910000Y25770000D01*
X91910000Y25770000D02*
X94150000Y25770000D01*
X94150000Y36220000D02*
X89780000Y36220000D01*
X95850000Y36220000D02*
X100230000Y36220000D01*
X98090000Y25770000D02*
X95850000Y25770000D01*
X100230000Y36220000D02*
X100230000Y27910000D01*
X100230000Y27910000D02*
X98090000Y25770000D01*
%TO.C,J7*%
D14*
X8690000Y29510000D02*
X11310000Y29510000D01*
X11260000Y28620000D02*
X8730000Y28620000D01*
X13770000Y29510000D02*
X27390000Y29510000D01*
X27390000Y29510000D02*
X27390000Y28620000D01*
X27390000Y28620000D02*
X13810000Y28620000D01*
%TO.C,J10*%
X41030000Y9000000D02*
X68970000Y9000000D01*
X41030000Y500000D02*
X41030000Y9000000D01*
X52700000Y5300000D02*
X52700000Y500000D01*
X57300000Y5300000D02*
X52700000Y5300000D01*
X57300000Y5300000D02*
X57300000Y500000D01*
X68970000Y9000000D02*
X68970000Y500000D01*
D17*
X65870000Y13430000D02*
G75*
G02*
X65630000Y13430000I-120000J0D01*
G01*
X65630000Y13430000D02*
G75*
G02*
X65870000Y13430000I120000J0D01*
G01*
D18*
X69060000Y13500000D02*
G75*
G02*
X68860000Y13500000I-100000J0D01*
G01*
X68860000Y13500000D02*
G75*
G02*
X69060000Y13500000I100000J0D01*
G01*
%TO.C,J11*%
D14*
X82030000Y9000000D02*
X109970000Y9000000D01*
X82030000Y500000D02*
X82030000Y9000000D01*
X93700000Y5300000D02*
X93700000Y500000D01*
X98300000Y5300000D02*
X93700000Y5300000D01*
X98300000Y5300000D02*
X98300000Y500000D01*
X109970000Y9000000D02*
X109970000Y500000D01*
D17*
X106870000Y13430000D02*
G75*
G02*
X106630000Y13430000I-120000J0D01*
G01*
X106630000Y13430000D02*
G75*
G02*
X106870000Y13430000I120000J0D01*
G01*
D18*
X110060000Y13500000D02*
G75*
G02*
X109860000Y13500000I-100000J0D01*
G01*
X109860000Y13500000D02*
G75*
G02*
X110060000Y13500000I100000J0D01*
G01*
%TO.C,C18*%
D10*
X118040000Y58250000D02*
X118040000Y59750000D01*
X118190000Y59900000D02*
X119600000Y59900000D01*
X119600000Y58100000D02*
X118190000Y58100000D01*
X120400000Y58100000D02*
X121810000Y58100000D01*
X121810000Y59900000D02*
X120400000Y59900000D01*
X121960000Y58250000D02*
X121960000Y59750000D01*
X118040000Y59750000D02*
G75*
G02*
X118190000Y59900000I150000J0D01*
G01*
X118190000Y58100000D02*
G75*
G02*
X118040000Y58250000I0J150000D01*
G01*
X121810000Y59900000D02*
G75*
G02*
X121960000Y59750000I0J-150000D01*
G01*
X121960000Y58250000D02*
G75*
G02*
X121810000Y58100000I-150000J0D01*
G01*
%TO.C,C20*%
X66440000Y91070000D02*
X66440000Y93930000D01*
X66590000Y94080000D02*
X68220000Y94080000D01*
X68220000Y90920000D02*
X66590000Y90920000D01*
X69780000Y90920000D02*
X71410000Y90920000D01*
X71410000Y94080000D02*
X69780000Y94080000D01*
X71560000Y91070000D02*
X71560000Y93930000D01*
X66440000Y93930000D02*
G75*
G02*
X66590000Y94080000I150000J0D01*
G01*
X66590000Y90920000D02*
G75*
G02*
X66440000Y91070000I0J150000D01*
G01*
X71410000Y94080000D02*
G75*
G02*
X71560000Y93930000I0J-150000D01*
G01*
X71560000Y91070000D02*
G75*
G02*
X71410000Y90920000I-150000J0D01*
G01*
D12*
X67430000Y91250000D02*
G75*
G02*
X67370000Y91250000I-30000J0D01*
G01*
X67370000Y91250000D02*
G75*
G02*
X67430000Y91250000I30000J0D01*
G01*
%TO.C,U3*%
D10*
X46030000Y72160000D02*
X46500000Y72160000D01*
X46030000Y61840000D02*
X46500000Y61840000D01*
X46130000Y72160000D02*
X44340000Y72160000D01*
X46150000Y61840000D02*
X44340000Y61840000D01*
X46500000Y61840000D02*
X46500000Y72160000D01*
D16*
X50260000Y62430000D02*
G75*
G02*
X49860000Y62430000I-200000J0D01*
G01*
X49860000Y62430000D02*
G75*
G02*
X50260000Y62430000I200000J0D01*
G01*
%TO.C,LED3*%
D10*
X126250000Y10390000D02*
X127730000Y10390000D01*
X126250000Y9240000D02*
X126250000Y10390000D01*
X126250000Y8860000D02*
X126250000Y7810000D01*
X126550000Y7510000D02*
X126250000Y7810000D01*
X126650000Y9220000D02*
X126660000Y9220000D01*
X126650000Y9220000D02*
X127330000Y9220000D01*
X126650000Y7510000D02*
X126550000Y7510000D01*
X126650000Y7510000D02*
X127350000Y7510000D01*
X126660000Y9220000D02*
X127000000Y8880000D01*
X127000000Y9220000D02*
X127000000Y8880000D01*
X127330000Y9220000D02*
X127330000Y9210000D01*
X127330000Y9210000D02*
X127000000Y8880000D01*
X127350000Y7510000D02*
X127450000Y7510000D01*
X127450000Y7510000D02*
X127750000Y7810000D01*
X127750000Y9240000D02*
X127750000Y10390000D01*
X127750000Y8860000D02*
X127750000Y7810000D01*
%TO.C,C46*%
X42940000Y87430000D02*
X42940000Y84570000D01*
X43090000Y84420000D02*
X44720000Y84420000D01*
X44720000Y87580000D02*
X43090000Y87580000D01*
X46280000Y87580000D02*
X47910000Y87580000D01*
X47910000Y84420000D02*
X46280000Y84420000D01*
X48060000Y87430000D02*
X48060000Y84570000D01*
X42940000Y87430000D02*
G75*
G02*
X43090000Y87580000I150000J0D01*
G01*
X43090000Y84420000D02*
G75*
G02*
X42940000Y84570000I0J150000D01*
G01*
X47910000Y87580000D02*
G75*
G02*
X48060000Y87430000I0J-150000D01*
G01*
X48060000Y84570000D02*
G75*
G02*
X47910000Y84420000I-150000J0D01*
G01*
D12*
X47130000Y87250000D02*
G75*
G02*
X47070000Y87250000I-30000J0D01*
G01*
X47070000Y87250000D02*
G75*
G02*
X47130000Y87250000I30000J0D01*
G01*
%TO.C,C32*%
D10*
X59040000Y76250000D02*
X59040000Y77750000D01*
X59190000Y77900000D02*
X60600000Y77900000D01*
X60600000Y76100000D02*
X59190000Y76100000D01*
X61400000Y76100000D02*
X62810000Y76100000D01*
X62810000Y77900000D02*
X61400000Y77900000D01*
X62960000Y76250000D02*
X62960000Y77750000D01*
X59040000Y77750000D02*
G75*
G02*
X59190000Y77900000I150000J0D01*
G01*
X59190000Y76100000D02*
G75*
G02*
X59040000Y76250000I0J150000D01*
G01*
X62810000Y77900000D02*
G75*
G02*
X62960000Y77750000I0J-150000D01*
G01*
X62960000Y76250000D02*
G75*
G02*
X62810000Y76100000I-150000J0D01*
G01*
%TO.C,J6*%
D14*
X8690000Y57510000D02*
X11310000Y57510000D01*
X11260000Y56620000D02*
X8730000Y56620000D01*
X13770000Y57510000D02*
X27390000Y57510000D01*
X27390000Y57510000D02*
X27390000Y56620000D01*
X27390000Y56620000D02*
X13810000Y56620000D01*
%TO.C,C23*%
D10*
X130620000Y55980000D02*
X130620000Y54690000D01*
X130620000Y52020000D02*
X130640000Y53310000D01*
X132020000Y57380000D02*
X130620000Y55980000D01*
X132020000Y50620000D02*
X130620000Y52020000D01*
X137360000Y53260000D02*
X137380000Y50620000D01*
X137370000Y54710000D02*
X137380000Y57380000D01*
X137380000Y57380000D02*
X132020000Y57380000D01*
X137380000Y50620000D02*
X132020000Y50620000D01*
%TO.C,R23*%
X122610000Y77660000D02*
X123570000Y77660000D01*
X122610000Y76340000D02*
X122610000Y77660000D01*
X123570000Y76340000D02*
X122610000Y76340000D01*
X124430000Y76340000D02*
X125390000Y76340000D01*
X125390000Y77660000D02*
X124430000Y77660000D01*
X125390000Y76340000D02*
X125390000Y77660000D01*
%TO.C,TVS1*%
D14*
X142500000Y94300000D02*
X142820000Y94300000D01*
X142500000Y89700000D02*
X142500000Y94300000D01*
X142500000Y89700000D02*
X142820000Y89700000D01*
X143240000Y92510000D02*
X144000000Y91750000D01*
X144000000Y93270000D02*
X144000000Y90980000D01*
X144000000Y91750000D02*
X144760000Y92510000D01*
X144760000Y92510000D02*
X143240000Y92510000D01*
X144760000Y91750000D02*
X143240000Y91750000D01*
X145180000Y94300000D02*
X145500000Y94300000D01*
X145180000Y89700000D02*
X145500000Y89700000D01*
X145500000Y94300000D02*
X145500000Y89700000D01*
%TO.C,C42*%
D10*
X119620000Y40380000D02*
X124980000Y40380000D01*
X119620000Y33620000D02*
X124980000Y33620000D01*
X119630000Y36290000D02*
X119620000Y33620000D01*
X119640000Y37740000D02*
X119620000Y40380000D01*
X124980000Y40380000D02*
X126380000Y38980000D01*
X124980000Y33620000D02*
X126380000Y35020000D01*
X126380000Y38980000D02*
X126360000Y37690000D01*
X126380000Y35020000D02*
X126380000Y36310000D01*
%TO.C,C22*%
X91620000Y64380000D02*
X91620000Y59020000D01*
X91620000Y59020000D02*
X93020000Y57620000D01*
X93020000Y57620000D02*
X94310000Y57620000D01*
X94290000Y64370000D02*
X91620000Y64380000D01*
X95740000Y64360000D02*
X98380000Y64380000D01*
X96980000Y57620000D02*
X95690000Y57640000D01*
X98380000Y64380000D02*
X98380000Y59020000D01*
X98380000Y59020000D02*
X96980000Y57620000D01*
%TO.C,R20*%
X122610000Y107660000D02*
X123570000Y107660000D01*
X122610000Y106340000D02*
X122610000Y107660000D01*
X123570000Y106340000D02*
X122610000Y106340000D01*
X124430000Y106340000D02*
X125390000Y106340000D01*
X125390000Y107660000D02*
X124430000Y107660000D01*
X125390000Y106340000D02*
X125390000Y107660000D01*
%TO.C,PTC2*%
X137970000Y74540000D02*
X137970000Y73270000D01*
X137970000Y69460000D02*
X137970000Y70770000D01*
X138200000Y69210000D02*
X141760000Y69210000D01*
X138220000Y74790000D02*
X141780000Y74790000D01*
X142030000Y73270000D02*
X142030000Y74540000D01*
X142030000Y70730000D02*
X142030000Y69460000D01*
X139989040Y71994634D02*
G75*
G02*
X140630000Y72000000I320960J-54634D01*
G01*
X140010960Y72005366D02*
G75*
G02*
X139370000Y72000000I-320960J54634D01*
G01*
%TO.C,C40*%
X119620000Y98980000D02*
X119620000Y97690000D01*
X119620000Y95020000D02*
X119640000Y96310000D01*
X121020000Y100380000D02*
X119620000Y98980000D01*
X121020000Y93620000D02*
X119620000Y95020000D01*
X126360000Y96260000D02*
X126380000Y93620000D01*
X126370000Y97710000D02*
X126380000Y100380000D01*
X126380000Y100380000D02*
X121020000Y100380000D01*
X126380000Y93620000D02*
X121020000Y93620000D01*
%TO.C,U2*%
X52120000Y98530000D02*
X53880000Y98530000D01*
X52120000Y95470000D02*
X53880000Y95470000D01*
D12*
X51630000Y98450000D02*
G75*
G02*
X51570000Y98450000I-30000J0D01*
G01*
X51570000Y98450000D02*
G75*
G02*
X51630000Y98450000I30000J0D01*
G01*
D19*
X51860000Y98670000D02*
G75*
G02*
X51560000Y98670000I-150000J0D01*
G01*
X51560000Y98670000D02*
G75*
G02*
X51860000Y98670000I150000J0D01*
G01*
%TO.C,C12*%
D10*
X74770000Y27090000D02*
X74770000Y24850000D01*
X74770000Y20910000D02*
X74770000Y23150000D01*
X76910000Y29220000D02*
X74770000Y27090000D01*
X76910000Y18770000D02*
X74770000Y20910000D01*
X85220000Y29220000D02*
X76910000Y29220000D01*
X85220000Y24850000D02*
X85220000Y29220000D01*
X85220000Y23150000D02*
X85220000Y18770000D01*
X85220000Y18770000D02*
X76910000Y18770000D01*
%TO.C,R3*%
X54610000Y74660000D02*
X55570000Y74660000D01*
X54610000Y73340000D02*
X54610000Y74660000D01*
X55570000Y73340000D02*
X54610000Y73340000D01*
X56430000Y73340000D02*
X57390000Y73340000D01*
X57390000Y74660000D02*
X56430000Y74660000D01*
X57390000Y73340000D02*
X57390000Y74660000D01*
%TO.C,R21*%
X122610000Y104660000D02*
X123570000Y104660000D01*
X122610000Y103340000D02*
X122610000Y104660000D01*
X123570000Y103340000D02*
X122610000Y103340000D01*
X124430000Y103340000D02*
X125390000Y103340000D01*
X125390000Y104660000D02*
X124430000Y104660000D01*
X125390000Y103340000D02*
X125390000Y104660000D01*
%TO.C,C3*%
X66440000Y95570000D02*
X66440000Y98430000D01*
X66590000Y98580000D02*
X68220000Y98580000D01*
X68220000Y95420000D02*
X66590000Y95420000D01*
X69780000Y95420000D02*
X71410000Y95420000D01*
X71410000Y98580000D02*
X69780000Y98580000D01*
X71560000Y95570000D02*
X71560000Y98430000D01*
X66440000Y98430000D02*
G75*
G02*
X66590000Y98580000I150000J0D01*
G01*
X66590000Y95420000D02*
G75*
G02*
X66440000Y95570000I0J150000D01*
G01*
X71410000Y98580000D02*
G75*
G02*
X71560000Y98430000I0J-150000D01*
G01*
X71560000Y95570000D02*
G75*
G02*
X71410000Y95420000I-150000J0D01*
G01*
D12*
X67430000Y95750000D02*
G75*
G02*
X67370000Y95750000I-30000J0D01*
G01*
X67370000Y95750000D02*
G75*
G02*
X67430000Y95750000I30000J0D01*
G01*
%TO.C,D3*%
D10*
X55600000Y33750000D02*
X55600000Y38250000D01*
X55600000Y33750000D02*
X55850000Y33750000D01*
X58150000Y33750000D02*
X58400000Y33750000D01*
X58400000Y33750000D02*
X58400000Y38250000D01*
%TO.C,C15*%
D14*
X94290000Y75280000D02*
X94290000Y76080000D01*
X94290000Y74720000D02*
X94290000Y73920000D01*
X94600000Y76390000D02*
X95400000Y76390000D01*
X95400000Y73610000D02*
X94600000Y73610000D01*
X95710000Y75280000D02*
X95710000Y76080000D01*
X95710000Y74720000D02*
X95710000Y73920000D01*
X94290000Y76080000D02*
G75*
G02*
X94600000Y76390000I310000J0D01*
G01*
X94600000Y73610000D02*
G75*
G02*
X94290000Y73920000I0J310000D01*
G01*
X95400000Y76390000D02*
G75*
G02*
X95710000Y76080000I0J-310000D01*
G01*
X95710000Y73920000D02*
G75*
G02*
X95400000Y73610000I-310000J0D01*
G01*
%TO.C,C11*%
D10*
X79770000Y39490000D02*
X79770000Y37780000D01*
X79770000Y34510000D02*
X79770000Y36220000D01*
X81510000Y41230000D02*
X79770000Y39490000D01*
X81510000Y32770000D02*
X79770000Y34510000D01*
X88230000Y41230000D02*
X81510000Y41230000D01*
X88230000Y37780000D02*
X88230000Y41230000D01*
X88230000Y36220000D02*
X88230000Y32770000D01*
X88230000Y32770000D02*
X81510000Y32770000D01*
D12*
X79480000Y32850000D02*
G75*
G02*
X79420000Y32850000I-30000J0D01*
G01*
X79420000Y32850000D02*
G75*
G02*
X79480000Y32850000I30000J0D01*
G01*
D13*
G36*
X81094926Y38784426D02*
G01*
X80098916Y38784426D01*
X80098916Y39033422D01*
X81094926Y39033422D01*
X81094926Y38784426D01*
G37*
G36*
X80721419Y38078916D02*
G01*
X80472423Y38078916D01*
X80472423Y39738933D01*
X80721419Y39738933D01*
X80721419Y38078916D01*
G37*
G36*
X87900932Y38784426D02*
G01*
X86904922Y38784426D01*
X86904922Y39033422D01*
X87900932Y39033422D01*
X87900932Y38784426D01*
G37*
%TO.C,J9*%
D14*
X8690000Y43510000D02*
X11310000Y43510000D01*
X11260000Y42620000D02*
X8730000Y42620000D01*
X13770000Y43510000D02*
X27390000Y43510000D01*
X27390000Y43510000D02*
X27390000Y42620000D01*
X27390000Y42620000D02*
X13810000Y42620000D01*
%TO.C,R24*%
D10*
X122610000Y74660000D02*
X123570000Y74660000D01*
X122610000Y73340000D02*
X122610000Y74660000D01*
X123570000Y73340000D02*
X122610000Y73340000D01*
X124430000Y73340000D02*
X125390000Y73340000D01*
X125390000Y74660000D02*
X124430000Y74660000D01*
X125390000Y73340000D02*
X125390000Y74660000D01*
%TO.C,C21*%
X128770000Y87090000D02*
X128770000Y84850000D01*
X128770000Y80910000D02*
X128770000Y83150000D01*
X130910000Y89220000D02*
X128770000Y87090000D01*
X130910000Y78770000D02*
X128770000Y80910000D01*
X139220000Y89220000D02*
X130910000Y89220000D01*
X139220000Y84850000D02*
X139220000Y89220000D01*
X139220000Y83150000D02*
X139220000Y78770000D01*
X139220000Y78770000D02*
X130910000Y78770000D01*
%TO.C,C39*%
X50440000Y89070000D02*
X50440000Y91930000D01*
X50590000Y92080000D02*
X52220000Y92080000D01*
X52220000Y88920000D02*
X50590000Y88920000D01*
X53780000Y88920000D02*
X55410000Y88920000D01*
X55410000Y92080000D02*
X53780000Y92080000D01*
X55560000Y89070000D02*
X55560000Y91930000D01*
X50440000Y91930000D02*
G75*
G02*
X50590000Y92080000I150000J0D01*
G01*
X50590000Y88920000D02*
G75*
G02*
X50440000Y89070000I0J150000D01*
G01*
X55410000Y92080000D02*
G75*
G02*
X55560000Y91930000I0J-150000D01*
G01*
X55560000Y89070000D02*
G75*
G02*
X55410000Y88920000I-150000J0D01*
G01*
D12*
X51430000Y89250000D02*
G75*
G02*
X51370000Y89250000I-30000J0D01*
G01*
X51370000Y89250000D02*
G75*
G02*
X51430000Y89250000I30000J0D01*
G01*
%TO.C,R9*%
D10*
X133080000Y15760000D02*
X133080000Y14480000D01*
X133080000Y12240000D02*
X133080000Y13520000D01*
X134920000Y15760000D02*
X133080000Y15760000D01*
X134920000Y14480000D02*
X134920000Y15760000D01*
X134920000Y13520000D02*
X134920000Y12240000D01*
X134920000Y12240000D02*
X133080000Y12240000D01*
%TO.C,C6*%
X51040000Y93250000D02*
X51040000Y94750000D01*
X51190000Y94900000D02*
X52600000Y94900000D01*
X52600000Y93100000D02*
X51190000Y93100000D01*
X53400000Y93100000D02*
X54810000Y93100000D01*
X54810000Y94900000D02*
X53400000Y94900000D01*
X54960000Y93250000D02*
X54960000Y94750000D01*
X51040000Y94750000D02*
G75*
G02*
X51190000Y94900000I150000J0D01*
G01*
X51190000Y93100000D02*
G75*
G02*
X51040000Y93250000I0J150000D01*
G01*
X54810000Y94900000D02*
G75*
G02*
X54960000Y94750000I0J-150000D01*
G01*
X54960000Y93250000D02*
G75*
G02*
X54810000Y93100000I-150000J0D01*
G01*
%TO.C,C8*%
X54040000Y59250000D02*
X54040000Y60750000D01*
X54190000Y60900000D02*
X55600000Y60900000D01*
X55600000Y59100000D02*
X54190000Y59100000D01*
X56400000Y59100000D02*
X57810000Y59100000D01*
X57810000Y60900000D02*
X56400000Y60900000D01*
X57960000Y59250000D02*
X57960000Y60750000D01*
X54040000Y60750000D02*
G75*
G02*
X54190000Y60900000I150000J0D01*
G01*
X54190000Y59100000D02*
G75*
G02*
X54040000Y59250000I0J150000D01*
G01*
X57810000Y60900000D02*
G75*
G02*
X57960000Y60750000I0J-150000D01*
G01*
X57960000Y59250000D02*
G75*
G02*
X57810000Y59100000I-150000J0D01*
G01*
%TO.C,C4*%
X80620000Y68980000D02*
X80620000Y67690000D01*
X80620000Y65020000D02*
X80640000Y66310000D01*
X82020000Y70380000D02*
X80620000Y68980000D01*
X82020000Y63620000D02*
X80620000Y65020000D01*
X87360000Y66260000D02*
X87380000Y63620000D01*
X87370000Y67710000D02*
X87380000Y70380000D01*
X87380000Y70380000D02*
X82020000Y70380000D01*
X87380000Y63620000D02*
X82020000Y63620000D01*
%TO.C,L1*%
X57200000Y100500000D02*
X64800000Y100500000D01*
X57200000Y93500000D02*
X64800000Y93500000D01*
%TO.C,R7*%
X119080000Y15760000D02*
X119080000Y14480000D01*
X119080000Y12240000D02*
X119080000Y13520000D01*
X120920000Y15760000D02*
X119080000Y15760000D01*
X120920000Y14480000D02*
X120920000Y15760000D01*
X120920000Y13520000D02*
X120920000Y12240000D01*
X120920000Y12240000D02*
X119080000Y12240000D01*
%TD*%
%LPC*%
D20*
%TO.C,R1*%
X50000000Y102250000D03*
X50000000Y103750000D03*
%TD*%
D21*
%TO.C,C9*%
X49290000Y24000000D03*
X42710000Y24000000D03*
%TD*%
D22*
%TO.C,C37*%
X73480000Y94500000D03*
X76520000Y94500000D03*
%TD*%
D20*
%TO.C,R4*%
X51000000Y74250000D03*
X51000000Y75750000D03*
%TD*%
D23*
%TO.C,H1*%
X4000000Y111000000D03*
%TD*%
D24*
%TO.C,J8*%
X7460000Y15000000D03*
D25*
X12540000Y15000000D03*
%TD*%
D26*
%TO.C,C19*%
X119000000Y45000000D03*
X121000000Y45000000D03*
%TD*%
D27*
%TO.C,TP4*%
X87000000Y76000000D03*
%TD*%
D28*
%TO.C,PTC3*%
X140000000Y40550000D03*
X140000000Y43450000D03*
%TD*%
D29*
%TO.C,FID2*%
X140000000Y107000000D03*
%TD*%
D26*
%TO.C,C33*%
X60000000Y47000000D03*
X62000000Y47000000D03*
%TD*%
D23*
%TO.C,H5*%
X4000000Y4000000D03*
%TD*%
D30*
%TO.C,C38*%
X54000000Y100500000D03*
X54000000Y102500000D03*
%TD*%
D23*
%TO.C,H2*%
X23000000Y111000000D03*
%TD*%
D31*
%TO.C,LED4*%
X134000000Y8250000D03*
X134000000Y9750000D03*
%TD*%
D32*
%TO.C,C16*%
X95000000Y44300000D03*
X95000000Y45700000D03*
%TD*%
D22*
%TO.C,C14*%
X67480000Y101500000D03*
X70520000Y101500000D03*
%TD*%
D33*
%TO.C,R5*%
X55250000Y44000000D03*
X56750000Y44000000D03*
%TD*%
D34*
%TO.C,U6*%
X116715000Y93596400D03*
X116715000Y95298200D03*
X116715000Y97000000D03*
X116715000Y98701800D03*
X116715000Y100403600D03*
D35*
X107444000Y97000000D03*
%TD*%
D36*
%TO.C,R8*%
X127000000Y13000000D03*
X127000000Y15000000D03*
%TD*%
D37*
%TO.C,U4*%
X50160000Y33600000D03*
X50160000Y35300000D03*
X50160000Y37000000D03*
X50160000Y38700000D03*
X50160000Y40400000D03*
D38*
X39840000Y37000000D03*
%TD*%
D20*
%TO.C,R6*%
X51000000Y44250000D03*
X51000000Y45750000D03*
%TD*%
D26*
%TO.C,C10*%
X55000000Y30000000D03*
X57000000Y30000000D03*
%TD*%
%TO.C,C17*%
X119000000Y89000000D03*
X121000000Y89000000D03*
%TD*%
D39*
%TO.C,L3*%
X63230000Y37000000D03*
X74770000Y37000000D03*
%TD*%
D22*
%TO.C,C36*%
X73480000Y99000000D03*
X76520000Y99000000D03*
%TD*%
D27*
%TO.C,TP3*%
X87000000Y106000000D03*
%TD*%
D39*
%TO.C,L2*%
X63230000Y67000000D03*
X74770000Y67000000D03*
%TD*%
D33*
%TO.C,R22*%
X129250000Y104000000D03*
X130750000Y104000000D03*
%TD*%
D40*
%TO.C,D2*%
X57000000Y63800000D03*
X57000000Y68200000D03*
%TD*%
D33*
%TO.C,R2*%
X46250000Y100000000D03*
X47750000Y100000000D03*
%TD*%
D41*
%TO.C,PTC1*%
X140000000Y100400000D03*
X140000000Y103600000D03*
%TD*%
D31*
%TO.C,LED2*%
X120000000Y8250000D03*
X120000000Y9750000D03*
%TD*%
D42*
%TO.C,TVS3*%
X144000000Y29670000D03*
X144000000Y34330000D03*
%TD*%
D34*
%TO.C,U8*%
X116715000Y33596400D03*
X116715000Y35298200D03*
X116715000Y37000000D03*
X116715000Y38701800D03*
X116715000Y40403600D03*
D35*
X107444000Y37000000D03*
%TD*%
D33*
%TO.C,R25*%
X129250000Y74000000D03*
X130750000Y74000000D03*
%TD*%
D42*
%TO.C,TVS2*%
X144000000Y59670000D03*
X144000000Y64330000D03*
%TD*%
D34*
%TO.C,U7*%
X116715000Y63596400D03*
X116715000Y65298200D03*
X116715000Y67000000D03*
X116715000Y68701800D03*
X116715000Y70403600D03*
D35*
X107444000Y67000000D03*
%TD*%
D43*
%TO.C,C7*%
X50500000Y54000000D03*
X41500000Y54000000D03*
%TD*%
D44*
%TO.C,C5*%
X35000000Y86500000D03*
X35000000Y95500000D03*
%TD*%
D43*
%TO.C,C25*%
X138500000Y24000000D03*
X129500000Y24000000D03*
%TD*%
D45*
%TO.C,P1*%
X9090000Y71000000D03*
X11630000Y71000000D03*
X14170000Y71000000D03*
X16710000Y71000000D03*
%TD*%
D23*
%TO.C,H3*%
X12800000Y82400000D03*
%TD*%
D46*
%TO.C,C41*%
X120330000Y67000000D03*
X125670000Y67000000D03*
%TD*%
D44*
%TO.C,C24*%
X95000000Y26500000D03*
X95000000Y35500000D03*
%TD*%
D24*
%TO.C,J7*%
X7460000Y29000000D03*
D25*
X12540000Y29000000D03*
%TD*%
D47*
%TO.C,J10*%
X63890000Y13500000D03*
D48*
X63890000Y10960000D03*
X61350000Y13500000D03*
X61350000Y10960000D03*
X58810000Y13500000D03*
X58810000Y10960000D03*
X56270000Y13500000D03*
X56270000Y10960000D03*
X53730000Y13500000D03*
X53730000Y10960000D03*
X51190000Y13500000D03*
X51190000Y10960000D03*
X48650000Y13500000D03*
X48650000Y10960000D03*
X46110000Y13500000D03*
X46110000Y10960000D03*
%TD*%
D47*
%TO.C,J11*%
X104890000Y13500000D03*
D48*
X104890000Y10960000D03*
X102350000Y13500000D03*
X102350000Y10960000D03*
X99810000Y13500000D03*
X99810000Y10960000D03*
X97270000Y13500000D03*
X97270000Y10960000D03*
X94730000Y13500000D03*
X94730000Y10960000D03*
X92190000Y13500000D03*
X92190000Y10960000D03*
X89650000Y13500000D03*
X89650000Y10960000D03*
X87110000Y13500000D03*
X87110000Y10960000D03*
%TD*%
D26*
%TO.C,C18*%
X119000000Y59000000D03*
X121000000Y59000000D03*
%TD*%
D22*
%TO.C,C20*%
X67480000Y92500000D03*
X70520000Y92500000D03*
%TD*%
D37*
%TO.C,U3*%
X50160000Y63600000D03*
X50160000Y65300000D03*
X50160000Y67000000D03*
X50160000Y68700000D03*
X50160000Y70400000D03*
D38*
X39840000Y67000000D03*
%TD*%
D31*
%TO.C,LED3*%
X127000000Y8250000D03*
X127000000Y9750000D03*
%TD*%
D29*
%TO.C,FID1*%
X12000000Y107000000D03*
%TD*%
D22*
%TO.C,C46*%
X47020000Y86000000D03*
X43980000Y86000000D03*
%TD*%
D26*
%TO.C,C32*%
X60000000Y77000000D03*
X62000000Y77000000D03*
%TD*%
D24*
%TO.C,J6*%
X7460000Y57000000D03*
D25*
X12540000Y57000000D03*
%TD*%
D46*
%TO.C,C23*%
X131330000Y54000000D03*
X136670000Y54000000D03*
%TD*%
D33*
%TO.C,R23*%
X123250000Y77000000D03*
X124750000Y77000000D03*
%TD*%
D42*
%TO.C,TVS1*%
X144000000Y89670000D03*
X144000000Y94330000D03*
%TD*%
D46*
%TO.C,C42*%
X125670000Y37000000D03*
X120330000Y37000000D03*
%TD*%
D49*
%TO.C,C22*%
X95000000Y58330000D03*
X95000000Y63670000D03*
%TD*%
D33*
%TO.C,R20*%
X123250000Y107000000D03*
X124750000Y107000000D03*
%TD*%
D50*
%TO.C,PTC2*%
X140000000Y70150000D03*
X140000000Y73850000D03*
%TD*%
D46*
%TO.C,C40*%
X120330000Y97000000D03*
X125670000Y97000000D03*
%TD*%
D51*
%TO.C,U2*%
X51800000Y97950000D03*
X51800000Y97000000D03*
X51800000Y96050000D03*
X54200000Y96050000D03*
X54200000Y97000000D03*
X54200000Y97950000D03*
%TD*%
D43*
%TO.C,C12*%
X75500000Y24000000D03*
X84500000Y24000000D03*
%TD*%
D33*
%TO.C,R3*%
X55250000Y74000000D03*
X56750000Y74000000D03*
%TD*%
D23*
%TO.C,H4*%
X146000000Y111000000D03*
%TD*%
D33*
%TO.C,R21*%
X123250000Y104000000D03*
X124750000Y104000000D03*
%TD*%
D22*
%TO.C,C3*%
X67480000Y97000000D03*
X70520000Y97000000D03*
%TD*%
D52*
%TO.C,D3*%
X57000000Y34000000D03*
X57000000Y38000000D03*
%TD*%
D32*
%TO.C,C15*%
X95000000Y74300000D03*
X95000000Y75700000D03*
%TD*%
D23*
%TO.C,H6*%
X146000000Y4000000D03*
%TD*%
D21*
%TO.C,C11*%
X80710000Y37000000D03*
X87290000Y37000000D03*
%TD*%
D24*
%TO.C,J9*%
X7460000Y43000000D03*
D25*
X12540000Y43000000D03*
%TD*%
D33*
%TO.C,R24*%
X123250000Y74000000D03*
X124750000Y74000000D03*
%TD*%
D43*
%TO.C,C21*%
X129500000Y84000000D03*
X138500000Y84000000D03*
%TD*%
D22*
%TO.C,C39*%
X51480000Y90500000D03*
X54520000Y90500000D03*
%TD*%
D27*
%TO.C,TP5*%
X87000000Y46000000D03*
%TD*%
D36*
%TO.C,R9*%
X134000000Y13000000D03*
X134000000Y15000000D03*
%TD*%
D29*
%TO.C,FID3*%
X18000000Y8000000D03*
%TD*%
D26*
%TO.C,C6*%
X52000000Y94000000D03*
X54000000Y94000000D03*
%TD*%
%TO.C,C8*%
X55000000Y60000000D03*
X57000000Y60000000D03*
%TD*%
D46*
%TO.C,C4*%
X81330000Y67000000D03*
X86670000Y67000000D03*
%TD*%
D53*
%TO.C,L1*%
X57975000Y97000000D03*
X64025000Y97000000D03*
%TD*%
D36*
%TO.C,R7*%
X120000000Y13000000D03*
X120000000Y15000000D03*
%TD*%
D47*
%TO.C,J5*%
X6550000Y77300000D03*
D54*
X9090000Y77300000D03*
X11630000Y77300000D03*
X14170000Y77300000D03*
X16710000Y77300000D03*
X19250000Y77300000D03*
%TD*%
%LPD*%
M02*
