%TF.GenerationSoftware,KiCad,Pcbnew,10.0.0*%
%TF.CreationDate,2026-09-20T15:15:38+09:00*%
%TF.ProjectId,board-b,626f6172-642d-4622-9e6b-696361645f70,rev?*%
%TF.SameCoordinates,Original*%
%TF.FileFunction,Profile,NP*%
%FSLAX46Y46*%
G04 Gerber Fmt 4.6, Leading zero omitted, Abs format (unit mm)*
G04 Created by KiCad (PCBNEW 10.0.0) date 2026-09-20 15:15:38*
%MOMM*%
%LPD*%
G01*
G04 APERTURE LIST*
%TA.AperFunction,Profile*%
%ADD10C,0.050000*%
%TD*%
G04 APERTURE END LIST*
D10*
X0Y85000000D02*
X110000000Y85000000D01*
X0Y43500000D02*
X0Y85000000D01*
X0Y40500000D02*
X1500000Y40500000D01*
X0Y31500000D02*
X0Y40500000D01*
X0Y28500000D02*
X1500000Y28500000D01*
X0Y19500000D02*
X0Y28500000D01*
X0Y16500000D02*
X1500000Y16500000D01*
X0Y0D02*
X0Y16500000D01*
X1500000Y43500000D02*
X0Y43500000D01*
X1500000Y40500000D02*
G75*
G02*
X2000000Y40000000I0J-500000D01*
G01*
X1500000Y31500000D02*
X0Y31500000D01*
X1500000Y28500000D02*
G75*
G02*
X2000000Y28000000I0J-500000D01*
G01*
X1500000Y19500000D02*
X0Y19500000D01*
X1500000Y16500000D02*
G75*
G02*
X2000000Y16000000I0J-500000D01*
G01*
X2000000Y44500000D02*
X2000000Y44000000D01*
X2000000Y44500000D02*
G75*
G02*
X2500000Y45000000I500000J0D01*
G01*
X2000000Y44000000D02*
G75*
G02*
X1500000Y43500000I-500000J0D01*
G01*
X2000000Y40000000D02*
X2000000Y39500000D01*
X2000000Y32500000D02*
X2000000Y32000000D01*
X2000000Y32500000D02*
G75*
G02*
X2500000Y33000000I500000J0D01*
G01*
X2000000Y32000000D02*
G75*
G02*
X1500000Y31500000I-500000J0D01*
G01*
X2000000Y28000000D02*
X2000000Y27500000D01*
X2000000Y20500000D02*
X2000000Y20000000D01*
X2000000Y20500000D02*
G75*
G02*
X2500000Y21000000I500000J0D01*
G01*
X2000000Y20000000D02*
G75*
G02*
X1500000Y19500000I-500000J0D01*
G01*
X2000000Y16000000D02*
X2000000Y15500000D01*
X2500000Y39000000D02*
G75*
G02*
X2000000Y39500000I0J500000D01*
G01*
X2500000Y39000000D02*
X3500000Y39000000D01*
X2500000Y27000000D02*
G75*
G02*
X2000000Y27500000I0J500000D01*
G01*
X2500000Y27000000D02*
X3500000Y27000000D01*
X2500000Y15000000D02*
G75*
G02*
X2000000Y15500000I0J500000D01*
G01*
X2500000Y15000000D02*
X3500000Y15000000D01*
X3500000Y45000000D02*
X2500000Y45000000D01*
X3500000Y45000000D02*
G75*
G02*
X4000000Y44500000I0J-500000D01*
G01*
X3500000Y33000000D02*
X2500000Y33000000D01*
X3500000Y33000000D02*
G75*
G02*
X4000000Y32500000I0J-500000D01*
G01*
X3500000Y21000000D02*
X2500000Y21000000D01*
X3500000Y21000000D02*
G75*
G02*
X4000000Y20500000I0J-500000D01*
G01*
X4000000Y39500000D02*
G75*
G02*
X3500000Y39000000I-500000J0D01*
G01*
X4000000Y39500000D02*
X4000000Y44500000D01*
X4000000Y27500000D02*
G75*
G02*
X3500000Y27000000I-500000J0D01*
G01*
X4000000Y27500000D02*
X4000000Y32500000D01*
X4000000Y15500000D02*
G75*
G02*
X3500000Y15000000I-500000J0D01*
G01*
X4000000Y15500000D02*
X4000000Y20500000D01*
X110000000Y85000000D02*
X110000000Y0D01*
X110000000Y0D02*
X0Y0D01*
M02*
