#VRML V2.0 utf8
# 3D model generated by easyeda2kicad.py (https://github.com/uPesy/easyeda2kicad.py)

Shape{
    appearance Appearance {
        material  Material 	{
            diffuseColor 0.25098039215686274 0.25098039215686274 0.25098039215686274
            specularColor 0.12549019607843137 0.12549019607843137 0.12549019607843137
            ambientIntensity 0.251
            transparency 0.0
            shininess 0.5
        }
    }
    geometry IndexedFaceSet {
        ccw TRUE
        solid FALSE
        coord DEF co Coordinate {
            point [
                -1.8984 2.163 0.0402, -1.8984 1.563 0.0402, -2.6224 2.163 0.0402, -2.1185 1.563 0.0402, -2.6224 2.1669 0.0402, -2.6263 2.1669 0.0402, -2.6263 -0.8127 0.0402, -2.1185 -0.2669 0.0402, -0.7288 -0.8115 0.0402, -0.6752 -0.8115 0.0402, -0.656 -0.8127 0.0402, -0.6752 -0.6147 0.0402, -0.7308 -0.6147 0.0402, -0.656 -0.2669 0.0402, -0.7592 -0.6177 0.0402, -0.7823 -0.6258 0.0402, -0.9225 -0.6147 0.0402, -0.8037 -0.6401 0.0402, -0.8481 -0.8115 0.0402, -0.8238 -0.7576 0.0402, -0.8125 -0.7752 0.0402, -0.8039 -0.6403 0.0402, -0.8178 -0.6558 0.0402, -0.8269 -0.6727 0.0402, -0.9969 -0.8115 0.0402, -1.0257 -0.8115 0.0402, -0.9489 -0.6147 0.0402, -0.7963 -0.7907 0.0402, -0.7758 -0.8026 0.0402, -0.7531 -0.8094 0.0402, -0.8322 -0.6921 0.0402, -0.8337 -0.7106 0.0402, -0.8309 -0.737 0.0402, -0.8769 -0.8115 0.0402, -0.8957 -0.7563 0.0402, -0.977 -0.7563 0.0402, -0.632 -0.6147 0.0402, -0.632 -0.6363 0.0402, -0.6368 -0.7899 0.0402, -0.6368 -0.8115 0.0402, -0.5312 -0.8115 0.0402, -0.4928 -0.8013 0.0402, -0.4928 -0.7797 0.0402, -0.5312 -0.6147 0.0402, 1.3894 -0.8127 0.0402, 0.8815 -0.2669 0.0402, 1.3894 2.1669 0.0402, 0.8815 1.563 0.0402, 1.3855 2.1669 0.0402, 1.3855 2.163 0.0402, 0.6615 2.163 0.0402, 0.6615 1.563 0.0402, -0.5576 -0.7227 0.0402, -0.5576 -0.7899 0.0402, -0.6272 -0.7227 0.0402, -0.6272 -0.7011 0.0402, -0.5576 -0.7011 0.0402, -0.5576 -0.6363 0.0402, -0.2287 -0.8115 0.0402, -0.427 -0.8127 0.0402, -0.3295 -0.8115 0.0402, -0.4144 -0.8114 0.0402, -0.3953 -0.8048 0.0402, -0.4273 -0.636 0.0402, -0.4126 -0.6414 0.0402, -0.4893 -0.7817 0.0402, -0.3989 -0.6505 0.0402, -0.3871 -0.6636 0.0402, -0.3727 -0.7152 0.0402, -0.3747 -0.7365 0.0402, -0.3801 -0.7534 0.0402, -0.4239 -0.7902 0.0402, -0.4423 -0.7923 0.0402, -0.4096 -0.785 0.0402, -0.3975 -0.7768 0.0402, -0.3882 -0.7671 0.0402, -0.4684 -0.7894 0.0402, -0.3567 -0.6665 0.0402, -0.3683 -0.6481 0.0402, -0.2551 -0.6147 0.0402, -0.4928 -0.6201 0.0402, -0.4928 -0.6465 0.0402, -0.3789 -0.6788 0.0402, -0.3737 -0.6999 0.0402, -0.4706 -0.637 0.0402, -0.4467 -0.6339 0.0402, -0.3794 -0.7947 0.0402, -0.3647 -0.7792 0.0402, -0.3295 -0.7899 0.0402, -0.3542 -0.7604 0.0402, -0.2551 -0.7899 0.0402, -0.386 -0.631 0.0402, -0.4047 -0.6203 0.0402, -0.4267 -0.6139 0.0402, -0.3482 -0.7396 0.0402, -0.3463 -0.7168 0.0402, -0.3492 -0.6888 0.0402, -0.4465 -0.6123 0.0402, -0.47 -0.6139 0.0402, -0.4519 -0.8127 0.0402, -0.444 -0.8138 0.0402, -0.656 -1.2087 0.0402, -0.4386 -0.8139 0.0402, -0.2287 -0.6147 0.0402, 1.3894 -1.2087 0.0402, -2.6263 -1.2087 0.0402, -0.4718 -0.8099 0.0402
            ]
        }
        coordIndex [
            0,1,2,-1,2,1,3,-1,4,2,5,-1,5,2,3,-1,5,3,6,-1,6,3,7,-1,8,9,10,-1,10,9,11,-1,12,7,11,-1,11,7,13,-1,11,13,10,-1,14,15,16,-1,16,15,17,-1,18,19,20,-1,17,21,16,-1,16,21,22,-1,16,22,23,-1,24,10,25,-1,25,10,6,-1,25,6,26,-1,26,6,7,-1,26,7,16,-1,16,7,12,-1,16,12,14,-1,20,27,18,-1,18,27,28,-1,18,28,29,-1,23,30,16,-1,16,30,31,-1,16,31,18,-1,18,31,32,-1,18,32,19,-1,29,8,18,-1,18,8,10,-1,18,10,33,-1,33,10,24,-1,33,24,34,-1,34,24,35,-1,36,37,13,-1,13,37,38,-1,13,38,10,-1,10,38,39,-1,10,39,40,-1,41,40,42,-1,42,40,43,-1,44,45,46,-1,46,45,47,-1,48,46,49,-1,49,46,47,-1,49,47,50,-1,50,47,51,-1,52,53,54,-1,54,53,38,-1,54,38,55,-1,55,38,37,-1,55,37,56,-1,56,37,57,-1,58,59,60,-1,60,59,61,-1,60,61,62,-1,63,64,65,-1,65,64,66,-1,65,66,67,-1,68,69,65,-1,65,69,70,-1,71,72,73,-1,73,72,74,-1,70,75,65,-1,65,75,74,-1,65,74,76,-1,76,74,72,-1,77,78,79,-1,13,80,81,-1,67,82,65,-1,65,82,83,-1,65,83,68,-1,36,13,43,-1,43,13,81,-1,43,81,42,-1,42,81,84,-1,42,84,65,-1,65,84,85,-1,65,85,63,-1,62,86,60,-1,60,86,87,-1,60,87,88,-1,88,87,89,-1,88,89,90,-1,91,92,13,-1,13,92,93,-1,89,94,90,-1,90,94,95,-1,90,95,79,-1,79,95,96,-1,79,96,77,-1,93,97,13,-1,13,97,98,-1,13,98,80,-1,99,100,101,-1,101,100,102,-1,101,102,59,-1,78,91,79,-1,79,91,13,-1,79,13,103,-1,103,13,45,-1,103,45,58,-1,58,45,44,-1,58,44,59,-1,59,44,104,-1,59,104,101,-1,105,6,101,-1,101,6,10,-1,101,10,99,-1,99,10,40,-1,99,40,106,-1,106,40,41,-1,
        ]
    }
}
Shape{
    appearance Appearance {
        material  Material 	{
            diffuseColor 1.0 1.0 1.0
            specularColor 0.5019607843137255 0.5019607843137255 0.5019607843137255
            ambientIntensity 1.0
            transparency 0.0
            shininess 0.5
        }
    }
    geometry IndexedFaceSet {
        ccw TRUE
        solid FALSE
        coord DEF co Coordinate {
            point [
                -2.6224 2.163 0.0402, -2.6224 2.163 0.0362, -1.8984 2.163 0.0402, -1.8984 2.163 0.0362, 1.3855 2.163 0.0362, 1.3855 2.163 0.0402, 0.6615 2.163 0.0362, 0.6615 2.163 0.0402
            ]
        }
        coordIndex [
            0,1,2,-1,2,1,3,-1,4,5,6,-1,6,5,7,-1,
        ]
    }
}
Shape{
    appearance Appearance {
        material  Material 	{
            diffuseColor 0.5019607843137255 0.25098039215686274 0.0
            specularColor 0.44313725490196076 0.2196078431372549 0.0
            ambientIntensity 0.2974
            transparency 0.0
            shininess 0.5
        }
    }
    geometry IndexedFaceSet {
        ccw TRUE
        solid FALSE
        coord DEF co Coordinate {
            point [
                -2.1185 1.563 0.0362, -2.1185 1.563 0.0402, -1.8984 1.563 0.0362, -1.8984 1.563 0.0402, 0.8815 1.563 0.0402, 0.8815 1.563 0.0362, 0.6615 1.563 0.0402, 0.6615 1.563 0.0362
            ]
        }
        coordIndex [
            0,1,2,-1,2,1,3,-1,4,5,6,-1,6,5,7,-1,
        ]
    }
}
Shape{
    appearance Appearance {
        material  Material 	{
            diffuseColor 0.25098039215686274 0.25098039215686274 0.25098039215686274
            specularColor 0.12549019607843137 0.12549019607843137 0.12549019607843137
            ambientIntensity 0.251
            transparency 0.0
            shininess 0.5
        }
    }
    geometry IndexedFaceSet {
        ccw TRUE
        solid FALSE
        coord DEF co Coordinate {
            point [
                1.3894 2.1669 0.5402, 1.3894 2.1669 0.0402, 1.3855 2.1669 0.5402, 1.3855 2.1669 0.0402, -2.6263 2.1669 0.0402, -2.6263 2.1669 0.5402, -2.6224 2.1669 0.0402, -2.6224 2.1669 0.5402, 1.3894 -1.2625 0.552, 1.3894 -1.2087 0.0402, 1.3894 -0.8127 0.0402, 1.3894 2.1648 0.552, -2.6263 -0.8127 0.0402, -2.6263 -1.2087 0.0402, -2.6263 -1.2625 0.552, -2.6263 2.1648 0.552, -1.8077 -0.7772 1.7331, -1.8137 -0.8223 1.7331, 1.2653 -1.2874 1.7331, -1.8311 -0.8643 1.7331, -1.8588 -0.9004 1.7331, -2.0692 -0.6262 1.7331, -2.0271 -0.6088 1.7331, -2.5022 1.9566 1.7331, -1.8949 -0.9281 1.7331, -1.9369 -0.9456 1.7331, -2.5022 -1.2874 1.7331, -2.1053 -0.6539 1.7331, -1.982 -0.9515 1.7331, -2.0271 -0.9456 1.7331, -2.0692 -0.9281 1.7331, -2.1053 -0.9004 1.7331, -2.133 -0.8643 1.7331, -2.1504 -0.8223 1.7331, -2.1563 -0.7772 1.7331, -2.1504 -0.7321 1.7331, -2.133 -0.69 1.7331, -1.982 -0.6029 1.7331, -1.9369 -0.6088 1.7331, 1.2653 1.9566 1.7331, -1.8949 -0.6262 1.7331, -1.8588 -0.6539 1.7331, -1.8311 -0.69 1.7331, -1.8137 -0.7321 1.7331, -2.5518 -1.337 1.2606, -2.122 -1.337 1.2606, -0.4551 -1.3349 1.2803, -0.4551 -1.337 1.2606, -0.1118 -1.337 1.2606, -0.1118 -1.3349 1.2803, 0.215 -1.3349 1.2803, -1.7952 -1.337 1.2606, -1.4519 -1.337 1.2606, -1.7952 -1.3349 1.2803, -1.4519 -1.3349 1.2803, -2.122 -1.3349 1.2803, -1.1251 -1.3349 1.2803, 0.8851 -1.337 1.2606, 1.3149 -1.337 1.2606, 0.8851 -1.3349 1.2803, 0.5583 -1.3349 1.2803, 0.5583 -1.337 1.2606, 0.215 -1.337 1.2606, -0.7818 -1.3349 1.2803, -0.7818 -1.337 1.2606, -1.1251 -1.337 1.2606, 0.5583 -1.3205 1.1031, -0.7818 -1.3205 1.1031, -1.1251 -1.3205 1.1031, -0.1118 -1.3205 1.1031, -0.4551 -1.3205 1.1031, 0.215 -1.3205 1.1031, -0.656 -1.2087 0.0402, 0.8851 -1.3205 1.1031, -1.4519 -1.3205 1.1031, -1.7952 -1.3205 1.1031, -2.122 -1.3205 1.1031
            ]
        }
        coordIndex [
            0,1,2,-1,2,1,3,-1,4,5,6,-1,6,5,7,-1,8,9,10,-1,11,8,0,-1,0,8,10,-1,0,10,1,-1,12,13,14,-1,14,15,12,-1,12,15,5,-1,12,5,4,-1,16,17,18,-1,18,17,19,-1,18,19,20,-1,21,22,23,-1,20,24,18,-1,18,24,25,-1,18,25,26,-1,21,23,27,-1,25,28,26,-1,26,28,29,-1,26,29,30,-1,30,31,26,-1,26,31,32,-1,26,32,33,-1,33,34,26,-1,26,34,35,-1,26,35,23,-1,23,35,36,-1,23,36,27,-1,22,37,23,-1,23,37,38,-1,23,38,39,-1,39,38,40,-1,40,41,39,-1,39,41,42,-1,39,42,18,-1,18,42,43,-1,18,43,16,-1,26,44,45,-1,46,47,48,-1,49,50,18,-1,51,52,53,-1,53,52,54,-1,45,55,26,-1,26,55,53,-1,26,53,18,-1,18,53,54,-1,18,54,56,-1,57,58,59,-1,59,58,18,-1,59,18,60,-1,60,18,50,-1,60,50,61,-1,61,50,62,-1,48,49,46,-1,46,49,18,-1,46,18,63,-1,63,18,56,-1,63,56,64,-1,64,56,65,-1,0,2,11,-1,11,2,7,-1,39,11,23,-1,23,11,7,-1,23,7,15,-1,15,7,5,-1,66,61,62,-1,64,65,67,-1,67,65,68,-1,48,47,69,-1,69,47,70,-1,71,69,9,-1,9,69,70,-1,9,70,72,-1,72,70,67,-1,72,67,13,-1,13,67,68,-1,58,57,8,-1,8,57,73,-1,8,73,9,-1,9,73,66,-1,9,66,71,-1,71,66,62,-1,52,51,74,-1,74,51,75,-1,45,44,76,-1,76,44,14,-1,76,14,75,-1,75,14,13,-1,75,13,74,-1,74,13,68,-1,8,11,58,-1,58,11,39,-1,58,39,18,-1,26,23,44,-1,44,23,15,-1,44,15,14,-1,
        ]
    }
}
Shape{
    appearance Appearance {
        material  Material 	{
            diffuseColor 1.0 1.0 1.0
            specularColor 0.5019607843137255 0.5019607843137255 0.5019607843137255
            ambientIntensity 1.0
            transparency 0.0
            shininess 0.5
        }
    }
    geometry IndexedFaceSet {
        ccw TRUE
        solid FALSE
        coord DEF co Coordinate {
            point [
                1.3855 2.163 0.0402, 1.3855 2.163 0.0362, 1.3855 2.1669 0.0402, 1.3855 2.6319 0.0362, 1.3855 2.1669 0.5402, 1.3855 2.6319 0.5402, -2.6224 2.163 0.0362, -2.6224 2.163 0.0402, -2.6224 2.1669 0.0402, -2.6224 2.1669 0.5402, -2.6224 2.6319 0.5402, -2.6224 2.6319 0.0362, 0.8815 2.7669 0.5402, -2.1185 2.7669 0.5402, -2.1185 2.7669 0.0362, 0.8815 2.7669 0.0362, 0.6615 1.563 0.0362, 0.8815 1.563 0.0362, 0.8815 -0.2669 0.0362, 0.6615 2.163 0.0362, -1.8984 2.163 0.0362, -2.1185 -0.2669 0.0362, -2.1185 1.563 0.0362, -1.8984 1.563 0.0362
            ]
        }
        coordIndex [
            0,1,2,-1,2,1,3,-1,2,3,4,-1,4,3,5,-1,6,7,8,-1,9,10,8,-1,8,10,11,-1,8,11,6,-1,4,5,12,-1,4,12,9,-1,9,12,13,-1,9,13,10,-1,13,14,10,-1,10,14,11,-1,12,15,13,-1,13,15,14,-1,5,3,12,-1,12,3,15,-1,16,17,18,-1,14,15,19,-1,19,15,3,-1,19,3,1,-1,20,6,11,-1,21,22,23,-1,18,21,16,-1,16,21,23,-1,16,23,19,-1,19,23,20,-1,19,20,14,-1,14,20,11,-1,
        ]
    }
}
Shape{
    appearance Appearance {
        material  Material 	{
            diffuseColor 0.5019607843137255 0.25098039215686274 0.0
            specularColor 0.44313725490196076 0.2196078431372549 0.0
            ambientIntensity 0.2974
            transparency 0.0
            shininess 0.5
        }
    }
    geometry IndexedFaceSet {
        ccw TRUE
        solid FALSE
        coord DEF co Coordinate {
            point [
                -2.1185 1.563 0.0362, -2.1185 -0.2669 0.0362, -2.1185 1.563 0.0402, -2.1185 -0.2669 0.0402, 0.8815 -0.2669 0.0362, 0.8815 1.563 0.0362, 0.8815 -0.2669 0.0402, 0.8815 1.563 0.0402, -0.656 -0.2669 0.0402, -1.8984 2.163 0.0362, -1.8984 1.563 0.0362, -1.8984 2.163 0.0402, -1.8984 1.563 0.0402, 0.6615 1.563 0.0362, 0.6615 2.163 0.0362, 0.6615 1.563 0.0402, 0.6615 2.163 0.0402
            ]
        }
        coordIndex [
            0,1,2,-1,2,1,3,-1,4,5,6,-1,6,5,7,-1,3,1,8,-1,8,1,4,-1,8,4,6,-1,9,10,11,-1,11,10,12,-1,13,14,15,-1,15,14,16,-1,
        ]
    }
}
Shape{
    appearance Appearance {
        material  Material 	{
            diffuseColor 1.0 1.0 1.0
            specularColor 0.5019607843137255 0.5019607843137255 0.5019607843137255
            ambientIntensity 1.0
            transparency 0.0
            shininess 0.5
        }
    }
    geometry IndexedFaceSet {
        ccw TRUE
        solid FALSE
        coord DEF co Coordinate {
            point [
                -0.7818 -1.7014 1.2803, -0.4551 -1.7014 1.2803, -0.7818 -1.3349 1.2803, -0.4551 -1.3349 1.2803, -0.4551 -1.3205 1.1031, -0.4551 -1.7014 1.1031, -0.7818 -1.3205 1.1031, -0.7818 -1.7014 1.1031, -0.4551 -1.337 1.2606, -0.4551 -1.7833 1.2701, -0.4551 -2.7669 0.1772, -0.4551 -2.7669 0.0, -0.4551 -2.2669 0.1772, -0.4551 -2.2669 0.0, -0.4551 -2.2236 0.1826, -0.4551 -2.1802 0.0108, -0.4551 -2.1828 0.1984, -0.4551 -2.0988 0.0424, -0.4551 -2.1472 0.2237, -0.4551 -2.0275 0.0931, -0.4551 -2.1189 0.257, -0.4551 -1.9709 0.1596, -0.4551 -2.0996 0.2962, -0.4551 -1.9322 0.238, -0.4551 -2.0904 0.3389, -0.4551 -1.9139 0.3234, -0.4551 -2.0348 0.9748, -0.4551 -1.8583 0.9594, -0.4551 -2.0175 1.0555, -0.4551 -1.8502 0.9974, -0.4551 -1.981 1.1296, -0.4551 -1.833 1.0322, -0.4551 -1.9275 1.1924, -0.4551 -1.8078 1.0618, -0.4551 -1.8603 1.2402, -0.4551 -1.7762 1.0843, -0.4551 -1.74 1.0984, -0.7818 -1.7833 1.2701, -0.7818 -1.337 1.2606, -0.7818 -2.7669 0.0, -0.7818 -2.7669 0.1772, -0.7818 -2.2669 0.0, -0.7818 -2.2669 0.1772, -0.7818 -2.1802 0.0108, -0.7818 -2.2236 0.1826, -0.7818 -2.0988 0.0424, -0.7818 -2.1828 0.1984, -0.7818 -2.0275 0.0931, -0.7818 -2.1472 0.2237, -0.7818 -1.9709 0.1596, -0.7818 -2.1189 0.257, -0.7818 -1.9322 0.238, -0.7818 -2.0996 0.2962, -0.7818 -1.9139 0.3234, -0.7818 -2.0904 0.3389, -0.7818 -1.8583 0.9594, -0.7818 -2.0348 0.9748, -0.7818 -1.8502 0.9974, -0.7818 -2.0175 1.0555, -0.7818 -1.833 1.0322, -0.7818 -1.981 1.1296, -0.7818 -1.8078 1.0618, -0.7818 -1.9275 1.1924, -0.7818 -1.7762 1.0843, -0.7818 -1.8603 1.2402, -0.7818 -1.74 1.0984, -0.1118 -1.7014 1.2803, 0.215 -1.7014 1.2803, -0.1118 -1.3349 1.2803, 0.215 -1.3349 1.2803, 0.215 -1.337 1.2606, 0.215 -1.7833 1.2701, 0.215 -1.7014 1.1031, 0.215 -1.3205 1.1031, 0.215 -2.7669 0.1772, 0.215 -2.7669 0.0, 0.215 -2.2669 0.1772, 0.215 -2.2669 0.0, 0.215 -2.2236 0.1826, 0.215 -2.1802 0.0108, 0.215 -2.1828 0.1984, 0.215 -2.0988 0.0424, 0.215 -2.1472 0.2237, 0.215 -2.0275 0.0931, 0.215 -2.1189 0.257, 0.215 -1.9709 0.1596, 0.215 -2.0996 0.2962, 0.215 -1.9322 0.238, 0.215 -2.0904 0.3389, 0.215 -1.9139 0.3234, 0.215 -2.0348 0.9748, 0.215 -1.8583 0.9594, 0.215 -2.0175 1.0555, 0.215 -1.8502 0.9974, 0.215 -1.981 1.1296, 0.215 -1.833 1.0322, 0.215 -1.9275 1.1924, 0.215 -1.8078 1.0618, 0.215 -1.8603 1.2402, 0.215 -1.7762 1.0843, 0.215 -1.74 1.0984, -0.1118 -1.3205 1.1031, -0.1118 -1.7014 1.1031, -0.1118 -1.7833 1.2701, -0.1118 -1.337 1.2606, -0.1118 -2.7669 0.0, -0.1118 -2.7669 0.1772, -0.1118 -2.2669 0.0, -0.1118 -2.2669 0.1772, -0.1118 -2.1802 0.0108, -0.1118 -2.2236 0.1826, -0.1118 -2.0988 0.0424, -0.1118 -2.1828 0.1984, -0.1118 -2.0275 0.0931, -0.1118 -2.1472 0.2237, -0.1118 -1.9709 0.1596, -0.1118 -2.1189 0.257, -0.1118 -1.9322 0.238, -0.1118 -2.0996 0.2962, -0.1118 -1.9139 0.3234, -0.1118 -2.0904 0.3389, -0.1118 -1.8583 0.9594, -0.1118 -2.0348 0.9748, -0.1118 -1.8502 0.9974, -0.1118 -2.0175 1.0555, -0.1118 -1.833 1.0322, -0.1118 -1.981 1.1296, -0.1118 -1.8078 1.0618, -0.1118 -1.9275 1.1924, -0.1118 -1.7762 1.0843, -0.1118 -1.8603 1.2402, -0.1118 -1.74 1.0984, 0.5583 -1.7014 1.2803, 0.8851 -1.7014 1.2803, 0.5583 -1.3349 1.2803, 0.8851 -1.3349 1.2803, 0.8851 -1.337 1.2606, 0.8851 -1.7833 1.2701, 0.8851 -1.7014 1.1031, 0.8851 -1.3205 1.1031, 0.8851 -2.7669 0.1772, 0.8851 -2.7669 0.0, 0.8851 -2.2669 0.1772, 0.8851 -2.2669 0.0, 0.8851 -2.2236 0.1826, 0.8851 -2.1802 0.0108, 0.8851 -2.1828 0.1984, 0.8851 -2.0988 0.0424, 0.8851 -2.1472 0.2237, 0.8851 -2.0275 0.0931, 0.8851 -2.1189 0.257, 0.8851 -1.9709 0.1596, 0.8851 -2.0996 0.2962, 0.8851 -1.9322 0.238, 0.8851 -2.0904 0.3389, 0.8851 -1.9139 0.3234, 0.8851 -2.0348 0.9748, 0.8851 -1.8583 0.9594, 0.8851 -2.0175 1.0555, 0.8851 -1.8502 0.9974, 0.8851 -1.981 1.1296, 0.8851 -1.833 1.0322, 0.8851 -1.9275 1.1924, 0.8851 -1.8078 1.0618, 0.8851 -1.8603 1.2402, 0.8851 -1.7762 1.0843, 0.8851 -1.74 1.0984, 0.5583 -1.3205 1.1031, 0.5583 -1.7014 1.1031, 0.5583 -1.7833 1.2701, 0.5583 -1.337 1.2606, 0.5583 -2.7669 0.0, 0.5583 -2.7669 0.1772, 0.5583 -2.2669 0.0, 0.5583 -2.2669 0.1772, 0.5583 -2.1802 0.0108, 0.5583 -2.2236 0.1826, 0.5583 -2.0988 0.0424, 0.5583 -2.1828 0.1984, 0.5583 -2.0275 0.0931, 0.5583 -2.1472 0.2237, 0.5583 -1.9709 0.1596, 0.5583 -2.1189 0.257, 0.5583 -1.9322 0.238, 0.5583 -2.0996 0.2962, 0.5583 -1.9139 0.3234, 0.5583 -2.0904 0.3389, 0.5583 -1.8583 0.9594, 0.5583 -2.0348 0.9748, 0.5583 -1.8502 0.9974, 0.5583 -2.0175 1.0555, 0.5583 -1.833 1.0322, 0.5583 -1.981 1.1296, 0.5583 -1.8078 1.0618, 0.5583 -1.9275 1.1924, 0.5583 -1.7762 1.0843, 0.5583 -1.8603 1.2402, 0.5583 -1.74 1.0984, -1.4519 -1.7014 1.2803, -1.1251 -1.7014 1.2803, -1.4519 -1.3349 1.2803, -1.1251 -1.3349 1.2803, -1.1251 -1.337 1.2606, -1.1251 -1.7833 1.2701, -1.1251 -1.7014 1.1031, -1.1251 -1.3205 1.1031, -1.1251 -2.7669 0.1772, -1.1251 -2.7669 0.0, -1.1251 -2.2669 0.1772, -1.1251 -2.2669 0.0, -1.1251 -2.2236 0.1826, -1.1251 -2.1802 0.0108, -1.1251 -2.1828 0.1984, -1.1251 -2.0988 0.0424, -1.1251 -2.1472 0.2237, -1.1251 -2.0275 0.0931, -1.1251 -2.1189 0.257, -1.1251 -1.9709 0.1596, -1.1251 -2.0996 0.2962, -1.1251 -1.9322 0.238, -1.1251 -2.0904 0.3389, -1.1251 -1.9139 0.3234, -1.1251 -2.0348 0.9748, -1.1251 -1.8583 0.9594, -1.1251 -2.0175 1.0555, -1.1251 -1.8502 0.9974, -1.1251 -1.981 1.1296, -1.1251 -1.833 1.0322, -1.1251 -1.9275 1.1924, -1.1251 -1.8078 1.0618, -1.1251 -1.8603 1.2402, -1.1251 -1.7762 1.0843, -1.1251 -1.74 1.0984, -1.4519 -1.3205 1.1031, -1.4519 -1.7014 1.1031, -1.4519 -1.7833 1.2701, -1.4519 -1.337 1.2606, -1.4519 -2.7669 0.0, -1.4519 -2.7669 0.1772, -1.4519 -2.2669 0.0, -1.4519 -2.2669 0.1772, -1.4519 -2.1802 0.0108, -1.4519 -2.2236 0.1826, -1.4519 -2.0988 0.0424, -1.4519 -2.1828 0.1984, -1.4519 -2.0275 0.0931, -1.4519 -2.1472 0.2237, -1.4519 -1.9709 0.1596, -1.4519 -2.1189 0.257, -1.4519 -1.9322 0.238, -1.4519 -2.0996 0.2962, -1.4519 -1.9139 0.3234, -1.4519 -2.0904 0.3389, -1.4519 -1.8583 0.9594, -1.4519 -2.0348 0.9748, -1.4519 -1.8502 0.9974, -1.4519 -2.0175 1.0555, -1.4519 -1.833 1.0322, -1.4519 -1.981 1.1296, -1.4519 -1.8078 1.0618, -1.4519 -1.9275 1.1924, -1.4519 -1.7762 1.0843, -1.4519 -1.8603 1.2402, -1.4519 -1.74 1.0984, -2.122 -1.7014 1.2803, -1.7952 -1.7014 1.2803, -2.122 -1.3349 1.2803, -1.7952 -1.3349 1.2803, -1.7952 -1.337 1.2606, -1.7952 -1.7833 1.2701, -1.7952 -1.7014 1.1031, -1.7952 -1.3205 1.1031, -1.7952 -2.7669 0.1772, -1.7952 -2.7669 0.0, -1.7952 -2.2669 0.1772, -1.7952 -2.2669 0.0, -1.7952 -2.2236 0.1826, -1.7952 -2.1802 0.0108, -1.7952 -2.1828 0.1984, -1.7952 -2.0988 0.0424, -1.7952 -2.1472 0.2237, -1.7952 -2.0275 0.0931, -1.7952 -2.1189 0.257, -1.7952 -1.9709 0.1596, -1.7952 -2.0996 0.2962, -1.7952 -1.9322 0.238, -1.7952 -2.0904 0.3389, -1.7952 -1.9139 0.3234, -1.7952 -2.0348 0.9748, -1.7952 -1.8583 0.9594, -1.7952 -2.0175 1.0555, -1.7952 -1.8502 0.9974, -1.7952 -1.981 1.1296, -1.7952 -1.833 1.0322, -1.7952 -1.9275 1.1924, -1.7952 -1.8078 1.0618, -1.7952 -1.8603 1.2402, -1.7952 -1.7762 1.0843, -1.7952 -1.74 1.0984, -2.122 -1.3205 1.1031, -2.122 -1.7014 1.1031, -2.122 -1.7833 1.2701, -2.122 -1.337 1.2606, -2.122 -2.7669 0.0, -2.122 -2.7669 0.1772, -2.122 -2.2669 0.0, -2.122 -2.2669 0.1772, -2.122 -2.1802 0.0108, -2.122 -2.2236 0.1826, -2.122 -2.0988 0.0424, -2.122 -2.1828 0.1984, -2.122 -2.0275 0.0931, -2.122 -2.1472 0.2237, -2.122 -1.9709 0.1596, -2.122 -2.1189 0.257, -2.122 -1.9322 0.238, -2.122 -2.0996 0.2962, -2.122 -1.9139 0.3234, -2.122 -2.0904 0.3389, -2.122 -1.8583 0.9594, -2.122 -2.0348 0.9748, -2.122 -1.8502 0.9974, -2.122 -2.0175 1.0555, -2.122 -1.833 1.0322, -2.122 -1.981 1.1296, -2.122 -1.8078 1.0618, -2.122 -1.9275 1.1924, -2.122 -1.7762 1.0843, -2.122 -1.8603 1.2402, -2.122 -1.74 1.0984
            ]
        }
        coordIndex [
            0,1,2,-1,2,1,3,-1,4,5,6,-1,6,5,7,-1,8,3,1,-1,1,9,8,-1,8,9,5,-1,8,5,4,-1,10,11,12,-1,12,11,13,-1,12,13,14,-1,14,13,15,-1,14,15,16,-1,16,15,17,-1,16,17,18,-1,18,17,19,-1,18,19,20,-1,20,19,21,-1,20,21,22,-1,22,21,23,-1,22,23,24,-1,24,23,25,-1,24,25,26,-1,26,25,27,-1,26,27,28,-1,28,27,29,-1,28,29,30,-1,30,29,31,-1,30,31,32,-1,32,31,33,-1,32,33,34,-1,34,33,35,-1,34,35,9,-1,9,35,36,-1,9,36,5,-1,6,37,38,-1,38,37,0,-1,38,0,2,-1,39,40,41,-1,41,40,42,-1,41,42,43,-1,43,42,44,-1,43,44,45,-1,45,44,46,-1,45,46,47,-1,47,46,48,-1,47,48,49,-1,49,48,50,-1,49,50,51,-1,51,50,52,-1,51,52,53,-1,53,52,54,-1,53,54,55,-1,55,54,56,-1,55,56,57,-1,57,56,58,-1,57,58,59,-1,59,58,60,-1,59,60,61,-1,61,60,62,-1,61,62,63,-1,63,62,64,-1,63,64,65,-1,65,64,37,-1,65,37,7,-1,7,37,6,-1,1,0,37,-1,1,37,9,-1,9,37,64,-1,9,64,34,-1,34,64,62,-1,34,62,32,-1,32,62,60,-1,32,60,30,-1,30,60,58,-1,30,58,28,-1,28,58,56,-1,28,56,26,-1,24,26,54,-1,54,26,56,-1,24,54,22,-1,22,54,52,-1,22,52,20,-1,20,52,50,-1,20,50,18,-1,18,50,48,-1,18,48,16,-1,16,48,46,-1,16,46,14,-1,14,46,44,-1,14,44,12,-1,12,44,42,-1,10,12,40,-1,40,12,42,-1,11,10,39,-1,39,10,40,-1,13,11,41,-1,41,11,39,-1,13,41,43,-1,13,43,15,-1,15,43,45,-1,15,45,17,-1,17,45,47,-1,17,47,19,-1,19,47,49,-1,19,49,21,-1,21,49,51,-1,21,51,23,-1,23,51,53,-1,23,53,25,-1,27,25,55,-1,55,25,53,-1,27,55,29,-1,29,55,57,-1,29,57,31,-1,31,57,59,-1,31,59,33,-1,33,59,61,-1,33,61,35,-1,35,61,63,-1,35,63,36,-1,36,63,65,-1,36,65,5,-1,5,65,7,-1,66,67,68,-1,68,67,69,-1,70,69,67,-1,67,71,70,-1,70,71,72,-1,70,72,73,-1,74,75,76,-1,76,75,77,-1,76,77,78,-1,78,77,79,-1,78,79,80,-1,80,79,81,-1,80,81,82,-1,82,81,83,-1,82,83,84,-1,84,83,85,-1,84,85,86,-1,86,85,87,-1,86,87,88,-1,88,87,89,-1,88,89,90,-1,90,89,91,-1,90,91,92,-1,92,91,93,-1,92,93,94,-1,94,93,95,-1,94,95,96,-1,96,95,97,-1,96,97,98,-1,98,97,99,-1,98,99,71,-1,71,99,100,-1,71,100,72,-1,73,72,101,-1,101,72,102,-1,101,103,104,-1,104,103,66,-1,104,66,68,-1,105,106,107,-1,107,106,108,-1,107,108,109,-1,109,108,110,-1,109,110,111,-1,111,110,112,-1,111,112,113,-1,113,112,114,-1,113,114,115,-1,115,114,116,-1,115,116,117,-1,117,116,118,-1,117,118,119,-1,119,118,120,-1,119,120,121,-1,121,120,122,-1,121,122,123,-1,123,122,124,-1,123,124,125,-1,125,124,126,-1,125,126,127,-1,127,126,128,-1,127,128,129,-1,129,128,130,-1,129,130,131,-1,131,130,103,-1,131,103,102,-1,102,103,101,-1,67,66,103,-1,67,103,71,-1,71,103,130,-1,71,130,98,-1,98,130,128,-1,98,128,96,-1,96,128,126,-1,96,126,94,-1,94,126,124,-1,94,124,92,-1,92,124,122,-1,92,122,90,-1,88,90,120,-1,120,90,122,-1,88,120,86,-1,86,120,118,-1,86,118,84,-1,84,118,116,-1,84,116,82,-1,82,116,114,-1,82,114,80,-1,80,114,112,-1,80,112,78,-1,78,112,110,-1,78,110,76,-1,76,110,108,-1,74,76,106,-1,106,76,108,-1,75,74,105,-1,105,74,106,-1,77,75,107,-1,107,75,105,-1,77,107,109,-1,77,109,79,-1,79,109,111,-1,79,111,81,-1,81,111,113,-1,81,113,83,-1,83,113,115,-1,83,115,85,-1,85,115,117,-1,85,117,87,-1,87,117,119,-1,87,119,89,-1,91,89,121,-1,121,89,119,-1,91,121,93,-1,93,121,123,-1,93,123,95,-1,95,123,125,-1,95,125,97,-1,97,125,127,-1,97,127,99,-1,99,127,129,-1,99,129,100,-1,100,129,131,-1,100,131,72,-1,72,131,102,-1,132,133,134,-1,134,133,135,-1,136,135,133,-1,133,137,136,-1,136,137,138,-1,136,138,139,-1,140,141,142,-1,142,141,143,-1,142,143,144,-1,144,143,145,-1,144,145,146,-1,146,145,147,-1,146,147,148,-1,148,147,149,-1,148,149,150,-1,150,149,151,-1,150,151,152,-1,152,151,153,-1,152,153,154,-1,154,153,155,-1,154,155,156,-1,156,155,157,-1,156,157,158,-1,158,157,159,-1,158,159,160,-1,160,159,161,-1,160,161,162,-1,162,161,163,-1,162,163,164,-1,164,163,165,-1,164,165,137,-1,137,165,166,-1,137,166,138,-1,139,138,167,-1,167,138,168,-1,167,169,170,-1,170,169,132,-1,170,132,134,-1,171,172,173,-1,173,172,174,-1,173,174,175,-1,175,174,176,-1,175,176,177,-1,177,176,178,-1,177,178,179,-1,179,178,180,-1,179,180,181,-1,181,180,182,-1,181,182,183,-1,183,182,184,-1,183,184,185,-1,185,184,186,-1,185,186,187,-1,187,186,188,-1,187,188,189,-1,189,188,190,-1,189,190,191,-1,191,190,192,-1,191,192,193,-1,193,192,194,-1,193,194,195,-1,195,194,196,-1,195,196,197,-1,197,196,169,-1,197,169,168,-1,168,169,167,-1,133,132,169,-1,133,169,137,-1,137,169,196,-1,137,196,164,-1,164,196,194,-1,164,194,162,-1,162,194,192,-1,162,192,160,-1,160,192,190,-1,160,190,158,-1,158,190,188,-1,158,188,156,-1,154,156,186,-1,186,156,188,-1,154,186,152,-1,152,186,184,-1,152,184,150,-1,150,184,182,-1,150,182,148,-1,148,182,180,-1,148,180,146,-1,146,180,178,-1,146,178,144,-1,144,178,176,-1,144,176,142,-1,142,176,174,-1,140,142,172,-1,172,142,174,-1,141,140,171,-1,171,140,172,-1,143,141,173,-1,173,141,171,-1,143,173,175,-1,143,175,145,-1,145,175,177,-1,145,177,147,-1,147,177,179,-1,147,179,149,-1,149,179,181,-1,149,181,151,-1,151,181,183,-1,151,183,153,-1,153,183,185,-1,153,185,155,-1,157,155,187,-1,187,155,185,-1,157,187,159,-1,159,187,189,-1,159,189,161,-1,161,189,191,-1,161,191,163,-1,163,191,193,-1,163,193,165,-1,165,193,195,-1,165,195,166,-1,166,195,197,-1,166,197,138,-1,138,197,168,-1,198,199,200,-1,200,199,201,-1,202,201,199,-1,199,203,202,-1,202,203,204,-1,202,204,205,-1,206,207,208,-1,208,207,209,-1,208,209,210,-1,210,209,211,-1,210,211,212,-1,212,211,213,-1,212,213,214,-1,214,213,215,-1,214,215,216,-1,216,215,217,-1,216,217,218,-1,218,217,219,-1,218,219,220,-1,220,219,221,-1,220,221,222,-1,222,221,223,-1,222,223,224,-1,224,223,225,-1,224,225,226,-1,226,225,227,-1,226,227,228,-1,228,227,229,-1,228,229,230,-1,230,229,231,-1,230,231,203,-1,203,231,232,-1,203,232,204,-1,205,204,233,-1,233,204,234,-1,233,235,236,-1,236,235,198,-1,236,198,200,-1,237,238,239,-1,239,238,240,-1,239,240,241,-1,241,240,242,-1,241,242,243,-1,243,242,244,-1,243,244,245,-1,245,244,246,-1,245,246,247,-1,247,246,248,-1,247,248,249,-1,249,248,250,-1,249,250,251,-1,251,250,252,-1,251,252,253,-1,253,252,254,-1,253,254,255,-1,255,254,256,-1,255,256,257,-1,257,256,258,-1,257,258,259,-1,259,258,260,-1,259,260,261,-1,261,260,262,-1,261,262,263,-1,263,262,235,-1,263,235,234,-1,234,235,233,-1,199,198,235,-1,199,235,203,-1,203,235,262,-1,203,262,230,-1,230,262,260,-1,230,260,228,-1,228,260,258,-1,228,258,226,-1,226,258,256,-1,226,256,224,-1,224,256,254,-1,224,254,222,-1,220,222,252,-1,252,222,254,-1,220,252,218,-1,218,252,250,-1,218,250,216,-1,216,250,248,-1,216,248,214,-1,214,248,246,-1,214,246,212,-1,212,246,244,-1,212,244,210,-1,210,244,242,-1,210,242,208,-1,208,242,240,-1,206,208,238,-1,238,208,240,-1,207,206,237,-1,237,206,238,-1,209,207,239,-1,239,207,237,-1,209,239,241,-1,209,241,211,-1,211,241,243,-1,211,243,213,-1,213,243,245,-1,213,245,215,-1,215,245,247,-1,215,247,217,-1,217,247,249,-1,217,249,219,-1,219,249,251,-1,219,251,221,-1,223,221,253,-1,253,221,251,-1,223,253,225,-1,225,253,255,-1,225,255,227,-1,227,255,257,-1,227,257,229,-1,229,257,259,-1,229,259,231,-1,231,259,261,-1,231,261,232,-1,232,261,263,-1,232,263,204,-1,204,263,234,-1,264,265,266,-1,266,265,267,-1,268,267,265,-1,265,269,268,-1,268,269,270,-1,268,270,271,-1,272,273,274,-1,274,273,275,-1,274,275,276,-1,276,275,277,-1,276,277,278,-1,278,277,279,-1,278,279,280,-1,280,279,281,-1,280,281,282,-1,282,281,283,-1,282,283,284,-1,284,283,285,-1,284,285,286,-1,286,285,287,-1,286,287,288,-1,288,287,289,-1,288,289,290,-1,290,289,291,-1,290,291,292,-1,292,291,293,-1,292,293,294,-1,294,293,295,-1,294,295,296,-1,296,295,297,-1,296,297,269,-1,269,297,298,-1,269,298,270,-1,271,270,299,-1,299,270,300,-1,299,301,302,-1,302,301,264,-1,302,264,266,-1,303,304,305,-1,305,304,306,-1,305,306,307,-1,307,306,308,-1,307,308,309,-1,309,308,310,-1,309,310,311,-1,311,310,312,-1,311,312,313,-1,313,312,314,-1,313,314,315,-1,315,314,316,-1,315,316,317,-1,317,316,318,-1,317,318,319,-1,319,318,320,-1,319,320,321,-1,321,320,322,-1,321,322,323,-1,323,322,324,-1,323,324,325,-1,325,324,326,-1,325,326,327,-1,327,326,328,-1,327,328,329,-1,329,328,301,-1,329,301,300,-1,300,301,299,-1,265,264,301,-1,265,301,269,-1,269,301,328,-1,269,328,296,-1,296,328,326,-1,296,326,294,-1,294,326,324,-1,294,324,292,-1,292,324,322,-1,292,322,290,-1,290,322,320,-1,290,320,288,-1,286,288,318,-1,318,288,320,-1,286,318,284,-1,284,318,316,-1,284,316,282,-1,282,316,314,-1,282,314,280,-1,280,314,312,-1,280,312,278,-1,278,312,310,-1,278,310,276,-1,276,310,308,-1,276,308,274,-1,274,308,306,-1,272,274,304,-1,304,274,306,-1,273,272,303,-1,303,272,304,-1,275,273,305,-1,305,273,303,-1,275,305,307,-1,275,307,277,-1,277,307,309,-1,277,309,279,-1,279,309,311,-1,279,311,281,-1,281,311,313,-1,281,313,283,-1,283,313,315,-1,283,315,285,-1,285,315,317,-1,285,317,287,-1,289,287,319,-1,319,287,317,-1,289,319,291,-1,291,319,321,-1,291,321,293,-1,293,321,323,-1,293,323,295,-1,295,323,325,-1,295,325,297,-1,297,325,327,-1,297,327,298,-1,298,327,329,-1,298,329,270,-1,270,329,300,-1,
        ]
    }
}
Shape{
    appearance Appearance {
        material  Material 	{
            diffuseColor 0.0 0.0 0.0
            specularColor 0.0 0.0 0.0
            ambientIntensity 0.0
            transparency 0.0
            shininess 0.5
        }
    }
    geometry IndexedFaceSet {
        ccw TRUE
        solid FALSE
        coord DEF co Coordinate {
            point [
                -1.8077 -0.7772 1.7327, -1.8077 -0.7772 1.7331, -1.8137 -0.7321 1.7327, -1.8137 -0.7321 1.7331, -1.8311 -0.69 1.7327, -1.8311 -0.69 1.7331, -1.8588 -0.6539 1.7327, -1.8588 -0.6539 1.7331, -1.8949 -0.6262 1.7327, -1.8949 -0.6262 1.7331, -1.9369 -0.6088 1.7327, -1.9369 -0.6088 1.7331, -1.982 -0.6029 1.7327, -1.982 -0.6029 1.7331, -2.0271 -0.6088 1.7327, -2.0271 -0.6088 1.7331, -2.0692 -0.6262 1.7327, -2.0692 -0.6262 1.7331, -2.1053 -0.6539 1.7327, -2.1053 -0.6539 1.7331, -2.133 -0.69 1.7327, -2.133 -0.69 1.7331, -2.1504 -0.7321 1.7327, -2.1504 -0.7321 1.7331, -2.1563 -0.7772 1.7327, -2.1563 -0.7772 1.7331, -2.1504 -0.8223 1.7327, -2.1504 -0.8223 1.7331, -2.133 -0.8643 1.7327, -2.133 -0.8643 1.7331, -2.1053 -0.9004 1.7327, -2.1053 -0.9004 1.7331, -2.0692 -0.9281 1.7327, -2.0692 -0.9281 1.7331, -2.0271 -0.9456 1.7327, -2.0271 -0.9456 1.7331, -1.982 -0.9515 1.7327, -1.982 -0.9515 1.7331, -1.9369 -0.9456 1.7327, -1.9369 -0.9456 1.7331, -1.8949 -0.9281 1.7327, -1.8949 -0.9281 1.7331, -1.8588 -0.9004 1.7327, -1.8588 -0.9004 1.7331, -1.8311 -0.8643 1.7327, -1.8311 -0.8643 1.7331, -1.8137 -0.8223 1.7327, -1.8137 -0.8223 1.7331, -1.982 -0.7772 1.7327, -0.9489 -0.6147 0.0406, -1.0257 -0.8115 0.0406, -0.9489 -0.6147 0.0402, -1.0257 -0.8115 0.0402, -0.9969 -0.8115 0.0406, -0.9969 -0.8115 0.0402, -0.977 -0.7563 0.0406, -0.977 -0.7563 0.0402, -0.8957 -0.7563 0.0406, -0.8957 -0.7563 0.0402, -0.8769 -0.8115 0.0406, -0.8769 -0.8115 0.0402, -0.8481 -0.8115 0.0406, -0.8481 -0.8115 0.0402, -0.9225 -0.6147 0.0406, -0.9225 -0.6147 0.0402, -0.9023 -0.7347 0.0406, -0.9681 -0.7347 0.0406, -0.9317 -0.6525 0.0406, -0.9336 -0.6456 0.0406, -0.9348 -0.6387 0.0406, -0.9355 -0.6387 0.0406, -0.9368 -0.6456 0.0406, -0.9385 -0.6525 0.0406, -0.9023 -0.7347 0.0402, -0.9681 -0.7347 0.0402, -0.9317 -0.6525 0.0402, -0.9336 -0.6456 0.0402, -0.9348 -0.6387 0.0402, -0.9355 -0.6387 0.0402, -0.9368 -0.6456 0.0402, -0.9385 -0.6525 0.0402, -0.7288 -0.8115 0.0406, -0.6752 -0.8115 0.0406, -0.7288 -0.8115 0.0402, -0.6752 -0.8115 0.0402, -0.6752 -0.6147 0.0406, -0.6752 -0.6147 0.0402, -0.7308 -0.6147 0.0406, -0.7308 -0.6147 0.0402, -0.8337 -0.7106 0.0406, -0.8337 -0.7106 0.0402, -0.8322 -0.6921 0.0402, -0.8322 -0.6921 0.0406, -0.8269 -0.6727 0.0402, -0.8269 -0.6727 0.0406, -0.8178 -0.6558 0.0402, -0.8178 -0.6558 0.0406, -0.8039 -0.6403 0.0402, -0.8039 -0.6403 0.0406, -0.8037 -0.6401 0.0402, -0.8037 -0.6401 0.0406, -0.7823 -0.6258 0.0402, -0.7823 -0.6258 0.0406, -0.7592 -0.6177 0.0402, -0.7592 -0.6177 0.0406, -0.7531 -0.8094 0.0402, -0.7531 -0.8094 0.0406, -0.7758 -0.8026 0.0402, -0.7758 -0.8026 0.0406, -0.7963 -0.7907 0.0402, -0.7963 -0.7907 0.0406, -0.8125 -0.7752 0.0402, -0.8125 -0.7752 0.0406, -0.8238 -0.7576 0.0402, -0.8238 -0.7576 0.0406, -0.8309 -0.737 0.0402, -0.8309 -0.737 0.0406, -0.7942 -0.6639 0.0406, -0.7846 -0.6537 0.0406, -0.7702 -0.6444 0.0406, -0.754 -0.6387 0.0406, -0.7307 -0.6363 0.0406, -0.7016 -0.6363 0.0406, -0.7016 -0.7899 0.0406, -0.7296 -0.7899 0.0406, -0.7503 -0.788 0.0406, -0.7669 -0.7828 0.0406, -0.7803 -0.7748 0.0406, -0.7914 -0.7639 0.0406, -0.7997 -0.7504 0.0406, -0.8055 -0.7319 0.0406, -0.8073 -0.7112 0.0406, -0.8056 -0.6916 0.0406, -0.801 -0.676 0.0406, -0.7307 -0.6363 0.0402, -0.7016 -0.6363 0.0402, -0.754 -0.6387 0.0402, -0.7702 -0.6444 0.0402, -0.7846 -0.6537 0.0402, -0.7942 -0.6639 0.0402, -0.801 -0.676 0.0402, -0.8056 -0.6916 0.0402, -0.8073 -0.7112 0.0402, -0.8055 -0.7319 0.0402, -0.7997 -0.7504 0.0402, -0.7914 -0.7639 0.0402, -0.7803 -0.7748 0.0402, -0.7669 -0.7828 0.0402, -0.7503 -0.788 0.0402, -0.7296 -0.7899 0.0402, -0.7016 -0.7899 0.0402, -0.6368 -0.7899 0.0406, -0.6368 -0.8115 0.0406, -0.6368 -0.7899 0.0402, -0.6368 -0.8115 0.0402, -0.5312 -0.8115 0.0406, -0.5312 -0.8115 0.0402, -0.5312 -0.6147 0.0406, -0.5312 -0.6147 0.0402, -0.632 -0.6147 0.0406, -0.632 -0.6147 0.0402, -0.632 -0.6363 0.0406, -0.632 -0.6363 0.0402, -0.5576 -0.6363 0.0406, -0.5576 -0.6363 0.0402, -0.5576 -0.7011 0.0406, -0.5576 -0.7011 0.0402, -0.6272 -0.7011 0.0406, -0.6272 -0.7011 0.0402, -0.6272 -0.7227 0.0406, -0.6272 -0.7227 0.0402, -0.5576 -0.7227 0.0406, -0.5576 -0.7227 0.0402, -0.5576 -0.7899 0.0406, -0.5576 -0.7899 0.0402, -0.4928 -0.7797 0.0406, -0.4928 -0.8013 0.0406, -0.4928 -0.7797 0.0402, -0.4928 -0.8013 0.0402, -0.4718 -0.8099 0.0406, -0.4386 -0.8139 0.0406, -0.4386 -0.8139 0.0402, -0.444 -0.8138 0.0402, -0.444 -0.8138 0.0406, -0.4519 -0.8127 0.0402, -0.4718 -0.8099 0.0402, -0.427 -0.8127 0.0402, -0.4144 -0.8114 0.0406, -0.4144 -0.8114 0.0402, -0.3953 -0.8048 0.0406, -0.3953 -0.8048 0.0402, -0.3794 -0.7947 0.0406, -0.3794 -0.7947 0.0402, -0.3647 -0.7792 0.0406, -0.3647 -0.7792 0.0402, -0.3542 -0.7604 0.0406, -0.3542 -0.7604 0.0402, -0.3482 -0.7396 0.0406, -0.3482 -0.7396 0.0402, -0.3463 -0.7168 0.0406, -0.3463 -0.7168 0.0402, -0.4465 -0.6123 0.0406, -0.4465 -0.6123 0.0402, -0.4267 -0.6139 0.0402, -0.4267 -0.6139 0.0406, -0.4047 -0.6203 0.0402, -0.4047 -0.6203 0.0406, -0.386 -0.631 0.0402, -0.386 -0.631 0.0406, -0.3683 -0.6481 0.0402, -0.3683 -0.6481 0.0406, -0.3567 -0.6665 0.0402, -0.3567 -0.6665 0.0406, -0.3492 -0.6888 0.0402, -0.3492 -0.6888 0.0406, -0.4928 -0.6201 0.0406, -0.4928 -0.6201 0.0402, -0.47 -0.6139 0.0402, -0.47 -0.6139 0.0406, -0.4928 -0.6465 0.0406, -0.4928 -0.6465 0.0402, -0.4467 -0.6339 0.0406, -0.4467 -0.6339 0.0402, -0.4706 -0.637 0.0402, -0.4706 -0.637 0.0406, -0.3727 -0.7152 0.0406, -0.3727 -0.7152 0.0402, -0.3737 -0.6999 0.0402, -0.3737 -0.6999 0.0406, -0.3789 -0.6788 0.0402, -0.3789 -0.6788 0.0406, -0.3871 -0.6636 0.0402, -0.3871 -0.6636 0.0406, -0.3989 -0.6505 0.0402, -0.3989 -0.6505 0.0406, -0.4126 -0.6414 0.0402, -0.4126 -0.6414 0.0406, -0.4273 -0.636 0.0402, -0.4273 -0.636 0.0406, -0.4423 -0.7923 0.0406, -0.4423 -0.7923 0.0402, -0.4239 -0.7902 0.0402, -0.4239 -0.7902 0.0406, -0.4096 -0.785 0.0402, -0.4096 -0.785 0.0406, -0.3975 -0.7768 0.0402, -0.3975 -0.7768 0.0406, -0.3882 -0.7671 0.0402, -0.3882 -0.7671 0.0406, -0.3801 -0.7534 0.0402, -0.3801 -0.7534 0.0406, -0.3747 -0.7365 0.0402, -0.3747 -0.7365 0.0406, -0.4893 -0.7817 0.0402, -0.4893 -0.7817 0.0406, -0.4684 -0.7894 0.0402, -0.4684 -0.7894 0.0406, -0.3295 -0.7899 0.0406, -0.3295 -0.8115 0.0406, -0.3295 -0.7899 0.0402, -0.3295 -0.8115 0.0402, -0.2287 -0.8115 0.0406, -0.2287 -0.8115 0.0402, -0.2287 -0.6147 0.0406, -0.2287 -0.6147 0.0402, -0.2551 -0.6147 0.0406, -0.2551 -0.6147 0.0402, -0.2551 -0.7899 0.0406, -0.2551 -0.7899 0.0402
            ]
        }
        coordIndex [
            0,1,2,-1,2,1,3,-1,2,3,4,-1,4,3,5,-1,4,5,6,-1,6,5,7,-1,6,7,8,-1,8,7,9,-1,8,9,10,-1,10,9,11,-1,10,11,12,-1,12,11,13,-1,12,13,14,-1,14,13,15,-1,14,15,16,-1,16,15,17,-1,16,17,18,-1,18,17,19,-1,18,19,20,-1,20,19,21,-1,20,21,22,-1,22,21,23,-1,22,23,24,-1,24,23,25,-1,24,25,26,-1,26,25,27,-1,26,27,28,-1,28,27,29,-1,28,29,30,-1,30,29,31,-1,30,31,32,-1,32,31,33,-1,32,33,34,-1,34,33,35,-1,34,35,36,-1,36,35,37,-1,36,37,38,-1,38,37,39,-1,38,39,40,-1,40,39,41,-1,40,41,42,-1,42,41,43,-1,42,43,44,-1,44,43,45,-1,44,45,46,-1,46,45,47,-1,46,47,0,-1,0,47,1,-1,44,46,48,-1,48,46,0,-1,48,0,2,-1,38,40,48,-1,48,40,42,-1,48,42,44,-1,32,34,48,-1,48,34,36,-1,48,36,38,-1,26,28,48,-1,48,28,30,-1,48,30,32,-1,20,22,48,-1,48,22,24,-1,48,24,26,-1,14,16,48,-1,48,16,18,-1,48,18,20,-1,8,10,48,-1,48,10,12,-1,48,12,14,-1,2,4,48,-1,48,4,6,-1,48,6,8,-1,49,50,51,-1,51,50,52,-1,50,53,52,-1,52,53,54,-1,53,55,54,-1,54,55,56,-1,55,57,56,-1,56,57,58,-1,57,59,58,-1,58,59,60,-1,59,61,60,-1,60,61,62,-1,61,63,62,-1,62,63,64,-1,63,49,64,-1,64,49,51,-1,65,57,66,-1,66,57,55,-1,67,63,65,-1,65,63,61,-1,65,61,57,-1,57,61,59,-1,67,68,63,-1,63,68,69,-1,63,69,49,-1,49,69,70,-1,49,70,71,-1,71,72,49,-1,49,72,66,-1,49,66,50,-1,50,66,55,-1,50,55,53,-1,65,66,73,-1,73,66,74,-1,67,65,75,-1,75,65,73,-1,67,75,76,-1,67,76,68,-1,68,76,77,-1,68,77,69,-1,70,69,78,-1,78,69,77,-1,70,78,79,-1,70,79,71,-1,71,79,80,-1,71,80,72,-1,66,72,74,-1,74,72,80,-1,81,82,83,-1,83,82,84,-1,82,85,84,-1,84,85,86,-1,85,87,86,-1,86,87,88,-1,89,90,91,-1,89,91,92,-1,92,91,93,-1,92,93,94,-1,94,93,95,-1,94,95,96,-1,96,95,97,-1,96,97,98,-1,98,97,99,-1,98,99,100,-1,100,99,101,-1,100,101,102,-1,102,101,103,-1,102,103,104,-1,104,103,88,-1,104,88,87,-1,81,83,105,-1,81,105,106,-1,106,105,107,-1,106,107,108,-1,108,107,109,-1,108,109,110,-1,110,109,111,-1,110,111,112,-1,112,111,113,-1,112,113,114,-1,114,113,115,-1,114,115,116,-1,116,115,90,-1,116,90,89,-1,94,96,117,-1,117,96,98,-1,117,98,118,-1,118,98,100,-1,118,100,119,-1,119,100,102,-1,119,102,120,-1,120,102,104,-1,120,104,121,-1,121,104,87,-1,121,87,122,-1,122,87,85,-1,122,85,123,-1,123,85,82,-1,123,82,124,-1,124,82,81,-1,124,81,125,-1,125,81,106,-1,125,106,126,-1,126,106,108,-1,126,108,127,-1,127,108,110,-1,127,110,128,-1,128,110,112,-1,128,112,129,-1,129,112,114,-1,129,114,130,-1,130,114,116,-1,130,116,131,-1,131,116,89,-1,131,89,132,-1,132,89,92,-1,132,92,133,-1,133,92,94,-1,133,94,117,-1,121,122,134,-1,134,122,135,-1,121,134,136,-1,121,136,120,-1,120,136,137,-1,120,137,119,-1,119,137,138,-1,119,138,118,-1,118,138,139,-1,118,139,117,-1,117,139,140,-1,117,140,133,-1,133,140,141,-1,133,141,132,-1,132,141,142,-1,132,142,131,-1,131,142,143,-1,131,143,130,-1,130,143,144,-1,130,144,129,-1,129,144,145,-1,129,145,128,-1,128,145,146,-1,128,146,127,-1,127,146,147,-1,127,147,126,-1,126,147,148,-1,126,148,125,-1,125,148,149,-1,125,149,124,-1,123,124,150,-1,150,124,149,-1,122,123,135,-1,135,123,150,-1,151,152,153,-1,153,152,154,-1,152,155,154,-1,154,155,156,-1,155,157,156,-1,156,157,158,-1,157,159,158,-1,158,159,160,-1,159,161,160,-1,160,161,162,-1,161,163,162,-1,162,163,164,-1,163,165,164,-1,164,165,166,-1,165,167,166,-1,166,167,168,-1,167,169,168,-1,168,169,170,-1,169,171,170,-1,170,171,172,-1,171,173,172,-1,172,173,174,-1,173,151,174,-1,174,151,153,-1,155,152,151,-1,151,173,155,-1,155,173,171,-1,155,171,157,-1,161,159,163,-1,163,159,157,-1,163,157,165,-1,165,157,171,-1,165,171,167,-1,167,171,169,-1,175,176,177,-1,177,176,178,-1,178,176,179,-1,180,181,182,-1,180,182,183,-1,183,182,184,-1,183,184,179,-1,179,184,185,-1,179,185,178,-1,181,180,186,-1,186,180,187,-1,186,187,188,-1,188,187,189,-1,188,189,190,-1,190,189,191,-1,190,191,192,-1,192,191,193,-1,192,193,194,-1,194,193,195,-1,194,195,196,-1,196,195,197,-1,196,197,198,-1,198,197,199,-1,198,199,200,-1,201,202,203,-1,201,203,204,-1,204,203,205,-1,204,205,206,-1,206,205,207,-1,206,207,208,-1,208,207,209,-1,208,209,210,-1,210,209,211,-1,210,211,212,-1,212,211,213,-1,212,213,214,-1,214,213,200,-1,214,200,199,-1,215,216,217,-1,215,217,218,-1,218,217,202,-1,218,202,201,-1,215,219,216,-1,216,219,220,-1,221,222,223,-1,221,223,224,-1,224,223,220,-1,224,220,219,-1,225,226,227,-1,225,227,228,-1,228,227,229,-1,228,229,230,-1,230,229,231,-1,230,231,232,-1,232,231,233,-1,232,233,234,-1,234,233,235,-1,234,235,236,-1,236,235,237,-1,236,237,238,-1,238,237,222,-1,238,222,221,-1,239,240,241,-1,239,241,242,-1,242,241,243,-1,242,243,244,-1,244,243,245,-1,244,245,246,-1,246,245,247,-1,246,247,248,-1,248,247,249,-1,248,249,250,-1,250,249,251,-1,250,251,252,-1,252,251,226,-1,252,226,225,-1,175,177,253,-1,175,253,254,-1,254,253,255,-1,254,255,256,-1,256,255,240,-1,256,240,239,-1,242,180,239,-1,239,180,183,-1,239,183,256,-1,256,183,179,-1,256,179,254,-1,254,179,176,-1,254,176,175,-1,219,215,224,-1,224,215,218,-1,224,218,221,-1,221,218,201,-1,221,201,238,-1,238,201,204,-1,238,204,236,-1,236,204,206,-1,236,206,234,-1,234,206,208,-1,234,208,232,-1,232,208,210,-1,232,210,230,-1,230,210,212,-1,230,212,228,-1,228,212,214,-1,228,214,225,-1,225,214,199,-1,225,199,252,-1,252,199,197,-1,252,197,250,-1,250,197,195,-1,250,195,248,-1,248,195,193,-1,248,193,246,-1,246,193,191,-1,246,191,244,-1,244,191,189,-1,244,189,242,-1,242,189,187,-1,242,187,180,-1,257,258,259,-1,259,258,260,-1,258,261,260,-1,260,261,262,-1,261,263,262,-1,262,263,264,-1,263,265,264,-1,264,265,266,-1,265,267,266,-1,266,267,268,-1,267,257,268,-1,268,257,259,-1,265,263,267,-1,267,263,261,-1,267,261,257,-1,257,261,258,-1,
        ]
    }
}
Shape{
    appearance Appearance {
        material  Material 	{
            diffuseColor 0.25098039215686274 0.25098039215686274 0.25098039215686274
            specularColor 0.12549019607843137 0.12549019607843137 0.12549019607843137
            ambientIntensity 0.251
            transparency 0.0
            shininess 0.5
        }
    }
    geometry IndexedFaceSet {
        ccw TRUE
        solid FALSE
        coord DEF co Coordinate {
            point [
                -0.9023 -0.7347 0.0402, -0.9681 -0.7347 0.0402, -0.9317 -0.6525 0.0402, -0.9385 -0.6525 0.0402, -0.9336 -0.6456 0.0402, -0.9368 -0.6456 0.0402, -0.9348 -0.6387 0.0402, -0.9355 -0.6387 0.0402, -0.7016 -0.6363 0.0402, -0.7016 -0.7899 0.0402, -0.7307 -0.6363 0.0402, -0.7296 -0.7899 0.0402, -0.7503 -0.788 0.0402, -0.8073 -0.7112 0.0402, -0.8056 -0.6916 0.0402, -0.801 -0.676 0.0402, -0.754 -0.6387 0.0402, -0.7669 -0.7828 0.0402, -0.7803 -0.7748 0.0402, -0.7914 -0.7639 0.0402, -0.7997 -0.7504 0.0402, -0.8055 -0.7319 0.0402, -0.7942 -0.6639 0.0402, -0.7846 -0.6537 0.0402, -0.7702 -0.6444 0.0402
            ]
        }
        coordIndex [
            0,1,2,-1,2,1,3,-1,2,3,4,-1,4,3,5,-1,4,5,6,-1,6,5,7,-1,8,9,10,-1,10,9,11,-1,10,11,12,-1,13,14,10,-1,10,14,15,-1,10,15,16,-1,12,17,10,-1,10,17,18,-1,10,18,19,-1,19,20,10,-1,10,20,21,-1,10,21,13,-1,22,23,15,-1,15,23,24,-1,15,24,16,-1,
        ]
    }
}