%TF.GenerationSoftware,KiCad,Pcbnew,9.0.6*%
%TF.CreationDate,2026-02-04T05:23:13+09:00*%
%TF.ProjectId,zudo-pd,7a75646f-2d70-4642-9e6b-696361645f70,rev?*%
%TF.SameCoordinates,Original*%
%TF.FileFunction,Soldermask,Bot*%
%TF.FilePolarity,Negative*%
%FSLAX46Y46*%
G04 Gerber Fmt 4.6, Leading zero omitted, Abs format (unit mm)*
G04 Created by KiCad (PCBNEW 9.0.6) date 2026-02-04 05:23:13*
%MOMM*%
%LPD*%
G01*
G04 APERTURE LIST*
%ADD10O,1.100000X1.900000*%
%ADD11R,2.200000X2.200000*%
%ADD12C,2.200000*%
%ADD13R,1.800000X1.780000*%
%ADD14C,1.800000*%
%ADD15R,1.780000X1.800000*%
%ADD16C,3.200000*%
G04 APERTURE END LIST*
D10*
%TO.C,J1*%
X49000000Y-6380000D03*
X49000000Y-2570000D03*
X40360000Y-6380000D03*
X40360000Y-2570000D03*
%TD*%
D11*
%TO.C,J9*%
X15240000Y-28950000D03*
D12*
X10160000Y-28950000D03*
%TD*%
D13*
%TO.C,J10*%
X4500000Y-61200000D03*
D14*
X7040000Y-61200000D03*
X4500000Y-63740000D03*
X7040000Y-63740000D03*
X4500000Y-66280000D03*
X7040000Y-66280000D03*
X4500000Y-68820000D03*
X7040000Y-68820000D03*
X4500000Y-71360000D03*
X7040000Y-71360000D03*
X4500000Y-73900000D03*
X7040000Y-73900000D03*
X4500000Y-76440000D03*
X7040000Y-76440000D03*
X4500000Y-78980000D03*
X7040000Y-78980000D03*
%TD*%
%TO.C,J11*%
X13460000Y-13015000D03*
X13460000Y-10475000D03*
X16000000Y-13015000D03*
X16000000Y-10475000D03*
X18540000Y-13015000D03*
X18540000Y-10475000D03*
X21080000Y-13015000D03*
X21080000Y-10475000D03*
X23620000Y-13015000D03*
X23620000Y-10475000D03*
X26160000Y-13015000D03*
X26160000Y-10475000D03*
X28700000Y-13015000D03*
X28700000Y-10475000D03*
X31240000Y-13015000D03*
D15*
X31240000Y-10475000D03*
%TD*%
D11*
%TO.C,J7*%
X15240000Y-36610000D03*
D12*
X10160000Y-36610000D03*
%TD*%
D11*
%TO.C,J8*%
X15240000Y-44700000D03*
D12*
X10160000Y-44700000D03*
%TD*%
D11*
%TO.C,J6*%
X15240000Y-20850000D03*
D12*
X10160000Y-20850000D03*
%TD*%
D16*
%TO.C,REF\u002A\u002A*%
X69000000Y-92000000D03*
%TD*%
%TO.C,REF\u002A\u002A*%
X1000000Y-7000000D03*
%TD*%
%TO.C,REF\u002A\u002A*%
X54250000Y-7000000D03*
%TD*%
%TO.C,REF\u002A\u002A*%
X1000000Y-92000000D03*
%TD*%
%TO.C,REF\u002A\u002A*%
X53000000Y-55000000D03*
%TD*%
%TO.C,REF\u002A\u002A*%
X53000000Y-35500000D03*
%TD*%
%TO.C,REF\u002A\u002A*%
X44500000Y-73000000D03*
%TD*%
M02*
