<svg xmlns="http://www.w3.org/2000/svg" viewBox="0.0000 0.0000 3.7592 3.8862" width="100%" height="100%" preserveAspectRatio="xMidYMid meet">
<g style="fill:#000000; fill-opacity:1.0000;stroke:#000000; stroke-opacity:1.0000;
stroke-linecap:round; stroke-linejoin:round;"
 transform="translate(0 0) scale(1 1)">
<path style="fill:#000000; fill-opacity:1.0000; stroke:none;fill-rule:evenodd;"
d="M 2.6750,3.0210
2.6750,2.4890
3.4750,2.4890
3.4750,3.0210
Z" />
<path style="fill:#000000; fill-opacity:1.0000; stroke:none;fill-rule:evenodd;"
d="M 2.6750,2.0710
2.6750,1.5390
3.4750,1.5390
3.4750,2.0710
Z" />
<path style="fill:#000000; fill-opacity:1.0000; stroke:none;fill-rule:evenodd;"
d="M 2.6750,1.1210
2.6750,0.5890
3.4750,0.5890
3.4750,1.1210
Z" />
<path style="fill:#000000; fill-opacity:1.0000; stroke:none;fill-rule:evenodd;"
d="M 0.2750,1.1210
0.2750,0.5890
1.0750,0.5890
1.0750,1.1210
Z" />
<path style="fill:#000000; fill-opacity:1.0000; stroke:none;fill-rule:evenodd;"
d="M 0.2750,2.0710
0.2750,1.5390
1.0750,1.5390
1.0750,2.0710
Z" />
<path style="fill:#000000; fill-opacity:1.0000; stroke:none;fill-rule:evenodd;"
d="M 0.2750,3.0210
0.2750,2.4890
1.0750,2.4890
1.0750,3.0210
Z" />
</g>
<g style="fill:none;
stroke:#000000; stroke-width:0.1500; stroke-opacity:1;
stroke-linecap:round; stroke-linejoin:round;">
<path d="M2.7550 0.2750
L0.9950 0.2750
" />
<path d="M2.7550 3.3350
L0.9950 3.3350
" />
</g>
<g style="fill:none;
stroke:#000000; stroke-width:0.3000; stroke-opacity:1;
stroke-linecap:round; stroke-linejoin:round;">
<circle cx="3.1650" cy="3.4750" r="0.1500" />
</g>
<g style="fill:none;
stroke:#000000; stroke-width:0.0600; stroke-opacity:1;
stroke-linecap:round; stroke-linejoin:round;">
<circle cx="3.2750" cy="3.2550" r="0.0300" />
</g>
<g style="fill:none;
stroke:#000000; stroke-width:0.0500; stroke-opacity:1;
stroke-linecap:round; stroke-linejoin:round;">
<path d="M0.0250 0.0250
L3.7250 0.0250
" />
<path d="M3.7250 0.0250
L3.7250 3.8750
" />
<path d="M3.7250 3.8750
L0.0250 3.8750
" />
<path d="M0.0250 3.8750
L0.0250 0.0250
" />
</g>
</svg>
