<svg xmlns="http://www.w3.org/2000/svg" xmlns:xlink="http://www.w3.org/1999/xlink" xml:lang="en" height="399.44000000000005pt" width="767.774pt" viewBox="-325.10200000000003 -346.6 767.774 399.44000000000005"><path d="M 261.0 -46.8 a 4.5 4.5 0 1 1 9.0 0.0" style="stroke:black;fill:none;stroke-width:2.0;stroke-dasharray:-;" /><path d="M 270.0 -46.8 a 4.5 4.5 0 1 1 9.0 0.0" style="stroke:black;fill:none;stroke-width:2.0;stroke-dasharray:-;" /><path d="M 279.0 -46.8 a 4.5 4.5 0 1 1 9.0 0.0" style="stroke:black;fill:none;stroke-width:2.0;stroke-dasharray:-;" /><path d="M 288.0 -46.8 a 4.5 4.5 0 1 1 9.0 0.0" style="stroke:black;fill:none;stroke-width:2.0;stroke-dasharray:-;" /><polygon points="225.0,-4.500000000000008 234.0,-17.1 243.0,-4.500000000000008 " style="stroke:black;fill:none;stroke-width:2.0;stroke-dasharray:-;stroke-linecap:round;stroke-linejoin:round;" /><path d="M 0.0,-0.0 L 162.0,-0.0 L 162.0,-129.6 L 0.0,-129.6 L 0.0,-0.0" style="stroke:black;fill:none;stroke-width:2.0;stroke-dasharray:-;stroke-linecap:round;stroke-linejoin:round;" /><path d="M 0.0,-28.8 L -36.0,-28.8" style="stroke:black;fill:none;stroke-width:2.0;stroke-dasharray:-;stroke-linecap:round;stroke-linejoin:round;" /><path d="M 0.0,-64.8 L -36.0,-64.8" style="stroke:black;fill:none;stroke-width:2.0;stroke-dasharray:-;stroke-linecap:round;stroke-linejoin:round;" /><path d="M 0.0,-100.8 L -36.0,-100.8" style="stroke:black;fill:none;stroke-width:2.0;stroke-dasharray:-;stroke-linecap:round;stroke-linejoin:round;" /><path d="M 162.0,-46.800000000000004 L 198.0,-46.800000000000004" style="stroke:black;fill:none;stroke-width:2.0;stroke-dasharray:-;stroke-linecap:round;stroke-linejoin:round;" /><path d="M 162.0,-82.8 L 198.0,-82.8" style="stroke:black;fill:none;stroke-width:2.0;stroke-dasharray:-;stroke-linecap:round;stroke-linejoin:round;" /><path d="M -36.0,-28.8 L -36.0,-10.8 L -36.00000000000001,7.199999999999998" style="stroke:black;fill:none;stroke-width:2.0;stroke-dasharray:-;stroke-linecap:round;stroke-linejoin:round;" /><path d="M -36.00000000000001,7.199999999999998 L -36.00000000000001,21.599999999999998 L -45.00000000000001,21.599999999999998 L -27.000000000000007,21.599999999999998 M -42.30000000000001,25.919999999999998 L -29.700000000000006,25.919999999999998 M -37.80000000000001,30.24 L -34.2,30.24" style="stroke:black;fill:none;stroke-width:2.0;stroke-dasharray:-;stroke-linecap:round;stroke-linejoin:round;" /><path d="M -288.0,-100.8 L -279.0,-100.8 L -270.0,-100.8" style="stroke:black;fill:none;stroke-width:2.0;stroke-dasharray:-;stroke-linecap:round;stroke-linejoin:round;" /><path d="M -270.0,-100.8 L -234.0,-100.8 L -198.0,-100.8" style="stroke:black;fill:none;stroke-width:2.0;stroke-dasharray:-;stroke-linecap:round;stroke-linejoin:round;" /><path d="M -198.0,-100.8 L -162.0,-100.8 L -126.0,-100.8" style="stroke:black;fill:none;stroke-width:2.0;stroke-dasharray:-;stroke-linecap:round;stroke-linejoin:round;" /><path d="M -126.0,-100.8 L -81.0,-100.8 L -36.0,-100.8" style="stroke:black;fill:none;stroke-width:2.0;stroke-dasharray:-;stroke-linecap:round;stroke-linejoin:round;" /><path d="M -36.0,-64.8 L -54.0,-64.8 L -72.0,-64.80000000000001" style="stroke:black;fill:none;stroke-width:2.0;stroke-dasharray:-;stroke-linecap:round;stroke-linejoin:round;" /><path d="M -72.0,-64.80000000000001 L -72.0,-46.80000000000001 L -72.0,-28.80000000000001" style="stroke:black;fill:none;stroke-width:2.0;stroke-dasharray:-;stroke-linecap:round;stroke-linejoin:round;" /><path d="M -72.0,-28.80000000000001 L -72.0,-14.40000000000001 L -81.0,-14.40000000000001 L -63.0,-14.40000000000001 M -78.3,-10.080000000000009 L -65.7,-10.080000000000009 M -73.8,-5.760000000000009 L -70.2,-5.760000000000009" style="stroke:black;fill:none;stroke-width:2.0;stroke-dasharray:-;stroke-linecap:round;stroke-linejoin:round;" /><path d="M -198.0,-100.8 L -198.0,-68.03999999999999 M -189.0,-68.03999999999999 L -207.0,-68.03999999999999 M -189.0,-61.55999999999999 L -207.0,-61.55999999999999 M -198.0,-61.55999999999999 L -198.0,-28.799999999999994" style="stroke:black;fill:none;stroke-width:2.0;stroke-dasharray:-;stroke-linecap:round;stroke-linejoin:round;" /><path d="M -198.0,-28.799999999999994 L -198.0,-14.399999999999993 L -207.0,-14.399999999999993 L -189.0,-14.399999999999993 M -204.29999999999998,-10.079999999999993 L -191.70000000000002,-10.079999999999993 M -199.79999999999998,-5.759999999999993 L -196.20000000000002,-5.759999999999993" style="stroke:black;fill:none;stroke-width:2.0;stroke-dasharray:-;stroke-linecap:round;stroke-linejoin:round;" /><path d="M -270.0,-100.8 L -270.0,-68.03999999999999 M -261.0,-68.03999999999999 L -279.0,-68.03999999999999 M -261.0,-61.55999999999999 L -279.0,-61.55999999999999 M -270.0,-61.55999999999999 L -270.0,-28.799999999999994" style="stroke:black;fill:none;stroke-width:2.0;stroke-dasharray:-;stroke-linecap:round;stroke-linejoin:round;" /><path d="M -270.0,-28.799999999999994 L -270.0,-14.399999999999993 L -279.0,-14.399999999999993 L -261.0,-14.399999999999993 M -276.3,-10.079999999999993 L -263.7,-10.079999999999993 M -271.8,-5.759999999999993 L -268.2,-5.759999999999993" style="stroke:black;fill:none;stroke-width:2.0;stroke-dasharray:-;stroke-linecap:round;stroke-linejoin:round;" /><path d="M 198.0,-46.800000000000004 L 216.0,-46.800000000000004 L 234.0,-46.800000000000004" style="stroke:black;fill:none;stroke-width:2.0;stroke-dasharray:-;stroke-linecap:round;stroke-linejoin:round;" /><path d="M 234.0,-46.800000000000004 L 261.0,-46.800000000000004 M 297.0,-46.800000000000004 L 324.0,-46.800000000000004" style="stroke:black;fill:none;stroke-width:2.0;stroke-dasharray:-;stroke-linecap:round;stroke-linejoin:round;" /><path d="M 324.0,-46.800000000000004 L 342.0,-46.800000000000004 L 360.0,-46.800000000000004" style="stroke:black;fill:none;stroke-width:2.0;stroke-dasharray:-;stroke-linecap:round;stroke-linejoin:round;" /><path d="M 360.0,-46.800000000000004 L 378.0,-46.800000000000004 L 396.0,-46.800000000000004" style="stroke:black;fill:none;stroke-width:2.0;stroke-dasharray:-;stroke-linecap:round;stroke-linejoin:round;" /><path d="M 360.0,-46.800000000000004 L 360.0,-118.8 L 360.0,-190.79999999999998" style="stroke:black;fill:none;stroke-width:2.0;stroke-dasharray:-;stroke-linecap:round;stroke-linejoin:round;" /><path d="M 360.0,-190.79999999999998 L 318.59999999999997,-190.79999999999998 L 316.5,-184.5 L 312.3,-197.1 L 308.1,-184.5 L 303.9,-197.1 L 299.7,-184.5 L 295.5,-197.1 L 293.40000000000003,-190.79999999999998 L 252.0,-190.79999999999998" style="stroke:black;fill:none;stroke-width:2.0;stroke-dasharray:-;stroke-linecap:round;stroke-linejoin:round;" /><path d="M 252.0,-190.79999999999998 L 248.4,-190.79999999999998 L 244.79999999999998,-190.79999999999998" style="stroke:black;fill:none;stroke-width:2.0;stroke-dasharray:-;stroke-linecap:round;stroke-linejoin:round;" /><path d="M 244.79999999999998,-190.79999999999998 L 241.20000000000002,-190.79999999999998 L 237.6,-190.79999999999998" style="stroke:black;fill:none;stroke-width:2.0;stroke-dasharray:-;stroke-linecap:round;stroke-linejoin:round;" /><path d="M 237.6,-190.79999999999998 L 196.2,-190.79999999999998 L 194.1,-184.5 L 189.89999999999998,-197.1 L 185.7,-184.5 L 181.49999999999997,-197.1 L 177.29999999999998,-184.5 L 173.10000000000002,-197.1 L 171.0,-190.79999999999998 L 129.6,-190.79999999999998" style="stroke:black;fill:none;stroke-width:2.0;stroke-dasharray:-;stroke-linecap:round;stroke-linejoin:round;" /><path d="M 129.6,-190.79999999999998 L 126.0,-190.79999999999998 L 122.39999999999999,-190.79999999999998" style="stroke:black;fill:none;stroke-width:2.0;stroke-dasharray:-;stroke-linecap:round;stroke-linejoin:round;" /><path d="M 122.39999999999999,-190.79999999999998 L 122.39999999999999,-187.20000000000002 L 122.39999999999999,-183.6" style="stroke:black;fill:none;stroke-width:2.0;stroke-dasharray:-;stroke-linecap:round;stroke-linejoin:round;" /><path d="M 122.39999999999999,-183.6 L 122.39999999999999,-169.2 L 113.39999999999999,-169.2 L 131.4,-169.2 M 116.10000000000001,-164.88 L 128.7,-164.88 M 120.60000000000001,-160.56 L 124.19999999999999,-160.56" style="stroke:black;fill:none;stroke-width:2.0;stroke-dasharray:-;stroke-linecap:round;stroke-linejoin:round;" /><path d="M 244.79999999999998,-190.79999999999998 L 221.4,-136.79999999999998 L 198.0,-82.79999999999998" style="stroke:black;fill:none;stroke-width:2.0;stroke-dasharray:-;stroke-linecap:round;stroke-linejoin:round;" /><path d="M 244.79999999999998,-190.79999999999998 L 230.39999999999998,-190.79999999999998 L 216.0,-190.79999999999998" style="stroke:black;fill:none;stroke-width:2.0;stroke-dasharray:-;stroke-linecap:round;stroke-linejoin:round;" /><path d="M 360.0,-190.79999999999998 L 345.59999999999997,-190.79999999999998 L 331.2,-190.79999999999998" style="stroke:black;fill:none;stroke-width:2.0;stroke-dasharray:-;stroke-linecap:round;stroke-linejoin:round;" /><path d="M 331.2,-190.79999999999998 L 331.2,-263.15999999999997 M 322.2,-263.15999999999997 L 340.2,-263.15999999999997 M 322.2,-269.64 L 340.2,-269.64 M 331.2,-269.64 L 331.2,-342.0" style="stroke:black;fill:none;stroke-width:2.0;stroke-dasharray:-;stroke-linecap:round;stroke-linejoin:round;" /><path d="M 331.2,-342.0 L 287.99999999999994,-266.40000000000003 L 244.79999999999995,-190.8" style="stroke:black;fill:none;stroke-width:2.0;stroke-dasharray:-;stroke-linecap:round;stroke-linejoin:round;" /><path d="M 324.0,-46.800000000000004 L 324.0,-14.040000000000001 M 333.0,-14.040000000000001 L 315.0,-14.040000000000001 M 333.0,-7.559999999999999 L 315.0,-7.559999999999999 M 324.0,-7.559999999999999 L 324.0,25.2" style="stroke:black;fill:none;stroke-width:2.0;stroke-dasharray:-;stroke-linecap:round;stroke-linejoin:round;" /><path d="M 324.0,25.2 L 324.0,39.6 L 315.0,39.6 L 333.0,39.6 M 317.7,43.92 L 330.3,43.92 M 322.2,48.239999999999995 L 325.8,48.239999999999995" style="stroke:black;fill:none;stroke-width:2.0;stroke-dasharray:-;stroke-linecap:round;stroke-linejoin:round;" /><path d="M 234.0,-46.800000000000004 L 234.0,-17.1 M 225.0,-17.1 L 243.0,-17.1 M 234.0,-4.500000000000008 L 234.0,25.19999999999999" style="stroke:black;fill:none;stroke-width:2.0;stroke-dasharray:-;stroke-linecap:round;stroke-linejoin:round;" /><path d="M 234.0,25.19999999999999 L 234.0,39.59999999999999 L 225.0,39.59999999999999 L 243.0,39.59999999999999 M 227.70000000000002,43.91999999999999 L 240.29999999999998,43.91999999999999 M 232.20000000000002,48.239999999999995 L 235.79999999999998,48.239999999999995" style="stroke:black;fill:none;stroke-width:2.0;stroke-dasharray:-;stroke-linecap:round;stroke-linejoin:round;" /><text x="-2.6999999999999997" y="-42.5" dominant-baseline="ideographic" fill="black" font-size="11" font-family="Arial" text-anchor="end"><tspan x="-2.6999999999999997" dy="11">3</tspan></text><text x="5.3999999999999995" y="-42.8" dominant-baseline="central" fill="black" font-size="14" font-family="Arial" text-anchor="start"><tspan x="5.3999999999999995" dy="14">GND</tspan></text><text x="-2.6999999999999997" y="-78.5" dominant-baseline="ideographic" fill="black" font-size="11" font-family="Arial" text-anchor="end"><tspan x="-2.6999999999999997" dy="11">5</tspan></text><text x="5.3999999999999995" y="-78.8" dominant-baseline="central" fill="black" font-size="14" font-family="Arial" text-anchor="start"><tspan x="5.3999999999999995" dy="14">ON</tspan></text><text x="-2.6999999999999997" y="-114.5" dominant-baseline="ideographic" fill="black" font-size="11" font-family="Arial" text-anchor="end"><tspan x="-2.6999999999999997" dy="11">1</tspan></text><text x="5.3999999999999995" y="-114.8" dominant-baseline="central" fill="black" font-size="14" font-family="Arial" text-anchor="start"><tspan x="5.3999999999999995" dy="14">VIN</tspan></text><text x="164.70000000000002" y="-60.5" dominant-baseline="ideographic" fill="black" font-size="11" font-family="Arial" text-anchor="start"><tspan x="164.70000000000002" dy="11">2</tspan></text><text x="156.6" y="-60.800000000000004" dominant-baseline="central" fill="black" font-size="14" font-family="Arial" text-anchor="end"><tspan x="156.6" dy="14">VOUT</tspan></text><text x="164.70000000000002" y="-96.5" dominant-baseline="ideographic" fill="black" font-size="11" font-family="Arial" text-anchor="start"><tspan x="164.70000000000002" dy="11">4</tspan></text><text x="156.6" y="-96.8" dominant-baseline="central" fill="black" font-size="14" font-family="Arial" text-anchor="end"><tspan x="156.6" dy="14">FB</tspan></text><text x="84.60000000000001" y="-83.4" dominant-baseline="central" fill="black" font-size="10" font-family="Arial" text-anchor="middle"><tspan x="84.60000000000001" dy="10">U2</tspan><tspan x="84.60000000000001" dy="10">LM2596S</tspan></text><text x="-185.4" y="-81.3" dominant-baseline="central" fill="black" font-size="11" font-family="Arial" text-anchor="start"><tspan x="-185.4" dy="11">C6</tspan><tspan x="-185.4" dy="11">100nF</tspan></text><text x="-257.40000000000003" y="-81.3" dominant-baseline="central" fill="black" font-size="11" font-family="Arial" text-anchor="start"><tspan x="-257.40000000000003" dy="11">C5</tspan><tspan x="-257.40000000000003" dy="11">100µF</tspan></text><text x="279.0" y="-91.49997770431489" dominant-baseline="ideographic" fill="black" font-size="11" font-family="Arial" text-anchor="middle"><tspan x="279.0" dy="11">L1</tspan><tspan x="279.0" dy="11">100µH</tspan><tspan x="279.0" dy="11">4.5A</tspan></text><text x="306.0" y="-182.9" dominant-baseline="hanging" fill="black" font-size="11" font-family="Arial" text-anchor="middle"><tspan x="306.0" dy="11">R1</tspan><tspan x="306.0" dy="11">10kΩ</tspan></text><text x="183.6" y="-182.9" dominant-baseline="hanging" fill="black" font-size="11" font-family="Arial" text-anchor="middle"><tspan x="183.6" dy="11">R2</tspan><tspan x="183.6" dy="11">1kΩ</tspan></text><text x="331.2" y="-212.6" dominant-baseline="hanging" fill="black" font-size="11" font-family="Arial" text-anchor="middle"><tspan x="331.2" dy="11">C4</tspan><tspan x="331.2" dy="11">22nF</tspan></text><text x="351.0" y="-32.8" dominant-baseline="central" fill="black" font-size="11" font-family="Arial" text-anchor="start"><tspan x="351.0" dy="11">C3</tspan><tspan x="351.0" dy="11">470µF</tspan><tspan x="351.0" dy="11">25V</tspan></text><text x="221.39999999999998" y="-27.30000000000001" dominant-baseline="central" fill="black" font-size="11" font-family="Arial" text-anchor="end"><tspan x="221.39999999999998" dy="11">D1</tspan><tspan x="221.39999999999998" dy="11">SS34</tspan></text><circle cx="-288.0" cy="-100.8" r="2.6999999999999997" style="stroke:black;fill:white;stroke-width:2.0;stroke-dasharray:-;" /><text x="-294.3" y="-111.8" dominant-baseline="central" fill="black" font-size="11" font-family="Arial" text-anchor="end"><tspan x="-294.3" dy="11">+15V</tspan></text><circle cx="-270.0" cy="-100.8" r="2.6999999999999997" style="stroke:black;fill:black;stroke-width:2.0;stroke-dasharray:-;" /><circle cx="-198.0" cy="-100.8" r="2.6999999999999997" style="stroke:black;fill:black;stroke-width:2.0;stroke-dasharray:-;" /><circle cx="234.0" cy="-46.800000000000004" r="2.6999999999999997" style="stroke:black;fill:black;stroke-width:2.0;stroke-dasharray:-;" /><circle cx="324.0" cy="-46.800000000000004" r="2.6999999999999997" style="stroke:black;fill:black;stroke-width:2.0;stroke-dasharray:-;" /><circle cx="360.0" cy="-46.800000000000004" r="2.6999999999999997" style="stroke:black;fill:black;stroke-width:2.0;stroke-dasharray:-;" /><circle cx="396.0" cy="-46.800000000000004" r="2.6999999999999997" style="stroke:black;fill:white;stroke-width:2.0;stroke-dasharray:-;" /><text x="402.3" y="-57.800000000000004" dominant-baseline="central" fill="black" font-size="11" font-family="Arial" text-anchor="start"><tspan x="402.3" dy="11">+13.5V</tspan></text><circle cx="360.0" cy="-190.79999999999998" r="2.6999999999999997" style="stroke:black;fill:black;stroke-width:2.0;stroke-dasharray:-;" /><circle cx="244.79999999999998" cy="-190.79999999999998" r="2.6999999999999997" style="stroke:black;fill:black;stroke-width:2.0;stroke-dasharray:-;" /></svg>