<svg xmlns="http://www.w3.org/2000/svg" xmlns:xlink="http://www.w3.org/1999/xlink" xml:lang="en" height="398.84pt" width="1584.914pt" viewBox="-167.96799999999996 -155.20000000000002 1584.914 398.84"><circle cx="3.3065463576978533e-15" cy="-54.0" r="18.0" style="stroke:black;fill:none;stroke-width:2.0;stroke-dasharray:-;" /><path d="M 475.2 -108.0 a 4.5 4.5 0 1 1 9.0 0.0" style="stroke:black;fill:none;stroke-width:2.0;stroke-dasharray:-;" /><path d="M 484.2 -108.0 a 4.5 4.5 0 1 1 9.0 0.0" style="stroke:black;fill:none;stroke-width:2.0;stroke-dasharray:-;" /><path d="M 493.2 -108.0 a 4.5 4.5 0 1 1 9.0 0.0" style="stroke:black;fill:none;stroke-width:2.0;stroke-dasharray:-;" /><path d="M 502.2 -108.0 a 4.5 4.5 0 1 1 9.0 0.0" style="stroke:black;fill:none;stroke-width:2.0;stroke-dasharray:-;" /><polygon points="1222.2,-60.300000000000004 1231.2,-47.7 1240.2,-60.300000000000004 " style="stroke:black;fill:none;stroke-width:2.0;stroke-dasharray:-;stroke-linecap:round;stroke-linejoin:round;" /><path d="M 475.2 -0.0 a 4.5 4.5 0 1 1 9.0 0.0" style="stroke:black;fill:none;stroke-width:2.0;stroke-dasharray:-;" /><path d="M 484.2 -0.0 a 4.5 4.5 0 1 1 9.0 0.0" style="stroke:black;fill:none;stroke-width:2.0;stroke-dasharray:-;" /><path d="M 493.2 -0.0 a 4.5 4.5 0 1 1 9.0 0.0" style="stroke:black;fill:none;stroke-width:2.0;stroke-dasharray:-;" /><path d="M 502.2 -0.0 a 4.5 4.5 0 1 1 9.0 0.0" style="stroke:black;fill:none;stroke-width:2.0;stroke-dasharray:-;" /><polygon points="1222.2,47.699999999999996 1231.2,60.3 1240.2,47.699999999999996 " style="stroke:black;fill:none;stroke-width:2.0;stroke-dasharray:-;stroke-linecap:round;stroke-linejoin:round;" /><path d="M 626.4 108.0 a 4.5 4.5 0 1 1 9.0 0.0" style="stroke:black;fill:none;stroke-width:2.0;stroke-dasharray:-;" /><path d="M 635.4 108.0 a 4.5 4.5 0 1 1 9.0 0.0" style="stroke:black;fill:none;stroke-width:2.0;stroke-dasharray:-;" /><path d="M 644.4 108.0 a 4.5 4.5 0 1 1 9.0 0.0" style="stroke:black;fill:none;stroke-width:2.0;stroke-dasharray:-;" /><path d="M 653.4 108.0 a 4.5 4.5 0 1 1 9.0 0.0" style="stroke:black;fill:none;stroke-width:2.0;stroke-dasharray:-;" /><polygon points="1391.4,155.70000000000002 1382.4,168.29999999999998 1373.4,155.70000000000002 " style="stroke:black;fill:none;stroke-width:2.0;stroke-dasharray:-;stroke-linecap:round;stroke-linejoin:round;" /><path d="M 0.0,-0.0 L 2.204364238465236e-15,-36.0 L 2.204364238465236e-15,-36.0 M 4.408728476930472e-15,-72.0 L 4.408728476930472e-15,-72.0 L 6.613092715395707e-15,-108.0" style="stroke:black;fill:none;stroke-width:2.0;stroke-dasharray:-;stroke-linecap:round;stroke-linejoin:round;" /><path d="M 3.600000000000003,-45.0 L -3.599999999999997,-45.0" style="stroke:black;fill:none;stroke-width:2.0;stroke-dasharray:-;stroke-linecap:round;stroke-linejoin:round;" /><path d="M 3.637200993467639e-15,-59.4 L 4.078073841160686e-15,-66.60000000000001" style="stroke:black;fill:none;stroke-width:2.0;stroke-dasharray:-;stroke-linecap:round;stroke-linejoin:round;" /><path d="M 3.600000000000004,-63.0 L -3.599999999999996,-63.0" style="stroke:black;fill:none;stroke-width:2.0;stroke-dasharray:-;stroke-linecap:round;stroke-linejoin:round;" /><path d="M 6.613092715395707e-15,-108.0 L 9.000000000000005,-108.0 L 18.000000000000007,-108.0" style="stroke:black;fill:none;stroke-width:2.0;stroke-dasharray:-;stroke-linecap:round;stroke-linejoin:round;" /><path d="M 18.000000000000007,-108.0 L 68.76,-108.0 M 68.76,-117.0 L 68.76,-99.0 M 75.24,-117.0 L 75.24,-99.0 M 75.24,-108.0 L 126.0,-108.0" style="stroke:black;fill:none;stroke-width:2.0;stroke-dasharray:-;stroke-linecap:round;stroke-linejoin:round;" /><path d="M 126.0,-108.0 L 135.0,-108.0 L 144.0,-108.0" style="stroke:black;fill:none;stroke-width:2.0;stroke-dasharray:-;stroke-linecap:round;stroke-linejoin:round;" /><path d="M 144.0,-108.0 L 180.0,-108.0 L 180.0,-117.0 L 216.0,-117.0 L 216.0,-99.0 L 180.0,-99.0 L 180.0,-108.0 M 216.0,-108.0 L 252.0,-108.0" style="stroke:black;fill:none;stroke-width:2.0;stroke-dasharray:-;stroke-linecap:round;stroke-linejoin:round;" /><path d="M 252.0,-108.0 L 261.0,-108.0 L 270.0,-108.0" style="stroke:black;fill:none;stroke-width:2.0;stroke-dasharray:-;stroke-linecap:round;stroke-linejoin:round;" /><path d="M 270.0,-108.0 L 270.0,-57.24 M 279.0,-57.24 L 261.0,-57.24 M 279.0,-50.760000000000005 L 261.0,-50.760000000000005 M 270.0,-50.760000000000005 L 269.99999999999994,-0.0" style="stroke:black;fill:none;stroke-width:2.0;stroke-dasharray:-;stroke-linecap:round;stroke-linejoin:round;" /><path d="M 269.99999999999994,-0.0 L 269.99999999999994,14.4 L 260.99999999999994,14.4 L 278.99999999999994,14.4 M 263.7,18.72 L 276.29999999999995,18.72 M 268.2,23.04 L 271.79999999999995,23.04" style="stroke:black;fill:none;stroke-width:2.0;stroke-dasharray:-;stroke-linecap:round;stroke-linejoin:round;" /><path d="M 306.0,-108.0 L 315.0,-108.0 L 324.0,-108.0" style="stroke:black;fill:none;stroke-width:2.0;stroke-dasharray:-;stroke-linecap:round;stroke-linejoin:round;" /><path d="M 324.0,-108.0 L 360.0,-108.0 L 360.0,-117.0 L 396.0,-117.0 L 396.0,-99.0 L 360.0,-99.0 L 360.0,-108.0 M 396.0,-108.0 L 432.0,-108.0" style="stroke:black;fill:none;stroke-width:2.0;stroke-dasharray:-;stroke-linecap:round;stroke-linejoin:round;" /><path d="M 432.0,-108.0 L 435.59999999999997,-108.0 L 439.2,-108.0" style="stroke:black;fill:none;stroke-width:2.0;stroke-dasharray:-;stroke-linecap:round;stroke-linejoin:round;" /><path d="M 439.2,-108.0 L 475.2,-108.0 M 511.2,-108.0 L 547.1999999999999,-108.0" style="stroke:black;fill:none;stroke-width:2.0;stroke-dasharray:-;stroke-linecap:round;stroke-linejoin:round;" /><path d="M 547.1999999999999,-108.0 L 550.8,-108.0 L 554.4,-108.0" style="stroke:black;fill:none;stroke-width:2.0;stroke-dasharray:-;stroke-linecap:round;stroke-linejoin:round;" /><path d="M 554.4,-108.0 L 554.4,-57.24 M 563.4,-57.24 L 545.4,-57.24 M 563.4,-50.760000000000005 L 545.4,-50.760000000000005 M 554.4,-50.760000000000005 L 554.4,-0.0" style="stroke:black;fill:none;stroke-width:2.0;stroke-dasharray:-;stroke-linecap:round;stroke-linejoin:round;" /><path d="M 554.4,-0.0 L 554.4,14.4 L 545.4,14.4 L 563.4,14.4 M 548.0999999999999,18.72 L 560.6999999999999,18.72 M 552.5999999999999,23.04 L 556.1999999999999,23.04" style="stroke:black;fill:none;stroke-width:2.0;stroke-dasharray:-;stroke-linecap:round;stroke-linejoin:round;" /><path d="M 590.4,-108.0 L 595.8,-108.0 L 601.1999999999999,-108.0" style="stroke:black;fill:none;stroke-width:2.0;stroke-dasharray:-;stroke-linecap:round;stroke-linejoin:round;" /><path d="M 601.1999999999999,-108.0 L 651.96,-108.0 M 651.96,-117.0 L 651.96,-99.0 M 658.4399999999999,-117.0 L 658.4399999999999,-99.0 M 658.4399999999999,-108.0 L 709.1999999999999,-108.0" style="stroke:black;fill:none;stroke-width:2.0;stroke-dasharray:-;stroke-linecap:round;stroke-linejoin:round;" /><path d="M 709.1999999999999,-108.0 L 714.5999999999999,-108.0 L 720.0,-108.0" style="stroke:black;fill:none;stroke-width:2.0;stroke-dasharray:-;stroke-linecap:round;stroke-linejoin:round;" /><path d="M 720.0,-108.0 L 756.0,-108.0 L 756.0,-117.0 L 792.0,-117.0 L 792.0,-99.0 L 756.0,-99.0 L 756.0,-108.0 M 792.0,-108.0 L 828.0,-108.0" style="stroke:black;fill:none;stroke-width:2.0;stroke-dasharray:-;stroke-linecap:round;stroke-linejoin:round;" /><path d="M 828.0,-108.0 L 833.4,-108.0 L 838.8000000000001,-108.0" style="stroke:black;fill:none;stroke-width:2.0;stroke-dasharray:-;stroke-linecap:round;stroke-linejoin:round;" /><path d="M 838.8000000000001,-108.0 L 889.5600000000001,-108.0 M 889.5600000000001,-117.0 L 889.5600000000001,-99.0 M 896.04,-117.0 L 896.04,-99.0 M 896.04,-108.0 L 946.8000000000001,-108.0" style="stroke:black;fill:none;stroke-width:2.0;stroke-dasharray:-;stroke-linecap:round;stroke-linejoin:round;" /><path d="M 946.8000000000001,-108.0 L 952.1999999999999,-108.0 L 957.6,-108.0" style="stroke:black;fill:none;stroke-width:2.0;stroke-dasharray:-;stroke-linecap:round;stroke-linejoin:round;" /><path d="M 957.6,-108.0 L 957.6,-57.24 M 966.6,-57.24 L 948.6,-57.24 M 966.6,-50.760000000000005 L 948.6,-50.760000000000005 M 957.6,-50.760000000000005 L 957.6,-0.0" style="stroke:black;fill:none;stroke-width:2.0;stroke-dasharray:-;stroke-linecap:round;stroke-linejoin:round;" /><path d="M 957.6,-0.0 L 957.6,14.4 L 948.6,14.4 L 966.6,14.4 M 951.3000000000001,18.72 L 963.9000000000001,18.72 M 955.8000000000001,23.04 L 959.4000000000001,23.04" style="stroke:black;fill:none;stroke-width:2.0;stroke-dasharray:-;stroke-linecap:round;stroke-linejoin:round;" /><path d="M 993.6,-108.0 L 997.2,-108.0 L 1000.8000000000001,-108.0" style="stroke:black;fill:none;stroke-width:2.0;stroke-dasharray:-;stroke-linecap:round;stroke-linejoin:round;" /><path d="M 1000.8000000000001,-108.0 L 1036.8,-108.0 L 1039.8,-117.0 L 1045.8,-99.0 L 1051.8000000000002,-117.0 L 1057.8,-99.0 L 1063.8,-117.0 L 1069.8000000000002,-99.0 L 1072.8,-108.0 L 1108.8,-108.0" style="stroke:black;fill:none;stroke-width:2.0;stroke-dasharray:-;stroke-linecap:round;stroke-linejoin:round;" /><path d="M 1108.8,-108.0 L 1112.4,-108.0 L 1116.0,-108.0" style="stroke:black;fill:none;stroke-width:2.0;stroke-dasharray:-;stroke-linecap:round;stroke-linejoin:round;" /><path d="M 1116.0,-108.0 L 1152.0,-108.0 L 1152.0,-117.0 L 1188.0,-117.0 L 1188.0,-99.0 L 1152.0,-99.0 L 1152.0,-108.0 M 1188.0,-108.0 L 1224.0,-108.0" style="stroke:black;fill:none;stroke-width:2.0;stroke-dasharray:-;stroke-linecap:round;stroke-linejoin:round;" /><path d="M 1152.0,-108.0 L 1188.0,-108.0" style="stroke:black;fill:none;stroke-width:2.0;stroke-dasharray:-;stroke-linecap:round;stroke-linejoin:round;" /><path d="M 1224.0,-108.0 L 1227.6000000000001,-108.0 L 1231.2,-108.0" style="stroke:black;fill:none;stroke-width:2.0;stroke-dasharray:-;stroke-linecap:round;stroke-linejoin:round;" /><path d="M 1231.2,-108.0 L 1231.2,-60.300000000000004 M 1222.2,-47.7 L 1240.2,-47.7 M 1231.2,-47.7 L 1231.2,-0.0" style="stroke:black;fill:none;stroke-width:2.0;stroke-dasharray:-;stroke-linecap:round;stroke-linejoin:round;" /><path d="M 1222.2,-47.7 L 1218.6000000000001,-44.1" style="stroke:black;fill:none;stroke-width:2.0;stroke-dasharray:-;stroke-linecap:round;stroke-linejoin:round;" /><path d="M 1240.2,-47.7 L 1243.8000000000002,-51.300000000000004" style="stroke:black;fill:none;stroke-width:2.0;stroke-dasharray:-;stroke-linecap:round;stroke-linejoin:round;" /><path d="M 1231.2,-0.0 L 1231.2,14.4 L 1222.2,14.4 L 1240.2,14.4 M 1224.9,18.72 L 1237.5,18.72 M 1229.4,23.04 L 1233.0,23.04" style="stroke:black;fill:none;stroke-width:2.0;stroke-dasharray:-;stroke-linecap:round;stroke-linejoin:round;" /><path d="M 1231.2,-108.0 L 1240.2,-108.0 L 1249.2,-108.0" style="stroke:black;fill:none;stroke-width:2.0;stroke-dasharray:-;stroke-linecap:round;stroke-linejoin:round;" /><path d="M 306.0,-0.0 L 315.0,-0.0 L 324.0,-0.0" style="stroke:black;fill:none;stroke-width:2.0;stroke-dasharray:-;stroke-linecap:round;stroke-linejoin:round;" /><path d="M 324.0,-0.0 L 360.0,-0.0 L 360.0,-9.0 L 396.0,-9.0 L 396.0,9.0 L 360.0,9.0 L 360.0,-0.0 M 396.0,-0.0 L 432.0,-0.0" style="stroke:black;fill:none;stroke-width:2.0;stroke-dasharray:-;stroke-linecap:round;stroke-linejoin:round;" /><path d="M 432.0,-0.0 L 435.59999999999997,-0.0 L 439.2,-0.0" style="stroke:black;fill:none;stroke-width:2.0;stroke-dasharray:-;stroke-linecap:round;stroke-linejoin:round;" /><path d="M 439.2,-0.0 L 475.2,-0.0 M 511.2,-0.0 L 547.1999999999999,-0.0" style="stroke:black;fill:none;stroke-width:2.0;stroke-dasharray:-;stroke-linecap:round;stroke-linejoin:round;" /><path d="M 547.1999999999999,-0.0 L 550.8,-0.0 L 554.4,-0.0" style="stroke:black;fill:none;stroke-width:2.0;stroke-dasharray:-;stroke-linecap:round;stroke-linejoin:round;" /><path d="M 554.4,-0.0 L 554.4,50.76 M 563.4,50.76 L 545.4,50.76 M 563.4,57.239999999999995 L 545.4,57.239999999999995 M 554.4,57.239999999999995 L 554.4,108.0" style="stroke:black;fill:none;stroke-width:2.0;stroke-dasharray:-;stroke-linecap:round;stroke-linejoin:round;" /><path d="M 554.4,108.0 L 554.4,122.39999999999999 L 545.4,122.39999999999999 L 563.4,122.39999999999999 M 548.0999999999999,126.72 L 560.6999999999999,126.72 M 552.5999999999999,131.04 L 556.1999999999999,131.04" style="stroke:black;fill:none;stroke-width:2.0;stroke-dasharray:-;stroke-linecap:round;stroke-linejoin:round;" /><path d="M 590.4,-0.0 L 595.8,-0.0 L 601.1999999999999,-0.0" style="stroke:black;fill:none;stroke-width:2.0;stroke-dasharray:-;stroke-linecap:round;stroke-linejoin:round;" /><path d="M 601.1999999999999,-0.0 L 651.96,-0.0 M 651.96,-9.0 L 651.96,9.0 M 658.4399999999999,-9.0 L 658.4399999999999,9.0 M 658.4399999999999,-0.0 L 709.1999999999999,-0.0" style="stroke:black;fill:none;stroke-width:2.0;stroke-dasharray:-;stroke-linecap:round;stroke-linejoin:round;" /><path d="M 709.1999999999999,-0.0 L 714.5999999999999,-0.0 L 720.0,-0.0" style="stroke:black;fill:none;stroke-width:2.0;stroke-dasharray:-;stroke-linecap:round;stroke-linejoin:round;" /><path d="M 720.0,-0.0 L 756.0,-0.0 L 756.0,-9.0 L 792.0,-9.0 L 792.0,9.0 L 756.0,9.0 L 756.0,-0.0 M 792.0,-0.0 L 828.0,-0.0" style="stroke:black;fill:none;stroke-width:2.0;stroke-dasharray:-;stroke-linecap:round;stroke-linejoin:round;" /><path d="M 828.0,-0.0 L 833.4,-0.0 L 838.8000000000001,-0.0" style="stroke:black;fill:none;stroke-width:2.0;stroke-dasharray:-;stroke-linecap:round;stroke-linejoin:round;" /><path d="M 838.8000000000001,-0.0 L 889.5600000000001,-0.0 M 889.5600000000001,-9.0 L 889.5600000000001,9.0 M 896.04,-9.0 L 896.04,9.0 M 896.04,-0.0 L 946.8000000000001,-0.0" style="stroke:black;fill:none;stroke-width:2.0;stroke-dasharray:-;stroke-linecap:round;stroke-linejoin:round;" /><path d="M 946.8000000000001,-0.0 L 952.1999999999999,-0.0 L 957.6,-0.0" style="stroke:black;fill:none;stroke-width:2.0;stroke-dasharray:-;stroke-linecap:round;stroke-linejoin:round;" /><path d="M 957.6,-0.0 L 957.6,50.76 M 966.6,50.76 L 948.6,50.76 M 966.6,57.239999999999995 L 948.6,57.239999999999995 M 957.6,57.239999999999995 L 957.6,108.0" style="stroke:black;fill:none;stroke-width:2.0;stroke-dasharray:-;stroke-linecap:round;stroke-linejoin:round;" /><path d="M 957.6,108.0 L 957.6,122.39999999999999 L 948.6,122.39999999999999 L 966.6,122.39999999999999 M 951.3000000000001,126.72 L 963.9000000000001,126.72 M 955.8000000000001,131.04 L 959.4000000000001,131.04" style="stroke:black;fill:none;stroke-width:2.0;stroke-dasharray:-;stroke-linecap:round;stroke-linejoin:round;" /><path d="M 993.6,-0.0 L 997.2,-0.0 L 1000.8000000000001,-0.0" style="stroke:black;fill:none;stroke-width:2.0;stroke-dasharray:-;stroke-linecap:round;stroke-linejoin:round;" /><path d="M 1000.8000000000001,-0.0 L 1036.8,-0.0 L 1039.8,-9.0 L 1045.8,9.0 L 1051.8000000000002,-9.0 L 1057.8,9.0 L 1063.8,-9.0 L 1069.8000000000002,9.0 L 1072.8,-0.0 L 1108.8,-0.0" style="stroke:black;fill:none;stroke-width:2.0;stroke-dasharray:-;stroke-linecap:round;stroke-linejoin:round;" /><path d="M 1108.8,-0.0 L 1112.4,-0.0 L 1116.0,-0.0" style="stroke:black;fill:none;stroke-width:2.0;stroke-dasharray:-;stroke-linecap:round;stroke-linejoin:round;" /><path d="M 1116.0,-0.0 L 1152.0,-0.0 L 1152.0,-9.0 L 1188.0,-9.0 L 1188.0,9.0 L 1152.0,9.0 L 1152.0,-0.0 M 1188.0,-0.0 L 1224.0,-0.0" style="stroke:black;fill:none;stroke-width:2.0;stroke-dasharray:-;stroke-linecap:round;stroke-linejoin:round;" /><path d="M 1152.0,-0.0 L 1188.0,-0.0" style="stroke:black;fill:none;stroke-width:2.0;stroke-dasharray:-;stroke-linecap:round;stroke-linejoin:round;" /><path d="M 1224.0,-0.0 L 1227.6000000000001,-0.0 L 1231.2,-0.0" style="stroke:black;fill:none;stroke-width:2.0;stroke-dasharray:-;stroke-linecap:round;stroke-linejoin:round;" /><path d="M 1231.2,-0.0 L 1231.2,47.699999999999996 M 1222.2,60.3 L 1240.2,60.3 M 1231.2,60.3 L 1231.2,108.0" style="stroke:black;fill:none;stroke-width:2.0;stroke-dasharray:-;stroke-linecap:round;stroke-linejoin:round;" /><path d="M 1222.2,60.3 L 1218.6000000000001,63.9" style="stroke:black;fill:none;stroke-width:2.0;stroke-dasharray:-;stroke-linecap:round;stroke-linejoin:round;" /><path d="M 1240.2,60.3 L 1243.8000000000002,56.699999999999996" style="stroke:black;fill:none;stroke-width:2.0;stroke-dasharray:-;stroke-linecap:round;stroke-linejoin:round;" /><path d="M 1231.2,108.0 L 1231.2,122.39999999999999 L 1222.2,122.39999999999999 L 1240.2,122.39999999999999 M 1224.9,126.72 L 1237.5,126.72 M 1229.4,131.04 L 1233.0,131.04" style="stroke:black;fill:none;stroke-width:2.0;stroke-dasharray:-;stroke-linecap:round;stroke-linejoin:round;" /><path d="M 1231.2,-0.0 L 1240.2,-0.0 L 1249.2,-0.0" style="stroke:black;fill:none;stroke-width:2.0;stroke-dasharray:-;stroke-linecap:round;stroke-linejoin:round;" /><path d="M 306.0,108.0 L 315.0,108.0 L 324.0,108.0" style="stroke:black;fill:none;stroke-width:2.0;stroke-dasharray:-;stroke-linecap:round;stroke-linejoin:round;" /><path d="M 324.0,108.0 L 360.0,108.0 L 360.0,99.0 L 396.0,99.0 L 396.0,117.0 L 360.0,117.0 L 360.0,108.0 M 396.0,108.0 L 432.0,108.0" style="stroke:black;fill:none;stroke-width:2.0;stroke-dasharray:-;stroke-linecap:round;stroke-linejoin:round;" /><path d="M 432.0,108.0 L 435.59999999999997,108.0 L 439.2,108.0" style="stroke:black;fill:none;stroke-width:2.0;stroke-dasharray:-;stroke-linecap:round;stroke-linejoin:round;" /><path d="M 439.2,108.0 L 439.2,158.76 M 448.2,158.76 L 430.2,158.76 M 448.2,165.24 L 430.2,165.24 M 439.2,165.24 L 439.2,216.0" style="stroke:black;fill:none;stroke-width:2.0;stroke-dasharray:-;stroke-linecap:round;stroke-linejoin:round;" /><path d="M 439.2,216.0 L 439.2,230.4 L 430.2,230.4 L 448.2,230.4 M 432.9,234.71999999999997 L 445.5,234.71999999999997 M 437.4,239.04 L 441.0,239.04" style="stroke:black;fill:none;stroke-width:2.0;stroke-dasharray:-;stroke-linecap:round;stroke-linejoin:round;" /><path d="M 457.2,108.0 L 466.2,108.0 L 475.2,108.0" style="stroke:black;fill:none;stroke-width:2.0;stroke-dasharray:-;stroke-linecap:round;stroke-linejoin:round;" /><path d="M 475.2,108.0 L 511.2,108.0 L 511.2,99.0 L 547.1999999999999,99.0 L 547.1999999999999,117.0 L 511.2,117.0 L 511.2,108.0 M 547.1999999999999,108.0 L 583.1999999999999,108.0" style="stroke:black;fill:none;stroke-width:2.0;stroke-dasharray:-;stroke-linecap:round;stroke-linejoin:round;" /><path d="M 583.1999999999999,108.0 L 586.8000000000001,108.0 L 590.4,108.0" style="stroke:black;fill:none;stroke-width:2.0;stroke-dasharray:-;stroke-linecap:round;stroke-linejoin:round;" /><path d="M 590.4,108.0 L 626.4,108.0 M 662.4,108.0 L 698.4,108.0" style="stroke:black;fill:none;stroke-width:2.0;stroke-dasharray:-;stroke-linecap:round;stroke-linejoin:round;" /><path d="M 698.4,108.0 L 702.0,108.0 L 705.5999999999999,108.0" style="stroke:black;fill:none;stroke-width:2.0;stroke-dasharray:-;stroke-linecap:round;stroke-linejoin:round;" /><path d="M 705.5999999999999,108.0 L 705.5999999999999,158.76 M 714.5999999999999,158.76 L 696.5999999999999,158.76 M 714.5999999999999,165.24 L 696.5999999999999,165.24 M 705.5999999999999,165.24 L 705.5999999999999,216.0" style="stroke:black;fill:none;stroke-width:2.0;stroke-dasharray:-;stroke-linecap:round;stroke-linejoin:round;" /><path d="M 705.5999999999999,216.0 L 705.5999999999999,230.4 L 696.5999999999999,230.4 L 714.5999999999999,230.4 M 699.3,234.71999999999997 L 711.9,234.71999999999997 M 703.8,239.04 L 707.4,239.04" style="stroke:black;fill:none;stroke-width:2.0;stroke-dasharray:-;stroke-linecap:round;stroke-linejoin:round;" /><path d="M 741.5999999999999,108.0 L 746.9999999999999,108.0 L 752.4,108.0" style="stroke:black;fill:none;stroke-width:2.0;stroke-dasharray:-;stroke-linecap:round;stroke-linejoin:round;" /><path d="M 752.4,108.0 L 803.16,108.0 M 803.16,99.0 L 803.16,117.0 M 809.64,99.0 L 809.64,117.0 M 809.64,108.0 L 860.4,108.0" style="stroke:black;fill:none;stroke-width:2.0;stroke-dasharray:-;stroke-linecap:round;stroke-linejoin:round;" /><path d="M 860.4,108.0 L 865.8,108.0 L 871.1999999999999,108.0" style="stroke:black;fill:none;stroke-width:2.0;stroke-dasharray:-;stroke-linecap:round;stroke-linejoin:round;" /><path d="M 871.1999999999999,108.0 L 907.1999999999999,108.0 L 907.1999999999999,99.0 L 943.1999999999999,99.0 L 943.1999999999999,117.0 L 907.1999999999999,117.0 L 907.1999999999999,108.0 M 943.1999999999999,108.0 L 979.1999999999999,108.0" style="stroke:black;fill:none;stroke-width:2.0;stroke-dasharray:-;stroke-linecap:round;stroke-linejoin:round;" /><path d="M 979.1999999999999,108.0 L 984.5999999999999,108.0 L 990.0,108.0" style="stroke:black;fill:none;stroke-width:2.0;stroke-dasharray:-;stroke-linecap:round;stroke-linejoin:round;" /><path d="M 990.0,108.0 L 1040.76,108.0 M 1040.76,99.0 L 1040.76,117.0 M 1047.24,99.0 L 1047.24,117.0 M 1047.24,108.0 L 1098.0,108.0" style="stroke:black;fill:none;stroke-width:2.0;stroke-dasharray:-;stroke-linecap:round;stroke-linejoin:round;" /><path d="M 1098.0,108.0 L 1103.3999999999999,108.0 L 1108.8,108.0" style="stroke:black;fill:none;stroke-width:2.0;stroke-dasharray:-;stroke-linecap:round;stroke-linejoin:round;" /><path d="M 1108.8,108.0 L 1108.8,158.76 M 1117.8,158.76 L 1099.8,158.76 M 1117.8,165.24 L 1099.8,165.24 M 1108.8,165.24 L 1108.8,216.0" style="stroke:black;fill:none;stroke-width:2.0;stroke-dasharray:-;stroke-linecap:round;stroke-linejoin:round;" /><path d="M 1108.8,216.0 L 1108.8,230.4 L 1099.8,230.4 L 1117.8,230.4 M 1102.5,234.71999999999997 L 1115.1000000000001,234.71999999999997 M 1107.0,239.04 L 1110.6000000000001,239.04" style="stroke:black;fill:none;stroke-width:2.0;stroke-dasharray:-;stroke-linecap:round;stroke-linejoin:round;" /><path d="M 1144.8,108.0 L 1148.4,108.0 L 1152.0,108.0" style="stroke:black;fill:none;stroke-width:2.0;stroke-dasharray:-;stroke-linecap:round;stroke-linejoin:round;" /><path d="M 1152.0,108.0 L 1188.0,108.0 L 1191.0,99.0 L 1197.0,117.0 L 1203.0,99.0 L 1209.0,117.0 L 1215.0,99.0 L 1221.0,117.0 L 1224.0,108.0 L 1260.0,108.0" style="stroke:black;fill:none;stroke-width:2.0;stroke-dasharray:-;stroke-linecap:round;stroke-linejoin:round;" /><path d="M 1260.0,108.0 L 1263.6000000000001,108.0 L 1267.2,108.0" style="stroke:black;fill:none;stroke-width:2.0;stroke-dasharray:-;stroke-linecap:round;stroke-linejoin:round;" /><path d="M 1267.2,108.0 L 1303.2,108.0 L 1303.2,99.0 L 1339.2,99.0 L 1339.2,117.0 L 1303.2,117.0 L 1303.2,108.0 M 1339.2,108.0 L 1375.2,108.0" style="stroke:black;fill:none;stroke-width:2.0;stroke-dasharray:-;stroke-linecap:round;stroke-linejoin:round;" /><path d="M 1303.2,108.0 L 1339.2,108.0" style="stroke:black;fill:none;stroke-width:2.0;stroke-dasharray:-;stroke-linecap:round;stroke-linejoin:round;" /><path d="M 1375.2,108.0 L 1378.8000000000002,108.0 L 1382.4,108.0" style="stroke:black;fill:none;stroke-width:2.0;stroke-dasharray:-;stroke-linecap:round;stroke-linejoin:round;" /><path d="M 1382.4,108.0 L 1382.4,155.70000000000002 M 1391.4,168.29999999999998 L 1373.4,168.29999999999998 M 1382.4,168.29999999999998 L 1382.4,216.0" style="stroke:black;fill:none;stroke-width:2.0;stroke-dasharray:-;stroke-linecap:round;stroke-linejoin:round;" /><path d="M 1391.4,168.29999999999998 L 1395.0000000000002,171.9" style="stroke:black;fill:none;stroke-width:2.0;stroke-dasharray:-;stroke-linecap:round;stroke-linejoin:round;" /><path d="M 1373.4,168.29999999999998 L 1369.8000000000002,164.70000000000002" style="stroke:black;fill:none;stroke-width:2.0;stroke-dasharray:-;stroke-linecap:round;stroke-linejoin:round;" /><path d="M 1382.4,216.0 L 1382.4,230.4 L 1373.4,230.4 L 1391.4,230.4 M 1376.1000000000004,234.71999999999997 L 1388.7,234.71999999999997 M 1380.6000000000004,239.04 L 1384.2,239.04" style="stroke:black;fill:none;stroke-width:2.0;stroke-dasharray:-;stroke-linecap:round;stroke-linejoin:round;" /><path d="M 1382.4,108.0 L 1391.4,108.0 L 1400.4,108.0" style="stroke:black;fill:none;stroke-width:2.0;stroke-dasharray:-;stroke-linecap:round;stroke-linejoin:round;" /><path d="M 270.0,-108.0 L 270.0,-54.0 L 269.99999999999994,-0.0" style="stroke:black;fill:none;stroke-width:2.0;stroke-dasharray:-;stroke-linecap:round;stroke-linejoin:round;" /><path d="M 306.0,-0.0 L 306.0,54.0 L 306.0,108.0" style="stroke:black;fill:none;stroke-width:2.0;stroke-dasharray:-;stroke-linecap:round;stroke-linejoin:round;" /><text x="3.6" y="-15.6" dominant-baseline="ideographic" fill="black" font-size="12" font-family="sans" text-anchor="middle"><tspan x="3.6" dy="12">USB-PD Modular Synthesizer Power Supply - Complete Circuit</tspan></text><text x="21.6" y="-69.0" dominant-baseline="central" fill="black" font-size="10" font-family="sans" text-anchor="start"><tspan x="21.6" dy="10">USB-C</tspan><tspan x="21.6" dy="10">15V PD</tspan></text><text x="72.0" y="-105.39999999999999" dominant-baseline="hanging" fill="black" font-size="10" font-family="sans" text-anchor="middle"><tspan x="72.0" dy="10">10µF</tspan></text><text x="198.0" y="-150.60000000000002" dominant-baseline="ideographic" fill="black" font-size="10" font-family="sans" text-anchor="middle"><tspan x="198.0" dy="10">CH224D</tspan><tspan x="198.0" dy="10">PD Controller</tspan><tspan x="198.0" dy="10">CFG: 15V</tspan></text><text x="270.0" y="-121.60000000000001" dominant-baseline="ideographic" fill="black" font-size="10" font-family="sans" text-anchor="middle"><tspan x="270.0" dy="10">10µF</tspan></text><text x="378.0" y="-150.60000000000002" dominant-baseline="ideographic" fill="black" font-size="10" font-family="sans" text-anchor="middle"><tspan x="378.0" dy="10">LM2596S-ADJ #1</tspan><tspan x="378.0" dy="10">Buck Converter</tspan><tspan x="378.0" dy="10">R1=2.2k, R2=10k</tspan></text><text x="493.2" y="-126.09997770431488" dominant-baseline="ideographic" fill="black" font-size="10" font-family="sans" text-anchor="middle"><tspan x="493.2" dy="10">33µH</tspan></text><text x="554.4" y="-121.60000000000001" dominant-baseline="ideographic" fill="black" font-size="10" font-family="sans" text-anchor="middle"><tspan x="554.4" dy="10">220µF</tspan></text><text x="655.1999999999999" y="-130.60000000000002" dominant-baseline="ideographic" fill="black" font-size="10" font-family="sans" text-anchor="middle"><tspan x="655.1999999999999" dy="10">0.33µF</tspan></text><text x="774.0" y="-140.60000000000002" dominant-baseline="ideographic" fill="black" font-size="10" font-family="sans" text-anchor="middle"><tspan x="774.0" dy="10">L7812CV</tspan><tspan x="774.0" dy="10">+12V LDO</tspan></text><text x="892.8000000000001" y="-130.60000000000002" dominant-baseline="ideographic" fill="black" font-size="10" font-family="sans" text-anchor="middle"><tspan x="892.8000000000001" dy="10">0.1µF</tspan></text><text x="957.6" y="-121.60000000000001" dominant-baseline="ideographic" fill="black" font-size="10" font-family="sans" text-anchor="middle"><tspan x="957.6" dy="10">470µF</tspan></text><text x="1054.8" y="-140.60000000000002" dominant-baseline="ideographic" fill="black" font-size="10" font-family="sans" text-anchor="middle"><tspan x="1054.8" dy="10">PTC</tspan><tspan x="1054.8" dy="10">1.1A</tspan></text><text x="1170.0" y="-140.60000000000002" dominant-baseline="ideographic" fill="black" font-size="10" font-family="sans" text-anchor="middle"><tspan x="1170.0" dy="10">F1</tspan><tspan x="1170.0" dy="10">2A</tspan></text><text x="1231.2" y="-121.60000000000001" dominant-baseline="ideographic" fill="black" font-size="10" font-family="sans" text-anchor="middle"><tspan x="1231.2" dy="10">SMAJ15A</tspan></text><text x="378.0" y="-42.6" dominant-baseline="ideographic" fill="black" font-size="10" font-family="sans" text-anchor="middle"><tspan x="378.0" dy="10">LM2596S-ADJ #2</tspan><tspan x="378.0" dy="10">Buck Converter</tspan><tspan x="378.0" dy="10">R3=1k, R4=10k</tspan></text><text x="493.2" y="-18.099977704314878" dominant-baseline="ideographic" fill="black" font-size="10" font-family="sans" text-anchor="middle"><tspan x="493.2" dy="10">33µH</tspan></text><text x="554.4" y="-13.600000000000003" dominant-baseline="ideographic" fill="black" font-size="10" font-family="sans" text-anchor="middle"><tspan x="554.4" dy="10">220µF</tspan></text><text x="655.1999999999999" y="-22.6" dominant-baseline="ideographic" fill="black" font-size="10" font-family="sans" text-anchor="middle"><tspan x="655.1999999999999" dy="10">0.33µF</tspan></text><text x="774.0" y="-32.6" dominant-baseline="ideographic" fill="black" font-size="10" font-family="sans" text-anchor="middle"><tspan x="774.0" dy="10">L7805ABD2T</tspan><tspan x="774.0" dy="10">+5V LDO</tspan></text><text x="892.8000000000001" y="-22.6" dominant-baseline="ideographic" fill="black" font-size="10" font-family="sans" text-anchor="middle"><tspan x="892.8000000000001" dy="10">0.1µF</tspan></text><text x="957.6" y="-13.600000000000003" dominant-baseline="ideographic" fill="black" font-size="10" font-family="sans" text-anchor="middle"><tspan x="957.6" dy="10">470µF</tspan></text><text x="1054.8" y="-32.6" dominant-baseline="ideographic" fill="black" font-size="10" font-family="sans" text-anchor="middle"><tspan x="1054.8" dy="10">PTC</tspan><tspan x="1054.8" dy="10">0.75A</tspan></text><text x="1170.0" y="-32.6" dominant-baseline="ideographic" fill="black" font-size="10" font-family="sans" text-anchor="middle"><tspan x="1170.0" dy="10">F2</tspan><tspan x="1170.0" dy="10">1.5A</tspan></text><text x="1231.2" y="-13.600000000000003" dominant-baseline="ideographic" fill="black" font-size="10" font-family="sans" text-anchor="middle"><tspan x="1231.2" dy="10">PRTR5V0U2X</tspan></text><text x="378.0" y="65.39999999999999" dominant-baseline="ideographic" fill="black" font-size="10" font-family="sans" text-anchor="middle"><tspan x="378.0" dy="10">ICL7660M</tspan><tspan x="378.0" dy="10">Voltage Inverter</tspan><tspan x="378.0" dy="10">C+=C-=10µF</tspan></text><text x="439.2" y="94.39999999999999" dominant-baseline="ideographic" fill="black" font-size="10" font-family="sans" text-anchor="middle"><tspan x="439.2" dy="10">10µF</tspan></text><text x="529.1999999999999" y="65.39999999999999" dominant-baseline="ideographic" fill="black" font-size="10" font-family="sans" text-anchor="middle"><tspan x="529.1999999999999" dy="10">LM2596S-ADJ #3</tspan><tspan x="529.1999999999999" dy="10">Buck Converter</tspan><tspan x="529.1999999999999" dy="10">R5=2.2k, R6=10k</tspan></text><text x="644.4" y="89.90002229568512" dominant-baseline="ideographic" fill="black" font-size="10" font-family="sans" text-anchor="middle"><tspan x="644.4" dy="10">33µH</tspan></text><text x="705.5999999999999" y="94.39999999999999" dominant-baseline="ideographic" fill="black" font-size="10" font-family="sans" text-anchor="middle"><tspan x="705.5999999999999" dy="10">220µF</tspan></text><text x="806.4" y="85.39999999999999" dominant-baseline="ideographic" fill="black" font-size="10" font-family="sans" text-anchor="middle"><tspan x="806.4" dy="10">0.33µF</tspan></text><text x="925.1999999999999" y="75.39999999999999" dominant-baseline="ideographic" fill="black" font-size="10" font-family="sans" text-anchor="middle"><tspan x="925.1999999999999" dy="10">CJ7912</tspan><tspan x="925.1999999999999" dy="10">-12V LDO</tspan></text><text x="1044.0" y="85.39999999999999" dominant-baseline="ideographic" fill="black" font-size="10" font-family="sans" text-anchor="middle"><tspan x="1044.0" dy="10">0.1µF</tspan></text><text x="1108.8" y="94.39999999999999" dominant-baseline="ideographic" fill="black" font-size="10" font-family="sans" text-anchor="middle"><tspan x="1108.8" dy="10">470µF</tspan></text><text x="1206.0" y="75.39999999999999" dominant-baseline="ideographic" fill="black" font-size="10" font-family="sans" text-anchor="middle"><tspan x="1206.0" dy="10">PTC</tspan><tspan x="1206.0" dy="10">0.9A</tspan></text><text x="1321.2" y="75.39999999999999" dominant-baseline="ideographic" fill="black" font-size="10" font-family="sans" text-anchor="middle"><tspan x="1321.2" dy="10">F3</tspan><tspan x="1321.2" dy="10">1.5A</tspan></text><text x="1382.4" y="94.39999999999999" dominant-baseline="ideographic" fill="black" font-size="10" font-family="sans" text-anchor="middle"><tspan x="1382.4" dy="10">SMAJ15CA</tspan></text><text x="75.60000000000001" y="-77.39999999999999" dominant-baseline="central" fill="purple" font-size="9" font-family="sans" text-anchor="middle"><tspan x="75.60000000000001" dy="9">STAGE 1</tspan></text><text x="75.60000000000001" y="-65.6" dominant-baseline="central" fill="black" font-size="8" font-family="sans" text-anchor="middle"><tspan x="75.60000000000001" dy="8">USB-PD</tspan></text><text x="255.6" y="-77.39999999999999" dominant-baseline="central" fill="green" font-size="9" font-family="sans" text-anchor="middle"><tspan x="255.6" dy="9">STAGE 2</tspan></text><text x="255.6" y="-65.6" dominant-baseline="central" fill="black" font-size="8" font-family="sans" text-anchor="middle"><tspan x="255.6" dy="8">DC-DC</tspan></text><text x="471.59999999999997" y="-77.39999999999999" dominant-baseline="central" fill="orange" font-size="9" font-family="sans" text-anchor="middle"><tspan x="471.59999999999997" dy="9">STAGE 3</tspan></text><text x="471.59999999999997" y="-65.6" dominant-baseline="central" fill="black" font-size="8" font-family="sans" text-anchor="middle"><tspan x="471.59999999999997" dy="8">Linear Reg</tspan></text><text x="651.6" y="-77.39999999999999" dominant-baseline="central" fill="red" font-size="9" font-family="sans" text-anchor="middle"><tspan x="651.6" dy="9">STAGE 4</tspan></text><text x="651.6" y="-65.6" dominant-baseline="central" fill="black" font-size="8" font-family="sans" text-anchor="middle"><tspan x="651.6" dy="8">Protection</tspan></text><circle cx="270.0" cy="-108.0" r="2.6999999999999997" style="stroke:black;fill:black;stroke-width:2.0;stroke-dasharray:-;" /><text x="270.0" y="-124.3" dominant-baseline="ideographic" fill="black" font-size="10" font-family="sans" text-anchor="middle"><tspan x="270.0" dy="10">+15V</tspan></text><circle cx="554.4" cy="-108.0" r="2.6999999999999997" style="stroke:black;fill:black;stroke-width:2.0;stroke-dasharray:-;" /><text x="554.4" y="-124.3" dominant-baseline="ideographic" fill="black" font-size="10" font-family="sans" text-anchor="middle"><tspan x="554.4" dy="10">+13.5V</tspan></text><circle cx="957.6" cy="-108.0" r="2.6999999999999997" style="stroke:black;fill:black;stroke-width:2.0;stroke-dasharray:-;" /><text x="957.6" y="-124.3" dominant-baseline="ideographic" fill="black" font-size="10" font-family="sans" text-anchor="middle"><tspan x="957.6" dy="10">+12V</tspan></text><circle cx="1231.2" cy="-108.0" r="2.6999999999999997" style="stroke:black;fill:black;stroke-width:2.0;stroke-dasharray:-;" /><circle cx="1249.2" cy="-108.0" r="2.6999999999999997" style="stroke:black;fill:black;stroke-width:2.0;stroke-dasharray:-;" /><text x="1249.2" y="-147.3" dominant-baseline="ideographic" fill="blue" font-size="11" font-family="sans" text-anchor="middle"><tspan x="1249.2" dy="11">+12V</tspan><tspan x="1249.2" dy="11">OUT</tspan><tspan x="1249.2" dy="11">1.2A</tspan></text><circle cx="306.0" cy="-0.0" r="2.6999999999999997" style="stroke:black;fill:black;stroke-width:2.0;stroke-dasharray:-;" /><circle cx="554.4" cy="-0.0" r="2.6999999999999997" style="stroke:black;fill:black;stroke-width:2.0;stroke-dasharray:-;" /><text x="554.4" y="-16.3" dominant-baseline="ideographic" fill="black" font-size="10" font-family="sans" text-anchor="middle"><tspan x="554.4" dy="10">+7.5V</tspan></text><circle cx="957.6" cy="-0.0" r="2.6999999999999997" style="stroke:black;fill:black;stroke-width:2.0;stroke-dasharray:-;" /><text x="957.6" y="-16.3" dominant-baseline="ideographic" fill="black" font-size="10" font-family="sans" text-anchor="middle"><tspan x="957.6" dy="10">+5V</tspan></text><circle cx="1231.2" cy="-0.0" r="2.6999999999999997" style="stroke:black;fill:black;stroke-width:2.0;stroke-dasharray:-;" /><circle cx="1249.2" cy="-0.0" r="2.6999999999999997" style="stroke:black;fill:black;stroke-width:2.0;stroke-dasharray:-;" /><text x="1249.2" y="-39.3" dominant-baseline="ideographic" fill="blue" font-size="11" font-family="sans" text-anchor="middle"><tspan x="1249.2" dy="11">+5V</tspan><tspan x="1249.2" dy="11">OUT</tspan><tspan x="1249.2" dy="11">0.5A</tspan></text><circle cx="306.0" cy="108.0" r="2.6999999999999997" style="stroke:black;fill:black;stroke-width:2.0;stroke-dasharray:-;" /><circle cx="439.2" cy="108.0" r="2.6999999999999997" style="stroke:black;fill:black;stroke-width:2.0;stroke-dasharray:-;" /><text x="439.2" y="91.7" dominant-baseline="ideographic" fill="black" font-size="10" font-family="sans" text-anchor="middle"><tspan x="439.2" dy="10">-15V</tspan></text><circle cx="705.5999999999999" cy="108.0" r="2.6999999999999997" style="stroke:black;fill:black;stroke-width:2.0;stroke-dasharray:-;" /><text x="705.5999999999999" y="91.7" dominant-baseline="ideographic" fill="black" font-size="10" font-family="sans" text-anchor="middle"><tspan x="705.5999999999999" dy="10">-13.5V</tspan></text><circle cx="1108.8" cy="108.0" r="2.6999999999999997" style="stroke:black;fill:black;stroke-width:2.0;stroke-dasharray:-;" /><text x="1108.8" y="91.7" dominant-baseline="ideographic" fill="black" font-size="10" font-family="sans" text-anchor="middle"><tspan x="1108.8" dy="10">-12V</tspan></text><circle cx="1382.4" cy="108.0" r="2.6999999999999997" style="stroke:black;fill:black;stroke-width:2.0;stroke-dasharray:-;" /><circle cx="1400.4" cy="108.0" r="2.6999999999999997" style="stroke:black;fill:black;stroke-width:2.0;stroke-dasharray:-;" /><text x="1400.4" y="68.7" dominant-baseline="ideographic" fill="blue" font-size="11" font-family="sans" text-anchor="middle"><tspan x="1400.4" dy="11">-12V</tspan><tspan x="1400.4" dy="11">OUT</tspan><tspan x="1400.4" dy="11">0.8A</tspan></text></svg>