<svg xmlns="http://www.w3.org/2000/svg" xmlns:xlink="http://www.w3.org/1999/xlink" xml:lang="en" height="682.9399999999999pt" width="857.333pt" viewBox="-4.6 -601.3 857.333 682.9399999999999"><polygon points="675.9000000000001,-117.0 663.3000000000001,-126.0 675.9000000000001,-135.0 " style="stroke:black;fill:none;stroke-width:2.0;stroke-dasharray:-;stroke-linecap:round;stroke-linejoin:round;" /><path d="M 0.0,-0.0 L 108.0,-0.0 L 108.0,-432.0 L 0.0,-432.0 L 0.0,-0.0" style="stroke:black;fill:none;stroke-width:2.0;stroke-dasharray:-;stroke-linecap:round;stroke-linejoin:round;" /><path d="M 108.0,-18.0 L 144.0,-18.0" style="stroke:black;fill:none;stroke-width:2.0;stroke-dasharray:-;stroke-linecap:round;stroke-linejoin:round;" /><path d="M 108.0,-74.57142857142856 L 144.0,-74.57142857142856" style="stroke:black;fill:none;stroke-width:2.0;stroke-dasharray:-;stroke-linecap:round;stroke-linejoin:round;" /><path d="M 108.0,-187.71428571428572 L 144.0,-187.71428571428572" style="stroke:black;fill:none;stroke-width:2.0;stroke-dasharray:-;stroke-linecap:round;stroke-linejoin:round;" /><path d="M 108.0,-244.28571428571428 L 144.0,-244.28571428571428" style="stroke:black;fill:none;stroke-width:2.0;stroke-dasharray:-;stroke-linecap:round;stroke-linejoin:round;" /><path d="M 108.0,-357.42857142857144 L 144.0,-357.42857142857144" style="stroke:black;fill:none;stroke-width:2.0;stroke-dasharray:-;stroke-linecap:round;stroke-linejoin:round;" /><path d="M 108.0,-414.0 L 144.0,-414.0" style="stroke:black;fill:none;stroke-width:2.0;stroke-dasharray:-;stroke-linecap:round;stroke-linejoin:round;" /><path d="M 432.0,-0.0 L 576.0,-0.0 L 576.0,-432.0 L 432.0,-432.0 L 432.0,-0.0" style="stroke:black;fill:none;stroke-width:2.0;stroke-dasharray:-;stroke-linecap:round;stroke-linejoin:round;" /><path d="M 432.0,-74.57142857142856 L 396.0,-74.57142857142856" style="stroke:black;fill:none;stroke-width:2.0;stroke-dasharray:-;stroke-linecap:round;stroke-linejoin:round;" /><path d="M 432.0,-187.71428571428572 L 396.0,-187.71428571428572" style="stroke:black;fill:none;stroke-width:2.0;stroke-dasharray:-;stroke-linecap:round;stroke-linejoin:round;" /><path d="M 432.0,-244.28571428571428 L 396.0,-244.28571428571428" style="stroke:black;fill:none;stroke-width:2.0;stroke-dasharray:-;stroke-linecap:round;stroke-linejoin:round;" /><path d="M 432.0,-414.0 L 396.0,-414.0" style="stroke:black;fill:none;stroke-width:2.0;stroke-dasharray:-;stroke-linecap:round;stroke-linejoin:round;" /><path d="M 576.0,-414.0 L 612.0,-414.0" style="stroke:black;fill:none;stroke-width:2.0;stroke-dasharray:-;stroke-linecap:round;stroke-linejoin:round;" /><path d="M 576.0,-378.0 L 612.0,-378.0" style="stroke:black;fill:none;stroke-width:2.0;stroke-dasharray:-;stroke-linecap:round;stroke-linejoin:round;" /><path d="M 576.0,-342.0 L 612.0,-342.0" style="stroke:black;fill:none;stroke-width:2.0;stroke-dasharray:-;stroke-linecap:round;stroke-linejoin:round;" /><path d="M 576.0,-306.0 L 612.0,-306.0" style="stroke:black;fill:none;stroke-width:2.0;stroke-dasharray:-;stroke-linecap:round;stroke-linejoin:round;" /><path d="M 576.0,-270.0 L 612.0,-270.0" style="stroke:black;fill:none;stroke-width:2.0;stroke-dasharray:-;stroke-linecap:round;stroke-linejoin:round;" /><path d="M 576.0,-234.0 L 612.0,-234.0" style="stroke:black;fill:none;stroke-width:2.0;stroke-dasharray:-;stroke-linecap:round;stroke-linejoin:round;" /><path d="M 576.0,-198.0 L 612.0,-198.0" style="stroke:black;fill:none;stroke-width:2.0;stroke-dasharray:-;stroke-linecap:round;stroke-linejoin:round;" /><path d="M 576.0,-162.0 L 612.0,-162.0" style="stroke:black;fill:none;stroke-width:2.0;stroke-dasharray:-;stroke-linecap:round;stroke-linejoin:round;" /><path d="M 576.0,-126.0 L 612.0,-126.0" style="stroke:black;fill:none;stroke-width:2.0;stroke-dasharray:-;stroke-linecap:round;stroke-linejoin:round;" /><path d="M 576.0,-90.0 L 612.0,-90.0" style="stroke:black;fill:none;stroke-width:2.0;stroke-dasharray:-;stroke-linecap:round;stroke-linejoin:round;" /><path d="M 576.0,-54.0 L 612.0,-54.0" style="stroke:black;fill:none;stroke-width:2.0;stroke-dasharray:-;stroke-linecap:round;stroke-linejoin:round;" /><path d="M 576.0,-18.0 L 612.0,-18.0" style="stroke:black;fill:none;stroke-width:2.0;stroke-dasharray:-;stroke-linecap:round;stroke-linejoin:round;" /><path d="M 144.0,-414.0 L 180.0,-414.0 L 216.0,-414.0" style="stroke:black;fill:none;stroke-width:2.0;stroke-dasharray:-;stroke-linecap:round;stroke-linejoin:round;" /><path d="M 216.0,-414.0 L 216.0,-412.2 L 216.0,-410.40000000000003" style="stroke:black;fill:none;stroke-width:2.0;stroke-dasharray:-;stroke-linecap:round;stroke-linejoin:round;" /><path d="M 216.0,-410.40000000000003 L 216.0,-359.64 M 225.0,-359.64 L 207.0,-359.64 M 225.0,-353.16 L 207.0,-353.16 M 216.0,-353.16 L 215.99999999999997,-302.40000000000003" style="stroke:black;fill:none;stroke-width:2.0;stroke-dasharray:-;stroke-linecap:round;stroke-linejoin:round;" /><path d="M 215.99999999999997,-302.40000000000003 L 215.99999999999997,-288.0 L 206.99999999999997,-288.0 L 224.99999999999997,-288.0 M 209.7,-283.68 L 222.29999999999995,-283.68 M 214.2,-279.36 L 217.79999999999995,-279.36" style="stroke:black;fill:none;stroke-width:2.0;stroke-dasharray:-;stroke-linecap:round;stroke-linejoin:round;" /><path d="M 216.0,-414.0 L 252.0,-414.0 L 288.0,-414.0" style="stroke:black;fill:none;stroke-width:2.0;stroke-dasharray:-;stroke-linecap:round;stroke-linejoin:round;" /><path d="M 288.0,-414.0 L 288.0,-412.2 L 288.0,-410.40000000000003" style="stroke:black;fill:none;stroke-width:2.0;stroke-dasharray:-;stroke-linecap:round;stroke-linejoin:round;" /><path d="M 288.0,-410.40000000000003 L 288.0,-359.64 M 297.0,-359.64 L 279.0,-359.64 M 297.0,-353.16 L 279.0,-353.16 M 288.0,-353.16 L 287.99999999999994,-302.40000000000003" style="stroke:black;fill:none;stroke-width:2.0;stroke-dasharray:-;stroke-linecap:round;stroke-linejoin:round;" /><path d="M 287.99999999999994,-302.40000000000003 L 287.99999999999994,-288.0 L 278.99999999999994,-288.0 L 297.0,-288.0 M 281.7,-283.68 L 294.29999999999995,-283.68 M 286.2,-279.36 L 289.79999999999995,-279.36" style="stroke:black;fill:none;stroke-width:2.0;stroke-dasharray:-;stroke-linecap:round;stroke-linejoin:round;" /><path d="M 288.0,-414.0 L 324.0,-414.0 L 360.0,-414.0" style="stroke:black;fill:none;stroke-width:2.0;stroke-dasharray:-;stroke-linecap:round;stroke-linejoin:round;" /><path d="M 360.0,-414.0 L 360.0,-504.0 L 360.0,-594.0" style="stroke:black;fill:none;stroke-width:2.0;stroke-dasharray:-;stroke-linecap:round;stroke-linejoin:round;" /><path d="M 360.0,-414.0 L 378.0,-414.0 L 396.0,-414.0" style="stroke:black;fill:none;stroke-width:2.0;stroke-dasharray:-;stroke-linecap:round;stroke-linejoin:round;" /><path d="M 144.0,-357.42857142857144 L 144.0,-385.7142857142858 L 144.0,-414.0" style="stroke:black;fill:none;stroke-width:2.0;stroke-dasharray:-;stroke-linecap:round;stroke-linejoin:round;" /><path d="M 144.0,-74.57142857142856 L 252.0,-74.57142857142856 L 360.0,-74.57142857142856" style="stroke:black;fill:none;stroke-width:2.0;stroke-dasharray:-;stroke-linecap:round;stroke-linejoin:round;" /><path d="M 360.0,-74.57142857142856 L 378.0,-74.57142857142856 L 396.0,-74.57142857142856" style="stroke:black;fill:none;stroke-width:2.0;stroke-dasharray:-;stroke-linecap:round;stroke-linejoin:round;" /><path d="M 360.0,-74.57142857142856 L 360.0,-56.57142857142856 L 360.0,-38.57142857142856" style="stroke:black;fill:none;stroke-width:2.0;stroke-dasharray:-;stroke-linecap:round;stroke-linejoin:round;" /><path d="M 360.0,-38.57142857142856 L 360.0,-24.17142857142856 L 351.0,-24.17142857142856 L 369.0,-24.17142857142856 M 353.7,-19.851428571428563 L 366.3,-19.851428571428563 M 358.2,-15.531428571428561 L 361.8,-15.531428571428561" style="stroke:black;fill:none;stroke-width:2.0;stroke-dasharray:-;stroke-linecap:round;stroke-linejoin:round;" /><path d="M 144.0,-18.0 L 144.0,-46.28571428571428 L 144.0,-74.57142857142856" style="stroke:black;fill:none;stroke-width:2.0;stroke-dasharray:-;stroke-linecap:round;stroke-linejoin:round;" /><path d="M 144.0,-244.28571428571428 L 216.0,-244.28571428571428 L 288.0,-244.28571428571428" style="stroke:black;fill:none;stroke-width:2.0;stroke-dasharray:-;stroke-linecap:round;stroke-linejoin:round;" /><path d="M 288.0,-244.28571428571428 L 288.0,-222.68571428571428 L 288.0,-201.0857142857143" style="stroke:black;fill:none;stroke-width:2.0;stroke-dasharray:-;stroke-linecap:round;stroke-linejoin:round;" /><path d="M 288.0,-201.0857142857143 L 288.0,-159.68571428571425 L 294.29999999999995,-157.5857142857143 L 281.7,-153.38571428571427 L 294.29999999999995,-149.18571428571428 L 281.7,-144.98571428571427 L 294.29999999999995,-140.78571428571428 L 281.7,-136.5857142857143 L 288.0,-134.4857142857143 L 287.99999999999994,-93.08571428571429" style="stroke:black;fill:none;stroke-width:2.0;stroke-dasharray:-;stroke-linecap:round;stroke-linejoin:round;" /><path d="M 287.99999999999994,-93.08571428571429 L 287.99999999999994,-91.28571428571429 L 287.99999999999994,-89.4857142857143" style="stroke:black;fill:none;stroke-width:2.0;stroke-dasharray:-;stroke-linecap:round;stroke-linejoin:round;" /><path d="M 287.99999999999994,-89.4857142857143 L 287.99999999999994,-75.08571428571429 L 278.99999999999994,-75.08571428571429 L 297.0,-75.08571428571429 M 281.7,-70.76571428571428 L 294.29999999999995,-70.76571428571428 M 286.2,-66.44571428571429 L 289.79999999999995,-66.44571428571429" style="stroke:black;fill:none;stroke-width:2.0;stroke-dasharray:-;stroke-linecap:round;stroke-linejoin:round;" /><path d="M 288.0,-244.28571428571428 L 342.0,-244.28571428571428 L 396.0,-244.28571428571428" style="stroke:black;fill:none;stroke-width:2.0;stroke-dasharray:-;stroke-linecap:round;stroke-linejoin:round;" /><path d="M 144.0,-187.71428571428572 L 180.0,-187.71428571428572 L 216.0,-187.71428571428572" style="stroke:black;fill:none;stroke-width:2.0;stroke-dasharray:-;stroke-linecap:round;stroke-linejoin:round;" /><path d="M 216.0,-187.71428571428572 L 216.0,-178.71428571428572 L 216.0,-169.71428571428572" style="stroke:black;fill:none;stroke-width:2.0;stroke-dasharray:-;stroke-linecap:round;stroke-linejoin:round;" /><path d="M 216.0,-169.71428571428572 L 216.0,-128.31428571428572 L 222.29999999999998,-126.21428571428572 L 209.70000000000002,-122.0142857142857 L 222.29999999999998,-117.81428571428573 L 209.7,-113.61428571428571 L 222.29999999999998,-109.41428571428573 L 209.7,-105.21428571428574 L 216.0,-103.11428571428573 L 215.99999999999997,-61.71428571428574" style="stroke:black;fill:none;stroke-width:2.0;stroke-dasharray:-;stroke-linecap:round;stroke-linejoin:round;" /><path d="M 215.99999999999997,-61.71428571428574 L 215.99999999999997,-59.91428571428573 L 215.99999999999997,-58.11428571428573" style="stroke:black;fill:none;stroke-width:2.0;stroke-dasharray:-;stroke-linecap:round;stroke-linejoin:round;" /><path d="M 215.99999999999997,-58.11428571428573 L 215.99999999999997,-43.71428571428574 L 206.99999999999997,-43.71428571428574 L 224.99999999999997,-43.71428571428574 M 209.7,-39.39428571428573 L 222.29999999999995,-39.39428571428573 M 214.2,-35.07428571428573 L 217.79999999999995,-35.07428571428573" style="stroke:black;fill:none;stroke-width:2.0;stroke-dasharray:-;stroke-linecap:round;stroke-linejoin:round;" /><path d="M 216.0,-187.71428571428572 L 306.0,-187.71428571428572 L 396.0,-187.71428571428572" style="stroke:black;fill:none;stroke-width:2.0;stroke-dasharray:-;stroke-linecap:round;stroke-linejoin:round;" /><path d="M 612.0,-90.0 L 612.0,-72.0 L 612.0,-54.0" style="stroke:black;fill:none;stroke-width:2.0;stroke-dasharray:-;stroke-linecap:round;stroke-linejoin:round;" /><path d="M 612.0,-378.0 L 630.0,-378.0 L 648.0,-378.0" style="stroke:black;fill:none;stroke-width:2.0;stroke-dasharray:-;stroke-linecap:round;stroke-linejoin:round;" /><path d="M 648.0,-378.0 L 648.0,-396.0 L 648.0,-414.0" style="stroke:black;fill:none;stroke-width:2.0;stroke-dasharray:-;stroke-linecap:round;stroke-linejoin:round;" /><path d="M 648.0,-414.0 L 648.0,-428.40000000000003 L 639.0,-428.40000000000003 L 657.0,-428.40000000000003 M 641.6999999999999,-432.71999999999997 L 654.3000000000001,-432.71999999999997 M 646.1999999999999,-437.04 L 649.8000000000001,-437.04" style="stroke:black;fill:none;stroke-width:2.0;stroke-dasharray:-;stroke-linecap:round;stroke-linejoin:round;" /><path d="M 612.0,-306.0 L 612.0,-324.0 L 612.0,-342.0" style="stroke:black;fill:none;stroke-width:2.0;stroke-dasharray:-;stroke-linecap:round;stroke-linejoin:round;" /><path d="M 612.0,-306.0 L 648.0,-306.0 L 684.0,-306.0" style="stroke:black;fill:none;stroke-width:2.0;stroke-dasharray:-;stroke-linecap:round;stroke-linejoin:round;" /><path d="M 684.0,-306.0 L 684.0,-342.0 L 684.0,-378.0" style="stroke:black;fill:none;stroke-width:2.0;stroke-dasharray:-;stroke-linecap:round;stroke-linejoin:round;" /><path d="M 684.0,-378.0 L 684.0,-392.40000000000003 L 675.0,-392.40000000000003 L 693.0,-392.40000000000003 M 677.6999999999999,-396.71999999999997 L 690.3000000000001,-396.71999999999997 M 682.1999999999999,-401.04 L 685.8000000000001,-401.04" style="stroke:black;fill:none;stroke-width:2.0;stroke-dasharray:-;stroke-linecap:round;stroke-linejoin:round;" /><path d="M 612.0,-234.0 L 612.0,-252.0 L 612.0,-270.0" style="stroke:black;fill:none;stroke-width:2.0;stroke-dasharray:-;stroke-linecap:round;stroke-linejoin:round;" /><path d="M 612.0,-234.0 L 675.0,-234.0 L 738.0,-234.0" style="stroke:black;fill:none;stroke-width:2.0;stroke-dasharray:-;stroke-linecap:round;stroke-linejoin:round;" /><path d="M 738.0,-234.0 L 738.0,-275.40000000000003 L 731.6999999999999,-277.5 L 744.3000000000001,-281.7 L 731.6999999999999,-285.9 L 744.3000000000001,-290.1 L 731.6999999999999,-294.3 L 744.3000000000001,-298.5 L 738.0,-300.59999999999997 L 738.0,-342.0" style="stroke:black;fill:none;stroke-width:2.0;stroke-dasharray:-;stroke-linecap:round;stroke-linejoin:round;" /><path d="M 738.0,-342.0 L 738.0,-356.40000000000003 L 729.0,-356.40000000000003 L 747.0,-356.40000000000003 M 731.6999999999999,-360.71999999999997 L 744.3000000000001,-360.71999999999997 M 736.1999999999999,-365.04 L 739.8000000000001,-365.04" style="stroke:black;fill:none;stroke-width:2.0;stroke-dasharray:-;stroke-linecap:round;stroke-linejoin:round;" /><path d="M 612.0,-126.0 L 613.8000000000001,-126.0 L 615.6,-126.0" style="stroke:black;fill:none;stroke-width:2.0;stroke-dasharray:-;stroke-linecap:round;stroke-linejoin:round;" /><path d="M 615.6,-126.0 L 663.3000000000001,-126.0 M 663.3000000000001,-117.0 L 663.3000000000001,-135.0 M 675.9000000000001,-126.0 L 723.6,-126.0" style="stroke:black;fill:none;stroke-width:2.0;stroke-dasharray:-;stroke-linecap:round;stroke-linejoin:round;" /><path d="M 661.4722003561693,-148.9986493767039 L 666.9000000000001,-139.5" style="stroke:black;fill:none;stroke-width:2.0;stroke-dasharray:-;stroke-linecap:round;stroke-linejoin:round;" /><path d="M 658.8922778767137 -153.5135137157511 L 663.9727406054877 -150.42752951917157 L 658.9716601068508 -147.56976923423622 Z" style="stroke:black;fill:black;stroke-linecap:butt;stroke-linejoin:miter;" /><path d="M 669.5722003561692,-148.9986493767039 L 675.0,-139.5" style="stroke:black;fill:none;stroke-width:2.0;stroke-dasharray:-;stroke-linecap:round;stroke-linejoin:round;" /><path d="M 666.9922778767136 -153.5135137157511 L 672.0727406054876 -150.42752951917157 L 667.0716601068507 -147.56976923423622 Z" style="stroke:black;fill:black;stroke-linecap:butt;stroke-linejoin:miter;" /><path d="M 723.6,-126.0 L 765.0,-126.0 L 767.1,-132.29999999999998 L 771.3000000000001,-119.7 L 775.5,-132.29999999999998 L 779.7,-119.7 L 783.9000000000001,-132.29999999999998 L 788.1000000000001,-119.7 L 790.2,-126.0 L 831.6,-126.0" style="stroke:black;fill:none;stroke-width:2.0;stroke-dasharray:-;stroke-linecap:round;stroke-linejoin:round;" /><path d="M 612.0,-18.0 L 630.0,-18.0 L 648.0,-18.0" style="stroke:black;fill:none;stroke-width:2.0;stroke-dasharray:-;stroke-linecap:round;stroke-linejoin:round;" /><path d="M 648.0,-18.0 L 648.0,14.760000000000002 M 657.0,14.760000000000002 L 639.0,14.760000000000002 M 657.0,21.240000000000002 L 639.0,21.240000000000002 M 648.0,21.240000000000002 L 648.0,54.0" style="stroke:black;fill:none;stroke-width:2.0;stroke-dasharray:-;stroke-linecap:round;stroke-linejoin:round;" /><path d="M 648.0,54.0 L 648.0,68.39999999999999 L 639.0,68.39999999999999 L 657.0,68.39999999999999 M 641.6999999999999,72.72 L 654.3000000000001,72.72 M 646.1999999999999,77.04 L 649.8000000000001,77.04" style="stroke:black;fill:none;stroke-width:2.0;stroke-dasharray:-;stroke-linecap:round;stroke-linejoin:round;" /><text x="110.7" y="-31.7" dominant-baseline="ideographic" fill="black" font-size="11" font-family="Arial" text-anchor="start"><tspan x="110.7" dy="11">6</tspan></text><text x="102.60000000000001" y="-32.0" dominant-baseline="central" fill="black" font-size="14" font-family="Arial" text-anchor="end"><tspan x="102.60000000000001" dy="14">GND2</tspan></text><text x="110.7" y="-88.27142857142857" dominant-baseline="ideographic" fill="black" font-size="11" font-family="Arial" text-anchor="start"><tspan x="110.7" dy="11">5</tspan></text><text x="102.60000000000001" y="-88.57142857142856" dominant-baseline="central" fill="black" font-size="14" font-family="Arial" text-anchor="end"><tspan x="102.60000000000001" dy="14">GND1</tspan></text><text x="110.7" y="-201.4142857142857" dominant-baseline="ideographic" fill="black" font-size="11" font-family="Arial" text-anchor="start"><tspan x="110.7" dy="11">4</tspan></text><text x="102.60000000000001" y="-201.71428571428572" dominant-baseline="central" fill="black" font-size="14" font-family="Arial" text-anchor="end"><tspan x="102.60000000000001" dy="14">CC2</tspan></text><text x="110.7" y="-257.98571428571427" dominant-baseline="ideographic" fill="black" font-size="11" font-family="Arial" text-anchor="start"><tspan x="110.7" dy="11">3</tspan></text><text x="102.60000000000001" y="-258.2857142857143" dominant-baseline="central" fill="black" font-size="14" font-family="Arial" text-anchor="end"><tspan x="102.60000000000001" dy="14">CC1</tspan></text><text x="110.7" y="-371.12857142857143" dominant-baseline="ideographic" fill="black" font-size="11" font-family="Arial" text-anchor="start"><tspan x="110.7" dy="11">2</tspan></text><text x="102.60000000000001" y="-371.42857142857144" dominant-baseline="central" fill="black" font-size="14" font-family="Arial" text-anchor="end"><tspan x="102.60000000000001" dy="14">VBUS2</tspan></text><text x="110.7" y="-427.7" dominant-baseline="ideographic" fill="black" font-size="11" font-family="Arial" text-anchor="start"><tspan x="110.7" dy="11">1</tspan></text><text x="102.60000000000001" y="-428.0" dominant-baseline="central" fill="black" font-size="14" font-family="Arial" text-anchor="end"><tspan x="102.60000000000001" dy="14">VBUS1</tspan></text><text x="54.0" y="-291.0" dominant-baseline="central" fill="black" font-size="14" font-family="Arial" text-anchor="middle"><tspan x="54.0" dy="14">J1</tspan><tspan x="54.0" dy="14">USB-C</tspan></text><text x="429.3" y="-88.27142857142857" dominant-baseline="ideographic" fill="black" font-size="11" font-family="Arial" text-anchor="end"><tspan x="429.3" dy="11">0</tspan></text><text x="437.40000000000003" y="-88.57142857142856" dominant-baseline="central" fill="black" font-size="14" font-family="Arial" text-anchor="start"><tspan x="437.40000000000003" dy="14">GND</tspan></text><text x="429.3" y="-201.4142857142857" dominant-baseline="ideographic" fill="black" font-size="11" font-family="Arial" text-anchor="end"><tspan x="429.3" dy="11">10</tspan></text><text x="437.40000000000003" y="-201.71428571428572" dominant-baseline="central" fill="black" font-size="14" font-family="Arial" text-anchor="start"><tspan x="437.40000000000003" dy="14">CC2</tspan></text><text x="429.3" y="-257.98571428571427" dominant-baseline="ideographic" fill="black" font-size="11" font-family="Arial" text-anchor="end"><tspan x="429.3" dy="11">11</tspan></text><text x="437.40000000000003" y="-258.2857142857143" dominant-baseline="central" fill="black" font-size="14" font-family="Arial" text-anchor="start"><tspan x="437.40000000000003" dy="14">CC1</tspan></text><text x="429.3" y="-427.7" dominant-baseline="ideographic" fill="black" font-size="11" font-family="Arial" text-anchor="end"><tspan x="429.3" dy="11">2</tspan></text><text x="437.40000000000003" y="-428.0" dominant-baseline="central" fill="black" font-size="14" font-family="Arial" text-anchor="start"><tspan x="437.40000000000003" dy="14">VBUS</tspan></text><text x="578.6999999999999" y="-427.7" dominant-baseline="ideographic" fill="black" font-size="11" font-family="Arial" text-anchor="start"><tspan x="578.6999999999999" dy="11">5</tspan></text><text x="570.6" y="-428.0" dominant-baseline="central" fill="black" font-size="14" font-family="Arial" text-anchor="end"><tspan x="570.6" dy="14">GATE</tspan></text><text x="578.6999999999999" y="-391.7" dominant-baseline="ideographic" fill="black" font-size="11" font-family="Arial" text-anchor="start"><tspan x="578.6999999999999" dy="11">6</tspan></text><text x="570.6" y="-392.0" dominant-baseline="central" fill="black" font-size="14" font-family="Arial" text-anchor="end"><tspan x="570.6" dy="14">NMOS#</tspan></text><text x="578.6999999999999" y="-355.7" dominant-baseline="ideographic" fill="black" font-size="11" font-family="Arial" text-anchor="start"><tspan x="578.6999999999999" dy="11">14</tspan></text><text x="570.6" y="-356.0" dominant-baseline="central" fill="black" font-size="14" font-family="Arial" text-anchor="end"><tspan x="570.6" dy="14">ISP</tspan></text><text x="578.6999999999999" y="-319.7" dominant-baseline="ideographic" fill="black" font-size="11" font-family="Arial" text-anchor="start"><tspan x="578.6999999999999" dy="11">15</tspan></text><text x="570.6" y="-320.0" dominant-baseline="central" fill="black" font-size="14" font-family="Arial" text-anchor="end"><tspan x="570.6" dy="14">ISN</tspan></text><text x="578.6999999999999" y="-283.7" dominant-baseline="ideographic" fill="black" font-size="11" font-family="Arial" text-anchor="start"><tspan x="578.6999999999999" dy="11">1</tspan></text><text x="570.6" y="-284.0" dominant-baseline="central" fill="black" font-size="14" font-family="Arial" text-anchor="end"><tspan x="570.6" dy="14">DRV</tspan></text><text x="578.6999999999999" y="-247.70000000000002" dominant-baseline="ideographic" fill="black" font-size="11" font-family="Arial" text-anchor="start"><tspan x="578.6999999999999" dy="11">19</tspan></text><text x="570.6" y="-248.0" dominant-baseline="central" fill="black" font-size="14" font-family="Arial" text-anchor="end"><tspan x="570.6" dy="14">CFG1</tspan></text><text x="578.6999999999999" y="-211.70000000000002" dominant-baseline="ideographic" fill="black" font-size="11" font-family="Arial" text-anchor="start"><tspan x="578.6999999999999" dy="11">13</tspan></text><text x="570.6" y="-212.0" dominant-baseline="central" fill="black" font-size="14" font-family="Arial" text-anchor="end"><tspan x="570.6" dy="14">CFG2</tspan></text><text x="578.6999999999999" y="-175.70000000000002" dominant-baseline="ideographic" fill="black" font-size="11" font-family="Arial" text-anchor="start"><tspan x="578.6999999999999" dy="11">12</tspan></text><text x="570.6" y="-176.0" dominant-baseline="central" fill="black" font-size="14" font-family="Arial" text-anchor="end"><tspan x="570.6" dy="14">CFG3</tspan></text><text x="578.6999999999999" y="-139.70000000000002" dominant-baseline="ideographic" fill="black" font-size="11" font-family="Arial" text-anchor="start"><tspan x="578.6999999999999" dy="11">3</tspan></text><text x="570.6" y="-140.0" dominant-baseline="central" fill="black" font-size="14" font-family="Arial" text-anchor="end"><tspan x="570.6" dy="14">PG</tspan></text><text x="578.6999999999999" y="-103.7" dominant-baseline="ideographic" fill="black" font-size="11" font-family="Arial" text-anchor="start"><tspan x="578.6999999999999" dy="11">8</tspan></text><text x="570.6" y="-104.0" dominant-baseline="central" fill="black" font-size="14" font-family="Arial" text-anchor="end"><tspan x="570.6" dy="14">DP</tspan></text><text x="578.6999999999999" y="-67.7" dominant-baseline="ideographic" fill="black" font-size="11" font-family="Arial" text-anchor="start"><tspan x="578.6999999999999" dy="11">9</tspan></text><text x="570.6" y="-68.0" dominant-baseline="central" fill="black" font-size="14" font-family="Arial" text-anchor="end"><tspan x="570.6" dy="14">DM</tspan></text><text x="578.6999999999999" y="-31.700000000000006" dominant-baseline="ideographic" fill="black" font-size="11" font-family="Arial" text-anchor="start"><tspan x="578.6999999999999" dy="11">7</tspan></text><text x="570.6" y="-32.0" dominant-baseline="central" fill="black" font-size="14" font-family="Arial" text-anchor="end"><tspan x="570.6" dy="14">VDD</tspan></text><text x="486.0" y="-291.0" dominant-baseline="central" fill="black" font-size="14" font-family="Arial" text-anchor="middle"><tspan x="486.0" dy="14">U1</tspan><tspan x="486.0" dy="14">CH224D</tspan></text><text x="163.79999999999998" y="-378.40000000000003" dominant-baseline="central" fill="black" font-size="11" font-family="Arial" text-anchor="start"><tspan x="163.79999999999998" dy="11">C1</tspan><tspan x="163.79999999999998" dy="11">10µF</tspan><tspan x="163.79999999999998" dy="11">25V</tspan></text><text x="304.2" y="-378.40000000000003" dominant-baseline="central" fill="black" font-size="11" font-family="Arial" text-anchor="start"><tspan x="304.2" dy="11">C2</tspan><tspan x="304.2" dy="11">100nF</tspan><tspan x="304.2" dy="11">25V</tspan></text><text x="306.90000000000003" y="-163.5857142857143" dominant-baseline="central" fill="black" font-size="11" font-family="Arial" text-anchor="start"><tspan x="306.90000000000003" dy="11">R12</tspan><tspan x="306.90000000000003" dy="11">5.1kΩ</tspan></text><text x="166.85999999999999" y="-132.21428571428572" dominant-baseline="central" fill="black" font-size="11" font-family="Arial" text-anchor="start"><tspan x="166.85999999999999" dy="11">R13</tspan><tspan x="166.85999999999999" dy="11">5.1kΩ</tspan></text><text x="691.3799999999999" y="-304.5" dominant-baseline="central" fill="black" font-size="11" font-family="Arial" text-anchor="start"><tspan x="691.3799999999999" dy="11">R11</tspan><tspan x="691.3799999999999" dy="11">56kΩ</tspan></text><text x="669.6" y="-110.0" dominant-baseline="hanging" fill="black" font-size="11" font-family="Arial" text-anchor="middle"><tspan x="669.6" dy="11">D1</tspan></text><text x="777.6" y="-166.9" dominant-baseline="ideographic" fill="black" font-size="11" font-family="Arial" text-anchor="middle"><tspan x="777.6" dy="11">R10</tspan><tspan x="777.6" dy="11">330Ω</tspan></text><text x="675.0" y="1.500000000000007" dominant-baseline="central" fill="black" font-size="11" font-family="Arial" text-anchor="start"><tspan x="675.0" dy="11">C3</tspan><tspan x="675.0" dy="11">1µF</tspan></text><circle cx="144.0" cy="-414.0" r="2.6999999999999997" style="stroke:black;fill:black;stroke-width:2.0;stroke-dasharray:-;" /><circle cx="216.0" cy="-414.0" r="2.6999999999999997" style="stroke:black;fill:black;stroke-width:2.0;stroke-dasharray:-;" /><circle cx="288.0" cy="-414.0" r="2.6999999999999997" style="stroke:black;fill:black;stroke-width:2.0;stroke-dasharray:-;" /><circle cx="360.0" cy="-414.0" r="2.6999999999999997" style="stroke:black;fill:black;stroke-width:2.0;stroke-dasharray:-;" /><circle cx="360.0" cy="-594.0" r="2.6999999999999997" style="stroke:black;fill:white;stroke-width:2.0;stroke-dasharray:-;" /><text x="369.90000000000003" y="-585.5" dominant-baseline="central" fill="black" font-size="11" font-family="Arial" text-anchor="start"><tspan x="369.90000000000003" dy="11">OUT</tspan><tspan x="369.90000000000003" dy="11">+5V first</tspan><tspan x="369.90000000000003" dy="11">+15V</tspan><tspan x="369.90000000000003" dy="11">after init</tspan></text><circle cx="144.0" cy="-74.57142857142856" r="2.6999999999999997" style="stroke:black;fill:black;stroke-width:2.0;stroke-dasharray:-;" /><circle cx="360.0" cy="-74.57142857142856" r="2.6999999999999997" style="stroke:black;fill:black;stroke-width:2.0;stroke-dasharray:-;" /><circle cx="288.0" cy="-244.28571428571428" r="2.6999999999999997" style="stroke:black;fill:black;stroke-width:2.0;stroke-dasharray:-;" /><circle cx="216.0" cy="-187.71428571428572" r="2.6999999999999997" style="stroke:black;fill:black;stroke-width:2.0;stroke-dasharray:-;" /><circle cx="612.0" cy="-90.0" r="2.6999999999999997" style="stroke:black;fill:black;stroke-width:2.0;stroke-dasharray:-;" /><circle cx="612.0" cy="-306.0" r="2.6999999999999997" style="stroke:black;fill:black;stroke-width:2.0;stroke-dasharray:-;" /><circle cx="612.0" cy="-234.0" r="2.6999999999999997" style="stroke:black;fill:black;stroke-width:2.0;stroke-dasharray:-;" /><circle cx="831.6" cy="-126.0" r="2.6999999999999997" style="stroke:black;fill:white;stroke-width:2.0;stroke-dasharray:-;" /><text x="831.6" y="-146.9" dominant-baseline="ideographic" fill="black" font-size="11" font-family="Arial" text-anchor="middle"><tspan x="831.6" dy="11">+5V IN</tspan></text></svg>