<svg xmlns="http://www.w3.org/2000/svg" xmlns:xlink="http://www.w3.org/1999/xlink" xml:lang="en" height="421.04pt" width="679.8719719632707pt" viewBox="-49.60000000000004 -112.6 679.8719719632707 421.04"><path d="M 324.0,129.60000000000002 L 576.0,129.60000000000002 L 576.0,-43.2 L 324.0,-43.2 L 324.0,129.60000000000002" style="stroke:black;fill:none;stroke-width:2.0;stroke-dasharray:-;stroke-linecap:round;stroke-linejoin:round;" /><path d="M 324.0,-0.0 L 288.0,-0.0" style="stroke:black;fill:none;stroke-width:2.0;stroke-dasharray:-;stroke-linecap:round;stroke-linejoin:round;" /><path d="M 324.0,28.80000000000001 L 288.0,28.80000000000001" style="stroke:black;fill:none;stroke-width:2.0;stroke-dasharray:-;stroke-linecap:round;stroke-linejoin:round;" /><path d="M 324.0,57.60000000000002 L 288.0,57.60000000000002" style="stroke:black;fill:none;stroke-width:2.0;stroke-dasharray:-;stroke-linecap:round;stroke-linejoin:round;" /><path d="M 324.0,86.4 L 288.0,86.4" style="stroke:black;fill:none;stroke-width:2.0;stroke-dasharray:-;stroke-linecap:round;stroke-linejoin:round;" /><path d="M 576.0,-0.0 L 612.0,-0.0" style="stroke:black;fill:none;stroke-width:2.0;stroke-dasharray:-;stroke-linecap:round;stroke-linejoin:round;" /><path d="M 576.0,28.80000000000001 L 612.0,28.80000000000001" style="stroke:black;fill:none;stroke-width:2.0;stroke-dasharray:-;stroke-linecap:round;stroke-linejoin:round;" /><path d="M 576.0,57.60000000000002 L 612.0,57.60000000000002" style="stroke:black;fill:none;stroke-width:2.0;stroke-dasharray:-;stroke-linecap:round;stroke-linejoin:round;" /><path d="M 0.0,-0.0 L 18.0,-0.0 L 36.0,-0.0" style="stroke:black;fill:none;stroke-width:2.0;stroke-dasharray:-;stroke-linecap:round;stroke-linejoin:round;" /><path d="M 36.0,-0.0 L 45.0,-0.0 L 54.0,-0.0" style="stroke:black;fill:none;stroke-width:2.0;stroke-dasharray:-;stroke-linecap:round;stroke-linejoin:round;" /><path d="M 54.0,-0.0 L 53.99999999999999,41.76 M 62.99999999999999,41.76 L 44.99999999999999,41.76 M 62.99999999999999,48.239999999999995 L 44.99999999999999,48.239999999999995 M 53.99999999999999,48.239999999999995 L 53.999999999999986,90.0" style="stroke:black;fill:none;stroke-width:2.0;stroke-dasharray:-;stroke-linecap:round;stroke-linejoin:round;" /><path d="M 53.999999999999986,90.0 L 53.999999999999986,104.39999999999999 L 44.999999999999986,104.39999999999999 L 62.999999999999986,104.39999999999999 M 47.69999999999998,108.72 L 60.29999999999998,108.72 M 52.19999999999998,113.04 L 55.79999999999998,113.04" style="stroke:black;fill:none;stroke-width:2.0;stroke-dasharray:-;stroke-linecap:round;stroke-linejoin:round;" /><path d="M 36.0,-0.0 L 81.0,-0.0 L 126.0,-0.0" style="stroke:black;fill:none;stroke-width:2.0;stroke-dasharray:-;stroke-linecap:round;stroke-linejoin:round;" /><path d="M 126.0,-0.0 L 126.0,41.76 M 135.0,41.76 L 117.0,41.76 M 134.99999999999997,48.239999999999995 L 117.0,48.239999999999995 M 125.99999999999999,48.239999999999995 L 125.99999999999999,90.0" style="stroke:black;fill:none;stroke-width:2.0;stroke-dasharray:-;stroke-linecap:round;stroke-linejoin:round;" /><path d="M 125.99999999999999,90.0 L 125.99999999999999,104.39999999999999 L 116.99999999999999,104.39999999999999 L 134.99999999999997,104.39999999999999 M 119.69999999999999,108.72 L 132.29999999999998,108.72 M 124.19999999999999,113.04 L 127.79999999999998,113.04" style="stroke:black;fill:none;stroke-width:2.0;stroke-dasharray:-;stroke-linecap:round;stroke-linejoin:round;" /><path d="M 126.0,-0.0 L 207.0,-0.0 L 288.0,-0.0" style="stroke:black;fill:none;stroke-width:2.0;stroke-dasharray:-;stroke-linecap:round;stroke-linejoin:round;" /><path d="M 288.0,86.4 L 273.59999999999997,86.4 L 259.2,86.4" style="stroke:black;fill:none;stroke-width:2.0;stroke-dasharray:-;stroke-linecap:round;stroke-linejoin:round;" /><path d="M 259.2,86.4 L 259.2,100.80000000000001 L 259.2,115.2" style="stroke:black;fill:none;stroke-width:2.0;stroke-dasharray:-;stroke-linecap:round;stroke-linejoin:round;" /><path d="M 259.2,115.2 L 259.2,129.6 L 250.20000000000002,129.6 L 268.2,129.6 M 252.9,133.92000000000002 L 265.5,133.92000000000002 M 257.40000000000003,138.24 L 261.0,138.24" style="stroke:black;fill:none;stroke-width:2.0;stroke-dasharray:-;stroke-linecap:round;stroke-linejoin:round;" /><path d="M 288.0,28.80000000000001 L 234.0,28.8 L 180.0,28.799999999999997" style="stroke:black;fill:none;stroke-width:2.0;stroke-dasharray:-;stroke-linecap:round;stroke-linejoin:round;" /><path d="M 180.0,28.799999999999997 L 179.99999999999997,118.8 L 179.99999999999997,208.79999999999998" style="stroke:black;fill:none;stroke-width:2.0;stroke-dasharray:-;stroke-linecap:round;stroke-linejoin:round;" /><path d="M 179.99999999999997,208.79999999999998 L 161.99999999999997,208.79999999999998 L 143.99999999999997,208.79999999999998" style="stroke:black;fill:none;stroke-width:2.0;stroke-dasharray:-;stroke-linecap:round;stroke-linejoin:round;" /><path d="M 143.99999999999997,208.79999999999998 L 107.99999999999997,208.79999999999998 L 104.99999999999997,217.79999999999998 L 98.99999999999997,199.79999999999998 L 92.99999999999997,217.79999999999998 L 86.99999999999997,199.79999999999998 L 80.99999999999997,217.79999999999998 L 74.99999999999997,199.79999999999998 L 71.99999999999997,208.79999999999998 L 35.99999999999997,208.79999999999998" style="stroke:black;fill:none;stroke-width:2.0;stroke-dasharray:-;stroke-linecap:round;stroke-linejoin:round;" /><path d="M 35.99999999999997,208.79999999999998 L 17.999999999999968,208.79999999999998 L -3.197442310920451e-14,208.79999999999998" style="stroke:black;fill:none;stroke-width:2.0;stroke-dasharray:-;stroke-linecap:round;stroke-linejoin:round;" /><path d="M -3.197442310920451e-14,208.79999999999998 L -3.79923374802146e-14,241.56 M 8.999999999999963,241.56 L -9.000000000000037,241.56 M 8.999999999999961,248.04 L -9.000000000000039,248.04 M -3.918269416898583e-14,248.04 L -4.520060853999592e-14,280.8" style="stroke:black;fill:none;stroke-width:2.0;stroke-dasharray:-;stroke-linecap:round;stroke-linejoin:round;" /><path d="M -4.520060853999592e-14,280.8 L -4.520060853999592e-14,295.2 L -9.000000000000046,295.2 L 8.999999999999956,295.2 M -6.300000000000044,299.52 L 6.2999999999999545,299.52 M -1.8000000000000453,303.84 L 1.799999999999955,303.84" style="stroke:black;fill:none;stroke-width:2.0;stroke-dasharray:-;stroke-linecap:round;stroke-linejoin:round;" /><path d="M -3.197442310920451e-14,208.79999999999998 L -18.000000000000032,208.79999999999998 L -36.00000000000003,208.79999999999998" style="stroke:black;fill:none;stroke-width:2.0;stroke-dasharray:-;stroke-linecap:round;stroke-linejoin:round;" /><path d="M -36.00000000000003,208.79999999999998 L -36.00000000000003,226.79999999999998 L -36.00000000000004,244.79999999999998" style="stroke:black;fill:none;stroke-width:2.0;stroke-dasharray:-;stroke-linecap:round;stroke-linejoin:round;" /><path d="M -36.00000000000004,244.79999999999998 L -36.00000000000004,259.2 L -45.00000000000004,259.2 L -27.00000000000004,259.2 M -42.30000000000004,263.52 L -29.70000000000004,263.52 M -37.80000000000004,267.84 L -34.20000000000004,267.84" style="stroke:black;fill:none;stroke-width:2.0;stroke-dasharray:-;stroke-linecap:round;stroke-linejoin:round;" /><path d="M 36.0,-0.0 L 36.0,-54.0 L 36.00000000000001,-108.0" style="stroke:black;fill:none;stroke-width:2.0;stroke-dasharray:-;stroke-linecap:round;stroke-linejoin:round;" /><path d="M 36.00000000000001,-108.0 L 324.0,-108.0 L 612.0,-108.0" style="stroke:black;fill:none;stroke-width:2.0;stroke-dasharray:-;stroke-linecap:round;stroke-linejoin:round;" /><path d="M 612.0,-108.0 L 612.0,-90.0 L 613.5300966985359,-89.95578063936823 L 615.1005457662997,-89.82121073546207 L 616.6751788988734,-89.59499248740573 L 618.2177314305286,-89.2779388060165 L 619.692677529393,-88.87295459202213 L 621.0660483768662,-88.38496983460203 L 622.3062144881658,-87.82082607102905 L 623.3846141567309,-87.1891188223093 L 624.276411246008,-86.49999963361327 L 624.961067179315,-85.76494227861593 L 625.4228139545395,-84.99647851218842 L 625.6510172898871,-84.20790945720174 L 625.6404215372306,-83.41299927236284 L 625.3912707225722,-82.62565815608139 L 624.9093029259907,-81.85962198696168 L 624.2056181305063,-81.12813597897559 L 623.2964225833766,-80.44364963691146 L 622.2026555573224,-79.8175300374423 L 620.9495071075787,-79.25980003910793 L 619.5658379310898,-78.77890745037904 L 618.0835146888107,-78.38153047198898 L 616.5366760990055,-78.07242389430375 L 614.9609467038196,-77.8543095918888 L 613.3926164165109,-77.72781383724316 L 611.8678047448205,-77.69145287739975 L 610.4216289388735,-77.7416671055712 L 609.0873952216258,-77.87290304084866 L 607.8958317282589,-78.07774122791692 L 606.8743808203537,-78.34706711118444 L 606.0465670732328,-78.67028094800382 L 605.4314554920735,-79.03554192656563 L 605.0432124343685,-79.43004086629662 L 604.8907793509345,-79.84029522032222 L 604.977666859389,-80.2524595859248 L 605.3018738926999,-80.65264457177129 L 605.8559337848562,-81.02723667822269 L 606.6270862322887,-81.36321182370635 L 607.5975711706666,-81.64843529646667 L 608.7450377989326,-81.87194122364033 L 610.0430593305241,-82.02418512133006 L 611.4617416167808,-82.0972637093101 L 612.968411625603,-82.0850969279096 L 614.5283699193234,-81.98356796512574 L 616.1056898018109,-81.79061806906485 L 617.6640447300113,-81.50629396212894 L 619.167544934182,-81.13274676497318 L 620.5815639789977,-80.674182455016 L 621.8735362293696,-80.13676500046944 L 623.0137068549055,-79.52847440076636 L 623.9758170999926,-78.85892290279156 L 624.7377090373586,-78.1391336255574 L 625.2818358773051,-77.38128669171992 L 625.5956660799094,-76.59843871266543 L 625.6719719632706,-75.80422208758061 L 625.5089961609928,-75.01253104181308 L 625.1104920952978,-74.2372016352319 L 624.4856375336509,-73.49169311017097 L 623.6488232197362,-72.78877791768704 L 622.6193214467262,-72.14024756099825 L 621.4208422057884,-71.55664103068969 L 620.0809871319673,-71.0470020859731 L 618.6306138233737,-70.61867097194585 L 617.1031251737539,-70.27711536971563 L 615.5337000855055,-70.02580447270203 L 613.9584832802357,-69.86612908920708 L 612.4137528659754,-69.79736961133618 L 610.9350848324297,-69.81671258796327 L 609.5565337163983,-69.91931552005504 L 608.3098483070933,-70.09841838608297 L 607.2237404540886,-70.34549932903126 L 606.3232238176578,-70.65047091944352 L 605.6290377904428,-71.00191247446251 L 605.1571698578515,-71.38733308242789 L 604.9184873974904,-71.79345927543088 L 604.9184873974904,-72.20654072456911 L 605.1571698578514,-72.61266691757208 L 605.6290377904428,-72.99808752553749 L 606.3232238176578,-73.34952908055648 L 607.2237404540886,-73.65450067096874 L 608.3098483070933,-73.90158161391703 L 609.5565337163983,-74.08068447994495 L 610.9350848324297,-74.18328741203673 L 612.4137528659753,-74.20263038866382 L 613.9584832802357,-74.13387091079294 L 615.5337000855054,-73.97419552729797 L 617.1031251737539,-73.72288463028438 L 618.6306138233736,-73.38132902805415 L 620.0809871319673,-72.95299791402692 L 621.4208422057883,-72.44335896931031 L 622.6193214467262,-71.85975243900177 L 623.6488232197362,-71.21122208231297 L 624.4856375336509,-70.50830688982906 L 625.1104920952978,-69.76279836476812 L 625.5089961609928,-68.98746895818695 L 625.6719719632706,-68.19577791241942 L 625.5956660799094,-67.40156128733459 L 625.2818358773051,-66.61871330828009 L 624.7377090373586,-65.86086637444262 L 623.9758170999926,-65.14107709720844 L 623.0137068549055,-64.47152559923364 L 621.8735362293696,-63.8632349995306 L 620.5815639789977,-63.32581754498402 L 619.167544934182,-62.867253235026844 L 617.6640447300114,-62.493706037871085 L 616.1056898018109,-62.20938193093515 L 614.5283699193234,-62.016432034874256 L 612.968411625603,-61.91490307209042 L 611.4617416167808,-61.90273629068991 L 610.0430593305241,-61.975814878669915 L 608.7450377989326,-62.128058776359666 L 607.5975711706666,-62.35156470353331 L 606.6270862322887,-62.63678817629365 L 605.8559337848562,-62.97276332177731 L 605.3018738926999,-63.347355428228695 L 604.977666859389,-63.747540414075196 L 604.8907793509345,-64.15970477967777 L 605.0432124343685,-64.56995913370338 L 605.4314554920735,-64.96445807343434 L 606.0465670732328,-65.32971905199618 L 606.8743808203537,-65.65293288881556 L 607.8958317282589,-65.92225877208307 L 609.0873952216258,-66.12709695915132 L 610.4216289388735,-66.2583328944288 L 611.8678047448204,-66.30854712260025 L 613.3926164165109,-66.27218616275685 L 614.9609467038194,-66.1456904081112 L 616.5366760990055,-65.92757610569626 L 618.0835146888106,-65.61846952801103 L 619.5658379310897,-65.22109254962098 L 620.9495071075786,-64.74019996089207 L 622.2026555573223,-64.18246996255772 L 623.2964225833765,-63.55635036308856 L 624.2056181305063,-62.87186402102441 L 624.9093029259907,-62.14037801303835 L 625.3912707225722,-61.37434184391864 L 625.6404215372306,-60.587000727637154 L 625.6510172898871,-59.792090542798285 L 625.4228139545395,-59.00352148781157 L 624.961067179315,-58.23505772138408 L 624.2764112460081,-57.500000366386764 L 623.3846141567309,-56.81088117769071 L 622.3062144881659,-56.17917392897098 L 621.0660483768663,-55.61503016539801 L 619.692677529393,-55.12704540797788 L 618.2177314305287,-54.72206119398353 L 616.6751788988734,-54.40500751259428 L 615.1005457662997,-54.17878926453795 L 613.5300966985359,-54.04421936063177 L 612.0,-54.0 L 612.0,-36.0" style="stroke:black;fill:none;stroke-width:2.0;stroke-dasharray:-;stroke-linecap:round;stroke-linejoin:round;" /><path d="M 612.0,-36.0 L 612.0,-18.0 L 612.0,-0.0" style="stroke:black;fill:none;stroke-width:2.0;stroke-dasharray:-;stroke-linecap:round;stroke-linejoin:round;" /><path d="M 612.0,-0.0" style="stroke:black;fill:none;stroke-width:2.0;stroke-dasharray:-;stroke-linecap:round;stroke-linejoin:round;" /><text x="321.3" y="-13.700000000000006" dominant-baseline="ideographic" fill="black" font-size="11" font-family="Arial" text-anchor="end"><tspan x="321.3" dy="11">7</tspan></text><text x="329.40000000000003" y="-14.0" dominant-baseline="central" fill="black" font-size="14" font-family="Arial" text-anchor="start"><tspan x="329.40000000000003" dy="14">VIN</tspan></text><text x="321.3" y="15.100000000000001" dominant-baseline="ideographic" fill="black" font-size="11" font-family="Arial" text-anchor="end"><tspan x="321.3" dy="11">2</tspan></text><text x="329.40000000000003" y="14.800000000000011" dominant-baseline="central" fill="black" font-size="14" font-family="Arial" text-anchor="start"><tspan x="329.40000000000003" dy="14">COMP</tspan></text><text x="321.3" y="43.90000000000001" dominant-baseline="ideographic" fill="black" font-size="11" font-family="Arial" text-anchor="end"><tspan x="321.3" dy="11">6</tspan></text><text x="329.40000000000003" y="43.60000000000002" dominant-baseline="central" fill="black" font-size="14" font-family="Arial" text-anchor="start"><tspan x="329.40000000000003" dy="14">Freq.Sync.</tspan></text><text x="321.3" y="72.7" dominant-baseline="ideographic" fill="black" font-size="11" font-family="Arial" text-anchor="end"><tspan x="321.3" dy="11">4</tspan></text><text x="329.40000000000003" y="72.4" dominant-baseline="central" fill="black" font-size="14" font-family="Arial" text-anchor="start"><tspan x="329.40000000000003" dy="14">GND</tspan></text><text x="578.6999999999999" y="-13.700000000000006" dominant-baseline="ideographic" fill="black" font-size="11" font-family="Arial" text-anchor="start"><tspan x="578.6999999999999" dy="11">5</tspan></text><text x="570.6" y="-14.0" dominant-baseline="central" fill="black" font-size="14" font-family="Arial" text-anchor="end"><tspan x="570.6" dy="14">SW</tspan></text><text x="578.6999999999999" y="15.100000000000001" dominant-baseline="ideographic" fill="black" font-size="11" font-family="Arial" text-anchor="start"><tspan x="578.6999999999999" dy="11">1</tspan></text><text x="570.6" y="14.800000000000011" dominant-baseline="central" fill="black" font-size="14" font-family="Arial" text-anchor="end"><tspan x="570.6" dy="14">Freq.Adj.</tspan></text><text x="578.6999999999999" y="43.90000000000001" dominant-baseline="ideographic" fill="black" font-size="11" font-family="Arial" text-anchor="start"><tspan x="578.6999999999999" dy="11">3</tspan></text><text x="570.6" y="43.60000000000002" dominant-baseline="central" fill="black" font-size="14" font-family="Arial" text-anchor="end"><tspan x="570.6" dy="14">FB</tspan></text><text x="453.59999999999997" y="18.6" dominant-baseline="central" fill="black" font-size="14" font-family="Arial" text-anchor="middle"><tspan x="453.59999999999997" dy="14">U5</tspan><tspan x="453.59999999999997" dy="14">LM2586SX-ADJ</tspan></text><text x="66.6" y="28.5" dominant-baseline="central" fill="black" font-size="11" font-family="Arial" text-anchor="start"><tspan x="66.6" dy="11">C13</tspan><tspan x="66.6" dy="11">100µF</tspan></text><text x="138.6" y="28.5" dominant-baseline="central" fill="black" font-size="11" font-family="Arial" text-anchor="start"><tspan x="138.6" dy="11">C16</tspan><tspan x="138.6" dy="11">100nF</tspan></text><text x="89.99999999999997" y="210.39999999999998" dominant-baseline="hanging" fill="black" font-size="11" font-family="Arial" text-anchor="middle"><tspan x="89.99999999999997" dy="11">R9</tspan><tspan x="89.99999999999997" dy="11">3kΩ</tspan></text><text x="-3.1313113837664936e-14" y="183.20000000000002" dominant-baseline="ideographic" fill="black" font-size="11" font-family="Arial" text-anchor="middle"><tspan x="-3.1313113837664936e-14" dy="11">C15</tspan><tspan x="-3.1313113837664936e-14" dy="11">47nF</tspan></text><text x="586.4813756571026" y="-75.0" dominant-baseline="hanging" fill="black" font-size="12" font-family="Arial" text-anchor="middle"><tspan x="586.4813756571026" dy="12">T1</tspan></text><circle cx="0.0" cy="-0.0" r="2.6999999999999997" style="stroke:black;fill:white;stroke-width:2.0;stroke-dasharray:-;" /><text x="0.0" y="-34.7" dominant-baseline="ideographic" fill="black" font-size="14" font-family="Arial" text-anchor="middle"><tspan x="0.0" dy="14">+15V IN</tspan></text><circle cx="36.0" cy="-0.0" r="2.6999999999999997" style="stroke:black;fill:black;stroke-width:2.0;stroke-dasharray:-;" /><circle cx="54.0" cy="-0.0" r="2.6999999999999997" style="stroke:black;fill:black;stroke-width:2.0;stroke-dasharray:-;" /><circle cx="126.0" cy="-0.0" r="2.6999999999999997" style="stroke:black;fill:black;stroke-width:2.0;stroke-dasharray:-;" /><circle cx="-3.197442310920451e-14" cy="208.79999999999998" r="2.6999999999999997" style="stroke:black;fill:black;stroke-width:2.0;stroke-dasharray:-;" /></svg>