<svg xmlns="http://www.w3.org/2000/svg" xmlns:xlink="http://www.w3.org/1999/xlink" xml:lang="en" height="385.04pt" width="515.9039719632706pt" viewBox="-29.631999999999998 -112.6 515.9039719632706 385.04"><path d="M 252.0,129.60000000000002 L 432.0,129.60000000000002 L 432.0,-43.2 L 252.0,-43.2 L 252.0,129.60000000000002" style="stroke:black;fill:none;stroke-width:2.0;stroke-dasharray:-;stroke-linecap:round;stroke-linejoin:round;" /><path d="M 252.0,-0.0 L 216.0,-0.0" style="stroke:black;fill:none;stroke-width:2.0;stroke-dasharray:-;stroke-linecap:round;stroke-linejoin:round;" /><path d="M 252.0,28.80000000000001 L 216.0,28.80000000000001" style="stroke:black;fill:none;stroke-width:2.0;stroke-dasharray:-;stroke-linecap:round;stroke-linejoin:round;" /><path d="M 252.0,57.60000000000002 L 216.0,57.60000000000002" style="stroke:black;fill:none;stroke-width:2.0;stroke-dasharray:-;stroke-linecap:round;stroke-linejoin:round;" /><path d="M 252.0,86.4 L 216.0,86.4" style="stroke:black;fill:none;stroke-width:2.0;stroke-dasharray:-;stroke-linecap:round;stroke-linejoin:round;" /><path d="M 432.0,-0.0 L 468.0,-0.0" style="stroke:black;fill:none;stroke-width:2.0;stroke-dasharray:-;stroke-linecap:round;stroke-linejoin:round;" /><path d="M 432.0,28.80000000000001 L 468.0,28.80000000000001" style="stroke:black;fill:none;stroke-width:2.0;stroke-dasharray:-;stroke-linecap:round;stroke-linejoin:round;" /><path d="M 432.0,57.60000000000002 L 468.0,57.60000000000002" style="stroke:black;fill:none;stroke-width:2.0;stroke-dasharray:-;stroke-linecap:round;stroke-linejoin:round;" /><path d="M 0.0,-0.0 L 18.0,-0.0 L 36.0,-0.0" style="stroke:black;fill:none;stroke-width:2.0;stroke-dasharray:-;stroke-linecap:round;stroke-linejoin:round;" /><path d="M 36.0,-0.0 L 45.0,-0.0 L 54.0,-0.0" style="stroke:black;fill:none;stroke-width:2.0;stroke-dasharray:-;stroke-linecap:round;stroke-linejoin:round;" /><path d="M 54.0,-0.0 L 53.99999999999999,41.76 M 62.99999999999999,41.76 L 44.99999999999999,41.76 M 62.99999999999999,48.239999999999995 L 44.99999999999999,48.239999999999995 M 53.99999999999999,48.239999999999995 L 53.999999999999986,90.0" style="stroke:black;fill:none;stroke-width:2.0;stroke-dasharray:-;stroke-linecap:round;stroke-linejoin:round;" /><path d="M 53.999999999999986,90.0 L 53.999999999999986,104.39999999999999 L 44.999999999999986,104.39999999999999 L 62.999999999999986,104.39999999999999 M 47.69999999999998,108.72 L 60.29999999999998,108.72 M 52.19999999999998,113.04 L 55.79999999999998,113.04" style="stroke:black;fill:none;stroke-width:2.0;stroke-dasharray:-;stroke-linecap:round;stroke-linejoin:round;" /><path d="M 36.0,-0.0 L 81.0,-0.0 L 126.0,-0.0" style="stroke:black;fill:none;stroke-width:2.0;stroke-dasharray:-;stroke-linecap:round;stroke-linejoin:round;" /><path d="M 126.0,-0.0 L 126.0,41.76 M 135.0,41.76 L 117.0,41.76 M 134.99999999999997,48.239999999999995 L 117.0,48.239999999999995 M 125.99999999999999,48.239999999999995 L 125.99999999999999,90.0" style="stroke:black;fill:none;stroke-width:2.0;stroke-dasharray:-;stroke-linecap:round;stroke-linejoin:round;" /><path d="M 125.99999999999999,90.0 L 125.99999999999999,104.39999999999999 L 116.99999999999999,104.39999999999999 L 134.99999999999997,104.39999999999999 M 119.69999999999999,108.72 L 132.29999999999998,108.72 M 124.19999999999999,113.04 L 127.79999999999998,113.04" style="stroke:black;fill:none;stroke-width:2.0;stroke-dasharray:-;stroke-linecap:round;stroke-linejoin:round;" /><path d="M 126.0,-0.0 L 171.0,-0.0 L 216.0,-0.0" style="stroke:black;fill:none;stroke-width:2.0;stroke-dasharray:-;stroke-linecap:round;stroke-linejoin:round;" /><path d="M 216.0,86.4 L 216.0,100.80000000000001 L 216.0,115.2" style="stroke:black;fill:none;stroke-width:2.0;stroke-dasharray:-;stroke-linecap:round;stroke-linejoin:round;" /><path d="M 216.0,115.2 L 216.0,129.6 L 207.0,129.6 L 225.0,129.6 M 209.70000000000002,133.92000000000002 L 222.29999999999998,133.92000000000002 M 214.20000000000002,138.24 L 217.79999999999998,138.24" style="stroke:black;fill:none;stroke-width:2.0;stroke-dasharray:-;stroke-linecap:round;stroke-linejoin:round;" /><path d="M 216.0,28.80000000000001 L 198.0,28.800000000000004 L 180.0,28.800000000000004" style="stroke:black;fill:none;stroke-width:2.0;stroke-dasharray:-;stroke-linecap:round;stroke-linejoin:round;" /><path d="M 180.0,28.800000000000004 L 180.0,100.80000000000001 L 179.99999999999997,172.79999999999998" style="stroke:black;fill:none;stroke-width:2.0;stroke-dasharray:-;stroke-linecap:round;stroke-linejoin:round;" /><path d="M 179.99999999999997,172.79999999999998 L 138.59999999999997,172.79999999999998 L 136.49999999999997,179.1 L 132.29999999999995,166.5 L 128.09999999999997,179.1 L 123.89999999999996,166.5 L 119.69999999999997,179.1 L 115.49999999999999,166.5 L 113.39999999999998,172.79999999999998 L 71.99999999999999,172.79999999999998" style="stroke:black;fill:none;stroke-width:2.0;stroke-dasharray:-;stroke-linecap:round;stroke-linejoin:round;" /><path d="M 71.99999999999999,172.79999999999998 L 71.99999999999997,205.56 M 80.99999999999999,205.56 L 62.99999999999998,205.56 M 80.99999999999999,212.04 L 62.99999999999998,212.04 M 71.99999999999997,212.04 L 71.99999999999997,244.79999999999998" style="stroke:black;fill:none;stroke-width:2.0;stroke-dasharray:-;stroke-linecap:round;stroke-linejoin:round;" /><path d="M 71.99999999999997,244.79999999999998 L 71.99999999999997,259.2 L 62.99999999999997,259.2 L 80.99999999999997,259.2 M 65.69999999999996,263.52 L 78.29999999999995,263.52 M 70.19999999999996,267.84 L 73.79999999999995,267.84" style="stroke:black;fill:none;stroke-width:2.0;stroke-dasharray:-;stroke-linecap:round;stroke-linejoin:round;" /><path d="M 71.99999999999999,172.79999999999998 L 35.999999999999986,172.79999999999998 L -1.5987211554602254e-14,172.79999999999998" style="stroke:black;fill:none;stroke-width:2.0;stroke-dasharray:-;stroke-linecap:round;stroke-linejoin:round;" /><path d="M -1.5987211554602254e-14,172.79999999999998 L -1.9293757912300106e-14,190.79999999999998 L -2.260030426999796e-14,208.79999999999998" style="stroke:black;fill:none;stroke-width:2.0;stroke-dasharray:-;stroke-linecap:round;stroke-linejoin:round;" /><path d="M -2.260030426999796e-14,208.79999999999998 L -2.260030426999796e-14,223.20000000000002 L -9.000000000000021,223.20000000000002 L 8.999999999999977,223.20000000000002 M -6.300000000000023,227.52 L 6.299999999999977,227.52 M -1.8000000000000225,231.83999999999997 L 1.7999999999999776,231.83999999999997" style="stroke:black;fill:none;stroke-width:2.0;stroke-dasharray:-;stroke-linecap:round;stroke-linejoin:round;" /><path d="M 36.0,-0.0 L 36.0,-54.0 L 36.00000000000001,-108.0" style="stroke:black;fill:none;stroke-width:2.0;stroke-dasharray:-;stroke-linecap:round;stroke-linejoin:round;" /><path d="M 36.00000000000001,-108.0 L 252.0,-108.0 L 468.0,-108.0" style="stroke:black;fill:none;stroke-width:2.0;stroke-dasharray:-;stroke-linecap:round;stroke-linejoin:round;" /><path d="M 468.0,-108.0 L 468.0,-90.0 L 469.53009669853583,-89.95578063936823 L 471.10054576629966,-89.82121073546207 L 472.67517889887336,-89.59499248740573 L 474.2177314305286,-89.2779388060165 L 475.69267752939305,-88.87295459202213 L 477.06604837686626,-88.38496983460203 L 478.3062144881659,-87.82082607102905 L 479.3846141567309,-87.1891188223093 L 480.2764112460081,-86.49999963361327 L 480.961067179315,-85.76494227861593 L 481.4228139545395,-84.99647851218842 L 481.6510172898872,-84.20790945720174 L 481.64042153723074,-83.41299927236284 L 481.3912707225723,-82.62565815608139 L 480.9093029259907,-81.85962198696168 L 480.2056181305063,-81.12813597897559 L 479.29642258337657,-80.44364963691146 L 478.2026555573223,-79.8175300374423 L 476.9495071075786,-79.25980003910793 L 475.56583793108985,-78.77890745037904 L 474.0835146888107,-78.38153047198898 L 472.5366760990055,-78.07242389430375 L 470.9609467038195,-77.8543095918888 L 469.392616416511,-77.72781383724316 L 467.86780474482043,-77.69145287739975 L 466.42162893887354,-77.7416671055712 L 465.0873952216258,-77.87290304084866 L 463.895831728259,-78.07774122791692 L 462.8743808203538,-78.34706711118444 L 462.0465670732329,-78.67028094800382 L 461.43145549207344,-79.03554192656563 L 461.0432124343685,-79.43004086629662 L 460.89077935093445,-79.84029522032222 L 460.9776668593891,-80.2524595859248 L 461.3018738926998,-80.65264457177129 L 461.85593378485623,-81.02723667822269 L 462.62708623228866,-81.36321182370635 L 463.5975711706665,-81.64843529646667 L 464.74503779893246,-81.87194122364033 L 466.04305933052416,-82.02418512133006 L 467.4617416167809,-82.0972637093101 L 468.96841162560304,-82.0850969279096 L 470.5283699193234,-81.98356796512574 L 472.10568980181085,-81.79061806906485 L 473.66404473001126,-81.50629396212894 L 475.16754493418205,-81.13274676497318 L 476.5815639789976,-80.674182455016 L 477.8735362293696,-80.13676500046944 L 479.01370685490554,-79.52847440076636 L 479.9758170999925,-78.85892290279156 L 480.73770903735857,-78.1391336255574 L 481.2818358773051,-77.38128669171992 L 481.59566607990945,-76.59843871266543 L 481.6719719632706,-75.80422208758061 L 481.50899616099275,-75.01253104181308 L 481.11049209529773,-74.2372016352319 L 480.485637533651,-73.49169311017097 L 479.6488232197362,-72.78877791768704 L 478.61932144672625,-72.14024756099825 L 477.4208422057883,-71.55664103068969 L 476.08098713196733,-71.0470020859731 L 474.6306138233736,-70.61867097194585 L 473.103125173754,-70.27711536971563 L 471.5337000855055,-70.02580447270203 L 469.9584832802356,-69.86612908920708 L 468.41375286597537,-69.79736961133618 L 466.93508483242965,-69.81671258796327 L 465.55653371639835,-69.91931552005504 L 464.30984830709326,-70.09841838608297 L 463.2237404540885,-70.34549932903126 L 462.32322381765783,-70.65047091944352 L 461.6290377904428,-71.00191247446251 L 461.1571698578515,-71.38733308242789 L 460.9184873974904,-71.79345927543088 L 460.9184873974904,-72.20654072456911 L 461.1571698578515,-72.61266691757208 L 461.62903779044274,-72.99808752553749 L 462.3232238176578,-73.34952908055648 L 463.2237404540885,-73.65450067096874 L 464.3098483070932,-73.90158161391703 L 465.5565337163983,-74.08068447994495 L 466.93508483242965,-74.18328741203673 L 468.41375286597537,-74.20263038866382 L 469.9584832802356,-74.13387091079294 L 471.5337000855054,-73.97419552729797 L 473.10312517375394,-73.72288463028438 L 474.63061382337355,-73.38132902805415 L 476.0809871319673,-72.95299791402692 L 477.4208422057883,-72.44335896931031 L 478.6193214467262,-71.85975243900177 L 479.6488232197362,-71.21122208231297 L 480.48563753365096,-70.50830688982906 L 481.11049209529773,-69.76279836476812 L 481.50899616099264,-68.98746895818695 L 481.6719719632706,-68.19577791241942 L 481.59566607990945,-67.40156128733459 L 481.2818358773051,-66.61871330828009 L 480.73770903735857,-65.86086637444262 L 479.9758170999925,-65.14107709720844 L 479.01370685490554,-64.47152559923364 L 477.8735362293696,-63.8632349995306 L 476.5815639789977,-63.32581754498402 L 475.1675449341821,-62.867253235026844 L 473.66404473001126,-62.493706037871085 L 472.10568980181085,-62.20938193093515 L 470.52836991932344,-62.016432034874256 L 468.9684116256031,-61.91490307209042 L 467.4617416167809,-61.90273629068991 L 466.0430593305242,-61.975814878669915 L 464.7450377989325,-62.128058776359666 L 463.5975711706666,-62.35156470353331 L 462.62708623228866,-62.63678817629365 L 461.85593378485623,-62.97276332177731 L 461.3018738926998,-63.347355428228695 L 460.9776668593891,-63.747540414075196 L 460.89077935093445,-64.15970477967777 L 461.04321243436846,-64.56995913370338 L 461.43145549207344,-64.96445807343434 L 462.04656707323284,-65.32971905199618 L 462.8743808203538,-65.65293288881556 L 463.895831728259,-65.92225877208307 L 465.08739522162574,-66.12709695915132 L 466.4216289388735,-66.2583328944288 L 467.8678047448204,-66.30854712260025 L 469.3926164165109,-66.27218616275685 L 470.9609467038195,-66.1456904081112 L 472.53667609900543,-65.92757610569626 L 474.0835146888107,-65.61846952801103 L 475.5658379310898,-65.22109254962098 L 476.9495071075786,-64.74019996089207 L 478.2026555573223,-64.18246996255772 L 479.2964225833765,-63.55635036308856 L 480.20561813050625,-62.87186402102441 L 480.9093029259907,-62.14037801303835 L 481.39127072257224,-61.37434184391864 L 481.64042153723074,-60.587000727637154 L 481.6510172898872,-59.792090542798285 L 481.4228139545395,-59.00352148781157 L 480.961067179315,-58.23505772138408 L 480.2764112460081,-57.500000366386764 L 479.38461415673095,-56.81088117769071 L 478.3062144881659,-56.17917392897098 L 477.0660483768663,-55.61503016539801 L 475.6926775293931,-55.12704540797788 L 474.21773143052866,-54.72206119398353 L 472.67517889887336,-54.40500751259428 L 471.1005457662997,-54.17878926453795 L 469.5300966985359,-54.04421936063177 L 468.0,-54.0 L 468.0,-36.0" style="stroke:black;fill:none;stroke-width:2.0;stroke-dasharray:-;stroke-linecap:round;stroke-linejoin:round;" /><path d="M 468.0,-36.0 L 468.0,-18.0 L 468.0,-0.0" style="stroke:black;fill:none;stroke-width:2.0;stroke-dasharray:-;stroke-linecap:round;stroke-linejoin:round;" /><path d="M 468.0,-0.0" style="stroke:black;fill:none;stroke-width:2.0;stroke-dasharray:-;stroke-linecap:round;stroke-linejoin:round;" /><text x="249.29999999999998" y="-13.700000000000006" dominant-baseline="ideographic" fill="black" font-size="11" font-family="Arial" text-anchor="end"><tspan x="249.29999999999998" dy="11">7</tspan></text><text x="257.40000000000003" y="-14.0" dominant-baseline="central" fill="black" font-size="14" font-family="Arial" text-anchor="start"><tspan x="257.40000000000003" dy="14">VIN</tspan></text><text x="249.29999999999998" y="15.100000000000001" dominant-baseline="ideographic" fill="black" font-size="11" font-family="Arial" text-anchor="end"><tspan x="249.29999999999998" dy="11">2</tspan></text><text x="257.40000000000003" y="14.800000000000011" dominant-baseline="central" fill="black" font-size="14" font-family="Arial" text-anchor="start"><tspan x="257.40000000000003" dy="14">COMP</tspan></text><text x="249.29999999999998" y="43.90000000000001" dominant-baseline="ideographic" fill="black" font-size="11" font-family="Arial" text-anchor="end"><tspan x="249.29999999999998" dy="11">6</tspan></text><text x="257.40000000000003" y="43.60000000000002" dominant-baseline="central" fill="black" font-size="14" font-family="Arial" text-anchor="start"><tspan x="257.40000000000003" dy="14">Freq.Sync.</tspan></text><text x="249.29999999999998" y="72.7" dominant-baseline="ideographic" fill="black" font-size="11" font-family="Arial" text-anchor="end"><tspan x="249.29999999999998" dy="11">4</tspan></text><text x="257.40000000000003" y="72.4" dominant-baseline="central" fill="black" font-size="14" font-family="Arial" text-anchor="start"><tspan x="257.40000000000003" dy="14">GND</tspan></text><text x="434.7" y="-13.700000000000006" dominant-baseline="ideographic" fill="black" font-size="11" font-family="Arial" text-anchor="start"><tspan x="434.7" dy="11">5</tspan></text><text x="426.59999999999997" y="-14.0" dominant-baseline="central" fill="black" font-size="14" font-family="Arial" text-anchor="end"><tspan x="426.59999999999997" dy="14">SW</tspan></text><text x="434.7" y="15.100000000000001" dominant-baseline="ideographic" fill="black" font-size="11" font-family="Arial" text-anchor="start"><tspan x="434.7" dy="11">1</tspan></text><text x="426.59999999999997" y="14.800000000000011" dominant-baseline="central" fill="black" font-size="14" font-family="Arial" text-anchor="end"><tspan x="426.59999999999997" dy="14">Freq.Adj.</tspan></text><text x="434.7" y="43.90000000000001" dominant-baseline="ideographic" fill="black" font-size="11" font-family="Arial" text-anchor="start"><tspan x="434.7" dy="11">3</tspan></text><text x="426.59999999999997" y="43.60000000000002" dominant-baseline="central" fill="black" font-size="14" font-family="Arial" text-anchor="end"><tspan x="426.59999999999997" dy="14">FB</tspan></text><text x="342.0" y="-78.4" dominant-baseline="ideographic" fill="black" font-size="14" font-family="Arial" text-anchor="middle"><tspan x="342.0" dy="14">U5</tspan><tspan x="342.0" dy="14">LM2586SX-ADJ</tspan></text><text x="66.6" y="28.5" dominant-baseline="central" fill="black" font-size="11" font-family="Arial" text-anchor="start"><tspan x="66.6" dy="11">C13</tspan><tspan x="66.6" dy="11">100µF</tspan></text><text x="138.6" y="28.5" dominant-baseline="central" fill="black" font-size="11" font-family="Arial" text-anchor="start"><tspan x="138.6" dy="11">C16</tspan><tspan x="138.6" dy="11">100nF</tspan></text><text x="125.99999999999997" y="188.25999999999996" dominant-baseline="hanging" fill="black" font-size="11" font-family="Arial" text-anchor="middle"><tspan x="125.99999999999997" dy="11">R9</tspan><tspan x="125.99999999999997" dy="11">3kΩ</tspan></text><text x="43.199999999999974" y="197.79999999999998" dominant-baseline="hanging" fill="black" font-size="11" font-family="Arial" text-anchor="middle"><tspan x="43.199999999999974" dy="11">C15</tspan><tspan x="43.199999999999974" dy="11">47nF</tspan></text><text x="442.4813756571025" y="-75.0" dominant-baseline="hanging" fill="black" font-size="12" font-family="Arial" text-anchor="middle"><tspan x="442.4813756571025" dy="12">T1</tspan></text><circle cx="0.0" cy="-0.0" r="2.6999999999999997" style="stroke:black;fill:white;stroke-width:2.0;stroke-dasharray:-;" /><text x="0.0" y="-34.7" dominant-baseline="ideographic" fill="black" font-size="14" font-family="Arial" text-anchor="middle"><tspan x="0.0" dy="14">+15V IN</tspan></text><circle cx="36.0" cy="-0.0" r="2.6999999999999997" style="stroke:black;fill:black;stroke-width:2.0;stroke-dasharray:-;" /><circle cx="54.0" cy="-0.0" r="2.6999999999999997" style="stroke:black;fill:black;stroke-width:2.0;stroke-dasharray:-;" /><circle cx="126.0" cy="-0.0" r="2.6999999999999997" style="stroke:black;fill:black;stroke-width:2.0;stroke-dasharray:-;" /><circle cx="71.99999999999999" cy="172.79999999999998" r="2.6999999999999997" style="stroke:black;fill:black;stroke-width:2.0;stroke-dasharray:-;" /></svg>