<svg xmlns="http://www.w3.org/2000/svg" xmlns:xlink="http://www.w3.org/1999/xlink" xml:lang="en" height="234.60000000000002pt" width="679.3009999999999pt" viewBox="-269.701 -148.10000000000002 679.3009999999999 234.60000000000002"><path d="M 252.0 -46.8 a 4.5 4.5 0 1 1 9.0 0.0" style="stroke:black;fill:none;stroke-width:2.0;stroke-dasharray:-;" /><path d="M 261.0 -46.8 a 4.5 4.5 0 1 1 9.0 0.0" style="stroke:black;fill:none;stroke-width:2.0;stroke-dasharray:-;" /><path d="M 270.0 -46.8 a 4.5 4.5 0 1 1 9.0 0.0" style="stroke:black;fill:none;stroke-width:2.0;stroke-dasharray:-;" /><path d="M 279.0 -46.8 a 4.5 4.5 0 1 1 9.0 0.0" style="stroke:black;fill:none;stroke-width:2.0;stroke-dasharray:-;" /><polygon points="207.0,13.499999999999993 216.0,0.8999999999999968 225.0,13.499999999999993 " style="stroke:black;fill:none;stroke-width:2.0;stroke-dasharray:-;stroke-linecap:round;stroke-linejoin:round;" /><path d="M 0.0,-0.0 L 162.0,-0.0 L 162.0,-129.6 L 0.0,-129.6 L 0.0,-0.0" style="stroke:black;fill:none;stroke-width:2.0;stroke-dasharray:-;stroke-linecap:round;stroke-linejoin:round;" /><path d="M 0.0,-28.8 L -36.0,-28.8" style="stroke:black;fill:none;stroke-width:2.0;stroke-dasharray:-;stroke-linecap:round;stroke-linejoin:round;" /><path d="M 0.0,-64.8 L -36.0,-64.8" style="stroke:black;fill:none;stroke-width:2.0;stroke-dasharray:-;stroke-linecap:round;stroke-linejoin:round;" /><path d="M 0.0,-100.8 L -36.0,-100.8" style="stroke:black;fill:none;stroke-width:2.0;stroke-dasharray:-;stroke-linecap:round;stroke-linejoin:round;" /><path d="M 162.0,-46.800000000000004 L 198.0,-46.800000000000004" style="stroke:black;fill:none;stroke-width:2.0;stroke-dasharray:-;stroke-linecap:round;stroke-linejoin:round;" /><path d="M 162.0,-82.8 L 198.0,-82.8" style="stroke:black;fill:none;stroke-width:2.0;stroke-dasharray:-;stroke-linecap:round;stroke-linejoin:round;" /><path d="M -36.0,-100.8 L -72.0,-100.8 L -108.0,-100.80000000000001" style="stroke:black;fill:none;stroke-width:2.0;stroke-dasharray:-;stroke-linecap:round;stroke-linejoin:round;" /><path d="M -108.0,-100.80000000000001 L -144.0,-100.80000000000001 L -180.0,-100.80000000000003" style="stroke:black;fill:none;stroke-width:2.0;stroke-dasharray:-;stroke-linecap:round;stroke-linejoin:round;" /><path d="M -180.0,-100.80000000000003 L -216.0,-100.80000000000003 L -252.0,-100.80000000000004" style="stroke:black;fill:none;stroke-width:2.0;stroke-dasharray:-;stroke-linecap:round;stroke-linejoin:round;" /><path d="M -180.0,-100.80000000000003 L -180.0,-32.04000000000003 M -171.0,-32.04000000000003 L -189.0,-32.04000000000003 M -171.0,-25.56000000000003 L -189.0,-25.56000000000003 M -180.0,-25.56000000000003 L -180.00000000000003,43.199999999999974" style="stroke:black;fill:none;stroke-width:2.0;stroke-dasharray:-;stroke-linecap:round;stroke-linejoin:round;" /><path d="M -180.00000000000003,43.199999999999974 L -180.00000000000003,61.199999999999974 L -180.00000000000003,79.19999999999997" style="stroke:black;fill:none;stroke-width:2.0;stroke-dasharray:-;stroke-linecap:round;stroke-linejoin:round;" /><path d="M -108.0,-100.80000000000001 L -108.00000000000001,-32.04000000000001 M -99.00000000000001,-32.04000000000001 L -117.00000000000001,-32.04000000000001 M -99.00000000000001,-25.560000000000016 L -117.00000000000001,-25.560000000000016 M -108.00000000000001,-25.560000000000016 L -108.00000000000003,43.19999999999999" style="stroke:black;fill:none;stroke-width:2.0;stroke-dasharray:-;stroke-linecap:round;stroke-linejoin:round;" /><path d="M -108.00000000000003,43.19999999999999 L -108.00000000000003,61.19999999999998 L -108.00000000000003,79.19999999999997" style="stroke:black;fill:none;stroke-width:2.0;stroke-dasharray:-;stroke-linecap:round;stroke-linejoin:round;" /><path d="M -36.0,-28.8 L -35.99999999999999,25.19999999999998 L -35.99999999999999,79.19999999999997" style="stroke:black;fill:none;stroke-width:2.0;stroke-dasharray:-;stroke-linecap:round;stroke-linejoin:round;" /><path d="M 198.0,-46.800000000000004 L 207.0,-46.800000000000004 L 216.0,-46.800000000000004" style="stroke:black;fill:none;stroke-width:2.0;stroke-dasharray:-;stroke-linecap:round;stroke-linejoin:round;" /><path d="M 216.0,-46.800000000000004 L 252.0,-46.800000000000004 M 288.0,-46.800000000000004 L 324.0,-46.800000000000004" style="stroke:black;fill:none;stroke-width:2.0;stroke-dasharray:-;stroke-linecap:round;stroke-linejoin:round;" /><path d="M 324.0,-46.800000000000004 L 360.0,-46.800000000000004 L 396.0,-46.800000000000004" style="stroke:black;fill:none;stroke-width:2.0;stroke-dasharray:-;stroke-linecap:round;stroke-linejoin:round;" /><path d="M 396.0,-46.800000000000004 L 396.0,-28.8 L 396.0,-10.8" style="stroke:black;fill:none;stroke-width:2.0;stroke-dasharray:-;stroke-linecap:round;stroke-linejoin:round;" /><path d="M 396.0,-10.8 L 396.0,3.599999999999999 L 387.0,3.599999999999999 L 405.0,3.599999999999999 M 389.7,7.919999999999999 L 402.3,7.919999999999999 M 394.2,12.239999999999998 L 397.8,12.239999999999998" style="stroke:black;fill:none;stroke-width:2.0;stroke-dasharray:-;stroke-linecap:round;stroke-linejoin:round;" /><path d="M 324.0,-46.800000000000004 L 324.0,3.9599999999999955 M 333.0,3.9599999999999955 L 315.0,3.9599999999999955 M 333.0,10.439999999999994 L 315.0,10.439999999999994 M 324.0,10.439999999999994 L 324.0,61.199999999999996" style="stroke:black;fill:none;stroke-width:2.0;stroke-dasharray:-;stroke-linecap:round;stroke-linejoin:round;" /><path d="M 324.0,61.199999999999996 L 324.0,70.19999999999999 L 324.0,79.19999999999997" style="stroke:black;fill:none;stroke-width:2.0;stroke-dasharray:-;stroke-linecap:round;stroke-linejoin:round;" /><path d="M 216.0,-46.800000000000004 L 216.0,0.8999999999999968 M 207.0,0.8999999999999968 L 225.0,0.8999999999999968 M 216.0,13.499999999999993 L 215.99999999999997,61.199999999999996" style="stroke:black;fill:none;stroke-width:2.0;stroke-dasharray:-;stroke-linecap:round;stroke-linejoin:round;" /><path d="M 215.99999999999997,61.199999999999996 L 215.99999999999997,70.19999999999999 L 215.99999999999997,79.19999999999997" style="stroke:black;fill:none;stroke-width:2.0;stroke-dasharray:-;stroke-linecap:round;stroke-linejoin:round;" /><text x="-2.6999999999999997" y="-42.5" dominant-baseline="ideographic" fill="black" font-size="11" font-family="Arial" text-anchor="end"><tspan x="-2.6999999999999997" dy="11">3</tspan></text><text x="5.3999999999999995" y="-42.8" dominant-baseline="central" fill="black" font-size="14" font-family="Arial" text-anchor="start"><tspan x="5.3999999999999995" dy="14">GND</tspan></text><text x="-2.6999999999999997" y="-78.5" dominant-baseline="ideographic" fill="black" font-size="11" font-family="Arial" text-anchor="end"><tspan x="-2.6999999999999997" dy="11">5</tspan></text><text x="5.3999999999999995" y="-78.8" dominant-baseline="central" fill="black" font-size="14" font-family="Arial" text-anchor="start"><tspan x="5.3999999999999995" dy="14">ON</tspan></text><text x="-2.6999999999999997" y="-114.5" dominant-baseline="ideographic" fill="black" font-size="11" font-family="Arial" text-anchor="end"><tspan x="-2.6999999999999997" dy="11">1</tspan></text><text x="5.3999999999999995" y="-114.8" dominant-baseline="central" fill="black" font-size="14" font-family="Arial" text-anchor="start"><tspan x="5.3999999999999995" dy="14">VIN</tspan></text><text x="164.70000000000002" y="-60.5" dominant-baseline="ideographic" fill="black" font-size="11" font-family="Arial" text-anchor="start"><tspan x="164.70000000000002" dy="11">2</tspan></text><text x="156.6" y="-60.800000000000004" dominant-baseline="central" fill="black" font-size="14" font-family="Arial" text-anchor="end"><tspan x="156.6" dy="14">OUT</tspan></text><text x="164.70000000000002" y="-96.5" dominant-baseline="ideographic" fill="black" font-size="11" font-family="Arial" text-anchor="start"><tspan x="164.70000000000002" dy="11">4</tspan></text><text x="156.6" y="-96.8" dominant-baseline="central" fill="black" font-size="14" font-family="Arial" text-anchor="end"><tspan x="156.6" dy="14">FB</tspan></text><text x="84.60000000000001" y="-83.4" dominant-baseline="central" fill="black" font-size="10" font-family="Arial" text-anchor="middle"><tspan x="84.60000000000001" dy="10">U4</tspan><tspan x="84.60000000000001" dy="10">LM2596S</tspan></text><text x="-167.4" y="-45.300000000000026" dominant-baseline="central" fill="black" font-size="11" font-family="Arial" text-anchor="start"><tspan x="-167.4" dy="11">C10</tspan><tspan x="-167.4" dy="11">100nF</tspan></text><text x="-95.4" y="-45.30000000000001" dominant-baseline="central" fill="black" font-size="11" font-family="Arial" text-anchor="start"><tspan x="-95.4" dy="11">C9</tspan><tspan x="-95.4" dy="11">100µF</tspan></text><text x="270.0" y="-39.8" dominant-baseline="hanging" fill="black" font-size="11" font-family="Arial" text-anchor="middle"><tspan x="270.0" dy="11">L3</tspan><tspan x="270.0" dy="11">100µH</tspan></text><text x="336.59999999999997" y="-9.3" dominant-baseline="central" fill="black" font-size="11" font-family="Arial" text-anchor="start"><tspan x="336.59999999999997" dy="11">C11</tspan><tspan x="336.59999999999997" dy="11">470µF</tspan></text><text x="228.6" y="-9.3" dominant-baseline="central" fill="black" font-size="11" font-family="Arial" text-anchor="start"><tspan x="228.6" dy="11">D3</tspan><tspan x="228.6" dy="11">SS34</tspan></text><circle cx="-108.0" cy="-100.80000000000001" r="2.6999999999999997" style="stroke:black;fill:black;stroke-width:2.0;stroke-dasharray:-;" /><circle cx="-180.0" cy="-100.80000000000003" r="2.6999999999999997" style="stroke:black;fill:black;stroke-width:2.0;stroke-dasharray:-;" /><circle cx="-252.0" cy="-100.80000000000004" r="2.6999999999999997" style="stroke:black;fill:white;stroke-width:2.0;stroke-dasharray:-;" /><text x="-252.0" y="-143.50000000000003" dominant-baseline="ideographic" fill="black" font-size="11" font-family="Arial" text-anchor="middle"><tspan x="-252.0" dy="11">+15V</tspan><tspan x="-252.0" dy="11">IN</tspan></text><circle cx="-180.00000000000003" cy="79.19999999999997" r="2.6999999999999997" style="stroke:black;fill:black;stroke-width:2.0;stroke-dasharray:-;" /><circle cx="-108.00000000000003" cy="79.19999999999997" r="2.6999999999999997" style="stroke:black;fill:black;stroke-width:2.0;stroke-dasharray:-;" /><circle cx="-35.99999999999999" cy="79.19999999999997" r="2.6999999999999997" style="stroke:black;fill:black;stroke-width:2.0;stroke-dasharray:-;" /><circle cx="216.0" cy="-46.800000000000004" r="2.6999999999999997" style="stroke:black;fill:black;stroke-width:2.0;stroke-dasharray:-;" /><circle cx="324.0" cy="-46.800000000000004" r="2.6999999999999997" style="stroke:black;fill:black;stroke-width:2.0;stroke-dasharray:-;" /><circle cx="324.0" cy="79.19999999999997" r="2.6999999999999997" style="stroke:black;fill:black;stroke-width:2.0;stroke-dasharray:-;" /><circle cx="215.99999999999997" cy="79.19999999999997" r="2.6999999999999997" style="stroke:black;fill:black;stroke-width:2.0;stroke-dasharray:-;" /></svg>