<svg xmlns="http://www.w3.org/2000/svg" xmlns:xlink="http://www.w3.org/1999/xlink" xml:lang="en" height="291.44000000000005pt" width="670.4119999999999pt" viewBox="-53.812 -148.60000000000002 670.4119999999999 291.44000000000005"><path d="M 0.0,-0.0 L 18.0,-0.0 L 36.0,-0.0" style="stroke:black;fill:none;stroke-width:2.0;stroke-dasharray:-;stroke-linecap:round;stroke-linejoin:round;" /><path d="M 36.0,-0.0 L 36.00000000000001,-72.0 L 36.00000000000001,-144.0" style="stroke:black;fill:none;stroke-width:2.0;stroke-dasharray:-;stroke-linecap:round;stroke-linejoin:round;" /><path d="M 0.0,-0.0 L 36.0,-0.0 L 72.0,-0.0" style="stroke:black;fill:none;stroke-width:2.0;stroke-dasharray:-;stroke-linecap:round;stroke-linejoin:round;" /><path d="M 72.0,-0.0 L 71.99999999999999,41.76 M 81.0,41.76 L 62.99999999999999,41.76 M 80.99999999999999,48.239999999999995 L 62.99999999999999,48.239999999999995 M 71.99999999999999,48.239999999999995 L 71.99999999999999,90.0" style="stroke:black;fill:none;stroke-width:2.0;stroke-dasharray:-;stroke-linecap:round;stroke-linejoin:round;" /><path d="M 71.99999999999999,90.0 L 71.99999999999999,104.39999999999999 L 62.999999999999986,104.39999999999999 L 80.99999999999999,104.39999999999999 M 65.69999999999999,108.72 L 78.29999999999998,108.72 M 70.19999999999999,113.04 L 73.79999999999998,113.04" style="stroke:black;fill:none;stroke-width:2.0;stroke-dasharray:-;stroke-linecap:round;stroke-linejoin:round;" /><path d="M 72.0,-0.0 L 108.0,-0.0 L 144.0,-0.0" style="stroke:black;fill:none;stroke-width:2.0;stroke-dasharray:-;stroke-linecap:round;stroke-linejoin:round;" /><path d="M 144.0,-0.0 L 144.0,41.76 M 153.0,41.76 L 135.0,41.76 M 153.0,48.239999999999995 L 135.0,48.239999999999995 M 143.99999999999997,48.239999999999995 L 143.99999999999997,90.0" style="stroke:black;fill:none;stroke-width:2.0;stroke-dasharray:-;stroke-linecap:round;stroke-linejoin:round;" /><path d="M 143.99999999999997,90.0 L 143.99999999999997,104.39999999999999 L 134.99999999999997,104.39999999999999 L 153.0,104.39999999999999 M 137.7,108.72 L 150.29999999999998,108.72 M 142.2,113.04 L 145.79999999999998,113.04" style="stroke:black;fill:none;stroke-width:2.0;stroke-dasharray:-;stroke-linecap:round;stroke-linejoin:round;" /><path d="M 144.0,-0.0 L 216.0,-0.0 L 288.0,-0.0" style="stroke:black;fill:none;stroke-width:2.0;stroke-dasharray:-;stroke-linecap:round;stroke-linejoin:round;" /><path d="M 324.0,129.60000000000002 L 576.0,129.60000000000002 L 576.0,-43.2 L 324.0,-43.2 L 324.0,129.60000000000002" style="stroke:black;fill:none;stroke-width:2.0;stroke-dasharray:-;stroke-linecap:round;stroke-linejoin:round;" /><path d="M 324.0,-0.0 L 288.0,-0.0" style="stroke:black;fill:none;stroke-width:2.0;stroke-dasharray:-;stroke-linecap:round;stroke-linejoin:round;" /><path d="M 324.0,28.80000000000001 L 288.0,28.80000000000001" style="stroke:black;fill:none;stroke-width:2.0;stroke-dasharray:-;stroke-linecap:round;stroke-linejoin:round;" /><path d="M 324.0,57.60000000000002 L 288.0,57.60000000000002" style="stroke:black;fill:none;stroke-width:2.0;stroke-dasharray:-;stroke-linecap:round;stroke-linejoin:round;" /><path d="M 324.0,86.4 L 288.0,86.4" style="stroke:black;fill:none;stroke-width:2.0;stroke-dasharray:-;stroke-linecap:round;stroke-linejoin:round;" /><path d="M 576.0,-0.0 L 612.0,-0.0" style="stroke:black;fill:none;stroke-width:2.0;stroke-dasharray:-;stroke-linecap:round;stroke-linejoin:round;" /><path d="M 576.0,28.80000000000001 L 612.0,28.80000000000001" style="stroke:black;fill:none;stroke-width:2.0;stroke-dasharray:-;stroke-linecap:round;stroke-linejoin:round;" /><path d="M 576.0,57.60000000000002 L 612.0,57.60000000000002" style="stroke:black;fill:none;stroke-width:2.0;stroke-dasharray:-;stroke-linecap:round;stroke-linejoin:round;" /><path d="M 288.0,86.4 L 273.59999999999997,86.4 L 259.2,86.4" style="stroke:black;fill:none;stroke-width:2.0;stroke-dasharray:-;stroke-linecap:round;stroke-linejoin:round;" /><path d="M 259.2,86.4 L 259.2,100.80000000000001 L 259.2,115.2" style="stroke:black;fill:none;stroke-width:2.0;stroke-dasharray:-;stroke-linecap:round;stroke-linejoin:round;" /><path d="M 259.2,115.2 L 259.2,129.6 L 250.20000000000002,129.6 L 268.2,129.6 M 252.9,133.92000000000002 L 265.5,133.92000000000002 M 257.40000000000003,138.24 L 261.0,138.24" style="stroke:black;fill:none;stroke-width:2.0;stroke-dasharray:-;stroke-linecap:round;stroke-linejoin:round;" /><path d="M 72.0,-0.0 L 72.0,-72.0 L 72.00000000000001,-144.0" style="stroke:black;fill:none;stroke-width:2.0;stroke-dasharray:-;stroke-linecap:round;stroke-linejoin:round;" /><path d="M 72.00000000000001,-144.0 L 72.00000000000001,-126.0 L 73.53009669853589,-125.95578063936823 L 75.10054576629966,-125.82121073546207 L 76.67517889887334,-125.59499248740573 L 78.21773143052864,-125.2779388060165 L 79.69267752939305,-124.87295459202213 L 81.06604837686623,-124.38496983460203 L 82.30621448816585,-123.82082607102905 L 83.3846141567309,-123.1891188223093 L 84.27641124600811,-122.49999963361327 L 84.96106717931501,-121.76494227861593 L 85.42281395453952,-120.99647851218842 L 85.65101728988719,-120.20790945720174 L 85.64042153723074,-119.41299927236284 L 85.3912707225723,-118.62565815608139 L 84.90930292599072,-117.85962198696168 L 84.20561813050634,-117.12813597897559 L 83.29642258337658,-116.44364963691146 L 82.20265555732236,-115.8175300374423 L 80.94950710757865,-115.25980003910793 L 79.56583793108986,-114.77890745037904 L 78.08351468881074,-114.38153047198898 L 76.53667609900552,-114.07242389430375 L 74.96094670381953,-113.8543095918888 L 73.39261641651095,-113.72781383724316 L 71.86780474482049,-113.69145287739975 L 70.42162893887354,-113.7416671055712 L 69.08739522162581,-113.87290304084866 L 67.89583172825903,-114.07774122791692 L 66.87438082035379,-114.34706711118444 L 66.04656707323291,-114.67028094800382 L 65.43145549207348,-115.03554192656563 L 65.04321243436848,-115.43004086629662 L 64.89077935093445,-115.84029522032222 L 64.97766685938909,-116.2524595859248 L 65.30187389269979,-116.65264457177129 L 65.8559337848562,-117.02723667822269 L 66.62708623228868,-117.36321182370635 L 67.59757117066657,-117.64843529646667 L 68.74503779893247,-117.87194122364033 L 70.04305933052414,-118.02418512133006 L 71.4617416167809,-118.0972637093101 L 72.9684116256031,-118.0850969279096 L 74.52836991932341,-117.98356796512574 L 76.10568980181084,-117.79061806906485 L 77.66404473001126,-117.50629396212894 L 79.16754493418206,-117.13274676497318 L 80.58156397899766,-116.674182455016 L 81.87353622936959,-116.13676500046944 L 83.01370685490554,-115.52847440076636 L 83.97581709999258,-114.85892290279156 L 84.73770903735861,-114.1391336255574 L 85.28183587730513,-113.38128669171992 L 85.59566607990944,-112.59843871266543 L 85.67197196327062,-111.80422208758061 L 85.50899616099272,-111.01253104181308 L 85.11049209529776,-110.2372016352319 L 84.48563753365099,-109.49169311017097 L 83.64882321973619,-108.78877791768704 L 82.61932144672625,-108.14024756099825 L 81.42084220578835,-107.55664103068969 L 80.08098713196732,-107.0470020859731 L 78.63061382337365,-106.61867097194585 L 77.103125173754,-106.27711536971563 L 75.53370008550549,-106.02580447270205 L 73.95848328023564,-105.86612908920708 L 72.41375286597544,-105.79736961133618 L 70.9350848324297,-105.81671258796328 L 69.55653371639835,-105.91931552005504 L 68.30984830709328,-106.09841838608297 L 67.22374045408851,-106.34549932903126 L 66.3232238176578,-106.65047091944352 L 65.62903779044277,-107.00191247446251 L 65.1571698578515,-107.38733308242789 L 64.91848739749044,-107.79345927543088 L 64.91848739749044,-108.20654072456911 L 65.15716985785149,-108.61266691757208 L 65.62903779044277,-108.99808752553749 L 66.32322381765779,-109.34952908055648 L 67.22374045408849,-109.65450067096874 L 68.30984830709325,-109.90158161391703 L 69.55653371639832,-110.08068447994495 L 70.93508483242968,-110.18328741203673 L 72.4137528659754,-110.20263038866382 L 73.95848328023561,-110.13387091079294 L 75.53370008550543,-109.97419552729797 L 77.10312517375394,-109.72288463028438 L 78.6306138233736,-109.38132902805415 L 80.08098713196728,-108.95299791402692 L 81.42084220578829,-108.44335896931031 L 82.61932144672622,-107.85975243900178 L 83.64882321973616,-107.21122208231299 L 84.48563753365097,-106.50830688982904 L 85.11049209529774,-105.76279836476812 L 85.50899616099271,-104.98746895818695 L 85.67197196327062,-104.19577791241942 L 85.59566607990944,-103.40156128733459 L 85.28183587730514,-102.61871330828009 L 84.73770903735864,-101.86086637444262 L 83.97581709999258,-101.14107709720844 L 83.01370685490556,-100.47152559923364 L 81.87353622936963,-99.86323499953059 L 80.58156397899768,-99.32581754498402 L 79.16754493418212,-98.86725323502685 L 77.6640447300113,-98.49370603787108 L 76.10568980181087,-98.20938193093515 L 74.52836991932347,-98.01643203487426 L 72.9684116256031,-97.91490307209042 L 71.46174161678093,-97.9027362906899 L 70.04305933052422,-97.97581487866992 L 68.7450377989325,-98.12805877635967 L 67.59757117066661,-98.35156470353331 L 66.62708623228868,-98.63678817629365 L 65.85593378485622,-98.97276332177731 L 65.30187389269982,-99.3473554282287 L 64.97766685938909,-99.7475404140752 L 64.89077935093444,-100.15970477967777 L 65.04321243436847,-100.56995913370338 L 65.43145549207347,-100.96445807343434 L 66.04656707323286,-101.32971905199618 L 66.87438082035376,-101.65293288881556 L 67.89583172825898,-101.92225877208307 L 69.08739522162575,-102.12709695915132 L 70.42162893887351,-102.2583328944288 L 71.86780474482042,-102.30854712260025 L 73.39261641651093,-102.27218616275685 L 74.96094670381947,-102.1456904081112 L 76.53667609900543,-101.92757610569626 L 78.08351468881072,-101.61846952801103 L 79.56583793108982,-101.22109254962098 L 80.94950710757864,-100.74019996089207 L 82.20265555732232,-100.18246996255772 L 83.29642258337654,-99.55635036308855 L 84.20561813050632,-98.87186402102441 L 84.9093029259907,-98.14037801303836 L 85.39127072257227,-97.37434184391864 L 85.64042153723072,-96.58700072763716 L 85.65101728988719,-95.79209054279828 L 85.42281395453949,-95.00352148781158 L 84.96106717931501,-94.23505772138408 L 84.27641124600814,-93.50000036638676 L 83.3846141567309,-92.8108811776907 L 82.30621448816589,-92.17917392897098 L 81.0660483768663,-91.615030165398 L 79.69267752939308,-91.12704540797787 L 78.2177314305287,-90.72206119398352 L 76.67517889887334,-90.40500751259427 L 75.10054576629972,-90.17878926453795 L 73.53009669853594,-90.04421936063177 L 72.00000000000003,-90.0 L 72.00000000000003,-72.0" style="stroke:black;fill:none;stroke-width:2.0;stroke-dasharray:-;stroke-linecap:round;stroke-linejoin:round;" /><path d="M 72.00000000000003,-72.0 L 342.0,-72.0 L 612.0,-72.0" style="stroke:black;fill:none;stroke-width:2.0;stroke-dasharray:-;stroke-linecap:round;stroke-linejoin:round;" /><path d="M 612.0,-72.0 L 612.0,-36.0 L 612.0,-0.0" style="stroke:black;fill:none;stroke-width:2.0;stroke-dasharray:-;stroke-linecap:round;stroke-linejoin:round;" /><text x="84.6" y="28.5" dominant-baseline="central" fill="black" font-size="11" font-family="Arial" text-anchor="start"><tspan x="84.6" dy="11">C13</tspan><tspan x="84.6" dy="11">100µF</tspan></text><text x="156.6" y="28.5" dominant-baseline="central" fill="black" font-size="11" font-family="Arial" text-anchor="start"><tspan x="156.6" dy="11">C16</tspan><tspan x="156.6" dy="11">100nF</tspan></text><text x="321.3" y="-13.700000000000006" dominant-baseline="ideographic" fill="black" font-size="11" font-family="Arial" text-anchor="end"><tspan x="321.3" dy="11">7</tspan></text><text x="329.40000000000003" y="-14.0" dominant-baseline="central" fill="black" font-size="14" font-family="Arial" text-anchor="start"><tspan x="329.40000000000003" dy="14">VIN</tspan></text><text x="321.3" y="15.100000000000001" dominant-baseline="ideographic" fill="black" font-size="11" font-family="Arial" text-anchor="end"><tspan x="321.3" dy="11">2</tspan></text><text x="329.40000000000003" y="14.800000000000011" dominant-baseline="central" fill="black" font-size="14" font-family="Arial" text-anchor="start"><tspan x="329.40000000000003" dy="14">COMP</tspan></text><text x="321.3" y="43.90000000000001" dominant-baseline="ideographic" fill="black" font-size="11" font-family="Arial" text-anchor="end"><tspan x="321.3" dy="11">6</tspan></text><text x="329.40000000000003" y="43.60000000000002" dominant-baseline="central" fill="black" font-size="14" font-family="Arial" text-anchor="start"><tspan x="329.40000000000003" dy="14">Freq.Sync.</tspan></text><text x="321.3" y="72.7" dominant-baseline="ideographic" fill="black" font-size="11" font-family="Arial" text-anchor="end"><tspan x="321.3" dy="11">4</tspan></text><text x="329.40000000000003" y="72.4" dominant-baseline="central" fill="black" font-size="14" font-family="Arial" text-anchor="start"><tspan x="329.40000000000003" dy="14">GND</tspan></text><text x="578.6999999999999" y="-13.700000000000006" dominant-baseline="ideographic" fill="black" font-size="11" font-family="Arial" text-anchor="start"><tspan x="578.6999999999999" dy="11">5</tspan></text><text x="570.6" y="-14.0" dominant-baseline="central" fill="black" font-size="14" font-family="Arial" text-anchor="end"><tspan x="570.6" dy="14">SW</tspan></text><text x="578.6999999999999" y="15.100000000000001" dominant-baseline="ideographic" fill="black" font-size="11" font-family="Arial" text-anchor="start"><tspan x="578.6999999999999" dy="11">1</tspan></text><text x="570.6" y="14.800000000000011" dominant-baseline="central" fill="black" font-size="14" font-family="Arial" text-anchor="end"><tspan x="570.6" dy="14">Freq.Adj.</tspan></text><text x="578.6999999999999" y="43.90000000000001" dominant-baseline="ideographic" fill="black" font-size="11" font-family="Arial" text-anchor="start"><tspan x="578.6999999999999" dy="11">3</tspan></text><text x="570.6" y="43.60000000000002" dominant-baseline="central" fill="black" font-size="14" font-family="Arial" text-anchor="end"><tspan x="570.6" dy="14">FB</tspan></text><text x="453.59999999999997" y="18.6" dominant-baseline="central" fill="black" font-size="14" font-family="Arial" text-anchor="middle"><tspan x="453.59999999999997" dy="14">U5</tspan><tspan x="453.59999999999997" dy="14">LM2586SX-ADJ</tspan></text><text x="75.28137565710252" y="-73.2" dominant-baseline="hanging" fill="black" font-size="12" font-family="Arial" text-anchor="middle"><tspan x="75.28137565710252" dy="12">T1</tspan></text><circle cx="0.0" cy="-0.0" r="2.6999999999999997" style="stroke:black;fill:white;stroke-width:2.0;stroke-dasharray:-;" /><text x="-6.3" y="-12.0" dominant-baseline="central" fill="black" font-size="12" font-family="Arial" text-anchor="end"><tspan x="-6.3" dy="12">+15V IN</tspan></text><circle cx="36.0" cy="-0.0" r="2.6999999999999997" style="stroke:black;fill:black;stroke-width:2.0;stroke-dasharray:-;" /><circle cx="72.0" cy="-0.0" r="2.6999999999999997" style="stroke:black;fill:black;stroke-width:2.0;stroke-dasharray:-;" /><circle cx="144.0" cy="-0.0" r="2.6999999999999997" style="stroke:black;fill:black;stroke-width:2.0;stroke-dasharray:-;" /></svg>