M48
; DRILL file KiCad 10.0.0 date 2026-09-20T22:33:04
; FORMAT={-:-/ absolute / metric / decimal}
; #@! TF.CreationDate,2026-09-20T22:33:04+09:00
; #@! TF.GenerationSoftware,Kicad,Pcbnew,10.0.0
; #@! TF.FileFunction,Plated,1,2,PTH
FMAT,2
METRIC
; #@! TA.AperFunction,Plated,PTH,ViaDrill
T1C0.400
; #@! TA.AperFunction,Plated,PTH,ViaDrill
T2C0.600
; #@! TA.AperFunction,Plated,PTH,ComponentDrill
T3C1.020
; #@! TA.AperFunction,Plated,PTH,ComponentDrill
T4C1.020
; #@! TA.AperFunction,Plated,PTH,ComponentDrill
T5C1.300
%
G90
G05
T1
X12.59Y28.0
X12.59Y25.0
X12.59Y22.0
X15.34Y31.5
X15.34Y18.5
X17.84Y31.5
X17.84Y18.5
X20.34Y31.5
X20.34Y18.5
X23.09Y28.0
X23.09Y25.0
X23.09Y22.0
X32.0Y36.8
X39.4Y80.5
X40.0Y31.0
X46.2Y63.5
X48.0Y29.0
X48.0Y23.0
X50.0Y21.0
X52.0Y21.0
X54.0Y21.0
X57.0Y7.2
X57.5Y2.05
X58.0Y25.0
X64.999Y72.0
X64.999Y69.0
X64.999Y66.0
X67.944Y75.334
X67.944Y62.666
X67.999Y54.0
X67.999Y51.0
X67.999Y48.0
X67.999Y28.0
X67.999Y25.0
X67.999Y22.0
X70.444Y75.334
X70.444Y62.666
X70.944Y57.334
X70.944Y44.666
X70.944Y31.334
X70.944Y18.666
X72.944Y75.334
X72.944Y62.666
X73.444Y57.334
X73.444Y44.666
X73.444Y31.334
X73.444Y18.666
X75.889Y72.0
X75.889Y69.0
X75.889Y66.0
X75.944Y57.334
X75.944Y44.666
X75.944Y31.334
X75.944Y18.666
X78.889Y54.0
X78.889Y51.0
X78.889Y48.0
X78.889Y28.0
X78.889Y25.0
X78.889Y22.0
T2
X16.233Y37.881
X27.684Y58.25
X30.556Y26.7
X31.444Y23.3
X32.164Y59.723
X34.5Y67.09
X34.504Y30.648
X37.7Y45.737
X38.61Y21.748
X40.0Y63.8
X43.762Y79.331
X51.178Y81.058
X51.968Y70.0
X54.0Y36.5
X55.079Y7.226
X58.005Y12.08
X59.068Y13.132
X61.07Y9.341
X61.268Y28.903
X61.482Y60.986
X61.707Y7.015
X79.044Y59.383
X79.715Y64.13
X80.323Y20.242
X81.973Y76.75
X85.0Y40.5
X85.007Y55.122
X85.057Y48.447
X87.0Y62.0
X87.602Y56.696
X88.541Y65.707
X90.0Y44.0
X90.0Y18.0
X90.567Y74.699
X92.5Y58.0
X95.5Y76.9
X95.5Y40.0
X96.0Y16.2
X98.5Y54.15
X98.5Y28.55
X99.387Y57.85
X106.0Y43.741
T3
X32.51Y13.5
X32.51Y10.96
X35.05Y13.5
X35.05Y10.96
X37.59Y13.5
X37.59Y10.96
X40.13Y13.5
X40.13Y10.96
X42.67Y13.5
X42.67Y10.96
X45.21Y13.5
X45.21Y10.96
X47.75Y13.5
X47.75Y10.96
X50.29Y13.5
X50.29Y10.96
X72.61Y13.5
X72.61Y10.96
X75.15Y13.5
X75.15Y10.96
X77.69Y13.5
X77.69Y10.96
X80.23Y13.5
X80.23Y10.96
X82.77Y13.5
X82.77Y10.96
X85.31Y13.5
X85.31Y10.96
X87.85Y13.5
X87.85Y10.96
X90.39Y13.5
X90.39Y10.96
T4
X37.7Y78.45
X37.7Y75.91
X37.7Y73.37
X37.7Y70.83
X37.7Y68.29
X37.7Y65.75
T5
X7.0Y39.54
X7.0Y34.46
X7.0Y26.54
X7.0Y21.46
M30
