%TF.GenerationSoftware,KiCad,Pcbnew,10.0.0*%
%TF.CreationDate,2026-09-20T21:20:49+09:00*%
%TF.ProjectId,board-b,626f6172-642d-4622-9e6b-696361645f70,rev?*%
%TF.SameCoordinates,Original*%
%TF.FileFunction,Legend,Bot*%
%TF.FilePolarity,Positive*%
%FSLAX46Y46*%
G04 Gerber Fmt 4.6, Leading zero omitted, Abs format (unit mm)*
G04 Created by KiCad (PCBNEW 10.0.0) date 2026-09-20 21:20:49*
%MOMM*%
%LPD*%
G01*
G04 APERTURE LIST*
%ADD10C,0.150000*%
%ADD11C,0.250000*%
%ADD12C,0.060000*%
%ADD13R,2.000000X2.000000*%
%ADD14C,2.000000*%
%ADD15C,3.200000*%
%ADD16R,1.800000X1.800000*%
%ADD17C,1.800000*%
%ADD18C,1.600000*%
G04 APERTURE END LIST*
D10*
X37999999Y80636443D02*
X37999999Y79993586D01*
X37999999Y79993586D02*
X38042856Y79865015D01*
X38042856Y79865015D02*
X38128570Y79779300D01*
X38128570Y79779300D02*
X38257142Y79736443D01*
X38257142Y79736443D02*
X38342856Y79736443D01*
X37142856Y80636443D02*
X37571428Y80636443D01*
X37571428Y80636443D02*
X37614285Y80207872D01*
X37614285Y80207872D02*
X37571428Y80250729D01*
X37571428Y80250729D02*
X37485714Y80293586D01*
X37485714Y80293586D02*
X37271428Y80293586D01*
X37271428Y80293586D02*
X37185714Y80250729D01*
X37185714Y80250729D02*
X37142856Y80207872D01*
X37142856Y80207872D02*
X37099999Y80122158D01*
X37099999Y80122158D02*
X37099999Y79907872D01*
X37099999Y79907872D02*
X37142856Y79822158D01*
X37142856Y79822158D02*
X37185714Y79779300D01*
X37185714Y79779300D02*
X37271428Y79736443D01*
X37271428Y79736443D02*
X37485714Y79736443D01*
X37485714Y79736443D02*
X37571428Y79779300D01*
X37571428Y79779300D02*
X37614285Y79822158D01*
%TO.C,J5*%
D11*
X36450000Y78770000D02*
X38950000Y78770000D01*
X36450000Y63030000D02*
X36450000Y78770000D01*
X38950000Y78770000D02*
X38950000Y63030000D01*
X38950000Y65820000D02*
X36450000Y65820000D01*
X38950000Y63030000D02*
X36450000Y63030000D01*
D12*
X36480000Y63030000D02*
G75*
G02*
X36420000Y63030000I-30000J0D01*
G01*
X36420000Y63030000D02*
G75*
G02*
X36480000Y63030000I30000J0D01*
G01*
%TD*%
%LPC*%
D13*
%TO.C,J6*%
X7000000Y46460000D03*
D14*
X7000000Y51540000D03*
%TD*%
D15*
%TO.C,H5*%
X4000000Y4000000D03*
%TD*%
%TO.C,H6*%
X106000000Y4000000D03*
%TD*%
D16*
%TO.C,J10*%
X50290000Y13500000D03*
D17*
X50290000Y10960000D03*
X47750000Y13500000D03*
X47750000Y10960000D03*
X45210000Y13500000D03*
X45210000Y10960000D03*
X42670000Y13500000D03*
X42670000Y10960000D03*
X40130000Y13500000D03*
X40130000Y10960000D03*
X37590000Y13500000D03*
X37590000Y10960000D03*
X35050000Y13500000D03*
X35050000Y10960000D03*
X32510000Y13500000D03*
X32510000Y10960000D03*
%TD*%
D16*
%TO.C,J11*%
X90390000Y13500000D03*
D17*
X90390000Y10960000D03*
X87850000Y13500000D03*
X87850000Y10960000D03*
X85310000Y13500000D03*
X85310000Y10960000D03*
X82770000Y13500000D03*
X82770000Y10960000D03*
X80230000Y13500000D03*
X80230000Y10960000D03*
X77690000Y13500000D03*
X77690000Y10960000D03*
X75150000Y13500000D03*
X75150000Y10960000D03*
X72610000Y13500000D03*
X72610000Y10960000D03*
%TD*%
D15*
%TO.C,H2*%
X4000000Y81000000D03*
%TD*%
%TO.C,H4*%
X106000000Y81000000D03*
%TD*%
D13*
%TO.C,J7*%
X7000000Y33460000D03*
D14*
X7000000Y38540000D03*
%TD*%
D15*
%TO.C,H3*%
X32600000Y70800000D03*
%TD*%
%TO.C,H1*%
X4000000Y62000000D03*
%TD*%
D16*
%TO.C,J5*%
X37700000Y64550000D03*
D18*
X37700000Y67090000D03*
X37700000Y69630000D03*
X37700000Y72170000D03*
X37700000Y74710000D03*
X37700000Y77250000D03*
%TD*%
%LPD*%
M02*
