%TF.GenerationSoftware,KiCad,Pcbnew,10.0.0*%
%TF.CreationDate,2026-09-20T21:20:49+09:00*%
%TF.ProjectId,board-b,626f6172-642d-4622-9e6b-696361645f70,rev?*%
%TF.SameCoordinates,Original*%
%TF.FileFunction,Copper,L2,Bot*%
%TF.FilePolarity,Positive*%
%FSLAX46Y46*%
G04 Gerber Fmt 4.6, Leading zero omitted, Abs format (unit mm)*
G04 Created by KiCad (PCBNEW 10.0.0) date 2026-09-20 21:20:49*
%MOMM*%
%LPD*%
G01*
G04 APERTURE LIST*
%TA.AperFunction,ComponentPad*%
%ADD10R,2.000000X2.000000*%
%TD*%
%TA.AperFunction,ComponentPad*%
%ADD11C,2.000000*%
%TD*%
%TA.AperFunction,ComponentPad*%
%ADD12R,1.800000X1.800000*%
%TD*%
%TA.AperFunction,ComponentPad*%
%ADD13C,1.800000*%
%TD*%
%TA.AperFunction,ComponentPad*%
%ADD14C,1.600000*%
%TD*%
%TA.AperFunction,ViaPad*%
%ADD15C,1.000000*%
%TD*%
%TA.AperFunction,ViaPad*%
%ADD16C,1.200000*%
%TD*%
%TA.AperFunction,Conductor*%
%ADD17C,1.000000*%
%TD*%
%TA.AperFunction,Conductor*%
%ADD18C,0.250000*%
%TD*%
%TA.AperFunction,Conductor*%
%ADD19C,1.500000*%
%TD*%
G04 APERTURE END LIST*
D10*
%TO.P,J6,1*%
%TO.N,GND*%
X7000000Y46460000D03*
D11*
%TO.P,J6,2*%
%TO.N,-12V rail*%
X7000000Y51540000D03*
%TD*%
D12*
%TO.P,J10,1*%
%TO.N,-12V rail*%
X50290000Y13500000D03*
D13*
%TO.P,J10,2*%
X50290000Y10960000D03*
%TO.P,J10,3*%
%TO.N,GND*%
X47750000Y13500000D03*
%TO.P,J10,4*%
X47750000Y10960000D03*
%TO.P,J10,5*%
X45210000Y13500000D03*
%TO.P,J10,6*%
X45210000Y10960000D03*
%TO.P,J10,7*%
X42670000Y13500000D03*
%TO.P,J10,8*%
X42670000Y10960000D03*
%TO.P,J10,9*%
%TO.N,+12V rail*%
X40130000Y13500000D03*
%TO.P,J10,10*%
X40130000Y10960000D03*
%TO.P,J10,11*%
%TO.N,+5V rail*%
X37590000Y13500000D03*
%TO.P,J10,12*%
X37590000Y10960000D03*
%TO.P,J10,13*%
%TO.N,CV rail*%
X35050000Y13500000D03*
%TO.P,J10,14*%
X35050000Y10960000D03*
%TO.P,J10,15*%
%TO.N,GATE rail*%
X32510000Y13500000D03*
%TO.P,J10,16*%
X32510000Y10960000D03*
%TD*%
D12*
%TO.P,J11,1*%
%TO.N,-12V rail*%
X90390000Y13500000D03*
D13*
%TO.P,J11,2*%
X90390000Y10960000D03*
%TO.P,J11,3*%
%TO.N,GND*%
X87850000Y13500000D03*
%TO.P,J11,4*%
X87850000Y10960000D03*
%TO.P,J11,5*%
X85310000Y13500000D03*
%TO.P,J11,6*%
X85310000Y10960000D03*
%TO.P,J11,7*%
X82770000Y13500000D03*
%TO.P,J11,8*%
X82770000Y10960000D03*
%TO.P,J11,9*%
%TO.N,+12V rail*%
X80230000Y13500000D03*
%TO.P,J11,10*%
X80230000Y10960000D03*
%TO.P,J11,11*%
%TO.N,+5V rail*%
X77690000Y13500000D03*
%TO.P,J11,12*%
X77690000Y10960000D03*
%TO.P,J11,13*%
%TO.N,CV rail*%
X75150000Y13500000D03*
%TO.P,J11,14*%
X75150000Y10960000D03*
%TO.P,J11,15*%
%TO.N,GATE rail*%
X72610000Y13500000D03*
%TO.P,J11,16*%
X72610000Y10960000D03*
%TD*%
D10*
%TO.P,J7,1*%
%TO.N,+5V rail*%
X7000000Y33460000D03*
D11*
%TO.P,J7,2*%
%TO.N,+12V rail*%
X7000000Y38540000D03*
%TD*%
D12*
%TO.P,J5,1*%
%TO.N,+15V INPUT*%
X37700000Y64550000D03*
D14*
%TO.P,J5,2*%
X37700000Y67090000D03*
%TO.P,J5,3*%
%TO.N,ATT*%
X37700000Y69630000D03*
%TO.P,J5,4*%
%TO.N,PDOK*%
X37700000Y72170000D03*
%TO.P,J5,5*%
%TO.N,GND*%
X37700000Y74710000D03*
%TO.P,J5,6*%
X37700000Y77250000D03*
%TD*%
D15*
%TO.N,GND*%
X48000000Y29000000D03*
X58000000Y25000000D03*
X78889000Y54000000D03*
X75889000Y69000000D03*
X70944000Y57334000D03*
X78889000Y48000000D03*
X67999000Y48000000D03*
X64999000Y72000000D03*
X72944000Y75334000D03*
X73444000Y44666000D03*
X72944000Y62666000D03*
X75889000Y66000000D03*
X67999000Y51000000D03*
X50000000Y21000000D03*
X46200000Y63500000D03*
X78889000Y51000000D03*
X75944000Y44666000D03*
X70444000Y75334000D03*
X67944000Y75334000D03*
X67944000Y62666000D03*
X64999000Y66000000D03*
X73444000Y57334000D03*
X70444000Y62666000D03*
X75889000Y72000000D03*
X75944000Y57334000D03*
X70944000Y44666000D03*
X67999000Y54000000D03*
X54000000Y21000000D03*
X64999000Y69000000D03*
X48000000Y23000000D03*
X40000000Y31000000D03*
X52000000Y21000000D03*
D16*
X16233300Y37881500D03*
D15*
%TO.N,{slash}DC-DC Conversion{slash}-14.145V PRE*%
X23090000Y22000000D03*
X20340000Y31500000D03*
X75944000Y31334000D03*
X17840000Y31500000D03*
X23090000Y28000000D03*
X78889000Y22000000D03*
X70944000Y18666000D03*
X12590000Y25000000D03*
X17840000Y18500000D03*
X15340000Y18500000D03*
X78889000Y25000000D03*
X70944000Y31334000D03*
X73444000Y18666000D03*
X12590000Y28000000D03*
X67999000Y22000000D03*
X32000000Y36800000D03*
X23090000Y25000000D03*
X12590000Y22000000D03*
D16*
X51178400Y81058500D03*
D15*
X67999000Y25000000D03*
X75944000Y18666000D03*
X15340000Y31500000D03*
X20340000Y18500000D03*
D16*
X54000000Y36500000D03*
D15*
X67999000Y28000000D03*
X73444000Y31334000D03*
X78889000Y28000000D03*
D16*
%TO.N,Net-(U8-OUT)*%
X96000000Y16200000D03*
X90000000Y18000000D03*
D15*
X57500000Y2050000D03*
D16*
X98500000Y28550000D03*
%TO.N,{slash}DC-DC Conversion{slash}+6.519V PRE*%
X85056800Y48447300D03*
X79044500Y59382900D03*
%TO.N,{slash}DC-DC Conversion{slash}+13.44V PRE*%
X61481600Y60985900D03*
X79715000Y64130300D03*
X43762500Y79330800D03*
X51968400Y70000000D03*
%TO.N,Net-(U6-OUT)*%
X87000000Y62000000D03*
D15*
X57000000Y7200000D03*
D16*
X92500000Y58000000D03*
X95500000Y76900000D03*
%TO.N,U6 ADJ*%
X81972800Y76750100D03*
X90567500Y74699100D03*
%TO.N,U7 ADJ*%
X85006900Y55122100D03*
X87601800Y56696200D03*
%TO.N,+15V INPUT*%
X37700000Y45737500D03*
%TO.N,Net-(U3-Feedback)*%
X32164500Y59722700D03*
X27684100Y58250000D03*
%TO.N,Net-(U7-OUT)*%
X61267900Y28902900D03*
X95500000Y40000000D03*
X90000000Y44000000D03*
X55079300Y7226100D03*
X98500000Y54150000D03*
X85000000Y40500000D03*
%TO.N,+5V rail*%
X99387300Y57850000D03*
X106000000Y43740700D03*
%TO.N,Net-(D3-K)*%
X31443700Y23300000D03*
X38609700Y21748300D03*
%TO.N,Net-(U4-Feedback)*%
X30555700Y26700000D03*
X34503800Y30648100D03*
%TO.N,+12V rail*%
X80322700Y20242400D03*
X88540600Y65707200D03*
%TO.N,CV rail*%
X58005200Y12080500D03*
X61706700Y7014800D03*
%TO.N,GATE rail*%
X61070300Y9341500D03*
X59067800Y13131900D03*
%TD*%
%TO.N,GND*%
D17*
X75889000Y62666000D02*
X64998999Y62666000D01*
X46200000Y66000000D02*
X64999000Y66000000D01*
X46200000Y66000000D02*
X46200000Y63500000D01*
X50000000Y21000000D02*
X48000000Y23000000D01*
X14351800Y36000000D02*
X16233300Y37881500D01*
X70444000Y75334000D02*
X70444000Y62666000D01*
X48000000Y23000000D02*
X48000000Y29000000D01*
X67999000Y57334000D02*
X78889000Y57334000D01*
X78889000Y44666000D02*
X67999000Y44666000D01*
X64998999Y69000000D02*
X75889000Y69000000D01*
X47750000Y10960000D02*
X47750000Y13500000D01*
X64998999Y62666000D02*
X64998999Y75334000D01*
X37700000Y74710000D02*
X37700000Y77250000D01*
X75889000Y75334000D02*
X75889000Y62666000D01*
X73444000Y57334000D02*
X73444000Y44666000D01*
X47750000Y18750000D02*
X50000000Y21000000D01*
X78889000Y57334000D02*
X78889000Y44666000D01*
X67999000Y44666000D02*
X67999000Y57334000D01*
X46200000Y66210000D02*
X46200000Y66000000D01*
X47750000Y13500000D02*
X47750000Y18750000D01*
X64998999Y75334000D02*
X75889000Y75334000D01*
X64999000Y69000000D02*
X64999000Y72000000D01*
X87850000Y10960000D02*
X87850000Y13500000D01*
X37700000Y74710000D02*
X46200000Y66210000D01*
X67999000Y51000000D02*
X78889000Y51000000D01*
%TO.N,{slash}DC-DC Conversion{slash}-14.145V PRE*%
X67999000Y25000000D02*
X78889000Y25000000D01*
X23090000Y18500000D02*
X12590000Y18500000D01*
X17840000Y18500000D02*
X15340000Y18500000D01*
X78889000Y31334000D02*
X78889000Y18666000D01*
X23090000Y25000000D02*
X34000000Y36000000D01*
D18*
X32000000Y36800000D02*
X30000000Y36800000D01*
D17*
X34000000Y36000000D02*
X54000000Y36500000D01*
X67999000Y18666000D02*
X67999000Y31334000D01*
X39311300Y81058500D02*
X51178400Y81058500D01*
X12590000Y25000000D02*
X23090000Y25000000D01*
X17840000Y31500000D02*
X17840000Y18500000D01*
X12590000Y18500000D02*
X12590000Y31500000D01*
X78889000Y18666000D02*
X67999000Y18666000D01*
X54000000Y36500000D02*
X67999000Y31334000D01*
X67999000Y31334000D02*
X78889000Y31334000D01*
D18*
X30000000Y36800000D02*
X23090000Y31500000D01*
D17*
X23090000Y31500000D02*
X23090000Y18500000D01*
X73444000Y31334000D02*
X73444000Y18666000D01*
X32000000Y36800000D02*
X35271700Y40071700D01*
X12590000Y31500000D02*
X23090000Y31500000D01*
X35271700Y77018900D02*
X39311300Y81058500D01*
X35271700Y40071700D02*
X35271700Y77018900D01*
%TO.N,Net-(U8-OUT)*%
D18*
X90500000Y9300000D02*
X92000000Y9300000D01*
X91750000Y15300000D02*
X91750000Y15550000D01*
X60000000Y4050000D02*
X60250000Y4300000D01*
X90750000Y17300000D02*
X90750000Y17550000D01*
D17*
X90000000Y18000000D02*
X98500000Y18000000D01*
X96000000Y16200000D02*
X96000000Y18000000D01*
D18*
X91500000Y15800000D02*
X91500000Y16050000D01*
X92000000Y9300000D02*
X92000000Y15050000D01*
X92000000Y15050000D02*
X91750000Y15300000D01*
X91250000Y16550000D02*
X91000000Y16800000D01*
X91750000Y15550000D02*
X91500000Y15800000D01*
X91000000Y17050000D02*
X90750000Y17300000D01*
X60250000Y4300000D02*
X60500000Y4300000D01*
X59500000Y4050000D02*
X60000000Y4050000D01*
X91250000Y16300000D02*
X91250000Y16550000D01*
X60750000Y4550000D02*
X85750000Y4550000D01*
X90500000Y17800000D02*
X90500000Y18050000D01*
D17*
X98500000Y18000000D02*
X98500000Y28550000D01*
D18*
X91500000Y16050000D02*
X91250000Y16300000D01*
X57500000Y2050000D02*
X59500000Y4050000D01*
X90750000Y17550000D02*
X90500000Y17800000D01*
X60500000Y4300000D02*
X60750000Y4550000D01*
X85750000Y4550000D02*
X90500000Y9300000D01*
X91000000Y16800000D02*
X91000000Y17050000D01*
%TO.N,-12V rail*%
D17*
X49038300Y8051600D02*
X50290000Y9303300D01*
X2250000Y25250300D02*
X19448700Y8051600D01*
X50290000Y10960000D02*
X50290000Y9303300D01*
X50290000Y10960000D02*
X50290000Y13500000D01*
X19448700Y8051600D02*
X49038300Y8051600D01*
X85093100Y5663100D02*
X90390000Y10960000D01*
X50290000Y9303300D02*
X53930200Y5663100D01*
X90390000Y10960000D02*
X90390000Y13500000D01*
X7000000Y51540000D02*
X2250000Y46790000D01*
X53930200Y5663100D02*
X85093100Y5663100D01*
X2250000Y46790000D02*
X2250000Y25250300D01*
%TO.N,{slash}DC-DC Conversion{slash}+6.519V PRE*%
X96892400Y77444400D02*
X96892400Y60282900D01*
X92080600Y75408000D02*
X94975500Y78302900D01*
X92080600Y72419000D02*
X92080600Y75408000D01*
X79044500Y59382900D02*
X92080600Y72419000D01*
X96033900Y78302900D02*
X96892400Y77444400D01*
X94975500Y78302900D02*
X96033900Y78302900D01*
X96892400Y60282900D02*
X85056800Y48447300D01*
%TO.N,{slash}DC-DC Conversion{slash}+13.44V PRE*%
X43762500Y78205900D02*
X43762500Y79330800D01*
X76570600Y60985900D02*
X79715000Y64130300D01*
X61481600Y60985900D02*
X76570600Y60985900D01*
X51968400Y70000000D02*
X43762500Y78205900D01*
%TO.N,Net-(U6-OUT)*%
X87000000Y62000000D02*
X95500000Y62000000D01*
X66229600Y16429600D02*
X78486600Y16429600D01*
X92500000Y58000000D02*
X92500000Y62000000D01*
X83229600Y21172600D02*
X83229600Y58229600D01*
X57000000Y7200000D02*
X66229600Y16429600D01*
X83229600Y58229600D02*
X87000000Y62000000D01*
X95500000Y62000000D02*
X95500000Y76900000D01*
X78486600Y16429600D02*
X83229600Y21172600D01*
%TO.N,U6 ADJ*%
D18*
X81972800Y76750100D02*
X88516500Y76750100D01*
X88516500Y76750100D02*
X90567500Y74699100D01*
%TO.N,U7 ADJ*%
X85006900Y55122100D02*
X86027700Y55122100D01*
X86027700Y55122100D02*
X87601800Y56696200D01*
%TO.N,+15V INPUT*%
D19*
X37700000Y67090000D02*
X37700000Y64550000D01*
X37700000Y64550000D02*
X37700000Y45737500D01*
%TO.N,Net-(U3-Feedback)*%
D18*
X30691800Y58250000D02*
X27684100Y58250000D01*
X32164500Y59722700D02*
X30691800Y58250000D01*
%TO.N,Net-(U7-OUT)*%
D17*
X95500000Y40000000D02*
X95500000Y44000000D01*
X61267900Y13414700D02*
X55079300Y7226100D01*
X85000000Y40500000D02*
X90000000Y44000000D01*
X61267900Y28902900D02*
X61267900Y13414700D01*
X90000000Y44000000D02*
X98500000Y44000000D01*
X98500000Y44000000D02*
X98500000Y54150000D01*
%TO.N,+5V rail*%
X106000000Y41810000D02*
X106000000Y43740700D01*
X77690000Y10960000D02*
X77690000Y13500000D01*
X37590000Y10960000D02*
X37590000Y13500000D01*
X106000000Y51237300D02*
X99387300Y57850000D01*
X77690000Y13500000D02*
X106000000Y41810000D01*
X106000000Y43740700D02*
X106000000Y51237300D01*
%TO.N,Net-(D3-K)*%
X32995400Y21748300D02*
X31443700Y23300000D01*
X38609700Y21748300D02*
X32995400Y21748300D01*
%TO.N,Net-(U4-Feedback)*%
D18*
X34503800Y30648100D02*
X30555700Y26700000D01*
%TO.N,+12V rail*%
D17*
X19967200Y9303300D02*
X38473300Y9303300D01*
X80230000Y10960000D02*
X80230000Y13500000D01*
X10000000Y19270500D02*
X19967200Y9303300D01*
X38473300Y9303300D02*
X40130000Y10960000D01*
X80322700Y20242400D02*
X80322700Y57489300D01*
X7000000Y38540000D02*
X10000000Y35540000D01*
X10000000Y35540000D02*
X10000000Y19270500D01*
X40130000Y10960000D02*
X40130000Y13500000D01*
X80322700Y57489300D02*
X88540600Y65707200D01*
%TO.N,CV rail*%
D18*
X71204800Y7014800D02*
X61706700Y7014800D01*
X75150000Y10960000D02*
X75150000Y13500000D01*
X48365100Y29882900D02*
X58005200Y20242800D01*
X75150000Y10960000D02*
X71204800Y7014800D01*
X47643100Y29882900D02*
X48365100Y29882900D01*
X46699600Y28939400D02*
X47643100Y29882900D01*
X46699600Y25149600D02*
X46699600Y28939400D01*
X35050000Y10960000D02*
X35050000Y13500000D01*
X35050000Y13500000D02*
X46699600Y25149600D01*
X58005200Y20242800D02*
X58005200Y12080500D01*
%TO.N,GATE rail*%
X72610000Y10960000D02*
X72610000Y13500000D01*
X32510000Y13500000D02*
X40017000Y21007000D01*
X32510000Y10960000D02*
X32510000Y13500000D01*
X59067800Y19889900D02*
X59067800Y13131900D01*
X48573100Y30384600D02*
X59067800Y19889900D01*
X62688800Y10960000D02*
X61070300Y9341500D01*
X72610000Y10960000D02*
X62688800Y10960000D01*
X40017000Y21007000D02*
X40017000Y22966400D01*
X47435200Y30384600D02*
X48573100Y30384600D01*
X40017000Y22966400D02*
X47435200Y30384600D01*
%TD*%
%TA.AperFunction,Conductor*%
%TO.N,{slash}DC-DC Conversion{slash}-14.145V PRE*%
G36*
X79465239Y35980315D02*
G01*
X79510994Y35927511D01*
X79522200Y35876000D01*
X79522200Y20687607D01*
X79512761Y20640155D01*
X79456806Y20505068D01*
X79456803Y20505059D01*
X79422200Y20331096D01*
X79422200Y20153705D01*
X79456803Y19979742D01*
X79456806Y19979733D01*
X79524683Y19815860D01*
X79524690Y19815847D01*
X79623235Y19668366D01*
X79623238Y19668362D01*
X79748661Y19542939D01*
X79748665Y19542936D01*
X79896146Y19444391D01*
X79896158Y19444384D01*
X80012570Y19396166D01*
X80059272Y19376822D01*
X80113676Y19332982D01*
X80135741Y19266688D01*
X80118462Y19198988D01*
X80099501Y19174580D01*
X78191341Y17266419D01*
X78130018Y17232934D01*
X78103660Y17230100D01*
X66150752Y17230100D01*
X66148179Y17229588D01*
X66146806Y17229712D01*
X66144694Y17229503D01*
X66144654Y17229904D01*
X66078588Y17235823D01*
X66023415Y17278692D01*
X66000177Y17344584D01*
X66000000Y17351208D01*
X66000000Y35876000D01*
X66019685Y35943039D01*
X66072489Y35988794D01*
X66124000Y36000000D01*
X79398200Y36000000D01*
X79465239Y35980315D01*
G37*
%TD.AperFunction*%
%TD*%
%TA.AperFunction,Conductor*%
%TO.N,GND*%
G36*
X48154592Y29452379D02*
G01*
X48179836Y29444966D01*
X48232582Y29413670D01*
X57530773Y20115479D01*
X57551923Y20087227D01*
X57564531Y20064138D01*
X57579700Y20004709D01*
X57579700Y12963323D01*
X57574676Y12928384D01*
X57568764Y12908252D01*
X57538250Y12856297D01*
X57533540Y12851502D01*
X57513970Y12835294D01*
X57431157Y12779960D01*
X57305742Y12654545D01*
X57305737Y12654539D01*
X57207194Y12507061D01*
X57207185Y12507046D01*
X57207177Y12507028D01*
X57139309Y12343178D01*
X57139301Y12343155D01*
X57139299Y12343148D01*
X57104700Y12169201D01*
X57104700Y11991801D01*
X57139299Y11817854D01*
X57139301Y11817847D01*
X57139309Y11817824D01*
X57207177Y11653974D01*
X57207185Y11653956D01*
X57207194Y11653941D01*
X57305736Y11506464D01*
X57305737Y11506463D01*
X57305742Y11506457D01*
X57431155Y11381044D01*
X57431161Y11381039D01*
X57431162Y11381038D01*
X57578649Y11282489D01*
X57578662Y11282483D01*
X57691218Y11235861D01*
X57721571Y11217853D01*
X57732376Y11209146D01*
X57772225Y11151754D01*
X57774720Y11081928D01*
X57773425Y11076854D01*
X57740957Y11019838D01*
X54836707Y8115588D01*
X54817916Y8100166D01*
X54797990Y8086852D01*
X54776553Y8075394D01*
X54652757Y8024117D01*
X54652749Y8024112D01*
X54505258Y7925560D01*
X54505255Y7925558D01*
X54379842Y7800145D01*
X54379837Y7800139D01*
X54379836Y7800138D01*
X54281294Y7652661D01*
X54281285Y7652646D01*
X54281277Y7652628D01*
X54213409Y7488778D01*
X54213401Y7488755D01*
X54213399Y7488748D01*
X54178800Y7314801D01*
X54178800Y7137401D01*
X54213399Y6963454D01*
X54213401Y6963447D01*
X54213409Y6963424D01*
X54281277Y6799574D01*
X54281286Y6799554D01*
X54281290Y6799546D01*
X54281298Y6799533D01*
X54287702Y6789950D01*
X54308503Y6726014D01*
X54308616Y6723168D01*
X54310407Y6717452D01*
X54291928Y6650070D01*
X54239953Y6603375D01*
X54170984Y6592193D01*
X54136946Y6601528D01*
X54135326Y6602233D01*
X54097126Y6628252D01*
X51139426Y9585952D01*
X51118274Y9614208D01*
X51105667Y9637297D01*
X51090500Y9696722D01*
X51090500Y9993546D01*
X51095522Y10028479D01*
X51102934Y10053724D01*
X51134229Y10106467D01*
X51151248Y10123485D01*
X51205690Y10177927D01*
X51316760Y10330801D01*
X51402547Y10499168D01*
X51460940Y10678882D01*
X51474500Y10764498D01*
X51490500Y10865514D01*
X51490500Y11054487D01*
X51460940Y11241119D01*
X51423449Y11356503D01*
X51423449Y11356504D01*
X51423449Y11356505D01*
X51411499Y11393280D01*
X51402547Y11420832D01*
X51402545Y11420835D01*
X51402545Y11420837D01*
X51400294Y11425254D01*
X51399987Y11426042D01*
X51399262Y11427281D01*
X51357207Y11509818D01*
X51335580Y11552263D01*
X51316760Y11589199D01*
X51205690Y11742073D01*
X51139426Y11808337D01*
X51118274Y11836593D01*
X51105667Y11859682D01*
X51090500Y11919107D01*
X51090500Y12157672D01*
X51095523Y12192608D01*
X51099927Y12207606D01*
X51137672Y12266357D01*
X51139041Y12267544D01*
X51193920Y12295024D01*
X51201479Y12296668D01*
X51227832Y12299501D01*
X51234850Y12299501D01*
X51234856Y12299501D01*
X51234864Y12299501D01*
X51234879Y12299503D01*
X51234882Y12299503D01*
X51234888Y12299504D01*
X51235019Y12299513D01*
X51235736Y12299603D01*
X51259987Y12302414D01*
X51259987Y12302415D01*
X51259990Y12302415D01*
X51259991Y12302415D01*
X51259991Y12302416D01*
X51260102Y12302428D01*
X51261862Y12303242D01*
X51362765Y12347794D01*
X51442206Y12427235D01*
X51487585Y12530009D01*
X51490500Y12555135D01*
X51490499Y14444864D01*
X51490497Y14444883D01*
X51487586Y14469988D01*
X51487585Y14469990D01*
X51487585Y14469991D01*
X51442206Y14572765D01*
X51362765Y14652206D01*
X51362764Y14652207D01*
X51346425Y14659421D01*
X51259993Y14697585D01*
X51259994Y14697585D01*
X51234868Y14700500D01*
X51234865Y14700500D01*
X49345143Y14700500D01*
X49345127Y14700499D01*
X49345113Y14700498D01*
X49327255Y14698427D01*
X49320012Y14697587D01*
X49320011Y14697587D01*
X49320005Y14697586D01*
X49319559Y14697453D01*
X49317303Y14696391D01*
X49217236Y14652208D01*
X49137793Y14572766D01*
X49092414Y14469995D01*
X49091844Y14467290D01*
X49091589Y14462876D01*
X49089502Y14444883D01*
X49089500Y14444869D01*
X49089500Y12555144D01*
X49089502Y12555118D01*
X49092003Y12533546D01*
X49092414Y12530007D01*
X49092546Y12529562D01*
X49093609Y12527304D01*
X49137791Y12427240D01*
X49137793Y12427236D01*
X49137794Y12427235D01*
X49217235Y12347794D01*
X49320009Y12302415D01*
X49345135Y12299500D01*
X49347659Y12299501D01*
X49382601Y12294480D01*
X49397598Y12290077D01*
X49456377Y12252305D01*
X49456384Y12252297D01*
X49457571Y12250927D01*
X49485017Y12196102D01*
X49486663Y12188540D01*
X49489500Y12162167D01*
X49489500Y11926455D01*
X49484476Y11891516D01*
X49477064Y11866276D01*
X49445769Y11813534D01*
X49369819Y11737585D01*
X49365684Y11730200D01*
X49334066Y11686682D01*
X49263239Y11589200D01*
X49221080Y11506457D01*
X49177454Y11420837D01*
X49119059Y11241119D01*
X49119059Y11241117D01*
X49119058Y11241114D01*
X49089500Y11054493D01*
X49089500Y10865509D01*
X49117908Y10686149D01*
X49119059Y10678882D01*
X49177454Y10499164D01*
X49263240Y10330801D01*
X49374310Y10177927D01*
X49374312Y10177925D01*
X49440573Y10111664D01*
X49461723Y10083412D01*
X49474331Y10060323D01*
X49489500Y10000894D01*
X49489500Y9704070D01*
X49484476Y9669133D01*
X49477064Y9643892D01*
X49445769Y9591148D01*
X48755648Y8901027D01*
X48727397Y8879878D01*
X48704309Y8867270D01*
X48644879Y8852100D01*
X39471370Y8852100D01*
X39436435Y8857123D01*
X39425581Y8860310D01*
X39366803Y8898084D01*
X39337778Y8961640D01*
X39347718Y9030789D01*
X39350908Y9037776D01*
X39376017Y9073940D01*
X40012654Y9710577D01*
X40040904Y9731725D01*
X40063996Y9744333D01*
X40123421Y9759500D01*
X40224485Y9759500D01*
X40224486Y9759500D01*
X40411118Y9789060D01*
X40438598Y9797989D01*
X40590832Y9847453D01*
X40594850Y9849500D01*
X40623935Y9864320D01*
X40759199Y9933240D01*
X40912073Y10044310D01*
X41045690Y10177927D01*
X41156760Y10330801D01*
X41242547Y10499168D01*
X41300940Y10678882D01*
X41314500Y10764498D01*
X41330500Y10865514D01*
X41330500Y11054487D01*
X41300940Y11241119D01*
X41263449Y11356503D01*
X41263449Y11356504D01*
X41263449Y11356505D01*
X41251499Y11393280D01*
X41242547Y11420832D01*
X41242545Y11420835D01*
X41242545Y11420837D01*
X41240294Y11425254D01*
X41239987Y11426042D01*
X41239262Y11427281D01*
X41197207Y11509818D01*
X41175580Y11552263D01*
X41156760Y11589199D01*
X41045690Y11742073D01*
X40979426Y11808337D01*
X40958274Y11836593D01*
X40945667Y11859682D01*
X40930500Y11919107D01*
X40930500Y12533546D01*
X40935522Y12568479D01*
X40942934Y12593724D01*
X40974232Y12646470D01*
X40982302Y12654539D01*
X41045690Y12717927D01*
X41156760Y12870801D01*
X41242547Y13039168D01*
X41300940Y13218882D01*
X41305184Y13245677D01*
X41330500Y13405514D01*
X41330500Y13594487D01*
X41300940Y13781119D01*
X41242545Y13960837D01*
X41156759Y14129200D01*
X41045690Y14282073D01*
X40912073Y14415690D01*
X40759199Y14526760D01*
X40590836Y14612546D01*
X40411118Y14670941D01*
X40390150Y14674262D01*
X40224491Y14700500D01*
X40224486Y14700500D01*
X40224481Y14700500D01*
X40035519Y14700500D01*
X40035514Y14700500D01*
X40035509Y14700500D01*
X39848886Y14670942D01*
X39848884Y14670942D01*
X39848881Y14670941D01*
X39669163Y14612546D01*
X39610556Y14582684D01*
X39500807Y14526764D01*
X39500794Y14526756D01*
X39422660Y14469989D01*
X39422661Y14469988D01*
X39359798Y14424315D01*
X39352417Y14420182D01*
X39209816Y14277581D01*
X39205686Y14270206D01*
X39166610Y14216422D01*
X39166610Y14216421D01*
X39103240Y14129201D01*
X39017452Y13960835D01*
X38983440Y13856154D01*
X38945017Y13799317D01*
X38943978Y13798450D01*
X38937605Y13789131D01*
X38873242Y13761942D01*
X38804398Y13773866D01*
X38775271Y13793788D01*
X38772982Y13795889D01*
X38738912Y13848912D01*
X38736559Y13856154D01*
X38702545Y13960837D01*
X38616759Y14129200D01*
X38505690Y14282073D01*
X38372073Y14415690D01*
X38219199Y14526760D01*
X38050836Y14612546D01*
X37871118Y14670941D01*
X37850150Y14674262D01*
X37684491Y14700500D01*
X37684486Y14700500D01*
X37684481Y14700500D01*
X37495519Y14700500D01*
X37495514Y14700500D01*
X37495509Y14700500D01*
X37308883Y14670942D01*
X37168841Y14625440D01*
X37168842Y14625439D01*
X37129163Y14612546D01*
X37129162Y14612545D01*
X37098704Y14597026D01*
X37058350Y14589449D01*
X37024972Y14582684D01*
X36959862Y14608031D01*
X36918792Y14664556D01*
X36914802Y14734312D01*
X36927603Y14767195D01*
X36930522Y14772363D01*
X36950806Y14799061D01*
X46943419Y24791675D01*
X46943426Y24791679D01*
X46960862Y24809115D01*
X46960863Y24809115D01*
X47040085Y24888337D01*
X47096103Y24985363D01*
X47117681Y25065892D01*
X47125100Y25093581D01*
X47125100Y25205618D01*
X47125100Y28693961D01*
X47130122Y28728894D01*
X47137534Y28754139D01*
X47168828Y28806881D01*
X47770424Y29408477D01*
X47798674Y29429625D01*
X47821766Y29442233D01*
X47881191Y29457400D01*
X48119660Y29457400D01*
X48154592Y29452379D01*
G37*
%TD.AperFunction*%
%TA.AperFunction,Conductor*%
G36*
X53583558Y35686868D02*
G01*
X53583674Y35686867D01*
X53583870Y35686843D01*
X53590482Y35686316D01*
X53595345Y35685412D01*
X53613500Y35683147D01*
X53618411Y35681916D01*
X53635712Y35676199D01*
X53737334Y35634106D01*
X53742798Y35633020D01*
X53742801Y35633018D01*
X53903664Y35601021D01*
X53906398Y35600297D01*
X53911306Y35599500D01*
X54085486Y35599500D01*
X54101271Y35598492D01*
X54132493Y35594484D01*
X54159631Y35587826D01*
X65613430Y31361072D01*
X65669508Y31319396D01*
X65694153Y31254017D01*
X65694500Y31244741D01*
X65694500Y17351211D01*
X65694608Y17343075D01*
X65694786Y17336422D01*
X65706308Y17274126D01*
X65712069Y17242977D01*
X65730727Y17190073D01*
X65735312Y17177071D01*
X65735883Y17175681D01*
X65735916Y17175359D01*
X65736347Y17174138D01*
X65736054Y17174035D01*
X65743122Y17106188D01*
X65711642Y17043812D01*
X65708847Y17040926D01*
X62292688Y13624767D01*
X62264438Y13603618D01*
X62254511Y13598197D01*
X62186238Y13583343D01*
X62120773Y13607757D01*
X62078900Y13663689D01*
X62076213Y13670895D01*
X62068400Y13714215D01*
X62068400Y28445481D01*
X62070781Y28469665D01*
X62075457Y28493175D01*
X62082512Y28516427D01*
X62106885Y28575270D01*
X62106885Y28575272D01*
X62133794Y28640234D01*
X62168400Y28814209D01*
X62168400Y28991591D01*
X62168400Y28991594D01*
X62168400Y28991775D01*
X62167974Y28993731D01*
X62133796Y29165559D01*
X62133793Y29165568D01*
X62065916Y29329441D01*
X62065909Y29329454D01*
X61967364Y29476935D01*
X61967361Y29476939D01*
X61967356Y29476945D01*
X61841943Y29602358D01*
X61841937Y29602363D01*
X61841936Y29602364D01*
X61694459Y29700906D01*
X61694458Y29700907D01*
X61694453Y29700910D01*
X61694440Y29700917D01*
X61641177Y29722979D01*
X61530576Y29768791D01*
X61530553Y29768799D01*
X61530546Y29768801D01*
X61356598Y29803400D01*
X61356594Y29803400D01*
X61356591Y29803400D01*
X61179209Y29803400D01*
X61179206Y29803400D01*
X61179201Y29803400D01*
X61005252Y29768800D01*
X61005245Y29768799D01*
X61005222Y29768791D01*
X60841372Y29700923D01*
X60841354Y29700915D01*
X60841339Y29700906D01*
X60693862Y29602364D01*
X60693861Y29602363D01*
X60693855Y29602358D01*
X60568442Y29476945D01*
X60568437Y29476939D01*
X60568436Y29476938D01*
X60469894Y29329461D01*
X60469885Y29329446D01*
X60469877Y29329428D01*
X60402009Y29165578D01*
X60402001Y29165555D01*
X60401999Y29165548D01*
X60367400Y28991601D01*
X60367400Y28991596D01*
X60367400Y28814205D01*
X60367400Y28814203D01*
X60367399Y28814203D01*
X60402000Y28640260D01*
X60402007Y28640229D01*
X60453287Y28516427D01*
X60460343Y28493170D01*
X60465017Y28469671D01*
X60467400Y28445481D01*
X60467400Y13815471D01*
X60462376Y13780534D01*
X60454964Y13755293D01*
X60423669Y13702549D01*
X60130829Y13409710D01*
X60102576Y13388559D01*
X60090394Y13381907D01*
X60022121Y13367055D01*
X59956658Y13391471D01*
X59952460Y13394613D01*
X59912213Y13446424D01*
X59865813Y13558447D01*
X59865811Y13558450D01*
X59865809Y13558454D01*
X59767264Y13705935D01*
X59767261Y13705939D01*
X59767256Y13705945D01*
X59641842Y13831359D01*
X59563229Y13883888D01*
X59536973Y13907474D01*
X59523521Y13923571D01*
X59497272Y13977818D01*
X59495902Y13984400D01*
X59493300Y14009668D01*
X59493300Y19945916D01*
X59493300Y19945918D01*
X59464303Y20054137D01*
X59408285Y20151163D01*
X59329063Y20230385D01*
X48834363Y30725085D01*
X48769679Y30762431D01*
X48737339Y30781102D01*
X48737338Y30781103D01*
X48737337Y30781103D01*
X48629118Y30810100D01*
X48629117Y30810100D01*
X47379182Y30810100D01*
X47270970Y30781106D01*
X47270959Y30781102D01*
X47270958Y30781101D01*
X47173937Y30725086D01*
X47173928Y30725079D01*
X39676521Y23227672D01*
X39676514Y23227663D01*
X39620499Y23130642D01*
X39620498Y23130641D01*
X39620494Y23130630D01*
X39591500Y23022418D01*
X39591500Y22326394D01*
X39576739Y22267718D01*
X39571430Y22257834D01*
X39571378Y22257862D01*
X39568631Y22248505D01*
X39515828Y22202748D01*
X39446670Y22192803D01*
X39412805Y22202745D01*
X39410682Y22203715D01*
X39359090Y22247618D01*
X39309168Y22322329D01*
X39309161Y22322339D01*
X39309156Y22322345D01*
X39183743Y22447758D01*
X39183737Y22447763D01*
X39183736Y22447764D01*
X39036259Y22546306D01*
X39036258Y22546307D01*
X39036253Y22546310D01*
X39036240Y22546317D01*
X39036226Y22546323D01*
X38872376Y22614191D01*
X38872353Y22614199D01*
X38872346Y22614201D01*
X38698398Y22648800D01*
X38698394Y22648800D01*
X38698391Y22648800D01*
X38521009Y22648800D01*
X38521006Y22648800D01*
X38521001Y22648800D01*
X38347052Y22614200D01*
X38347045Y22614199D01*
X38347017Y22614189D01*
X38223225Y22562913D01*
X38199970Y22555858D01*
X38176478Y22551184D01*
X38152281Y22548800D01*
X33396170Y22548800D01*
X33361234Y22553823D01*
X33335992Y22561235D01*
X33283247Y22592531D01*
X32333182Y23542596D01*
X32317764Y23561382D01*
X32304448Y23581312D01*
X32292993Y23602743D01*
X32244043Y23720920D01*
X32242394Y23725527D01*
X32241711Y23726550D01*
X32241711Y23726551D01*
X32143164Y23874035D01*
X32143161Y23874039D01*
X32143156Y23874045D01*
X32017743Y23999458D01*
X32017737Y23999463D01*
X32017736Y23999464D01*
X31870259Y24098006D01*
X31870258Y24098007D01*
X31870253Y24098010D01*
X31870240Y24098017D01*
X31870226Y24098023D01*
X31706376Y24165891D01*
X31706353Y24165899D01*
X31706346Y24165901D01*
X31532398Y24200500D01*
X31532394Y24200500D01*
X31532391Y24200500D01*
X31355009Y24200500D01*
X31355006Y24200500D01*
X31355001Y24200500D01*
X31181052Y24165900D01*
X31181045Y24165899D01*
X31181022Y24165891D01*
X31017172Y24098023D01*
X31017154Y24098015D01*
X31017139Y24098006D01*
X30869662Y23999464D01*
X30869661Y23999463D01*
X30869655Y23999458D01*
X30744242Y23874045D01*
X30744237Y23874039D01*
X30744236Y23874038D01*
X30645694Y23726561D01*
X30645685Y23726546D01*
X30645677Y23726528D01*
X30577809Y23562678D01*
X30577801Y23562655D01*
X30577799Y23562648D01*
X30551117Y23428501D01*
X30518732Y23366590D01*
X30458017Y23332016D01*
X30388247Y23335755D01*
X30331575Y23376621D01*
X30305994Y23441639D01*
X30305500Y23452692D01*
X30305500Y25680533D01*
X30325185Y25747572D01*
X30377989Y25793327D01*
X30447147Y25803271D01*
X30453668Y25802154D01*
X30459383Y25801017D01*
X30462107Y25800295D01*
X30467006Y25799500D01*
X30644393Y25799500D01*
X30648514Y25799500D01*
X30656369Y25801884D01*
X30705754Y25811706D01*
X30818358Y25834104D01*
X30818360Y25834106D01*
X30818362Y25834106D01*
X30818366Y25834106D01*
X30821554Y25835427D01*
X30829535Y25838727D01*
X30829576Y25838749D01*
X30982240Y25901984D01*
X30982240Y25901985D01*
X30982247Y25901987D01*
X31129735Y26000536D01*
X31255164Y26125965D01*
X31353713Y26273453D01*
X31421594Y26437334D01*
X31456200Y26611309D01*
X31456200Y26788691D01*
X31456200Y26788694D01*
X31437756Y26881413D01*
X31435867Y26916647D01*
X31437738Y26937556D01*
X31457534Y26994472D01*
X31461221Y27000099D01*
X31477239Y27019794D01*
X34180427Y29722982D01*
X34208672Y29744127D01*
X34227095Y29754187D01*
X34285408Y29769348D01*
X34292141Y29769408D01*
X34317422Y29767031D01*
X34399248Y29750755D01*
X34415105Y29747600D01*
X34592493Y29747600D01*
X34596614Y29747600D01*
X34604467Y29749983D01*
X34650482Y29759136D01*
X34650483Y29759136D01*
X34766453Y29782203D01*
X34766453Y29782204D01*
X34766458Y29782204D01*
X34766461Y29782206D01*
X34766466Y29782206D01*
X34769654Y29783527D01*
X34777635Y29786827D01*
X34777676Y29786849D01*
X34930340Y29850084D01*
X34930340Y29850085D01*
X34930347Y29850087D01*
X35077835Y29948636D01*
X35203264Y30074065D01*
X35301813Y30221553D01*
X35369694Y30385434D01*
X35404300Y30559409D01*
X35404300Y30736791D01*
X35404300Y30736794D01*
X35404300Y30736975D01*
X35403874Y30738931D01*
X35369696Y30910759D01*
X35369693Y30910768D01*
X35301816Y31074641D01*
X35301809Y31074654D01*
X35203264Y31222135D01*
X35203261Y31222139D01*
X35203256Y31222145D01*
X35077843Y31347558D01*
X35077837Y31347563D01*
X35077836Y31347564D01*
X34930359Y31446106D01*
X34930358Y31446107D01*
X34930353Y31446110D01*
X34930340Y31446117D01*
X34930326Y31446123D01*
X34766476Y31513991D01*
X34766453Y31513999D01*
X34766446Y31514001D01*
X34592498Y31548600D01*
X34592494Y31548600D01*
X34592491Y31548600D01*
X34415109Y31548600D01*
X34415106Y31548600D01*
X34415101Y31548600D01*
X34241152Y31514000D01*
X34241145Y31513999D01*
X34241122Y31513991D01*
X34077272Y31446123D01*
X34077254Y31446115D01*
X34077239Y31446106D01*
X33929762Y31347564D01*
X33929761Y31347563D01*
X33929755Y31347558D01*
X33804342Y31222145D01*
X33804337Y31222139D01*
X33804336Y31222138D01*
X33705794Y31074661D01*
X33705785Y31074646D01*
X33705777Y31074628D01*
X33637909Y30910778D01*
X33637901Y30910755D01*
X33637899Y30910748D01*
X33603300Y30736801D01*
X33603300Y30736796D01*
X33603300Y30559405D01*
X33603300Y30559403D01*
X33603299Y30559403D01*
X33621741Y30466695D01*
X33623631Y30431452D01*
X33621761Y30410553D01*
X33601964Y30353632D01*
X33598280Y30348011D01*
X33582251Y30328302D01*
X30879073Y27625124D01*
X30850822Y27603974D01*
X30844460Y27600500D01*
X30832405Y27593918D01*
X30774084Y27578754D01*
X30767364Y27578694D01*
X30742066Y27581072D01*
X30711707Y27587111D01*
X30644397Y27600500D01*
X30644395Y27600500D01*
X30644391Y27600500D01*
X30467009Y27600500D01*
X30467006Y27600500D01*
X30453685Y27597851D01*
X30384094Y27604083D01*
X30328919Y27646948D01*
X30305677Y27712839D01*
X30305500Y27719470D01*
X30305500Y31087204D01*
X30325185Y31154243D01*
X30341459Y31174524D01*
X34294077Y35159748D01*
X34322231Y35181005D01*
X34345693Y35193942D01*
X34402459Y35209313D01*
X53564708Y35688369D01*
X53583558Y35686868D01*
G37*
%TD.AperFunction*%
%TA.AperFunction,Conductor*%
G36*
X109393106Y84494977D02*
G01*
X109408104Y84490573D01*
X109466855Y84452828D01*
X109468042Y84451459D01*
X109495518Y84396598D01*
X109497163Y84389040D01*
X109500000Y84362669D01*
X109500000Y641830D01*
X109494975Y606886D01*
X109490570Y591888D01*
X109452827Y533145D01*
X109451458Y531958D01*
X109396597Y504482D01*
X109389039Y502837D01*
X109362668Y500000D01*
X641830Y500000D01*
X606889Y505025D01*
X591890Y509430D01*
X533144Y547173D01*
X531957Y548542D01*
X504477Y603417D01*
X502832Y610979D01*
X500000Y637332D01*
X500000Y4121290D01*
X2149500Y4121290D01*
X2149500Y3878712D01*
X2181160Y3638219D01*
X2243947Y3403896D01*
X2336772Y3179797D01*
X2336773Y3179793D01*
X2336780Y3179780D01*
X2458060Y2969717D01*
X2458062Y2969714D01*
X2458281Y2969385D01*
X2459284Y2968121D01*
X2605726Y2777272D01*
X2605730Y2777267D01*
X2605733Y2777264D01*
X2605739Y2777257D01*
X2777256Y2605740D01*
X2777263Y2605734D01*
X2777266Y2605732D01*
X2777270Y2605728D01*
X2890321Y2518982D01*
X2969711Y2458064D01*
X3179788Y2336776D01*
X3403900Y2243946D01*
X3638211Y2181162D01*
X3818586Y2157416D01*
X3878710Y2149500D01*
X3878711Y2149500D01*
X3878712Y2149500D01*
X4121283Y2149500D01*
X4121289Y2149500D01*
X4169388Y2155833D01*
X4361789Y2181162D01*
X4596100Y2243946D01*
X4820212Y2336776D01*
X5030289Y2458064D01*
X5222738Y2605735D01*
X5394265Y2777262D01*
X5541936Y2969711D01*
X5663224Y3179788D01*
X5756054Y3403900D01*
X5818838Y3638211D01*
X5850500Y3878712D01*
X5850500Y4121288D01*
X5818838Y4361789D01*
X5756054Y4596100D01*
X5663224Y4820212D01*
X5541936Y5030289D01*
X5394265Y5222738D01*
X5394260Y5222744D01*
X5394259Y5222745D01*
X5394247Y5222758D01*
X5222751Y5394253D01*
X5222743Y5394261D01*
X5222736Y5394267D01*
X5222733Y5394270D01*
X5222728Y5394274D01*
X5031879Y5540716D01*
X5030615Y5541719D01*
X5030286Y5541938D01*
X5030283Y5541940D01*
X4820220Y5663220D01*
X4820207Y5663227D01*
X4820203Y5663228D01*
X4596104Y5756053D01*
X4361781Y5818840D01*
X4121290Y5850500D01*
X4121289Y5850500D01*
X4121288Y5850500D01*
X3878712Y5850500D01*
X3878711Y5850500D01*
X3878710Y5850500D01*
X3638217Y5818840D01*
X3403894Y5756053D01*
X3179790Y5663226D01*
X3179782Y5663222D01*
X2969706Y5541933D01*
X2969697Y5541927D01*
X2777270Y5394274D01*
X2777255Y5394260D01*
X2777247Y5394253D01*
X2605747Y5222753D01*
X2605740Y5222745D01*
X2605726Y5222730D01*
X2458073Y5030303D01*
X2458067Y5030294D01*
X2336778Y4820218D01*
X2336774Y4820210D01*
X2243947Y4596106D01*
X2181160Y4361783D01*
X2149500Y4121290D01*
X500000Y4121290D01*
X500000Y25171452D01*
X1449499Y25171452D01*
X1480257Y25016829D01*
X1480264Y25016798D01*
X1540598Y24871135D01*
X1540603Y24871126D01*
X1540613Y24871109D01*
X1628211Y24740010D01*
X1628212Y24740009D01*
X1628217Y24740003D01*
X18826911Y7541311D01*
X18891604Y7476618D01*
X18938408Y7429813D01*
X18938411Y7429810D01*
X19026810Y7370744D01*
X19069514Y7342210D01*
X19069527Y7342203D01*
X19215198Y7281865D01*
X19215203Y7281863D01*
X19362213Y7252621D01*
X19364947Y7251897D01*
X19369855Y7251100D01*
X49117144Y7251100D01*
X49121264Y7251100D01*
X49129114Y7253482D01*
X49271797Y7281863D01*
X49417479Y7342206D01*
X49548589Y7429811D01*
X50189714Y8070937D01*
X50217964Y8092085D01*
X50231688Y8099579D01*
X50299950Y8114430D01*
X50301761Y8114300D01*
X50359955Y8094933D01*
X50366468Y8090747D01*
X50387108Y8074114D01*
X53308411Y5152811D01*
X53419911Y5041311D01*
X53419912Y5041310D01*
X53551014Y4953710D01*
X53551027Y4953703D01*
X53696698Y4893365D01*
X53696703Y4893363D01*
X53696707Y4893363D01*
X53696708Y4893362D01*
X53696971Y4893310D01*
X53696973Y4893309D01*
X53697004Y4893303D01*
X53851351Y4862600D01*
X53851354Y4862600D01*
X53851357Y4862600D01*
X53851358Y4862600D01*
X59895081Y4862600D01*
X59930013Y4857579D01*
X59940865Y4854392D01*
X59999644Y4816618D01*
X60028670Y4753063D01*
X60018727Y4683904D01*
X60018726Y4683902D01*
X60016733Y4679538D01*
X59991620Y4643369D01*
X59988736Y4640485D01*
X59988736Y4640484D01*
X59872461Y4524210D01*
X59843850Y4502866D01*
X59843252Y4502543D01*
X59829022Y4494866D01*
X59821132Y4490558D01*
X59820978Y4490474D01*
X59818448Y4489933D01*
X59761908Y4475500D01*
X59443981Y4475500D01*
X59335760Y4446503D01*
X59238737Y4390486D01*
X59238728Y4390479D01*
X57738330Y2890081D01*
X57710079Y2868931D01*
X57701179Y2864072D01*
X57691662Y2858875D01*
X57633341Y2843711D01*
X57626622Y2843651D01*
X57601327Y2846028D01*
X57578842Y2850500D01*
X57421158Y2850500D01*
X57421155Y2850500D01*
X57421153Y2850500D01*
X57266527Y2819743D01*
X57266496Y2819736D01*
X57120833Y2759402D01*
X57120824Y2759397D01*
X57120807Y2759387D01*
X56989708Y2671789D01*
X56989707Y2671788D01*
X56989701Y2671783D01*
X56878217Y2560299D01*
X56878212Y2560293D01*
X56878211Y2560292D01*
X56790613Y2429193D01*
X56790603Y2429176D01*
X56790598Y2429167D01*
X56730264Y2283504D01*
X56730257Y2283473D01*
X56699500Y2128850D01*
X56699500Y2128847D01*
X56699500Y1971154D01*
X56699500Y1971152D01*
X56699499Y1971152D01*
X56730257Y1816529D01*
X56730264Y1816498D01*
X56790598Y1670835D01*
X56790603Y1670826D01*
X56790613Y1670809D01*
X56878211Y1539710D01*
X56878212Y1539709D01*
X56878217Y1539703D01*
X56989701Y1428219D01*
X56989707Y1428214D01*
X56989711Y1428211D01*
X57120814Y1340610D01*
X57120827Y1340603D01*
X57266498Y1280265D01*
X57266503Y1280263D01*
X57421153Y1249501D01*
X57421156Y1249500D01*
X57421158Y1249500D01*
X57578844Y1249500D01*
X57578845Y1249501D01*
X57733497Y1280263D01*
X57879179Y1340606D01*
X58010289Y1428211D01*
X58121789Y1539711D01*
X58209394Y1670821D01*
X58269737Y1816503D01*
X58300500Y1971158D01*
X58300500Y2128842D01*
X58300500Y2128845D01*
X58297014Y2146366D01*
X58295124Y2181604D01*
X58296995Y2202513D01*
X58316788Y2259425D01*
X58320477Y2265055D01*
X58336497Y2284752D01*
X59627324Y3575577D01*
X59655574Y3596725D01*
X59678666Y3609333D01*
X59738091Y3624500D01*
X60056016Y3624500D01*
X60056018Y3624500D01*
X60164237Y3653497D01*
X60261263Y3709515D01*
X60377327Y3825580D01*
X60405574Y3846725D01*
X60428666Y3859333D01*
X60488091Y3874500D01*
X60556016Y3874500D01*
X60556018Y3874500D01*
X60664237Y3903497D01*
X60761263Y3959515D01*
X60877327Y4075580D01*
X60905574Y4096725D01*
X60928666Y4109333D01*
X60975514Y4121290D01*
X104149500Y4121290D01*
X104149500Y3878712D01*
X104181160Y3638219D01*
X104243947Y3403896D01*
X104336772Y3179797D01*
X104336773Y3179793D01*
X104336780Y3179780D01*
X104458060Y2969717D01*
X104458062Y2969714D01*
X104458281Y2969385D01*
X104459284Y2968121D01*
X104605726Y2777272D01*
X104605730Y2777267D01*
X104605733Y2777264D01*
X104605739Y2777257D01*
X104777256Y2605740D01*
X104777263Y2605734D01*
X104777266Y2605732D01*
X104777270Y2605728D01*
X104890321Y2518982D01*
X104969711Y2458064D01*
X105179788Y2336776D01*
X105403900Y2243946D01*
X105638211Y2181162D01*
X105818586Y2157416D01*
X105878710Y2149500D01*
X105878711Y2149500D01*
X105878712Y2149500D01*
X106121283Y2149500D01*
X106121289Y2149500D01*
X106169388Y2155833D01*
X106361789Y2181162D01*
X106596100Y2243946D01*
X106820212Y2336776D01*
X107030289Y2458064D01*
X107222738Y2605735D01*
X107394265Y2777262D01*
X107541936Y2969711D01*
X107663224Y3179788D01*
X107756054Y3403900D01*
X107818838Y3638211D01*
X107850500Y3878712D01*
X107850500Y4121288D01*
X107818838Y4361789D01*
X107756054Y4596100D01*
X107663224Y4820212D01*
X107541936Y5030289D01*
X107394265Y5222738D01*
X107394260Y5222744D01*
X107394259Y5222745D01*
X107394247Y5222758D01*
X107222751Y5394253D01*
X107222743Y5394261D01*
X107222736Y5394267D01*
X107222733Y5394270D01*
X107222728Y5394274D01*
X107031879Y5540716D01*
X107030615Y5541719D01*
X107030286Y5541938D01*
X107030283Y5541940D01*
X106820220Y5663220D01*
X106820207Y5663227D01*
X106820203Y5663228D01*
X106596104Y5756053D01*
X106361781Y5818840D01*
X106121290Y5850500D01*
X106121289Y5850500D01*
X106121288Y5850500D01*
X105878712Y5850500D01*
X105878711Y5850500D01*
X105878710Y5850500D01*
X105638217Y5818840D01*
X105403894Y5756053D01*
X105179790Y5663226D01*
X105179782Y5663222D01*
X104969706Y5541933D01*
X104969697Y5541927D01*
X104777270Y5394274D01*
X104777255Y5394260D01*
X104777247Y5394253D01*
X104605747Y5222753D01*
X104605740Y5222745D01*
X104605726Y5222730D01*
X104458073Y5030303D01*
X104458067Y5030294D01*
X104336778Y4820218D01*
X104336774Y4820210D01*
X104243947Y4596106D01*
X104181160Y4361783D01*
X104149500Y4121290D01*
X60975514Y4121290D01*
X60988091Y4124500D01*
X85806016Y4124500D01*
X85806018Y4124500D01*
X85914237Y4153497D01*
X86011263Y4209515D01*
X90627324Y8825577D01*
X90655574Y8846725D01*
X90678666Y8859333D01*
X90738091Y8874500D01*
X92056016Y8874500D01*
X92056018Y8874500D01*
X92164237Y8903497D01*
X92261263Y8959515D01*
X92340485Y9038737D01*
X92396503Y9135763D01*
X92425500Y9243982D01*
X92425500Y15106018D01*
X92396503Y15214237D01*
X92340485Y15311263D01*
X92261263Y15390485D01*
X92224426Y15427322D01*
X92203274Y15455578D01*
X92190667Y15478667D01*
X92175500Y15538092D01*
X92175500Y15606017D01*
X92175500Y15606018D01*
X92161072Y15659863D01*
X92146503Y15714237D01*
X92146502Y15714240D01*
X92129330Y15743983D01*
X92092021Y15808604D01*
X92092019Y15808606D01*
X92090485Y15811263D01*
X92011263Y15890485D01*
X91974220Y15927528D01*
X91974011Y15927739D01*
X91973744Y15928232D01*
X91953274Y15955578D01*
X91940667Y15978667D01*
X91925500Y16038092D01*
X91925500Y16106019D01*
X91924084Y16111301D01*
X91924083Y16111305D01*
X91924082Y16111309D01*
X91896503Y16214237D01*
X91840484Y16311264D01*
X91724426Y16427322D01*
X91703274Y16455578D01*
X91690667Y16478667D01*
X91675500Y16538092D01*
X91675500Y16606017D01*
X91675500Y16606018D01*
X91669999Y16626547D01*
X91646503Y16714237D01*
X91620326Y16759577D01*
X91590485Y16811263D01*
X91511263Y16890485D01*
X91474426Y16927322D01*
X91453274Y16955578D01*
X91440667Y16978667D01*
X91425500Y17038092D01*
X91425500Y17057671D01*
X91430523Y17092607D01*
X91432548Y17099501D01*
X91434927Y17107606D01*
X91472672Y17166356D01*
X91474041Y17167543D01*
X91528920Y17195023D01*
X91536479Y17196667D01*
X91562832Y17199500D01*
X95057670Y17199500D01*
X95092606Y17194477D01*
X95107604Y17190073D01*
X95166355Y17152328D01*
X95167542Y17150959D01*
X95195018Y17096098D01*
X95196663Y17088540D01*
X95199500Y17062169D01*
X95199500Y16657420D01*
X95197116Y16633224D01*
X95192442Y16609731D01*
X95185387Y16586475D01*
X95134111Y16462683D01*
X95134101Y16462655D01*
X95134099Y16462648D01*
X95099500Y16288701D01*
X95099500Y16111304D01*
X95134099Y15937354D01*
X95134101Y15937347D01*
X95134109Y15937324D01*
X95201977Y15773474D01*
X95201985Y15773456D01*
X95201994Y15773441D01*
X95300536Y15625964D01*
X95300537Y15625963D01*
X95300542Y15625957D01*
X95425955Y15500544D01*
X95425961Y15500539D01*
X95425965Y15500536D01*
X95573446Y15401991D01*
X95573459Y15401984D01*
X95641619Y15373752D01*
X95737334Y15334106D01*
X95737336Y15334106D01*
X95737341Y15334104D01*
X95903680Y15301018D01*
X95906403Y15300296D01*
X95911306Y15299500D01*
X96088693Y15299500D01*
X96092814Y15299500D01*
X96100669Y15301884D01*
X96147842Y15311266D01*
X96262658Y15334104D01*
X96262660Y15334106D01*
X96262662Y15334106D01*
X96262666Y15334106D01*
X96265854Y15335427D01*
X96273835Y15338727D01*
X96273876Y15338749D01*
X96426540Y15401984D01*
X96426540Y15401985D01*
X96426547Y15401987D01*
X96574035Y15500536D01*
X96699464Y15625965D01*
X96798013Y15773453D01*
X96865894Y15937334D01*
X96866411Y15939929D01*
X96888964Y16053318D01*
X96900500Y16111309D01*
X96900500Y16288691D01*
X96900500Y16288694D01*
X96900500Y16288875D01*
X96900074Y16290831D01*
X96865896Y16462659D01*
X96865893Y16462668D01*
X96814609Y16586480D01*
X96807557Y16609731D01*
X96802881Y16633233D01*
X96800500Y16657420D01*
X96800500Y17057671D01*
X96805523Y17092607D01*
X96807548Y17099501D01*
X96809927Y17107606D01*
X96847672Y17166356D01*
X96849041Y17167543D01*
X96903920Y17195023D01*
X96911479Y17196667D01*
X96937832Y17199500D01*
X98582964Y17199500D01*
X98590814Y17201882D01*
X98733497Y17230263D01*
X98879179Y17290606D01*
X99010289Y17378211D01*
X99121789Y17489711D01*
X99209394Y17620821D01*
X99269737Y17766503D01*
X99300500Y17921158D01*
X99300500Y28092581D01*
X99302882Y28116769D01*
X99307557Y28140275D01*
X99314609Y28163521D01*
X99364211Y28283274D01*
X99365378Y28285830D01*
X99365887Y28287321D01*
X99365892Y28287330D01*
X99365894Y28287334D01*
X99392007Y28418613D01*
X99400500Y28461307D01*
X99400500Y28638803D01*
X99400401Y28639243D01*
X99400237Y28640011D01*
X99365896Y28812659D01*
X99365893Y28812668D01*
X99365256Y28814205D01*
X99348923Y28853637D01*
X99348921Y28853641D01*
X99348921Y28853644D01*
X99298021Y28976528D01*
X99298016Y28976541D01*
X99298009Y28976554D01*
X99199464Y29124035D01*
X99199461Y29124039D01*
X99199456Y29124045D01*
X99074043Y29249458D01*
X99074037Y29249463D01*
X99074036Y29249464D01*
X98926559Y29348006D01*
X98926558Y29348007D01*
X98926553Y29348010D01*
X98926540Y29348017D01*
X98926526Y29348023D01*
X98762676Y29415891D01*
X98762653Y29415899D01*
X98762646Y29415901D01*
X98588698Y29450500D01*
X98588694Y29450500D01*
X98588691Y29450500D01*
X98411309Y29450500D01*
X98411306Y29450500D01*
X98411301Y29450500D01*
X98237352Y29415900D01*
X98237345Y29415899D01*
X98237322Y29415891D01*
X98073472Y29348023D01*
X98073454Y29348015D01*
X98073439Y29348006D01*
X97925962Y29249464D01*
X97925961Y29249463D01*
X97925955Y29249458D01*
X97800542Y29124045D01*
X97800537Y29124039D01*
X97800536Y29124038D01*
X97701994Y28976561D01*
X97701985Y28976546D01*
X97701977Y28976528D01*
X97634109Y28812678D01*
X97634101Y28812655D01*
X97634099Y28812648D01*
X97599500Y28638701D01*
X97599500Y28638696D01*
X97599500Y28461305D01*
X97599500Y28461303D01*
X97599499Y28461303D01*
X97634100Y28287360D01*
X97634107Y28287329D01*
X97685387Y28163527D01*
X97692443Y28140270D01*
X97697117Y28116770D01*
X97699500Y28092581D01*
X97699500Y18942330D01*
X97694475Y18907386D01*
X97690070Y18892388D01*
X97652327Y18833645D01*
X97650958Y18832458D01*
X97596097Y18804982D01*
X97588539Y18803337D01*
X97562168Y18800500D01*
X90457419Y18800500D01*
X90433230Y18802883D01*
X90409730Y18807557D01*
X90386473Y18814613D01*
X90262676Y18865891D01*
X90262653Y18865899D01*
X90262646Y18865901D01*
X90088698Y18900500D01*
X90088694Y18900500D01*
X90088691Y18900500D01*
X89911309Y18900500D01*
X89911306Y18900500D01*
X89911301Y18900500D01*
X89737352Y18865900D01*
X89737345Y18865899D01*
X89737322Y18865891D01*
X89573472Y18798023D01*
X89573454Y18798015D01*
X89573439Y18798006D01*
X89425962Y18699464D01*
X89425961Y18699463D01*
X89425955Y18699458D01*
X89300542Y18574045D01*
X89300537Y18574039D01*
X89300536Y18574038D01*
X89201994Y18426561D01*
X89201985Y18426546D01*
X89201977Y18426528D01*
X89134109Y18262678D01*
X89134101Y18262655D01*
X89134099Y18262648D01*
X89099500Y18088701D01*
X89099500Y17911301D01*
X89134099Y17737354D01*
X89134101Y17737347D01*
X89134109Y17737324D01*
X89201977Y17573474D01*
X89201985Y17573456D01*
X89201994Y17573441D01*
X89300536Y17425964D01*
X89300537Y17425963D01*
X89300542Y17425957D01*
X89425955Y17300544D01*
X89425961Y17300539D01*
X89425965Y17300536D01*
X89573446Y17201991D01*
X89573459Y17201984D01*
X89655175Y17168137D01*
X89737334Y17134106D01*
X89737336Y17134106D01*
X89737341Y17134104D01*
X89903680Y17101018D01*
X89906403Y17100296D01*
X89911306Y17099500D01*
X90088693Y17099500D01*
X90088694Y17099500D01*
X90123645Y17106453D01*
X90158598Y17113406D01*
X90240364Y17129671D01*
X90275596Y17131560D01*
X90291172Y17130167D01*
X90356189Y17104587D01*
X90362738Y17099500D01*
X90364773Y17097919D01*
X90396084Y17061998D01*
X90408250Y17040926D01*
X90409508Y17038748D01*
X90409511Y17038742D01*
X90409516Y17038736D01*
X90525573Y16922679D01*
X90546723Y16894427D01*
X90559331Y16871338D01*
X90574500Y16811909D01*
X90574500Y16743982D01*
X90603497Y16635763D01*
X90659515Y16538737D01*
X90659517Y16538735D01*
X90775573Y16422679D01*
X90796723Y16394427D01*
X90809331Y16371338D01*
X90824500Y16311909D01*
X90824500Y16243984D01*
X90853494Y16135772D01*
X90853496Y16135766D01*
X90853497Y16135764D01*
X90853498Y16135761D01*
X90867617Y16111307D01*
X90867618Y16111304D01*
X90909510Y16038744D01*
X90909516Y16038736D01*
X91025573Y15922679D01*
X91046723Y15894427D01*
X91059331Y15871338D01*
X91074500Y15811909D01*
X91074500Y15743982D01*
X91103497Y15635763D01*
X91159515Y15538737D01*
X91159517Y15538735D01*
X91275573Y15422679D01*
X91296723Y15394427D01*
X91309331Y15371338D01*
X91324500Y15311909D01*
X91324500Y15243982D01*
X91353497Y15135763D01*
X91409515Y15038737D01*
X91409517Y15038735D01*
X91525573Y14922679D01*
X91546723Y14894427D01*
X91559331Y14871338D01*
X91574500Y14811909D01*
X91574500Y14811002D01*
X91569475Y14776061D01*
X91565564Y14762744D01*
X91527787Y14703968D01*
X91464229Y14674946D01*
X91464226Y14674946D01*
X91459466Y14674262D01*
X91391745Y14683565D01*
X91359992Y14697585D01*
X91353710Y14698314D01*
X91334868Y14700500D01*
X91334865Y14700500D01*
X89445143Y14700500D01*
X89445127Y14700499D01*
X89445113Y14700498D01*
X89427255Y14698427D01*
X89420012Y14697587D01*
X89420011Y14697587D01*
X89420005Y14697586D01*
X89419559Y14697453D01*
X89417303Y14696391D01*
X89317236Y14652208D01*
X89237793Y14572766D01*
X89192414Y14469995D01*
X89191844Y14467290D01*
X89191589Y14462876D01*
X89189502Y14444883D01*
X89189500Y14444869D01*
X89189500Y12555144D01*
X89189502Y12555118D01*
X89192003Y12533546D01*
X89192414Y12530007D01*
X89192546Y12529562D01*
X89193609Y12527304D01*
X89237791Y12427240D01*
X89237793Y12427236D01*
X89237794Y12427235D01*
X89317235Y12347794D01*
X89420009Y12302415D01*
X89445135Y12299500D01*
X89447659Y12299501D01*
X89482601Y12294480D01*
X89497598Y12290077D01*
X89556377Y12252305D01*
X89556384Y12252297D01*
X89557571Y12250927D01*
X89585017Y12196102D01*
X89586663Y12188540D01*
X89589500Y12162167D01*
X89589500Y11926455D01*
X89584476Y11891516D01*
X89577064Y11866276D01*
X89545769Y11813534D01*
X89469819Y11737585D01*
X89465684Y11730200D01*
X89434066Y11686682D01*
X89363239Y11589200D01*
X89321080Y11506457D01*
X89277454Y11420837D01*
X89219059Y11241119D01*
X89219059Y11241117D01*
X89219058Y11241114D01*
X89189500Y11054493D01*
X89189500Y10960770D01*
X89184476Y10925833D01*
X89177064Y10900592D01*
X89145769Y10847848D01*
X84810448Y6512527D01*
X84782197Y6491378D01*
X84759109Y6478770D01*
X84699679Y6463600D01*
X71572540Y6463600D01*
X71537605Y6468623D01*
X71526751Y6471810D01*
X71467973Y6509584D01*
X71438948Y6573140D01*
X71448888Y6642289D01*
X71452078Y6649276D01*
X71477187Y6685440D01*
X71929157Y7137409D01*
X74585119Y9793375D01*
X74613369Y9814522D01*
X74628354Y9822705D01*
X74693966Y9837716D01*
X74707259Y9837051D01*
X74739377Y9831140D01*
X74868882Y9789060D01*
X74899988Y9784134D01*
X75055514Y9759500D01*
X75055519Y9759500D01*
X75244485Y9759500D01*
X75244486Y9759500D01*
X75431118Y9789060D01*
X75458598Y9797989D01*
X75610832Y9847453D01*
X75614850Y9849500D01*
X75643935Y9864320D01*
X75779199Y9933240D01*
X75932073Y10044310D01*
X76065690Y10177927D01*
X76176760Y10330801D01*
X76262547Y10499168D01*
X76296559Y10603850D01*
X76334982Y10660686D01*
X76336005Y10661542D01*
X76342371Y10670852D01*
X76406727Y10698056D01*
X76475575Y10686149D01*
X76504708Y10666233D01*
X76506994Y10664134D01*
X76541087Y10611090D01*
X76577452Y10499167D01*
X76663239Y10330802D01*
X76663240Y10330801D01*
X76774310Y10177927D01*
X76907927Y10044310D01*
X76994229Y9981607D01*
X77060796Y9933243D01*
X77060797Y9933243D01*
X77060801Y9933240D01*
X77140347Y9892710D01*
X77222722Y9850737D01*
X77224320Y9849801D01*
X77228037Y9848001D01*
X77230021Y9847015D01*
X77233775Y9845957D01*
X77325497Y9816154D01*
X77408881Y9789060D01*
X77595514Y9759500D01*
X77595519Y9759500D01*
X77784485Y9759500D01*
X77784486Y9759500D01*
X77971118Y9789060D01*
X77998598Y9797989D01*
X78150832Y9847453D01*
X78154850Y9849500D01*
X78183935Y9864320D01*
X78319199Y9933240D01*
X78472073Y10044310D01*
X78605690Y10177927D01*
X78716760Y10330801D01*
X78802547Y10499168D01*
X78836559Y10603850D01*
X78874982Y10660686D01*
X78876005Y10661542D01*
X78882371Y10670852D01*
X78946727Y10698056D01*
X79015575Y10686149D01*
X79044708Y10666233D01*
X79046994Y10664134D01*
X79081087Y10611090D01*
X79117452Y10499167D01*
X79203239Y10330802D01*
X79203240Y10330801D01*
X79314310Y10177927D01*
X79447927Y10044310D01*
X79534229Y9981607D01*
X79600796Y9933243D01*
X79600797Y9933243D01*
X79600801Y9933240D01*
X79680347Y9892710D01*
X79762722Y9850737D01*
X79764320Y9849801D01*
X79768037Y9848001D01*
X79770021Y9847015D01*
X79773775Y9845957D01*
X79865497Y9816154D01*
X79948881Y9789060D01*
X80135514Y9759500D01*
X80135519Y9759500D01*
X80324485Y9759500D01*
X80324486Y9759500D01*
X80511118Y9789060D01*
X80538598Y9797989D01*
X80690832Y9847453D01*
X80694850Y9849500D01*
X80723935Y9864320D01*
X80859199Y9933240D01*
X81012073Y10044310D01*
X81145690Y10177927D01*
X81256760Y10330801D01*
X81342547Y10499168D01*
X81400940Y10678882D01*
X81414500Y10764498D01*
X81430500Y10865514D01*
X81430500Y11054487D01*
X81400940Y11241119D01*
X81363449Y11356503D01*
X81363449Y11356504D01*
X81363449Y11356505D01*
X81351499Y11393280D01*
X81342547Y11420832D01*
X81342545Y11420835D01*
X81342545Y11420837D01*
X81340294Y11425254D01*
X81339987Y11426042D01*
X81339262Y11427281D01*
X81297207Y11509818D01*
X81275580Y11552263D01*
X81256760Y11589199D01*
X81145690Y11742073D01*
X81079426Y11808337D01*
X81058274Y11836593D01*
X81045667Y11859682D01*
X81030500Y11919107D01*
X81030500Y12533546D01*
X81035522Y12568479D01*
X81042934Y12593724D01*
X81074232Y12646470D01*
X81082302Y12654539D01*
X81145690Y12717927D01*
X81256760Y12870801D01*
X81342547Y13039168D01*
X81400940Y13218882D01*
X81405184Y13245677D01*
X81430500Y13405514D01*
X81430500Y13594487D01*
X81400940Y13781119D01*
X81342545Y13960837D01*
X81256759Y14129200D01*
X81145690Y14282073D01*
X81012073Y14415690D01*
X80859199Y14526760D01*
X80690836Y14612546D01*
X80511118Y14670941D01*
X80490150Y14674262D01*
X80326840Y14700128D01*
X80311300Y14703625D01*
X80293977Y14708712D01*
X80235200Y14746488D01*
X80206177Y14810044D01*
X80216120Y14879195D01*
X80219311Y14886183D01*
X80244416Y14922340D01*
X93426871Y28104793D01*
X106621789Y41299711D01*
X106709394Y41430821D01*
X106769737Y41576503D01*
X106800500Y41731158D01*
X106800500Y41888842D01*
X106800500Y43283281D01*
X106802882Y43307469D01*
X106807557Y43330975D01*
X106814609Y43354221D01*
X106864211Y43473974D01*
X106865378Y43476530D01*
X106865887Y43478021D01*
X106865892Y43478030D01*
X106865894Y43478034D01*
X106900499Y43652003D01*
X106900500Y43652007D01*
X106900500Y43829575D01*
X106900074Y43831531D01*
X106865896Y44003359D01*
X106865893Y44003368D01*
X106814609Y44127180D01*
X106807557Y44150431D01*
X106802881Y44173933D01*
X106800500Y44198120D01*
X106800500Y51316329D01*
X106800064Y51318334D01*
X106787676Y51380612D01*
X106785478Y51391660D01*
X106769737Y51470797D01*
X106769735Y51470802D01*
X106709397Y51616473D01*
X106709390Y51616486D01*
X106621790Y51747588D01*
X106621789Y51747589D01*
X106510289Y51859089D01*
X100276782Y58092596D01*
X100261361Y58111387D01*
X100248055Y58131301D01*
X100236594Y58152743D01*
X100231824Y58164260D01*
X100187639Y58270932D01*
X100185995Y58275527D01*
X100086762Y58424038D01*
X100086761Y58424039D01*
X100086756Y58424045D01*
X99961343Y58549458D01*
X99961337Y58549463D01*
X99961336Y58549464D01*
X99813859Y58648006D01*
X99813858Y58648007D01*
X99813853Y58648010D01*
X99813840Y58648017D01*
X99813826Y58648023D01*
X99649976Y58715891D01*
X99649953Y58715899D01*
X99649946Y58715901D01*
X99475998Y58750500D01*
X99475994Y58750500D01*
X99475991Y58750500D01*
X99298609Y58750500D01*
X99298606Y58750500D01*
X99298601Y58750500D01*
X99124652Y58715900D01*
X99124645Y58715899D01*
X99124622Y58715891D01*
X98960772Y58648023D01*
X98960754Y58648015D01*
X98960739Y58648006D01*
X98813262Y58549464D01*
X98813261Y58549463D01*
X98813255Y58549458D01*
X98687842Y58424045D01*
X98687837Y58424039D01*
X98687836Y58424038D01*
X98589294Y58276561D01*
X98589285Y58276546D01*
X98589277Y58276528D01*
X98521409Y58112678D01*
X98521401Y58112655D01*
X98521399Y58112648D01*
X98486800Y57938701D01*
X98486800Y57761301D01*
X98521399Y57587354D01*
X98521401Y57587347D01*
X98521409Y57587324D01*
X98588249Y57425957D01*
X98589283Y57423460D01*
X98589290Y57423447D01*
X98654838Y57325349D01*
X98687836Y57275964D01*
X98687837Y57275963D01*
X98687842Y57275957D01*
X98813255Y57150544D01*
X98813261Y57150539D01*
X98813262Y57150538D01*
X98961771Y57051306D01*
X98966360Y57049665D01*
X99084569Y57000702D01*
X99105987Y56989253D01*
X99125921Y56975934D01*
X99144704Y56960518D01*
X105150573Y50954649D01*
X105171723Y50926397D01*
X105184331Y50903308D01*
X105199500Y50843879D01*
X105199500Y44198120D01*
X105197116Y44173924D01*
X105192442Y44150431D01*
X105185387Y44127175D01*
X105134111Y44003383D01*
X105134101Y44003355D01*
X105134099Y44003348D01*
X105099500Y43829401D01*
X105099500Y43829396D01*
X105099500Y43652005D01*
X105099500Y43652003D01*
X105099499Y43652003D01*
X105134100Y43478060D01*
X105134107Y43478029D01*
X105185387Y43354227D01*
X105192443Y43330970D01*
X105197117Y43307470D01*
X105199500Y43283281D01*
X105199500Y42210771D01*
X105194476Y42175834D01*
X105187064Y42150593D01*
X105155769Y42097849D01*
X84254388Y21196468D01*
X84226138Y21175319D01*
X84216211Y21169898D01*
X84147938Y21155044D01*
X84082473Y21179458D01*
X84040600Y21235390D01*
X84037913Y21242596D01*
X84030100Y21285916D01*
X84030100Y39904098D01*
X84035121Y39939025D01*
X84038307Y39949878D01*
X84076077Y40008659D01*
X84139631Y40037688D01*
X84208771Y40027757D01*
X84210899Y40026785D01*
X84262511Y39982873D01*
X84300536Y39925964D01*
X84300537Y39925963D01*
X84300542Y39925957D01*
X84425955Y39800544D01*
X84425961Y39800539D01*
X84425965Y39800536D01*
X84573446Y39701991D01*
X84573459Y39701984D01*
X84693441Y39652287D01*
X84737334Y39634106D01*
X84737336Y39634106D01*
X84737341Y39634104D01*
X84903680Y39601018D01*
X84906403Y39600296D01*
X84911306Y39599500D01*
X85088693Y39599500D01*
X85092814Y39599500D01*
X85100667Y39601883D01*
X85146682Y39611036D01*
X85146683Y39611036D01*
X85262653Y39634103D01*
X85262653Y39634104D01*
X85262658Y39634104D01*
X85262661Y39634106D01*
X85262666Y39634106D01*
X85265854Y39635427D01*
X85273835Y39638727D01*
X85273876Y39638749D01*
X85426540Y39701984D01*
X85426540Y39701985D01*
X85426547Y39701987D01*
X85574035Y39800536D01*
X85699464Y39925965D01*
X85788752Y40059596D01*
X85803218Y40077418D01*
X85819082Y40093629D01*
X85836589Y40108479D01*
X90085828Y43082947D01*
X90108230Y43095393D01*
X90131436Y43105301D01*
X90155922Y43112875D01*
X90262666Y43134106D01*
X90386482Y43185392D01*
X90409725Y43192443D01*
X90433233Y43197119D01*
X90457419Y43199500D01*
X94557670Y43199500D01*
X94592606Y43194477D01*
X94607604Y43190073D01*
X94666355Y43152328D01*
X94667542Y43150959D01*
X94695018Y43096098D01*
X94696663Y43088540D01*
X94699500Y43062169D01*
X94699500Y40457420D01*
X94697116Y40433224D01*
X94692442Y40409731D01*
X94685387Y40386475D01*
X94634111Y40262683D01*
X94634101Y40262655D01*
X94634099Y40262648D01*
X94599500Y40088701D01*
X94599500Y39911301D01*
X94634099Y39737354D01*
X94634101Y39737347D01*
X94634109Y39737324D01*
X94701977Y39573474D01*
X94701985Y39573456D01*
X94701994Y39573441D01*
X94800536Y39425964D01*
X94800537Y39425963D01*
X94800542Y39425957D01*
X94925955Y39300544D01*
X94925961Y39300539D01*
X94925965Y39300536D01*
X95073446Y39201991D01*
X95073459Y39201984D01*
X95109579Y39187023D01*
X95195144Y39151581D01*
X95195182Y39151566D01*
X95196363Y39151077D01*
X95237334Y39134106D01*
X95237336Y39134106D01*
X95237341Y39134104D01*
X95403680Y39101018D01*
X95406403Y39100296D01*
X95411306Y39099500D01*
X95588693Y39099500D01*
X95592814Y39099500D01*
X95600667Y39101883D01*
X95646682Y39111036D01*
X95646683Y39111036D01*
X95762653Y39134103D01*
X95762653Y39134104D01*
X95762658Y39134104D01*
X95762661Y39134106D01*
X95762666Y39134106D01*
X95765854Y39135427D01*
X95773835Y39138727D01*
X95773876Y39138749D01*
X95926540Y39201984D01*
X95926540Y39201985D01*
X95926547Y39201987D01*
X96074035Y39300536D01*
X96199464Y39425965D01*
X96298013Y39573453D01*
X96365894Y39737334D01*
X96367463Y39745219D01*
X96400499Y39911305D01*
X96400500Y39911307D01*
X96400500Y40088694D01*
X96400499Y40088696D01*
X96365896Y40262659D01*
X96365893Y40262668D01*
X96314609Y40386480D01*
X96307557Y40409731D01*
X96302881Y40433233D01*
X96300500Y40457420D01*
X96300500Y43057671D01*
X96305523Y43092607D01*
X96309927Y43107605D01*
X96347672Y43166356D01*
X96349041Y43167543D01*
X96403920Y43195023D01*
X96411479Y43196667D01*
X96437832Y43199500D01*
X98582964Y43199500D01*
X98590814Y43201882D01*
X98733497Y43230263D01*
X98879179Y43290606D01*
X99010289Y43378211D01*
X99121789Y43489711D01*
X99209394Y43620821D01*
X99269737Y43766503D01*
X99300500Y43921158D01*
X99300500Y53692581D01*
X99302882Y53716769D01*
X99307557Y53740275D01*
X99314609Y53763521D01*
X99364211Y53883274D01*
X99365378Y53885830D01*
X99365887Y53887321D01*
X99365892Y53887330D01*
X99365894Y53887334D01*
X99400499Y54061303D01*
X99400500Y54061307D01*
X99400500Y54238875D01*
X99400074Y54240831D01*
X99365896Y54412659D01*
X99365893Y54412668D01*
X99298016Y54576541D01*
X99298009Y54576554D01*
X99199464Y54724035D01*
X99199461Y54724039D01*
X99199456Y54724045D01*
X99074043Y54849458D01*
X99074037Y54849463D01*
X99074036Y54849464D01*
X98926559Y54948006D01*
X98926558Y54948007D01*
X98926553Y54948010D01*
X98926540Y54948017D01*
X98926526Y54948023D01*
X98762676Y55015891D01*
X98762653Y55015899D01*
X98762646Y55015901D01*
X98588698Y55050500D01*
X98588694Y55050500D01*
X98588691Y55050500D01*
X98411309Y55050500D01*
X98411306Y55050500D01*
X98411301Y55050500D01*
X98237352Y55015900D01*
X98237345Y55015899D01*
X98237322Y55015891D01*
X98073472Y54948023D01*
X98073454Y54948015D01*
X98073439Y54948006D01*
X97925962Y54849464D01*
X97925961Y54849463D01*
X97925955Y54849458D01*
X97800542Y54724045D01*
X97800537Y54724039D01*
X97800536Y54724038D01*
X97701994Y54576561D01*
X97701985Y54576546D01*
X97701977Y54576528D01*
X97634109Y54412678D01*
X97634101Y54412655D01*
X97634099Y54412648D01*
X97599500Y54238701D01*
X97599500Y54238696D01*
X97599500Y54061305D01*
X97599500Y54061303D01*
X97599499Y54061303D01*
X97634100Y53887360D01*
X97634107Y53887329D01*
X97685387Y53763527D01*
X97692443Y53740270D01*
X97697117Y53716770D01*
X97699500Y53692581D01*
X97699500Y44942330D01*
X97694475Y44907386D01*
X97690070Y44892388D01*
X97652327Y44833645D01*
X97650958Y44832458D01*
X97596097Y44804982D01*
X97588539Y44803337D01*
X97562168Y44800500D01*
X90457419Y44800500D01*
X90433230Y44802883D01*
X90409730Y44807557D01*
X90386473Y44814613D01*
X90262676Y44865891D01*
X90262653Y44865899D01*
X90262646Y44865901D01*
X90088698Y44900500D01*
X90088694Y44900500D01*
X90088691Y44900500D01*
X89911309Y44900500D01*
X89911306Y44900500D01*
X89911301Y44900500D01*
X89737352Y44865900D01*
X89737345Y44865899D01*
X89737322Y44865891D01*
X89573472Y44798023D01*
X89573454Y44798015D01*
X89573439Y44798006D01*
X89425962Y44699464D01*
X89425961Y44699463D01*
X89425955Y44699458D01*
X89300542Y44574045D01*
X89300537Y44574039D01*
X89300536Y44574038D01*
X89211255Y44440420D01*
X89196778Y44422584D01*
X89180920Y44406379D01*
X89163404Y44391521D01*
X84914182Y41417064D01*
X84891767Y41404610D01*
X84868563Y41394702D01*
X84844060Y41387124D01*
X84737365Y41365902D01*
X84737327Y41365893D01*
X84573472Y41298023D01*
X84573454Y41298015D01*
X84573439Y41298006D01*
X84425962Y41199464D01*
X84425961Y41199463D01*
X84425955Y41199458D01*
X84300540Y41074043D01*
X84300537Y41074039D01*
X84267107Y41024007D01*
X84222206Y40983405D01*
X84212301Y40978140D01*
X84212275Y40978189D01*
X84204800Y40971943D01*
X84135474Y40963246D01*
X84072451Y40993410D01*
X84049822Y41020495D01*
X84048595Y41022482D01*
X84030100Y41087633D01*
X84030100Y47936405D01*
X84035121Y47971332D01*
X84038307Y47982185D01*
X84076077Y48040966D01*
X84139631Y48069995D01*
X84208771Y48060064D01*
X84210899Y48059092D01*
X84262510Y48015181D01*
X84357335Y47873266D01*
X84357338Y47873262D01*
X84357340Y47873260D01*
X84357342Y47873257D01*
X84482755Y47747844D01*
X84482761Y47747839D01*
X84482765Y47747836D01*
X84630246Y47649291D01*
X84630259Y47649284D01*
X84666379Y47634323D01*
X84751944Y47598881D01*
X84751982Y47598866D01*
X84753163Y47598377D01*
X84794134Y47581406D01*
X84794136Y47581406D01*
X84794141Y47581404D01*
X84960480Y47548318D01*
X84963203Y47547596D01*
X84968106Y47546800D01*
X85145493Y47546800D01*
X85149614Y47546800D01*
X85157467Y47549183D01*
X85203482Y47558336D01*
X85203483Y47558336D01*
X85319453Y47581403D01*
X85319453Y47581404D01*
X85319458Y47581404D01*
X85319461Y47581406D01*
X85319466Y47581406D01*
X85322654Y47582727D01*
X85330635Y47586027D01*
X85330676Y47586049D01*
X85483340Y47649284D01*
X85483340Y47649285D01*
X85483347Y47649287D01*
X85630835Y47747836D01*
X85756264Y47873265D01*
X85854813Y48020753D01*
X85906094Y48144564D01*
X85917552Y48165999D01*
X85930862Y48185920D01*
X85946277Y48204702D01*
X97514189Y59772611D01*
X97601794Y59903721D01*
X97662137Y60049403D01*
X97692900Y60204058D01*
X97692900Y60361742D01*
X97692900Y77523242D01*
X97680793Y77584111D01*
X97674451Y77615994D01*
X97662139Y77677892D01*
X97662137Y77677897D01*
X97654799Y77695612D01*
X97645936Y77717009D01*
X97645936Y77717012D01*
X97601800Y77823567D01*
X97601795Y77823576D01*
X97601790Y77823586D01*
X97573256Y77866290D01*
X97514190Y77954689D01*
X97514188Y77954691D01*
X97496469Y77972409D01*
X97184136Y78284742D01*
X96544196Y78924684D01*
X96544191Y78924688D01*
X96544190Y78924689D01*
X96413091Y79012287D01*
X96413090Y79012288D01*
X96413085Y79012291D01*
X96413072Y79012298D01*
X96413065Y79012302D01*
X96267402Y79072636D01*
X96267371Y79072643D01*
X96112747Y79103400D01*
X96112745Y79103400D01*
X96112742Y79103400D01*
X95054343Y79103400D01*
X94896658Y79103400D01*
X94896655Y79103400D01*
X94896653Y79103400D01*
X94742027Y79072643D01*
X94741996Y79072636D01*
X94596333Y79012302D01*
X94596324Y79012297D01*
X94596307Y79012287D01*
X94465208Y78924689D01*
X94465207Y78924688D01*
X94465201Y78924683D01*
X92379323Y76838801D01*
X92264163Y76723641D01*
X91570311Y76029789D01*
X91514560Y75974038D01*
X91492618Y75952096D01*
X91458805Y75918284D01*
X91371213Y75787193D01*
X91371203Y75787176D01*
X91371198Y75787167D01*
X91310872Y75641525D01*
X91310864Y75641501D01*
X91310859Y75641485D01*
X91288026Y75526698D01*
X91276286Y75493419D01*
X91269853Y75481120D01*
X91221339Y75430839D01*
X91153347Y75414768D01*
X91151942Y75414844D01*
X91148115Y75415049D01*
X91085855Y75435769D01*
X91068599Y75447299D01*
X90994053Y75497110D01*
X90994040Y75497117D01*
X90994026Y75497123D01*
X90830176Y75564991D01*
X90830153Y75564999D01*
X90830146Y75565001D01*
X90656198Y75599600D01*
X90656194Y75599600D01*
X90656191Y75599600D01*
X90478809Y75599600D01*
X90478804Y75599600D01*
X90478799Y75599600D01*
X90386091Y75581159D01*
X90350849Y75579269D01*
X90329950Y75581139D01*
X90273029Y75600936D01*
X90267408Y75604620D01*
X90247699Y75620649D01*
X88777765Y77090583D01*
X88777763Y77090585D01*
X88680737Y77146603D01*
X88572518Y77175600D01*
X88572517Y77175600D01*
X82855622Y77175600D01*
X82820686Y77180623D01*
X82800552Y77186535D01*
X82748595Y77217050D01*
X82743803Y77221757D01*
X82727596Y77241325D01*
X82672264Y77324135D01*
X82672261Y77324139D01*
X82672256Y77324145D01*
X82546843Y77449558D01*
X82546837Y77449563D01*
X82546836Y77449564D01*
X82399359Y77548106D01*
X82399358Y77548107D01*
X82399353Y77548110D01*
X82399340Y77548117D01*
X82399326Y77548123D01*
X82235476Y77615991D01*
X82235453Y77615999D01*
X82235446Y77616001D01*
X82061498Y77650600D01*
X82061494Y77650600D01*
X82061491Y77650600D01*
X81884109Y77650600D01*
X81884106Y77650600D01*
X81884101Y77650600D01*
X81710152Y77616000D01*
X81710145Y77615999D01*
X81710122Y77615991D01*
X81546272Y77548123D01*
X81546254Y77548115D01*
X81546239Y77548106D01*
X81398762Y77449564D01*
X81398761Y77449563D01*
X81398755Y77449558D01*
X81273342Y77324145D01*
X81273337Y77324139D01*
X81273336Y77324138D01*
X81174794Y77176661D01*
X81174785Y77176646D01*
X81174777Y77176628D01*
X81106909Y77012778D01*
X81106901Y77012755D01*
X81106899Y77012748D01*
X81072300Y76838801D01*
X81072300Y76661401D01*
X81106899Y76487454D01*
X81106901Y76487447D01*
X81106909Y76487424D01*
X81174777Y76323574D01*
X81174785Y76323556D01*
X81174794Y76323541D01*
X81273336Y76176064D01*
X81273337Y76176063D01*
X81273342Y76176057D01*
X81398755Y76050644D01*
X81398761Y76050639D01*
X81398765Y76050636D01*
X81546246Y75952091D01*
X81546259Y75952084D01*
X81582379Y75937123D01*
X81667944Y75901681D01*
X81667982Y75901666D01*
X81669163Y75901177D01*
X81710134Y75884206D01*
X81710136Y75884206D01*
X81710141Y75884204D01*
X81876480Y75851118D01*
X81879203Y75850396D01*
X81884106Y75849600D01*
X82061493Y75849600D01*
X82065614Y75849600D01*
X82073467Y75851983D01*
X82119482Y75861136D01*
X82119483Y75861136D01*
X82235453Y75884203D01*
X82235453Y75884204D01*
X82235458Y75884204D01*
X82235461Y75884206D01*
X82235466Y75884206D01*
X82238654Y75885527D01*
X82246635Y75888827D01*
X82246676Y75888849D01*
X82399340Y75952084D01*
X82399340Y75952085D01*
X82399347Y75952087D01*
X82546835Y76050636D01*
X82672264Y76176065D01*
X82724789Y76254675D01*
X82748366Y76280921D01*
X82764471Y76294381D01*
X82818712Y76320627D01*
X82825293Y76321997D01*
X82850565Y76324600D01*
X88271060Y76324600D01*
X88305992Y76319579D01*
X88331236Y76312166D01*
X88383982Y76280870D01*
X89642376Y75022476D01*
X89663525Y74994227D01*
X89673582Y74975807D01*
X89688746Y74917487D01*
X89688806Y74910767D01*
X89686428Y74885469D01*
X89667000Y74787800D01*
X89667000Y74610401D01*
X89701599Y74436454D01*
X89701601Y74436447D01*
X89701609Y74436424D01*
X89769477Y74272574D01*
X89769485Y74272556D01*
X89769494Y74272541D01*
X89868036Y74125064D01*
X89868037Y74125063D01*
X89868042Y74125057D01*
X89993455Y73999644D01*
X89993461Y73999639D01*
X89993465Y73999636D01*
X90140946Y73901091D01*
X90140959Y73901084D01*
X90239582Y73860234D01*
X90304834Y73833206D01*
X90304836Y73833206D01*
X90304841Y73833204D01*
X90471180Y73800118D01*
X90473903Y73799396D01*
X90478806Y73798600D01*
X90656193Y73798600D01*
X90660314Y73798600D01*
X90668167Y73800983D01*
X90714182Y73810136D01*
X90714183Y73810136D01*
X90830153Y73833203D01*
X90830153Y73833204D01*
X90830158Y73833204D01*
X90830161Y73833206D01*
X90830166Y73833206D01*
X90833426Y73834557D01*
X90841332Y73837826D01*
X90841370Y73837848D01*
X90994047Y73901087D01*
X90994050Y73901090D01*
X90994052Y73901090D01*
X91028289Y73923968D01*
X91072385Y73953432D01*
X91104225Y73968665D01*
X91110299Y73970567D01*
X91117224Y73972734D01*
X91187083Y73973978D01*
X91246524Y73937256D01*
X91275196Y73881844D01*
X91277024Y73873790D01*
X91280100Y73846344D01*
X91280100Y72819771D01*
X91275076Y72784834D01*
X91267664Y72759593D01*
X91236369Y72706849D01*
X78801907Y60272388D01*
X78783116Y60256966D01*
X78763190Y60243652D01*
X78741753Y60232194D01*
X78617957Y60180917D01*
X78617949Y60180912D01*
X78506198Y60106242D01*
X78475008Y60085400D01*
X78470458Y60082360D01*
X78470455Y60082358D01*
X78345042Y59956945D01*
X78345037Y59956939D01*
X78345036Y59956938D01*
X78246494Y59809461D01*
X78246485Y59809446D01*
X78246477Y59809428D01*
X78178609Y59645578D01*
X78178601Y59645555D01*
X78178599Y59645548D01*
X78144000Y59471601D01*
X78144000Y59294201D01*
X78178599Y59120254D01*
X78178601Y59120247D01*
X78178609Y59120224D01*
X78246477Y58956374D01*
X78246483Y58956360D01*
X78246489Y58956348D01*
X78246494Y58956341D01*
X78345036Y58808864D01*
X78345037Y58808863D01*
X78345042Y58808857D01*
X78470455Y58683444D01*
X78470461Y58683439D01*
X78470465Y58683436D01*
X78617946Y58584891D01*
X78617959Y58584884D01*
X78703477Y58549462D01*
X78781834Y58517006D01*
X78781836Y58517006D01*
X78781841Y58517004D01*
X78948180Y58483918D01*
X78950903Y58483196D01*
X78955806Y58482400D01*
X79133193Y58482400D01*
X79137314Y58482400D01*
X79145167Y58484783D01*
X79191182Y58493936D01*
X79191183Y58493936D01*
X79307153Y58517003D01*
X79307153Y58517004D01*
X79307158Y58517004D01*
X79307161Y58517006D01*
X79307166Y58517006D01*
X79310354Y58518327D01*
X79318335Y58521627D01*
X79318376Y58521649D01*
X79471040Y58584884D01*
X79471040Y58584885D01*
X79471047Y58584887D01*
X79618535Y58683436D01*
X79743964Y58808865D01*
X79842513Y58956353D01*
X79893794Y59080164D01*
X79905252Y59101599D01*
X79914808Y59115900D01*
X79918562Y59121520D01*
X79933977Y59140302D01*
X92702388Y71908710D01*
X92704786Y71912299D01*
X92789994Y72039821D01*
X92850337Y72185503D01*
X92864482Y72256611D01*
X92881100Y72340157D01*
X92881100Y72497842D01*
X92881100Y75007232D01*
X92886122Y75042165D01*
X92893534Y75067410D01*
X92924828Y75120152D01*
X94434015Y76629340D01*
X94462265Y76650487D01*
X94474448Y76657140D01*
X94542722Y76671990D01*
X94608183Y76647573D01*
X94608186Y76647571D01*
X94612379Y76644432D01*
X94652627Y76592620D01*
X94685388Y76513528D01*
X94692443Y76490270D01*
X94693009Y76487424D01*
X94697117Y76466775D01*
X94699500Y76442583D01*
X94699500Y62942330D01*
X94694475Y62907386D01*
X94690070Y62892388D01*
X94652327Y62833645D01*
X94650958Y62832458D01*
X94596097Y62804982D01*
X94588539Y62803337D01*
X94562168Y62800500D01*
X87457419Y62800500D01*
X87433230Y62802883D01*
X87409730Y62807557D01*
X87386473Y62814613D01*
X87262668Y62865894D01*
X87262641Y62865900D01*
X87147943Y62888715D01*
X87114658Y62900458D01*
X87102590Y62906771D01*
X87052311Y62955287D01*
X87036245Y63023285D01*
X87055158Y63082752D01*
X87059562Y63089741D01*
X87076786Y63111311D01*
X88783198Y64817723D01*
X88801980Y64833138D01*
X88821902Y64846449D01*
X88843336Y64857906D01*
X88967147Y64909187D01*
X89114635Y65007736D01*
X89240064Y65133165D01*
X89338613Y65280653D01*
X89406494Y65444534D01*
X89416506Y65494864D01*
X89441099Y65618505D01*
X89441100Y65618507D01*
X89441100Y65795894D01*
X89441099Y65795896D01*
X89406496Y65969859D01*
X89406493Y65969868D01*
X89338616Y66133741D01*
X89338609Y66133754D01*
X89240064Y66281235D01*
X89240061Y66281239D01*
X89240056Y66281245D01*
X89114643Y66406658D01*
X89114637Y66406663D01*
X89114636Y66406664D01*
X88967159Y66505206D01*
X88967158Y66505207D01*
X88967153Y66505210D01*
X88967140Y66505217D01*
X88967126Y66505223D01*
X88803276Y66573091D01*
X88803253Y66573099D01*
X88803246Y66573101D01*
X88629298Y66607700D01*
X88629294Y66607700D01*
X88629291Y66607700D01*
X88451909Y66607700D01*
X88451906Y66607700D01*
X88451901Y66607700D01*
X88277952Y66573100D01*
X88277945Y66573099D01*
X88277922Y66573091D01*
X88114072Y66505223D01*
X88114054Y66505215D01*
X88114039Y66505206D01*
X87966562Y66406664D01*
X87966561Y66406663D01*
X87966555Y66406658D01*
X87841142Y66281245D01*
X87841140Y66281242D01*
X87742588Y66133751D01*
X87742583Y66133743D01*
X87691306Y66009947D01*
X87679848Y65988510D01*
X87666534Y65968584D01*
X87651112Y65949793D01*
X82671039Y60969717D01*
X81750733Y60049411D01*
X79812411Y58111089D01*
X79782432Y58081110D01*
X79782431Y58081109D01*
X79782430Y58081110D01*
X79700906Y57999586D01*
X79613313Y57868493D01*
X79613303Y57868476D01*
X79613298Y57868467D01*
X79552964Y57722804D01*
X79552957Y57722773D01*
X79522200Y57568150D01*
X79522200Y36429500D01*
X79502515Y36362461D01*
X79449711Y36316706D01*
X79398200Y36305500D01*
X66124010Y36305500D01*
X66124000Y36305500D01*
X66123991Y36305500D01*
X66123990Y36305499D01*
X66059064Y36298519D01*
X66059052Y36298517D01*
X66007546Y36287312D01*
X65969345Y36276356D01*
X65969341Y36276354D01*
X65872431Y36219677D01*
X65872428Y36219675D01*
X65819623Y36173919D01*
X65819612Y36173909D01*
X65777451Y36129193D01*
X65777445Y36129184D01*
X65726560Y36029110D01*
X65706877Y35962079D01*
X65694500Y35875998D01*
X65694500Y33215623D01*
X65674815Y33148584D01*
X65622011Y33102829D01*
X65552853Y33092885D01*
X65527571Y33099291D01*
X54704130Y37093427D01*
X54680202Y37105327D01*
X54658090Y37119483D01*
X54637270Y37136230D01*
X54574038Y37199462D01*
X54574037Y37199463D01*
X54574036Y37199464D01*
X54426559Y37298006D01*
X54426558Y37298007D01*
X54426553Y37298010D01*
X54426540Y37298017D01*
X54425613Y37298401D01*
X54262676Y37365891D01*
X54262653Y37365899D01*
X54262646Y37365901D01*
X54088698Y37400500D01*
X54088694Y37400500D01*
X54088691Y37400500D01*
X53911309Y37400500D01*
X53911306Y37400500D01*
X53911301Y37400500D01*
X53737352Y37365900D01*
X53737345Y37365899D01*
X53737322Y37365891D01*
X53584952Y37302777D01*
X53563205Y37296032D01*
X53541209Y37291371D01*
X53518603Y37288716D01*
X33989625Y36800492D01*
X33987034Y36800460D01*
X33987035Y36800454D01*
X33917872Y36800170D01*
X33911809Y36799547D01*
X33911777Y36799858D01*
X33907952Y36799473D01*
X33908001Y36799039D01*
X33901178Y36798281D01*
X33901176Y36798281D01*
X33901174Y36798281D01*
X33901169Y36798280D01*
X33834283Y36783229D01*
X33833001Y36782948D01*
X33831809Y36782693D01*
X33830563Y36782433D01*
X33775563Y36771256D01*
X33767339Y36770429D01*
X33765196Y36769541D01*
X33753084Y36765701D01*
X33753126Y36765576D01*
X33747343Y36763663D01*
X33684133Y36735611D01*
X33681759Y36734587D01*
X33652447Y36722304D01*
X33641389Y36721070D01*
X33585659Y36690229D01*
X33583495Y36686764D01*
X33572541Y36678079D01*
X33546581Y36659779D01*
X33544453Y36658311D01*
X33511660Y36636204D01*
X33487161Y36619687D01*
X33487159Y36619686D01*
X33487147Y36619676D01*
X33481214Y36613697D01*
X33474331Y36608843D01*
X33426626Y36558692D01*
X33425799Y36557841D01*
X33425712Y36557753D01*
X33425281Y36557308D01*
X33424374Y36556384D01*
X30185290Y33290582D01*
X30124105Y33256845D01*
X30054393Y33261543D01*
X30041049Y33267369D01*
X30029109Y33273440D01*
X30029110Y33273440D01*
X29962078Y33293123D01*
X29962072Y33293124D01*
X29876000Y33305500D01*
X29875997Y33305500D01*
X26508521Y33305500D01*
X26441482Y33325185D01*
X26395727Y33377989D01*
X26385783Y33447147D01*
X26414808Y33510703D01*
X26433055Y33527891D01*
X27706808Y34504865D01*
X28560621Y35159743D01*
X30096855Y36338042D01*
X30127626Y36355315D01*
X30155718Y36366169D01*
X30200405Y36374500D01*
X31237447Y36374500D01*
X31272379Y36369478D01*
X31279141Y36367493D01*
X31292513Y36363566D01*
X31344473Y36333051D01*
X31349265Y36328344D01*
X31365472Y36308776D01*
X31372325Y36298519D01*
X31378213Y36289707D01*
X31489701Y36178219D01*
X31489707Y36178214D01*
X31489711Y36178211D01*
X31620814Y36090610D01*
X31620827Y36090603D01*
X31766498Y36030265D01*
X31766503Y36030263D01*
X31921153Y35999501D01*
X31921156Y35999500D01*
X31921158Y35999500D01*
X32078844Y35999500D01*
X32078845Y35999501D01*
X32233497Y36030263D01*
X32379179Y36090606D01*
X32510289Y36178211D01*
X35893489Y39561411D01*
X35981094Y39692521D01*
X36041438Y39838203D01*
X36072200Y39992858D01*
X36072200Y40150543D01*
X36072200Y65494869D01*
X36499500Y65494869D01*
X36499500Y63605144D01*
X36499502Y63605118D01*
X36502413Y63580013D01*
X36502415Y63580009D01*
X36547793Y63477236D01*
X36609946Y63415083D01*
X36617126Y63403941D01*
X36617902Y63401307D01*
X36621723Y63396204D01*
X36634331Y63373115D01*
X36649500Y63313686D01*
X36649500Y45634031D01*
X36649500Y45634029D01*
X36649499Y45634029D01*
X36689864Y45431106D01*
X36689868Y45431088D01*
X36689870Y45431080D01*
X36769058Y45239904D01*
X36884023Y45067845D01*
X36884027Y45067839D01*
X37030336Y44921530D01*
X37030340Y44921527D01*
X37030342Y44921525D01*
X37030345Y44921523D01*
X37030349Y44921520D01*
X37030348Y44921520D01*
X37030411Y44921468D01*
X37030448Y44921454D01*
X37202402Y44806559D01*
X37393580Y44727370D01*
X37584540Y44689386D01*
X37593559Y44687592D01*
X37595794Y44687091D01*
X37596532Y44687000D01*
X37803466Y44687000D01*
X37807586Y44687000D01*
X37815435Y44689382D01*
X38006420Y44727370D01*
X38197598Y44806559D01*
X38369655Y44921523D01*
X38515977Y45067845D01*
X38630941Y45239902D01*
X38710130Y45431080D01*
X38750500Y45634035D01*
X38750500Y61074601D01*
X60581100Y61074601D01*
X60581100Y60897201D01*
X60615699Y60723254D01*
X60615701Y60723247D01*
X60615709Y60723224D01*
X60683577Y60559374D01*
X60683585Y60559356D01*
X60683594Y60559341D01*
X60782136Y60411864D01*
X60782137Y60411863D01*
X60782142Y60411857D01*
X60907555Y60286444D01*
X60907561Y60286439D01*
X60907565Y60286436D01*
X61055046Y60187891D01*
X61055059Y60187884D01*
X61078089Y60178345D01*
X61176744Y60137481D01*
X61176782Y60137466D01*
X61177963Y60136977D01*
X61218934Y60120006D01*
X61218936Y60120006D01*
X61218941Y60120004D01*
X61385280Y60086918D01*
X61388003Y60086196D01*
X61392906Y60085400D01*
X61570293Y60085400D01*
X61574414Y60085400D01*
X61582267Y60087783D01*
X61628282Y60096936D01*
X61628283Y60096936D01*
X61657276Y60102703D01*
X61744258Y60120004D01*
X61744261Y60120006D01*
X61744266Y60120006D01*
X61746480Y60120923D01*
X61755428Y60124624D01*
X61755470Y60124647D01*
X61868079Y60171291D01*
X61891325Y60178343D01*
X61914833Y60183019D01*
X61939019Y60185400D01*
X76653564Y60185400D01*
X76661414Y60187782D01*
X76804097Y60216163D01*
X76949779Y60276506D01*
X77080889Y60364111D01*
X79957598Y63240823D01*
X79976380Y63256238D01*
X79996302Y63269549D01*
X80017736Y63281006D01*
X80141547Y63332287D01*
X80289035Y63430836D01*
X80414464Y63556265D01*
X80513013Y63703753D01*
X80580894Y63867634D01*
X80615500Y64041609D01*
X80615500Y64218991D01*
X80615500Y64218994D01*
X80615500Y64219175D01*
X80615074Y64221131D01*
X80580896Y64392959D01*
X80580893Y64392968D01*
X80513016Y64556841D01*
X80513009Y64556854D01*
X80414464Y64704335D01*
X80414461Y64704339D01*
X80414456Y64704345D01*
X80289043Y64829758D01*
X80289037Y64829763D01*
X80289036Y64829764D01*
X80141559Y64928306D01*
X80141558Y64928307D01*
X80141553Y64928310D01*
X80141540Y64928317D01*
X80141526Y64928323D01*
X79977676Y64996191D01*
X79977653Y64996199D01*
X79977646Y64996201D01*
X79803698Y65030800D01*
X79803694Y65030800D01*
X79803691Y65030800D01*
X79626309Y65030800D01*
X79626306Y65030800D01*
X79626301Y65030800D01*
X79452352Y64996200D01*
X79452345Y64996199D01*
X79452322Y64996191D01*
X79288472Y64928323D01*
X79288454Y64928315D01*
X79288439Y64928306D01*
X79140962Y64829764D01*
X79140961Y64829763D01*
X79140955Y64829758D01*
X79015542Y64704345D01*
X79015540Y64704342D01*
X78916988Y64556851D01*
X78916983Y64556843D01*
X78865706Y64433047D01*
X78854248Y64411610D01*
X78840934Y64391684D01*
X78825512Y64372893D01*
X76287948Y61835327D01*
X76259697Y61814178D01*
X76236609Y61801570D01*
X76177179Y61786400D01*
X61939019Y61786400D01*
X61914830Y61788783D01*
X61891330Y61793457D01*
X61868073Y61800513D01*
X61744276Y61851791D01*
X61744253Y61851799D01*
X61744246Y61851801D01*
X61570298Y61886400D01*
X61570294Y61886400D01*
X61570291Y61886400D01*
X61392909Y61886400D01*
X61392906Y61886400D01*
X61392901Y61886400D01*
X61218952Y61851800D01*
X61218945Y61851799D01*
X61218922Y61851791D01*
X61055072Y61783923D01*
X61055054Y61783915D01*
X61055039Y61783906D01*
X60907562Y61685364D01*
X60907561Y61685363D01*
X60907555Y61685358D01*
X60782142Y61559945D01*
X60782137Y61559939D01*
X60782136Y61559938D01*
X60683594Y61412461D01*
X60683585Y61412446D01*
X60683577Y61412428D01*
X60615709Y61248578D01*
X60615701Y61248555D01*
X60615699Y61248548D01*
X60581100Y61074601D01*
X38750500Y61074601D01*
X38750500Y63306338D01*
X38755522Y63341271D01*
X38762934Y63366516D01*
X38794232Y63419262D01*
X38805810Y63430839D01*
X38852206Y63477235D01*
X38897585Y63580009D01*
X38900500Y63605135D01*
X38900499Y65494864D01*
X38900497Y65494883D01*
X38897586Y65519988D01*
X38897585Y65519990D01*
X38897585Y65519991D01*
X38852206Y65622765D01*
X38799426Y65675545D01*
X38778274Y65703801D01*
X38765667Y65726890D01*
X38750500Y65786315D01*
X38750500Y66732419D01*
X38752027Y66751817D01*
X38755042Y66770853D01*
X38759584Y66789773D01*
X38773402Y66832299D01*
X38800500Y67003389D01*
X38800500Y67176611D01*
X38773402Y67347701D01*
X38719873Y67512445D01*
X38641232Y67666788D01*
X38539414Y67806928D01*
X38416928Y67929414D01*
X38276788Y68031232D01*
X38122449Y68109872D01*
X37971215Y68159012D01*
X37971203Y68159015D01*
X37957701Y68163402D01*
X37957699Y68163403D01*
X37957698Y68163403D01*
X37943312Y68165682D01*
X37943306Y68165683D01*
X37853188Y68179956D01*
X37826271Y68184219D01*
X37810407Y68186732D01*
X37786614Y68190500D01*
X37786611Y68190500D01*
X37613389Y68190500D01*
X37613388Y68190500D01*
X37573726Y68184219D01*
X37573725Y68184220D01*
X37442304Y68163404D01*
X37277549Y68109871D01*
X37123210Y68031232D01*
X37043256Y67973141D01*
X37043255Y67973141D01*
X36994941Y67938039D01*
X36987564Y67933908D01*
X36856092Y67802436D01*
X36851961Y67795059D01*
X36816859Y67746745D01*
X36816859Y67746744D01*
X36758768Y67666790D01*
X36680129Y67512451D01*
X36626596Y67347695D01*
X36599500Y67176617D01*
X36599500Y67003385D01*
X36626596Y66832306D01*
X36626597Y66832301D01*
X36640416Y66789770D01*
X36644958Y66770853D01*
X36647973Y66751819D01*
X36649500Y66732419D01*
X36649500Y65793663D01*
X36644476Y65758724D01*
X36637064Y65733484D01*
X36605769Y65680742D01*
X36547794Y65622768D01*
X36502414Y65519995D01*
X36501844Y65517290D01*
X36501589Y65512876D01*
X36499502Y65494883D01*
X36499500Y65494869D01*
X36072200Y65494869D01*
X36072200Y69716617D01*
X36599500Y69716617D01*
X36599500Y69543386D01*
X36614378Y69449448D01*
X36618098Y69425962D01*
X36626598Y69372299D01*
X36680127Y69207555D01*
X36758768Y69053212D01*
X36860586Y68913072D01*
X36983072Y68790586D01*
X37123212Y68688768D01*
X37277555Y68610127D01*
X37442299Y68556598D01*
X37613389Y68529500D01*
X37613390Y68529500D01*
X37786610Y68529500D01*
X37786611Y68529500D01*
X37957701Y68556598D01*
X38122445Y68610127D01*
X38276788Y68688768D01*
X38416928Y68790586D01*
X38539414Y68913072D01*
X38641232Y69053212D01*
X38719873Y69207555D01*
X38773402Y69372299D01*
X38800500Y69543389D01*
X38800500Y69716611D01*
X38773402Y69887701D01*
X38719873Y70052445D01*
X38641232Y70206788D01*
X38539414Y70346928D01*
X38416928Y70469414D01*
X38276788Y70571232D01*
X38271267Y70574045D01*
X38122449Y70649872D01*
X37971215Y70699012D01*
X37971203Y70699015D01*
X37957701Y70703402D01*
X37957699Y70703403D01*
X37957698Y70703403D01*
X37943312Y70705682D01*
X37943306Y70705683D01*
X37853188Y70719956D01*
X37826271Y70724219D01*
X37810407Y70726732D01*
X37786614Y70730500D01*
X37786611Y70730500D01*
X37613389Y70730500D01*
X37613388Y70730500D01*
X37573726Y70724219D01*
X37573725Y70724220D01*
X37442304Y70703404D01*
X37277549Y70649871D01*
X37123210Y70571232D01*
X37043256Y70513141D01*
X37043255Y70513141D01*
X36994941Y70478039D01*
X36987564Y70473908D01*
X36856092Y70342436D01*
X36851961Y70335059D01*
X36816859Y70286745D01*
X36816859Y70286744D01*
X36758768Y70206790D01*
X36680129Y70052451D01*
X36626596Y69887695D01*
X36599500Y69716617D01*
X36072200Y69716617D01*
X36072200Y72256617D01*
X36599500Y72256617D01*
X36599500Y72256611D01*
X36599500Y72083389D01*
X36626598Y71912299D01*
X36680127Y71747555D01*
X36758768Y71593212D01*
X36860586Y71453072D01*
X36983072Y71330586D01*
X37123212Y71228768D01*
X37277555Y71150127D01*
X37442299Y71096598D01*
X37613389Y71069500D01*
X37613390Y71069500D01*
X37786610Y71069500D01*
X37786611Y71069500D01*
X37957701Y71096598D01*
X38122445Y71150127D01*
X38276788Y71228768D01*
X38416928Y71330586D01*
X38539414Y71453072D01*
X38641232Y71593212D01*
X38719873Y71747555D01*
X38773402Y71912299D01*
X38800500Y72083389D01*
X38800500Y72256611D01*
X38773402Y72427701D01*
X38719873Y72592445D01*
X38641232Y72746788D01*
X38539414Y72886928D01*
X38416928Y73009414D01*
X38276788Y73111232D01*
X38122449Y73189872D01*
X37971215Y73239012D01*
X37971203Y73239015D01*
X37957701Y73243402D01*
X37957699Y73243403D01*
X37957698Y73243403D01*
X37943312Y73245682D01*
X37943306Y73245683D01*
X37853188Y73259956D01*
X37826271Y73264219D01*
X37810407Y73266732D01*
X37786614Y73270500D01*
X37786611Y73270500D01*
X37613389Y73270500D01*
X37613388Y73270500D01*
X37573726Y73264219D01*
X37573725Y73264220D01*
X37442304Y73243404D01*
X37277549Y73189871D01*
X37123210Y73111232D01*
X37043256Y73053141D01*
X37043255Y73053141D01*
X36994941Y73018039D01*
X36987564Y73013908D01*
X36856092Y72882436D01*
X36851961Y72875059D01*
X36816859Y72826745D01*
X36816859Y72826744D01*
X36758768Y72746790D01*
X36680129Y72592451D01*
X36626596Y72427695D01*
X36599500Y72256617D01*
X36072200Y72256617D01*
X36072200Y76618131D01*
X36077222Y76653064D01*
X36084634Y76678309D01*
X36115928Y76731051D01*
X39593954Y80209077D01*
X39622204Y80230225D01*
X39645296Y80242833D01*
X39704721Y80258000D01*
X43102692Y80258000D01*
X43123277Y80251956D01*
X43133346Y80253223D01*
X43156245Y80242275D01*
X43169731Y80238315D01*
X43179950Y80230942D01*
X43196381Y80223086D01*
X43233117Y80163653D01*
X43231890Y80093794D01*
X43226340Y80079305D01*
X43225202Y80076813D01*
X43198300Y80040551D01*
X43199090Y80039761D01*
X43199082Y80039753D01*
X43194567Y80035518D01*
X43194417Y80035315D01*
X43193419Y80034435D01*
X43193416Y80034438D01*
X43193296Y80034325D01*
X43193022Y80034084D01*
X43188602Y80030375D01*
X43188461Y80030263D01*
X43187069Y80029018D01*
X43183830Y80025974D01*
X43171960Y80015503D01*
X43171865Y80015253D01*
X43160896Y80002698D01*
X43063036Y79904838D01*
X42964494Y79757361D01*
X42964485Y79757346D01*
X42964477Y79757328D01*
X42896609Y79593478D01*
X42896601Y79593455D01*
X42896599Y79593448D01*
X42862000Y79419501D01*
X42862000Y79419496D01*
X42862000Y79242105D01*
X42862000Y79242103D01*
X42861999Y79242103D01*
X42896600Y79068160D01*
X42896607Y79068129D01*
X42947887Y78944327D01*
X42954943Y78921070D01*
X42959617Y78897570D01*
X42962000Y78873381D01*
X42962000Y78127054D01*
X42962000Y78127052D01*
X42961999Y78127052D01*
X42992757Y77972429D01*
X42992764Y77972398D01*
X43053098Y77826735D01*
X43053103Y77826726D01*
X43053113Y77826709D01*
X43140708Y77695615D01*
X43140712Y77695609D01*
X43140717Y77695603D01*
X51078912Y69757410D01*
X51094332Y69738622D01*
X51107646Y69718697D01*
X51119103Y69697264D01*
X51155560Y69609246D01*
X51170383Y69573460D01*
X51170394Y69573440D01*
X51268938Y69425962D01*
X51268942Y69425957D01*
X51394355Y69300544D01*
X51394361Y69300539D01*
X51394365Y69300536D01*
X51541846Y69201991D01*
X51541859Y69201984D01*
X51577979Y69187023D01*
X51663544Y69151581D01*
X51663582Y69151566D01*
X51664763Y69151077D01*
X51705734Y69134106D01*
X51705736Y69134106D01*
X51705741Y69134104D01*
X51872080Y69101018D01*
X51874803Y69100296D01*
X51879706Y69099500D01*
X52057093Y69099500D01*
X52061214Y69099500D01*
X52069067Y69101883D01*
X52115082Y69111036D01*
X52115083Y69111036D01*
X52231053Y69134103D01*
X52231053Y69134104D01*
X52231058Y69134104D01*
X52231061Y69134106D01*
X52231066Y69134106D01*
X52234254Y69135427D01*
X52242235Y69138727D01*
X52242276Y69138749D01*
X52394940Y69201984D01*
X52394940Y69201985D01*
X52394947Y69201987D01*
X52542435Y69300536D01*
X52542443Y69300544D01*
X52667863Y69425963D01*
X52667864Y69425965D01*
X52766413Y69573453D01*
X52834294Y69737334D01*
X52840734Y69769707D01*
X52868899Y69911305D01*
X52868900Y69911307D01*
X52868900Y70088694D01*
X52868899Y70088696D01*
X52834296Y70262659D01*
X52834293Y70262668D01*
X52766416Y70426541D01*
X52766409Y70426554D01*
X52667864Y70574035D01*
X52667861Y70574039D01*
X52667856Y70574045D01*
X52542440Y70699461D01*
X52394960Y70798006D01*
X52394940Y70798017D01*
X52359154Y70812840D01*
X52271136Y70849297D01*
X52249703Y70860754D01*
X52229778Y70874068D01*
X52210990Y70889488D01*
X44611926Y78488552D01*
X44590774Y78516808D01*
X44578167Y78539897D01*
X44563000Y78599322D01*
X44563000Y78873381D01*
X44565382Y78897569D01*
X44570057Y78921075D01*
X44577109Y78944321D01*
X44626711Y79064074D01*
X44627878Y79066630D01*
X44628387Y79068121D01*
X44628392Y79068130D01*
X44628394Y79068134D01*
X44662999Y79242103D01*
X44663000Y79242107D01*
X44663000Y79419675D01*
X44662574Y79421631D01*
X44628396Y79593459D01*
X44628393Y79593468D01*
X44560516Y79757341D01*
X44560509Y79757354D01*
X44461964Y79904835D01*
X44461961Y79904839D01*
X44461956Y79904845D01*
X44337887Y80028914D01*
X44322199Y80048106D01*
X44310667Y80065511D01*
X44312304Y80066597D01*
X44298334Y80083326D01*
X44289652Y80152654D01*
X44319831Y80215670D01*
X44346916Y80238290D01*
X44348909Y80239520D01*
X44414036Y80258000D01*
X50720981Y80258000D01*
X50745165Y80255619D01*
X50768674Y80250943D01*
X50791920Y80243891D01*
X50915734Y80192606D01*
X50915735Y80192606D01*
X50915736Y80192606D01*
X50915741Y80192604D01*
X51082080Y80159518D01*
X51084803Y80158796D01*
X51089706Y80158000D01*
X51267093Y80158000D01*
X51271214Y80158000D01*
X51279067Y80160383D01*
X51325082Y80169536D01*
X51325083Y80169536D01*
X51441053Y80192603D01*
X51441053Y80192604D01*
X51441058Y80192604D01*
X51441061Y80192606D01*
X51441066Y80192606D01*
X51444254Y80193927D01*
X51452235Y80197227D01*
X51452276Y80197249D01*
X51604940Y80260484D01*
X51604940Y80260485D01*
X51604947Y80260487D01*
X51752435Y80359036D01*
X51877864Y80484465D01*
X51976413Y80631953D01*
X52044294Y80795834D01*
X52078900Y80969809D01*
X52078900Y81121289D01*
X104149500Y81121289D01*
X104149500Y80878712D01*
X104181161Y80638213D01*
X104212554Y80521056D01*
X104222358Y80484465D01*
X104243947Y80403896D01*
X104331467Y80192604D01*
X104334405Y80185511D01*
X104336773Y80179795D01*
X104336778Y80179784D01*
X104458060Y79969716D01*
X104458062Y79969714D01*
X104458281Y79969385D01*
X104459284Y79968121D01*
X104605726Y79777272D01*
X104605730Y79777267D01*
X104605733Y79777264D01*
X104605739Y79777257D01*
X104777256Y79605740D01*
X104777263Y79605734D01*
X104777266Y79605732D01*
X104777270Y79605728D01*
X104793251Y79593466D01*
X104969711Y79458064D01*
X105179784Y79336778D01*
X105179785Y79336778D01*
X105179788Y79336776D01*
X105403900Y79243946D01*
X105638211Y79181162D01*
X105818586Y79157416D01*
X105878710Y79149500D01*
X105878711Y79149500D01*
X105878712Y79149500D01*
X106121283Y79149500D01*
X106121289Y79149500D01*
X106169388Y79155833D01*
X106361789Y79181162D01*
X106596100Y79243946D01*
X106820212Y79336776D01*
X107030289Y79458064D01*
X107222738Y79605735D01*
X107394265Y79777262D01*
X107541936Y79969711D01*
X107663224Y80179788D01*
X107756054Y80403900D01*
X107818838Y80638211D01*
X107850500Y80878712D01*
X107850500Y81121288D01*
X107847089Y81147194D01*
X107846154Y81154294D01*
X107824186Y81321166D01*
X107824184Y81321178D01*
X107818838Y81361789D01*
X107756054Y81596100D01*
X107663224Y81820212D01*
X107541936Y82030289D01*
X107394265Y82222738D01*
X107394260Y82222744D01*
X107394259Y82222745D01*
X107394247Y82222758D01*
X107222751Y82394253D01*
X107222743Y82394261D01*
X107222736Y82394267D01*
X107222733Y82394270D01*
X107222728Y82394274D01*
X107031879Y82540716D01*
X107030615Y82541719D01*
X107030286Y82541938D01*
X107030283Y82541940D01*
X106820220Y82663220D01*
X106820207Y82663227D01*
X106820203Y82663228D01*
X106596104Y82756053D01*
X106361781Y82818840D01*
X106121290Y82850500D01*
X106121289Y82850500D01*
X106121288Y82850500D01*
X105878712Y82850500D01*
X105878711Y82850500D01*
X105878710Y82850500D01*
X105638217Y82818840D01*
X105403894Y82756053D01*
X105179790Y82663226D01*
X105179782Y82663222D01*
X104969706Y82541933D01*
X104969697Y82541927D01*
X104777270Y82394274D01*
X104777255Y82394260D01*
X104777247Y82394253D01*
X104605747Y82222753D01*
X104605740Y82222745D01*
X104605726Y82222730D01*
X104458073Y82030303D01*
X104458067Y82030294D01*
X104336778Y81820218D01*
X104336774Y81820210D01*
X104243947Y81596106D01*
X104181160Y81361783D01*
X104152910Y81147191D01*
X104149500Y81121289D01*
X52078900Y81121289D01*
X52078900Y81147191D01*
X52078900Y81147194D01*
X52078899Y81147196D01*
X52044296Y81321159D01*
X52044293Y81321168D01*
X51976416Y81485041D01*
X51976409Y81485054D01*
X51877864Y81632535D01*
X51877861Y81632539D01*
X51877856Y81632545D01*
X51752443Y81757958D01*
X51752437Y81757963D01*
X51752436Y81757964D01*
X51604959Y81856506D01*
X51604958Y81856507D01*
X51604953Y81856510D01*
X51604940Y81856517D01*
X51604926Y81856523D01*
X51441076Y81924391D01*
X51441053Y81924399D01*
X51441046Y81924401D01*
X51267098Y81959000D01*
X51267094Y81959000D01*
X51267091Y81959000D01*
X51089709Y81959000D01*
X51089706Y81959000D01*
X51089701Y81959000D01*
X50915752Y81924400D01*
X50915745Y81924399D01*
X50915717Y81924389D01*
X50791925Y81873113D01*
X50768670Y81866058D01*
X50745178Y81861384D01*
X50720981Y81859000D01*
X39232453Y81859000D01*
X39077827Y81828243D01*
X39077796Y81828236D01*
X38932133Y81767902D01*
X38932124Y81767897D01*
X38932107Y81767887D01*
X38801008Y81680289D01*
X38801007Y81680288D01*
X38801001Y81680283D01*
X36065051Y78944329D01*
X35709562Y78588840D01*
X34761411Y77640689D01*
X34705660Y77584938D01*
X34649909Y77529188D01*
X34649904Y77529183D01*
X34649903Y77529181D01*
X34562324Y77398109D01*
X34562301Y77398072D01*
X34501964Y77252404D01*
X34501957Y77252373D01*
X34471200Y77097750D01*
X34471200Y71740591D01*
X34461506Y71704801D01*
X34460184Y71686375D01*
X34454438Y71678705D01*
X34454252Y71678015D01*
X34449073Y71669155D01*
X34447830Y71669882D01*
X34418299Y71630452D01*
X34352828Y71606052D01*
X34292488Y71616950D01*
X34291932Y71617204D01*
X34247842Y71651037D01*
X34246406Y71652776D01*
X34234634Y71669731D01*
X34204017Y71722761D01*
X34204017Y71722762D01*
X34141939Y71830285D01*
X34141938Y71830287D01*
X33994268Y72022734D01*
X33994262Y72022742D01*
X33994247Y72022758D01*
X33822751Y72194253D01*
X33822743Y72194261D01*
X33822736Y72194267D01*
X33822733Y72194270D01*
X33822728Y72194274D01*
X33631879Y72340716D01*
X33630615Y72341719D01*
X33630286Y72341938D01*
X33630283Y72341940D01*
X33420219Y72463221D01*
X33420208Y72463226D01*
X33336637Y72497842D01*
X33196104Y72556053D01*
X32961781Y72618840D01*
X32721290Y72650500D01*
X32721289Y72650500D01*
X32721288Y72650500D01*
X32478712Y72650500D01*
X32478711Y72650500D01*
X32478710Y72650500D01*
X32238217Y72618840D01*
X32003894Y72556053D01*
X31779790Y72463226D01*
X31779782Y72463222D01*
X31569706Y72341933D01*
X31569697Y72341927D01*
X31377270Y72194274D01*
X31377255Y72194260D01*
X31377247Y72194253D01*
X31205747Y72022753D01*
X31205740Y72022745D01*
X31205726Y72022730D01*
X31058073Y71830303D01*
X31058067Y71830294D01*
X30936778Y71620218D01*
X30936774Y71620210D01*
X30843947Y71396106D01*
X30781160Y71161783D01*
X30749500Y70921290D01*
X30749500Y70678712D01*
X30777053Y70469414D01*
X30781161Y70438215D01*
X30843947Y70203896D01*
X30906679Y70052448D01*
X30928122Y70000682D01*
X30928122Y70000681D01*
X30936774Y69979793D01*
X30936779Y69979782D01*
X31058060Y69769717D01*
X31058062Y69769714D01*
X31058281Y69769385D01*
X31059284Y69768121D01*
X31205726Y69577272D01*
X31205730Y69577267D01*
X31205733Y69577264D01*
X31205739Y69577257D01*
X31377256Y69405740D01*
X31377263Y69405734D01*
X31420837Y69372299D01*
X31569711Y69258064D01*
X31779788Y69136776D01*
X32003900Y69043946D01*
X32238211Y68981162D01*
X32418586Y68957416D01*
X32478710Y68949500D01*
X32478711Y68949500D01*
X32478712Y68949500D01*
X32721283Y68949500D01*
X32721289Y68949500D01*
X32769388Y68955833D01*
X32961789Y68981162D01*
X33196100Y69043946D01*
X33420212Y69136776D01*
X33630289Y69258064D01*
X33822738Y69405735D01*
X33994265Y69577262D01*
X34141936Y69769711D01*
X34230900Y69923804D01*
X34257144Y69949914D01*
X34267455Y69965170D01*
X34276287Y69968960D01*
X34276835Y69969504D01*
X34285749Y69974590D01*
X34286469Y69973328D01*
X34331665Y69992718D01*
X34400575Y69981178D01*
X34447387Y69941659D01*
X34447744Y69941159D01*
X34469108Y69889678D01*
X34469481Y69887461D01*
X34471200Y69866888D01*
X34471200Y40472471D01*
X34466176Y40437534D01*
X34458764Y40412293D01*
X34427469Y40359549D01*
X31378217Y37310299D01*
X31378216Y37310298D01*
X31378211Y37310291D01*
X31378211Y37310290D01*
X31368283Y37295432D01*
X31344696Y37269174D01*
X31328599Y37255722D01*
X31274377Y37229478D01*
X31267797Y37228107D01*
X31242504Y37225500D01*
X30036074Y37225500D01*
X30019865Y37226564D01*
X30014920Y37227216D01*
X30000087Y37229172D01*
X30000085Y37229172D01*
X30000084Y37229172D01*
X29982935Y37226918D01*
X29980248Y37226564D01*
X29980202Y37226558D01*
X29964039Y37225500D01*
X29943978Y37225500D01*
X29943956Y37225496D01*
X29924691Y37220336D01*
X29924692Y37220335D01*
X29916830Y37218229D01*
X29889006Y37214570D01*
X29862994Y37203804D01*
X29855153Y37201702D01*
X29835765Y37196506D01*
X29835758Y37196503D01*
X29822011Y37188565D01*
X29814845Y37184735D01*
X29807566Y37181146D01*
X29800158Y37177791D01*
X29785490Y37171720D01*
X29778407Y37166287D01*
X29778404Y37166287D01*
X29778401Y37166283D01*
X29769547Y37159494D01*
X29756102Y37150513D01*
X29738739Y37140487D01*
X29724628Y37126378D01*
X29715474Y37118095D01*
X29715463Y37118086D01*
X29712408Y37115666D01*
X24778204Y33331109D01*
X24713030Y33305928D01*
X24702738Y33305500D01*
X10924500Y33305500D01*
X10857461Y33325185D01*
X10811706Y33377989D01*
X10800500Y33429500D01*
X10800500Y35618844D01*
X10799701Y35623763D01*
X10798978Y35626495D01*
X10798651Y35628140D01*
X10798648Y35628159D01*
X10770399Y35770170D01*
X10769985Y35772594D01*
X10769739Y35773490D01*
X10769738Y35773497D01*
X10709394Y35919179D01*
X10709392Y35919182D01*
X10709390Y35919186D01*
X10621789Y36050289D01*
X10621786Y36050293D01*
X10621781Y36050299D01*
X8348707Y38323371D01*
X8327555Y38351627D01*
X8315667Y38373399D01*
X8300500Y38432824D01*
X8300500Y38642352D01*
X8268477Y38844532D01*
X8268477Y38844534D01*
X8268476Y38844538D01*
X8268476Y38844539D01*
X8207833Y39031177D01*
X8205220Y39039219D01*
X8205218Y39039222D01*
X8205218Y39039224D01*
X8202977Y39043622D01*
X8202667Y39044417D01*
X8201932Y39045673D01*
X8171503Y39105393D01*
X8154507Y39138749D01*
X8112287Y39221610D01*
X8104556Y39232251D01*
X7991971Y39387214D01*
X7847213Y39531972D01*
X7847212Y39531973D01*
X7847211Y39531974D01*
X7692209Y39644587D01*
X7692205Y39644590D01*
X7681613Y39652285D01*
X7681612Y39652286D01*
X7681610Y39652287D01*
X7653171Y39666778D01*
X7624654Y39681309D01*
X7624653Y39681309D01*
X7499223Y39745219D01*
X7304534Y39808478D01*
X7304532Y39808479D01*
X7304530Y39808479D01*
X7304529Y39808480D01*
X7116855Y39838203D01*
X7102352Y39840500D01*
X6897648Y39840500D01*
X6883195Y39838211D01*
X6695469Y39808480D01*
X6695468Y39808479D01*
X6500777Y39745220D01*
X6500764Y39745214D01*
X6318397Y39652292D01*
X6318385Y39652285D01*
X6152787Y39531973D01*
X6152784Y39531971D01*
X6008029Y39387216D01*
X6008027Y39387213D01*
X5887715Y39221615D01*
X5887708Y39221603D01*
X5794786Y39039236D01*
X5794780Y39039223D01*
X5731521Y38844532D01*
X5699500Y38642358D01*
X5699500Y38437644D01*
X5731521Y38235470D01*
X5794780Y38040779D01*
X5794786Y38040766D01*
X5887708Y37858399D01*
X5887715Y37858387D01*
X6008028Y37692787D01*
X6152786Y37548029D01*
X6307749Y37435444D01*
X6318390Y37427713D01*
X6434607Y37368497D01*
X6495154Y37337647D01*
X6496043Y37337176D01*
X6496249Y37336975D01*
X6499629Y37335338D01*
X6501637Y37334340D01*
X6505403Y37333278D01*
X6533465Y37324161D01*
X6576155Y37310290D01*
X6576156Y37310289D01*
X6633580Y37291631D01*
X6695465Y37271523D01*
X6796557Y37255512D01*
X6897648Y37239500D01*
X6897649Y37239500D01*
X7095316Y37239500D01*
X7120781Y37236857D01*
X7148310Y37231079D01*
X7209873Y37198045D01*
X7210517Y37197405D01*
X9150573Y35257349D01*
X9171723Y35229097D01*
X9184331Y35206008D01*
X9199500Y35146579D01*
X9199500Y19750070D01*
X9194476Y19715132D01*
X9191289Y19704279D01*
X9153514Y19645502D01*
X9089957Y19616479D01*
X9020807Y19626420D01*
X9013829Y19629607D01*
X8977657Y19654721D01*
X3099426Y25532952D01*
X3078274Y25561208D01*
X3065667Y25584297D01*
X3050500Y25643722D01*
X3050500Y34504869D01*
X5699500Y34504869D01*
X5699500Y32415144D01*
X5699502Y32415118D01*
X5699503Y32415110D01*
X5699503Y32415109D01*
X5702414Y32390007D01*
X5702546Y32389562D01*
X5703609Y32387304D01*
X5747793Y32287236D01*
X5747794Y32287235D01*
X5827235Y32207794D01*
X5930009Y32162415D01*
X5955135Y32159500D01*
X8044864Y32159501D01*
X8044879Y32159503D01*
X8044882Y32159503D01*
X8044888Y32159504D01*
X8045019Y32159513D01*
X8045736Y32159603D01*
X8069987Y32162414D01*
X8069987Y32162415D01*
X8069990Y32162415D01*
X8069991Y32162415D01*
X8069991Y32162416D01*
X8070102Y32162428D01*
X8071862Y32163242D01*
X8172765Y32207794D01*
X8252206Y32287235D01*
X8297585Y32390009D01*
X8300500Y32415135D01*
X8300499Y34504864D01*
X8300497Y34504883D01*
X8297586Y34529988D01*
X8297585Y34529990D01*
X8297585Y34529991D01*
X8252206Y34632765D01*
X8172765Y34712206D01*
X8172763Y34712207D01*
X8139879Y34726727D01*
X8069993Y34757585D01*
X8069994Y34757585D01*
X8044868Y34760500D01*
X8044865Y34760500D01*
X5955143Y34760500D01*
X5955127Y34760499D01*
X5955113Y34760498D01*
X5937255Y34758427D01*
X5930012Y34757587D01*
X5930011Y34757587D01*
X5930005Y34757586D01*
X5929559Y34757453D01*
X5927303Y34756391D01*
X5827236Y34712208D01*
X5747793Y34632766D01*
X5702414Y34529995D01*
X5702405Y34529951D01*
X5702404Y34529906D01*
X5699500Y34504869D01*
X3050500Y34504869D01*
X3050500Y46389232D01*
X3055522Y46424165D01*
X3062934Y46449410D01*
X3094228Y46502152D01*
X6783372Y50191297D01*
X6811622Y50212445D01*
X6833397Y50224335D01*
X6892821Y50239500D01*
X7102351Y50239500D01*
X7102352Y50239500D01*
X7304534Y50271523D01*
X7499219Y50334780D01*
X7681610Y50427713D01*
X7774590Y50495268D01*
X7847213Y50548029D01*
X7847213Y50548031D01*
X7847272Y50548073D01*
X7848031Y50548847D01*
X7991966Y50692781D01*
X7991968Y50692785D01*
X7991971Y50692787D01*
X8044730Y50765407D01*
X8044732Y50765409D01*
X8068172Y50797673D01*
X8112287Y50858390D01*
X8205220Y51040781D01*
X8268477Y51235466D01*
X8300500Y51437648D01*
X8300500Y51642352D01*
X8268477Y51844534D01*
X8268476Y51844538D01*
X8268476Y51844539D01*
X8207833Y52031177D01*
X8205220Y52039219D01*
X8205218Y52039222D01*
X8205218Y52039224D01*
X8202977Y52043622D01*
X8202667Y52044417D01*
X8201932Y52045673D01*
X8171503Y52105393D01*
X8112287Y52221610D01*
X8104556Y52232251D01*
X7991971Y52387214D01*
X7847213Y52531972D01*
X7847212Y52531973D01*
X7847211Y52531974D01*
X7692209Y52644587D01*
X7692205Y52644590D01*
X7681613Y52652285D01*
X7681612Y52652286D01*
X7681610Y52652287D01*
X7653171Y52666778D01*
X7624654Y52681309D01*
X7624653Y52681309D01*
X7499223Y52745219D01*
X7304534Y52808478D01*
X7304532Y52808479D01*
X7304530Y52808479D01*
X7304529Y52808480D01*
X7129995Y52836122D01*
X7113409Y52838749D01*
X7102354Y52840500D01*
X7102352Y52840500D01*
X6897648Y52840500D01*
X6897647Y52840500D01*
X6873327Y52836649D01*
X6873326Y52836650D01*
X6695468Y52808479D01*
X6500777Y52745220D01*
X6500764Y52745214D01*
X6318397Y52652292D01*
X6318385Y52652285D01*
X6152787Y52531973D01*
X6152784Y52531971D01*
X6008029Y52387216D01*
X6008027Y52387213D01*
X5887715Y52221615D01*
X5887708Y52221603D01*
X5794786Y52039236D01*
X5794780Y52039223D01*
X5731521Y51844532D01*
X5699500Y51642358D01*
X5699500Y51444675D01*
X5696849Y51419174D01*
X5691067Y51391660D01*
X5658017Y51330101D01*
X5657399Y51329480D01*
X3176041Y48848119D01*
X2686531Y48358609D01*
X1739711Y47411789D01*
X1683960Y47356038D01*
X1628209Y47300288D01*
X1628205Y47300284D01*
X1540613Y47169193D01*
X1540603Y47169176D01*
X1540598Y47169167D01*
X1480264Y47023504D01*
X1480257Y47023473D01*
X1449500Y46868850D01*
X1449500Y46868847D01*
X1449500Y25171454D01*
X1449500Y25171452D01*
X1449499Y25171452D01*
X500000Y25171452D01*
X500000Y58338701D01*
X26783600Y58338701D01*
X26783600Y58161301D01*
X26818199Y57987354D01*
X26818201Y57987347D01*
X26818209Y57987324D01*
X26886077Y57823474D01*
X26886085Y57823456D01*
X26886094Y57823441D01*
X26984636Y57675964D01*
X26984637Y57675963D01*
X26984642Y57675957D01*
X27110055Y57550544D01*
X27110061Y57550539D01*
X27110065Y57550536D01*
X27257546Y57451991D01*
X27257559Y57451984D01*
X27326455Y57423447D01*
X27421434Y57384106D01*
X27421436Y57384106D01*
X27421441Y57384104D01*
X27587780Y57351018D01*
X27590503Y57350296D01*
X27595406Y57349500D01*
X27772793Y57349500D01*
X27776914Y57349500D01*
X27784767Y57351883D01*
X27830782Y57361036D01*
X27830783Y57361036D01*
X27946753Y57384103D01*
X27946753Y57384104D01*
X27946758Y57384104D01*
X27946761Y57384106D01*
X27946766Y57384106D01*
X27949954Y57385427D01*
X27957935Y57388727D01*
X27957976Y57388749D01*
X28110640Y57451984D01*
X28110640Y57451985D01*
X28110647Y57451987D01*
X28258135Y57550536D01*
X28383564Y57675965D01*
X28436089Y57754575D01*
X28459666Y57780821D01*
X28475771Y57794281D01*
X28530012Y57820527D01*
X28536593Y57821897D01*
X28561865Y57824500D01*
X30747816Y57824500D01*
X30747818Y57824500D01*
X30856037Y57853497D01*
X30953063Y57909515D01*
X31841127Y58797582D01*
X31869374Y58818728D01*
X31887795Y58828786D01*
X31946109Y58843948D01*
X31952842Y58844008D01*
X31978123Y58841631D01*
X32060235Y58825298D01*
X32075805Y58822200D01*
X32253193Y58822200D01*
X32257314Y58822200D01*
X32265167Y58824583D01*
X32311182Y58833736D01*
X32311183Y58833736D01*
X32427153Y58856803D01*
X32427153Y58856804D01*
X32427158Y58856804D01*
X32427161Y58856806D01*
X32427166Y58856806D01*
X32430354Y58858127D01*
X32438335Y58861427D01*
X32438376Y58861449D01*
X32591040Y58924684D01*
X32591040Y58924685D01*
X32591047Y58924687D01*
X32738535Y59023236D01*
X32863964Y59148665D01*
X32962513Y59296153D01*
X33030394Y59460034D01*
X33065000Y59634009D01*
X33065000Y59811391D01*
X33065000Y59811394D01*
X33065000Y59811575D01*
X33064574Y59813531D01*
X33030396Y59985359D01*
X33030393Y59985368D01*
X33003869Y60049403D01*
X32962519Y60149234D01*
X32962518Y60149236D01*
X32962516Y60149241D01*
X32962509Y60149254D01*
X32863964Y60296735D01*
X32863961Y60296739D01*
X32863956Y60296745D01*
X32738543Y60422158D01*
X32738537Y60422163D01*
X32738536Y60422164D01*
X32591059Y60520706D01*
X32591058Y60520707D01*
X32591053Y60520710D01*
X32591040Y60520717D01*
X32591026Y60520723D01*
X32427176Y60588591D01*
X32427153Y60588599D01*
X32427146Y60588601D01*
X32253198Y60623200D01*
X32253194Y60623200D01*
X32253191Y60623200D01*
X32075809Y60623200D01*
X32075806Y60623200D01*
X32075801Y60623200D01*
X31901852Y60588600D01*
X31901845Y60588599D01*
X31901822Y60588591D01*
X31737972Y60520723D01*
X31737954Y60520715D01*
X31737939Y60520706D01*
X31590462Y60422164D01*
X31590461Y60422163D01*
X31590455Y60422158D01*
X31465042Y60296745D01*
X31465037Y60296739D01*
X31465036Y60296738D01*
X31366494Y60149261D01*
X31366485Y60149246D01*
X31366480Y60149234D01*
X31298609Y59985378D01*
X31298601Y59985355D01*
X31298599Y59985348D01*
X31264000Y59811401D01*
X31264000Y59811396D01*
X31264000Y59634005D01*
X31264000Y59634003D01*
X31263999Y59634003D01*
X31282441Y59541295D01*
X31284331Y59506052D01*
X31282461Y59485153D01*
X31262664Y59428232D01*
X31258980Y59422611D01*
X31242951Y59402902D01*
X30564478Y58724427D01*
X30536227Y58703278D01*
X30513139Y58690670D01*
X30453709Y58675500D01*
X28566922Y58675500D01*
X28531986Y58680523D01*
X28511852Y58686435D01*
X28459895Y58716950D01*
X28455103Y58721657D01*
X28438896Y58741225D01*
X28383564Y58824035D01*
X28383561Y58824039D01*
X28383556Y58824045D01*
X28258143Y58949458D01*
X28258137Y58949463D01*
X28258136Y58949464D01*
X28110659Y59048006D01*
X28110658Y59048007D01*
X28110653Y59048010D01*
X28110640Y59048017D01*
X28110626Y59048023D01*
X27946776Y59115891D01*
X27946753Y59115899D01*
X27946746Y59115901D01*
X27772798Y59150500D01*
X27772794Y59150500D01*
X27772791Y59150500D01*
X27595409Y59150500D01*
X27595406Y59150500D01*
X27595401Y59150500D01*
X27421452Y59115900D01*
X27421445Y59115899D01*
X27421422Y59115891D01*
X27257572Y59048023D01*
X27257554Y59048015D01*
X27257539Y59048006D01*
X27110062Y58949464D01*
X27110061Y58949463D01*
X27110055Y58949458D01*
X26984642Y58824045D01*
X26984637Y58824039D01*
X26984636Y58824038D01*
X26886094Y58676561D01*
X26886085Y58676546D01*
X26886077Y58676528D01*
X26818209Y58512678D01*
X26818201Y58512655D01*
X26818199Y58512648D01*
X26783600Y58338701D01*
X500000Y58338701D01*
X500000Y62121290D01*
X2149500Y62121290D01*
X2149500Y61878712D01*
X2174954Y61685358D01*
X2181161Y61638215D01*
X2243947Y61403896D01*
X2328611Y61199500D01*
X2334456Y61185390D01*
X2336778Y61179784D01*
X2336779Y61179781D01*
X2458060Y60969717D01*
X2458062Y60969714D01*
X2458281Y60969385D01*
X2459284Y60968121D01*
X2605726Y60777272D01*
X2605730Y60777267D01*
X2605733Y60777264D01*
X2605739Y60777257D01*
X2777256Y60605740D01*
X2777263Y60605734D01*
X2813200Y60578159D01*
X2969711Y60458064D01*
X3179788Y60336776D01*
X3403900Y60243946D01*
X3638211Y60181162D01*
X3818586Y60157416D01*
X3878710Y60149500D01*
X3878711Y60149500D01*
X3878712Y60149500D01*
X4121283Y60149500D01*
X4121289Y60149500D01*
X4169388Y60155833D01*
X4361789Y60181162D01*
X4596100Y60243946D01*
X4820212Y60336776D01*
X5030289Y60458064D01*
X5222738Y60605735D01*
X5394265Y60777262D01*
X5541936Y60969711D01*
X5663224Y61179788D01*
X5756054Y61403900D01*
X5818838Y61638211D01*
X5850500Y61878712D01*
X5850500Y62121288D01*
X5818838Y62361789D01*
X5756054Y62596100D01*
X5663224Y62820212D01*
X5541936Y63030289D01*
X5394265Y63222738D01*
X5394260Y63222744D01*
X5394259Y63222745D01*
X5394247Y63222758D01*
X5222751Y63394253D01*
X5222743Y63394261D01*
X5222736Y63394267D01*
X5222733Y63394270D01*
X5222728Y63394274D01*
X5031879Y63540716D01*
X5030615Y63541719D01*
X5030286Y63541938D01*
X5030283Y63541940D01*
X4820219Y63663221D01*
X4820208Y63663226D01*
X4722381Y63703747D01*
X4596104Y63756053D01*
X4361781Y63818840D01*
X4121290Y63850500D01*
X4121289Y63850500D01*
X4121288Y63850500D01*
X3878712Y63850500D01*
X3878711Y63850500D01*
X3878710Y63850500D01*
X3638217Y63818840D01*
X3403894Y63756053D01*
X3179790Y63663226D01*
X3179782Y63663222D01*
X2969706Y63541933D01*
X2969697Y63541927D01*
X2777270Y63394274D01*
X2777255Y63394260D01*
X2777247Y63394253D01*
X2605747Y63222753D01*
X2605740Y63222745D01*
X2605726Y63222730D01*
X2458073Y63030303D01*
X2458067Y63030294D01*
X2336778Y62820218D01*
X2336774Y62820210D01*
X2243947Y62596106D01*
X2181160Y62361783D01*
X2149500Y62121290D01*
X500000Y62121290D01*
X500000Y81121288D01*
X2149500Y81121288D01*
X2149500Y80878712D01*
X2149569Y80878188D01*
X2149569Y80878184D01*
X2181161Y80638213D01*
X2212554Y80521056D01*
X2222358Y80484465D01*
X2243947Y80403896D01*
X2331467Y80192604D01*
X2334405Y80185511D01*
X2336773Y80179795D01*
X2336778Y80179784D01*
X2458060Y79969716D01*
X2458062Y79969714D01*
X2458281Y79969385D01*
X2459284Y79968121D01*
X2605726Y79777272D01*
X2605730Y79777267D01*
X2605733Y79777264D01*
X2605739Y79777257D01*
X2777256Y79605740D01*
X2777263Y79605734D01*
X2777266Y79605732D01*
X2777270Y79605728D01*
X2793251Y79593466D01*
X2969711Y79458064D01*
X3179784Y79336778D01*
X3179785Y79336778D01*
X3179788Y79336776D01*
X3403900Y79243946D01*
X3638211Y79181162D01*
X3818586Y79157416D01*
X3878710Y79149500D01*
X3878711Y79149500D01*
X3878712Y79149500D01*
X4121283Y79149500D01*
X4121289Y79149500D01*
X4169388Y79155833D01*
X4361789Y79181162D01*
X4596100Y79243946D01*
X4820212Y79336776D01*
X5030289Y79458064D01*
X5222738Y79605735D01*
X5394265Y79777262D01*
X5541936Y79969711D01*
X5663224Y80179788D01*
X5756054Y80403900D01*
X5818838Y80638211D01*
X5850500Y80878712D01*
X5850500Y81121288D01*
X5847089Y81147194D01*
X5846154Y81154294D01*
X5824186Y81321166D01*
X5824184Y81321178D01*
X5818838Y81361789D01*
X5756054Y81596100D01*
X5663224Y81820212D01*
X5541936Y82030289D01*
X5394265Y82222738D01*
X5394260Y82222744D01*
X5394259Y82222745D01*
X5394247Y82222758D01*
X5222751Y82394253D01*
X5222743Y82394261D01*
X5222736Y82394267D01*
X5222733Y82394270D01*
X5222728Y82394274D01*
X5031879Y82540716D01*
X5030615Y82541719D01*
X5030286Y82541938D01*
X5030283Y82541940D01*
X4820220Y82663220D01*
X4820207Y82663227D01*
X4820203Y82663228D01*
X4596104Y82756053D01*
X4361781Y82818840D01*
X4121290Y82850500D01*
X4121289Y82850500D01*
X4121288Y82850500D01*
X3878712Y82850500D01*
X3878711Y82850500D01*
X3878710Y82850500D01*
X3638217Y82818840D01*
X3403894Y82756053D01*
X3179790Y82663226D01*
X3179782Y82663222D01*
X2969706Y82541933D01*
X2969697Y82541927D01*
X2777270Y82394274D01*
X2777255Y82394260D01*
X2777247Y82394253D01*
X2605747Y82222753D01*
X2605740Y82222745D01*
X2605726Y82222730D01*
X2458073Y82030303D01*
X2458067Y82030294D01*
X2336778Y81820218D01*
X2336774Y81820210D01*
X2243947Y81596106D01*
X2181160Y81361783D01*
X2153845Y81154294D01*
X2152910Y81147191D01*
X2149500Y81121288D01*
X500000Y81121288D01*
X500000Y84358171D01*
X505023Y84393107D01*
X509427Y84408105D01*
X547172Y84466856D01*
X548541Y84468043D01*
X603420Y84495523D01*
X610979Y84497167D01*
X637332Y84500000D01*
X109358170Y84500000D01*
X109393106Y84494977D01*
G37*
%TD.AperFunction*%
%TD*%
%TA.AperFunction,Conductor*%
%TO.N,{slash}DC-DC Conversion{slash}-14.145V PRE*%
G36*
X29943039Y32980315D02*
G01*
X29988794Y32927511D01*
X30000000Y32876000D01*
X30000000Y27469162D01*
X29980315Y27402123D01*
X29963681Y27381481D01*
X29856238Y27274039D01*
X29856235Y27274035D01*
X29757690Y27126554D01*
X29757683Y27126541D01*
X29689806Y26962668D01*
X29689803Y26962659D01*
X29655200Y26788696D01*
X29655200Y26611305D01*
X29689803Y26437342D01*
X29689806Y26437333D01*
X29757683Y26273460D01*
X29757690Y26273447D01*
X29856235Y26125966D01*
X29856238Y26125962D01*
X29963681Y26018519D01*
X29997166Y25957196D01*
X30000000Y25930838D01*
X30000000Y10227800D01*
X29980315Y10160761D01*
X29927511Y10115006D01*
X29876000Y10103800D01*
X20350140Y10103800D01*
X20283101Y10123485D01*
X20262459Y10140119D01*
X10836819Y19565759D01*
X10803334Y19627082D01*
X10800500Y19653440D01*
X10800500Y32876000D01*
X10820185Y32943039D01*
X10872989Y32988794D01*
X10924500Y33000000D01*
X29876000Y33000000D01*
X29943039Y32980315D01*
G37*
%TD.AperFunction*%
%TD*%
M02*
