%TF.GenerationSoftware,KiCad,Pcbnew,9.0.6*%
%TF.CreationDate,2026-02-04T05:23:12+09:00*%
%TF.ProjectId,zudo-pd,7a75646f-2d70-4642-9e6b-696361645f70,rev?*%
%TF.SameCoordinates,Original*%
%TF.FileFunction,Copper,L1,Top*%
%TF.FilePolarity,Positive*%
%FSLAX46Y46*%
G04 Gerber Fmt 4.6, Leading zero omitted, Abs format (unit mm)*
G04 Created by KiCad (PCBNEW 9.0.6) date 2026-02-04 05:23:12*
%MOMM*%
%LPD*%
G01*
G04 APERTURE LIST*
%TA.AperFunction,SMDPad,CuDef*%
%ADD10R,3.080000X1.020000*%
%TD*%
%TA.AperFunction,SMDPad,CuDef*%
%ADD11R,8.500000X11.000000*%
%TD*%
%TA.AperFunction,SMDPad,CuDef*%
%ADD12R,1.490000X1.730000*%
%TD*%
%TA.AperFunction,SMDPad,CuDef*%
%ADD13R,1.410000X1.350000*%
%TD*%
%TA.AperFunction,SMDPad,CuDef*%
%ADD14R,4.500000X1.650000*%
%TD*%
%TA.AperFunction,SMDPad,CuDef*%
%ADD15R,1.200000X3.500000*%
%TD*%
%TA.AperFunction,SMDPad,CuDef*%
%ADD16R,3.500000X1.200000*%
%TD*%
%TA.AperFunction,SMDPad,CuDef*%
%ADD17R,0.900000X0.800000*%
%TD*%
%TA.AperFunction,SMDPad,CuDef*%
%ADD18R,1.350000X1.410000*%
%TD*%
%TA.AperFunction,SMDPad,CuDef*%
%ADD19R,1.650000X4.500000*%
%TD*%
%TA.AperFunction,SMDPad,CuDef*%
%ADD20R,0.800000X0.900000*%
%TD*%
%TA.AperFunction,SMDPad,CuDef*%
%ADD21R,2.000000X2.000000*%
%TD*%
%TA.AperFunction,SMDPad,CuDef*%
%ADD22R,0.530000X1.070000*%
%TD*%
%TA.AperFunction,ComponentPad*%
%ADD23O,1.100000X1.900000*%
%TD*%
%TA.AperFunction,SMDPad,CuDef*%
%ADD24R,0.700000X1.200000*%
%TD*%
%TA.AperFunction,SMDPad,CuDef*%
%ADD25R,0.800000X1.200000*%
%TD*%
%TA.AperFunction,ComponentPad*%
%ADD26R,2.200000X2.200000*%
%TD*%
%TA.AperFunction,ComponentPad*%
%ADD27C,2.200000*%
%TD*%
%TA.AperFunction,ComponentPad*%
%ADD28R,1.800000X1.780000*%
%TD*%
%TA.AperFunction,ComponentPad*%
%ADD29C,1.800000*%
%TD*%
%TA.AperFunction,ComponentPad*%
%ADD30R,1.780000X1.800000*%
%TD*%
%TA.AperFunction,SMDPad,CuDef*%
%ADD31R,3.730000X5.000000*%
%TD*%
%TA.AperFunction,SMDPad,CuDef*%
%ADD32R,0.800000X0.800000*%
%TD*%
%TA.AperFunction,SMDPad,CuDef*%
%ADD33R,0.860000X0.810000*%
%TD*%
%TA.AperFunction,SMDPad,CuDef*%
%ADD34C,1.500000*%
%TD*%
%TA.AperFunction,SMDPad,CuDef*%
%ADD35R,1.900000X1.900000*%
%TD*%
%TA.AperFunction,SMDPad,CuDef*%
%ADD36R,0.800000X1.000000*%
%TD*%
%TA.AperFunction,SMDPad,CuDef*%
%ADD37O,0.280000X0.700000*%
%TD*%
%TA.AperFunction,SMDPad,CuDef*%
%ADD38O,0.700000X0.280000*%
%TD*%
%TA.AperFunction,SMDPad,CuDef*%
%ADD39R,2.800000X2.800000*%
%TD*%
%TA.AperFunction,SMDPad,CuDef*%
%ADD40R,4.000000X1.300000*%
%TD*%
%TA.AperFunction,SMDPad,CuDef*%
%ADD41R,8.400000X10.570000*%
%TD*%
%TA.AperFunction,SMDPad,CuDef*%
%ADD42R,3.500000X1.600000*%
%TD*%
%TA.AperFunction,SMDPad,CuDef*%
%ADD43R,9.000000X10.200000*%
%TD*%
%TA.AperFunction,SMDPad,CuDef*%
%ADD44R,1.270000X2.540000*%
%TD*%
%TA.AperFunction,SMDPad,CuDef*%
%ADD45R,5.400000X6.100000*%
%TD*%
%TA.AperFunction,SMDPad,CuDef*%
%ADD46R,1.000000X0.800000*%
%TD*%
%TA.AperFunction,SMDPad,CuDef*%
%ADD47R,1.190000X1.730000*%
%TD*%
%TA.AperFunction,SMDPad,CuDef*%
%ADD48R,1.130000X1.380000*%
%TD*%
%TA.AperFunction,SMDPad,CuDef*%
%ADD49R,2.780000X1.490000*%
%TD*%
%TA.AperFunction,SMDPad,CuDef*%
%ADD50R,1.410000X3.500000*%
%TD*%
%TA.AperFunction,SMDPad,CuDef*%
%ADD51R,1.380000X1.130000*%
%TD*%
%TA.AperFunction,SMDPad,CuDef*%
%ADD52R,0.810000X0.860000*%
%TD*%
%TA.AperFunction,ViaPad*%
%ADD53C,0.600000*%
%TD*%
%TA.AperFunction,ViaPad*%
%ADD54C,1.800000*%
%TD*%
%TA.AperFunction,ViaPad*%
%ADD55C,1.200000*%
%TD*%
%TA.AperFunction,ViaPad*%
%ADD56C,4.000000*%
%TD*%
%TA.AperFunction,ViaPad*%
%ADD57C,1.500000*%
%TD*%
%TA.AperFunction,Conductor*%
%ADD58C,1.000000*%
%TD*%
%TA.AperFunction,Conductor*%
%ADD59C,0.700000*%
%TD*%
%TA.AperFunction,Conductor*%
%ADD60C,0.250000*%
%TD*%
%TA.AperFunction,Conductor*%
%ADD61C,0.400000*%
%TD*%
%TA.AperFunction,Conductor*%
%ADD62C,0.130000*%
%TD*%
G04 APERTURE END LIST*
D10*
%TO.P,U2,1,Vin*%
%TO.N,+15V -> +13.5V gen*%
X43840000Y-21702500D03*
%TO.P,U2,2,Output*%
%TO.N,Net-(D1-K)*%
X43840000Y-23402500D03*
%TO.P,U2,3,Gnd*%
%TO.N,GND rail*%
X43840000Y-25102500D03*
%TO.P,U2,4,Feedback*%
%TO.N,Net-(U2-Feedback)*%
X43840000Y-26802500D03*
%TO.P,U2,5,~{ON}/OFF*%
%TO.N,GND rail*%
X43840000Y-28502500D03*
D11*
%TO.P,U2,6,TAB*%
X54160000Y-25102500D03*
%TD*%
D12*
%TO.P,C1,1,1*%
%TO.N,GND rail*%
X39010000Y-9050000D03*
%TO.P,C1,2,2*%
%TO.N,VBUS_IN*%
X42190000Y-9050000D03*
%TD*%
D13*
%TO.P,C2,1,1*%
%TO.N,GND rail*%
X49020000Y-8520000D03*
%TO.P,C2,2,2*%
%TO.N,VBUS_IN*%
X47020000Y-8520000D03*
%TD*%
D14*
%TO.P,C3,1,1*%
%TO.N,/DC-DC Conversion/+13.5V OUT*%
X62720000Y-12500000D03*
%TO.P,C3,2,2*%
%TO.N,GND rail*%
X71720000Y-12500000D03*
%TD*%
D15*
%TO.P,C4,1,1*%
%TO.N,/DC-DC Conversion/+7.5V OUT*%
X68560000Y-51382500D03*
%TO.P,C4,2,2*%
%TO.N,GND rail*%
X68560000Y-56722500D03*
%TD*%
%TO.P,C5,1,1*%
%TO.N,+15V -> +13.5V gen*%
X57220000Y-17170000D03*
%TO.P,C5,2,2*%
%TO.N,GND rail*%
X57220000Y-11830000D03*
%TD*%
D13*
%TO.P,C6,1,1*%
%TO.N,+15V -> +13.5V gen*%
X41800000Y-19900000D03*
%TO.P,C6,2,2*%
%TO.N,GND rail*%
X39800000Y-19900000D03*
%TD*%
D16*
%TO.P,C7,1,1*%
%TO.N,+15V -> +13.5V gen*%
X45460000Y-35902500D03*
%TO.P,C7,2,2*%
%TO.N,GND rail*%
X40120000Y-35902500D03*
%TD*%
D13*
%TO.P,C8,1,1*%
%TO.N,+15V -> +13.5V gen*%
X44060000Y-40802500D03*
%TO.P,C8,2,2*%
%TO.N,GND rail*%
X42060000Y-40802500D03*
%TD*%
D14*
%TO.P,C11,1,1*%
%TO.N,GND rail*%
X73060000Y-78302500D03*
%TO.P,C11,2,2*%
%TO.N,/DC-DC Conversion/-13.5V OUT*%
X64060000Y-78302500D03*
%TD*%
%TO.P,C14,1,1*%
%TO.N,/DC-DC Conversion/+13.5V OUT*%
X25450000Y-59302500D03*
%TO.P,C14,2,2*%
%TO.N,GND rail*%
X16450000Y-59302500D03*
%TD*%
D17*
%TO.P,C15,1,1*%
%TO.N,/DC-DC Conversion/+7.5V OUT*%
X36750000Y-87050000D03*
%TO.P,C15,2,2*%
%TO.N,GND rail*%
X36750000Y-88450000D03*
%TD*%
D18*
%TO.P,C17,1,1*%
%TO.N,GND rail*%
X33350000Y-41202500D03*
%TO.P,C17,2,2*%
%TO.N,Net-(U6-OUT)*%
X33350000Y-43202500D03*
%TD*%
%TO.P,C18,1,1*%
%TO.N,Net-(U7-OUT)*%
X35870000Y-77742500D03*
%TO.P,C18,2,2*%
%TO.N,GND rail*%
X35870000Y-75742500D03*
%TD*%
D19*
%TO.P,C20,1,1*%
%TO.N,/DC-DC Conversion/+13.5V OUT*%
X32050000Y-54902500D03*
%TO.P,C20,2,2*%
%TO.N,GND rail*%
X32050000Y-63902500D03*
%TD*%
%TO.P,C21,1,1*%
%TO.N,Net-(U6-OUT)*%
X27150000Y-39802500D03*
%TO.P,C21,2,2*%
%TO.N,GND rail*%
X27150000Y-30802500D03*
%TD*%
D16*
%TO.P,C22,1,1*%
%TO.N,/DC-DC Conversion/+7.5V OUT*%
X33340000Y-91642500D03*
%TO.P,C22,2,2*%
%TO.N,GND rail*%
X28000000Y-91642500D03*
%TD*%
%TO.P,C23,1,1*%
%TO.N,Net-(U7-OUT)*%
X33170000Y-73342500D03*
%TO.P,C23,2,2*%
%TO.N,GND rail*%
X27830000Y-73342500D03*
%TD*%
D17*
%TO.P,C30,1*%
%TO.N,Net-(U1-VREG_2V7)*%
X48600000Y-11800000D03*
%TO.P,C30,2*%
%TO.N,GND rail*%
X48600000Y-13200000D03*
%TD*%
D18*
%TO.P,C33,1*%
%TO.N,GND rail*%
X40560000Y-68202500D03*
%TO.P,C33,2*%
%TO.N,Net-(U4-Feedback)*%
X40560000Y-66202500D03*
%TD*%
D20*
%TO.P,C34,1*%
%TO.N,Net-(U1-VREG_1V2)*%
X48200000Y-15100000D03*
%TO.P,C34,2*%
%TO.N,GND rail*%
X49600000Y-15100000D03*
%TD*%
D18*
%TO.P,C35,1,1*%
%TO.N,Net-(Q1-G)*%
X52400000Y-15500000D03*
%TO.P,C35,2,2*%
%TO.N,GND rail*%
X52400000Y-17500000D03*
%TD*%
D21*
%TO.P,D1,1,K*%
%TO.N,Net-(D1-K)*%
X72860000Y-34102500D03*
%TO.P,D1,2,A*%
%TO.N,GND rail*%
X68460000Y-34102500D03*
%TD*%
%TO.P,D2,1,K*%
%TO.N,Net-(D2-K)*%
X61660000Y-34102500D03*
%TO.P,D2,2,A*%
%TO.N,GND rail*%
X66060000Y-34102500D03*
%TD*%
D22*
%TO.P,D4,1,I/O1*%
%TO.N,Net-(J1-CC1)*%
X50700000Y-12900000D03*
%TO.P,D4,2,GND*%
%TO.N,GND rail*%
X51650000Y-12900000D03*
%TO.P,D4,3,I/O2*%
%TO.N,Net-(J1-CC2)*%
X52600000Y-12900000D03*
%TO.P,D4,4,I/O2*%
%TO.N,Net-(U1-CC2)*%
X52600000Y-10600000D03*
%TO.P,D4,5,VBUS*%
%TO.N,VBUS_IN*%
X51650000Y-10600000D03*
%TO.P,D4,6,I/O1*%
%TO.N,Net-(U1-CC1)*%
X50700000Y-10600000D03*
%TD*%
D23*
%TO.P,J1,7,EH*%
%TO.N,GND rail*%
X49000000Y-6380000D03*
X49000000Y-2570000D03*
X40360000Y-6380000D03*
X40360000Y-2570000D03*
D24*
%TO.P,J1,A5,CC1*%
%TO.N,Net-(J1-CC1)*%
X45180000Y-6630000D03*
%TO.P,J1,A9,VBUS*%
%TO.N,VBUS_IN*%
X43180000Y-6630000D03*
D25*
%TO.P,J1,A12,GND*%
%TO.N,GND rail*%
X41980000Y-6630000D03*
D24*
%TO.P,J1,B5,CC2*%
%TO.N,Net-(J1-CC2)*%
X44180000Y-6630000D03*
%TO.P,J1,B9,VBUS*%
%TO.N,VBUS_IN*%
X46180000Y-6630000D03*
D25*
%TO.P,J1,B12,GND*%
%TO.N,GND rail*%
X47380000Y-6630000D03*
%TD*%
D26*
%TO.P,J9,1,1*%
%TO.N,GND rail*%
X15240000Y-28950000D03*
D27*
%TO.P,J9,2,2*%
X10160000Y-28950000D03*
%TD*%
D28*
%TO.P,J10,1,1*%
%TO.N,GATE rail*%
X4500000Y-61200000D03*
D29*
%TO.P,J10,2,2*%
X7040000Y-61200000D03*
%TO.P,J10,3,3*%
%TO.N,CV rail*%
X4500000Y-63740000D03*
%TO.P,J10,4,4*%
X7040000Y-63740000D03*
%TO.P,J10,5,5*%
%TO.N,+5V rail*%
X4500000Y-66280000D03*
%TO.P,J10,6,6*%
X7040000Y-66280000D03*
%TO.P,J10,7,7*%
%TO.N,+12V rail*%
X4500000Y-68820000D03*
%TO.P,J10,8,8*%
X7040000Y-68820000D03*
%TO.P,J10,9,9*%
%TO.N,GND rail*%
X4500000Y-71360000D03*
%TO.P,J10,10,10*%
X7040000Y-71360000D03*
%TO.P,J10,11,11*%
X4500000Y-73900000D03*
%TO.P,J10,12,12*%
X7040000Y-73900000D03*
%TO.P,J10,13,13*%
X4500000Y-76440000D03*
%TO.P,J10,14,14*%
X7040000Y-76440000D03*
%TO.P,J10,15,15*%
%TO.N,-12V rail*%
X4500000Y-78980000D03*
%TO.P,J10,16,16*%
X7040000Y-78980000D03*
%TD*%
%TO.P,J11,16,16*%
%TO.N,-12V rail*%
X13460000Y-13015000D03*
%TO.P,J11,15,15*%
X13460000Y-10475000D03*
%TO.P,J11,14,14*%
%TO.N,GND rail*%
X16000000Y-13015000D03*
%TO.P,J11,13,13*%
X16000000Y-10475000D03*
%TO.P,J11,12,12*%
X18540000Y-13015000D03*
%TO.P,J11,11,11*%
X18540000Y-10475000D03*
%TO.P,J11,10,10*%
X21080000Y-13015000D03*
%TO.P,J11,9,9*%
X21080000Y-10475000D03*
%TO.P,J11,8,8*%
%TO.N,+12V rail*%
X23620000Y-13015000D03*
%TO.P,J11,7,7*%
X23620000Y-10475000D03*
%TO.P,J11,6,6*%
%TO.N,+5V rail*%
X26160000Y-13015000D03*
%TO.P,J11,5,5*%
X26160000Y-10475000D03*
%TO.P,J11,4,4*%
%TO.N,CV rail*%
X28700000Y-13015000D03*
%TO.P,J11,3,3*%
X28700000Y-10475000D03*
%TO.P,J11,2,2*%
%TO.N,GATE rail*%
X31240000Y-13015000D03*
D30*
%TO.P,J11,1,1*%
X31240000Y-10475000D03*
%TD*%
D31*
%TO.P,L3,1,1*%
%TO.N,Net-(D3-K)*%
X61290000Y-65302500D03*
%TO.P,L3,2,2*%
%TO.N,GND rail*%
X72830000Y-65302500D03*
%TD*%
D32*
%TO.P,LED2,1,C*%
%TO.N,GND rail*%
X19000000Y-95802500D03*
%TO.P,LED2,2,A*%
%TO.N,Net-(LED2-A)*%
X19000000Y-94302500D03*
%TD*%
%TO.P,LED3,1,C*%
%TO.N,GND rail*%
X21500000Y-95802500D03*
%TO.P,LED3,2,A*%
%TO.N,Net-(LED3-A)*%
X21500000Y-94302500D03*
%TD*%
%TO.P,LED4,1,C*%
%TO.N,Net-(LED4-C)*%
X24000000Y-95802500D03*
%TO.P,LED4,2,A*%
%TO.N,GND rail*%
X24000000Y-94302500D03*
%TD*%
D33*
%TO.P,R2,1,1*%
%TO.N,GND rail*%
X38860000Y-25452500D03*
%TO.P,R2,2,2*%
%TO.N,Net-(U2-Feedback)*%
X38860000Y-26952500D03*
%TD*%
%TO.P,R4,1,1*%
%TO.N,Net-(U3-Feedback)*%
X39060000Y-47652500D03*
%TO.P,R4,2,2*%
%TO.N,GND rail*%
X39060000Y-46152500D03*
%TD*%
%TO.P,R5,1,1*%
%TO.N,Net-(U4-Feedback)*%
X38560000Y-66602500D03*
%TO.P,R5,2,2*%
%TO.N,GND rail*%
X38560000Y-68102500D03*
%TD*%
D34*
%TO.P,TP2,1,1*%
%TO.N,GND rail*%
X63460000Y-5170000D03*
%TD*%
D35*
%TO.P,TVS1,1,C*%
%TO.N,+12V rail*%
X32600000Y-22530000D03*
%TO.P,TVS1,2,A*%
%TO.N,GND rail*%
X32600000Y-17870000D03*
%TD*%
D36*
%TO.P,TVS2,1,A*%
%TO.N,GND rail*%
X20570000Y-80342500D03*
%TO.P,TVS2,2,K*%
%TO.N,+5V rail*%
X20570000Y-77942500D03*
%TD*%
D35*
%TO.P,TVS3,1,C*%
%TO.N,GND rail*%
X44430000Y-94102500D03*
%TO.P,TVS3,2,A*%
%TO.N,-12V rail*%
X49090000Y-94102500D03*
%TD*%
D37*
%TO.P,U1,1,CC1DB*%
%TO.N,Net-(U1-CC1)*%
X46150000Y-10900000D03*
%TO.P,U1,2,CC1*%
X45650000Y-10900000D03*
%TO.P,U1,3,NC*%
%TO.N,unconnected-(U1-NC-Pad3)*%
X45150000Y-10900000D03*
%TO.P,U1,4,CC2*%
%TO.N,Net-(U1-CC2)*%
X44650000Y-10900000D03*
%TO.P,U1,5,CC2DB*%
X44150000Y-10900000D03*
%TO.P,U1,6,RESET*%
%TO.N,GND rail*%
X43650000Y-10900000D03*
D38*
%TO.P,U1,7,SCL*%
%TO.N,unconnected-(U1-SCL-Pad7)*%
X42900000Y-11650000D03*
%TO.P,U1,8,SDA*%
%TO.N,unconnected-(U1-SDA-Pad8)*%
X42900000Y-12150000D03*
%TO.P,U1,9,DISCH*%
%TO.N,Net-(U1-DISCH)*%
X42900000Y-12650000D03*
%TO.P,U1,10,GND*%
%TO.N,GND rail*%
X42900000Y-13150000D03*
%TO.P,U1,11,ATTACH*%
%TO.N,unconnected-(U1-ATTACH-Pad11)*%
X42900000Y-13650000D03*
%TO.P,U1,12,ADDR0*%
%TO.N,GND rail*%
X42900000Y-14150000D03*
D37*
%TO.P,U1,13,ADDR1*%
X43650000Y-14900000D03*
%TO.P,U1,14,POWER_OK3*%
%TO.N,unconnected-(U1-POWER_OK3-Pad14)*%
X44150000Y-14900000D03*
%TO.P,U1,15,GPIO*%
%TO.N,unconnected-(U1-GPIO-Pad15)*%
X44650000Y-14900000D03*
%TO.P,U1,16,VBUS_EN_SNK*%
%TO.N,Net-(U1-VBUS_EN_SNK)*%
X45150000Y-14900000D03*
%TO.P,U1,17,A_B_SIDE*%
%TO.N,unconnected-(U1-A_B_SIDE-Pad17)*%
X45650000Y-14900000D03*
%TO.P,U1,18,VBUS_VS_DISCH*%
%TO.N,unconnected-(U1-VBUS_VS_DISCH-Pad18)*%
X46150000Y-14900000D03*
D38*
%TO.P,U1,19,ALERT*%
%TO.N,unconnected-(U1-ALERT-Pad19)*%
X46900000Y-14150000D03*
%TO.P,U1,20,POWER_OK2*%
%TO.N,unconnected-(U1-POWER_OK2-Pad20)*%
X46900000Y-13650000D03*
%TO.P,U1,21,VREG_1V2*%
%TO.N,Net-(U1-VREG_1V2)*%
X46900000Y-13150000D03*
%TO.P,U1,22,VSYS*%
%TO.N,Net-(U1-VREG_2V7)*%
X46900000Y-12650000D03*
%TO.P,U1,23,VREG_2V7*%
X46900000Y-12150000D03*
%TO.P,U1,24,VDD*%
%TO.N,VBUS_IN*%
X46900000Y-11650000D03*
D39*
%TO.P,U1,25,EP*%
%TO.N,GND rail*%
X44890000Y-12900000D03*
%TD*%
D10*
%TO.P,U3,1,Vin*%
%TO.N,+15V -> +13.5V gen*%
X44040000Y-42502500D03*
%TO.P,U3,2,Output*%
%TO.N,Net-(D2-K)*%
X44040000Y-44202500D03*
%TO.P,U3,3,Gnd*%
%TO.N,GND rail*%
X44040000Y-45902500D03*
%TO.P,U3,4,Feedback*%
%TO.N,Net-(U3-Feedback)*%
X44040000Y-47602500D03*
%TO.P,U3,5,~{ON}/OFF*%
%TO.N,GND rail*%
X44040000Y-49302500D03*
D11*
%TO.P,U3,6,TAB*%
X54360000Y-45902500D03*
%TD*%
D40*
%TO.P,U6,1,IN*%
%TO.N,/DC-DC Conversion/+13.5V OUT*%
X34550000Y-50442500D03*
%TO.P,U6,3,OUT*%
%TO.N,Net-(U6-OUT)*%
X34550000Y-45362500D03*
D41*
%TO.P,U6,4,GND*%
%TO.N,GND rail*%
X24370000Y-47902500D03*
%TD*%
D42*
%TO.P,U7,1,IN*%
%TO.N,/DC-DC Conversion/+7.5V OUT*%
X38370000Y-85082500D03*
D43*
%TO.P,U7,2,GND*%
%TO.N,GND rail*%
X27570000Y-82542500D03*
D42*
%TO.P,U7,3,OUT*%
%TO.N,Net-(U7-OUT)*%
X38370000Y-80002500D03*
%TD*%
D44*
%TO.P,U8,1,GND*%
%TO.N,GND rail*%
X42360000Y-87552500D03*
D45*
%TO.P,U8,2,VIN*%
%TO.N,/DC-DC Conversion/-13.5V OUT*%
X44650000Y-80052500D03*
D44*
%TO.P,U8,3,OUT*%
%TO.N,Net-(U8-OUT)*%
X46940000Y-87542500D03*
%TD*%
D46*
%TO.P,Q1,1,G*%
%TO.N,Net-(Q1-G)*%
X46650000Y-19250000D03*
%TO.P,Q1,2,S*%
%TO.N,VBUS_IN*%
X46650000Y-17350000D03*
%TO.P,Q1,3,D*%
%TO.N,+15V -> +13.5V gen*%
X44350000Y-18300000D03*
%TD*%
D18*
%TO.P,C19,1,1*%
%TO.N,Net-(U8-OUT)*%
X49240000Y-87042500D03*
%TO.P,C19,2,2*%
%TO.N,Net-(C16-Pad2)*%
X49240000Y-85042500D03*
%TD*%
D26*
%TO.P,J7,1,1*%
%TO.N,+12V rail*%
X15240000Y-36610000D03*
D27*
%TO.P,J7,2,2*%
X10160000Y-36610000D03*
%TD*%
D34*
%TO.P,TP1,1,1*%
%TO.N,+15V -> +13.5V gen*%
X59960000Y-5220000D03*
%TD*%
D18*
%TO.P,C32,1*%
%TO.N,Net-(U3-Feedback)*%
X40960000Y-47702500D03*
%TO.P,C32,2*%
%TO.N,/DC-DC Conversion/+7.5V OUT*%
X40960000Y-49702500D03*
%TD*%
D31*
%TO.P,L2,1,1*%
%TO.N,Net-(D2-K)*%
X61190000Y-42702500D03*
%TO.P,L2,2,2*%
%TO.N,/DC-DC Conversion/+7.5V OUT*%
X72730000Y-42702500D03*
%TD*%
D17*
%TO.P,C16,1,1*%
%TO.N,/DC-DC Conversion/-13.5V OUT*%
X49140000Y-81750000D03*
%TO.P,C16,2,2*%
%TO.N,Net-(C16-Pad2)*%
X49140000Y-83150000D03*
%TD*%
D47*
%TO.P,PTC3,1,1*%
%TO.N,Net-(U8-OUT)*%
X45910000Y-90802500D03*
%TO.P,PTC3,2,2*%
%TO.N,-12V rail*%
X48810000Y-90802500D03*
%TD*%
D48*
%TO.P,R9,1,1*%
%TO.N,Net-(U8-OUT)*%
X43560000Y-90902500D03*
%TO.P,R9,2,2*%
%TO.N,Net-(LED4-C)*%
X41560000Y-90902500D03*
%TD*%
D49*
%TO.P,PTC1,1,1*%
%TO.N,Net-(U6-OUT)*%
X32800000Y-28200000D03*
%TO.P,PTC1,2,2*%
%TO.N,+12V rail*%
X32800000Y-25000000D03*
%TD*%
D33*
%TO.P,R1,1,1*%
%TO.N,Net-(U2-Feedback)*%
X38860000Y-30252500D03*
%TO.P,R1,2,2*%
%TO.N,/DC-DC Conversion/+13.5V OUT*%
X38860000Y-28752500D03*
%TD*%
D50*
%TO.P,PTC2,1,1*%
%TO.N,Net-(U7-OUT)*%
X24320000Y-74742500D03*
%TO.P,PTC2,2,2*%
%TO.N,+5V rail*%
X20620000Y-74742500D03*
%TD*%
D34*
%TO.P,TP5,1,1*%
%TO.N,/DC-DC Conversion/-13.5V OUT*%
X73560000Y-84802500D03*
%TD*%
D51*
%TO.P,R7,1,1*%
%TO.N,Net-(U6-OUT)*%
X33800000Y-31800000D03*
%TO.P,R7,2,2*%
%TO.N,Net-(LED2-A)*%
X33800000Y-33800000D03*
%TD*%
D33*
%TO.P,R3,1,1*%
%TO.N,/DC-DC Conversion/+7.5V OUT*%
X39060000Y-49752500D03*
%TO.P,R3,2,2*%
%TO.N,Net-(U3-Feedback)*%
X39060000Y-51252500D03*
%TD*%
D52*
%TO.P,R11,1*%
%TO.N,Net-(Q1-G)*%
X42300000Y-16100000D03*
%TO.P,R11,2*%
%TO.N,VBUS_IN*%
X43800000Y-16100000D03*
%TD*%
D48*
%TO.P,R8,1,1*%
%TO.N,Net-(U7-OUT)*%
X25750000Y-71000000D03*
%TO.P,R8,2,2*%
%TO.N,Net-(LED3-A)*%
X23750000Y-71000000D03*
%TD*%
D18*
%TO.P,C31,1*%
%TO.N,Net-(U2-Feedback)*%
X40860000Y-27002500D03*
%TO.P,C31,2*%
%TO.N,/DC-DC Conversion/+13.5V OUT*%
X40860000Y-29002500D03*
%TD*%
D52*
%TO.P,R12,1*%
%TO.N,Net-(U1-VBUS_EN_SNK)*%
X49000000Y-17200000D03*
%TO.P,R12,2*%
%TO.N,Net-(Q1-G)*%
X50500000Y-17200000D03*
%TD*%
D16*
%TO.P,C9,1,1*%
%TO.N,+15V -> +13.5V gen*%
X45960000Y-56402500D03*
%TO.P,C9,2,2*%
%TO.N,/DC-DC Conversion/-13.5V OUT*%
X40620000Y-56402500D03*
%TD*%
D14*
%TO.P,C24,1,1*%
%TO.N,Net-(C16-Pad2)*%
X58640000Y-75600000D03*
%TO.P,C24,2,2*%
%TO.N,/DC-DC Conversion/-13.5V OUT*%
X49640000Y-75600000D03*
%TD*%
D52*
%TO.P,R13,1,1*%
%TO.N,+15V -> +13.5V gen*%
X42800000Y-17800000D03*
%TO.P,R13,2,2*%
%TO.N,Net-(U1-DISCH)*%
X41300000Y-17800000D03*
%TD*%
D26*
%TO.P,J8,1,1*%
%TO.N,+5V rail*%
X15240000Y-44700000D03*
D27*
%TO.P,J8,2,2*%
X10160000Y-44700000D03*
%TD*%
D33*
%TO.P,R6,1,1*%
%TO.N,Net-(U4-Feedback)*%
X38560000Y-64902500D03*
%TO.P,R6,2,2*%
%TO.N,/DC-DC Conversion/-13.5V OUT*%
X38560000Y-63402500D03*
%TD*%
D21*
%TO.P,D3,1,K*%
%TO.N,Net-(D3-K)*%
X62760000Y-55602500D03*
%TO.P,D3,2,A*%
%TO.N,/DC-DC Conversion/-13.5V OUT*%
X58360000Y-55602500D03*
%TD*%
D26*
%TO.P,J6,1,1*%
%TO.N,-12V rail*%
X15240000Y-20850000D03*
D27*
%TO.P,J6,2,2*%
X10160000Y-20850000D03*
%TD*%
D31*
%TO.P,L1,1,1*%
%TO.N,Net-(D1-K)*%
X72930000Y-25502500D03*
%TO.P,L1,2,2*%
%TO.N,/DC-DC Conversion/+13.5V OUT*%
X61390000Y-25502500D03*
%TD*%
D18*
%TO.P,C10,1,1*%
%TO.N,+15V -> +13.5V gen*%
X40460000Y-61602500D03*
%TO.P,C10,2,2*%
%TO.N,/DC-DC Conversion/-13.5V OUT*%
X40460000Y-63602500D03*
%TD*%
D34*
%TO.P,TP4,1,1*%
%TO.N,/DC-DC Conversion/+7.5V OUT*%
X73560000Y-51302500D03*
%TD*%
%TO.P,TP3,1,1*%
%TO.N,/DC-DC Conversion/+13.5V OUT*%
X67600000Y-5200000D03*
%TD*%
D19*
%TO.P,C25,1,1*%
%TO.N,Net-(C16-Pad2)*%
X56560000Y-83302500D03*
%TO.P,C25,2,2*%
%TO.N,Net-(U8-OUT)*%
X56560000Y-92302500D03*
%TD*%
D10*
%TO.P,U4,1,Vin*%
%TO.N,+15V -> +13.5V gen*%
X43400000Y-61002500D03*
%TO.P,U4,2,Output*%
%TO.N,Net-(D3-K)*%
X43400000Y-62702500D03*
%TO.P,U4,3,Gnd*%
%TO.N,/DC-DC Conversion/-13.5V OUT*%
X43400000Y-64402500D03*
%TO.P,U4,4,Feedback*%
%TO.N,Net-(U4-Feedback)*%
X43400000Y-66102500D03*
%TO.P,U4,5,~{ON}/OFF*%
%TO.N,/DC-DC Conversion/-13.5V OUT*%
X43400000Y-67802500D03*
D11*
%TO.P,U4,6,TAB*%
X53720000Y-64402500D03*
%TD*%
D53*
%TO.N,GND rail*%
X55200000Y-28000000D03*
X53400000Y-28000000D03*
X55200000Y-26200000D03*
X53400000Y-26200000D03*
X51600000Y-29600000D03*
X51600000Y-28000000D03*
%TO.N,Net-(J1-CC1)*%
X46410000Y-1230000D03*
%TO.N,Net-(J1-CC2)*%
X53370000Y-4170000D03*
X56610000Y-8155794D03*
X53820000Y-11680000D03*
%TO.N,VBUS_IN*%
X45300000Y-9090000D03*
D54*
%TO.N,+12V rail*%
X19150000Y-34010000D03*
D55*
%TO.N,+5V rail*%
X16985000Y-77115000D03*
D53*
%TO.N,GND rail*%
X25400000Y-52400000D03*
D54*
X28500000Y-89500000D03*
D53*
X24800000Y-85400000D03*
X51600000Y-46800000D03*
X53400000Y-29600000D03*
D56*
X31200000Y-37700000D03*
D53*
X23600000Y-43600000D03*
X53400000Y-41400000D03*
X46000000Y-13300000D03*
X53400000Y-46800000D03*
X43900000Y-10100000D03*
X24800000Y-78200000D03*
D55*
X40300000Y-40950000D03*
D53*
X23600000Y-52400000D03*
X57000000Y-20800000D03*
X46000000Y-11800000D03*
X27200000Y-45400000D03*
X30200000Y-83600000D03*
D54*
X24675000Y-31925000D03*
D53*
X53400000Y-24400000D03*
X54900000Y-15500000D03*
D55*
X39500000Y-44750000D03*
D53*
X25400000Y-49000000D03*
X51600000Y-26200000D03*
X51600000Y-50200000D03*
X50370000Y-7150000D03*
X26600000Y-80000000D03*
D54*
X70500000Y-37000000D03*
D53*
X45300000Y-12500000D03*
D55*
X40000000Y-88000000D03*
D53*
X24800000Y-83600000D03*
X51600000Y-48600000D03*
X57000000Y-26200000D03*
D55*
X15740000Y-95860000D03*
D53*
X30200000Y-81800000D03*
D56*
X6350000Y-28950000D03*
D53*
X53400000Y-20800000D03*
X51600000Y-41400000D03*
X44500000Y-11800000D03*
X55200000Y-45000000D03*
X53400000Y-22600000D03*
X27200000Y-47200000D03*
X57000000Y-29600000D03*
X51650000Y-11700000D03*
X28400000Y-87000000D03*
D54*
X39000000Y-22100000D03*
D53*
X28400000Y-81800000D03*
X45300000Y-14000000D03*
X55200000Y-46800000D03*
X53400000Y-45000000D03*
X25400000Y-43600000D03*
D56*
X67800000Y-68300000D03*
D53*
X42100000Y-14100000D03*
X21800000Y-49000000D03*
X53400000Y-43200000D03*
X26600000Y-78200000D03*
X24800000Y-80000000D03*
D54*
X44650000Y-2620000D03*
D53*
X57000000Y-48600000D03*
X23600000Y-49000000D03*
X26600000Y-83600000D03*
X25400000Y-50800000D03*
X51600000Y-22600000D03*
X55200000Y-29600000D03*
X55200000Y-48600000D03*
X23600000Y-45400000D03*
X44500000Y-13300000D03*
X43800000Y-12500000D03*
X44500000Y-14000000D03*
X21800000Y-52400000D03*
X43800000Y-13300000D03*
X38660000Y-4270000D03*
X30200000Y-78200000D03*
X51600000Y-43200000D03*
X57000000Y-41400000D03*
X53400000Y-48600000D03*
D56*
X71500000Y-54000000D03*
D54*
X59000000Y-12900000D03*
D53*
X57000000Y-22600000D03*
X30200000Y-87000000D03*
D54*
X15240000Y-32500000D03*
D53*
X28400000Y-80000000D03*
X57000000Y-50200000D03*
X44500000Y-12500000D03*
D55*
X16980000Y-80370000D03*
D53*
X46000000Y-14000000D03*
X24800000Y-87000000D03*
D55*
X47250000Y-45750000D03*
D53*
X25400000Y-47200000D03*
D55*
X38500000Y-77000000D03*
D53*
X51600000Y-24400000D03*
X43800000Y-11800000D03*
D56*
X70500000Y-74500000D03*
D53*
X55200000Y-22600000D03*
X25400000Y-45400000D03*
D57*
X38560000Y-70000000D03*
D53*
X57000000Y-43200000D03*
D54*
X64000000Y-37000000D03*
D53*
X57000000Y-45000000D03*
X27200000Y-49000000D03*
X28400000Y-85400000D03*
X21800000Y-50800000D03*
D55*
X41500000Y-95000000D03*
D53*
X57000000Y-24400000D03*
X51600000Y-45000000D03*
X43800000Y-14000000D03*
X30200000Y-80000000D03*
D55*
X26000000Y-94302500D03*
D53*
X26600000Y-81800000D03*
X42100000Y-14800000D03*
X55200000Y-24400000D03*
X57000000Y-28000000D03*
D55*
X47050000Y-25975000D03*
D54*
X22500000Y-56250000D03*
D53*
X55200000Y-41400000D03*
D55*
X44000000Y-30000000D03*
D54*
X29000000Y-71000000D03*
D53*
X49850000Y-13803368D03*
X27200000Y-50800000D03*
X28400000Y-83600000D03*
D54*
X34260000Y-61852500D03*
D53*
X51600000Y-20800000D03*
D56*
X69500000Y-16500000D03*
D54*
X40500000Y-34000000D03*
D53*
X27200000Y-43600000D03*
X55200000Y-50200000D03*
X21800000Y-47200000D03*
D55*
X47250000Y-49500000D03*
D53*
X21800000Y-45400000D03*
X30200000Y-85400000D03*
X55200000Y-20800000D03*
X28400000Y-78200000D03*
X57000000Y-46800000D03*
D54*
X35380000Y-22670000D03*
D53*
X27200000Y-52400000D03*
D57*
X42500000Y-69262502D03*
D53*
X55200000Y-43200000D03*
X26600000Y-87000000D03*
X45300000Y-11800000D03*
X53400000Y-50200000D03*
X45300000Y-13300000D03*
X23600000Y-47200000D03*
X21800000Y-43600000D03*
D55*
X36500000Y-25452500D03*
D53*
X24800000Y-81800000D03*
X26600000Y-85400000D03*
X46000000Y-12500000D03*
X23600000Y-50800000D03*
D55*
%TO.N,/DC-DC Conversion/+7.5V OUT*%
X65200000Y-50632500D03*
X43100000Y-53202500D03*
D54*
%TO.N,/DC-DC Conversion/+13.5V OUT*%
X36460000Y-47502500D03*
X37660000Y-43902500D03*
D55*
%TO.N,/DC-DC Conversion/+7.5V OUT*%
X37560000Y-53202500D03*
D54*
X34250000Y-87900000D03*
D55*
%TO.N,Net-(U2-Feedback)*%
X36500000Y-26952500D03*
X36500000Y-30252500D03*
%TO.N,Net-(U3-Feedback)*%
X40210000Y-51750000D03*
X38000000Y-48250000D03*
%TO.N,Net-(D1-K)*%
X69750000Y-25500000D03*
X47660000Y-23402500D03*
D56*
%TO.N,Net-(D3-K)*%
X67000000Y-62000000D03*
D54*
X46460000Y-62002500D03*
D53*
%TO.N,Net-(J1-CC1)*%
X45180000Y-8180000D03*
%TO.N,Net-(J1-CC2)*%
X44180000Y-7610000D03*
%TO.N,Net-(LED2-A)*%
X16100000Y-94330000D03*
D55*
X31200000Y-34600000D03*
D53*
%TO.N,VBUS_IN*%
X47579500Y-16279500D03*
X47579500Y-10779500D03*
X50680000Y-8520000D03*
%TO.N,Net-(Q1-G)*%
X51250000Y-16350000D03*
X48500000Y-18400000D03*
%TO.N,Net-(U1-VBUS_EN_SNK)*%
X46700000Y-15700000D03*
X47800000Y-17600000D03*
%TO.N,Net-(U1-CC2)*%
X45400000Y-10100000D03*
X52560000Y-9590000D03*
%TO.N,Net-(U1-CC1)*%
X46200000Y-10100000D03*
X49700000Y-10000000D03*
%TO.N,+15V -> +13.5V gen*%
X55400000Y-13960000D03*
X57640000Y-8400000D03*
D54*
X46500000Y-21700000D03*
X47900000Y-58000000D03*
X48000000Y-34500000D03*
%TD*%
D58*
%TO.N,/DC-DC Conversion/+13.5V OUT*%
X61390000Y-25502500D02*
X61390000Y-29872500D01*
X61390000Y-29872500D02*
X59762500Y-31500000D01*
X59762500Y-31500000D02*
X41262500Y-31500000D01*
X41262500Y-31500000D02*
X40860000Y-31902500D01*
X35760000Y-31902500D02*
X35760000Y-42002500D01*
X40860000Y-31902500D02*
X35760000Y-31902500D01*
X35760000Y-42002500D02*
X37660000Y-43902500D01*
D59*
%TO.N,+15V -> +13.5V gen*%
X46240000Y-20470000D02*
X45890000Y-20470000D01*
X46500000Y-21700000D02*
X46240000Y-21440000D01*
X45890000Y-20470000D02*
X45420000Y-20000000D01*
X46240000Y-21440000D02*
X46240000Y-20470000D01*
X45420000Y-20000000D02*
X44350000Y-20000000D01*
%TO.N,Net-(J1-CC2)*%
X44180000Y-6630000D02*
X44180000Y-7610000D01*
%TO.N,Net-(J1-CC1)*%
X46571000Y-1069000D02*
X46410000Y-1230000D01*
X60279000Y-1069000D02*
X46571000Y-1069000D01*
X59690000Y-8150000D02*
X59690000Y-8090000D01*
X55840000Y-11290000D02*
X55840000Y-9870000D01*
X61770000Y-2560000D02*
X60279000Y-1069000D01*
X59690000Y-8090000D02*
X61750000Y-6030000D01*
X55840000Y-9870000D02*
X56181000Y-9529000D01*
X56181000Y-9529000D02*
X58311000Y-9529000D01*
X58311000Y-9529000D02*
X59690000Y-8150000D01*
X61750000Y-6030000D02*
X61750000Y-2580000D01*
X61750000Y-2580000D02*
X61770000Y-2560000D01*
%TO.N,Net-(J1-CC2)*%
X53390000Y-4150000D02*
X53370000Y-4170000D01*
X56610000Y-8155794D02*
X57180000Y-7585794D01*
X57180000Y-7585794D02*
X57180000Y-5370000D01*
X57180000Y-5370000D02*
X55960000Y-4150000D01*
X55960000Y-4150000D02*
X53390000Y-4150000D01*
%TO.N,Net-(J1-CC1)*%
X55840000Y-11290000D02*
X53144000Y-13986000D01*
X53144000Y-13986000D02*
X50834000Y-13986000D01*
X50834000Y-13986000D02*
X50700000Y-13852000D01*
X50700000Y-13852000D02*
X50700000Y-12800000D01*
%TO.N,VBUS_IN*%
X45300000Y-9090000D02*
X46410000Y-9090000D01*
D58*
%TO.N,GND rail*%
X20570000Y-80342500D02*
X17007500Y-80342500D01*
X17007500Y-80342500D02*
X16980000Y-80370000D01*
D59*
%TO.N,Net-(LED2-A)*%
X19000000Y-94302500D02*
X16100000Y-94330000D01*
%TO.N,GND rail*%
X19000000Y-95802500D02*
X15740000Y-95860000D01*
X21500000Y-95802500D02*
X15740000Y-95860000D01*
D58*
%TO.N,-12V rail*%
X13499000Y-79110000D02*
X13389000Y-79000000D01*
X13389000Y-79000000D02*
X4400000Y-79000000D01*
X24560000Y-97452500D02*
X24410000Y-97602500D01*
X49090000Y-95922500D02*
X47560000Y-97452500D01*
X11290000Y-20810000D02*
X11250000Y-20850000D01*
X47560000Y-97452500D02*
X24560000Y-97452500D01*
X49090000Y-94102500D02*
X49090000Y-95922500D01*
X24410000Y-97602500D02*
X13499000Y-97602500D01*
X13499000Y-97602500D02*
X13499000Y-52721000D01*
X13499000Y-52721000D02*
X17420000Y-48800000D01*
X17420000Y-20810000D02*
X11290000Y-20810000D01*
X17420000Y-48800000D02*
X17420000Y-20810000D01*
D59*
%TO.N,GATE rail*%
X4500000Y-61200000D02*
X6930000Y-61200000D01*
X31250000Y-13110000D02*
X31190000Y-13170000D01*
X3440000Y-17850000D02*
X12660000Y-8630000D01*
X6960000Y-61230000D02*
X3440000Y-57710000D01*
X3440000Y-57710000D02*
X3440000Y-17850000D01*
X6930000Y-61200000D02*
X6960000Y-61230000D01*
X12660000Y-8630000D02*
X31250000Y-8630000D01*
X31250000Y-8630000D02*
X31250000Y-13110000D01*
%TO.N,CV rail*%
X2630000Y-63760000D02*
X2680000Y-63810000D01*
X33620000Y-15100000D02*
X33660000Y-15060000D01*
X28650000Y-15100000D02*
X33620000Y-15100000D01*
X28700000Y-10475000D02*
X28650000Y-10525000D01*
X1660000Y-62790000D02*
X2630000Y-63760000D01*
X33660000Y-7420000D02*
X11870000Y-7420000D01*
X28650000Y-10525000D02*
X28650000Y-15100000D01*
X11870000Y-7420000D02*
X1660000Y-17630000D01*
X33660000Y-15060000D02*
X33660000Y-7420000D01*
X2680000Y-63810000D02*
X7130000Y-63810000D01*
X1660000Y-17630000D02*
X1660000Y-62790000D01*
D58*
%TO.N,+12V rail*%
X23660000Y-22530000D02*
X20910000Y-25280000D01*
X20910000Y-25280000D02*
X20910000Y-32310000D01*
X20910000Y-32310000D02*
X19090000Y-34130000D01*
X23660000Y-10400000D02*
X23650000Y-10390000D01*
X23660000Y-22530000D02*
X23660000Y-10400000D01*
X32600000Y-22530000D02*
X23660000Y-22530000D01*
%TO.N,+5V rail*%
X16985000Y-77115000D02*
X16970000Y-77100000D01*
X17812500Y-77942500D02*
X16985000Y-77115000D01*
X20570000Y-77942500D02*
X17812500Y-77942500D01*
%TO.N,-12V rail*%
X13470000Y-10480000D02*
X13500000Y-10450000D01*
X13470000Y-20850000D02*
X13470000Y-10480000D01*
X15200000Y-20850000D02*
X13470000Y-20850000D01*
X13470000Y-20850000D02*
X11250000Y-20850000D01*
%TO.N,GND rail*%
X15240000Y-28950000D02*
X15240000Y-32500000D01*
X15240000Y-28950000D02*
X6350000Y-28950000D01*
X15240000Y-32500000D02*
X15240000Y-32540000D01*
X15240000Y-32540000D02*
X15250000Y-32550000D01*
D59*
X51650000Y-12900000D02*
X51650000Y-11700000D01*
D60*
X50100000Y-11700000D02*
X51650000Y-11700000D01*
X48600000Y-13200000D02*
X50100000Y-11700000D01*
D59*
X32600000Y-17870000D02*
X35380000Y-20650000D01*
X35380000Y-20650000D02*
X35380000Y-22670000D01*
D61*
X39500000Y-45712500D02*
X39060000Y-46152500D01*
X39500000Y-44750000D02*
X39500000Y-45712500D01*
D58*
X40300000Y-43950000D02*
X39500000Y-44750000D01*
X40300000Y-40950000D02*
X40300000Y-43950000D01*
X40300000Y-40950000D02*
X41975000Y-40950000D01*
X41975000Y-40950000D02*
X42000000Y-40925000D01*
X41975000Y-40950000D02*
X42075000Y-40850000D01*
X29000000Y-72172500D02*
X27830000Y-73342500D01*
X29000000Y-71000000D02*
X29000000Y-72172500D01*
X42500000Y-69262502D02*
X40762502Y-69262502D01*
X40762502Y-69262502D02*
X40560000Y-69060000D01*
X40560000Y-69060000D02*
X40560000Y-68202500D01*
X38860000Y-25452500D02*
X36500000Y-25452500D01*
D59*
X24000000Y-94302500D02*
X26000000Y-94302500D01*
D61*
X49400000Y-14200000D02*
X49400000Y-15100000D01*
X49796632Y-13803368D02*
X49400000Y-14200000D01*
X49850000Y-13803368D02*
X49796632Y-13803368D01*
D58*
X28500000Y-91142500D02*
X28000000Y-91642500D01*
X28500000Y-89500000D02*
X28500000Y-91142500D01*
X32050000Y-63902500D02*
X32210000Y-63902500D01*
X32210000Y-63902500D02*
X34260000Y-61852500D01*
X44430000Y-94102500D02*
X42397500Y-94102500D01*
X42397500Y-94102500D02*
X41500000Y-95000000D01*
X72830000Y-65302500D02*
X70797500Y-65302500D01*
X70797500Y-65302500D02*
X67800000Y-68300000D01*
X63460000Y-6340000D02*
X63460000Y-5220000D01*
X57970000Y-11830000D02*
X63460000Y-6340000D01*
X57930000Y-11830000D02*
X57220000Y-11830000D01*
X59000000Y-12900000D02*
X57930000Y-11830000D01*
X57220000Y-11830000D02*
X57970000Y-11830000D01*
D60*
X43650000Y-10900000D02*
X43650000Y-10350000D01*
X43650000Y-10350000D02*
X43900000Y-10100000D01*
D58*
X71720000Y-12500000D02*
X69500000Y-16500000D01*
X71500000Y-54000000D02*
X68777500Y-56722500D01*
X68777500Y-56722500D02*
X68560000Y-56722500D01*
X27150000Y-30802500D02*
X25797500Y-30802500D01*
X25797500Y-30802500D02*
X24675000Y-31925000D01*
D59*
X39000000Y-20800000D02*
X39800000Y-20000000D01*
X39000000Y-22100000D02*
X39000000Y-20800000D01*
D58*
X40500000Y-35522500D02*
X40120000Y-35902500D01*
X40500000Y-34000000D02*
X40500000Y-35522500D01*
X38560000Y-70000000D02*
X38560000Y-68102500D01*
X40360000Y-2570000D02*
X40360000Y-4270000D01*
X40360000Y-2570000D02*
X44600000Y-2570000D01*
X40360000Y-4270000D02*
X40360000Y-6770000D01*
X40360000Y-4270000D02*
X38660000Y-4270000D01*
X44600000Y-2570000D02*
X44650000Y-2620000D01*
X49000000Y-2570000D02*
X44600000Y-2570000D01*
X40470000Y-6630000D02*
X40450000Y-6610000D01*
X41840000Y-6630000D02*
X40470000Y-6630000D01*
D59*
X39010000Y-7750000D02*
X40380000Y-6380000D01*
D58*
X40360000Y-6770000D02*
X40370000Y-6780000D01*
X49000000Y-2570000D02*
X49000000Y-6750000D01*
X41870000Y-6660000D02*
X41840000Y-6630000D01*
D59*
X39010000Y-9050000D02*
X39010000Y-7750000D01*
X47380000Y-6630000D02*
X48970000Y-6630000D01*
X48970000Y-6630000D02*
X48970000Y-8430000D01*
D58*
X49000000Y-6630000D02*
X49010000Y-6620000D01*
D59*
X49020000Y-8520000D02*
X50370000Y-7170000D01*
X48970000Y-8430000D02*
X49010000Y-8470000D01*
X50370000Y-7170000D02*
X50370000Y-7150000D01*
D58*
X68460000Y-34960000D02*
X70500000Y-37000000D01*
X68460000Y-34102500D02*
X68460000Y-34960000D01*
D61*
X47052500Y-49302500D02*
X47250000Y-49500000D01*
X44040000Y-49302500D02*
X47052500Y-49302500D01*
D59*
X52400000Y-17500000D02*
X52900000Y-17500000D01*
X52900000Y-17500000D02*
X54900000Y-15500000D01*
D58*
X42360000Y-87552500D02*
X40447500Y-87552500D01*
X40447500Y-87552500D02*
X40000000Y-88000000D01*
D59*
X39550000Y-88450000D02*
X40000000Y-88000000D01*
X36750000Y-88450000D02*
X39550000Y-88450000D01*
D61*
X44040000Y-45902500D02*
X47097500Y-45902500D01*
X47097500Y-45902500D02*
X47250000Y-45750000D01*
D58*
X70500000Y-74500000D02*
X70500000Y-75742500D01*
X70500000Y-75742500D02*
X73060000Y-78302500D01*
X43840000Y-28502500D02*
X43840000Y-29840000D01*
X43840000Y-29840000D02*
X44000000Y-30000000D01*
X43840000Y-25102500D02*
X46177500Y-25102500D01*
X46177500Y-25102500D02*
X47050000Y-25975000D01*
D60*
X42900000Y-14150000D02*
X42150000Y-14150000D01*
X42150000Y-14150000D02*
X42100000Y-14100000D01*
D58*
X31200000Y-39052500D02*
X33350000Y-41202500D01*
X31200000Y-37700000D02*
X31200000Y-39052500D01*
X17500000Y-58252500D02*
X16450000Y-59302500D01*
X20497500Y-58252500D02*
X17500000Y-58252500D01*
X22500000Y-56250000D02*
X20497500Y-58252500D01*
D60*
X42900000Y-13150000D02*
X43750000Y-13150000D01*
X43750000Y-13150000D02*
X43800000Y-13200000D01*
X42100000Y-14800000D02*
X43684000Y-14800000D01*
D58*
X35870000Y-75742500D02*
X37242500Y-75742500D01*
X37242500Y-75742500D02*
X38500000Y-77000000D01*
X66060000Y-34940000D02*
X64000000Y-37000000D01*
X66060000Y-34102500D02*
X66060000Y-34940000D01*
%TO.N,/DC-DC Conversion/+7.5V OUT*%
X43100000Y-53202500D02*
X37560000Y-53202500D01*
%TO.N,/DC-DC Conversion/-13.5V OUT*%
X48563156Y-56399000D02*
X48411000Y-56399000D01*
X56012500Y-57950000D02*
X49501000Y-57950000D01*
X49501000Y-57336844D02*
X48563156Y-56399000D01*
X48411000Y-55101500D02*
X43509000Y-55101500D01*
X49501000Y-57950000D02*
X49501000Y-57336844D01*
X58360000Y-55602500D02*
X56012500Y-57950000D01*
X48411000Y-56399000D02*
X48411000Y-55101500D01*
X43509000Y-55101500D02*
X43509000Y-56400000D01*
X43509000Y-56400000D02*
X40622500Y-56400000D01*
X40622500Y-56400000D02*
X40620000Y-56402500D01*
%TO.N,+15V -> +13.5V gen*%
X46350000Y-56450000D02*
X46000000Y-56450000D01*
X47900000Y-58000000D02*
X46350000Y-56450000D01*
%TO.N,Net-(D2-K)*%
X44040000Y-44202500D02*
X45460000Y-44202500D01*
X45460000Y-44202500D02*
X48660000Y-41002500D01*
X48660000Y-41002500D02*
X48660000Y-39400000D01*
X48660000Y-39400000D02*
X60940000Y-39400000D01*
X60940000Y-39400000D02*
X61190000Y-39150000D01*
X61190000Y-39150000D02*
X61190000Y-38002500D01*
%TO.N,/DC-DC Conversion/+13.5V OUT*%
X25450000Y-59302500D02*
X27650000Y-59302500D01*
X27650000Y-59302500D02*
X32050000Y-54902500D01*
X61160000Y-25272500D02*
X61390000Y-25502500D01*
X61390000Y-11410000D02*
X67600000Y-5200000D01*
X38860000Y-28752500D02*
X40610000Y-28752500D01*
X40610000Y-28752500D02*
X40860000Y-29002500D01*
X34550000Y-50442500D02*
X34550000Y-51302500D01*
X61390000Y-25502500D02*
X61390000Y-11410000D01*
X34550000Y-51302500D02*
X34550000Y-52402500D01*
X34550000Y-52402500D02*
X32050000Y-54902500D01*
X34550000Y-49412500D02*
X36460000Y-47502500D01*
X34550000Y-51302500D02*
X34550000Y-49412500D01*
X40860000Y-29002500D02*
X40860000Y-31902500D01*
%TO.N,/DC-DC Conversion/+7.5V OUT*%
X69060000Y-50632500D02*
X72890000Y-50632500D01*
X68560000Y-51382500D02*
X68560000Y-51132500D01*
D59*
X34250000Y-87900000D02*
X35790000Y-87050000D01*
D58*
X37660000Y-49702500D02*
X37560000Y-49802500D01*
X70260000Y-50632500D02*
X69060000Y-50632500D01*
X72730000Y-48162500D02*
X70260000Y-50632500D01*
X72730000Y-42702500D02*
X72730000Y-48162500D01*
X40960000Y-49702500D02*
X39110000Y-49702500D01*
X68560000Y-51132500D02*
X69060000Y-50632500D01*
X39110000Y-49702500D02*
X37660000Y-49702500D01*
D59*
X35790000Y-87050000D02*
X36750000Y-87050000D01*
X38370000Y-85280000D02*
X36600000Y-87050000D01*
X38370000Y-85082500D02*
X38370000Y-85280000D01*
D58*
X37560000Y-49802500D02*
X37560000Y-53202500D01*
D59*
X33340000Y-88810000D02*
X34250000Y-87900000D01*
X33340000Y-91642500D02*
X33340000Y-88810000D01*
D58*
X72890000Y-50632500D02*
X73560000Y-51302500D01*
X39110000Y-49702500D02*
X39060000Y-49752500D01*
%TO.N,/DC-DC Conversion/-13.5V OUT*%
X50320000Y-67802500D02*
X53720000Y-64402500D01*
X36360000Y-60662500D02*
X36360000Y-71762500D01*
X67060000Y-78302500D02*
X64060000Y-78302500D01*
X43400000Y-67802500D02*
X50320000Y-67802500D01*
X54260000Y-64402500D02*
X64060000Y-74202500D01*
X60260000Y-57502500D02*
X60260000Y-57862500D01*
X48160000Y-76542500D02*
X44650000Y-80052500D01*
X49140000Y-81750000D02*
X49140000Y-77042500D01*
X64060000Y-74202500D02*
X64060000Y-78302500D01*
X53720000Y-64402500D02*
X54260000Y-64402500D01*
X58360000Y-55602500D02*
X60260000Y-57502500D01*
X41260000Y-64402500D02*
X40460000Y-63602500D01*
X44860000Y-79842500D02*
X44650000Y-80052500D01*
X43400000Y-64402500D02*
X41260000Y-64402500D01*
X38560000Y-63402500D02*
X40260000Y-63402500D01*
X48900000Y-76542500D02*
X48160000Y-76542500D01*
X36360000Y-71762500D02*
X44650000Y-80052500D01*
X40260000Y-63402500D02*
X40460000Y-63602500D01*
X60260000Y-57862500D02*
X53720000Y-64402500D01*
X43400000Y-64402500D02*
X53720000Y-64402500D01*
X73560000Y-84802500D02*
X67060000Y-78302500D01*
X49640000Y-75802500D02*
X48900000Y-76542500D01*
X45740000Y-79842500D02*
X44860000Y-79842500D01*
X40620000Y-56402500D02*
X36360000Y-60662500D01*
%TO.N,Net-(C16-Pad2)*%
X56300000Y-83042500D02*
X51240000Y-83042500D01*
X51240000Y-83042500D02*
X49240000Y-85042500D01*
X58640000Y-80242500D02*
X56560000Y-82322500D01*
X56560000Y-82322500D02*
X56560000Y-83302500D01*
X49240000Y-85042500D02*
X49240000Y-83250000D01*
X58640000Y-75802500D02*
X58640000Y-80242500D01*
X56560000Y-83302500D02*
X56300000Y-83042500D01*
X49240000Y-83250000D02*
X49140000Y-83150000D01*
%TO.N,Net-(U6-OUT)*%
X33350000Y-43202500D02*
X32050000Y-43202500D01*
X33800000Y-31800000D02*
X33800000Y-29200000D01*
X34550000Y-44402500D02*
X33350000Y-43202500D01*
X34550000Y-45362500D02*
X34550000Y-44402500D01*
X32050000Y-43202500D02*
X28650000Y-39802500D01*
X33800000Y-29200000D02*
X32800000Y-28200000D01*
X27050000Y-39802500D02*
X27150000Y-39802500D01*
X31902500Y-31800000D02*
X33800000Y-31800000D01*
X27150000Y-39802500D02*
X27150000Y-36552500D01*
X27150000Y-36552500D02*
X31902500Y-31800000D01*
X28650000Y-39802500D02*
X27150000Y-39802500D01*
%TO.N,Net-(U7-OUT)*%
X25870000Y-75742500D02*
X32970000Y-75742500D01*
X32970000Y-75742500D02*
X33170000Y-75942500D01*
X24320000Y-74742500D02*
X24870000Y-74742500D01*
X24470000Y-74592500D02*
X24320000Y-74742500D01*
D61*
X25750000Y-72000000D02*
X24320000Y-73430000D01*
D58*
X34970000Y-77742500D02*
X35870000Y-77742500D01*
X24870000Y-74742500D02*
X25870000Y-75742500D01*
D61*
X24320000Y-73430000D02*
X24320000Y-74742500D01*
D58*
X36110000Y-77742500D02*
X38370000Y-80002500D01*
X33170000Y-73342500D02*
X33170000Y-75942500D01*
X33170000Y-75942500D02*
X34970000Y-77742500D01*
X35870000Y-77742500D02*
X36110000Y-77742500D01*
D61*
X25750000Y-71000000D02*
X25750000Y-72000000D01*
D58*
%TO.N,Net-(U8-OUT)*%
X56100000Y-92302500D02*
X56560000Y-92302500D01*
X45910000Y-90802500D02*
X45910000Y-88572500D01*
X43560000Y-90902500D02*
X45810000Y-90902500D01*
X49240000Y-87042500D02*
X50840000Y-87042500D01*
X47440000Y-87042500D02*
X46940000Y-87542500D01*
X49240000Y-87042500D02*
X47440000Y-87042500D01*
X45910000Y-88572500D02*
X46940000Y-87542500D01*
X45810000Y-90902500D02*
X45910000Y-90802500D01*
X50840000Y-87042500D02*
X56100000Y-92302500D01*
%TO.N,Net-(U2-Feedback)*%
X36500000Y-30252500D02*
X38860000Y-30252500D01*
X43690000Y-26952500D02*
X43840000Y-26802500D01*
X36500000Y-26952500D02*
X43690000Y-26952500D01*
%TO.N,Net-(U3-Feedback)*%
X38597500Y-47652500D02*
X40910000Y-47652500D01*
X41060000Y-47602500D02*
X40960000Y-47702500D01*
X40910000Y-47652500D02*
X40960000Y-47702500D01*
X39712500Y-51252500D02*
X40210000Y-51750000D01*
X38000000Y-48250000D02*
X38597500Y-47652500D01*
X39060000Y-51252500D02*
X39712500Y-51252500D01*
X44040000Y-47602500D02*
X41060000Y-47602500D01*
%TO.N,Net-(U4-Feedback)*%
X40660000Y-66102500D02*
X40560000Y-66202500D01*
X40560000Y-66202500D02*
X39860000Y-66202500D01*
X38560000Y-64902500D02*
X38560000Y-66602500D01*
X39860000Y-66202500D02*
X38560000Y-64902500D01*
X43400000Y-66102500D02*
X40660000Y-66102500D01*
%TO.N,Net-(D1-K)*%
X69750000Y-25500000D02*
X72927500Y-25500000D01*
X72930000Y-25502500D02*
X72930000Y-34032500D01*
X72930000Y-34032500D02*
X72860000Y-34102500D01*
X72927500Y-25500000D02*
X72930000Y-25502500D01*
X43500000Y-23402500D02*
X47660000Y-23402500D01*
%TO.N,Net-(D2-K)*%
X61190000Y-34572500D02*
X61660000Y-34102500D01*
X61190000Y-38002500D02*
X61190000Y-34572500D01*
X61190000Y-42702500D02*
X61190000Y-38002500D01*
%TO.N,Net-(D3-K)*%
X64592500Y-62000000D02*
X61290000Y-65302500D01*
X64660000Y-58202500D02*
X64660000Y-57502500D01*
X61290000Y-65302500D02*
X60990000Y-65002500D01*
X64660000Y-57502500D02*
X62760000Y-55602500D01*
X45760000Y-62702500D02*
X46460000Y-62002500D01*
X67000000Y-62000000D02*
X64592500Y-62000000D01*
X61290000Y-65302500D02*
X61290000Y-61572500D01*
X61290000Y-61572500D02*
X64660000Y-58202500D01*
X43400000Y-62702500D02*
X45760000Y-62702500D01*
D59*
%TO.N,Net-(J1-CC1)*%
X45180000Y-8180000D02*
X45190000Y-8190000D01*
X45180000Y-6630000D02*
X45180000Y-8180000D01*
%TO.N,Net-(J1-CC2)*%
X53820000Y-11680000D02*
X52700000Y-12800000D01*
D58*
%TO.N,-12V rail*%
X11250000Y-20850000D02*
X10150000Y-20850000D01*
X49090000Y-91082500D02*
X48810000Y-90802500D01*
X49090000Y-94102500D02*
X49090000Y-91082500D01*
%TO.N,+12V rail*%
X32600000Y-22530000D02*
X32600000Y-24800000D01*
X32600000Y-24800000D02*
X32800000Y-25000000D01*
X15240000Y-36610000D02*
X10100000Y-36610000D01*
%TO.N,+5V rail*%
X10460000Y-45110000D02*
X10100000Y-44750000D01*
X10100000Y-44750000D02*
X15150000Y-44750000D01*
X20620000Y-77892500D02*
X20570000Y-77942500D01*
%TO.N,Net-(LED2-A)*%
X32200000Y-33800000D02*
X31400000Y-34600000D01*
X33800000Y-33800000D02*
X32200000Y-33800000D01*
D61*
%TO.N,Net-(LED3-A)*%
X22060000Y-73052500D02*
X22060000Y-87302500D01*
X20560000Y-88802500D02*
X20560000Y-93362500D01*
X22060000Y-87302500D02*
X20560000Y-88802500D01*
X22470000Y-72280000D02*
X22470000Y-72642500D01*
X20560000Y-93362500D02*
X21500000Y-94302500D01*
X22470000Y-72642500D02*
X22060000Y-73052500D01*
X23750000Y-71000000D02*
X22470000Y-72280000D01*
%TO.N,Net-(LED4-C)*%
X35310000Y-95802500D02*
X24000000Y-95802500D01*
X41560000Y-90902500D02*
X40210000Y-90902500D01*
X40210000Y-90902500D02*
X35310000Y-95802500D01*
D59*
%TO.N,VBUS_IN*%
X46950000Y-9500000D02*
X46950000Y-8670000D01*
X46170000Y-4650000D02*
X43250000Y-4650000D01*
X43230000Y-4650000D02*
X43230000Y-6890000D01*
X46180000Y-4660000D02*
X46170000Y-4650000D01*
X43240000Y-4640000D02*
X43230000Y-4650000D01*
X44740000Y-9090000D02*
X45300000Y-9090000D01*
X46180000Y-6630000D02*
X46180000Y-4660000D01*
X46410000Y-9090000D02*
X46920000Y-8580000D01*
X44976000Y-16376000D02*
X44700000Y-16100000D01*
X50650000Y-8648000D02*
X51700000Y-9698000D01*
X44700000Y-16100000D02*
X43900000Y-16100000D01*
X43180000Y-7950000D02*
X42230000Y-8900000D01*
X42190000Y-9050000D02*
X42230000Y-9090000D01*
X50650000Y-8500000D02*
X50650000Y-8648000D01*
X46600000Y-16551000D02*
X46600000Y-17400000D01*
X43180000Y-6630000D02*
X43180000Y-7950000D01*
X47579500Y-10779500D02*
X46900000Y-11459000D01*
X42230000Y-9090000D02*
X44740000Y-9090000D01*
X47052496Y-16551000D02*
X46600000Y-16551000D01*
X46600000Y-16551000D02*
X46151000Y-16551000D01*
X47579500Y-16420500D02*
X47182996Y-16420500D01*
X51700000Y-9698000D02*
X51700000Y-10799000D01*
X47182996Y-16420500D02*
X47052496Y-16551000D01*
X45976000Y-16376000D02*
X44976000Y-16376000D01*
X43250000Y-4650000D02*
X43240000Y-4640000D01*
X47579500Y-10129500D02*
X46950000Y-9500000D01*
X46151000Y-16551000D02*
X45976000Y-16376000D01*
X47579500Y-10779500D02*
X47579500Y-10129500D01*
D60*
%TO.N,Net-(U1-VREG_2V7)*%
X46900000Y-12150000D02*
X47700000Y-12150000D01*
X48250000Y-12150000D02*
X48600000Y-11800000D01*
X47700000Y-12150000D02*
X48250000Y-12150000D01*
X46900000Y-12650000D02*
X46900000Y-12200000D01*
%TO.N,Net-(U1-VREG_1V2)*%
X47800000Y-13680976D02*
X47800000Y-14700000D01*
X46900000Y-13150000D02*
X47269024Y-13150000D01*
X47800000Y-14700000D02*
X48200000Y-15100000D01*
X47269024Y-13150000D02*
X47800000Y-13680976D01*
D61*
%TO.N,Net-(Q1-G)*%
X44231000Y-16931000D02*
X44799000Y-17499000D01*
D59*
X52400000Y-15500000D02*
X52100000Y-15500000D01*
D60*
X48500000Y-18400000D02*
X47600000Y-19300000D01*
X50500000Y-17200000D02*
X50600000Y-17200000D01*
D61*
X44799000Y-17499000D02*
X45251000Y-17499000D01*
X43131000Y-16931000D02*
X44231000Y-16931000D01*
X42300000Y-16100000D02*
X43131000Y-16931000D01*
D59*
X52100000Y-15500000D02*
X50500000Y-17100000D01*
D60*
X47600000Y-19300000D02*
X46500000Y-19300000D01*
D61*
X46600000Y-18848000D02*
X46600000Y-19200000D01*
X45251000Y-17499000D02*
X46600000Y-18848000D01*
D60*
%TO.N,Net-(U1-VBUS_EN_SNK)*%
X48300000Y-17100000D02*
X48900000Y-17100000D01*
X47800000Y-17600000D02*
X48300000Y-17100000D01*
X45150000Y-14900000D02*
X45150000Y-15500000D01*
X45150000Y-15500000D02*
X45350000Y-15700000D01*
X45350000Y-15700000D02*
X46700000Y-15700000D01*
X46700000Y-15700000D02*
X46800000Y-15700000D01*
%TO.N,Net-(U1-DISCH)*%
X41300000Y-13880976D02*
X41300000Y-17800000D01*
X42530976Y-12650000D02*
X41300000Y-13880976D01*
X42900000Y-12650000D02*
X42530976Y-12650000D01*
%TO.N,Net-(U1-CC2)*%
X44850000Y-10100000D02*
X45400000Y-10100000D01*
X52560000Y-10820000D02*
X52580000Y-10840000D01*
X44650000Y-10300000D02*
X44850000Y-10100000D01*
X44150000Y-10900000D02*
X44600000Y-10900000D01*
X44650000Y-10900000D02*
X44650000Y-10300000D01*
X52560000Y-9590000D02*
X52560000Y-10820000D01*
X45400000Y-10100000D02*
X45400000Y-10014702D01*
%TO.N,Net-(U1-CC1)*%
X46150000Y-10150000D02*
X46200000Y-10100000D01*
D61*
X50700000Y-10600000D02*
X50300000Y-10600000D01*
X50300000Y-10600000D02*
X49700000Y-10000000D01*
D62*
X45650000Y-10900000D02*
X45650000Y-10650000D01*
D60*
X46150000Y-10900000D02*
X45616000Y-10900000D01*
X46150000Y-10900000D02*
X46150000Y-10150000D01*
D59*
%TO.N,+15V -> +13.5V gen*%
X55400000Y-13960000D02*
X55400000Y-14240000D01*
X41700000Y-20200000D02*
X41900000Y-20000000D01*
X46500000Y-21700000D02*
X49300000Y-18900000D01*
D58*
X44060000Y-42482500D02*
X44040000Y-42502500D01*
X45460000Y-39402500D02*
X44060000Y-40802500D01*
D59*
X44350000Y-18300000D02*
X44350000Y-20000000D01*
X46862500Y-34500000D02*
X45460000Y-35902500D01*
X43800000Y-17800000D02*
X44300000Y-18300000D01*
X55490000Y-18900000D02*
X57220000Y-17170000D01*
D58*
X45960000Y-56602500D02*
X45960000Y-58442500D01*
X41060000Y-61002500D02*
X40460000Y-61602500D01*
D59*
X55400000Y-14240000D02*
X57210000Y-16050000D01*
X59960000Y-5220000D02*
X59960000Y-6080000D01*
X49300000Y-18900000D02*
X55490000Y-18900000D01*
D58*
X43400000Y-61002500D02*
X41060000Y-61002500D01*
D59*
X41900000Y-20000000D02*
X44350000Y-20000000D01*
X44350000Y-21550000D02*
X44300000Y-21600000D01*
X42800000Y-17800000D02*
X43800000Y-17800000D01*
D58*
X44060000Y-40802500D02*
X44060000Y-42482500D01*
D59*
X59960000Y-6080000D02*
X57640000Y-8400000D01*
D58*
X45460000Y-35902500D02*
X45460000Y-39402500D01*
D59*
X57220000Y-16942500D02*
X56980000Y-16702500D01*
X57220000Y-17170000D02*
X57220000Y-16942500D01*
X44350000Y-20000000D02*
X44350000Y-21550000D01*
X48000000Y-34500000D02*
X46862500Y-34500000D01*
D58*
X45960000Y-56402500D02*
X45960000Y-56602500D01*
X45960000Y-58442500D02*
X43400000Y-61002500D01*
%TO.N,/DC-DC Conversion/+7.5V OUT*%
X68560000Y-51132500D02*
X68060000Y-50632500D01*
X68060000Y-50632500D02*
X65200000Y-50632500D01*
%TO.N,+5V rail*%
X20620000Y-74742500D02*
X20620000Y-77892500D01*
%TD*%
M02*
