%TF.GenerationSoftware,KiCad,Pcbnew,9.0.6*%
%TF.CreationDate,2026-02-04T05:23:12+09:00*%
%TF.ProjectId,zudo-pd,7a75646f-2d70-4642-9e6b-696361645f70,rev?*%
%TF.SameCoordinates,Original*%
%TF.FileFunction,Paste,Top*%
%TF.FilePolarity,Positive*%
%FSLAX46Y46*%
G04 Gerber Fmt 4.6, Leading zero omitted, Abs format (unit mm)*
G04 Created by KiCad (PCBNEW 9.0.6) date 2026-02-04 05:23:12*
%MOMM*%
%LPD*%
G01*
G04 APERTURE LIST*
%ADD10R,3.080000X1.020000*%
%ADD11R,8.500000X11.000000*%
%ADD12R,1.490000X1.730000*%
%ADD13R,1.410000X1.350000*%
%ADD14R,4.500000X1.650000*%
%ADD15R,1.200000X3.500000*%
%ADD16R,3.500000X1.200000*%
%ADD17R,0.900000X0.800000*%
%ADD18R,1.350000X1.410000*%
%ADD19R,1.650000X4.500000*%
%ADD20R,0.800000X0.900000*%
%ADD21R,2.000000X2.000000*%
%ADD22R,0.530000X1.070000*%
%ADD23R,0.700000X1.200000*%
%ADD24R,0.800000X1.200000*%
%ADD25R,3.730000X5.000000*%
%ADD26R,0.800000X0.800000*%
%ADD27R,0.860000X0.810000*%
%ADD28R,1.900000X1.900000*%
%ADD29R,0.800000X1.000000*%
%ADD30O,0.280000X0.700000*%
%ADD31O,0.700000X0.280000*%
%ADD32R,2.800000X2.800000*%
%ADD33R,4.000000X1.300000*%
%ADD34R,8.400000X10.570000*%
%ADD35R,3.500000X1.600000*%
%ADD36R,9.000000X10.200000*%
%ADD37R,1.270000X2.540000*%
%ADD38R,5.400000X6.100000*%
%ADD39R,1.000000X0.800000*%
%ADD40R,1.190000X1.730000*%
%ADD41R,1.130000X1.380000*%
%ADD42R,2.780000X1.490000*%
%ADD43R,1.410000X3.500000*%
%ADD44R,1.380000X1.130000*%
%ADD45R,0.810000X0.860000*%
G04 APERTURE END LIST*
D10*
%TO.C,U2*%
X43840000Y-21702500D03*
X43840000Y-23402500D03*
X43840000Y-25102500D03*
X43840000Y-26802500D03*
X43840000Y-28502500D03*
D11*
X54160000Y-25102500D03*
%TD*%
D12*
%TO.C,C1*%
X39010000Y-9050000D03*
X42190000Y-9050000D03*
%TD*%
D13*
%TO.C,C2*%
X49020000Y-8520000D03*
X47020000Y-8520000D03*
%TD*%
D14*
%TO.C,C3*%
X62720000Y-12500000D03*
X71720000Y-12500000D03*
%TD*%
D15*
%TO.C,C4*%
X68560000Y-51382500D03*
X68560000Y-56722500D03*
%TD*%
%TO.C,C5*%
X57220000Y-17170000D03*
X57220000Y-11830000D03*
%TD*%
D13*
%TO.C,C6*%
X41800000Y-19900000D03*
X39800000Y-19900000D03*
%TD*%
D16*
%TO.C,C7*%
X45460000Y-35902500D03*
X40120000Y-35902500D03*
%TD*%
D13*
%TO.C,C8*%
X44060000Y-40802500D03*
X42060000Y-40802500D03*
%TD*%
D14*
%TO.C,C11*%
X73060000Y-78302500D03*
X64060000Y-78302500D03*
%TD*%
%TO.C,C14*%
X25450000Y-59302500D03*
X16450000Y-59302500D03*
%TD*%
D17*
%TO.C,C15*%
X36750000Y-87050000D03*
X36750000Y-88450000D03*
%TD*%
D18*
%TO.C,C17*%
X33350000Y-41202500D03*
X33350000Y-43202500D03*
%TD*%
%TO.C,C18*%
X35870000Y-77742500D03*
X35870000Y-75742500D03*
%TD*%
D19*
%TO.C,C20*%
X32050000Y-54902500D03*
X32050000Y-63902500D03*
%TD*%
%TO.C,C21*%
X27150000Y-39802500D03*
X27150000Y-30802500D03*
%TD*%
D16*
%TO.C,C22*%
X33340000Y-91642500D03*
X28000000Y-91642500D03*
%TD*%
%TO.C,C23*%
X33170000Y-73342500D03*
X27830000Y-73342500D03*
%TD*%
D17*
%TO.C,C30*%
X48600000Y-11800000D03*
X48600000Y-13200000D03*
%TD*%
D18*
%TO.C,C33*%
X40560000Y-68202500D03*
X40560000Y-66202500D03*
%TD*%
D20*
%TO.C,C34*%
X48200000Y-15100000D03*
X49600000Y-15100000D03*
%TD*%
D18*
%TO.C,C35*%
X52400000Y-15500000D03*
X52400000Y-17500000D03*
%TD*%
D21*
%TO.C,D1*%
X72860000Y-34102500D03*
X68460000Y-34102500D03*
%TD*%
%TO.C,D2*%
X61660000Y-34102500D03*
X66060000Y-34102500D03*
%TD*%
D22*
%TO.C,D4*%
X50700000Y-12900000D03*
X51650000Y-12900000D03*
X52600000Y-12900000D03*
X52600000Y-10600000D03*
X51650000Y-10600000D03*
X50700000Y-10600000D03*
%TD*%
D23*
%TO.C,J1*%
X45180000Y-6630000D03*
X43180000Y-6630000D03*
D24*
X41980000Y-6630000D03*
D23*
X44180000Y-6630000D03*
X46180000Y-6630000D03*
D24*
X47380000Y-6630000D03*
%TD*%
D25*
%TO.C,L3*%
X61290000Y-65302500D03*
X72830000Y-65302500D03*
%TD*%
D26*
%TO.C,LED2*%
X19000000Y-95802500D03*
X19000000Y-94302500D03*
%TD*%
%TO.C,LED3*%
X21500000Y-95802500D03*
X21500000Y-94302500D03*
%TD*%
%TO.C,LED4*%
X24000000Y-95802500D03*
X24000000Y-94302500D03*
%TD*%
D27*
%TO.C,R2*%
X38860000Y-25452500D03*
X38860000Y-26952500D03*
%TD*%
%TO.C,R4*%
X39060000Y-47652500D03*
X39060000Y-46152500D03*
%TD*%
%TO.C,R5*%
X38560000Y-66602500D03*
X38560000Y-68102500D03*
%TD*%
D28*
%TO.C,TVS1*%
X32600000Y-22530000D03*
X32600000Y-17870000D03*
%TD*%
D29*
%TO.C,TVS2*%
X20570000Y-80342500D03*
X20570000Y-77942500D03*
%TD*%
D28*
%TO.C,TVS3*%
X44430000Y-94102500D03*
X49090000Y-94102500D03*
%TD*%
D30*
%TO.C,U1*%
X46150000Y-10900000D03*
X45650000Y-10900000D03*
X45150000Y-10900000D03*
X44650000Y-10900000D03*
X44150000Y-10900000D03*
X43650000Y-10900000D03*
D31*
X42900000Y-11650000D03*
X42900000Y-12150000D03*
X42900000Y-12650000D03*
X42900000Y-13150000D03*
X42900000Y-13650000D03*
X42900000Y-14150000D03*
D30*
X43650000Y-14900000D03*
X44150000Y-14900000D03*
X44650000Y-14900000D03*
X45150000Y-14900000D03*
X45650000Y-14900000D03*
X46150000Y-14900000D03*
D31*
X46900000Y-14150000D03*
X46900000Y-13650000D03*
X46900000Y-13150000D03*
X46900000Y-12650000D03*
X46900000Y-12150000D03*
X46900000Y-11650000D03*
D32*
X44890000Y-12900000D03*
%TD*%
D10*
%TO.C,U3*%
X44040000Y-42502500D03*
X44040000Y-44202500D03*
X44040000Y-45902500D03*
X44040000Y-47602500D03*
X44040000Y-49302500D03*
D11*
X54360000Y-45902500D03*
%TD*%
D33*
%TO.C,U6*%
X34550000Y-50442500D03*
X34550000Y-45362500D03*
D34*
X24370000Y-47902500D03*
%TD*%
D35*
%TO.C,U7*%
X38370000Y-85082500D03*
D36*
X27570000Y-82542500D03*
D35*
X38370000Y-80002500D03*
%TD*%
D37*
%TO.C,U8*%
X42360000Y-87552500D03*
D38*
X44650000Y-80052500D03*
D37*
X46940000Y-87542500D03*
%TD*%
D39*
%TO.C,Q1*%
X46650000Y-19250000D03*
X46650000Y-17350000D03*
X44350000Y-18300000D03*
%TD*%
D18*
%TO.C,C19*%
X49240000Y-87042500D03*
X49240000Y-85042500D03*
%TD*%
%TO.C,C32*%
X40960000Y-47702500D03*
X40960000Y-49702500D03*
%TD*%
D25*
%TO.C,L2*%
X61190000Y-42702500D03*
X72730000Y-42702500D03*
%TD*%
D17*
%TO.C,C16*%
X49140000Y-81750000D03*
X49140000Y-83150000D03*
%TD*%
D40*
%TO.C,PTC3*%
X45910000Y-90802500D03*
X48810000Y-90802500D03*
%TD*%
D41*
%TO.C,R9*%
X43560000Y-90902500D03*
X41560000Y-90902500D03*
%TD*%
D42*
%TO.C,PTC1*%
X32800000Y-28200000D03*
X32800000Y-25000000D03*
%TD*%
D27*
%TO.C,R1*%
X38860000Y-30252500D03*
X38860000Y-28752500D03*
%TD*%
D43*
%TO.C,PTC2*%
X24320000Y-74742500D03*
X20620000Y-74742500D03*
%TD*%
D44*
%TO.C,R7*%
X33800000Y-31800000D03*
X33800000Y-33800000D03*
%TD*%
D27*
%TO.C,R3*%
X39060000Y-49752500D03*
X39060000Y-51252500D03*
%TD*%
D45*
%TO.C,R11*%
X42300000Y-16100000D03*
X43800000Y-16100000D03*
%TD*%
D41*
%TO.C,R8*%
X25750000Y-71000000D03*
X23750000Y-71000000D03*
%TD*%
D18*
%TO.C,C31*%
X40860000Y-27002500D03*
X40860000Y-29002500D03*
%TD*%
D45*
%TO.C,R12*%
X49000000Y-17200000D03*
X50500000Y-17200000D03*
%TD*%
D16*
%TO.C,C9*%
X45960000Y-56402500D03*
X40620000Y-56402500D03*
%TD*%
D14*
%TO.C,C24*%
X58640000Y-75600000D03*
X49640000Y-75600000D03*
%TD*%
D45*
%TO.C,R13*%
X42800000Y-17800000D03*
X41300000Y-17800000D03*
%TD*%
D27*
%TO.C,R6*%
X38560000Y-64902500D03*
X38560000Y-63402500D03*
%TD*%
D21*
%TO.C,D3*%
X62760000Y-55602500D03*
X58360000Y-55602500D03*
%TD*%
D25*
%TO.C,L1*%
X72930000Y-25502500D03*
X61390000Y-25502500D03*
%TD*%
D18*
%TO.C,C10*%
X40460000Y-61602500D03*
X40460000Y-63602500D03*
%TD*%
D19*
%TO.C,C25*%
X56560000Y-83302500D03*
X56560000Y-92302500D03*
%TD*%
D10*
%TO.C,U4*%
X43400000Y-61002500D03*
X43400000Y-62702500D03*
X43400000Y-64402500D03*
X43400000Y-66102500D03*
X43400000Y-67802500D03*
D11*
X53720000Y-64402500D03*
%TD*%
M02*
