%TF.GenerationSoftware,KiCad,Pcbnew,9.0.6*%
%TF.CreationDate,2026-02-04T05:23:12+09:00*%
%TF.ProjectId,zudo-pd,7a75646f-2d70-4642-9e6b-696361645f70,rev?*%
%TF.SameCoordinates,Original*%
%TF.FileFunction,Legend,Top*%
%TF.FilePolarity,Positive*%
%FSLAX46Y46*%
G04 Gerber Fmt 4.6, Leading zero omitted, Abs format (unit mm)*
G04 Created by KiCad (PCBNEW 9.0.6) date 2026-02-04 05:23:12*
%MOMM*%
%LPD*%
G01*
G04 APERTURE LIST*
%ADD10C,0.100000*%
%ADD11C,0.750000*%
%ADD12C,0.375000*%
%ADD13C,0.150000*%
%ADD14C,0.125000*%
%ADD15C,0.200000*%
%ADD16C,0.110000*%
%ADD17C,0.400000*%
%ADD18C,0.250000*%
%ADD19C,0.300000*%
%ADD20C,0.120000*%
%ADD21C,0.080000*%
G04 APERTURE END LIST*
D10*
X-9300000Y-20050000D02*
X17550000Y-20050000D01*
X17550000Y-21750000D01*
X-9300000Y-21750000D01*
X-9300000Y-20050000D01*
G36*
X-9300000Y-20050000D02*
G01*
X17550000Y-20050000D01*
X17550000Y-21750000D01*
X-9300000Y-21750000D01*
X-9300000Y-20050000D01*
G37*
X71616666Y-86952466D02*
X72150000Y-86952466D01*
X72850000Y-87219133D02*
X72450000Y-87219133D01*
X72650000Y-87219133D02*
X72650000Y-86519133D01*
X72650000Y-86519133D02*
X72583333Y-86619133D01*
X72583333Y-86619133D02*
X72516667Y-86685800D01*
X72516667Y-86685800D02*
X72450000Y-86719133D01*
X73083334Y-86519133D02*
X73516667Y-86519133D01*
X73516667Y-86519133D02*
X73283334Y-86785800D01*
X73283334Y-86785800D02*
X73383334Y-86785800D01*
X73383334Y-86785800D02*
X73450000Y-86819133D01*
X73450000Y-86819133D02*
X73483334Y-86852466D01*
X73483334Y-86852466D02*
X73516667Y-86919133D01*
X73516667Y-86919133D02*
X73516667Y-87085800D01*
X73516667Y-87085800D02*
X73483334Y-87152466D01*
X73483334Y-87152466D02*
X73450000Y-87185800D01*
X73450000Y-87185800D02*
X73383334Y-87219133D01*
X73383334Y-87219133D02*
X73183334Y-87219133D01*
X73183334Y-87219133D02*
X73116667Y-87185800D01*
X73116667Y-87185800D02*
X73083334Y-87152466D01*
X73816667Y-87152466D02*
X73850001Y-87185800D01*
X73850001Y-87185800D02*
X73816667Y-87219133D01*
X73816667Y-87219133D02*
X73783334Y-87185800D01*
X73783334Y-87185800D02*
X73816667Y-87152466D01*
X73816667Y-87152466D02*
X73816667Y-87219133D01*
X74483334Y-86519133D02*
X74150000Y-86519133D01*
X74150000Y-86519133D02*
X74116667Y-86852466D01*
X74116667Y-86852466D02*
X74150000Y-86819133D01*
X74150000Y-86819133D02*
X74216667Y-86785800D01*
X74216667Y-86785800D02*
X74383334Y-86785800D01*
X74383334Y-86785800D02*
X74450000Y-86819133D01*
X74450000Y-86819133D02*
X74483334Y-86852466D01*
X74483334Y-86852466D02*
X74516667Y-86919133D01*
X74516667Y-86919133D02*
X74516667Y-87085800D01*
X74516667Y-87085800D02*
X74483334Y-87152466D01*
X74483334Y-87152466D02*
X74450000Y-87185800D01*
X74450000Y-87185800D02*
X74383334Y-87219133D01*
X74383334Y-87219133D02*
X74216667Y-87219133D01*
X74216667Y-87219133D02*
X74150000Y-87185800D01*
X74150000Y-87185800D02*
X74116667Y-87152466D01*
X74716667Y-86519133D02*
X74950001Y-87219133D01*
X74950001Y-87219133D02*
X75183334Y-86519133D01*
D11*
X-952293Y-48391000D02*
X1333421Y-48391000D01*
X190563Y-49533857D02*
X190563Y-47248142D01*
X4190564Y-46533857D02*
X2761992Y-46533857D01*
X2761992Y-46533857D02*
X2619135Y-47962428D01*
X2619135Y-47962428D02*
X2761992Y-47819571D01*
X2761992Y-47819571D02*
X3047707Y-47676714D01*
X3047707Y-47676714D02*
X3761992Y-47676714D01*
X3761992Y-47676714D02*
X4047707Y-47819571D01*
X4047707Y-47819571D02*
X4190564Y-47962428D01*
X4190564Y-47962428D02*
X4333421Y-48248142D01*
X4333421Y-48248142D02*
X4333421Y-48962428D01*
X4333421Y-48962428D02*
X4190564Y-49248142D01*
X4190564Y-49248142D02*
X4047707Y-49391000D01*
X4047707Y-49391000D02*
X3761992Y-49533857D01*
X3761992Y-49533857D02*
X3047707Y-49533857D01*
X3047707Y-49533857D02*
X2761992Y-49391000D01*
X2761992Y-49391000D02*
X2619135Y-49248142D01*
X5190564Y-46533857D02*
X6190564Y-49533857D01*
X6190564Y-49533857D02*
X7190564Y-46533857D01*
D10*
X59135239Y-1599488D02*
X59440001Y-1599488D01*
X59287620Y-1751869D02*
X59287620Y-1447107D01*
X59840000Y-1751869D02*
X59611429Y-1751869D01*
X59725715Y-1751869D02*
X59725715Y-1351869D01*
X59725715Y-1351869D02*
X59687619Y-1409012D01*
X59687619Y-1409012D02*
X59649524Y-1447107D01*
X59649524Y-1447107D02*
X59611429Y-1466155D01*
X60201905Y-1351869D02*
X60011429Y-1351869D01*
X60011429Y-1351869D02*
X59992381Y-1542345D01*
X59992381Y-1542345D02*
X60011429Y-1523298D01*
X60011429Y-1523298D02*
X60049524Y-1504250D01*
X60049524Y-1504250D02*
X60144762Y-1504250D01*
X60144762Y-1504250D02*
X60182857Y-1523298D01*
X60182857Y-1523298D02*
X60201905Y-1542345D01*
X60201905Y-1542345D02*
X60220952Y-1580441D01*
X60220952Y-1580441D02*
X60220952Y-1675679D01*
X60220952Y-1675679D02*
X60201905Y-1713774D01*
X60201905Y-1713774D02*
X60182857Y-1732822D01*
X60182857Y-1732822D02*
X60144762Y-1751869D01*
X60144762Y-1751869D02*
X60049524Y-1751869D01*
X60049524Y-1751869D02*
X60011429Y-1732822D01*
X60011429Y-1732822D02*
X59992381Y-1713774D01*
X60335238Y-1351869D02*
X60468571Y-1751869D01*
X60468571Y-1751869D02*
X60601904Y-1351869D01*
X58687619Y-1995847D02*
X58687619Y-2319657D01*
X58687619Y-2319657D02*
X58706666Y-2357752D01*
X58706666Y-2357752D02*
X58725714Y-2376800D01*
X58725714Y-2376800D02*
X58763809Y-2395847D01*
X58763809Y-2395847D02*
X58840000Y-2395847D01*
X58840000Y-2395847D02*
X58878095Y-2376800D01*
X58878095Y-2376800D02*
X58897142Y-2357752D01*
X58897142Y-2357752D02*
X58916190Y-2319657D01*
X58916190Y-2319657D02*
X58916190Y-1995847D01*
X59087619Y-2376800D02*
X59144762Y-2395847D01*
X59144762Y-2395847D02*
X59240000Y-2395847D01*
X59240000Y-2395847D02*
X59278095Y-2376800D01*
X59278095Y-2376800D02*
X59297143Y-2357752D01*
X59297143Y-2357752D02*
X59316190Y-2319657D01*
X59316190Y-2319657D02*
X59316190Y-2281561D01*
X59316190Y-2281561D02*
X59297143Y-2243466D01*
X59297143Y-2243466D02*
X59278095Y-2224419D01*
X59278095Y-2224419D02*
X59240000Y-2205371D01*
X59240000Y-2205371D02*
X59163809Y-2186323D01*
X59163809Y-2186323D02*
X59125714Y-2167276D01*
X59125714Y-2167276D02*
X59106667Y-2148228D01*
X59106667Y-2148228D02*
X59087619Y-2110133D01*
X59087619Y-2110133D02*
X59087619Y-2072038D01*
X59087619Y-2072038D02*
X59106667Y-2033942D01*
X59106667Y-2033942D02*
X59125714Y-2014895D01*
X59125714Y-2014895D02*
X59163809Y-1995847D01*
X59163809Y-1995847D02*
X59259048Y-1995847D01*
X59259048Y-1995847D02*
X59316190Y-2014895D01*
X59620952Y-2186323D02*
X59678095Y-2205371D01*
X59678095Y-2205371D02*
X59697142Y-2224419D01*
X59697142Y-2224419D02*
X59716190Y-2262514D01*
X59716190Y-2262514D02*
X59716190Y-2319657D01*
X59716190Y-2319657D02*
X59697142Y-2357752D01*
X59697142Y-2357752D02*
X59678095Y-2376800D01*
X59678095Y-2376800D02*
X59640000Y-2395847D01*
X59640000Y-2395847D02*
X59487619Y-2395847D01*
X59487619Y-2395847D02*
X59487619Y-1995847D01*
X59487619Y-1995847D02*
X59620952Y-1995847D01*
X59620952Y-1995847D02*
X59659047Y-2014895D01*
X59659047Y-2014895D02*
X59678095Y-2033942D01*
X59678095Y-2033942D02*
X59697142Y-2072038D01*
X59697142Y-2072038D02*
X59697142Y-2110133D01*
X59697142Y-2110133D02*
X59678095Y-2148228D01*
X59678095Y-2148228D02*
X59659047Y-2167276D01*
X59659047Y-2167276D02*
X59620952Y-2186323D01*
X59620952Y-2186323D02*
X59487619Y-2186323D01*
X59887619Y-2243466D02*
X60192381Y-2243466D01*
X60382857Y-2395847D02*
X60382857Y-1995847D01*
X60382857Y-1995847D02*
X60535238Y-1995847D01*
X60535238Y-1995847D02*
X60573333Y-2014895D01*
X60573333Y-2014895D02*
X60592380Y-2033942D01*
X60592380Y-2033942D02*
X60611428Y-2072038D01*
X60611428Y-2072038D02*
X60611428Y-2129180D01*
X60611428Y-2129180D02*
X60592380Y-2167276D01*
X60592380Y-2167276D02*
X60573333Y-2186323D01*
X60573333Y-2186323D02*
X60535238Y-2205371D01*
X60535238Y-2205371D02*
X60382857Y-2205371D01*
X60782857Y-2395847D02*
X60782857Y-1995847D01*
X60782857Y-1995847D02*
X60878095Y-1995847D01*
X60878095Y-1995847D02*
X60935238Y-2014895D01*
X60935238Y-2014895D02*
X60973333Y-2052990D01*
X60973333Y-2052990D02*
X60992380Y-2091085D01*
X60992380Y-2091085D02*
X61011428Y-2167276D01*
X61011428Y-2167276D02*
X61011428Y-2224419D01*
X61011428Y-2224419D02*
X60992380Y-2300609D01*
X60992380Y-2300609D02*
X60973333Y-2338704D01*
X60973333Y-2338704D02*
X60935238Y-2376800D01*
X60935238Y-2376800D02*
X60878095Y-2395847D01*
X60878095Y-2395847D02*
X60782857Y-2395847D01*
D11*
X-3842293Y-25051000D02*
X-1556579Y-25051000D01*
X1443421Y-26193857D02*
X-270864Y-26193857D01*
X586278Y-26193857D02*
X586278Y-23193857D01*
X586278Y-23193857D02*
X300564Y-23622428D01*
X300564Y-23622428D02*
X14849Y-23908142D01*
X14849Y-23908142D02*
X-270864Y-24051000D01*
X2586278Y-23479571D02*
X2729135Y-23336714D01*
X2729135Y-23336714D02*
X3014850Y-23193857D01*
X3014850Y-23193857D02*
X3729135Y-23193857D01*
X3729135Y-23193857D02*
X4014850Y-23336714D01*
X4014850Y-23336714D02*
X4157707Y-23479571D01*
X4157707Y-23479571D02*
X4300564Y-23765285D01*
X4300564Y-23765285D02*
X4300564Y-24051000D01*
X4300564Y-24051000D02*
X4157707Y-24479571D01*
X4157707Y-24479571D02*
X2443421Y-26193857D01*
X2443421Y-26193857D02*
X4300564Y-26193857D01*
X5157707Y-23193857D02*
X6157707Y-26193857D01*
X6157707Y-26193857D02*
X7157707Y-23193857D01*
D10*
X73142466Y-57900000D02*
X73142466Y-57366667D01*
X73409133Y-57633333D02*
X72875800Y-57633333D01*
X72709133Y-57100000D02*
X72709133Y-56633333D01*
X72709133Y-56633333D02*
X73409133Y-56933333D01*
X73342466Y-56366666D02*
X73375800Y-56333333D01*
X73375800Y-56333333D02*
X73409133Y-56366666D01*
X73409133Y-56366666D02*
X73375800Y-56399999D01*
X73375800Y-56399999D02*
X73342466Y-56366666D01*
X73342466Y-56366666D02*
X73409133Y-56366666D01*
X72709133Y-55700000D02*
X72709133Y-56033333D01*
X72709133Y-56033333D02*
X73042466Y-56066666D01*
X73042466Y-56066666D02*
X73009133Y-56033333D01*
X73009133Y-56033333D02*
X72975800Y-55966666D01*
X72975800Y-55966666D02*
X72975800Y-55800000D01*
X72975800Y-55800000D02*
X73009133Y-55733333D01*
X73009133Y-55733333D02*
X73042466Y-55700000D01*
X73042466Y-55700000D02*
X73109133Y-55666666D01*
X73109133Y-55666666D02*
X73275800Y-55666666D01*
X73275800Y-55666666D02*
X73342466Y-55700000D01*
X73342466Y-55700000D02*
X73375800Y-55733333D01*
X73375800Y-55733333D02*
X73409133Y-55800000D01*
X73409133Y-55800000D02*
X73409133Y-55966666D01*
X73409133Y-55966666D02*
X73375800Y-56033333D01*
X73375800Y-56033333D02*
X73342466Y-56066666D01*
X72709133Y-55466666D02*
X73409133Y-55233333D01*
X73409133Y-55233333D02*
X72709133Y-54999999D01*
X16076666Y-97694966D02*
X16610000Y-97694966D01*
X16343333Y-97961633D02*
X16343333Y-97428300D01*
X17310000Y-97961633D02*
X16910000Y-97961633D01*
X17110000Y-97961633D02*
X17110000Y-97261633D01*
X17110000Y-97261633D02*
X17043333Y-97361633D01*
X17043333Y-97361633D02*
X16976667Y-97428300D01*
X16976667Y-97428300D02*
X16910000Y-97461633D01*
X17576667Y-97328300D02*
X17610000Y-97294966D01*
X17610000Y-97294966D02*
X17676667Y-97261633D01*
X17676667Y-97261633D02*
X17843334Y-97261633D01*
X17843334Y-97261633D02*
X17910000Y-97294966D01*
X17910000Y-97294966D02*
X17943334Y-97328300D01*
X17943334Y-97328300D02*
X17976667Y-97394966D01*
X17976667Y-97394966D02*
X17976667Y-97461633D01*
X17976667Y-97461633D02*
X17943334Y-97561633D01*
X17943334Y-97561633D02*
X17543334Y-97961633D01*
X17543334Y-97961633D02*
X17976667Y-97961633D01*
X18176667Y-97261633D02*
X18410001Y-97961633D01*
X18410001Y-97961633D02*
X18643334Y-97261633D01*
D12*
X-4149004Y-96326928D02*
X-3363290Y-96326928D01*
X-3363290Y-96326928D02*
X-4149004Y-97326928D01*
X-4149004Y-97326928D02*
X-3363290Y-97326928D01*
X-2149004Y-96326928D02*
X-2149004Y-97326928D01*
X-2791861Y-96326928D02*
X-2791861Y-97112642D01*
X-2791861Y-97112642D02*
X-2720432Y-97255500D01*
X-2720432Y-97255500D02*
X-2577575Y-97326928D01*
X-2577575Y-97326928D02*
X-2363289Y-97326928D01*
X-2363289Y-97326928D02*
X-2220432Y-97255500D01*
X-2220432Y-97255500D02*
X-2149004Y-97184071D01*
X-791861Y-97326928D02*
X-791861Y-95826928D01*
X-791861Y-97255500D02*
X-934718Y-97326928D01*
X-934718Y-97326928D02*
X-1220432Y-97326928D01*
X-1220432Y-97326928D02*
X-1363289Y-97255500D01*
X-1363289Y-97255500D02*
X-1434718Y-97184071D01*
X-1434718Y-97184071D02*
X-1506146Y-97041214D01*
X-1506146Y-97041214D02*
X-1506146Y-96612642D01*
X-1506146Y-96612642D02*
X-1434718Y-96469785D01*
X-1434718Y-96469785D02*
X-1363289Y-96398357D01*
X-1363289Y-96398357D02*
X-1220432Y-96326928D01*
X-1220432Y-96326928D02*
X-934718Y-96326928D01*
X-934718Y-96326928D02*
X-791861Y-96398357D01*
X136710Y-97326928D02*
X-6146Y-97255500D01*
X-6146Y-97255500D02*
X-77575Y-97184071D01*
X-77575Y-97184071D02*
X-149003Y-97041214D01*
X-149003Y-97041214D02*
X-149003Y-96612642D01*
X-149003Y-96612642D02*
X-77575Y-96469785D01*
X-77575Y-96469785D02*
X-6146Y-96398357D01*
X-6146Y-96398357D02*
X136710Y-96326928D01*
X136710Y-96326928D02*
X350996Y-96326928D01*
X350996Y-96326928D02*
X493853Y-96398357D01*
X493853Y-96398357D02*
X565282Y-96469785D01*
X565282Y-96469785D02*
X636710Y-96612642D01*
X636710Y-96612642D02*
X636710Y-97041214D01*
X636710Y-97041214D02*
X565282Y-97184071D01*
X565282Y-97184071D02*
X493853Y-97255500D01*
X493853Y-97255500D02*
X350996Y-97326928D01*
X350996Y-97326928D02*
X136710Y-97326928D01*
X1279567Y-96755500D02*
X2422425Y-96755500D01*
X3136710Y-97326928D02*
X3136710Y-95826928D01*
X3136710Y-95826928D02*
X3708139Y-95826928D01*
X3708139Y-95826928D02*
X3850996Y-95898357D01*
X3850996Y-95898357D02*
X3922425Y-95969785D01*
X3922425Y-95969785D02*
X3993853Y-96112642D01*
X3993853Y-96112642D02*
X3993853Y-96326928D01*
X3993853Y-96326928D02*
X3922425Y-96469785D01*
X3922425Y-96469785D02*
X3850996Y-96541214D01*
X3850996Y-96541214D02*
X3708139Y-96612642D01*
X3708139Y-96612642D02*
X3136710Y-96612642D01*
X4636710Y-97326928D02*
X4636710Y-95826928D01*
X4636710Y-95826928D02*
X4993853Y-95826928D01*
X4993853Y-95826928D02*
X5208139Y-95898357D01*
X5208139Y-95898357D02*
X5350996Y-96041214D01*
X5350996Y-96041214D02*
X5422425Y-96184071D01*
X5422425Y-96184071D02*
X5493853Y-96469785D01*
X5493853Y-96469785D02*
X5493853Y-96684071D01*
X5493853Y-96684071D02*
X5422425Y-96969785D01*
X5422425Y-96969785D02*
X5350996Y-97112642D01*
X5350996Y-97112642D02*
X5208139Y-97255500D01*
X5208139Y-97255500D02*
X4993853Y-97326928D01*
X4993853Y-97326928D02*
X4636710Y-97326928D01*
X7136710Y-96326928D02*
X7493853Y-97326928D01*
X7493853Y-97326928D02*
X7850996Y-96326928D01*
X9208139Y-97326928D02*
X8350996Y-97326928D01*
X8779567Y-97326928D02*
X8779567Y-95826928D01*
X8779567Y-95826928D02*
X8636710Y-96041214D01*
X8636710Y-96041214D02*
X8493853Y-96184071D01*
X8493853Y-96184071D02*
X8350996Y-96255500D01*
X9850995Y-97184071D02*
X9922424Y-97255500D01*
X9922424Y-97255500D02*
X9850995Y-97326928D01*
X9850995Y-97326928D02*
X9779567Y-97255500D01*
X9779567Y-97255500D02*
X9850995Y-97184071D01*
X9850995Y-97184071D02*
X9850995Y-97326928D01*
X10850996Y-95826928D02*
X10993853Y-95826928D01*
X10993853Y-95826928D02*
X11136710Y-95898357D01*
X11136710Y-95898357D02*
X11208139Y-95969785D01*
X11208139Y-95969785D02*
X11279567Y-96112642D01*
X11279567Y-96112642D02*
X11350996Y-96398357D01*
X11350996Y-96398357D02*
X11350996Y-96755500D01*
X11350996Y-96755500D02*
X11279567Y-97041214D01*
X11279567Y-97041214D02*
X11208139Y-97184071D01*
X11208139Y-97184071D02*
X11136710Y-97255500D01*
X11136710Y-97255500D02*
X10993853Y-97326928D01*
X10993853Y-97326928D02*
X10850996Y-97326928D01*
X10850996Y-97326928D02*
X10708139Y-97255500D01*
X10708139Y-97255500D02*
X10636710Y-97184071D01*
X10636710Y-97184071D02*
X10565281Y-97041214D01*
X10565281Y-97041214D02*
X10493853Y-96755500D01*
X10493853Y-96755500D02*
X10493853Y-96398357D01*
X10493853Y-96398357D02*
X10565281Y-96112642D01*
X10565281Y-96112642D02*
X10636710Y-95969785D01*
X10636710Y-95969785D02*
X10708139Y-95898357D01*
X10708139Y-95898357D02*
X10850996Y-95826928D01*
D11*
X979135Y-31376714D02*
X693421Y-31233857D01*
X693421Y-31233857D02*
X264849Y-31233857D01*
X264849Y-31233857D02*
X-163721Y-31376714D01*
X-163721Y-31376714D02*
X-449436Y-31662428D01*
X-449436Y-31662428D02*
X-592293Y-31948142D01*
X-592293Y-31948142D02*
X-735150Y-32519571D01*
X-735150Y-32519571D02*
X-735150Y-32948142D01*
X-735150Y-32948142D02*
X-592293Y-33519571D01*
X-592293Y-33519571D02*
X-449436Y-33805285D01*
X-449436Y-33805285D02*
X-163721Y-34091000D01*
X-163721Y-34091000D02*
X264849Y-34233857D01*
X264849Y-34233857D02*
X550563Y-34233857D01*
X550563Y-34233857D02*
X979135Y-34091000D01*
X979135Y-34091000D02*
X1121992Y-33948142D01*
X1121992Y-33948142D02*
X1121992Y-32948142D01*
X1121992Y-32948142D02*
X550563Y-32948142D01*
X2407706Y-34233857D02*
X2407706Y-31233857D01*
X2407706Y-31233857D02*
X4121992Y-34233857D01*
X4121992Y-34233857D02*
X4121992Y-31233857D01*
X5550563Y-34233857D02*
X5550563Y-31233857D01*
X5550563Y-31233857D02*
X6264849Y-31233857D01*
X6264849Y-31233857D02*
X6693420Y-31376714D01*
X6693420Y-31376714D02*
X6979135Y-31662428D01*
X6979135Y-31662428D02*
X7121992Y-31948142D01*
X7121992Y-31948142D02*
X7264849Y-32519571D01*
X7264849Y-32519571D02*
X7264849Y-32948142D01*
X7264849Y-32948142D02*
X7121992Y-33519571D01*
X7121992Y-33519571D02*
X6979135Y-33805285D01*
X6979135Y-33805285D02*
X6693420Y-34091000D01*
X6693420Y-34091000D02*
X6264849Y-34233857D01*
X6264849Y-34233857D02*
X5550563Y-34233857D01*
D10*
X63006667Y-1612466D02*
X62940000Y-1579133D01*
X62940000Y-1579133D02*
X62840000Y-1579133D01*
X62840000Y-1579133D02*
X62740000Y-1612466D01*
X62740000Y-1612466D02*
X62673334Y-1679133D01*
X62673334Y-1679133D02*
X62640000Y-1745800D01*
X62640000Y-1745800D02*
X62606667Y-1879133D01*
X62606667Y-1879133D02*
X62606667Y-1979133D01*
X62606667Y-1979133D02*
X62640000Y-2112466D01*
X62640000Y-2112466D02*
X62673334Y-2179133D01*
X62673334Y-2179133D02*
X62740000Y-2245800D01*
X62740000Y-2245800D02*
X62840000Y-2279133D01*
X62840000Y-2279133D02*
X62906667Y-2279133D01*
X62906667Y-2279133D02*
X63006667Y-2245800D01*
X63006667Y-2245800D02*
X63040000Y-2212466D01*
X63040000Y-2212466D02*
X63040000Y-1979133D01*
X63040000Y-1979133D02*
X62906667Y-1979133D01*
X63340000Y-2279133D02*
X63340000Y-1579133D01*
X63340000Y-1579133D02*
X63740000Y-2279133D01*
X63740000Y-2279133D02*
X63740000Y-1579133D01*
X64073333Y-2279133D02*
X64073333Y-1579133D01*
X64073333Y-1579133D02*
X64240000Y-1579133D01*
X64240000Y-1579133D02*
X64340000Y-1612466D01*
X64340000Y-1612466D02*
X64406667Y-1679133D01*
X64406667Y-1679133D02*
X64440000Y-1745800D01*
X64440000Y-1745800D02*
X64473333Y-1879133D01*
X64473333Y-1879133D02*
X64473333Y-1979133D01*
X64473333Y-1979133D02*
X64440000Y-2112466D01*
X64440000Y-2112466D02*
X64406667Y-2179133D01*
X64406667Y-2179133D02*
X64340000Y-2245800D01*
X64340000Y-2245800D02*
X64240000Y-2279133D01*
X64240000Y-2279133D02*
X64073333Y-2279133D01*
D11*
X-3792293Y-40611000D02*
X-1506579Y-40611000D01*
X-2649436Y-41753857D02*
X-2649436Y-39468142D01*
X1493421Y-41753857D02*
X-220864Y-41753857D01*
X636278Y-41753857D02*
X636278Y-38753857D01*
X636278Y-38753857D02*
X350564Y-39182428D01*
X350564Y-39182428D02*
X64849Y-39468142D01*
X64849Y-39468142D02*
X-220864Y-39611000D01*
X2636278Y-39039571D02*
X2779135Y-38896714D01*
X2779135Y-38896714D02*
X3064850Y-38753857D01*
X3064850Y-38753857D02*
X3779135Y-38753857D01*
X3779135Y-38753857D02*
X4064850Y-38896714D01*
X4064850Y-38896714D02*
X4207707Y-39039571D01*
X4207707Y-39039571D02*
X4350564Y-39325285D01*
X4350564Y-39325285D02*
X4350564Y-39611000D01*
X4350564Y-39611000D02*
X4207707Y-40039571D01*
X4207707Y-40039571D02*
X2493421Y-41753857D01*
X2493421Y-41753857D02*
X4350564Y-41753857D01*
X5207707Y-38753857D02*
X6207707Y-41753857D01*
X6207707Y-41753857D02*
X7207707Y-38753857D01*
D10*
X19659999Y-97694966D02*
X20193333Y-97694966D01*
X19926666Y-97961633D02*
X19926666Y-97428300D01*
X20860000Y-97261633D02*
X20526666Y-97261633D01*
X20526666Y-97261633D02*
X20493333Y-97594966D01*
X20493333Y-97594966D02*
X20526666Y-97561633D01*
X20526666Y-97561633D02*
X20593333Y-97528300D01*
X20593333Y-97528300D02*
X20760000Y-97528300D01*
X20760000Y-97528300D02*
X20826666Y-97561633D01*
X20826666Y-97561633D02*
X20860000Y-97594966D01*
X20860000Y-97594966D02*
X20893333Y-97661633D01*
X20893333Y-97661633D02*
X20893333Y-97828300D01*
X20893333Y-97828300D02*
X20860000Y-97894966D01*
X20860000Y-97894966D02*
X20826666Y-97928300D01*
X20826666Y-97928300D02*
X20760000Y-97961633D01*
X20760000Y-97961633D02*
X20593333Y-97961633D01*
X20593333Y-97961633D02*
X20526666Y-97928300D01*
X20526666Y-97928300D02*
X20493333Y-97894966D01*
X21093333Y-97261633D02*
X21326667Y-97961633D01*
X21326667Y-97961633D02*
X21560000Y-97261633D01*
X22326666Y-97694966D02*
X22860000Y-97694966D01*
X23560000Y-97961633D02*
X23160000Y-97961633D01*
X23360000Y-97961633D02*
X23360000Y-97261633D01*
X23360000Y-97261633D02*
X23293333Y-97361633D01*
X23293333Y-97361633D02*
X23226667Y-97428300D01*
X23226667Y-97428300D02*
X23160000Y-97461633D01*
X23826667Y-97328300D02*
X23860000Y-97294966D01*
X23860000Y-97294966D02*
X23926667Y-97261633D01*
X23926667Y-97261633D02*
X24093334Y-97261633D01*
X24093334Y-97261633D02*
X24160000Y-97294966D01*
X24160000Y-97294966D02*
X24193334Y-97328300D01*
X24193334Y-97328300D02*
X24226667Y-97394966D01*
X24226667Y-97394966D02*
X24226667Y-97461633D01*
X24226667Y-97461633D02*
X24193334Y-97561633D01*
X24193334Y-97561633D02*
X23793334Y-97961633D01*
X23793334Y-97961633D02*
X24226667Y-97961633D01*
X24426667Y-97261633D02*
X24660001Y-97961633D01*
X24660001Y-97961633D02*
X24893334Y-97261633D01*
X65934285Y-1952800D02*
X66391428Y-1952800D01*
X66162856Y-2181371D02*
X66162856Y-1724228D01*
X66991427Y-2181371D02*
X66648570Y-2181371D01*
X66819999Y-2181371D02*
X66819999Y-1581371D01*
X66819999Y-1581371D02*
X66762856Y-1667085D01*
X66762856Y-1667085D02*
X66705713Y-1724228D01*
X66705713Y-1724228D02*
X66648570Y-1752800D01*
X67191428Y-1581371D02*
X67562856Y-1581371D01*
X67562856Y-1581371D02*
X67362856Y-1809942D01*
X67362856Y-1809942D02*
X67448571Y-1809942D01*
X67448571Y-1809942D02*
X67505714Y-1838514D01*
X67505714Y-1838514D02*
X67534285Y-1867085D01*
X67534285Y-1867085D02*
X67562856Y-1924228D01*
X67562856Y-1924228D02*
X67562856Y-2067085D01*
X67562856Y-2067085D02*
X67534285Y-2124228D01*
X67534285Y-2124228D02*
X67505714Y-2152800D01*
X67505714Y-2152800D02*
X67448571Y-2181371D01*
X67448571Y-2181371D02*
X67277142Y-2181371D01*
X67277142Y-2181371D02*
X67219999Y-2152800D01*
X67219999Y-2152800D02*
X67191428Y-2124228D01*
X67820000Y-2124228D02*
X67848571Y-2152800D01*
X67848571Y-2152800D02*
X67820000Y-2181371D01*
X67820000Y-2181371D02*
X67791428Y-2152800D01*
X67791428Y-2152800D02*
X67820000Y-2124228D01*
X67820000Y-2124228D02*
X67820000Y-2181371D01*
X68391428Y-1581371D02*
X68105714Y-1581371D01*
X68105714Y-1581371D02*
X68077142Y-1867085D01*
X68077142Y-1867085D02*
X68105714Y-1838514D01*
X68105714Y-1838514D02*
X68162857Y-1809942D01*
X68162857Y-1809942D02*
X68305714Y-1809942D01*
X68305714Y-1809942D02*
X68362857Y-1838514D01*
X68362857Y-1838514D02*
X68391428Y-1867085D01*
X68391428Y-1867085D02*
X68419999Y-1924228D01*
X68419999Y-1924228D02*
X68419999Y-2067085D01*
X68419999Y-2067085D02*
X68391428Y-2124228D01*
X68391428Y-2124228D02*
X68362857Y-2152800D01*
X68362857Y-2152800D02*
X68305714Y-2181371D01*
X68305714Y-2181371D02*
X68162857Y-2181371D01*
X68162857Y-2181371D02*
X68105714Y-2152800D01*
X68105714Y-2152800D02*
X68077142Y-2124228D01*
X68591428Y-1581371D02*
X68791428Y-2181371D01*
X68791428Y-2181371D02*
X68991428Y-1581371D01*
D13*
X56368095Y-31624819D02*
X56368095Y-32434342D01*
X56368095Y-32434342D02*
X56415714Y-32529580D01*
X56415714Y-32529580D02*
X56463333Y-32577200D01*
X56463333Y-32577200D02*
X56558571Y-32624819D01*
X56558571Y-32624819D02*
X56749047Y-32624819D01*
X56749047Y-32624819D02*
X56844285Y-32577200D01*
X56844285Y-32577200D02*
X56891904Y-32529580D01*
X56891904Y-32529580D02*
X56939523Y-32434342D01*
X56939523Y-32434342D02*
X56939523Y-31624819D01*
X57368095Y-31720057D02*
X57415714Y-31672438D01*
X57415714Y-31672438D02*
X57510952Y-31624819D01*
X57510952Y-31624819D02*
X57749047Y-31624819D01*
X57749047Y-31624819D02*
X57844285Y-31672438D01*
X57844285Y-31672438D02*
X57891904Y-31720057D01*
X57891904Y-31720057D02*
X57939523Y-31815295D01*
X57939523Y-31815295D02*
X57939523Y-31910533D01*
X57939523Y-31910533D02*
X57891904Y-32053390D01*
X57891904Y-32053390D02*
X57320476Y-32624819D01*
X57320476Y-32624819D02*
X57939523Y-32624819D01*
X38643333Y-11649580D02*
X38595714Y-11697200D01*
X38595714Y-11697200D02*
X38452857Y-11744819D01*
X38452857Y-11744819D02*
X38357619Y-11744819D01*
X38357619Y-11744819D02*
X38214762Y-11697200D01*
X38214762Y-11697200D02*
X38119524Y-11601961D01*
X38119524Y-11601961D02*
X38071905Y-11506723D01*
X38071905Y-11506723D02*
X38024286Y-11316247D01*
X38024286Y-11316247D02*
X38024286Y-11173390D01*
X38024286Y-11173390D02*
X38071905Y-10982914D01*
X38071905Y-10982914D02*
X38119524Y-10887676D01*
X38119524Y-10887676D02*
X38214762Y-10792438D01*
X38214762Y-10792438D02*
X38357619Y-10744819D01*
X38357619Y-10744819D02*
X38452857Y-10744819D01*
X38452857Y-10744819D02*
X38595714Y-10792438D01*
X38595714Y-10792438D02*
X38643333Y-10840057D01*
X39595714Y-11744819D02*
X39024286Y-11744819D01*
X39310000Y-11744819D02*
X39310000Y-10744819D01*
X39310000Y-10744819D02*
X39214762Y-10887676D01*
X39214762Y-10887676D02*
X39119524Y-10982914D01*
X39119524Y-10982914D02*
X39024286Y-11030533D01*
X50973333Y-8119580D02*
X50925714Y-8167200D01*
X50925714Y-8167200D02*
X50782857Y-8214819D01*
X50782857Y-8214819D02*
X50687619Y-8214819D01*
X50687619Y-8214819D02*
X50544762Y-8167200D01*
X50544762Y-8167200D02*
X50449524Y-8071961D01*
X50449524Y-8071961D02*
X50401905Y-7976723D01*
X50401905Y-7976723D02*
X50354286Y-7786247D01*
X50354286Y-7786247D02*
X50354286Y-7643390D01*
X50354286Y-7643390D02*
X50401905Y-7452914D01*
X50401905Y-7452914D02*
X50449524Y-7357676D01*
X50449524Y-7357676D02*
X50544762Y-7262438D01*
X50544762Y-7262438D02*
X50687619Y-7214819D01*
X50687619Y-7214819D02*
X50782857Y-7214819D01*
X50782857Y-7214819D02*
X50925714Y-7262438D01*
X50925714Y-7262438D02*
X50973333Y-7310057D01*
X51354286Y-7310057D02*
X51401905Y-7262438D01*
X51401905Y-7262438D02*
X51497143Y-7214819D01*
X51497143Y-7214819D02*
X51735238Y-7214819D01*
X51735238Y-7214819D02*
X51830476Y-7262438D01*
X51830476Y-7262438D02*
X51878095Y-7310057D01*
X51878095Y-7310057D02*
X51925714Y-7405295D01*
X51925714Y-7405295D02*
X51925714Y-7500533D01*
X51925714Y-7500533D02*
X51878095Y-7643390D01*
X51878095Y-7643390D02*
X51306667Y-8214819D01*
X51306667Y-8214819D02*
X51925714Y-8214819D01*
X67053333Y-8859580D02*
X67005714Y-8907200D01*
X67005714Y-8907200D02*
X66862857Y-8954819D01*
X66862857Y-8954819D02*
X66767619Y-8954819D01*
X66767619Y-8954819D02*
X66624762Y-8907200D01*
X66624762Y-8907200D02*
X66529524Y-8811961D01*
X66529524Y-8811961D02*
X66481905Y-8716723D01*
X66481905Y-8716723D02*
X66434286Y-8526247D01*
X66434286Y-8526247D02*
X66434286Y-8383390D01*
X66434286Y-8383390D02*
X66481905Y-8192914D01*
X66481905Y-8192914D02*
X66529524Y-8097676D01*
X66529524Y-8097676D02*
X66624762Y-8002438D01*
X66624762Y-8002438D02*
X66767619Y-7954819D01*
X66767619Y-7954819D02*
X66862857Y-7954819D01*
X66862857Y-7954819D02*
X67005714Y-8002438D01*
X67005714Y-8002438D02*
X67053333Y-8050057D01*
X67386667Y-7954819D02*
X68005714Y-7954819D01*
X68005714Y-7954819D02*
X67672381Y-8335771D01*
X67672381Y-8335771D02*
X67815238Y-8335771D01*
X67815238Y-8335771D02*
X67910476Y-8383390D01*
X67910476Y-8383390D02*
X67958095Y-8431009D01*
X67958095Y-8431009D02*
X68005714Y-8526247D01*
X68005714Y-8526247D02*
X68005714Y-8764342D01*
X68005714Y-8764342D02*
X67958095Y-8859580D01*
X67958095Y-8859580D02*
X67910476Y-8907200D01*
X67910476Y-8907200D02*
X67815238Y-8954819D01*
X67815238Y-8954819D02*
X67529524Y-8954819D01*
X67529524Y-8954819D02*
X67434286Y-8907200D01*
X67434286Y-8907200D02*
X67386667Y-8859580D01*
X64419580Y-53719166D02*
X64467200Y-53766785D01*
X64467200Y-53766785D02*
X64514819Y-53909642D01*
X64514819Y-53909642D02*
X64514819Y-54004880D01*
X64514819Y-54004880D02*
X64467200Y-54147737D01*
X64467200Y-54147737D02*
X64371961Y-54242975D01*
X64371961Y-54242975D02*
X64276723Y-54290594D01*
X64276723Y-54290594D02*
X64086247Y-54338213D01*
X64086247Y-54338213D02*
X63943390Y-54338213D01*
X63943390Y-54338213D02*
X63752914Y-54290594D01*
X63752914Y-54290594D02*
X63657676Y-54242975D01*
X63657676Y-54242975D02*
X63562438Y-54147737D01*
X63562438Y-54147737D02*
X63514819Y-54004880D01*
X63514819Y-54004880D02*
X63514819Y-53909642D01*
X63514819Y-53909642D02*
X63562438Y-53766785D01*
X63562438Y-53766785D02*
X63610057Y-53719166D01*
X63848152Y-52862023D02*
X64514819Y-52862023D01*
X63467200Y-53100118D02*
X64181485Y-53338213D01*
X64181485Y-53338213D02*
X64181485Y-52719166D01*
X55143333Y-10499580D02*
X55095714Y-10547200D01*
X55095714Y-10547200D02*
X54952857Y-10594819D01*
X54952857Y-10594819D02*
X54857619Y-10594819D01*
X54857619Y-10594819D02*
X54714762Y-10547200D01*
X54714762Y-10547200D02*
X54619524Y-10451961D01*
X54619524Y-10451961D02*
X54571905Y-10356723D01*
X54571905Y-10356723D02*
X54524286Y-10166247D01*
X54524286Y-10166247D02*
X54524286Y-10023390D01*
X54524286Y-10023390D02*
X54571905Y-9832914D01*
X54571905Y-9832914D02*
X54619524Y-9737676D01*
X54619524Y-9737676D02*
X54714762Y-9642438D01*
X54714762Y-9642438D02*
X54857619Y-9594819D01*
X54857619Y-9594819D02*
X54952857Y-9594819D01*
X54952857Y-9594819D02*
X55095714Y-9642438D01*
X55095714Y-9642438D02*
X55143333Y-9690057D01*
X56048095Y-9594819D02*
X55571905Y-9594819D01*
X55571905Y-9594819D02*
X55524286Y-10071009D01*
X55524286Y-10071009D02*
X55571905Y-10023390D01*
X55571905Y-10023390D02*
X55667143Y-9975771D01*
X55667143Y-9975771D02*
X55905238Y-9975771D01*
X55905238Y-9975771D02*
X56000476Y-10023390D01*
X56000476Y-10023390D02*
X56048095Y-10071009D01*
X56048095Y-10071009D02*
X56095714Y-10166247D01*
X56095714Y-10166247D02*
X56095714Y-10404342D01*
X56095714Y-10404342D02*
X56048095Y-10499580D01*
X56048095Y-10499580D02*
X56000476Y-10547200D01*
X56000476Y-10547200D02*
X55905238Y-10594819D01*
X55905238Y-10594819D02*
X55667143Y-10594819D01*
X55667143Y-10594819D02*
X55571905Y-10547200D01*
X55571905Y-10547200D02*
X55524286Y-10499580D01*
X38109580Y-20166666D02*
X38157200Y-20214285D01*
X38157200Y-20214285D02*
X38204819Y-20357142D01*
X38204819Y-20357142D02*
X38204819Y-20452380D01*
X38204819Y-20452380D02*
X38157200Y-20595237D01*
X38157200Y-20595237D02*
X38061961Y-20690475D01*
X38061961Y-20690475D02*
X37966723Y-20738094D01*
X37966723Y-20738094D02*
X37776247Y-20785713D01*
X37776247Y-20785713D02*
X37633390Y-20785713D01*
X37633390Y-20785713D02*
X37442914Y-20738094D01*
X37442914Y-20738094D02*
X37347676Y-20690475D01*
X37347676Y-20690475D02*
X37252438Y-20595237D01*
X37252438Y-20595237D02*
X37204819Y-20452380D01*
X37204819Y-20452380D02*
X37204819Y-20357142D01*
X37204819Y-20357142D02*
X37252438Y-20214285D01*
X37252438Y-20214285D02*
X37300057Y-20166666D01*
X37204819Y-19309523D02*
X37204819Y-19499999D01*
X37204819Y-19499999D02*
X37252438Y-19595237D01*
X37252438Y-19595237D02*
X37300057Y-19642856D01*
X37300057Y-19642856D02*
X37442914Y-19738094D01*
X37442914Y-19738094D02*
X37633390Y-19785713D01*
X37633390Y-19785713D02*
X38014342Y-19785713D01*
X38014342Y-19785713D02*
X38109580Y-19738094D01*
X38109580Y-19738094D02*
X38157200Y-19690475D01*
X38157200Y-19690475D02*
X38204819Y-19595237D01*
X38204819Y-19595237D02*
X38204819Y-19404761D01*
X38204819Y-19404761D02*
X38157200Y-19309523D01*
X38157200Y-19309523D02*
X38109580Y-19261904D01*
X38109580Y-19261904D02*
X38014342Y-19214285D01*
X38014342Y-19214285D02*
X37776247Y-19214285D01*
X37776247Y-19214285D02*
X37681009Y-19261904D01*
X37681009Y-19261904D02*
X37633390Y-19309523D01*
X37633390Y-19309523D02*
X37585771Y-19404761D01*
X37585771Y-19404761D02*
X37585771Y-19595237D01*
X37585771Y-19595237D02*
X37633390Y-19690475D01*
X37633390Y-19690475D02*
X37681009Y-19738094D01*
X37681009Y-19738094D02*
X37776247Y-19785713D01*
X38859580Y-34166666D02*
X38907200Y-34214285D01*
X38907200Y-34214285D02*
X38954819Y-34357142D01*
X38954819Y-34357142D02*
X38954819Y-34452380D01*
X38954819Y-34452380D02*
X38907200Y-34595237D01*
X38907200Y-34595237D02*
X38811961Y-34690475D01*
X38811961Y-34690475D02*
X38716723Y-34738094D01*
X38716723Y-34738094D02*
X38526247Y-34785713D01*
X38526247Y-34785713D02*
X38383390Y-34785713D01*
X38383390Y-34785713D02*
X38192914Y-34738094D01*
X38192914Y-34738094D02*
X38097676Y-34690475D01*
X38097676Y-34690475D02*
X38002438Y-34595237D01*
X38002438Y-34595237D02*
X37954819Y-34452380D01*
X37954819Y-34452380D02*
X37954819Y-34357142D01*
X37954819Y-34357142D02*
X38002438Y-34214285D01*
X38002438Y-34214285D02*
X38050057Y-34166666D01*
X37954819Y-33833332D02*
X37954819Y-33166666D01*
X37954819Y-33166666D02*
X38954819Y-33595237D01*
X46333333Y-41359580D02*
X46285714Y-41407200D01*
X46285714Y-41407200D02*
X46142857Y-41454819D01*
X46142857Y-41454819D02*
X46047619Y-41454819D01*
X46047619Y-41454819D02*
X45904762Y-41407200D01*
X45904762Y-41407200D02*
X45809524Y-41311961D01*
X45809524Y-41311961D02*
X45761905Y-41216723D01*
X45761905Y-41216723D02*
X45714286Y-41026247D01*
X45714286Y-41026247D02*
X45714286Y-40883390D01*
X45714286Y-40883390D02*
X45761905Y-40692914D01*
X45761905Y-40692914D02*
X45809524Y-40597676D01*
X45809524Y-40597676D02*
X45904762Y-40502438D01*
X45904762Y-40502438D02*
X46047619Y-40454819D01*
X46047619Y-40454819D02*
X46142857Y-40454819D01*
X46142857Y-40454819D02*
X46285714Y-40502438D01*
X46285714Y-40502438D02*
X46333333Y-40550057D01*
X46904762Y-40883390D02*
X46809524Y-40835771D01*
X46809524Y-40835771D02*
X46761905Y-40788152D01*
X46761905Y-40788152D02*
X46714286Y-40692914D01*
X46714286Y-40692914D02*
X46714286Y-40645295D01*
X46714286Y-40645295D02*
X46761905Y-40550057D01*
X46761905Y-40550057D02*
X46809524Y-40502438D01*
X46809524Y-40502438D02*
X46904762Y-40454819D01*
X46904762Y-40454819D02*
X47095238Y-40454819D01*
X47095238Y-40454819D02*
X47190476Y-40502438D01*
X47190476Y-40502438D02*
X47238095Y-40550057D01*
X47238095Y-40550057D02*
X47285714Y-40645295D01*
X47285714Y-40645295D02*
X47285714Y-40692914D01*
X47285714Y-40692914D02*
X47238095Y-40788152D01*
X47238095Y-40788152D02*
X47190476Y-40835771D01*
X47190476Y-40835771D02*
X47095238Y-40883390D01*
X47095238Y-40883390D02*
X46904762Y-40883390D01*
X46904762Y-40883390D02*
X46809524Y-40931009D01*
X46809524Y-40931009D02*
X46761905Y-40978628D01*
X46761905Y-40978628D02*
X46714286Y-41073866D01*
X46714286Y-41073866D02*
X46714286Y-41264342D01*
X46714286Y-41264342D02*
X46761905Y-41359580D01*
X46761905Y-41359580D02*
X46809524Y-41407200D01*
X46809524Y-41407200D02*
X46904762Y-41454819D01*
X46904762Y-41454819D02*
X47095238Y-41454819D01*
X47095238Y-41454819D02*
X47190476Y-41407200D01*
X47190476Y-41407200D02*
X47238095Y-41359580D01*
X47238095Y-41359580D02*
X47285714Y-41264342D01*
X47285714Y-41264342D02*
X47285714Y-41073866D01*
X47285714Y-41073866D02*
X47238095Y-40978628D01*
X47238095Y-40978628D02*
X47190476Y-40931009D01*
X47190476Y-40931009D02*
X47095238Y-40883390D01*
X63917142Y-85162080D02*
X63869523Y-85209700D01*
X63869523Y-85209700D02*
X63726666Y-85257319D01*
X63726666Y-85257319D02*
X63631428Y-85257319D01*
X63631428Y-85257319D02*
X63488571Y-85209700D01*
X63488571Y-85209700D02*
X63393333Y-85114461D01*
X63393333Y-85114461D02*
X63345714Y-85019223D01*
X63345714Y-85019223D02*
X63298095Y-84828747D01*
X63298095Y-84828747D02*
X63298095Y-84685890D01*
X63298095Y-84685890D02*
X63345714Y-84495414D01*
X63345714Y-84495414D02*
X63393333Y-84400176D01*
X63393333Y-84400176D02*
X63488571Y-84304938D01*
X63488571Y-84304938D02*
X63631428Y-84257319D01*
X63631428Y-84257319D02*
X63726666Y-84257319D01*
X63726666Y-84257319D02*
X63869523Y-84304938D01*
X63869523Y-84304938D02*
X63917142Y-84352557D01*
X64869523Y-85257319D02*
X64298095Y-85257319D01*
X64583809Y-85257319D02*
X64583809Y-84257319D01*
X64583809Y-84257319D02*
X64488571Y-84400176D01*
X64488571Y-84400176D02*
X64393333Y-84495414D01*
X64393333Y-84495414D02*
X64298095Y-84543033D01*
X65821904Y-85257319D02*
X65250476Y-85257319D01*
X65536190Y-85257319D02*
X65536190Y-84257319D01*
X65536190Y-84257319D02*
X65440952Y-84400176D01*
X65440952Y-84400176D02*
X65345714Y-84495414D01*
X65345714Y-84495414D02*
X65250476Y-84543033D01*
X24107142Y-66109580D02*
X24059523Y-66157200D01*
X24059523Y-66157200D02*
X23916666Y-66204819D01*
X23916666Y-66204819D02*
X23821428Y-66204819D01*
X23821428Y-66204819D02*
X23678571Y-66157200D01*
X23678571Y-66157200D02*
X23583333Y-66061961D01*
X23583333Y-66061961D02*
X23535714Y-65966723D01*
X23535714Y-65966723D02*
X23488095Y-65776247D01*
X23488095Y-65776247D02*
X23488095Y-65633390D01*
X23488095Y-65633390D02*
X23535714Y-65442914D01*
X23535714Y-65442914D02*
X23583333Y-65347676D01*
X23583333Y-65347676D02*
X23678571Y-65252438D01*
X23678571Y-65252438D02*
X23821428Y-65204819D01*
X23821428Y-65204819D02*
X23916666Y-65204819D01*
X23916666Y-65204819D02*
X24059523Y-65252438D01*
X24059523Y-65252438D02*
X24107142Y-65300057D01*
X25059523Y-66204819D02*
X24488095Y-66204819D01*
X24773809Y-66204819D02*
X24773809Y-65204819D01*
X24773809Y-65204819D02*
X24678571Y-65347676D01*
X24678571Y-65347676D02*
X24583333Y-65442914D01*
X24583333Y-65442914D02*
X24488095Y-65490533D01*
X25916666Y-65538152D02*
X25916666Y-66204819D01*
X25678571Y-65157200D02*
X25440476Y-65871485D01*
X25440476Y-65871485D02*
X26059523Y-65871485D01*
X37109580Y-91792857D02*
X37157200Y-91840476D01*
X37157200Y-91840476D02*
X37204819Y-91983333D01*
X37204819Y-91983333D02*
X37204819Y-92078571D01*
X37204819Y-92078571D02*
X37157200Y-92221428D01*
X37157200Y-92221428D02*
X37061961Y-92316666D01*
X37061961Y-92316666D02*
X36966723Y-92364285D01*
X36966723Y-92364285D02*
X36776247Y-92411904D01*
X36776247Y-92411904D02*
X36633390Y-92411904D01*
X36633390Y-92411904D02*
X36442914Y-92364285D01*
X36442914Y-92364285D02*
X36347676Y-92316666D01*
X36347676Y-92316666D02*
X36252438Y-92221428D01*
X36252438Y-92221428D02*
X36204819Y-92078571D01*
X36204819Y-92078571D02*
X36204819Y-91983333D01*
X36204819Y-91983333D02*
X36252438Y-91840476D01*
X36252438Y-91840476D02*
X36300057Y-91792857D01*
X37204819Y-90840476D02*
X37204819Y-91411904D01*
X37204819Y-91126190D02*
X36204819Y-91126190D01*
X36204819Y-91126190D02*
X36347676Y-91221428D01*
X36347676Y-91221428D02*
X36442914Y-91316666D01*
X36442914Y-91316666D02*
X36490533Y-91411904D01*
X36204819Y-89935714D02*
X36204819Y-90411904D01*
X36204819Y-90411904D02*
X36681009Y-90459523D01*
X36681009Y-90459523D02*
X36633390Y-90411904D01*
X36633390Y-90411904D02*
X36585771Y-90316666D01*
X36585771Y-90316666D02*
X36585771Y-90078571D01*
X36585771Y-90078571D02*
X36633390Y-89983333D01*
X36633390Y-89983333D02*
X36681009Y-89935714D01*
X36681009Y-89935714D02*
X36776247Y-89888095D01*
X36776247Y-89888095D02*
X37014342Y-89888095D01*
X37014342Y-89888095D02*
X37109580Y-89935714D01*
X37109580Y-89935714D02*
X37157200Y-89983333D01*
X37157200Y-89983333D02*
X37204819Y-90078571D01*
X37204819Y-90078571D02*
X37204819Y-90316666D01*
X37204819Y-90316666D02*
X37157200Y-90411904D01*
X37157200Y-90411904D02*
X37109580Y-90459523D01*
X35779580Y-42502857D02*
X35827200Y-42550476D01*
X35827200Y-42550476D02*
X35874819Y-42693333D01*
X35874819Y-42693333D02*
X35874819Y-42788571D01*
X35874819Y-42788571D02*
X35827200Y-42931428D01*
X35827200Y-42931428D02*
X35731961Y-43026666D01*
X35731961Y-43026666D02*
X35636723Y-43074285D01*
X35636723Y-43074285D02*
X35446247Y-43121904D01*
X35446247Y-43121904D02*
X35303390Y-43121904D01*
X35303390Y-43121904D02*
X35112914Y-43074285D01*
X35112914Y-43074285D02*
X35017676Y-43026666D01*
X35017676Y-43026666D02*
X34922438Y-42931428D01*
X34922438Y-42931428D02*
X34874819Y-42788571D01*
X34874819Y-42788571D02*
X34874819Y-42693333D01*
X34874819Y-42693333D02*
X34922438Y-42550476D01*
X34922438Y-42550476D02*
X34970057Y-42502857D01*
X35874819Y-41550476D02*
X35874819Y-42121904D01*
X35874819Y-41836190D02*
X34874819Y-41836190D01*
X34874819Y-41836190D02*
X35017676Y-41931428D01*
X35017676Y-41931428D02*
X35112914Y-42026666D01*
X35112914Y-42026666D02*
X35160533Y-42121904D01*
X34874819Y-41217142D02*
X34874819Y-40550476D01*
X34874819Y-40550476D02*
X35874819Y-40979047D01*
X38319580Y-77145357D02*
X38367200Y-77192976D01*
X38367200Y-77192976D02*
X38414819Y-77335833D01*
X38414819Y-77335833D02*
X38414819Y-77431071D01*
X38414819Y-77431071D02*
X38367200Y-77573928D01*
X38367200Y-77573928D02*
X38271961Y-77669166D01*
X38271961Y-77669166D02*
X38176723Y-77716785D01*
X38176723Y-77716785D02*
X37986247Y-77764404D01*
X37986247Y-77764404D02*
X37843390Y-77764404D01*
X37843390Y-77764404D02*
X37652914Y-77716785D01*
X37652914Y-77716785D02*
X37557676Y-77669166D01*
X37557676Y-77669166D02*
X37462438Y-77573928D01*
X37462438Y-77573928D02*
X37414819Y-77431071D01*
X37414819Y-77431071D02*
X37414819Y-77335833D01*
X37414819Y-77335833D02*
X37462438Y-77192976D01*
X37462438Y-77192976D02*
X37510057Y-77145357D01*
X38414819Y-76192976D02*
X38414819Y-76764404D01*
X38414819Y-76478690D02*
X37414819Y-76478690D01*
X37414819Y-76478690D02*
X37557676Y-76573928D01*
X37557676Y-76573928D02*
X37652914Y-76669166D01*
X37652914Y-76669166D02*
X37700533Y-76764404D01*
X37843390Y-75621547D02*
X37795771Y-75716785D01*
X37795771Y-75716785D02*
X37748152Y-75764404D01*
X37748152Y-75764404D02*
X37652914Y-75812023D01*
X37652914Y-75812023D02*
X37605295Y-75812023D01*
X37605295Y-75812023D02*
X37510057Y-75764404D01*
X37510057Y-75764404D02*
X37462438Y-75716785D01*
X37462438Y-75716785D02*
X37414819Y-75621547D01*
X37414819Y-75621547D02*
X37414819Y-75431071D01*
X37414819Y-75431071D02*
X37462438Y-75335833D01*
X37462438Y-75335833D02*
X37510057Y-75288214D01*
X37510057Y-75288214D02*
X37605295Y-75240595D01*
X37605295Y-75240595D02*
X37652914Y-75240595D01*
X37652914Y-75240595D02*
X37748152Y-75288214D01*
X37748152Y-75288214D02*
X37795771Y-75335833D01*
X37795771Y-75335833D02*
X37843390Y-75431071D01*
X37843390Y-75431071D02*
X37843390Y-75621547D01*
X37843390Y-75621547D02*
X37891009Y-75716785D01*
X37891009Y-75716785D02*
X37938628Y-75764404D01*
X37938628Y-75764404D02*
X38033866Y-75812023D01*
X38033866Y-75812023D02*
X38224342Y-75812023D01*
X38224342Y-75812023D02*
X38319580Y-75764404D01*
X38319580Y-75764404D02*
X38367200Y-75716785D01*
X38367200Y-75716785D02*
X38414819Y-75621547D01*
X38414819Y-75621547D02*
X38414819Y-75431071D01*
X38414819Y-75431071D02*
X38367200Y-75335833D01*
X38367200Y-75335833D02*
X38319580Y-75288214D01*
X38319580Y-75288214D02*
X38224342Y-75240595D01*
X38224342Y-75240595D02*
X38033866Y-75240595D01*
X38033866Y-75240595D02*
X37938628Y-75288214D01*
X37938628Y-75288214D02*
X37891009Y-75335833D01*
X37891009Y-75335833D02*
X37843390Y-75431071D01*
X36409580Y-60045357D02*
X36457200Y-60092976D01*
X36457200Y-60092976D02*
X36504819Y-60235833D01*
X36504819Y-60235833D02*
X36504819Y-60331071D01*
X36504819Y-60331071D02*
X36457200Y-60473928D01*
X36457200Y-60473928D02*
X36361961Y-60569166D01*
X36361961Y-60569166D02*
X36266723Y-60616785D01*
X36266723Y-60616785D02*
X36076247Y-60664404D01*
X36076247Y-60664404D02*
X35933390Y-60664404D01*
X35933390Y-60664404D02*
X35742914Y-60616785D01*
X35742914Y-60616785D02*
X35647676Y-60569166D01*
X35647676Y-60569166D02*
X35552438Y-60473928D01*
X35552438Y-60473928D02*
X35504819Y-60331071D01*
X35504819Y-60331071D02*
X35504819Y-60235833D01*
X35504819Y-60235833D02*
X35552438Y-60092976D01*
X35552438Y-60092976D02*
X35600057Y-60045357D01*
X35600057Y-59664404D02*
X35552438Y-59616785D01*
X35552438Y-59616785D02*
X35504819Y-59521547D01*
X35504819Y-59521547D02*
X35504819Y-59283452D01*
X35504819Y-59283452D02*
X35552438Y-59188214D01*
X35552438Y-59188214D02*
X35600057Y-59140595D01*
X35600057Y-59140595D02*
X35695295Y-59092976D01*
X35695295Y-59092976D02*
X35790533Y-59092976D01*
X35790533Y-59092976D02*
X35933390Y-59140595D01*
X35933390Y-59140595D02*
X36504819Y-59712023D01*
X36504819Y-59712023D02*
X36504819Y-59092976D01*
X35504819Y-58473928D02*
X35504819Y-58378690D01*
X35504819Y-58378690D02*
X35552438Y-58283452D01*
X35552438Y-58283452D02*
X35600057Y-58235833D01*
X35600057Y-58235833D02*
X35695295Y-58188214D01*
X35695295Y-58188214D02*
X35885771Y-58140595D01*
X35885771Y-58140595D02*
X36123866Y-58140595D01*
X36123866Y-58140595D02*
X36314342Y-58188214D01*
X36314342Y-58188214D02*
X36409580Y-58235833D01*
X36409580Y-58235833D02*
X36457200Y-58283452D01*
X36457200Y-58283452D02*
X36504819Y-58378690D01*
X36504819Y-58378690D02*
X36504819Y-58473928D01*
X36504819Y-58473928D02*
X36457200Y-58569166D01*
X36457200Y-58569166D02*
X36409580Y-58616785D01*
X36409580Y-58616785D02*
X36314342Y-58664404D01*
X36314342Y-58664404D02*
X36123866Y-58712023D01*
X36123866Y-58712023D02*
X35885771Y-58712023D01*
X35885771Y-58712023D02*
X35695295Y-58664404D01*
X35695295Y-58664404D02*
X35600057Y-58616785D01*
X35600057Y-58616785D02*
X35552438Y-58569166D01*
X35552438Y-58569166D02*
X35504819Y-58473928D01*
X23957142Y-29359580D02*
X23909523Y-29407200D01*
X23909523Y-29407200D02*
X23766666Y-29454819D01*
X23766666Y-29454819D02*
X23671428Y-29454819D01*
X23671428Y-29454819D02*
X23528571Y-29407200D01*
X23528571Y-29407200D02*
X23433333Y-29311961D01*
X23433333Y-29311961D02*
X23385714Y-29216723D01*
X23385714Y-29216723D02*
X23338095Y-29026247D01*
X23338095Y-29026247D02*
X23338095Y-28883390D01*
X23338095Y-28883390D02*
X23385714Y-28692914D01*
X23385714Y-28692914D02*
X23433333Y-28597676D01*
X23433333Y-28597676D02*
X23528571Y-28502438D01*
X23528571Y-28502438D02*
X23671428Y-28454819D01*
X23671428Y-28454819D02*
X23766666Y-28454819D01*
X23766666Y-28454819D02*
X23909523Y-28502438D01*
X23909523Y-28502438D02*
X23957142Y-28550057D01*
X24338095Y-28550057D02*
X24385714Y-28502438D01*
X24385714Y-28502438D02*
X24480952Y-28454819D01*
X24480952Y-28454819D02*
X24719047Y-28454819D01*
X24719047Y-28454819D02*
X24814285Y-28502438D01*
X24814285Y-28502438D02*
X24861904Y-28550057D01*
X24861904Y-28550057D02*
X24909523Y-28645295D01*
X24909523Y-28645295D02*
X24909523Y-28740533D01*
X24909523Y-28740533D02*
X24861904Y-28883390D01*
X24861904Y-28883390D02*
X24290476Y-29454819D01*
X24290476Y-29454819D02*
X24909523Y-29454819D01*
X25861904Y-29454819D02*
X25290476Y-29454819D01*
X25576190Y-29454819D02*
X25576190Y-28454819D01*
X25576190Y-28454819D02*
X25480952Y-28597676D01*
X25480952Y-28597676D02*
X25385714Y-28692914D01*
X25385714Y-28692914D02*
X25290476Y-28740533D01*
X26359580Y-90142857D02*
X26407200Y-90190476D01*
X26407200Y-90190476D02*
X26454819Y-90333333D01*
X26454819Y-90333333D02*
X26454819Y-90428571D01*
X26454819Y-90428571D02*
X26407200Y-90571428D01*
X26407200Y-90571428D02*
X26311961Y-90666666D01*
X26311961Y-90666666D02*
X26216723Y-90714285D01*
X26216723Y-90714285D02*
X26026247Y-90761904D01*
X26026247Y-90761904D02*
X25883390Y-90761904D01*
X25883390Y-90761904D02*
X25692914Y-90714285D01*
X25692914Y-90714285D02*
X25597676Y-90666666D01*
X25597676Y-90666666D02*
X25502438Y-90571428D01*
X25502438Y-90571428D02*
X25454819Y-90428571D01*
X25454819Y-90428571D02*
X25454819Y-90333333D01*
X25454819Y-90333333D02*
X25502438Y-90190476D01*
X25502438Y-90190476D02*
X25550057Y-90142857D01*
X25550057Y-89761904D02*
X25502438Y-89714285D01*
X25502438Y-89714285D02*
X25454819Y-89619047D01*
X25454819Y-89619047D02*
X25454819Y-89380952D01*
X25454819Y-89380952D02*
X25502438Y-89285714D01*
X25502438Y-89285714D02*
X25550057Y-89238095D01*
X25550057Y-89238095D02*
X25645295Y-89190476D01*
X25645295Y-89190476D02*
X25740533Y-89190476D01*
X25740533Y-89190476D02*
X25883390Y-89238095D01*
X25883390Y-89238095D02*
X26454819Y-89809523D01*
X26454819Y-89809523D02*
X26454819Y-89190476D01*
X25550057Y-88809523D02*
X25502438Y-88761904D01*
X25502438Y-88761904D02*
X25454819Y-88666666D01*
X25454819Y-88666666D02*
X25454819Y-88428571D01*
X25454819Y-88428571D02*
X25502438Y-88333333D01*
X25502438Y-88333333D02*
X25550057Y-88285714D01*
X25550057Y-88285714D02*
X25645295Y-88238095D01*
X25645295Y-88238095D02*
X25740533Y-88238095D01*
X25740533Y-88238095D02*
X25883390Y-88285714D01*
X25883390Y-88285714D02*
X26454819Y-88857142D01*
X26454819Y-88857142D02*
X26454819Y-88238095D01*
X29817142Y-69162080D02*
X29769523Y-69209700D01*
X29769523Y-69209700D02*
X29626666Y-69257319D01*
X29626666Y-69257319D02*
X29531428Y-69257319D01*
X29531428Y-69257319D02*
X29388571Y-69209700D01*
X29388571Y-69209700D02*
X29293333Y-69114461D01*
X29293333Y-69114461D02*
X29245714Y-69019223D01*
X29245714Y-69019223D02*
X29198095Y-68828747D01*
X29198095Y-68828747D02*
X29198095Y-68685890D01*
X29198095Y-68685890D02*
X29245714Y-68495414D01*
X29245714Y-68495414D02*
X29293333Y-68400176D01*
X29293333Y-68400176D02*
X29388571Y-68304938D01*
X29388571Y-68304938D02*
X29531428Y-68257319D01*
X29531428Y-68257319D02*
X29626666Y-68257319D01*
X29626666Y-68257319D02*
X29769523Y-68304938D01*
X29769523Y-68304938D02*
X29817142Y-68352557D01*
X30198095Y-68352557D02*
X30245714Y-68304938D01*
X30245714Y-68304938D02*
X30340952Y-68257319D01*
X30340952Y-68257319D02*
X30579047Y-68257319D01*
X30579047Y-68257319D02*
X30674285Y-68304938D01*
X30674285Y-68304938D02*
X30721904Y-68352557D01*
X30721904Y-68352557D02*
X30769523Y-68447795D01*
X30769523Y-68447795D02*
X30769523Y-68543033D01*
X30769523Y-68543033D02*
X30721904Y-68685890D01*
X30721904Y-68685890D02*
X30150476Y-69257319D01*
X30150476Y-69257319D02*
X30769523Y-69257319D01*
X31102857Y-68257319D02*
X31721904Y-68257319D01*
X31721904Y-68257319D02*
X31388571Y-68638271D01*
X31388571Y-68638271D02*
X31531428Y-68638271D01*
X31531428Y-68638271D02*
X31626666Y-68685890D01*
X31626666Y-68685890D02*
X31674285Y-68733509D01*
X31674285Y-68733509D02*
X31721904Y-68828747D01*
X31721904Y-68828747D02*
X31721904Y-69066842D01*
X31721904Y-69066842D02*
X31674285Y-69162080D01*
X31674285Y-69162080D02*
X31626666Y-69209700D01*
X31626666Y-69209700D02*
X31531428Y-69257319D01*
X31531428Y-69257319D02*
X31245714Y-69257319D01*
X31245714Y-69257319D02*
X31150476Y-69209700D01*
X31150476Y-69209700D02*
X31102857Y-69162080D01*
D14*
X48378571Y-10577190D02*
X48354762Y-10601000D01*
X48354762Y-10601000D02*
X48283333Y-10624809D01*
X48283333Y-10624809D02*
X48235714Y-10624809D01*
X48235714Y-10624809D02*
X48164286Y-10601000D01*
X48164286Y-10601000D02*
X48116667Y-10553380D01*
X48116667Y-10553380D02*
X48092857Y-10505761D01*
X48092857Y-10505761D02*
X48069048Y-10410523D01*
X48069048Y-10410523D02*
X48069048Y-10339095D01*
X48069048Y-10339095D02*
X48092857Y-10243857D01*
X48092857Y-10243857D02*
X48116667Y-10196238D01*
X48116667Y-10196238D02*
X48164286Y-10148619D01*
X48164286Y-10148619D02*
X48235714Y-10124809D01*
X48235714Y-10124809D02*
X48283333Y-10124809D01*
X48283333Y-10124809D02*
X48354762Y-10148619D01*
X48354762Y-10148619D02*
X48378571Y-10172428D01*
X48545238Y-10124809D02*
X48854762Y-10124809D01*
X48854762Y-10124809D02*
X48688095Y-10315285D01*
X48688095Y-10315285D02*
X48759524Y-10315285D01*
X48759524Y-10315285D02*
X48807143Y-10339095D01*
X48807143Y-10339095D02*
X48830952Y-10362904D01*
X48830952Y-10362904D02*
X48854762Y-10410523D01*
X48854762Y-10410523D02*
X48854762Y-10529571D01*
X48854762Y-10529571D02*
X48830952Y-10577190D01*
X48830952Y-10577190D02*
X48807143Y-10601000D01*
X48807143Y-10601000D02*
X48759524Y-10624809D01*
X48759524Y-10624809D02*
X48616667Y-10624809D01*
X48616667Y-10624809D02*
X48569048Y-10601000D01*
X48569048Y-10601000D02*
X48545238Y-10577190D01*
X49164285Y-10124809D02*
X49211904Y-10124809D01*
X49211904Y-10124809D02*
X49259523Y-10148619D01*
X49259523Y-10148619D02*
X49283333Y-10172428D01*
X49283333Y-10172428D02*
X49307142Y-10220047D01*
X49307142Y-10220047D02*
X49330952Y-10315285D01*
X49330952Y-10315285D02*
X49330952Y-10434333D01*
X49330952Y-10434333D02*
X49307142Y-10529571D01*
X49307142Y-10529571D02*
X49283333Y-10577190D01*
X49283333Y-10577190D02*
X49259523Y-10601000D01*
X49259523Y-10601000D02*
X49211904Y-10624809D01*
X49211904Y-10624809D02*
X49164285Y-10624809D01*
X49164285Y-10624809D02*
X49116666Y-10601000D01*
X49116666Y-10601000D02*
X49092857Y-10577190D01*
X49092857Y-10577190D02*
X49069047Y-10529571D01*
X49069047Y-10529571D02*
X49045238Y-10434333D01*
X49045238Y-10434333D02*
X49045238Y-10315285D01*
X49045238Y-10315285D02*
X49069047Y-10220047D01*
X49069047Y-10220047D02*
X49092857Y-10172428D01*
X49092857Y-10172428D02*
X49116666Y-10148619D01*
X49116666Y-10148619D02*
X49164285Y-10124809D01*
D13*
X40517142Y-70959580D02*
X40469523Y-71007200D01*
X40469523Y-71007200D02*
X40326666Y-71054819D01*
X40326666Y-71054819D02*
X40231428Y-71054819D01*
X40231428Y-71054819D02*
X40088571Y-71007200D01*
X40088571Y-71007200D02*
X39993333Y-70911961D01*
X39993333Y-70911961D02*
X39945714Y-70816723D01*
X39945714Y-70816723D02*
X39898095Y-70626247D01*
X39898095Y-70626247D02*
X39898095Y-70483390D01*
X39898095Y-70483390D02*
X39945714Y-70292914D01*
X39945714Y-70292914D02*
X39993333Y-70197676D01*
X39993333Y-70197676D02*
X40088571Y-70102438D01*
X40088571Y-70102438D02*
X40231428Y-70054819D01*
X40231428Y-70054819D02*
X40326666Y-70054819D01*
X40326666Y-70054819D02*
X40469523Y-70102438D01*
X40469523Y-70102438D02*
X40517142Y-70150057D01*
X40850476Y-70054819D02*
X41469523Y-70054819D01*
X41469523Y-70054819D02*
X41136190Y-70435771D01*
X41136190Y-70435771D02*
X41279047Y-70435771D01*
X41279047Y-70435771D02*
X41374285Y-70483390D01*
X41374285Y-70483390D02*
X41421904Y-70531009D01*
X41421904Y-70531009D02*
X41469523Y-70626247D01*
X41469523Y-70626247D02*
X41469523Y-70864342D01*
X41469523Y-70864342D02*
X41421904Y-70959580D01*
X41421904Y-70959580D02*
X41374285Y-71007200D01*
X41374285Y-71007200D02*
X41279047Y-71054819D01*
X41279047Y-71054819D02*
X40993333Y-71054819D01*
X40993333Y-71054819D02*
X40898095Y-71007200D01*
X40898095Y-71007200D02*
X40850476Y-70959580D01*
X41802857Y-70054819D02*
X42421904Y-70054819D01*
X42421904Y-70054819D02*
X42088571Y-70435771D01*
X42088571Y-70435771D02*
X42231428Y-70435771D01*
X42231428Y-70435771D02*
X42326666Y-70483390D01*
X42326666Y-70483390D02*
X42374285Y-70531009D01*
X42374285Y-70531009D02*
X42421904Y-70626247D01*
X42421904Y-70626247D02*
X42421904Y-70864342D01*
X42421904Y-70864342D02*
X42374285Y-70959580D01*
X42374285Y-70959580D02*
X42326666Y-71007200D01*
X42326666Y-71007200D02*
X42231428Y-71054819D01*
X42231428Y-71054819D02*
X41945714Y-71054819D01*
X41945714Y-71054819D02*
X41850476Y-71007200D01*
X41850476Y-71007200D02*
X41802857Y-70959580D01*
X50814285Y-14112628D02*
X50785713Y-14141200D01*
X50785713Y-14141200D02*
X50699999Y-14169771D01*
X50699999Y-14169771D02*
X50642856Y-14169771D01*
X50642856Y-14169771D02*
X50557142Y-14141200D01*
X50557142Y-14141200D02*
X50499999Y-14084057D01*
X50499999Y-14084057D02*
X50471428Y-14026914D01*
X50471428Y-14026914D02*
X50442856Y-13912628D01*
X50442856Y-13912628D02*
X50442856Y-13826914D01*
X50442856Y-13826914D02*
X50471428Y-13712628D01*
X50471428Y-13712628D02*
X50499999Y-13655485D01*
X50499999Y-13655485D02*
X50557142Y-13598342D01*
X50557142Y-13598342D02*
X50642856Y-13569771D01*
X50642856Y-13569771D02*
X50699999Y-13569771D01*
X50699999Y-13569771D02*
X50785713Y-13598342D01*
X50785713Y-13598342D02*
X50814285Y-13626914D01*
X51014285Y-13569771D02*
X51385713Y-13569771D01*
X51385713Y-13569771D02*
X51185713Y-13798342D01*
X51185713Y-13798342D02*
X51271428Y-13798342D01*
X51271428Y-13798342D02*
X51328571Y-13826914D01*
X51328571Y-13826914D02*
X51357142Y-13855485D01*
X51357142Y-13855485D02*
X51385713Y-13912628D01*
X51385713Y-13912628D02*
X51385713Y-14055485D01*
X51385713Y-14055485D02*
X51357142Y-14112628D01*
X51357142Y-14112628D02*
X51328571Y-14141200D01*
X51328571Y-14141200D02*
X51271428Y-14169771D01*
X51271428Y-14169771D02*
X51099999Y-14169771D01*
X51099999Y-14169771D02*
X51042856Y-14141200D01*
X51042856Y-14141200D02*
X51014285Y-14112628D01*
X51900000Y-13769771D02*
X51900000Y-14169771D01*
X51757142Y-13541200D02*
X51614285Y-13969771D01*
X51614285Y-13969771D02*
X51985714Y-13969771D01*
X51212628Y-15785714D02*
X51241200Y-15814286D01*
X51241200Y-15814286D02*
X51269771Y-15900000D01*
X51269771Y-15900000D02*
X51269771Y-15957143D01*
X51269771Y-15957143D02*
X51241200Y-16042857D01*
X51241200Y-16042857D02*
X51184057Y-16100000D01*
X51184057Y-16100000D02*
X51126914Y-16128571D01*
X51126914Y-16128571D02*
X51012628Y-16157143D01*
X51012628Y-16157143D02*
X50926914Y-16157143D01*
X50926914Y-16157143D02*
X50812628Y-16128571D01*
X50812628Y-16128571D02*
X50755485Y-16100000D01*
X50755485Y-16100000D02*
X50698342Y-16042857D01*
X50698342Y-16042857D02*
X50669771Y-15957143D01*
X50669771Y-15957143D02*
X50669771Y-15900000D01*
X50669771Y-15900000D02*
X50698342Y-15814286D01*
X50698342Y-15814286D02*
X50726914Y-15785714D01*
X50669771Y-15585714D02*
X50669771Y-15214286D01*
X50669771Y-15214286D02*
X50898342Y-15414286D01*
X50898342Y-15414286D02*
X50898342Y-15328571D01*
X50898342Y-15328571D02*
X50926914Y-15271429D01*
X50926914Y-15271429D02*
X50955485Y-15242857D01*
X50955485Y-15242857D02*
X51012628Y-15214286D01*
X51012628Y-15214286D02*
X51155485Y-15214286D01*
X51155485Y-15214286D02*
X51212628Y-15242857D01*
X51212628Y-15242857D02*
X51241200Y-15271429D01*
X51241200Y-15271429D02*
X51269771Y-15328571D01*
X51269771Y-15328571D02*
X51269771Y-15500000D01*
X51269771Y-15500000D02*
X51241200Y-15557143D01*
X51241200Y-15557143D02*
X51212628Y-15585714D01*
X50669771Y-14671428D02*
X50669771Y-14957142D01*
X50669771Y-14957142D02*
X50955485Y-14985714D01*
X50955485Y-14985714D02*
X50926914Y-14957142D01*
X50926914Y-14957142D02*
X50898342Y-14900000D01*
X50898342Y-14900000D02*
X50898342Y-14757142D01*
X50898342Y-14757142D02*
X50926914Y-14700000D01*
X50926914Y-14700000D02*
X50955485Y-14671428D01*
X50955485Y-14671428D02*
X51012628Y-14642857D01*
X51012628Y-14642857D02*
X51155485Y-14642857D01*
X51155485Y-14642857D02*
X51212628Y-14671428D01*
X51212628Y-14671428D02*
X51241200Y-14700000D01*
X51241200Y-14700000D02*
X51269771Y-14757142D01*
X51269771Y-14757142D02*
X51269771Y-14900000D01*
X51269771Y-14900000D02*
X51241200Y-14957142D01*
X51241200Y-14957142D02*
X51212628Y-14985714D01*
X75514819Y-34740594D02*
X74514819Y-34740594D01*
X74514819Y-34740594D02*
X74514819Y-34502499D01*
X74514819Y-34502499D02*
X74562438Y-34359642D01*
X74562438Y-34359642D02*
X74657676Y-34264404D01*
X74657676Y-34264404D02*
X74752914Y-34216785D01*
X74752914Y-34216785D02*
X74943390Y-34169166D01*
X74943390Y-34169166D02*
X75086247Y-34169166D01*
X75086247Y-34169166D02*
X75276723Y-34216785D01*
X75276723Y-34216785D02*
X75371961Y-34264404D01*
X75371961Y-34264404D02*
X75467200Y-34359642D01*
X75467200Y-34359642D02*
X75514819Y-34502499D01*
X75514819Y-34502499D02*
X75514819Y-34740594D01*
X75514819Y-33216785D02*
X75514819Y-33788213D01*
X75514819Y-33502499D02*
X74514819Y-33502499D01*
X74514819Y-33502499D02*
X74657676Y-33597737D01*
X74657676Y-33597737D02*
X74752914Y-33692975D01*
X74752914Y-33692975D02*
X74800533Y-33788213D01*
D10*
X59407143Y-33722371D02*
X59407143Y-33122371D01*
X59407143Y-33122371D02*
X59550000Y-33122371D01*
X59550000Y-33122371D02*
X59635714Y-33150942D01*
X59635714Y-33150942D02*
X59692857Y-33208085D01*
X59692857Y-33208085D02*
X59721428Y-33265228D01*
X59721428Y-33265228D02*
X59750000Y-33379514D01*
X59750000Y-33379514D02*
X59750000Y-33465228D01*
X59750000Y-33465228D02*
X59721428Y-33579514D01*
X59721428Y-33579514D02*
X59692857Y-33636657D01*
X59692857Y-33636657D02*
X59635714Y-33693800D01*
X59635714Y-33693800D02*
X59550000Y-33722371D01*
X59550000Y-33722371D02*
X59407143Y-33722371D01*
X59978571Y-33179514D02*
X60007143Y-33150942D01*
X60007143Y-33150942D02*
X60064286Y-33122371D01*
X60064286Y-33122371D02*
X60207143Y-33122371D01*
X60207143Y-33122371D02*
X60264286Y-33150942D01*
X60264286Y-33150942D02*
X60292857Y-33179514D01*
X60292857Y-33179514D02*
X60321428Y-33236657D01*
X60321428Y-33236657D02*
X60321428Y-33293800D01*
X60321428Y-33293800D02*
X60292857Y-33379514D01*
X60292857Y-33379514D02*
X59950000Y-33722371D01*
X59950000Y-33722371D02*
X60321428Y-33722371D01*
D13*
X41271905Y-6424819D02*
X41271905Y-5424819D01*
X41271905Y-5424819D02*
X41510000Y-5424819D01*
X41510000Y-5424819D02*
X41652857Y-5472438D01*
X41652857Y-5472438D02*
X41748095Y-5567676D01*
X41748095Y-5567676D02*
X41795714Y-5662914D01*
X41795714Y-5662914D02*
X41843333Y-5853390D01*
X41843333Y-5853390D02*
X41843333Y-5996247D01*
X41843333Y-5996247D02*
X41795714Y-6186723D01*
X41795714Y-6186723D02*
X41748095Y-6281961D01*
X41748095Y-6281961D02*
X41652857Y-6377200D01*
X41652857Y-6377200D02*
X41510000Y-6424819D01*
X41510000Y-6424819D02*
X41271905Y-6424819D01*
X42700476Y-5758152D02*
X42700476Y-6424819D01*
X42462381Y-5377200D02*
X42224286Y-6091485D01*
X42224286Y-6091485D02*
X42843333Y-6091485D01*
X50726666Y-1954819D02*
X50726666Y-2669104D01*
X50726666Y-2669104D02*
X50679047Y-2811961D01*
X50679047Y-2811961D02*
X50583809Y-2907200D01*
X50583809Y-2907200D02*
X50440952Y-2954819D01*
X50440952Y-2954819D02*
X50345714Y-2954819D01*
X51726666Y-2954819D02*
X51155238Y-2954819D01*
X51440952Y-2954819D02*
X51440952Y-1954819D01*
X51440952Y-1954819D02*
X51345714Y-2097676D01*
X51345714Y-2097676D02*
X51250476Y-2192914D01*
X51250476Y-2192914D02*
X51155238Y-2240533D01*
X12104819Y-31193333D02*
X12819104Y-31193333D01*
X12819104Y-31193333D02*
X12961961Y-31240952D01*
X12961961Y-31240952D02*
X13057200Y-31336190D01*
X13057200Y-31336190D02*
X13104819Y-31479047D01*
X13104819Y-31479047D02*
X13104819Y-31574285D01*
X13104819Y-30669523D02*
X13104819Y-30479047D01*
X13104819Y-30479047D02*
X13057200Y-30383809D01*
X13057200Y-30383809D02*
X13009580Y-30336190D01*
X13009580Y-30336190D02*
X12866723Y-30240952D01*
X12866723Y-30240952D02*
X12676247Y-30193333D01*
X12676247Y-30193333D02*
X12295295Y-30193333D01*
X12295295Y-30193333D02*
X12200057Y-30240952D01*
X12200057Y-30240952D02*
X12152438Y-30288571D01*
X12152438Y-30288571D02*
X12104819Y-30383809D01*
X12104819Y-30383809D02*
X12104819Y-30574285D01*
X12104819Y-30574285D02*
X12152438Y-30669523D01*
X12152438Y-30669523D02*
X12200057Y-30717142D01*
X12200057Y-30717142D02*
X12295295Y-30764761D01*
X12295295Y-30764761D02*
X12533390Y-30764761D01*
X12533390Y-30764761D02*
X12628628Y-30717142D01*
X12628628Y-30717142D02*
X12676247Y-30669523D01*
X12676247Y-30669523D02*
X12723866Y-30574285D01*
X12723866Y-30574285D02*
X12723866Y-30383809D01*
X12723866Y-30383809D02*
X12676247Y-30288571D01*
X12676247Y-30288571D02*
X12628628Y-30240952D01*
X12628628Y-30240952D02*
X12533390Y-30193333D01*
X834819Y-62299523D02*
X1549104Y-62299523D01*
X1549104Y-62299523D02*
X1691961Y-62347142D01*
X1691961Y-62347142D02*
X1787200Y-62442380D01*
X1787200Y-62442380D02*
X1834819Y-62585237D01*
X1834819Y-62585237D02*
X1834819Y-62680475D01*
X1834819Y-61299523D02*
X1834819Y-61870951D01*
X1834819Y-61585237D02*
X834819Y-61585237D01*
X834819Y-61585237D02*
X977676Y-61680475D01*
X977676Y-61680475D02*
X1072914Y-61775713D01*
X1072914Y-61775713D02*
X1120533Y-61870951D01*
X834819Y-60680475D02*
X834819Y-60585237D01*
X834819Y-60585237D02*
X882438Y-60489999D01*
X882438Y-60489999D02*
X930057Y-60442380D01*
X930057Y-60442380D02*
X1025295Y-60394761D01*
X1025295Y-60394761D02*
X1215771Y-60347142D01*
X1215771Y-60347142D02*
X1453866Y-60347142D01*
X1453866Y-60347142D02*
X1644342Y-60394761D01*
X1644342Y-60394761D02*
X1739580Y-60442380D01*
X1739580Y-60442380D02*
X1787200Y-60489999D01*
X1787200Y-60489999D02*
X1834819Y-60585237D01*
X1834819Y-60585237D02*
X1834819Y-60680475D01*
X1834819Y-60680475D02*
X1787200Y-60775713D01*
X1787200Y-60775713D02*
X1739580Y-60823332D01*
X1739580Y-60823332D02*
X1644342Y-60870951D01*
X1644342Y-60870951D02*
X1453866Y-60918570D01*
X1453866Y-60918570D02*
X1215771Y-60918570D01*
X1215771Y-60918570D02*
X1025295Y-60870951D01*
X1025295Y-60870951D02*
X930057Y-60823332D01*
X930057Y-60823332D02*
X882438Y-60775713D01*
X882438Y-60775713D02*
X834819Y-60680475D01*
D10*
X9553295Y-75931979D02*
X8981866Y-77455789D01*
X8981866Y-77455789D02*
X8410438Y-75931979D01*
X9553295Y-74531979D02*
X8981866Y-76055789D01*
X8981866Y-76055789D02*
X8410438Y-74531979D01*
X9553295Y-75006979D02*
X8981866Y-76530789D01*
X8981866Y-76530789D02*
X8410438Y-75006979D01*
X1953295Y-75381979D02*
X1381866Y-76905789D01*
X1381866Y-76905789D02*
X810438Y-75381979D01*
X1953295Y-74431979D02*
X1381866Y-75955789D01*
X1381866Y-75955789D02*
X810438Y-74431979D01*
X9553295Y-75481979D02*
X8981866Y-77005789D01*
X8981866Y-77005789D02*
X8410438Y-75481979D01*
X1953295Y-75831979D02*
X1381866Y-77355789D01*
X1381866Y-77355789D02*
X810438Y-75831979D01*
X1953295Y-74906979D02*
X1381866Y-76430789D01*
X1381866Y-76430789D02*
X810438Y-74906979D01*
D15*
X1283733Y-65618572D02*
X1283733Y-66380477D01*
X902780Y-67380476D02*
X902780Y-66809048D01*
X902780Y-67094762D02*
X1902780Y-67094762D01*
X1902780Y-67094762D02*
X1759923Y-66999524D01*
X1759923Y-66999524D02*
X1664685Y-66904286D01*
X1664685Y-66904286D02*
X1617066Y-66809048D01*
X1807542Y-67761429D02*
X1855161Y-67809048D01*
X1855161Y-67809048D02*
X1902780Y-67904286D01*
X1902780Y-67904286D02*
X1902780Y-68142381D01*
X1902780Y-68142381D02*
X1855161Y-68237619D01*
X1855161Y-68237619D02*
X1807542Y-68285238D01*
X1807542Y-68285238D02*
X1712304Y-68332857D01*
X1712304Y-68332857D02*
X1617066Y-68332857D01*
X1617066Y-68332857D02*
X1474209Y-68285238D01*
X1474209Y-68285238D02*
X902780Y-67713810D01*
X902780Y-67713810D02*
X902780Y-68332857D01*
X1902780Y-68618572D02*
X902780Y-68951905D01*
X902780Y-68951905D02*
X1902780Y-69285238D01*
X902780Y-70951905D02*
X1378971Y-70618572D01*
X902780Y-70380477D02*
X1902780Y-70380477D01*
X1902780Y-70380477D02*
X1902780Y-70761429D01*
X1902780Y-70761429D02*
X1855161Y-70856667D01*
X1855161Y-70856667D02*
X1807542Y-70904286D01*
X1807542Y-70904286D02*
X1712304Y-70951905D01*
X1712304Y-70951905D02*
X1569447Y-70951905D01*
X1569447Y-70951905D02*
X1474209Y-70904286D01*
X1474209Y-70904286D02*
X1426590Y-70856667D01*
X1426590Y-70856667D02*
X1378971Y-70761429D01*
X1378971Y-70761429D02*
X1378971Y-70380477D01*
X1426590Y-71380477D02*
X1426590Y-71713810D01*
X902780Y-71856667D02*
X902780Y-71380477D01*
X902780Y-71380477D02*
X1902780Y-71380477D01*
X1902780Y-71380477D02*
X1902780Y-71856667D01*
X902780Y-72285239D02*
X1902780Y-72285239D01*
X1902780Y-72285239D02*
X1902780Y-72523334D01*
X1902780Y-72523334D02*
X1855161Y-72666191D01*
X1855161Y-72666191D02*
X1759923Y-72761429D01*
X1759923Y-72761429D02*
X1664685Y-72809048D01*
X1664685Y-72809048D02*
X1474209Y-72856667D01*
X1474209Y-72856667D02*
X1331352Y-72856667D01*
X1331352Y-72856667D02*
X1140876Y-72809048D01*
X1140876Y-72809048D02*
X1045638Y-72761429D01*
X1045638Y-72761429D02*
X950400Y-72666191D01*
X950400Y-72666191D02*
X902780Y-72523334D01*
X902780Y-72523334D02*
X902780Y-72285239D01*
X998019Y-73285239D02*
X950400Y-73332858D01*
X950400Y-73332858D02*
X902780Y-73285239D01*
X902780Y-73285239D02*
X950400Y-73237620D01*
X950400Y-73237620D02*
X998019Y-73285239D01*
X998019Y-73285239D02*
X902780Y-73285239D01*
X1283733Y-73285239D02*
X1855161Y-73237620D01*
X1855161Y-73237620D02*
X1902780Y-73285239D01*
X1902780Y-73285239D02*
X1855161Y-73332858D01*
X1855161Y-73332858D02*
X1283733Y-73285239D01*
X1283733Y-73285239D02*
X1902780Y-73285239D01*
X998019Y-73761429D02*
X950400Y-73809048D01*
X950400Y-73809048D02*
X902780Y-73761429D01*
X902780Y-73761429D02*
X950400Y-73713810D01*
X950400Y-73713810D02*
X998019Y-73761429D01*
X998019Y-73761429D02*
X902780Y-73761429D01*
X1283733Y-73761429D02*
X1855161Y-73713810D01*
X1855161Y-73713810D02*
X1902780Y-73761429D01*
X1902780Y-73761429D02*
X1855161Y-73809048D01*
X1855161Y-73809048D02*
X1283733Y-73761429D01*
X1283733Y-73761429D02*
X1902780Y-73761429D01*
X8883733Y-65718572D02*
X8883733Y-66480477D01*
X8502780Y-67480476D02*
X8502780Y-66909048D01*
X8502780Y-67194762D02*
X9502780Y-67194762D01*
X9502780Y-67194762D02*
X9359923Y-67099524D01*
X9359923Y-67099524D02*
X9264685Y-67004286D01*
X9264685Y-67004286D02*
X9217066Y-66909048D01*
X9407542Y-67861429D02*
X9455161Y-67909048D01*
X9455161Y-67909048D02*
X9502780Y-68004286D01*
X9502780Y-68004286D02*
X9502780Y-68242381D01*
X9502780Y-68242381D02*
X9455161Y-68337619D01*
X9455161Y-68337619D02*
X9407542Y-68385238D01*
X9407542Y-68385238D02*
X9312304Y-68432857D01*
X9312304Y-68432857D02*
X9217066Y-68432857D01*
X9217066Y-68432857D02*
X9074209Y-68385238D01*
X9074209Y-68385238D02*
X8502780Y-67813810D01*
X8502780Y-67813810D02*
X8502780Y-68432857D01*
X9502780Y-68718572D02*
X8502780Y-69051905D01*
X8502780Y-69051905D02*
X9502780Y-69385238D01*
X8502780Y-71051905D02*
X8978971Y-70718572D01*
X8502780Y-70480477D02*
X9502780Y-70480477D01*
X9502780Y-70480477D02*
X9502780Y-70861429D01*
X9502780Y-70861429D02*
X9455161Y-70956667D01*
X9455161Y-70956667D02*
X9407542Y-71004286D01*
X9407542Y-71004286D02*
X9312304Y-71051905D01*
X9312304Y-71051905D02*
X9169447Y-71051905D01*
X9169447Y-71051905D02*
X9074209Y-71004286D01*
X9074209Y-71004286D02*
X9026590Y-70956667D01*
X9026590Y-70956667D02*
X8978971Y-70861429D01*
X8978971Y-70861429D02*
X8978971Y-70480477D01*
X9026590Y-71480477D02*
X9026590Y-71813810D01*
X8502780Y-71956667D02*
X8502780Y-71480477D01*
X8502780Y-71480477D02*
X9502780Y-71480477D01*
X9502780Y-71480477D02*
X9502780Y-71956667D01*
X8502780Y-72385239D02*
X9502780Y-72385239D01*
X9502780Y-72385239D02*
X9502780Y-72623334D01*
X9502780Y-72623334D02*
X9455161Y-72766191D01*
X9455161Y-72766191D02*
X9359923Y-72861429D01*
X9359923Y-72861429D02*
X9264685Y-72909048D01*
X9264685Y-72909048D02*
X9074209Y-72956667D01*
X9074209Y-72956667D02*
X8931352Y-72956667D01*
X8931352Y-72956667D02*
X8740876Y-72909048D01*
X8740876Y-72909048D02*
X8645638Y-72861429D01*
X8645638Y-72861429D02*
X8550400Y-72766191D01*
X8550400Y-72766191D02*
X8502780Y-72623334D01*
X8502780Y-72623334D02*
X8502780Y-72385239D01*
X8598019Y-73385239D02*
X8550400Y-73432858D01*
X8550400Y-73432858D02*
X8502780Y-73385239D01*
X8502780Y-73385239D02*
X8550400Y-73337620D01*
X8550400Y-73337620D02*
X8598019Y-73385239D01*
X8598019Y-73385239D02*
X8502780Y-73385239D01*
X8883733Y-73385239D02*
X9455161Y-73337620D01*
X9455161Y-73337620D02*
X9502780Y-73385239D01*
X9502780Y-73385239D02*
X9455161Y-73432858D01*
X9455161Y-73432858D02*
X8883733Y-73385239D01*
X8883733Y-73385239D02*
X9502780Y-73385239D01*
X8598019Y-73861429D02*
X8550400Y-73909048D01*
X8550400Y-73909048D02*
X8502780Y-73861429D01*
X8502780Y-73861429D02*
X8550400Y-73813810D01*
X8550400Y-73813810D02*
X8598019Y-73861429D01*
X8598019Y-73861429D02*
X8502780Y-73861429D01*
X8883733Y-73861429D02*
X9455161Y-73813810D01*
X9455161Y-73813810D02*
X9502780Y-73861429D01*
X9502780Y-73861429D02*
X9455161Y-73909048D01*
X9455161Y-73909048D02*
X8883733Y-73861429D01*
X8883733Y-73861429D02*
X9502780Y-73861429D01*
D13*
X30140476Y-6809819D02*
X30140476Y-7524104D01*
X30140476Y-7524104D02*
X30092857Y-7666961D01*
X30092857Y-7666961D02*
X29997619Y-7762200D01*
X29997619Y-7762200D02*
X29854762Y-7809819D01*
X29854762Y-7809819D02*
X29759524Y-7809819D01*
X31140476Y-7809819D02*
X30569048Y-7809819D01*
X30854762Y-7809819D02*
X30854762Y-6809819D01*
X30854762Y-6809819D02*
X30759524Y-6952676D01*
X30759524Y-6952676D02*
X30664286Y-7047914D01*
X30664286Y-7047914D02*
X30569048Y-7095533D01*
X32092857Y-7809819D02*
X31521429Y-7809819D01*
X31807143Y-7809819D02*
X31807143Y-6809819D01*
X31807143Y-6809819D02*
X31711905Y-6952676D01*
X31711905Y-6952676D02*
X31616667Y-7047914D01*
X31616667Y-7047914D02*
X31521429Y-7095533D01*
D10*
X16608020Y-7928295D02*
X15084211Y-7356866D01*
X15084211Y-7356866D02*
X16608020Y-6785438D01*
X17533020Y-7928295D02*
X16009211Y-7356866D01*
X16009211Y-7356866D02*
X17533020Y-6785438D01*
X16958020Y-15528295D02*
X15434211Y-14956866D01*
X15434211Y-14956866D02*
X16958020Y-14385438D01*
D15*
X26721427Y-14858733D02*
X25959523Y-14858733D01*
X24959523Y-14477780D02*
X25530951Y-14477780D01*
X25245237Y-14477780D02*
X25245237Y-15477780D01*
X25245237Y-15477780D02*
X25340475Y-15334923D01*
X25340475Y-15334923D02*
X25435713Y-15239685D01*
X25435713Y-15239685D02*
X25530951Y-15192066D01*
X24578570Y-15382542D02*
X24530951Y-15430161D01*
X24530951Y-15430161D02*
X24435713Y-15477780D01*
X24435713Y-15477780D02*
X24197618Y-15477780D01*
X24197618Y-15477780D02*
X24102380Y-15430161D01*
X24102380Y-15430161D02*
X24054761Y-15382542D01*
X24054761Y-15382542D02*
X24007142Y-15287304D01*
X24007142Y-15287304D02*
X24007142Y-15192066D01*
X24007142Y-15192066D02*
X24054761Y-15049209D01*
X24054761Y-15049209D02*
X24626189Y-14477780D01*
X24626189Y-14477780D02*
X24007142Y-14477780D01*
X23721427Y-15477780D02*
X23388094Y-14477780D01*
X23388094Y-14477780D02*
X23054761Y-15477780D01*
X21388094Y-14477780D02*
X21721427Y-14953971D01*
X21959522Y-14477780D02*
X21959522Y-15477780D01*
X21959522Y-15477780D02*
X21578570Y-15477780D01*
X21578570Y-15477780D02*
X21483332Y-15430161D01*
X21483332Y-15430161D02*
X21435713Y-15382542D01*
X21435713Y-15382542D02*
X21388094Y-15287304D01*
X21388094Y-15287304D02*
X21388094Y-15144447D01*
X21388094Y-15144447D02*
X21435713Y-15049209D01*
X21435713Y-15049209D02*
X21483332Y-15001590D01*
X21483332Y-15001590D02*
X21578570Y-14953971D01*
X21578570Y-14953971D02*
X21959522Y-14953971D01*
X20959522Y-15001590D02*
X20626189Y-15001590D01*
X20483332Y-14477780D02*
X20959522Y-14477780D01*
X20959522Y-14477780D02*
X20959522Y-15477780D01*
X20959522Y-15477780D02*
X20483332Y-15477780D01*
X20054760Y-14477780D02*
X20054760Y-15477780D01*
X20054760Y-15477780D02*
X19816665Y-15477780D01*
X19816665Y-15477780D02*
X19673808Y-15430161D01*
X19673808Y-15430161D02*
X19578570Y-15334923D01*
X19578570Y-15334923D02*
X19530951Y-15239685D01*
X19530951Y-15239685D02*
X19483332Y-15049209D01*
X19483332Y-15049209D02*
X19483332Y-14906352D01*
X19483332Y-14906352D02*
X19530951Y-14715876D01*
X19530951Y-14715876D02*
X19578570Y-14620638D01*
X19578570Y-14620638D02*
X19673808Y-14525400D01*
X19673808Y-14525400D02*
X19816665Y-14477780D01*
X19816665Y-14477780D02*
X20054760Y-14477780D01*
X19054760Y-14573019D02*
X19007141Y-14525400D01*
X19007141Y-14525400D02*
X19054760Y-14477780D01*
X19054760Y-14477780D02*
X19102379Y-14525400D01*
X19102379Y-14525400D02*
X19054760Y-14573019D01*
X19054760Y-14573019D02*
X19054760Y-14477780D01*
X19054760Y-14858733D02*
X19102379Y-15430161D01*
X19102379Y-15430161D02*
X19054760Y-15477780D01*
X19054760Y-15477780D02*
X19007141Y-15430161D01*
X19007141Y-15430161D02*
X19054760Y-14858733D01*
X19054760Y-14858733D02*
X19054760Y-15477780D01*
X18578570Y-14573019D02*
X18530951Y-14525400D01*
X18530951Y-14525400D02*
X18578570Y-14477780D01*
X18578570Y-14477780D02*
X18626189Y-14525400D01*
X18626189Y-14525400D02*
X18578570Y-14573019D01*
X18578570Y-14573019D02*
X18578570Y-14477780D01*
X18578570Y-14858733D02*
X18626189Y-15430161D01*
X18626189Y-15430161D02*
X18578570Y-15477780D01*
X18578570Y-15477780D02*
X18530951Y-15430161D01*
X18530951Y-15430161D02*
X18578570Y-14858733D01*
X18578570Y-14858733D02*
X18578570Y-15477780D01*
D10*
X18008020Y-7928295D02*
X16484211Y-7356866D01*
X16484211Y-7356866D02*
X18008020Y-6785438D01*
X17908020Y-15528295D02*
X16384211Y-14956866D01*
X16384211Y-14956866D02*
X17908020Y-14385438D01*
D15*
X26821427Y-7258733D02*
X26059523Y-7258733D01*
X25059523Y-6877780D02*
X25630951Y-6877780D01*
X25345237Y-6877780D02*
X25345237Y-7877780D01*
X25345237Y-7877780D02*
X25440475Y-7734923D01*
X25440475Y-7734923D02*
X25535713Y-7639685D01*
X25535713Y-7639685D02*
X25630951Y-7592066D01*
X24678570Y-7782542D02*
X24630951Y-7830161D01*
X24630951Y-7830161D02*
X24535713Y-7877780D01*
X24535713Y-7877780D02*
X24297618Y-7877780D01*
X24297618Y-7877780D02*
X24202380Y-7830161D01*
X24202380Y-7830161D02*
X24154761Y-7782542D01*
X24154761Y-7782542D02*
X24107142Y-7687304D01*
X24107142Y-7687304D02*
X24107142Y-7592066D01*
X24107142Y-7592066D02*
X24154761Y-7449209D01*
X24154761Y-7449209D02*
X24726189Y-6877780D01*
X24726189Y-6877780D02*
X24107142Y-6877780D01*
X23821427Y-7877780D02*
X23488094Y-6877780D01*
X23488094Y-6877780D02*
X23154761Y-7877780D01*
X21488094Y-6877780D02*
X21821427Y-7353971D01*
X22059522Y-6877780D02*
X22059522Y-7877780D01*
X22059522Y-7877780D02*
X21678570Y-7877780D01*
X21678570Y-7877780D02*
X21583332Y-7830161D01*
X21583332Y-7830161D02*
X21535713Y-7782542D01*
X21535713Y-7782542D02*
X21488094Y-7687304D01*
X21488094Y-7687304D02*
X21488094Y-7544447D01*
X21488094Y-7544447D02*
X21535713Y-7449209D01*
X21535713Y-7449209D02*
X21583332Y-7401590D01*
X21583332Y-7401590D02*
X21678570Y-7353971D01*
X21678570Y-7353971D02*
X22059522Y-7353971D01*
X21059522Y-7401590D02*
X20726189Y-7401590D01*
X20583332Y-6877780D02*
X21059522Y-6877780D01*
X21059522Y-6877780D02*
X21059522Y-7877780D01*
X21059522Y-7877780D02*
X20583332Y-7877780D01*
X20154760Y-6877780D02*
X20154760Y-7877780D01*
X20154760Y-7877780D02*
X19916665Y-7877780D01*
X19916665Y-7877780D02*
X19773808Y-7830161D01*
X19773808Y-7830161D02*
X19678570Y-7734923D01*
X19678570Y-7734923D02*
X19630951Y-7639685D01*
X19630951Y-7639685D02*
X19583332Y-7449209D01*
X19583332Y-7449209D02*
X19583332Y-7306352D01*
X19583332Y-7306352D02*
X19630951Y-7115876D01*
X19630951Y-7115876D02*
X19678570Y-7020638D01*
X19678570Y-7020638D02*
X19773808Y-6925400D01*
X19773808Y-6925400D02*
X19916665Y-6877780D01*
X19916665Y-6877780D02*
X20154760Y-6877780D01*
X19154760Y-6973019D02*
X19107141Y-6925400D01*
X19107141Y-6925400D02*
X19154760Y-6877780D01*
X19154760Y-6877780D02*
X19202379Y-6925400D01*
X19202379Y-6925400D02*
X19154760Y-6973019D01*
X19154760Y-6973019D02*
X19154760Y-6877780D01*
X19154760Y-7258733D02*
X19202379Y-7830161D01*
X19202379Y-7830161D02*
X19154760Y-7877780D01*
X19154760Y-7877780D02*
X19107141Y-7830161D01*
X19107141Y-7830161D02*
X19154760Y-7258733D01*
X19154760Y-7258733D02*
X19154760Y-7877780D01*
X18678570Y-6973019D02*
X18630951Y-6925400D01*
X18630951Y-6925400D02*
X18678570Y-6877780D01*
X18678570Y-6877780D02*
X18726189Y-6925400D01*
X18726189Y-6925400D02*
X18678570Y-6973019D01*
X18678570Y-6973019D02*
X18678570Y-6877780D01*
X18678570Y-7258733D02*
X18726189Y-7830161D01*
X18726189Y-7830161D02*
X18678570Y-7877780D01*
X18678570Y-7877780D02*
X18630951Y-7830161D01*
X18630951Y-7830161D02*
X18678570Y-7258733D01*
X18678570Y-7258733D02*
X18678570Y-7877780D01*
D10*
X16508020Y-15528295D02*
X14984211Y-14956866D01*
X14984211Y-14956866D02*
X16508020Y-14385438D01*
X17058020Y-7928295D02*
X15534211Y-7356866D01*
X15534211Y-7356866D02*
X17058020Y-6785438D01*
X17433020Y-15528295D02*
X15909211Y-14956866D01*
X15909211Y-14956866D02*
X17433020Y-14385438D01*
D13*
X75014819Y-73469166D02*
X75014819Y-73945356D01*
X75014819Y-73945356D02*
X74014819Y-73945356D01*
X74014819Y-73231070D02*
X74014819Y-72612023D01*
X74014819Y-72612023D02*
X74395771Y-72945356D01*
X74395771Y-72945356D02*
X74395771Y-72802499D01*
X74395771Y-72802499D02*
X74443390Y-72707261D01*
X74443390Y-72707261D02*
X74491009Y-72659642D01*
X74491009Y-72659642D02*
X74586247Y-72612023D01*
X74586247Y-72612023D02*
X74824342Y-72612023D01*
X74824342Y-72612023D02*
X74919580Y-72659642D01*
X74919580Y-72659642D02*
X74967200Y-72707261D01*
X74967200Y-72707261D02*
X75014819Y-72802499D01*
X75014819Y-72802499D02*
X75014819Y-73088213D01*
X75014819Y-73088213D02*
X74967200Y-73183451D01*
X74967200Y-73183451D02*
X74919580Y-73231070D01*
X19454819Y-91921547D02*
X19454819Y-92397737D01*
X19454819Y-92397737D02*
X18454819Y-92397737D01*
X18931009Y-91588213D02*
X18931009Y-91254880D01*
X19454819Y-91112023D02*
X19454819Y-91588213D01*
X19454819Y-91588213D02*
X18454819Y-91588213D01*
X18454819Y-91588213D02*
X18454819Y-91112023D01*
X19454819Y-90683451D02*
X18454819Y-90683451D01*
X18454819Y-90683451D02*
X18454819Y-90445356D01*
X18454819Y-90445356D02*
X18502438Y-90302499D01*
X18502438Y-90302499D02*
X18597676Y-90207261D01*
X18597676Y-90207261D02*
X18692914Y-90159642D01*
X18692914Y-90159642D02*
X18883390Y-90112023D01*
X18883390Y-90112023D02*
X19026247Y-90112023D01*
X19026247Y-90112023D02*
X19216723Y-90159642D01*
X19216723Y-90159642D02*
X19311961Y-90207261D01*
X19311961Y-90207261D02*
X19407200Y-90302499D01*
X19407200Y-90302499D02*
X19454819Y-90445356D01*
X19454819Y-90445356D02*
X19454819Y-90683451D01*
X18550057Y-89731070D02*
X18502438Y-89683451D01*
X18502438Y-89683451D02*
X18454819Y-89588213D01*
X18454819Y-89588213D02*
X18454819Y-89350118D01*
X18454819Y-89350118D02*
X18502438Y-89254880D01*
X18502438Y-89254880D02*
X18550057Y-89207261D01*
X18550057Y-89207261D02*
X18645295Y-89159642D01*
X18645295Y-89159642D02*
X18740533Y-89159642D01*
X18740533Y-89159642D02*
X18883390Y-89207261D01*
X18883390Y-89207261D02*
X19454819Y-89778689D01*
X19454819Y-89778689D02*
X19454819Y-89159642D01*
X21954819Y-91921547D02*
X21954819Y-92397737D01*
X21954819Y-92397737D02*
X20954819Y-92397737D01*
X21431009Y-91588213D02*
X21431009Y-91254880D01*
X21954819Y-91112023D02*
X21954819Y-91588213D01*
X21954819Y-91588213D02*
X20954819Y-91588213D01*
X20954819Y-91588213D02*
X20954819Y-91112023D01*
X21954819Y-90683451D02*
X20954819Y-90683451D01*
X20954819Y-90683451D02*
X20954819Y-90445356D01*
X20954819Y-90445356D02*
X21002438Y-90302499D01*
X21002438Y-90302499D02*
X21097676Y-90207261D01*
X21097676Y-90207261D02*
X21192914Y-90159642D01*
X21192914Y-90159642D02*
X21383390Y-90112023D01*
X21383390Y-90112023D02*
X21526247Y-90112023D01*
X21526247Y-90112023D02*
X21716723Y-90159642D01*
X21716723Y-90159642D02*
X21811961Y-90207261D01*
X21811961Y-90207261D02*
X21907200Y-90302499D01*
X21907200Y-90302499D02*
X21954819Y-90445356D01*
X21954819Y-90445356D02*
X21954819Y-90683451D01*
X20954819Y-89778689D02*
X20954819Y-89159642D01*
X20954819Y-89159642D02*
X21335771Y-89492975D01*
X21335771Y-89492975D02*
X21335771Y-89350118D01*
X21335771Y-89350118D02*
X21383390Y-89254880D01*
X21383390Y-89254880D02*
X21431009Y-89207261D01*
X21431009Y-89207261D02*
X21526247Y-89159642D01*
X21526247Y-89159642D02*
X21764342Y-89159642D01*
X21764342Y-89159642D02*
X21859580Y-89207261D01*
X21859580Y-89207261D02*
X21907200Y-89254880D01*
X21907200Y-89254880D02*
X21954819Y-89350118D01*
X21954819Y-89350118D02*
X21954819Y-89635832D01*
X21954819Y-89635832D02*
X21907200Y-89731070D01*
X21907200Y-89731070D02*
X21859580Y-89778689D01*
X24454819Y-91921547D02*
X24454819Y-92397737D01*
X24454819Y-92397737D02*
X23454819Y-92397737D01*
X23931009Y-91588213D02*
X23931009Y-91254880D01*
X24454819Y-91112023D02*
X24454819Y-91588213D01*
X24454819Y-91588213D02*
X23454819Y-91588213D01*
X23454819Y-91588213D02*
X23454819Y-91112023D01*
X24454819Y-90683451D02*
X23454819Y-90683451D01*
X23454819Y-90683451D02*
X23454819Y-90445356D01*
X23454819Y-90445356D02*
X23502438Y-90302499D01*
X23502438Y-90302499D02*
X23597676Y-90207261D01*
X23597676Y-90207261D02*
X23692914Y-90159642D01*
X23692914Y-90159642D02*
X23883390Y-90112023D01*
X23883390Y-90112023D02*
X24026247Y-90112023D01*
X24026247Y-90112023D02*
X24216723Y-90159642D01*
X24216723Y-90159642D02*
X24311961Y-90207261D01*
X24311961Y-90207261D02*
X24407200Y-90302499D01*
X24407200Y-90302499D02*
X24454819Y-90445356D01*
X24454819Y-90445356D02*
X24454819Y-90683451D01*
X23788152Y-89254880D02*
X24454819Y-89254880D01*
X23407200Y-89492975D02*
X24121485Y-89731070D01*
X24121485Y-89731070D02*
X24121485Y-89112023D01*
X38583333Y-24204819D02*
X38250000Y-23728628D01*
X38011905Y-24204819D02*
X38011905Y-23204819D01*
X38011905Y-23204819D02*
X38392857Y-23204819D01*
X38392857Y-23204819D02*
X38488095Y-23252438D01*
X38488095Y-23252438D02*
X38535714Y-23300057D01*
X38535714Y-23300057D02*
X38583333Y-23395295D01*
X38583333Y-23395295D02*
X38583333Y-23538152D01*
X38583333Y-23538152D02*
X38535714Y-23633390D01*
X38535714Y-23633390D02*
X38488095Y-23681009D01*
X38488095Y-23681009D02*
X38392857Y-23728628D01*
X38392857Y-23728628D02*
X38011905Y-23728628D01*
X38964286Y-23300057D02*
X39011905Y-23252438D01*
X39011905Y-23252438D02*
X39107143Y-23204819D01*
X39107143Y-23204819D02*
X39345238Y-23204819D01*
X39345238Y-23204819D02*
X39440476Y-23252438D01*
X39440476Y-23252438D02*
X39488095Y-23300057D01*
X39488095Y-23300057D02*
X39535714Y-23395295D01*
X39535714Y-23395295D02*
X39535714Y-23490533D01*
X39535714Y-23490533D02*
X39488095Y-23633390D01*
X39488095Y-23633390D02*
X38916667Y-24204819D01*
X38916667Y-24204819D02*
X39535714Y-24204819D01*
X40114819Y-44269166D02*
X39638628Y-44602499D01*
X40114819Y-44840594D02*
X39114819Y-44840594D01*
X39114819Y-44840594D02*
X39114819Y-44459642D01*
X39114819Y-44459642D02*
X39162438Y-44364404D01*
X39162438Y-44364404D02*
X39210057Y-44316785D01*
X39210057Y-44316785D02*
X39305295Y-44269166D01*
X39305295Y-44269166D02*
X39448152Y-44269166D01*
X39448152Y-44269166D02*
X39543390Y-44316785D01*
X39543390Y-44316785D02*
X39591009Y-44364404D01*
X39591009Y-44364404D02*
X39638628Y-44459642D01*
X39638628Y-44459642D02*
X39638628Y-44840594D01*
X39448152Y-43412023D02*
X40114819Y-43412023D01*
X39067200Y-43650118D02*
X39781485Y-43888213D01*
X39781485Y-43888213D02*
X39781485Y-43269166D01*
X37454819Y-69166666D02*
X36978628Y-69499999D01*
X37454819Y-69738094D02*
X36454819Y-69738094D01*
X36454819Y-69738094D02*
X36454819Y-69357142D01*
X36454819Y-69357142D02*
X36502438Y-69261904D01*
X36502438Y-69261904D02*
X36550057Y-69214285D01*
X36550057Y-69214285D02*
X36645295Y-69166666D01*
X36645295Y-69166666D02*
X36788152Y-69166666D01*
X36788152Y-69166666D02*
X36883390Y-69214285D01*
X36883390Y-69214285D02*
X36931009Y-69261904D01*
X36931009Y-69261904D02*
X36978628Y-69357142D01*
X36978628Y-69357142D02*
X36978628Y-69738094D01*
X36454819Y-68261904D02*
X36454819Y-68738094D01*
X36454819Y-68738094D02*
X36931009Y-68785713D01*
X36931009Y-68785713D02*
X36883390Y-68738094D01*
X36883390Y-68738094D02*
X36835771Y-68642856D01*
X36835771Y-68642856D02*
X36835771Y-68404761D01*
X36835771Y-68404761D02*
X36883390Y-68309523D01*
X36883390Y-68309523D02*
X36931009Y-68261904D01*
X36931009Y-68261904D02*
X37026247Y-68214285D01*
X37026247Y-68214285D02*
X37264342Y-68214285D01*
X37264342Y-68214285D02*
X37359580Y-68261904D01*
X37359580Y-68261904D02*
X37407200Y-68309523D01*
X37407200Y-68309523D02*
X37454819Y-68404761D01*
X37454819Y-68404761D02*
X37454819Y-68642856D01*
X37454819Y-68642856D02*
X37407200Y-68738094D01*
X37407200Y-68738094D02*
X37359580Y-68785713D01*
D10*
X62642856Y-3362371D02*
X62985714Y-3362371D01*
X62814285Y-3962371D02*
X62814285Y-3362371D01*
X63185714Y-3962371D02*
X63185714Y-3362371D01*
X63185714Y-3362371D02*
X63414285Y-3362371D01*
X63414285Y-3362371D02*
X63471428Y-3390942D01*
X63471428Y-3390942D02*
X63499999Y-3419514D01*
X63499999Y-3419514D02*
X63528571Y-3476657D01*
X63528571Y-3476657D02*
X63528571Y-3562371D01*
X63528571Y-3562371D02*
X63499999Y-3619514D01*
X63499999Y-3619514D02*
X63471428Y-3648085D01*
X63471428Y-3648085D02*
X63414285Y-3676657D01*
X63414285Y-3676657D02*
X63185714Y-3676657D01*
X63757142Y-3419514D02*
X63785714Y-3390942D01*
X63785714Y-3390942D02*
X63842857Y-3362371D01*
X63842857Y-3362371D02*
X63985714Y-3362371D01*
X63985714Y-3362371D02*
X64042857Y-3390942D01*
X64042857Y-3390942D02*
X64071428Y-3419514D01*
X64071428Y-3419514D02*
X64099999Y-3476657D01*
X64099999Y-3476657D02*
X64099999Y-3533800D01*
X64099999Y-3533800D02*
X64071428Y-3619514D01*
X64071428Y-3619514D02*
X63728571Y-3962371D01*
X63728571Y-3962371D02*
X64099999Y-3962371D01*
D13*
X34654819Y-21466666D02*
X34654819Y-20895238D01*
X35654819Y-21180952D02*
X34654819Y-21180952D01*
X34654819Y-20704761D02*
X35654819Y-20371428D01*
X35654819Y-20371428D02*
X34654819Y-20038095D01*
X35607200Y-19752380D02*
X35654819Y-19609523D01*
X35654819Y-19609523D02*
X35654819Y-19371428D01*
X35654819Y-19371428D02*
X35607200Y-19276190D01*
X35607200Y-19276190D02*
X35559580Y-19228571D01*
X35559580Y-19228571D02*
X35464342Y-19180952D01*
X35464342Y-19180952D02*
X35369104Y-19180952D01*
X35369104Y-19180952D02*
X35273866Y-19228571D01*
X35273866Y-19228571D02*
X35226247Y-19276190D01*
X35226247Y-19276190D02*
X35178628Y-19371428D01*
X35178628Y-19371428D02*
X35131009Y-19561904D01*
X35131009Y-19561904D02*
X35083390Y-19657142D01*
X35083390Y-19657142D02*
X35035771Y-19704761D01*
X35035771Y-19704761D02*
X34940533Y-19752380D01*
X34940533Y-19752380D02*
X34845295Y-19752380D01*
X34845295Y-19752380D02*
X34750057Y-19704761D01*
X34750057Y-19704761D02*
X34702438Y-19657142D01*
X34702438Y-19657142D02*
X34654819Y-19561904D01*
X34654819Y-19561904D02*
X34654819Y-19323809D01*
X34654819Y-19323809D02*
X34702438Y-19180952D01*
X35654819Y-18228571D02*
X35654819Y-18799999D01*
X35654819Y-18514285D02*
X34654819Y-18514285D01*
X34654819Y-18514285D02*
X34797676Y-18609523D01*
X34797676Y-18609523D02*
X34892914Y-18704761D01*
X34892914Y-18704761D02*
X34940533Y-18799999D01*
X20584819Y-84276666D02*
X20584819Y-83705238D01*
X21584819Y-83990952D02*
X20584819Y-83990952D01*
X20584819Y-83514761D02*
X21584819Y-83181428D01*
X21584819Y-83181428D02*
X20584819Y-82848095D01*
X21537200Y-82562380D02*
X21584819Y-82419523D01*
X21584819Y-82419523D02*
X21584819Y-82181428D01*
X21584819Y-82181428D02*
X21537200Y-82086190D01*
X21537200Y-82086190D02*
X21489580Y-82038571D01*
X21489580Y-82038571D02*
X21394342Y-81990952D01*
X21394342Y-81990952D02*
X21299104Y-81990952D01*
X21299104Y-81990952D02*
X21203866Y-82038571D01*
X21203866Y-82038571D02*
X21156247Y-82086190D01*
X21156247Y-82086190D02*
X21108628Y-82181428D01*
X21108628Y-82181428D02*
X21061009Y-82371904D01*
X21061009Y-82371904D02*
X21013390Y-82467142D01*
X21013390Y-82467142D02*
X20965771Y-82514761D01*
X20965771Y-82514761D02*
X20870533Y-82562380D01*
X20870533Y-82562380D02*
X20775295Y-82562380D01*
X20775295Y-82562380D02*
X20680057Y-82514761D01*
X20680057Y-82514761D02*
X20632438Y-82467142D01*
X20632438Y-82467142D02*
X20584819Y-82371904D01*
X20584819Y-82371904D02*
X20584819Y-82133809D01*
X20584819Y-82133809D02*
X20632438Y-81990952D01*
X20680057Y-81609999D02*
X20632438Y-81562380D01*
X20632438Y-81562380D02*
X20584819Y-81467142D01*
X20584819Y-81467142D02*
X20584819Y-81229047D01*
X20584819Y-81229047D02*
X20632438Y-81133809D01*
X20632438Y-81133809D02*
X20680057Y-81086190D01*
X20680057Y-81086190D02*
X20775295Y-81038571D01*
X20775295Y-81038571D02*
X20870533Y-81038571D01*
X20870533Y-81038571D02*
X21013390Y-81086190D01*
X21013390Y-81086190D02*
X21584819Y-81657618D01*
X21584819Y-81657618D02*
X21584819Y-81038571D01*
D10*
X46226668Y-96028609D02*
X46512382Y-96028609D01*
X46369525Y-96528609D02*
X46369525Y-96028609D01*
X46607620Y-96028609D02*
X46774286Y-96528609D01*
X46774286Y-96528609D02*
X46940953Y-96028609D01*
X47083810Y-96504800D02*
X47155238Y-96528609D01*
X47155238Y-96528609D02*
X47274286Y-96528609D01*
X47274286Y-96528609D02*
X47321905Y-96504800D01*
X47321905Y-96504800D02*
X47345714Y-96480990D01*
X47345714Y-96480990D02*
X47369524Y-96433371D01*
X47369524Y-96433371D02*
X47369524Y-96385752D01*
X47369524Y-96385752D02*
X47345714Y-96338133D01*
X47345714Y-96338133D02*
X47321905Y-96314323D01*
X47321905Y-96314323D02*
X47274286Y-96290514D01*
X47274286Y-96290514D02*
X47179048Y-96266704D01*
X47179048Y-96266704D02*
X47131429Y-96242895D01*
X47131429Y-96242895D02*
X47107619Y-96219085D01*
X47107619Y-96219085D02*
X47083810Y-96171466D01*
X47083810Y-96171466D02*
X47083810Y-96123847D01*
X47083810Y-96123847D02*
X47107619Y-96076228D01*
X47107619Y-96076228D02*
X47131429Y-96052419D01*
X47131429Y-96052419D02*
X47179048Y-96028609D01*
X47179048Y-96028609D02*
X47298095Y-96028609D01*
X47298095Y-96028609D02*
X47369524Y-96052419D01*
X47536190Y-96028609D02*
X47845714Y-96028609D01*
X47845714Y-96028609D02*
X47679047Y-96219085D01*
X47679047Y-96219085D02*
X47750476Y-96219085D01*
X47750476Y-96219085D02*
X47798095Y-96242895D01*
X47798095Y-96242895D02*
X47821904Y-96266704D01*
X47821904Y-96266704D02*
X47845714Y-96314323D01*
X47845714Y-96314323D02*
X47845714Y-96433371D01*
X47845714Y-96433371D02*
X47821904Y-96480990D01*
X47821904Y-96480990D02*
X47798095Y-96504800D01*
X47798095Y-96504800D02*
X47750476Y-96528609D01*
X47750476Y-96528609D02*
X47607619Y-96528609D01*
X47607619Y-96528609D02*
X47560000Y-96504800D01*
X47560000Y-96504800D02*
X47536190Y-96480990D01*
D13*
X40518095Y-10864819D02*
X40518095Y-11674342D01*
X40518095Y-11674342D02*
X40565714Y-11769580D01*
X40565714Y-11769580D02*
X40613333Y-11817200D01*
X40613333Y-11817200D02*
X40708571Y-11864819D01*
X40708571Y-11864819D02*
X40899047Y-11864819D01*
X40899047Y-11864819D02*
X40994285Y-11817200D01*
X40994285Y-11817200D02*
X41041904Y-11769580D01*
X41041904Y-11769580D02*
X41089523Y-11674342D01*
X41089523Y-11674342D02*
X41089523Y-10864819D01*
X42089523Y-11864819D02*
X41518095Y-11864819D01*
X41803809Y-11864819D02*
X41803809Y-10864819D01*
X41803809Y-10864819D02*
X41708571Y-11007676D01*
X41708571Y-11007676D02*
X41613333Y-11102914D01*
X41613333Y-11102914D02*
X41518095Y-11150533D01*
X56298095Y-38754819D02*
X56298095Y-39564342D01*
X56298095Y-39564342D02*
X56345714Y-39659580D01*
X56345714Y-39659580D02*
X56393333Y-39707200D01*
X56393333Y-39707200D02*
X56488571Y-39754819D01*
X56488571Y-39754819D02*
X56679047Y-39754819D01*
X56679047Y-39754819D02*
X56774285Y-39707200D01*
X56774285Y-39707200D02*
X56821904Y-39659580D01*
X56821904Y-39659580D02*
X56869523Y-39564342D01*
X56869523Y-39564342D02*
X56869523Y-38754819D01*
X57250476Y-38754819D02*
X57869523Y-38754819D01*
X57869523Y-38754819D02*
X57536190Y-39135771D01*
X57536190Y-39135771D02*
X57679047Y-39135771D01*
X57679047Y-39135771D02*
X57774285Y-39183390D01*
X57774285Y-39183390D02*
X57821904Y-39231009D01*
X57821904Y-39231009D02*
X57869523Y-39326247D01*
X57869523Y-39326247D02*
X57869523Y-39564342D01*
X57869523Y-39564342D02*
X57821904Y-39659580D01*
X57821904Y-39659580D02*
X57774285Y-39707200D01*
X57774285Y-39707200D02*
X57679047Y-39754819D01*
X57679047Y-39754819D02*
X57393333Y-39754819D01*
X57393333Y-39754819D02*
X57298095Y-39707200D01*
X57298095Y-39707200D02*
X57250476Y-39659580D01*
X26088095Y-53757319D02*
X26088095Y-54566842D01*
X26088095Y-54566842D02*
X26135714Y-54662080D01*
X26135714Y-54662080D02*
X26183333Y-54709700D01*
X26183333Y-54709700D02*
X26278571Y-54757319D01*
X26278571Y-54757319D02*
X26469047Y-54757319D01*
X26469047Y-54757319D02*
X26564285Y-54709700D01*
X26564285Y-54709700D02*
X26611904Y-54662080D01*
X26611904Y-54662080D02*
X26659523Y-54566842D01*
X26659523Y-54566842D02*
X26659523Y-53757319D01*
X27564285Y-53757319D02*
X27373809Y-53757319D01*
X27373809Y-53757319D02*
X27278571Y-53804938D01*
X27278571Y-53804938D02*
X27230952Y-53852557D01*
X27230952Y-53852557D02*
X27135714Y-53995414D01*
X27135714Y-53995414D02*
X27088095Y-54185890D01*
X27088095Y-54185890D02*
X27088095Y-54566842D01*
X27088095Y-54566842D02*
X27135714Y-54662080D01*
X27135714Y-54662080D02*
X27183333Y-54709700D01*
X27183333Y-54709700D02*
X27278571Y-54757319D01*
X27278571Y-54757319D02*
X27469047Y-54757319D01*
X27469047Y-54757319D02*
X27564285Y-54709700D01*
X27564285Y-54709700D02*
X27611904Y-54662080D01*
X27611904Y-54662080D02*
X27659523Y-54566842D01*
X27659523Y-54566842D02*
X27659523Y-54328747D01*
X27659523Y-54328747D02*
X27611904Y-54233509D01*
X27611904Y-54233509D02*
X27564285Y-54185890D01*
X27564285Y-54185890D02*
X27469047Y-54138271D01*
X27469047Y-54138271D02*
X27278571Y-54138271D01*
X27278571Y-54138271D02*
X27183333Y-54185890D01*
X27183333Y-54185890D02*
X27135714Y-54233509D01*
X27135714Y-54233509D02*
X27088095Y-54328747D01*
X35298095Y-82257319D02*
X35298095Y-83066842D01*
X35298095Y-83066842D02*
X35345714Y-83162080D01*
X35345714Y-83162080D02*
X35393333Y-83209700D01*
X35393333Y-83209700D02*
X35488571Y-83257319D01*
X35488571Y-83257319D02*
X35679047Y-83257319D01*
X35679047Y-83257319D02*
X35774285Y-83209700D01*
X35774285Y-83209700D02*
X35821904Y-83162080D01*
X35821904Y-83162080D02*
X35869523Y-83066842D01*
X35869523Y-83066842D02*
X35869523Y-82257319D01*
X36250476Y-82257319D02*
X36917142Y-82257319D01*
X36917142Y-82257319D02*
X36488571Y-83257319D01*
X39454819Y-83261904D02*
X40264342Y-83261904D01*
X40264342Y-83261904D02*
X40359580Y-83214285D01*
X40359580Y-83214285D02*
X40407200Y-83166666D01*
X40407200Y-83166666D02*
X40454819Y-83071428D01*
X40454819Y-83071428D02*
X40454819Y-82880952D01*
X40454819Y-82880952D02*
X40407200Y-82785714D01*
X40407200Y-82785714D02*
X40359580Y-82738095D01*
X40359580Y-82738095D02*
X40264342Y-82690476D01*
X40264342Y-82690476D02*
X39454819Y-82690476D01*
X39883390Y-82071428D02*
X39835771Y-82166666D01*
X39835771Y-82166666D02*
X39788152Y-82214285D01*
X39788152Y-82214285D02*
X39692914Y-82261904D01*
X39692914Y-82261904D02*
X39645295Y-82261904D01*
X39645295Y-82261904D02*
X39550057Y-82214285D01*
X39550057Y-82214285D02*
X39502438Y-82166666D01*
X39502438Y-82166666D02*
X39454819Y-82071428D01*
X39454819Y-82071428D02*
X39454819Y-81880952D01*
X39454819Y-81880952D02*
X39502438Y-81785714D01*
X39502438Y-81785714D02*
X39550057Y-81738095D01*
X39550057Y-81738095D02*
X39645295Y-81690476D01*
X39645295Y-81690476D02*
X39692914Y-81690476D01*
X39692914Y-81690476D02*
X39788152Y-81738095D01*
X39788152Y-81738095D02*
X39835771Y-81785714D01*
X39835771Y-81785714D02*
X39883390Y-81880952D01*
X39883390Y-81880952D02*
X39883390Y-82071428D01*
X39883390Y-82071428D02*
X39931009Y-82166666D01*
X39931009Y-82166666D02*
X39978628Y-82214285D01*
X39978628Y-82214285D02*
X40073866Y-82261904D01*
X40073866Y-82261904D02*
X40264342Y-82261904D01*
X40264342Y-82261904D02*
X40359580Y-82214285D01*
X40359580Y-82214285D02*
X40407200Y-82166666D01*
X40407200Y-82166666D02*
X40454819Y-82071428D01*
X40454819Y-82071428D02*
X40454819Y-81880952D01*
X40454819Y-81880952D02*
X40407200Y-81785714D01*
X40407200Y-81785714D02*
X40359580Y-81738095D01*
X40359580Y-81738095D02*
X40264342Y-81690476D01*
X40264342Y-81690476D02*
X40073866Y-81690476D01*
X40073866Y-81690476D02*
X39978628Y-81738095D01*
X39978628Y-81738095D02*
X39931009Y-81785714D01*
X39931009Y-81785714D02*
X39883390Y-81880952D01*
D16*
X44373208Y-19347619D02*
X44349399Y-19395238D01*
X44349399Y-19395238D02*
X44301780Y-19442857D01*
X44301780Y-19442857D02*
X44230351Y-19514285D01*
X44230351Y-19514285D02*
X44206541Y-19561904D01*
X44206541Y-19561904D02*
X44206541Y-19609523D01*
X44325589Y-19585714D02*
X44301780Y-19633333D01*
X44301780Y-19633333D02*
X44254160Y-19680952D01*
X44254160Y-19680952D02*
X44158922Y-19704761D01*
X44158922Y-19704761D02*
X43992256Y-19704761D01*
X43992256Y-19704761D02*
X43897018Y-19680952D01*
X43897018Y-19680952D02*
X43849399Y-19633333D01*
X43849399Y-19633333D02*
X43825589Y-19585714D01*
X43825589Y-19585714D02*
X43825589Y-19490476D01*
X43825589Y-19490476D02*
X43849399Y-19442857D01*
X43849399Y-19442857D02*
X43897018Y-19395238D01*
X43897018Y-19395238D02*
X43992256Y-19371428D01*
X43992256Y-19371428D02*
X44158922Y-19371428D01*
X44158922Y-19371428D02*
X44254160Y-19395238D01*
X44254160Y-19395238D02*
X44301780Y-19442857D01*
X44301780Y-19442857D02*
X44325589Y-19490476D01*
X44325589Y-19490476D02*
X44325589Y-19585714D01*
X44325589Y-18895237D02*
X44325589Y-19180951D01*
X44325589Y-19038094D02*
X43825589Y-19038094D01*
X43825589Y-19038094D02*
X43897018Y-19085713D01*
X43897018Y-19085713D02*
X43944637Y-19133332D01*
X43944637Y-19133332D02*
X43968446Y-19180951D01*
D10*
X48838571Y-88980990D02*
X48814762Y-89004800D01*
X48814762Y-89004800D02*
X48743333Y-89028609D01*
X48743333Y-89028609D02*
X48695714Y-89028609D01*
X48695714Y-89028609D02*
X48624286Y-89004800D01*
X48624286Y-89004800D02*
X48576667Y-88957180D01*
X48576667Y-88957180D02*
X48552857Y-88909561D01*
X48552857Y-88909561D02*
X48529048Y-88814323D01*
X48529048Y-88814323D02*
X48529048Y-88742895D01*
X48529048Y-88742895D02*
X48552857Y-88647657D01*
X48552857Y-88647657D02*
X48576667Y-88600038D01*
X48576667Y-88600038D02*
X48624286Y-88552419D01*
X48624286Y-88552419D02*
X48695714Y-88528609D01*
X48695714Y-88528609D02*
X48743333Y-88528609D01*
X48743333Y-88528609D02*
X48814762Y-88552419D01*
X48814762Y-88552419D02*
X48838571Y-88576228D01*
X49314762Y-89028609D02*
X49029048Y-89028609D01*
X49171905Y-89028609D02*
X49171905Y-88528609D01*
X49171905Y-88528609D02*
X49124286Y-88600038D01*
X49124286Y-88600038D02*
X49076667Y-88647657D01*
X49076667Y-88647657D02*
X49029048Y-88671466D01*
X49552857Y-89028609D02*
X49648095Y-89028609D01*
X49648095Y-89028609D02*
X49695714Y-89004800D01*
X49695714Y-89004800D02*
X49719523Y-88980990D01*
X49719523Y-88980990D02*
X49767142Y-88909561D01*
X49767142Y-88909561D02*
X49790952Y-88814323D01*
X49790952Y-88814323D02*
X49790952Y-88623847D01*
X49790952Y-88623847D02*
X49767142Y-88576228D01*
X49767142Y-88576228D02*
X49743333Y-88552419D01*
X49743333Y-88552419D02*
X49695714Y-88528609D01*
X49695714Y-88528609D02*
X49600476Y-88528609D01*
X49600476Y-88528609D02*
X49552857Y-88552419D01*
X49552857Y-88552419D02*
X49529047Y-88576228D01*
X49529047Y-88576228D02*
X49505238Y-88623847D01*
X49505238Y-88623847D02*
X49505238Y-88742895D01*
X49505238Y-88742895D02*
X49529047Y-88790514D01*
X49529047Y-88790514D02*
X49552857Y-88814323D01*
X49552857Y-88814323D02*
X49600476Y-88838133D01*
X49600476Y-88838133D02*
X49695714Y-88838133D01*
X49695714Y-88838133D02*
X49743333Y-88814323D01*
X49743333Y-88814323D02*
X49767142Y-88790514D01*
X49767142Y-88790514D02*
X49790952Y-88742895D01*
D13*
X12174819Y-38743333D02*
X12889104Y-38743333D01*
X12889104Y-38743333D02*
X13031961Y-38790952D01*
X13031961Y-38790952D02*
X13127200Y-38886190D01*
X13127200Y-38886190D02*
X13174819Y-39029047D01*
X13174819Y-39029047D02*
X13174819Y-39124285D01*
X12174819Y-38362380D02*
X12174819Y-37695714D01*
X12174819Y-37695714D02*
X13174819Y-38124285D01*
D10*
X59142856Y-3412371D02*
X59485714Y-3412371D01*
X59314285Y-4012371D02*
X59314285Y-3412371D01*
X59685714Y-4012371D02*
X59685714Y-3412371D01*
X59685714Y-3412371D02*
X59914285Y-3412371D01*
X59914285Y-3412371D02*
X59971428Y-3440942D01*
X59971428Y-3440942D02*
X59999999Y-3469514D01*
X59999999Y-3469514D02*
X60028571Y-3526657D01*
X60028571Y-3526657D02*
X60028571Y-3612371D01*
X60028571Y-3612371D02*
X59999999Y-3669514D01*
X59999999Y-3669514D02*
X59971428Y-3698085D01*
X59971428Y-3698085D02*
X59914285Y-3726657D01*
X59914285Y-3726657D02*
X59685714Y-3726657D01*
X60599999Y-4012371D02*
X60257142Y-4012371D01*
X60428571Y-4012371D02*
X60428571Y-3412371D01*
X60428571Y-3412371D02*
X60371428Y-3498085D01*
X60371428Y-3498085D02*
X60314285Y-3555228D01*
X60314285Y-3555228D02*
X60257142Y-3583800D01*
X40638571Y-46180990D02*
X40614762Y-46204800D01*
X40614762Y-46204800D02*
X40543333Y-46228609D01*
X40543333Y-46228609D02*
X40495714Y-46228609D01*
X40495714Y-46228609D02*
X40424286Y-46204800D01*
X40424286Y-46204800D02*
X40376667Y-46157180D01*
X40376667Y-46157180D02*
X40352857Y-46109561D01*
X40352857Y-46109561D02*
X40329048Y-46014323D01*
X40329048Y-46014323D02*
X40329048Y-45942895D01*
X40329048Y-45942895D02*
X40352857Y-45847657D01*
X40352857Y-45847657D02*
X40376667Y-45800038D01*
X40376667Y-45800038D02*
X40424286Y-45752419D01*
X40424286Y-45752419D02*
X40495714Y-45728609D01*
X40495714Y-45728609D02*
X40543333Y-45728609D01*
X40543333Y-45728609D02*
X40614762Y-45752419D01*
X40614762Y-45752419D02*
X40638571Y-45776228D01*
X40805238Y-45728609D02*
X41114762Y-45728609D01*
X41114762Y-45728609D02*
X40948095Y-45919085D01*
X40948095Y-45919085D02*
X41019524Y-45919085D01*
X41019524Y-45919085D02*
X41067143Y-45942895D01*
X41067143Y-45942895D02*
X41090952Y-45966704D01*
X41090952Y-45966704D02*
X41114762Y-46014323D01*
X41114762Y-46014323D02*
X41114762Y-46133371D01*
X41114762Y-46133371D02*
X41090952Y-46180990D01*
X41090952Y-46180990D02*
X41067143Y-46204800D01*
X41067143Y-46204800D02*
X41019524Y-46228609D01*
X41019524Y-46228609D02*
X40876667Y-46228609D01*
X40876667Y-46228609D02*
X40829048Y-46204800D01*
X40829048Y-46204800D02*
X40805238Y-46180990D01*
X41305238Y-45776228D02*
X41329047Y-45752419D01*
X41329047Y-45752419D02*
X41376666Y-45728609D01*
X41376666Y-45728609D02*
X41495714Y-45728609D01*
X41495714Y-45728609D02*
X41543333Y-45752419D01*
X41543333Y-45752419D02*
X41567142Y-45776228D01*
X41567142Y-45776228D02*
X41590952Y-45823847D01*
X41590952Y-45823847D02*
X41590952Y-45871466D01*
X41590952Y-45871466D02*
X41567142Y-45942895D01*
X41567142Y-45942895D02*
X41281428Y-46228609D01*
X41281428Y-46228609D02*
X41590952Y-46228609D01*
D13*
X66793333Y-39157319D02*
X66317143Y-39157319D01*
X66317143Y-39157319D02*
X66317143Y-38157319D01*
X67079048Y-38252557D02*
X67126667Y-38204938D01*
X67126667Y-38204938D02*
X67221905Y-38157319D01*
X67221905Y-38157319D02*
X67460000Y-38157319D01*
X67460000Y-38157319D02*
X67555238Y-38204938D01*
X67555238Y-38204938D02*
X67602857Y-38252557D01*
X67602857Y-38252557D02*
X67650476Y-38347795D01*
X67650476Y-38347795D02*
X67650476Y-38443033D01*
X67650476Y-38443033D02*
X67602857Y-38585890D01*
X67602857Y-38585890D02*
X67031429Y-39157319D01*
X67031429Y-39157319D02*
X67650476Y-39157319D01*
D10*
X50538490Y-82631428D02*
X50562300Y-82655237D01*
X50562300Y-82655237D02*
X50586109Y-82726666D01*
X50586109Y-82726666D02*
X50586109Y-82774285D01*
X50586109Y-82774285D02*
X50562300Y-82845713D01*
X50562300Y-82845713D02*
X50514680Y-82893332D01*
X50514680Y-82893332D02*
X50467061Y-82917142D01*
X50467061Y-82917142D02*
X50371823Y-82940951D01*
X50371823Y-82940951D02*
X50300395Y-82940951D01*
X50300395Y-82940951D02*
X50205157Y-82917142D01*
X50205157Y-82917142D02*
X50157538Y-82893332D01*
X50157538Y-82893332D02*
X50109919Y-82845713D01*
X50109919Y-82845713D02*
X50086109Y-82774285D01*
X50086109Y-82774285D02*
X50086109Y-82726666D01*
X50086109Y-82726666D02*
X50109919Y-82655237D01*
X50109919Y-82655237D02*
X50133728Y-82631428D01*
X50586109Y-82155237D02*
X50586109Y-82440951D01*
X50586109Y-82298094D02*
X50086109Y-82298094D01*
X50086109Y-82298094D02*
X50157538Y-82345713D01*
X50157538Y-82345713D02*
X50205157Y-82393332D01*
X50205157Y-82393332D02*
X50228966Y-82440951D01*
X50086109Y-81726666D02*
X50086109Y-81821904D01*
X50086109Y-81821904D02*
X50109919Y-81869523D01*
X50109919Y-81869523D02*
X50133728Y-81893333D01*
X50133728Y-81893333D02*
X50205157Y-81940952D01*
X50205157Y-81940952D02*
X50300395Y-81964761D01*
X50300395Y-81964761D02*
X50490871Y-81964761D01*
X50490871Y-81964761D02*
X50538490Y-81940952D01*
X50538490Y-81940952D02*
X50562300Y-81917142D01*
X50562300Y-81917142D02*
X50586109Y-81869523D01*
X50586109Y-81869523D02*
X50586109Y-81774285D01*
X50586109Y-81774285D02*
X50562300Y-81726666D01*
X50562300Y-81726666D02*
X50538490Y-81702857D01*
X50538490Y-81702857D02*
X50490871Y-81679047D01*
X50490871Y-81679047D02*
X50371823Y-81679047D01*
X50371823Y-81679047D02*
X50324204Y-81702857D01*
X50324204Y-81702857D02*
X50300395Y-81726666D01*
X50300395Y-81726666D02*
X50276585Y-81774285D01*
X50276585Y-81774285D02*
X50276585Y-81869523D01*
X50276585Y-81869523D02*
X50300395Y-81917142D01*
X50300395Y-81917142D02*
X50324204Y-81940952D01*
X50324204Y-81940952D02*
X50371823Y-81964761D01*
X50286109Y-91612023D02*
X49786109Y-91612023D01*
X49786109Y-91612023D02*
X49786109Y-91421547D01*
X49786109Y-91421547D02*
X49809919Y-91373928D01*
X49809919Y-91373928D02*
X49833728Y-91350118D01*
X49833728Y-91350118D02*
X49881347Y-91326309D01*
X49881347Y-91326309D02*
X49952776Y-91326309D01*
X49952776Y-91326309D02*
X50000395Y-91350118D01*
X50000395Y-91350118D02*
X50024204Y-91373928D01*
X50024204Y-91373928D02*
X50048014Y-91421547D01*
X50048014Y-91421547D02*
X50048014Y-91612023D01*
X49786109Y-91183451D02*
X49786109Y-90897737D01*
X50286109Y-91040594D02*
X49786109Y-91040594D01*
X50238490Y-90445357D02*
X50262300Y-90469166D01*
X50262300Y-90469166D02*
X50286109Y-90540595D01*
X50286109Y-90540595D02*
X50286109Y-90588214D01*
X50286109Y-90588214D02*
X50262300Y-90659642D01*
X50262300Y-90659642D02*
X50214680Y-90707261D01*
X50214680Y-90707261D02*
X50167061Y-90731071D01*
X50167061Y-90731071D02*
X50071823Y-90754880D01*
X50071823Y-90754880D02*
X50000395Y-90754880D01*
X50000395Y-90754880D02*
X49905157Y-90731071D01*
X49905157Y-90731071D02*
X49857538Y-90707261D01*
X49857538Y-90707261D02*
X49809919Y-90659642D01*
X49809919Y-90659642D02*
X49786109Y-90588214D01*
X49786109Y-90588214D02*
X49786109Y-90540595D01*
X49786109Y-90540595D02*
X49809919Y-90469166D01*
X49809919Y-90469166D02*
X49833728Y-90445357D01*
X49786109Y-90278690D02*
X49786109Y-89969166D01*
X49786109Y-89969166D02*
X49976585Y-90135833D01*
X49976585Y-90135833D02*
X49976585Y-90064404D01*
X49976585Y-90064404D02*
X50000395Y-90016785D01*
X50000395Y-90016785D02*
X50024204Y-89992976D01*
X50024204Y-89992976D02*
X50071823Y-89969166D01*
X50071823Y-89969166D02*
X50190871Y-89969166D01*
X50190871Y-89969166D02*
X50238490Y-89992976D01*
X50238490Y-89992976D02*
X50262300Y-90016785D01*
X50262300Y-90016785D02*
X50286109Y-90064404D01*
X50286109Y-90064404D02*
X50286109Y-90207261D01*
X50286109Y-90207261D02*
X50262300Y-90254880D01*
X50262300Y-90254880D02*
X50238490Y-90278690D01*
D13*
X41893333Y-93257319D02*
X41560000Y-92781128D01*
X41321905Y-93257319D02*
X41321905Y-92257319D01*
X41321905Y-92257319D02*
X41702857Y-92257319D01*
X41702857Y-92257319D02*
X41798095Y-92304938D01*
X41798095Y-92304938D02*
X41845714Y-92352557D01*
X41845714Y-92352557D02*
X41893333Y-92447795D01*
X41893333Y-92447795D02*
X41893333Y-92590652D01*
X41893333Y-92590652D02*
X41845714Y-92685890D01*
X41845714Y-92685890D02*
X41798095Y-92733509D01*
X41798095Y-92733509D02*
X41702857Y-92781128D01*
X41702857Y-92781128D02*
X41321905Y-92781128D01*
X42369524Y-93257319D02*
X42560000Y-93257319D01*
X42560000Y-93257319D02*
X42655238Y-93209700D01*
X42655238Y-93209700D02*
X42702857Y-93162080D01*
X42702857Y-93162080D02*
X42798095Y-93019223D01*
X42798095Y-93019223D02*
X42845714Y-92828747D01*
X42845714Y-92828747D02*
X42845714Y-92447795D01*
X42845714Y-92447795D02*
X42798095Y-92352557D01*
X42798095Y-92352557D02*
X42750476Y-92304938D01*
X42750476Y-92304938D02*
X42655238Y-92257319D01*
X42655238Y-92257319D02*
X42464762Y-92257319D01*
X42464762Y-92257319D02*
X42369524Y-92304938D01*
X42369524Y-92304938D02*
X42321905Y-92352557D01*
X42321905Y-92352557D02*
X42274286Y-92447795D01*
X42274286Y-92447795D02*
X42274286Y-92685890D01*
X42274286Y-92685890D02*
X42321905Y-92781128D01*
X42321905Y-92781128D02*
X42369524Y-92828747D01*
X42369524Y-92828747D02*
X42464762Y-92876366D01*
X42464762Y-92876366D02*
X42655238Y-92876366D01*
X42655238Y-92876366D02*
X42750476Y-92828747D01*
X42750476Y-92828747D02*
X42798095Y-92781128D01*
X42798095Y-92781128D02*
X42845714Y-92685890D01*
X30454819Y-28219047D02*
X29454819Y-28219047D01*
X29454819Y-28219047D02*
X29454819Y-27838095D01*
X29454819Y-27838095D02*
X29502438Y-27742857D01*
X29502438Y-27742857D02*
X29550057Y-27695238D01*
X29550057Y-27695238D02*
X29645295Y-27647619D01*
X29645295Y-27647619D02*
X29788152Y-27647619D01*
X29788152Y-27647619D02*
X29883390Y-27695238D01*
X29883390Y-27695238D02*
X29931009Y-27742857D01*
X29931009Y-27742857D02*
X29978628Y-27838095D01*
X29978628Y-27838095D02*
X29978628Y-28219047D01*
X29454819Y-27361904D02*
X29454819Y-26790476D01*
X30454819Y-27076190D02*
X29454819Y-27076190D01*
X30359580Y-25885714D02*
X30407200Y-25933333D01*
X30407200Y-25933333D02*
X30454819Y-26076190D01*
X30454819Y-26076190D02*
X30454819Y-26171428D01*
X30454819Y-26171428D02*
X30407200Y-26314285D01*
X30407200Y-26314285D02*
X30311961Y-26409523D01*
X30311961Y-26409523D02*
X30216723Y-26457142D01*
X30216723Y-26457142D02*
X30026247Y-26504761D01*
X30026247Y-26504761D02*
X29883390Y-26504761D01*
X29883390Y-26504761D02*
X29692914Y-26457142D01*
X29692914Y-26457142D02*
X29597676Y-26409523D01*
X29597676Y-26409523D02*
X29502438Y-26314285D01*
X29502438Y-26314285D02*
X29454819Y-26171428D01*
X29454819Y-26171428D02*
X29454819Y-26076190D01*
X29454819Y-26076190D02*
X29502438Y-25933333D01*
X29502438Y-25933333D02*
X29550057Y-25885714D01*
X30454819Y-24933333D02*
X30454819Y-25504761D01*
X30454819Y-25219047D02*
X29454819Y-25219047D01*
X29454819Y-25219047D02*
X29597676Y-25314285D01*
X29597676Y-25314285D02*
X29692914Y-25409523D01*
X29692914Y-25409523D02*
X29740533Y-25504761D01*
X37644819Y-28946666D02*
X37168628Y-29279999D01*
X37644819Y-29518094D02*
X36644819Y-29518094D01*
X36644819Y-29518094D02*
X36644819Y-29137142D01*
X36644819Y-29137142D02*
X36692438Y-29041904D01*
X36692438Y-29041904D02*
X36740057Y-28994285D01*
X36740057Y-28994285D02*
X36835295Y-28946666D01*
X36835295Y-28946666D02*
X36978152Y-28946666D01*
X36978152Y-28946666D02*
X37073390Y-28994285D01*
X37073390Y-28994285D02*
X37121009Y-29041904D01*
X37121009Y-29041904D02*
X37168628Y-29137142D01*
X37168628Y-29137142D02*
X37168628Y-29518094D01*
X37644819Y-27994285D02*
X37644819Y-28565713D01*
X37644819Y-28279999D02*
X36644819Y-28279999D01*
X36644819Y-28279999D02*
X36787676Y-28375237D01*
X36787676Y-28375237D02*
X36882914Y-28470475D01*
X36882914Y-28470475D02*
X36930533Y-28565713D01*
X18454819Y-76369047D02*
X17454819Y-76369047D01*
X17454819Y-76369047D02*
X17454819Y-75988095D01*
X17454819Y-75988095D02*
X17502438Y-75892857D01*
X17502438Y-75892857D02*
X17550057Y-75845238D01*
X17550057Y-75845238D02*
X17645295Y-75797619D01*
X17645295Y-75797619D02*
X17788152Y-75797619D01*
X17788152Y-75797619D02*
X17883390Y-75845238D01*
X17883390Y-75845238D02*
X17931009Y-75892857D01*
X17931009Y-75892857D02*
X17978628Y-75988095D01*
X17978628Y-75988095D02*
X17978628Y-76369047D01*
X17454819Y-75511904D02*
X17454819Y-74940476D01*
X18454819Y-75226190D02*
X17454819Y-75226190D01*
X18359580Y-74035714D02*
X18407200Y-74083333D01*
X18407200Y-74083333D02*
X18454819Y-74226190D01*
X18454819Y-74226190D02*
X18454819Y-74321428D01*
X18454819Y-74321428D02*
X18407200Y-74464285D01*
X18407200Y-74464285D02*
X18311961Y-74559523D01*
X18311961Y-74559523D02*
X18216723Y-74607142D01*
X18216723Y-74607142D02*
X18026247Y-74654761D01*
X18026247Y-74654761D02*
X17883390Y-74654761D01*
X17883390Y-74654761D02*
X17692914Y-74607142D01*
X17692914Y-74607142D02*
X17597676Y-74559523D01*
X17597676Y-74559523D02*
X17502438Y-74464285D01*
X17502438Y-74464285D02*
X17454819Y-74321428D01*
X17454819Y-74321428D02*
X17454819Y-74226190D01*
X17454819Y-74226190D02*
X17502438Y-74083333D01*
X17502438Y-74083333D02*
X17550057Y-74035714D01*
X17550057Y-73654761D02*
X17502438Y-73607142D01*
X17502438Y-73607142D02*
X17454819Y-73511904D01*
X17454819Y-73511904D02*
X17454819Y-73273809D01*
X17454819Y-73273809D02*
X17502438Y-73178571D01*
X17502438Y-73178571D02*
X17550057Y-73130952D01*
X17550057Y-73130952D02*
X17645295Y-73083333D01*
X17645295Y-73083333D02*
X17740533Y-73083333D01*
X17740533Y-73083333D02*
X17883390Y-73130952D01*
X17883390Y-73130952D02*
X18454819Y-73702380D01*
X18454819Y-73702380D02*
X18454819Y-73083333D01*
X69298095Y-84257319D02*
X69869523Y-84257319D01*
X69583809Y-85257319D02*
X69583809Y-84257319D01*
X70202857Y-85257319D02*
X70202857Y-84257319D01*
X70202857Y-84257319D02*
X70583809Y-84257319D01*
X70583809Y-84257319D02*
X70679047Y-84304938D01*
X70679047Y-84304938D02*
X70726666Y-84352557D01*
X70726666Y-84352557D02*
X70774285Y-84447795D01*
X70774285Y-84447795D02*
X70774285Y-84590652D01*
X70774285Y-84590652D02*
X70726666Y-84685890D01*
X70726666Y-84685890D02*
X70679047Y-84733509D01*
X70679047Y-84733509D02*
X70583809Y-84781128D01*
X70583809Y-84781128D02*
X70202857Y-84781128D01*
X71679047Y-84257319D02*
X71202857Y-84257319D01*
X71202857Y-84257319D02*
X71155238Y-84733509D01*
X71155238Y-84733509D02*
X71202857Y-84685890D01*
X71202857Y-84685890D02*
X71298095Y-84638271D01*
X71298095Y-84638271D02*
X71536190Y-84638271D01*
X71536190Y-84638271D02*
X71631428Y-84685890D01*
X71631428Y-84685890D02*
X71679047Y-84733509D01*
X71679047Y-84733509D02*
X71726666Y-84828747D01*
X71726666Y-84828747D02*
X71726666Y-85066842D01*
X71726666Y-85066842D02*
X71679047Y-85162080D01*
X71679047Y-85162080D02*
X71631428Y-85209700D01*
X71631428Y-85209700D02*
X71536190Y-85257319D01*
X71536190Y-85257319D02*
X71298095Y-85257319D01*
X71298095Y-85257319D02*
X71202857Y-85209700D01*
X71202857Y-85209700D02*
X71155238Y-85162080D01*
X32104819Y-32756666D02*
X31628628Y-33089999D01*
X32104819Y-33328094D02*
X31104819Y-33328094D01*
X31104819Y-33328094D02*
X31104819Y-32947142D01*
X31104819Y-32947142D02*
X31152438Y-32851904D01*
X31152438Y-32851904D02*
X31200057Y-32804285D01*
X31200057Y-32804285D02*
X31295295Y-32756666D01*
X31295295Y-32756666D02*
X31438152Y-32756666D01*
X31438152Y-32756666D02*
X31533390Y-32804285D01*
X31533390Y-32804285D02*
X31581009Y-32851904D01*
X31581009Y-32851904D02*
X31628628Y-32947142D01*
X31628628Y-32947142D02*
X31628628Y-33328094D01*
X31104819Y-32423332D02*
X31104819Y-31756666D01*
X31104819Y-31756666D02*
X32104819Y-32185237D01*
X40893333Y-52407319D02*
X40560000Y-51931128D01*
X40321905Y-52407319D02*
X40321905Y-51407319D01*
X40321905Y-51407319D02*
X40702857Y-51407319D01*
X40702857Y-51407319D02*
X40798095Y-51454938D01*
X40798095Y-51454938D02*
X40845714Y-51502557D01*
X40845714Y-51502557D02*
X40893333Y-51597795D01*
X40893333Y-51597795D02*
X40893333Y-51740652D01*
X40893333Y-51740652D02*
X40845714Y-51835890D01*
X40845714Y-51835890D02*
X40798095Y-51883509D01*
X40798095Y-51883509D02*
X40702857Y-51931128D01*
X40702857Y-51931128D02*
X40321905Y-51931128D01*
X41226667Y-51407319D02*
X41845714Y-51407319D01*
X41845714Y-51407319D02*
X41512381Y-51788271D01*
X41512381Y-51788271D02*
X41655238Y-51788271D01*
X41655238Y-51788271D02*
X41750476Y-51835890D01*
X41750476Y-51835890D02*
X41798095Y-51883509D01*
X41798095Y-51883509D02*
X41845714Y-51978747D01*
X41845714Y-51978747D02*
X41845714Y-52216842D01*
X41845714Y-52216842D02*
X41798095Y-52312080D01*
X41798095Y-52312080D02*
X41750476Y-52359700D01*
X41750476Y-52359700D02*
X41655238Y-52407319D01*
X41655238Y-52407319D02*
X41369524Y-52407319D01*
X41369524Y-52407319D02*
X41274286Y-52359700D01*
X41274286Y-52359700D02*
X41226667Y-52312080D01*
X40049999Y-16516033D02*
X39816666Y-16182700D01*
X39649999Y-16516033D02*
X39649999Y-15816033D01*
X39649999Y-15816033D02*
X39916666Y-15816033D01*
X39916666Y-15816033D02*
X39983333Y-15849366D01*
X39983333Y-15849366D02*
X40016666Y-15882700D01*
X40016666Y-15882700D02*
X40049999Y-15949366D01*
X40049999Y-15949366D02*
X40049999Y-16049366D01*
X40049999Y-16049366D02*
X40016666Y-16116033D01*
X40016666Y-16116033D02*
X39983333Y-16149366D01*
X39983333Y-16149366D02*
X39916666Y-16182700D01*
X39916666Y-16182700D02*
X39649999Y-16182700D01*
X40716666Y-16516033D02*
X40316666Y-16516033D01*
X40516666Y-16516033D02*
X40516666Y-15816033D01*
X40516666Y-15816033D02*
X40449999Y-15916033D01*
X40449999Y-15916033D02*
X40383333Y-15982700D01*
X40383333Y-15982700D02*
X40316666Y-16016033D01*
X41383333Y-16516033D02*
X40983333Y-16516033D01*
X41183333Y-16516033D02*
X41183333Y-15816033D01*
X41183333Y-15816033D02*
X41116666Y-15916033D01*
X41116666Y-15916033D02*
X41050000Y-15982700D01*
X41050000Y-15982700D02*
X40983333Y-16016033D01*
X24833333Y-69454819D02*
X24500000Y-68978628D01*
X24261905Y-69454819D02*
X24261905Y-68454819D01*
X24261905Y-68454819D02*
X24642857Y-68454819D01*
X24642857Y-68454819D02*
X24738095Y-68502438D01*
X24738095Y-68502438D02*
X24785714Y-68550057D01*
X24785714Y-68550057D02*
X24833333Y-68645295D01*
X24833333Y-68645295D02*
X24833333Y-68788152D01*
X24833333Y-68788152D02*
X24785714Y-68883390D01*
X24785714Y-68883390D02*
X24738095Y-68931009D01*
X24738095Y-68931009D02*
X24642857Y-68978628D01*
X24642857Y-68978628D02*
X24261905Y-68978628D01*
X25404762Y-68883390D02*
X25309524Y-68835771D01*
X25309524Y-68835771D02*
X25261905Y-68788152D01*
X25261905Y-68788152D02*
X25214286Y-68692914D01*
X25214286Y-68692914D02*
X25214286Y-68645295D01*
X25214286Y-68645295D02*
X25261905Y-68550057D01*
X25261905Y-68550057D02*
X25309524Y-68502438D01*
X25309524Y-68502438D02*
X25404762Y-68454819D01*
X25404762Y-68454819D02*
X25595238Y-68454819D01*
X25595238Y-68454819D02*
X25690476Y-68502438D01*
X25690476Y-68502438D02*
X25738095Y-68550057D01*
X25738095Y-68550057D02*
X25785714Y-68645295D01*
X25785714Y-68645295D02*
X25785714Y-68692914D01*
X25785714Y-68692914D02*
X25738095Y-68788152D01*
X25738095Y-68788152D02*
X25690476Y-68835771D01*
X25690476Y-68835771D02*
X25595238Y-68883390D01*
X25595238Y-68883390D02*
X25404762Y-68883390D01*
X25404762Y-68883390D02*
X25309524Y-68931009D01*
X25309524Y-68931009D02*
X25261905Y-68978628D01*
X25261905Y-68978628D02*
X25214286Y-69073866D01*
X25214286Y-69073866D02*
X25214286Y-69264342D01*
X25214286Y-69264342D02*
X25261905Y-69359580D01*
X25261905Y-69359580D02*
X25309524Y-69407200D01*
X25309524Y-69407200D02*
X25404762Y-69454819D01*
X25404762Y-69454819D02*
X25595238Y-69454819D01*
X25595238Y-69454819D02*
X25690476Y-69407200D01*
X25690476Y-69407200D02*
X25738095Y-69359580D01*
X25738095Y-69359580D02*
X25785714Y-69264342D01*
X25785714Y-69264342D02*
X25785714Y-69073866D01*
X25785714Y-69073866D02*
X25738095Y-68978628D01*
X25738095Y-68978628D02*
X25690476Y-68931009D01*
X25690476Y-68931009D02*
X25595238Y-68883390D01*
X41357142Y-31359580D02*
X41309523Y-31407200D01*
X41309523Y-31407200D02*
X41166666Y-31454819D01*
X41166666Y-31454819D02*
X41071428Y-31454819D01*
X41071428Y-31454819D02*
X40928571Y-31407200D01*
X40928571Y-31407200D02*
X40833333Y-31311961D01*
X40833333Y-31311961D02*
X40785714Y-31216723D01*
X40785714Y-31216723D02*
X40738095Y-31026247D01*
X40738095Y-31026247D02*
X40738095Y-30883390D01*
X40738095Y-30883390D02*
X40785714Y-30692914D01*
X40785714Y-30692914D02*
X40833333Y-30597676D01*
X40833333Y-30597676D02*
X40928571Y-30502438D01*
X40928571Y-30502438D02*
X41071428Y-30454819D01*
X41071428Y-30454819D02*
X41166666Y-30454819D01*
X41166666Y-30454819D02*
X41309523Y-30502438D01*
X41309523Y-30502438D02*
X41357142Y-30550057D01*
X41690476Y-30454819D02*
X42309523Y-30454819D01*
X42309523Y-30454819D02*
X41976190Y-30835771D01*
X41976190Y-30835771D02*
X42119047Y-30835771D01*
X42119047Y-30835771D02*
X42214285Y-30883390D01*
X42214285Y-30883390D02*
X42261904Y-30931009D01*
X42261904Y-30931009D02*
X42309523Y-31026247D01*
X42309523Y-31026247D02*
X42309523Y-31264342D01*
X42309523Y-31264342D02*
X42261904Y-31359580D01*
X42261904Y-31359580D02*
X42214285Y-31407200D01*
X42214285Y-31407200D02*
X42119047Y-31454819D01*
X42119047Y-31454819D02*
X41833333Y-31454819D01*
X41833333Y-31454819D02*
X41738095Y-31407200D01*
X41738095Y-31407200D02*
X41690476Y-31359580D01*
X43261904Y-31454819D02*
X42690476Y-31454819D01*
X42976190Y-31454819D02*
X42976190Y-30454819D01*
X42976190Y-30454819D02*
X42880952Y-30597676D01*
X42880952Y-30597676D02*
X42785714Y-30692914D01*
X42785714Y-30692914D02*
X42690476Y-30740533D01*
X49749999Y-18916033D02*
X49516666Y-18582700D01*
X49349999Y-18916033D02*
X49349999Y-18216033D01*
X49349999Y-18216033D02*
X49616666Y-18216033D01*
X49616666Y-18216033D02*
X49683333Y-18249366D01*
X49683333Y-18249366D02*
X49716666Y-18282700D01*
X49716666Y-18282700D02*
X49749999Y-18349366D01*
X49749999Y-18349366D02*
X49749999Y-18449366D01*
X49749999Y-18449366D02*
X49716666Y-18516033D01*
X49716666Y-18516033D02*
X49683333Y-18549366D01*
X49683333Y-18549366D02*
X49616666Y-18582700D01*
X49616666Y-18582700D02*
X49349999Y-18582700D01*
X50416666Y-18916033D02*
X50016666Y-18916033D01*
X50216666Y-18916033D02*
X50216666Y-18216033D01*
X50216666Y-18216033D02*
X50149999Y-18316033D01*
X50149999Y-18316033D02*
X50083333Y-18382700D01*
X50083333Y-18382700D02*
X50016666Y-18416033D01*
X50683333Y-18282700D02*
X50716666Y-18249366D01*
X50716666Y-18249366D02*
X50783333Y-18216033D01*
X50783333Y-18216033D02*
X50950000Y-18216033D01*
X50950000Y-18216033D02*
X51016666Y-18249366D01*
X51016666Y-18249366D02*
X51050000Y-18282700D01*
X51050000Y-18282700D02*
X51083333Y-18349366D01*
X51083333Y-18349366D02*
X51083333Y-18416033D01*
X51083333Y-18416033D02*
X51050000Y-18516033D01*
X51050000Y-18516033D02*
X50650000Y-18916033D01*
X50650000Y-18916033D02*
X51083333Y-18916033D01*
X48393333Y-58162080D02*
X48345714Y-58209700D01*
X48345714Y-58209700D02*
X48202857Y-58257319D01*
X48202857Y-58257319D02*
X48107619Y-58257319D01*
X48107619Y-58257319D02*
X47964762Y-58209700D01*
X47964762Y-58209700D02*
X47869524Y-58114461D01*
X47869524Y-58114461D02*
X47821905Y-58019223D01*
X47821905Y-58019223D02*
X47774286Y-57828747D01*
X47774286Y-57828747D02*
X47774286Y-57685890D01*
X47774286Y-57685890D02*
X47821905Y-57495414D01*
X47821905Y-57495414D02*
X47869524Y-57400176D01*
X47869524Y-57400176D02*
X47964762Y-57304938D01*
X47964762Y-57304938D02*
X48107619Y-57257319D01*
X48107619Y-57257319D02*
X48202857Y-57257319D01*
X48202857Y-57257319D02*
X48345714Y-57304938D01*
X48345714Y-57304938D02*
X48393333Y-57352557D01*
X48869524Y-58257319D02*
X49060000Y-58257319D01*
X49060000Y-58257319D02*
X49155238Y-58209700D01*
X49155238Y-58209700D02*
X49202857Y-58162080D01*
X49202857Y-58162080D02*
X49298095Y-58019223D01*
X49298095Y-58019223D02*
X49345714Y-57828747D01*
X49345714Y-57828747D02*
X49345714Y-57447795D01*
X49345714Y-57447795D02*
X49298095Y-57352557D01*
X49298095Y-57352557D02*
X49250476Y-57304938D01*
X49250476Y-57304938D02*
X49155238Y-57257319D01*
X49155238Y-57257319D02*
X48964762Y-57257319D01*
X48964762Y-57257319D02*
X48869524Y-57304938D01*
X48869524Y-57304938D02*
X48821905Y-57352557D01*
X48821905Y-57352557D02*
X48774286Y-57447795D01*
X48774286Y-57447795D02*
X48774286Y-57685890D01*
X48774286Y-57685890D02*
X48821905Y-57781128D01*
X48821905Y-57781128D02*
X48869524Y-57828747D01*
X48869524Y-57828747D02*
X48964762Y-57876366D01*
X48964762Y-57876366D02*
X49155238Y-57876366D01*
X49155238Y-57876366D02*
X49250476Y-57828747D01*
X49250476Y-57828747D02*
X49298095Y-57781128D01*
X49298095Y-57781128D02*
X49345714Y-57685890D01*
X60859580Y-79142857D02*
X60907200Y-79190476D01*
X60907200Y-79190476D02*
X60954819Y-79333333D01*
X60954819Y-79333333D02*
X60954819Y-79428571D01*
X60954819Y-79428571D02*
X60907200Y-79571428D01*
X60907200Y-79571428D02*
X60811961Y-79666666D01*
X60811961Y-79666666D02*
X60716723Y-79714285D01*
X60716723Y-79714285D02*
X60526247Y-79761904D01*
X60526247Y-79761904D02*
X60383390Y-79761904D01*
X60383390Y-79761904D02*
X60192914Y-79714285D01*
X60192914Y-79714285D02*
X60097676Y-79666666D01*
X60097676Y-79666666D02*
X60002438Y-79571428D01*
X60002438Y-79571428D02*
X59954819Y-79428571D01*
X59954819Y-79428571D02*
X59954819Y-79333333D01*
X59954819Y-79333333D02*
X60002438Y-79190476D01*
X60002438Y-79190476D02*
X60050057Y-79142857D01*
X60050057Y-78761904D02*
X60002438Y-78714285D01*
X60002438Y-78714285D02*
X59954819Y-78619047D01*
X59954819Y-78619047D02*
X59954819Y-78380952D01*
X59954819Y-78380952D02*
X60002438Y-78285714D01*
X60002438Y-78285714D02*
X60050057Y-78238095D01*
X60050057Y-78238095D02*
X60145295Y-78190476D01*
X60145295Y-78190476D02*
X60240533Y-78190476D01*
X60240533Y-78190476D02*
X60383390Y-78238095D01*
X60383390Y-78238095D02*
X60954819Y-78809523D01*
X60954819Y-78809523D02*
X60954819Y-78190476D01*
X60288152Y-77333333D02*
X60954819Y-77333333D01*
X59907200Y-77571428D02*
X60621485Y-77809523D01*
X60621485Y-77809523D02*
X60621485Y-77190476D01*
X38949999Y-18216033D02*
X38716666Y-17882700D01*
X38549999Y-18216033D02*
X38549999Y-17516033D01*
X38549999Y-17516033D02*
X38816666Y-17516033D01*
X38816666Y-17516033D02*
X38883333Y-17549366D01*
X38883333Y-17549366D02*
X38916666Y-17582700D01*
X38916666Y-17582700D02*
X38949999Y-17649366D01*
X38949999Y-17649366D02*
X38949999Y-17749366D01*
X38949999Y-17749366D02*
X38916666Y-17816033D01*
X38916666Y-17816033D02*
X38883333Y-17849366D01*
X38883333Y-17849366D02*
X38816666Y-17882700D01*
X38816666Y-17882700D02*
X38549999Y-17882700D01*
X39616666Y-18216033D02*
X39216666Y-18216033D01*
X39416666Y-18216033D02*
X39416666Y-17516033D01*
X39416666Y-17516033D02*
X39349999Y-17616033D01*
X39349999Y-17616033D02*
X39283333Y-17682700D01*
X39283333Y-17682700D02*
X39216666Y-17716033D01*
X39850000Y-17516033D02*
X40283333Y-17516033D01*
X40283333Y-17516033D02*
X40050000Y-17782700D01*
X40050000Y-17782700D02*
X40150000Y-17782700D01*
X40150000Y-17782700D02*
X40216666Y-17816033D01*
X40216666Y-17816033D02*
X40250000Y-17849366D01*
X40250000Y-17849366D02*
X40283333Y-17916033D01*
X40283333Y-17916033D02*
X40283333Y-18082700D01*
X40283333Y-18082700D02*
X40250000Y-18149366D01*
X40250000Y-18149366D02*
X40216666Y-18182700D01*
X40216666Y-18182700D02*
X40150000Y-18216033D01*
X40150000Y-18216033D02*
X39950000Y-18216033D01*
X39950000Y-18216033D02*
X39883333Y-18182700D01*
X39883333Y-18182700D02*
X39850000Y-18149366D01*
X12174819Y-46973333D02*
X12889104Y-46973333D01*
X12889104Y-46973333D02*
X13031961Y-47020952D01*
X13031961Y-47020952D02*
X13127200Y-47116190D01*
X13127200Y-47116190D02*
X13174819Y-47259047D01*
X13174819Y-47259047D02*
X13174819Y-47354285D01*
X12603390Y-46354285D02*
X12555771Y-46449523D01*
X12555771Y-46449523D02*
X12508152Y-46497142D01*
X12508152Y-46497142D02*
X12412914Y-46544761D01*
X12412914Y-46544761D02*
X12365295Y-46544761D01*
X12365295Y-46544761D02*
X12270057Y-46497142D01*
X12270057Y-46497142D02*
X12222438Y-46449523D01*
X12222438Y-46449523D02*
X12174819Y-46354285D01*
X12174819Y-46354285D02*
X12174819Y-46163809D01*
X12174819Y-46163809D02*
X12222438Y-46068571D01*
X12222438Y-46068571D02*
X12270057Y-46020952D01*
X12270057Y-46020952D02*
X12365295Y-45973333D01*
X12365295Y-45973333D02*
X12412914Y-45973333D01*
X12412914Y-45973333D02*
X12508152Y-46020952D01*
X12508152Y-46020952D02*
X12555771Y-46068571D01*
X12555771Y-46068571D02*
X12603390Y-46163809D01*
X12603390Y-46163809D02*
X12603390Y-46354285D01*
X12603390Y-46354285D02*
X12651009Y-46449523D01*
X12651009Y-46449523D02*
X12698628Y-46497142D01*
X12698628Y-46497142D02*
X12793866Y-46544761D01*
X12793866Y-46544761D02*
X12984342Y-46544761D01*
X12984342Y-46544761D02*
X13079580Y-46497142D01*
X13079580Y-46497142D02*
X13127200Y-46449523D01*
X13127200Y-46449523D02*
X13174819Y-46354285D01*
X13174819Y-46354285D02*
X13174819Y-46163809D01*
X13174819Y-46163809D02*
X13127200Y-46068571D01*
X13127200Y-46068571D02*
X13079580Y-46020952D01*
X13079580Y-46020952D02*
X12984342Y-45973333D01*
X12984342Y-45973333D02*
X12793866Y-45973333D01*
X12793866Y-45973333D02*
X12698628Y-46020952D01*
X12698628Y-46020952D02*
X12651009Y-46068571D01*
X12651009Y-46068571D02*
X12603390Y-46163809D01*
X39014819Y-61369166D02*
X38538628Y-61702499D01*
X39014819Y-61940594D02*
X38014819Y-61940594D01*
X38014819Y-61940594D02*
X38014819Y-61559642D01*
X38014819Y-61559642D02*
X38062438Y-61464404D01*
X38062438Y-61464404D02*
X38110057Y-61416785D01*
X38110057Y-61416785D02*
X38205295Y-61369166D01*
X38205295Y-61369166D02*
X38348152Y-61369166D01*
X38348152Y-61369166D02*
X38443390Y-61416785D01*
X38443390Y-61416785D02*
X38491009Y-61464404D01*
X38491009Y-61464404D02*
X38538628Y-61559642D01*
X38538628Y-61559642D02*
X38538628Y-61940594D01*
X38014819Y-60512023D02*
X38014819Y-60702499D01*
X38014819Y-60702499D02*
X38062438Y-60797737D01*
X38062438Y-60797737D02*
X38110057Y-60845356D01*
X38110057Y-60845356D02*
X38252914Y-60940594D01*
X38252914Y-60940594D02*
X38443390Y-60988213D01*
X38443390Y-60988213D02*
X38824342Y-60988213D01*
X38824342Y-60988213D02*
X38919580Y-60940594D01*
X38919580Y-60940594D02*
X38967200Y-60892975D01*
X38967200Y-60892975D02*
X39014819Y-60797737D01*
X39014819Y-60797737D02*
X39014819Y-60607261D01*
X39014819Y-60607261D02*
X38967200Y-60512023D01*
X38967200Y-60512023D02*
X38919580Y-60464404D01*
X38919580Y-60464404D02*
X38824342Y-60416785D01*
X38824342Y-60416785D02*
X38586247Y-60416785D01*
X38586247Y-60416785D02*
X38491009Y-60464404D01*
X38491009Y-60464404D02*
X38443390Y-60512023D01*
X38443390Y-60512023D02*
X38395771Y-60607261D01*
X38395771Y-60607261D02*
X38395771Y-60797737D01*
X38395771Y-60797737D02*
X38443390Y-60892975D01*
X38443390Y-60892975D02*
X38491009Y-60940594D01*
X38491009Y-60940594D02*
X38586247Y-60988213D01*
D10*
X58007143Y-58172371D02*
X58007143Y-57572371D01*
X58007143Y-57572371D02*
X58150000Y-57572371D01*
X58150000Y-57572371D02*
X58235714Y-57600942D01*
X58235714Y-57600942D02*
X58292857Y-57658085D01*
X58292857Y-57658085D02*
X58321428Y-57715228D01*
X58321428Y-57715228D02*
X58350000Y-57829514D01*
X58350000Y-57829514D02*
X58350000Y-57915228D01*
X58350000Y-57915228D02*
X58321428Y-58029514D01*
X58321428Y-58029514D02*
X58292857Y-58086657D01*
X58292857Y-58086657D02*
X58235714Y-58143800D01*
X58235714Y-58143800D02*
X58150000Y-58172371D01*
X58150000Y-58172371D02*
X58007143Y-58172371D01*
X58550000Y-57572371D02*
X58921428Y-57572371D01*
X58921428Y-57572371D02*
X58721428Y-57800942D01*
X58721428Y-57800942D02*
X58807143Y-57800942D01*
X58807143Y-57800942D02*
X58864286Y-57829514D01*
X58864286Y-57829514D02*
X58892857Y-57858085D01*
X58892857Y-57858085D02*
X58921428Y-57915228D01*
X58921428Y-57915228D02*
X58921428Y-58058085D01*
X58921428Y-58058085D02*
X58892857Y-58115228D01*
X58892857Y-58115228D02*
X58864286Y-58143800D01*
X58864286Y-58143800D02*
X58807143Y-58172371D01*
X58807143Y-58172371D02*
X58635714Y-58172371D01*
X58635714Y-58172371D02*
X58578571Y-58143800D01*
X58578571Y-58143800D02*
X58550000Y-58115228D01*
D13*
X12074819Y-23473333D02*
X12789104Y-23473333D01*
X12789104Y-23473333D02*
X12931961Y-23520952D01*
X12931961Y-23520952D02*
X13027200Y-23616190D01*
X13027200Y-23616190D02*
X13074819Y-23759047D01*
X13074819Y-23759047D02*
X13074819Y-23854285D01*
X12074819Y-22568571D02*
X12074819Y-22759047D01*
X12074819Y-22759047D02*
X12122438Y-22854285D01*
X12122438Y-22854285D02*
X12170057Y-22901904D01*
X12170057Y-22901904D02*
X12312914Y-22997142D01*
X12312914Y-22997142D02*
X12503390Y-23044761D01*
X12503390Y-23044761D02*
X12884342Y-23044761D01*
X12884342Y-23044761D02*
X12979580Y-22997142D01*
X12979580Y-22997142D02*
X13027200Y-22949523D01*
X13027200Y-22949523D02*
X13074819Y-22854285D01*
X13074819Y-22854285D02*
X13074819Y-22663809D01*
X13074819Y-22663809D02*
X13027200Y-22568571D01*
X13027200Y-22568571D02*
X12979580Y-22520952D01*
X12979580Y-22520952D02*
X12884342Y-22473333D01*
X12884342Y-22473333D02*
X12646247Y-22473333D01*
X12646247Y-22473333D02*
X12551009Y-22520952D01*
X12551009Y-22520952D02*
X12503390Y-22568571D01*
X12503390Y-22568571D02*
X12455771Y-22663809D01*
X12455771Y-22663809D02*
X12455771Y-22854285D01*
X12455771Y-22854285D02*
X12503390Y-22949523D01*
X12503390Y-22949523D02*
X12551009Y-22997142D01*
X12551009Y-22997142D02*
X12646247Y-23044761D01*
X66993333Y-29957319D02*
X66517143Y-29957319D01*
X66517143Y-29957319D02*
X66517143Y-28957319D01*
X67850476Y-29957319D02*
X67279048Y-29957319D01*
X67564762Y-29957319D02*
X67564762Y-28957319D01*
X67564762Y-28957319D02*
X67469524Y-29100176D01*
X67469524Y-29100176D02*
X67374286Y-29195414D01*
X67374286Y-29195414D02*
X67279048Y-29243033D01*
X44819580Y-63245357D02*
X44867200Y-63292976D01*
X44867200Y-63292976D02*
X44914819Y-63435833D01*
X44914819Y-63435833D02*
X44914819Y-63531071D01*
X44914819Y-63531071D02*
X44867200Y-63673928D01*
X44867200Y-63673928D02*
X44771961Y-63769166D01*
X44771961Y-63769166D02*
X44676723Y-63816785D01*
X44676723Y-63816785D02*
X44486247Y-63864404D01*
X44486247Y-63864404D02*
X44343390Y-63864404D01*
X44343390Y-63864404D02*
X44152914Y-63816785D01*
X44152914Y-63816785D02*
X44057676Y-63769166D01*
X44057676Y-63769166D02*
X43962438Y-63673928D01*
X43962438Y-63673928D02*
X43914819Y-63531071D01*
X43914819Y-63531071D02*
X43914819Y-63435833D01*
X43914819Y-63435833D02*
X43962438Y-63292976D01*
X43962438Y-63292976D02*
X44010057Y-63245357D01*
X44914819Y-62292976D02*
X44914819Y-62864404D01*
X44914819Y-62578690D02*
X43914819Y-62578690D01*
X43914819Y-62578690D02*
X44057676Y-62673928D01*
X44057676Y-62673928D02*
X44152914Y-62769166D01*
X44152914Y-62769166D02*
X44200533Y-62864404D01*
X43914819Y-61673928D02*
X43914819Y-61578690D01*
X43914819Y-61578690D02*
X43962438Y-61483452D01*
X43962438Y-61483452D02*
X44010057Y-61435833D01*
X44010057Y-61435833D02*
X44105295Y-61388214D01*
X44105295Y-61388214D02*
X44295771Y-61340595D01*
X44295771Y-61340595D02*
X44533866Y-61340595D01*
X44533866Y-61340595D02*
X44724342Y-61388214D01*
X44724342Y-61388214D02*
X44819580Y-61435833D01*
X44819580Y-61435833D02*
X44867200Y-61483452D01*
X44867200Y-61483452D02*
X44914819Y-61578690D01*
X44914819Y-61578690D02*
X44914819Y-61673928D01*
X44914819Y-61673928D02*
X44867200Y-61769166D01*
X44867200Y-61769166D02*
X44819580Y-61816785D01*
X44819580Y-61816785D02*
X44724342Y-61864404D01*
X44724342Y-61864404D02*
X44533866Y-61912023D01*
X44533866Y-61912023D02*
X44295771Y-61912023D01*
X44295771Y-61912023D02*
X44105295Y-61864404D01*
X44105295Y-61864404D02*
X44010057Y-61816785D01*
X44010057Y-61816785D02*
X43962438Y-61769166D01*
X43962438Y-61769166D02*
X43914819Y-61673928D01*
X74014819Y-55564404D02*
X74014819Y-54992976D01*
X75014819Y-55278690D02*
X74014819Y-55278690D01*
X75014819Y-54659642D02*
X74014819Y-54659642D01*
X74014819Y-54659642D02*
X74014819Y-54278690D01*
X74014819Y-54278690D02*
X74062438Y-54183452D01*
X74062438Y-54183452D02*
X74110057Y-54135833D01*
X74110057Y-54135833D02*
X74205295Y-54088214D01*
X74205295Y-54088214D02*
X74348152Y-54088214D01*
X74348152Y-54088214D02*
X74443390Y-54135833D01*
X74443390Y-54135833D02*
X74491009Y-54183452D01*
X74491009Y-54183452D02*
X74538628Y-54278690D01*
X74538628Y-54278690D02*
X74538628Y-54659642D01*
X74348152Y-53231071D02*
X75014819Y-53231071D01*
X73967200Y-53469166D02*
X74681485Y-53707261D01*
X74681485Y-53707261D02*
X74681485Y-53088214D01*
D10*
X66782856Y-3392371D02*
X67125714Y-3392371D01*
X66954285Y-3992371D02*
X66954285Y-3392371D01*
X67325714Y-3992371D02*
X67325714Y-3392371D01*
X67325714Y-3392371D02*
X67554285Y-3392371D01*
X67554285Y-3392371D02*
X67611428Y-3420942D01*
X67611428Y-3420942D02*
X67639999Y-3449514D01*
X67639999Y-3449514D02*
X67668571Y-3506657D01*
X67668571Y-3506657D02*
X67668571Y-3592371D01*
X67668571Y-3592371D02*
X67639999Y-3649514D01*
X67639999Y-3649514D02*
X67611428Y-3678085D01*
X67611428Y-3678085D02*
X67554285Y-3706657D01*
X67554285Y-3706657D02*
X67325714Y-3706657D01*
X67868571Y-3392371D02*
X68239999Y-3392371D01*
X68239999Y-3392371D02*
X68039999Y-3620942D01*
X68039999Y-3620942D02*
X68125714Y-3620942D01*
X68125714Y-3620942D02*
X68182857Y-3649514D01*
X68182857Y-3649514D02*
X68211428Y-3678085D01*
X68211428Y-3678085D02*
X68239999Y-3735228D01*
X68239999Y-3735228D02*
X68239999Y-3878085D01*
X68239999Y-3878085D02*
X68211428Y-3935228D01*
X68211428Y-3935228D02*
X68182857Y-3963800D01*
X68182857Y-3963800D02*
X68125714Y-3992371D01*
X68125714Y-3992371D02*
X67954285Y-3992371D01*
X67954285Y-3992371D02*
X67897142Y-3963800D01*
X67897142Y-3963800D02*
X67868571Y-3935228D01*
D13*
X53137142Y-94422080D02*
X53089523Y-94469700D01*
X53089523Y-94469700D02*
X52946666Y-94517319D01*
X52946666Y-94517319D02*
X52851428Y-94517319D01*
X52851428Y-94517319D02*
X52708571Y-94469700D01*
X52708571Y-94469700D02*
X52613333Y-94374461D01*
X52613333Y-94374461D02*
X52565714Y-94279223D01*
X52565714Y-94279223D02*
X52518095Y-94088747D01*
X52518095Y-94088747D02*
X52518095Y-93945890D01*
X52518095Y-93945890D02*
X52565714Y-93755414D01*
X52565714Y-93755414D02*
X52613333Y-93660176D01*
X52613333Y-93660176D02*
X52708571Y-93564938D01*
X52708571Y-93564938D02*
X52851428Y-93517319D01*
X52851428Y-93517319D02*
X52946666Y-93517319D01*
X52946666Y-93517319D02*
X53089523Y-93564938D01*
X53089523Y-93564938D02*
X53137142Y-93612557D01*
X53518095Y-93612557D02*
X53565714Y-93564938D01*
X53565714Y-93564938D02*
X53660952Y-93517319D01*
X53660952Y-93517319D02*
X53899047Y-93517319D01*
X53899047Y-93517319D02*
X53994285Y-93564938D01*
X53994285Y-93564938D02*
X54041904Y-93612557D01*
X54041904Y-93612557D02*
X54089523Y-93707795D01*
X54089523Y-93707795D02*
X54089523Y-93803033D01*
X54089523Y-93803033D02*
X54041904Y-93945890D01*
X54041904Y-93945890D02*
X53470476Y-94517319D01*
X53470476Y-94517319D02*
X54089523Y-94517319D01*
X54994285Y-93517319D02*
X54518095Y-93517319D01*
X54518095Y-93517319D02*
X54470476Y-93993509D01*
X54470476Y-93993509D02*
X54518095Y-93945890D01*
X54518095Y-93945890D02*
X54613333Y-93898271D01*
X54613333Y-93898271D02*
X54851428Y-93898271D01*
X54851428Y-93898271D02*
X54946666Y-93945890D01*
X54946666Y-93945890D02*
X54994285Y-93993509D01*
X54994285Y-93993509D02*
X55041904Y-94088747D01*
X55041904Y-94088747D02*
X55041904Y-94326842D01*
X55041904Y-94326842D02*
X54994285Y-94422080D01*
X54994285Y-94422080D02*
X54946666Y-94469700D01*
X54946666Y-94469700D02*
X54851428Y-94517319D01*
X54851428Y-94517319D02*
X54613333Y-94517319D01*
X54613333Y-94517319D02*
X54518095Y-94469700D01*
X54518095Y-94469700D02*
X54470476Y-94422080D01*
X46558095Y-70744819D02*
X46558095Y-71554342D01*
X46558095Y-71554342D02*
X46605714Y-71649580D01*
X46605714Y-71649580D02*
X46653333Y-71697200D01*
X46653333Y-71697200D02*
X46748571Y-71744819D01*
X46748571Y-71744819D02*
X46939047Y-71744819D01*
X46939047Y-71744819D02*
X47034285Y-71697200D01*
X47034285Y-71697200D02*
X47081904Y-71649580D01*
X47081904Y-71649580D02*
X47129523Y-71554342D01*
X47129523Y-71554342D02*
X47129523Y-70744819D01*
X48034285Y-71078152D02*
X48034285Y-71744819D01*
X47796190Y-70697200D02*
X47558095Y-71411485D01*
X47558095Y-71411485D02*
X48177142Y-71411485D01*
X51666666Y-51304819D02*
X51333333Y-50828628D01*
X51095238Y-51304819D02*
X51095238Y-50304819D01*
X51095238Y-50304819D02*
X51476190Y-50304819D01*
X51476190Y-50304819D02*
X51571428Y-50352438D01*
X51571428Y-50352438D02*
X51619047Y-50400057D01*
X51619047Y-50400057D02*
X51666666Y-50495295D01*
X51666666Y-50495295D02*
X51666666Y-50638152D01*
X51666666Y-50638152D02*
X51619047Y-50733390D01*
X51619047Y-50733390D02*
X51571428Y-50781009D01*
X51571428Y-50781009D02*
X51476190Y-50828628D01*
X51476190Y-50828628D02*
X51095238Y-50828628D01*
X52095238Y-50781009D02*
X52428571Y-50781009D01*
X52571428Y-51304819D02*
X52095238Y-51304819D01*
X52095238Y-51304819D02*
X52095238Y-50304819D01*
X52095238Y-50304819D02*
X52571428Y-50304819D01*
X53333333Y-50781009D02*
X53000000Y-50781009D01*
X53000000Y-51304819D02*
X53000000Y-50304819D01*
X53000000Y-50304819D02*
X53476190Y-50304819D01*
X54000000Y-50304819D02*
X54000000Y-50542914D01*
X53761905Y-50447676D02*
X54000000Y-50542914D01*
X54000000Y-50542914D02*
X54238095Y-50447676D01*
X53857143Y-50733390D02*
X54000000Y-50542914D01*
X54000000Y-50542914D02*
X54142857Y-50733390D01*
X54761905Y-50304819D02*
X54761905Y-50542914D01*
X54523810Y-50447676D02*
X54761905Y-50542914D01*
X54761905Y-50542914D02*
X55000000Y-50447676D01*
X54619048Y-50733390D02*
X54761905Y-50542914D01*
X54761905Y-50542914D02*
X54904762Y-50733390D01*
%TO.C,U2*%
X47500000Y-19942500D02*
X47500000Y-30262500D01*
X47850000Y-19942500D02*
X49660000Y-19942500D01*
X47870000Y-30262500D02*
X49660000Y-30262500D01*
X47970000Y-19942500D02*
X47500000Y-19942500D01*
X47970000Y-30262500D02*
X47500000Y-30262500D01*
D17*
X44140000Y-20532500D02*
G75*
G02*
X43740000Y-20532500I-200000J0D01*
G01*
X43740000Y-20532500D02*
G75*
G02*
X44140000Y-20532500I200000J0D01*
G01*
D13*
%TO.C,C1*%
X38040000Y-9990000D02*
X38040000Y-8110000D01*
X38190000Y-7960000D02*
X39670000Y-7960000D01*
X39670000Y-10140000D02*
X38190000Y-10140000D01*
X41530000Y-10140000D02*
X43010000Y-10140000D01*
X43010000Y-7960000D02*
X41530000Y-7960000D01*
X43160000Y-9990000D02*
X43160000Y-8110000D01*
X38040000Y-8110000D02*
G75*
G02*
X38190000Y-7960000I150000J0D01*
G01*
X38190000Y-10140000D02*
G75*
G02*
X38040000Y-9990000I0J150000D01*
G01*
X43010000Y-7960000D02*
G75*
G02*
X43160000Y-8110000I0J-150000D01*
G01*
X43160000Y-9990000D02*
G75*
G02*
X43010000Y-10140000I-150000J0D01*
G01*
%TO.C,C2*%
X46060000Y-7770000D02*
X46060000Y-9270000D01*
X46210000Y-9420000D02*
X47620000Y-9420000D01*
X47620000Y-7620000D02*
X46210000Y-7620000D01*
X48420000Y-7620000D02*
X49830000Y-7620000D01*
X49830000Y-9420000D02*
X48420000Y-9420000D01*
X49980000Y-7770000D02*
X49980000Y-9270000D01*
X46060000Y-7770000D02*
G75*
G02*
X46210000Y-7620000I150000J0D01*
G01*
X46210000Y-9420000D02*
G75*
G02*
X46060000Y-9270000I0J150000D01*
G01*
X49830000Y-7620000D02*
G75*
G02*
X49980000Y-7770000I0J-150000D01*
G01*
X49980000Y-9270000D02*
G75*
G02*
X49830000Y-9420000I-150000J0D01*
G01*
%TO.C,C3*%
X61990000Y-9410000D02*
X61990000Y-11650000D01*
X61990000Y-15590000D02*
X61990000Y-13350000D01*
X64130000Y-7280000D02*
X61990000Y-9410000D01*
X64130000Y-17730000D02*
X61990000Y-15590000D01*
X72440000Y-7280000D02*
X64130000Y-7280000D01*
X72440000Y-11650000D02*
X72440000Y-7280000D01*
X72440000Y-13350000D02*
X72440000Y-17730000D01*
X72440000Y-17730000D02*
X64130000Y-17730000D01*
%TO.C,C4*%
X65180000Y-52072500D02*
X66580000Y-50672500D01*
X65180000Y-57432500D02*
X65180000Y-52072500D01*
X66580000Y-50672500D02*
X67870000Y-50692500D01*
X67820000Y-57412500D02*
X65180000Y-57432500D01*
X69270000Y-57422500D02*
X71940000Y-57432500D01*
X70540000Y-50672500D02*
X69250000Y-50672500D01*
X71940000Y-52072500D02*
X70540000Y-50672500D01*
X71940000Y-57432500D02*
X71940000Y-52072500D01*
%TO.C,C5*%
X53840000Y-11130000D02*
X53840000Y-16480000D01*
X53840000Y-16480000D02*
X55240000Y-17880000D01*
X55240000Y-17880000D02*
X56530000Y-17880000D01*
X56510000Y-11140000D02*
X53840000Y-11130000D01*
X57950000Y-11150000D02*
X60590000Y-11130000D01*
X59200000Y-17880000D02*
X57900000Y-17870000D01*
X60590000Y-11130000D02*
X60590000Y-16490000D01*
X60590000Y-16490000D02*
X59200000Y-17880000D01*
%TO.C,C6*%
X38840000Y-19150000D02*
X38840000Y-20650000D01*
X38990000Y-20800000D02*
X40400000Y-20800000D01*
X40400000Y-19000000D02*
X38990000Y-19000000D01*
X41200000Y-19000000D02*
X42610000Y-19000000D01*
X42610000Y-20800000D02*
X41200000Y-20800000D01*
X42760000Y-19150000D02*
X42760000Y-20650000D01*
X38840000Y-19150000D02*
G75*
G02*
X38990000Y-19000000I150000J0D01*
G01*
X38990000Y-20800000D02*
G75*
G02*
X38840000Y-20650000I0J150000D01*
G01*
X42610000Y-19000000D02*
G75*
G02*
X42760000Y-19150000I0J-150000D01*
G01*
X42760000Y-20650000D02*
G75*
G02*
X42610000Y-20800000I-150000J0D01*
G01*
%TO.C,C7*%
X39420000Y-32532500D02*
X44780000Y-32532500D01*
X39420000Y-39282500D02*
X44770000Y-39282500D01*
X39430000Y-36612500D02*
X39420000Y-39282500D01*
X39440000Y-35172500D02*
X39420000Y-32532500D01*
X44770000Y-39282500D02*
X46170000Y-37882500D01*
X44780000Y-32532500D02*
X46170000Y-33922500D01*
X46170000Y-33922500D02*
X46160000Y-35222500D01*
X46170000Y-37882500D02*
X46170000Y-36592500D01*
%TO.C,C8*%
X41100000Y-40052500D02*
X41100000Y-41552500D01*
X41250000Y-41702500D02*
X42660000Y-41702500D01*
X42660000Y-39902500D02*
X41250000Y-39902500D01*
X43460000Y-39902500D02*
X44870000Y-39902500D01*
X44870000Y-41702500D02*
X43460000Y-41702500D01*
X45020000Y-40052500D02*
X45020000Y-41552500D01*
X41100000Y-40052500D02*
G75*
G02*
X41250000Y-39902500I150000J0D01*
G01*
X41250000Y-41702500D02*
G75*
G02*
X41100000Y-41552500I0J150000D01*
G01*
X44870000Y-39902500D02*
G75*
G02*
X45020000Y-40052500I0J-150000D01*
G01*
X45020000Y-41552500D02*
G75*
G02*
X44870000Y-41702500I-150000J0D01*
G01*
%TO.C,C11*%
X63340000Y-73072500D02*
X71650000Y-73072500D01*
X63340000Y-77452500D02*
X63340000Y-73072500D01*
X63340000Y-79152500D02*
X63340000Y-83522500D01*
X63340000Y-83522500D02*
X71650000Y-83522500D01*
X71650000Y-73072500D02*
X73790000Y-75212500D01*
X71650000Y-83522500D02*
X73790000Y-81392500D01*
X73790000Y-75212500D02*
X73790000Y-77452500D01*
X73790000Y-81392500D02*
X73790000Y-79152500D01*
%TO.C,C14*%
X15730000Y-54072500D02*
X24040000Y-54072500D01*
X15730000Y-58452500D02*
X15730000Y-54072500D01*
X15730000Y-60152500D02*
X15730000Y-64522500D01*
X15730000Y-64522500D02*
X24040000Y-64522500D01*
X24040000Y-54072500D02*
X26180000Y-56212500D01*
X24040000Y-64522500D02*
X26180000Y-62392500D01*
X26180000Y-56212500D02*
X26180000Y-58452500D01*
X26180000Y-62392500D02*
X26180000Y-60152500D01*
D18*
%TO.C,C15*%
X36040000Y-87470000D02*
X36040000Y-86670000D01*
X36040000Y-88030000D02*
X36040000Y-88830000D01*
X36350000Y-86360000D02*
X37150000Y-86360000D01*
X37150000Y-89140000D02*
X36350000Y-89140000D01*
X37460000Y-87470000D02*
X37460000Y-86670000D01*
X37460000Y-88030000D02*
X37460000Y-88830000D01*
X36040000Y-86670000D02*
G75*
G02*
X36350000Y-86360000I310000J0D01*
G01*
X36350000Y-89140000D02*
G75*
G02*
X36040000Y-88830000I0J310000D01*
G01*
X37150000Y-86360000D02*
G75*
G02*
X37460000Y-86670000I0J-310000D01*
G01*
X37460000Y-88830000D02*
G75*
G02*
X37150000Y-89140000I-310000J0D01*
G01*
D13*
%TO.C,C17*%
X32450000Y-41802500D02*
X32450000Y-40392500D01*
X32450000Y-42602500D02*
X32450000Y-44012500D01*
X32600000Y-40242500D02*
X34100000Y-40242500D01*
X32600000Y-44162500D02*
X34100000Y-44162500D01*
X34250000Y-40392500D02*
X34250000Y-41802500D01*
X34250000Y-44012500D02*
X34250000Y-42602500D01*
X32450000Y-40392500D02*
G75*
G02*
X32600000Y-40242500I150000J0D01*
G01*
X32600000Y-44162500D02*
G75*
G02*
X32450000Y-44012500I0J150000D01*
G01*
X34100000Y-40242500D02*
G75*
G02*
X34250000Y-40392500I0J-150000D01*
G01*
X34250000Y-44012500D02*
G75*
G02*
X34100000Y-44162500I-150000J0D01*
G01*
%TO.C,C18*%
X34970000Y-74932500D02*
X34970000Y-76342500D01*
X34970000Y-78552500D02*
X34970000Y-77142500D01*
X36620000Y-74782500D02*
X35120000Y-74782500D01*
X36620000Y-78702500D02*
X35120000Y-78702500D01*
X36770000Y-76342500D02*
X36770000Y-74932500D01*
X36770000Y-77142500D02*
X36770000Y-78552500D01*
X34970000Y-74932500D02*
G75*
G02*
X35120000Y-74782500I150000J0D01*
G01*
X35120000Y-78702500D02*
G75*
G02*
X34970000Y-78552500I0J150000D01*
G01*
X36620000Y-74782500D02*
G75*
G02*
X36770000Y-74932500I0J-150000D01*
G01*
X36770000Y-78552500D02*
G75*
G02*
X36620000Y-78702500I-150000J0D01*
G01*
%TO.C,C20*%
X26820000Y-56312500D02*
X28960000Y-54172500D01*
X26820000Y-64622500D02*
X26820000Y-56312500D01*
X28960000Y-54172500D02*
X31200000Y-54172500D01*
X31200000Y-64622500D02*
X26820000Y-64622500D01*
X32900000Y-64622500D02*
X37270000Y-64622500D01*
X35140000Y-54172500D02*
X32900000Y-54172500D01*
X37270000Y-56312500D02*
X35140000Y-54172500D01*
X37270000Y-64622500D02*
X37270000Y-56312500D01*
%TO.C,C21*%
X21930000Y-30082500D02*
X21930000Y-38392500D01*
X21930000Y-38392500D02*
X24060000Y-40532500D01*
X24060000Y-40532500D02*
X26300000Y-40532500D01*
X26300000Y-30082500D02*
X21930000Y-30082500D01*
X28000000Y-30082500D02*
X32380000Y-30082500D01*
X30240000Y-40532500D02*
X28000000Y-40532500D01*
X32380000Y-30082500D02*
X32380000Y-38392500D01*
X32380000Y-38392500D02*
X30240000Y-40532500D01*
%TO.C,C22*%
X27290000Y-88262500D02*
X32650000Y-88262500D01*
X27290000Y-95022500D02*
X32650000Y-95022500D01*
X27300000Y-92352500D02*
X27290000Y-95022500D01*
X27310000Y-90902500D02*
X27290000Y-88262500D01*
X32650000Y-88262500D02*
X34050000Y-89662500D01*
X32650000Y-95022500D02*
X34050000Y-93622500D01*
X34050000Y-89662500D02*
X34030000Y-90952500D01*
X34050000Y-93622500D02*
X34050000Y-92332500D01*
%TO.C,C23*%
X27120000Y-69962500D02*
X32480000Y-69962500D01*
X27120000Y-76722500D02*
X32480000Y-76722500D01*
X27130000Y-74052500D02*
X27120000Y-76722500D01*
X27140000Y-72602500D02*
X27120000Y-69962500D01*
X32480000Y-69962500D02*
X33880000Y-71362500D01*
X32480000Y-76722500D02*
X33880000Y-75322500D01*
X33880000Y-71362500D02*
X33860000Y-72652500D01*
X33880000Y-75322500D02*
X33880000Y-74032500D01*
D18*
%TO.C,C30*%
X47890000Y-12220000D02*
X47890000Y-11420000D01*
X47890000Y-12780000D02*
X47890000Y-13580000D01*
X48200000Y-11110000D02*
X49000000Y-11110000D01*
X49000000Y-13890000D02*
X48200000Y-13890000D01*
X49310000Y-12220000D02*
X49310000Y-11420000D01*
X49310000Y-12780000D02*
X49310000Y-13580000D01*
X47890000Y-11420000D02*
G75*
G02*
X48200000Y-11110000I310000J0D01*
G01*
X48200000Y-13890000D02*
G75*
G02*
X47890000Y-13580000I0J310000D01*
G01*
X49000000Y-11110000D02*
G75*
G02*
X49310000Y-11420000I0J-310000D01*
G01*
X49310000Y-13580000D02*
G75*
G02*
X49000000Y-13890000I-310000J0D01*
G01*
D13*
%TO.C,C33*%
X39660000Y-65392500D02*
X39660000Y-66802500D01*
X39660000Y-69012500D02*
X39660000Y-67602500D01*
X41310000Y-65242500D02*
X39810000Y-65242500D01*
X41310000Y-69162500D02*
X39810000Y-69162500D01*
X41460000Y-66802500D02*
X41460000Y-65392500D01*
X41460000Y-67602500D02*
X41460000Y-69012500D01*
X39660000Y-65392500D02*
G75*
G02*
X39810000Y-65242500I150000J0D01*
G01*
X39810000Y-69162500D02*
G75*
G02*
X39660000Y-69012500I0J150000D01*
G01*
X41310000Y-65242500D02*
G75*
G02*
X41460000Y-65392500I0J-150000D01*
G01*
X41460000Y-69012500D02*
G75*
G02*
X41310000Y-69162500I-150000J0D01*
G01*
D18*
%TO.C,C34*%
X47510000Y-15500000D02*
X47510000Y-14700000D01*
X48620000Y-14390000D02*
X47820000Y-14390000D01*
X48620000Y-15810000D02*
X47820000Y-15810000D01*
X49180000Y-14390000D02*
X49980000Y-14390000D01*
X49180000Y-15810000D02*
X49980000Y-15810000D01*
X50290000Y-14700000D02*
X50290000Y-15500000D01*
X47510000Y-14700000D02*
G75*
G02*
X47820000Y-14390000I310000J0D01*
G01*
X47820000Y-15810000D02*
G75*
G02*
X47510000Y-15500000I0J310000D01*
G01*
X49980000Y-14390000D02*
G75*
G02*
X50290000Y-14700000I0J-310000D01*
G01*
X50290000Y-15500000D02*
G75*
G02*
X49980000Y-15810000I-310000J0D01*
G01*
D13*
%TO.C,C35*%
X51500000Y-16100000D02*
X51500000Y-14690000D01*
X51500000Y-16900000D02*
X51500000Y-18310000D01*
X51650000Y-14540000D02*
X53150000Y-14540000D01*
X51650000Y-18460000D02*
X53150000Y-18460000D01*
X53300000Y-14690000D02*
X53300000Y-16100000D01*
X53300000Y-18310000D02*
X53300000Y-16900000D01*
X51500000Y-14690000D02*
G75*
G02*
X51650000Y-14540000I150000J0D01*
G01*
X51650000Y-18460000D02*
G75*
G02*
X51500000Y-18310000I0J150000D01*
G01*
X53150000Y-14540000D02*
G75*
G02*
X53300000Y-14690000I0J-150000D01*
G01*
X53300000Y-18310000D02*
G75*
G02*
X53150000Y-18460000I-150000J0D01*
G01*
%TO.C,D1*%
X68060000Y-35532500D02*
X68060000Y-35292500D01*
X68070000Y-32922500D02*
X68060000Y-32692500D01*
X71540000Y-35532500D02*
X71540000Y-32672500D01*
X73260000Y-32672500D02*
X68060000Y-32672500D01*
X73260000Y-35532500D02*
X68060000Y-35532500D01*
%TO.C,D2*%
X61260000Y-32672500D02*
X66460000Y-32672500D01*
X61260000Y-35532500D02*
X66460000Y-35532500D01*
X62980000Y-32672500D02*
X62980000Y-35532500D01*
X66450000Y-35282500D02*
X66460000Y-35512500D01*
X66460000Y-32672500D02*
X66460000Y-32912500D01*
%TO.C,D4*%
X50110000Y-12640000D02*
X50110000Y-10860000D01*
X53190000Y-12640000D02*
X53190000Y-10860000D01*
D19*
X50130000Y-13050000D02*
G75*
G02*
X49830000Y-13050000I-150000J0D01*
G01*
X49830000Y-13050000D02*
G75*
G02*
X50130000Y-13050000I150000J0D01*
G01*
D18*
%TO.C,J1*%
X40180000Y20000D02*
X40180000Y-1380000D01*
X40180000Y-3780000D02*
X40180000Y-5230000D01*
X41350000Y-6780000D02*
X41140000Y-6780000D01*
X41920000Y-1150000D02*
X42420000Y-1150000D01*
X42420000Y-1150000D02*
X42820000Y-3250000D01*
X42420000Y-3650000D02*
X41920000Y-1150000D01*
X42620000Y-2450000D02*
X42220000Y-2450000D01*
X42820000Y-3250000D02*
X43340000Y-3250000D01*
X43340000Y-3250000D02*
X43750000Y-1150000D01*
X43680000Y-4980000D02*
X43680000Y-5380000D01*
X43680000Y-5380000D02*
X44280000Y-5380000D01*
X43720000Y-3650000D02*
X42420000Y-3650000D01*
X43750000Y-1150000D02*
X44220000Y-1150000D01*
X43920000Y-2450000D02*
X43520000Y-2450000D01*
X44220000Y-1150000D02*
X43720000Y-3650000D01*
X44280000Y-5380000D02*
X44280000Y-5580000D01*
X45080000Y-5380000D02*
X45080000Y-5580000D01*
X45200000Y-1150000D02*
X45690000Y-1150000D01*
X45680000Y-4980000D02*
X45680000Y-5380000D01*
X45680000Y-5380000D02*
X45080000Y-5380000D01*
X45690000Y-1150000D02*
X46090000Y-3250000D01*
X45690000Y-4980000D02*
X43670000Y-4980000D01*
X45700000Y-3650000D02*
X45200000Y-1150000D01*
X45900000Y-2450000D02*
X45500000Y-2450000D01*
X46090000Y-3250000D02*
X46620000Y-3250000D01*
X46620000Y-3250000D02*
X47020000Y-1150000D01*
X47000000Y-3650000D02*
X45700000Y-3650000D01*
X47020000Y-1150000D02*
X47500000Y-1150000D01*
X47200000Y-2450000D02*
X46800000Y-2450000D01*
X47500000Y-1150000D02*
X47000000Y-3650000D01*
X48220000Y-6780000D02*
X48010000Y-6780000D01*
X49180000Y20000D02*
X40180000Y20000D01*
X49180000Y-1380000D02*
X49180000Y-1400000D01*
X49180000Y-1400000D02*
X49180000Y20000D01*
X49180000Y-5180000D02*
X49180000Y-3740000D01*
X49180000Y-5180000D02*
X49180000Y-5220000D01*
%TO.C,J9*%
X-4690000Y-28570000D02*
X8890000Y-28570000D01*
X-4690000Y-29460000D02*
X-4690000Y-28570000D01*
X8930000Y-29460000D02*
X-4690000Y-29460000D01*
X11440000Y-28570000D02*
X13970000Y-28570000D01*
X14010000Y-29460000D02*
X11390000Y-29460000D01*
%TO.C,J10*%
X140000Y-59680000D02*
X2680000Y-59680000D01*
X140000Y-80500000D02*
X140000Y-59770000D01*
X2680000Y-59680000D02*
X2680000Y-80500000D01*
X2680000Y-80500000D02*
X140000Y-80500000D01*
D10*
X10970000Y-77745000D02*
X-13920000Y-77745000D01*
X-13920000Y-80635000D01*
X10970000Y-80635000D01*
X10970000Y-77745000D01*
G36*
X10970000Y-77745000D02*
G01*
X-13920000Y-77745000D01*
X-13920000Y-80635000D01*
X10970000Y-80635000D01*
X10970000Y-77745000D01*
G37*
%TO.C,J11*%
X14695000Y-16945000D02*
X11805000Y-16945000D01*
X11805000Y7945000D01*
X14695000Y7945000D01*
X14695000Y-16945000D01*
G36*
X14695000Y-16945000D02*
G01*
X11805000Y-16945000D01*
X11805000Y7945000D01*
X14695000Y7945000D01*
X14695000Y-16945000D01*
G37*
D18*
X32760000Y-8655000D02*
X11940000Y-8655000D01*
X32760000Y-6115000D02*
X32760000Y-8655000D01*
X11940000Y-8655000D02*
X11940000Y-6115000D01*
X11940000Y-6115000D02*
X32670000Y-6115000D01*
%TO.C,L3*%
X60160000Y-58902500D02*
X73960000Y-58902500D01*
X60160000Y-62572500D02*
X60160000Y-58902500D01*
X60160000Y-71702500D02*
X60160000Y-68032500D01*
X73960000Y-58902500D02*
X73960000Y-62572500D01*
X73960000Y-68032500D02*
X73960000Y-71702500D01*
X73960000Y-71702500D02*
X60160000Y-71702500D01*
D13*
%TO.C,LED2*%
X18250000Y-93662500D02*
X19730000Y-93662500D01*
X18250000Y-94812500D02*
X18250000Y-93662500D01*
X18250000Y-95192500D02*
X18250000Y-96242500D01*
X18550000Y-96542500D02*
X18250000Y-96242500D01*
X18650000Y-94832500D02*
X18660000Y-94832500D01*
X18650000Y-94832500D02*
X19330000Y-94832500D01*
X18650000Y-96542500D02*
X18550000Y-96542500D01*
X18650000Y-96542500D02*
X19350000Y-96542500D01*
X18660000Y-94832500D02*
X19000000Y-95172500D01*
X19000000Y-94832500D02*
X19000000Y-95172500D01*
X19330000Y-94832500D02*
X19330000Y-94842500D01*
X19330000Y-94842500D02*
X19000000Y-95172500D01*
X19350000Y-96542500D02*
X19450000Y-96542500D01*
X19450000Y-96542500D02*
X19750000Y-96242500D01*
X19750000Y-94812500D02*
X19750000Y-93662500D01*
X19750000Y-95192500D02*
X19750000Y-96242500D01*
%TO.C,LED3*%
X20750000Y-93662500D02*
X22230000Y-93662500D01*
X20750000Y-94812500D02*
X20750000Y-93662500D01*
X20750000Y-95192500D02*
X20750000Y-96242500D01*
X21050000Y-96542500D02*
X20750000Y-96242500D01*
X21150000Y-94832500D02*
X21160000Y-94832500D01*
X21150000Y-94832500D02*
X21830000Y-94832500D01*
X21150000Y-96542500D02*
X21050000Y-96542500D01*
X21150000Y-96542500D02*
X21850000Y-96542500D01*
X21160000Y-94832500D02*
X21500000Y-95172500D01*
X21500000Y-94832500D02*
X21500000Y-95172500D01*
X21830000Y-94832500D02*
X21830000Y-94842500D01*
X21830000Y-94842500D02*
X21500000Y-95172500D01*
X21850000Y-96542500D02*
X21950000Y-96542500D01*
X21950000Y-96542500D02*
X22250000Y-96242500D01*
X22250000Y-94812500D02*
X22250000Y-93662500D01*
X22250000Y-95192500D02*
X22250000Y-96242500D01*
%TO.C,LED4*%
X23250000Y-93662500D02*
X24730000Y-93662500D01*
X23250000Y-94812500D02*
X23250000Y-93662500D01*
X23250000Y-95192500D02*
X23250000Y-96242500D01*
X23550000Y-96542500D02*
X23250000Y-96242500D01*
X23650000Y-94832500D02*
X23660000Y-94832500D01*
X23650000Y-94832500D02*
X24330000Y-94832500D01*
X23650000Y-96542500D02*
X23550000Y-96542500D01*
X23650000Y-96542500D02*
X24350000Y-96542500D01*
X23660000Y-94832500D02*
X24000000Y-95172500D01*
X24000000Y-94832500D02*
X24000000Y-95172500D01*
X24330000Y-94832500D02*
X24330000Y-94842500D01*
X24330000Y-94842500D02*
X24000000Y-95172500D01*
X24350000Y-96542500D02*
X24450000Y-96542500D01*
X24450000Y-96542500D02*
X24750000Y-96242500D01*
X24750000Y-94812500D02*
X24750000Y-93662500D01*
X24750000Y-95192500D02*
X24750000Y-96242500D01*
%TO.C,R2*%
X38200000Y-24812500D02*
X39520000Y-24812500D01*
X38200000Y-25772500D02*
X38200000Y-24812500D01*
X38200000Y-26632500D02*
X38200000Y-27592500D01*
X38200000Y-27592500D02*
X39520000Y-27592500D01*
X39520000Y-24812500D02*
X39520000Y-25772500D01*
X39520000Y-27592500D02*
X39520000Y-26632500D01*
%TO.C,R4*%
X38400000Y-45512500D02*
X38400000Y-46472500D01*
X38400000Y-48292500D02*
X38400000Y-47332500D01*
X39720000Y-45512500D02*
X38400000Y-45512500D01*
X39720000Y-46472500D02*
X39720000Y-45512500D01*
X39720000Y-47332500D02*
X39720000Y-48292500D01*
X39720000Y-48292500D02*
X38400000Y-48292500D01*
%TO.C,R5*%
X37900000Y-65962500D02*
X39220000Y-65962500D01*
X37900000Y-66922500D02*
X37900000Y-65962500D01*
X37900000Y-67782500D02*
X37900000Y-68742500D01*
X37900000Y-68742500D02*
X39220000Y-68742500D01*
X39220000Y-65962500D02*
X39220000Y-66922500D01*
X39220000Y-68742500D02*
X39220000Y-67782500D01*
D20*
%TO.C,TP2*%
X64410000Y-5170000D02*
G75*
G02*
X62510000Y-5170000I-950000J0D01*
G01*
X62510000Y-5170000D02*
G75*
G02*
X64410000Y-5170000I950000J0D01*
G01*
D18*
%TO.C,TVS1*%
X31100000Y-17900000D02*
X31420000Y-17900000D01*
X31100000Y-22500000D02*
X31100000Y-17900000D01*
X31100000Y-22500000D02*
X31420000Y-22500000D01*
X31840000Y-19690000D02*
X32600000Y-20450000D01*
X32600000Y-18930000D02*
X32600000Y-21220000D01*
X32600000Y-20450000D02*
X33360000Y-19690000D01*
X33360000Y-19690000D02*
X31840000Y-19690000D01*
X33360000Y-20450000D02*
X31840000Y-20450000D01*
X33780000Y-17900000D02*
X34100000Y-17900000D01*
X33780000Y-22500000D02*
X34100000Y-22500000D01*
X34100000Y-17900000D02*
X34100000Y-22500000D01*
D13*
%TO.C,TVS2*%
X19770000Y-77942500D02*
X19890000Y-77942500D01*
X19770000Y-78142500D02*
X19770000Y-77942500D01*
X19770000Y-78142500D02*
X19890000Y-78142500D01*
X19770000Y-78742500D02*
X21370000Y-78742500D01*
X19770000Y-80142500D02*
X19770000Y-78142500D01*
X19770000Y-80142500D02*
X19770000Y-80342500D01*
X19770000Y-80342500D02*
X19890000Y-80342500D01*
X19890000Y-77942500D02*
X19890000Y-78142500D01*
X21250000Y-77942500D02*
X21370000Y-77942500D01*
X21250000Y-78142500D02*
X21250000Y-77942500D01*
X21250000Y-78142500D02*
X21370000Y-78142500D01*
X21250000Y-80342500D02*
X21370000Y-80342500D01*
X21370000Y-77942500D02*
X21370000Y-78142500D01*
X21370000Y-80142500D02*
X21370000Y-78142500D01*
X21370000Y-80342500D02*
X21370000Y-80142500D01*
D18*
%TO.C,TVS3*%
X44460000Y-92602500D02*
X44460000Y-92922500D01*
X44460000Y-92602500D02*
X49060000Y-92602500D01*
X44460000Y-95282500D02*
X44460000Y-95602500D01*
X46510000Y-94102500D02*
X47270000Y-94862500D01*
X46510000Y-94862500D02*
X46510000Y-93342500D01*
X47270000Y-93342500D02*
X46510000Y-94102500D01*
X47270000Y-94862500D02*
X47270000Y-93342500D01*
X48030000Y-94102500D02*
X45740000Y-94102500D01*
X49060000Y-92602500D02*
X49060000Y-92922500D01*
X49060000Y-95282500D02*
X49060000Y-95602500D01*
X49060000Y-95602500D02*
X44460000Y-95602500D01*
D15*
%TO.C,U1*%
X42740000Y-10750000D02*
X43140000Y-10750000D01*
X42740000Y-11150000D02*
X42740000Y-10750000D01*
X42740000Y-14650000D02*
X42740000Y-15050000D01*
X42740000Y-15050000D02*
X43140000Y-15050000D01*
X46640000Y-10750000D02*
X47040000Y-10750000D01*
X47040000Y-10750000D02*
X47040000Y-11150000D01*
X47040000Y-14650000D02*
X47040000Y-15050000D01*
X47040000Y-15050000D02*
X46640000Y-15050000D01*
D13*
%TO.C,U3*%
X47700000Y-40742500D02*
X47700000Y-51062500D01*
X48050000Y-40742500D02*
X49860000Y-40742500D01*
X48070000Y-51062500D02*
X49860000Y-51062500D01*
X48170000Y-40742500D02*
X47700000Y-40742500D01*
X48170000Y-51062500D02*
X47700000Y-51062500D01*
D17*
X44340000Y-41332500D02*
G75*
G02*
X43940000Y-41332500I-200000J0D01*
G01*
X43940000Y-41332500D02*
G75*
G02*
X44340000Y-41332500I200000J0D01*
G01*
D18*
%TO.C,U6*%
X28800000Y-52992500D02*
X30650000Y-52992500D01*
X30650000Y-42822500D02*
X28750000Y-42822500D01*
X30650000Y-52992500D02*
X30650000Y-42822500D01*
X35800000Y-51662500D02*
G75*
G02*
X35540000Y-51662500I-130000J0D01*
G01*
X35540000Y-51662500D02*
G75*
G02*
X35800000Y-51662500I130000J0D01*
G01*
%TO.C,U7*%
X32310000Y-87542500D02*
X34470000Y-87542500D01*
X34470000Y-77542500D02*
X32310000Y-77542500D01*
X34470000Y-79342500D02*
X36270000Y-79342500D01*
X34470000Y-84422500D02*
X36270000Y-84422500D01*
X34470000Y-87542500D02*
X34470000Y-77542500D01*
X36270000Y-79342500D02*
X36270000Y-80672500D01*
X36270000Y-80672500D02*
X34470000Y-80672500D01*
X36270000Y-84422500D02*
X36270000Y-85752500D01*
X36270000Y-85752500D02*
X34470000Y-85752500D01*
D17*
X35470000Y-86542500D02*
G75*
G02*
X35070000Y-86542500I-200000J0D01*
G01*
X35070000Y-86542500D02*
G75*
G02*
X35470000Y-86542500I200000J0D01*
G01*
D18*
%TO.C,U8*%
X41340000Y-78022500D02*
X41340000Y-85262500D01*
X41340000Y-78152500D02*
X41340000Y-78022500D01*
X41340000Y-85262500D02*
X47950000Y-85262500D01*
X47950000Y-78022500D02*
X47950000Y-77892500D01*
X47950000Y-85262500D02*
X47950000Y-78022500D01*
%TO.C,Q1*%
X44800000Y-16800000D02*
X45800000Y-16800000D01*
X44800000Y-17660000D02*
X44800000Y-16800000D01*
X44800000Y-19800000D02*
X44800000Y-18930000D01*
X44800000Y-19800000D02*
X45800000Y-19800000D01*
X46200000Y-18610000D02*
X46200000Y-17980000D01*
D13*
%TO.C,C19*%
X48340000Y-84232500D02*
X48340000Y-85642500D01*
X48340000Y-87852500D02*
X48340000Y-86442500D01*
X49990000Y-84082500D02*
X48490000Y-84082500D01*
X49990000Y-88002500D02*
X48490000Y-88002500D01*
X50140000Y-85642500D02*
X50140000Y-84232500D01*
X50140000Y-86442500D02*
X50140000Y-87852500D01*
X48340000Y-84232500D02*
G75*
G02*
X48490000Y-84082500I150000J0D01*
G01*
X48490000Y-88002500D02*
G75*
G02*
X48340000Y-87852500I0J150000D01*
G01*
X49990000Y-84082500D02*
G75*
G02*
X50140000Y-84232500I0J-150000D01*
G01*
X50140000Y-87852500D02*
G75*
G02*
X49990000Y-88002500I-150000J0D01*
G01*
D18*
%TO.C,J7*%
X-4690000Y-36230000D02*
X8890000Y-36230000D01*
X-4690000Y-37120000D02*
X-4690000Y-36230000D01*
X8930000Y-37120000D02*
X-4690000Y-37120000D01*
X11440000Y-36230000D02*
X13970000Y-36230000D01*
X14010000Y-37120000D02*
X11390000Y-37120000D01*
D20*
%TO.C,TP1*%
X60910000Y-5220000D02*
G75*
G02*
X59010000Y-5220000I-950000J0D01*
G01*
X59010000Y-5220000D02*
G75*
G02*
X60910000Y-5220000I950000J0D01*
G01*
D13*
%TO.C,C32*%
X40060000Y-48302500D02*
X40060000Y-46892500D01*
X40060000Y-49102500D02*
X40060000Y-50512500D01*
X40210000Y-46742500D02*
X41710000Y-46742500D01*
X40210000Y-50662500D02*
X41710000Y-50662500D01*
X41860000Y-46892500D02*
X41860000Y-48302500D01*
X41860000Y-50512500D02*
X41860000Y-49102500D01*
X40060000Y-46892500D02*
G75*
G02*
X40210000Y-46742500I150000J0D01*
G01*
X40210000Y-50662500D02*
G75*
G02*
X40060000Y-50512500I0J150000D01*
G01*
X41710000Y-46742500D02*
G75*
G02*
X41860000Y-46892500I0J-150000D01*
G01*
X41860000Y-50512500D02*
G75*
G02*
X41710000Y-50662500I-150000J0D01*
G01*
D18*
%TO.C,L2*%
X60060000Y-36302500D02*
X73860000Y-36302500D01*
X60060000Y-39972500D02*
X60060000Y-36302500D01*
X60060000Y-49102500D02*
X60060000Y-45432500D01*
X73860000Y-36302500D02*
X73860000Y-39972500D01*
X73860000Y-45432500D02*
X73860000Y-49102500D01*
X73860000Y-49102500D02*
X60060000Y-49102500D01*
%TO.C,C16*%
X48430000Y-82170000D02*
X48430000Y-81370000D01*
X48430000Y-82730000D02*
X48430000Y-83530000D01*
X48740000Y-81060000D02*
X49540000Y-81060000D01*
X49540000Y-83840000D02*
X48740000Y-83840000D01*
X49850000Y-82170000D02*
X49850000Y-81370000D01*
X49850000Y-82730000D02*
X49850000Y-83530000D01*
X48430000Y-81370000D02*
G75*
G02*
X48740000Y-81060000I310000J0D01*
G01*
X48740000Y-83840000D02*
G75*
G02*
X48430000Y-83530000I0J310000D01*
G01*
X49540000Y-81060000D02*
G75*
G02*
X49850000Y-81370000I0J-310000D01*
G01*
X49850000Y-83530000D02*
G75*
G02*
X49540000Y-83840000I-310000J0D01*
G01*
D13*
%TO.C,PTC3*%
X45090000Y-89862500D02*
X45090000Y-91742500D01*
X45240000Y-91892500D02*
X46430000Y-91892500D01*
X46430000Y-89712500D02*
X45240000Y-89712500D01*
X48290000Y-89712500D02*
X49480000Y-89712500D01*
X49480000Y-91892500D02*
X48290000Y-91892500D01*
X49630000Y-89862500D02*
X49630000Y-91742500D01*
D21*
X47358731Y-90800301D02*
G75*
G02*
X47360000Y-91642500I-728730J-422198D01*
G01*
X47361269Y-90804699D02*
G75*
G02*
X47360000Y-89962500I728731J422199D01*
G01*
D13*
%TO.C,R9*%
X40800000Y-89982500D02*
X40800000Y-91822500D01*
X40800000Y-91822500D02*
X42080000Y-91822500D01*
X42080000Y-89982500D02*
X40800000Y-89982500D01*
X43040000Y-89982500D02*
X44320000Y-89982500D01*
X44320000Y-89982500D02*
X44320000Y-91822500D01*
X44320000Y-91822500D02*
X43040000Y-91822500D01*
%TO.C,PTC1*%
X31150000Y-24310000D02*
X31150000Y-25700000D01*
X31150000Y-28890000D02*
X31150000Y-27500000D01*
X31400000Y-23930000D02*
X34200000Y-23930000D01*
X31400000Y-29270000D02*
X34200000Y-29270000D01*
X34450000Y-25710000D02*
X34450000Y-24310000D01*
X34450000Y-27490000D02*
X34450000Y-28890000D01*
X32800000Y-26600000D02*
G75*
G02*
X32420000Y-26600000I-190000J0D01*
G01*
X32800000Y-26600000D02*
G75*
G02*
X33180000Y-26600000I190000J0D01*
G01*
%TO.C,R1*%
X38200000Y-28112500D02*
X38200000Y-29072500D01*
X38200000Y-30892500D02*
X38200000Y-29932500D01*
X39520000Y-28112500D02*
X38200000Y-28112500D01*
X39520000Y-29072500D02*
X39520000Y-28112500D01*
X39520000Y-29932500D02*
X39520000Y-30892500D01*
X39520000Y-30892500D02*
X38200000Y-30892500D01*
%TO.C,PTC2*%
X19680000Y-76522500D02*
X19680000Y-72962500D01*
X19930000Y-76772500D02*
X21200000Y-76772500D01*
X21200000Y-72712500D02*
X19930000Y-72712500D01*
X23740000Y-72712500D02*
X25010000Y-72712500D01*
X25010000Y-76772500D02*
X23700000Y-76772500D01*
X25260000Y-76542500D02*
X25260000Y-72982500D01*
X22464634Y-74731540D02*
G75*
G02*
X22470000Y-75372500I-54634J-320960D01*
G01*
X22475366Y-74753460D02*
G75*
G02*
X22470000Y-74112500I54634J320960D01*
G01*
D20*
%TO.C,TP5*%
X74510000Y-84802500D02*
G75*
G02*
X72610000Y-84802500I-950000J0D01*
G01*
X72610000Y-84802500D02*
G75*
G02*
X74510000Y-84802500I950000J0D01*
G01*
D13*
%TO.C,R7*%
X32880000Y-31040000D02*
X34720000Y-31040000D01*
X32880000Y-32320000D02*
X32880000Y-31040000D01*
X32880000Y-33280000D02*
X32880000Y-34560000D01*
X32880000Y-34560000D02*
X34720000Y-34560000D01*
X34720000Y-31040000D02*
X34720000Y-32320000D01*
X34720000Y-34560000D02*
X34720000Y-33280000D01*
%TO.C,R3*%
X38400000Y-49112500D02*
X39720000Y-49112500D01*
X38400000Y-50072500D02*
X38400000Y-49112500D01*
X38400000Y-50932500D02*
X38400000Y-51892500D01*
X38400000Y-51892500D02*
X39720000Y-51892500D01*
X39720000Y-49112500D02*
X39720000Y-50072500D01*
X39720000Y-51892500D02*
X39720000Y-50932500D01*
%TO.C,R11*%
X41660000Y-15440000D02*
X42620000Y-15440000D01*
X41660000Y-16760000D02*
X41660000Y-15440000D01*
X42620000Y-16760000D02*
X41660000Y-16760000D01*
X43480000Y-16760000D02*
X44440000Y-16760000D01*
X44440000Y-15440000D02*
X43480000Y-15440000D01*
X44440000Y-16760000D02*
X44440000Y-15440000D01*
%TO.C,R8*%
X22990000Y-70080000D02*
X22990000Y-71920000D01*
X22990000Y-71920000D02*
X24270000Y-71920000D01*
X24270000Y-70080000D02*
X22990000Y-70080000D01*
X25230000Y-70080000D02*
X26510000Y-70080000D01*
X26510000Y-70080000D02*
X26510000Y-71920000D01*
X26510000Y-71920000D02*
X25230000Y-71920000D01*
%TO.C,C31*%
X39960000Y-27602500D02*
X39960000Y-26192500D01*
X39960000Y-28402500D02*
X39960000Y-29812500D01*
X40110000Y-26042500D02*
X41610000Y-26042500D01*
X40110000Y-29962500D02*
X41610000Y-29962500D01*
X41760000Y-26192500D02*
X41760000Y-27602500D01*
X41760000Y-29812500D02*
X41760000Y-28402500D01*
X39960000Y-26192500D02*
G75*
G02*
X40110000Y-26042500I150000J0D01*
G01*
X40110000Y-29962500D02*
G75*
G02*
X39960000Y-29812500I0J150000D01*
G01*
X41610000Y-26042500D02*
G75*
G02*
X41760000Y-26192500I0J-150000D01*
G01*
X41760000Y-29812500D02*
G75*
G02*
X41610000Y-29962500I-150000J0D01*
G01*
%TO.C,R12*%
X48360000Y-16540000D02*
X49320000Y-16540000D01*
X48360000Y-17860000D02*
X48360000Y-16540000D01*
X49320000Y-17860000D02*
X48360000Y-17860000D01*
X50180000Y-17860000D02*
X51140000Y-17860000D01*
X51140000Y-16540000D02*
X50180000Y-16540000D01*
X51140000Y-17860000D02*
X51140000Y-16540000D01*
%TO.C,C9*%
X39920000Y-53032500D02*
X45280000Y-53032500D01*
X39920000Y-59782500D02*
X45270000Y-59782500D01*
X39930000Y-57112500D02*
X39920000Y-59782500D01*
X39940000Y-55672500D02*
X39920000Y-53032500D01*
X45270000Y-59782500D02*
X46670000Y-58382500D01*
X45280000Y-53032500D02*
X46670000Y-54422500D01*
X46670000Y-54422500D02*
X46660000Y-55722500D01*
X46670000Y-58382500D02*
X46670000Y-57092500D01*
%TO.C,C24*%
X48920000Y-70370000D02*
X57230000Y-70370000D01*
X48920000Y-74750000D02*
X48920000Y-70370000D01*
X48920000Y-76450000D02*
X48920000Y-80820000D01*
X48920000Y-80820000D02*
X57230000Y-80820000D01*
X57230000Y-70370000D02*
X59370000Y-72510000D01*
X57230000Y-80820000D02*
X59370000Y-78690000D01*
X59370000Y-72510000D02*
X59370000Y-74750000D01*
X59370000Y-78690000D02*
X59370000Y-76450000D01*
%TO.C,R13*%
X40660000Y-17140000D02*
X40660000Y-18460000D01*
X40660000Y-18460000D02*
X41620000Y-18460000D01*
X41620000Y-17140000D02*
X40660000Y-17140000D01*
X42480000Y-17140000D02*
X43440000Y-17140000D01*
X43440000Y-17140000D02*
X43440000Y-18460000D01*
X43440000Y-18460000D02*
X42480000Y-18460000D01*
D18*
%TO.C,J8*%
X-4690000Y-44320000D02*
X8890000Y-44320000D01*
X-4690000Y-45210000D02*
X-4690000Y-44320000D01*
X8930000Y-45210000D02*
X-4690000Y-45210000D01*
X11440000Y-44320000D02*
X13970000Y-44320000D01*
X14010000Y-45210000D02*
X11390000Y-45210000D01*
D13*
%TO.C,R6*%
X37900000Y-62762500D02*
X37900000Y-63722500D01*
X37900000Y-65542500D02*
X37900000Y-64582500D01*
X39220000Y-62762500D02*
X37900000Y-62762500D01*
X39220000Y-63722500D02*
X39220000Y-62762500D01*
X39220000Y-64582500D02*
X39220000Y-65542500D01*
X39220000Y-65542500D02*
X37900000Y-65542500D01*
%TO.C,D3*%
X57960000Y-57032500D02*
X57960000Y-56792500D01*
X57970000Y-54422500D02*
X57960000Y-54192500D01*
X61440000Y-57032500D02*
X61440000Y-54172500D01*
X63160000Y-54172500D02*
X57960000Y-54172500D01*
X63160000Y-57032500D02*
X57960000Y-57032500D01*
D18*
%TO.C,J6*%
X-4690000Y-20470000D02*
X8890000Y-20470000D01*
X-4690000Y-21360000D02*
X-4690000Y-20470000D01*
X8930000Y-21360000D02*
X-4690000Y-21360000D01*
X11440000Y-20470000D02*
X13970000Y-20470000D01*
X14010000Y-21360000D02*
X11390000Y-21360000D01*
%TO.C,L1*%
X60260000Y-19102500D02*
X74060000Y-19102500D01*
X60260000Y-22772500D02*
X60260000Y-19102500D01*
X60260000Y-31902500D02*
X60260000Y-28232500D01*
X74060000Y-19102500D02*
X74060000Y-22772500D01*
X74060000Y-28232500D02*
X74060000Y-31902500D01*
X74060000Y-31902500D02*
X60260000Y-31902500D01*
D13*
%TO.C,C10*%
X39560000Y-62202500D02*
X39560000Y-60792500D01*
X39560000Y-63002500D02*
X39560000Y-64412500D01*
X39710000Y-60642500D02*
X41210000Y-60642500D01*
X39710000Y-64562500D02*
X41210000Y-64562500D01*
X41360000Y-60792500D02*
X41360000Y-62202500D01*
X41360000Y-64412500D02*
X41360000Y-63002500D01*
X39560000Y-60792500D02*
G75*
G02*
X39710000Y-60642500I150000J0D01*
G01*
X39710000Y-64562500D02*
G75*
G02*
X39560000Y-64412500I0J150000D01*
G01*
X41210000Y-60642500D02*
G75*
G02*
X41360000Y-60792500I0J-150000D01*
G01*
X41360000Y-64412500D02*
G75*
G02*
X41210000Y-64562500I-150000J0D01*
G01*
D20*
%TO.C,TP4*%
X74510000Y-51302500D02*
G75*
G02*
X72610000Y-51302500I-950000J0D01*
G01*
X72610000Y-51302500D02*
G75*
G02*
X74510000Y-51302500I950000J0D01*
G01*
%TO.C,TP3*%
X68550000Y-5200000D02*
G75*
G02*
X66650000Y-5200000I-950000J0D01*
G01*
X66650000Y-5200000D02*
G75*
G02*
X68550000Y-5200000I950000J0D01*
G01*
D13*
%TO.C,C25*%
X51330000Y-84712500D02*
X53470000Y-82572500D01*
X51330000Y-93022500D02*
X51330000Y-84712500D01*
X53470000Y-82572500D02*
X55710000Y-82572500D01*
X55710000Y-93022500D02*
X51330000Y-93022500D01*
X57410000Y-93022500D02*
X61780000Y-93022500D01*
X59650000Y-82572500D02*
X57410000Y-82572500D01*
X61780000Y-84712500D02*
X59650000Y-82572500D01*
X61780000Y-93022500D02*
X61780000Y-84712500D01*
%TO.C,U4*%
X47060000Y-59242500D02*
X47060000Y-69562500D01*
X47410000Y-59242500D02*
X49220000Y-59242500D01*
X47430000Y-69562500D02*
X49220000Y-69562500D01*
X47530000Y-59242500D02*
X47060000Y-59242500D01*
X47530000Y-69562500D02*
X47060000Y-69562500D01*
D17*
X43700000Y-59832500D02*
G75*
G02*
X43300000Y-59832500I-200000J0D01*
G01*
X43300000Y-59832500D02*
G75*
G02*
X43700000Y-59832500I200000J0D01*
G01*
%TD*%
M02*
