M48
; DRILL file {KiCad 9.0.6} date 2026-02-04T05:23:08+0900
; FORMAT={-:-/ absolute / metric / decimal}
; #@! TF.CreationDate,2026-02-04T05:23:08+09:00
; #@! TF.GenerationSoftware,Kicad,Pcbnew,9.0.6
; #@! TF.FileFunction,Plated,1,2,PTH
FMAT,2
METRIC
; #@! TA.AperFunction,Plated,PTH,ViaDrill
T1C0.300
; #@! TA.AperFunction,Plated,PTH,ViaDrill
T2C0.400
; #@! TA.AperFunction,Plated,PTH,ViaDrill
T3C0.600
; #@! TA.AperFunction,Plated,PTH,ComponentDrill
T4C0.700
; #@! TA.AperFunction,Plated,PTH,ViaDrill
T5C0.800
; #@! TA.AperFunction,Plated,PTH,ComponentDrill
T6C1.100
; #@! TA.AperFunction,Plated,PTH,ComponentDrill
T7C1.400
; #@! TA.AperFunction,Plated,PTH,ViaDrill
T8C1.800
%
G90
G05
T1
X16.1Y-94.33
X21.8Y-43.6
X21.8Y-45.4
X21.8Y-47.2
X21.8Y-49.0
X21.8Y-50.8
X21.8Y-52.4
X23.6Y-43.6
X23.6Y-45.4
X23.6Y-47.2
X23.6Y-49.0
X23.6Y-50.8
X23.6Y-52.4
X24.8Y-78.2
X24.8Y-80.0
X24.8Y-81.8
X24.8Y-83.6
X24.8Y-85.4
X24.8Y-87.0
X25.4Y-43.6
X25.4Y-45.4
X25.4Y-47.2
X25.4Y-49.0
X25.4Y-50.8
X25.4Y-52.4
X26.6Y-78.2
X26.6Y-80.0
X26.6Y-81.8
X26.6Y-83.6
X26.6Y-85.4
X26.6Y-87.0
X27.2Y-43.6
X27.2Y-45.4
X27.2Y-47.2
X27.2Y-49.0
X27.2Y-50.8
X27.2Y-52.4
X28.4Y-78.2
X28.4Y-80.0
X28.4Y-81.8
X28.4Y-83.6
X28.4Y-85.4
X28.4Y-87.0
X30.2Y-78.2
X30.2Y-80.0
X30.2Y-81.8
X30.2Y-83.6
X30.2Y-85.4
X30.2Y-87.0
X38.66Y-4.27
X42.1Y-14.1
X42.1Y-14.8
X43.8Y-11.8
X43.8Y-12.5
X43.8Y-13.3
X43.8Y-14.0
X43.9Y-10.1
X44.18Y-7.61
X44.5Y-11.8
X44.5Y-12.5
X44.5Y-13.3
X44.5Y-14.0
X45.18Y-8.18
X45.3Y-9.09
X45.3Y-11.8
X45.3Y-12.5
X45.3Y-13.3
X45.3Y-14.0
X45.4Y-10.1
X46.0Y-11.8
X46.0Y-12.5
X46.0Y-13.3
X46.0Y-14.0
X46.2Y-10.1
X46.41Y-1.23
X46.7Y-15.7
X47.579Y-10.779
X47.579Y-16.279
X47.8Y-17.6
X48.5Y-18.4
X49.7Y-10.0
X49.85Y-13.803
X50.37Y-7.15
X50.68Y-8.52
X51.25Y-16.35
X51.6Y-20.8
X51.6Y-22.6
X51.6Y-24.4
X51.6Y-26.2
X51.6Y-28.0
X51.6Y-29.6
X51.6Y-41.4
X51.6Y-43.2
X51.6Y-45.0
X51.6Y-46.8
X51.6Y-48.6
X51.6Y-50.2
X51.65Y-11.7
X52.56Y-9.59
X53.37Y-4.17
X53.4Y-20.8
X53.4Y-22.6
X53.4Y-24.4
X53.4Y-26.2
X53.4Y-28.0
X53.4Y-29.6
X53.4Y-41.4
X53.4Y-43.2
X53.4Y-45.0
X53.4Y-46.8
X53.4Y-48.6
X53.4Y-50.2
X53.82Y-11.68
X54.9Y-15.5
X55.2Y-20.8
X55.2Y-22.6
X55.2Y-24.4
X55.2Y-26.2
X55.2Y-28.0
X55.2Y-29.6
X55.2Y-41.4
X55.2Y-43.2
X55.2Y-45.0
X55.2Y-46.8
X55.2Y-48.6
X55.2Y-50.2
X55.4Y-13.96
X56.61Y-8.156
X57.0Y-20.8
X57.0Y-22.6
X57.0Y-24.4
X57.0Y-26.2
X57.0Y-28.0
X57.0Y-29.6
X57.0Y-41.4
X57.0Y-43.2
X57.0Y-45.0
X57.0Y-46.8
X57.0Y-48.6
X57.0Y-50.2
X57.64Y-8.4
T2
X38.56Y-70.0
X42.5Y-69.263
T3
X15.74Y-95.86
X16.98Y-80.37
X16.985Y-77.115
X26.0Y-94.302
X31.2Y-34.6
X36.5Y-25.453
X36.5Y-26.952
X36.5Y-30.252
X37.56Y-53.203
X38.0Y-48.25
X38.5Y-77.0
X39.5Y-44.75
X40.0Y-88.0
X40.21Y-51.75
X40.3Y-40.95
X41.5Y-95.0
X43.1Y-53.203
X44.0Y-30.0
X47.05Y-25.975
X47.25Y-45.75
X47.25Y-49.5
X47.66Y-23.402
X65.2Y-50.633
X69.75Y-25.5
T5
X15.24Y-32.5
X19.15Y-34.01
X22.5Y-56.25
X24.675Y-31.925
X28.5Y-89.5
X29.0Y-71.0
X34.25Y-87.9
X34.26Y-61.852
X35.38Y-22.67
X36.46Y-47.502
X37.66Y-43.902
X39.0Y-22.1
X40.5Y-34.0
X44.65Y-2.62
X46.46Y-62.002
X46.5Y-21.7
X47.9Y-58.0
X48.0Y-34.5
X59.0Y-12.9
X64.0Y-37.0
X70.5Y-37.0
T6
X4.5Y-61.2
X4.5Y-63.74
X4.5Y-66.28
X4.5Y-68.82
X4.5Y-71.36
X4.5Y-73.9
X4.5Y-76.44
X4.5Y-78.98
X7.04Y-61.2
X7.04Y-63.74
X7.04Y-66.28
X7.04Y-68.82
X7.04Y-71.36
X7.04Y-73.9
X7.04Y-76.44
X7.04Y-78.98
X13.46Y-10.475
X13.46Y-13.015
X16.0Y-10.475
X16.0Y-13.015
X18.54Y-10.475
X18.54Y-13.015
X21.08Y-10.475
X21.08Y-13.015
X23.62Y-10.475
X23.62Y-13.015
X26.16Y-10.475
X26.16Y-13.015
X28.7Y-10.475
X28.7Y-13.015
X31.24Y-10.475
X31.24Y-13.015
T7
X10.16Y-20.85
X10.16Y-28.95
X10.16Y-36.61
X10.16Y-44.7
X15.24Y-20.85
X15.24Y-28.95
X15.24Y-36.61
X15.24Y-44.7
T8
X6.35Y-28.95
X31.2Y-37.7
X67.0Y-62.0
X67.8Y-68.3
X69.5Y-16.5
X70.5Y-74.5
X71.5Y-54.0
T4
G00X40.36Y-2.97
M15
G01X40.36Y-2.17
M16
G05
G00X40.36Y-6.78
M15
G01X40.36Y-5.98
M16
G05
G00X49.0Y-2.97
M15
G01X49.0Y-2.17
M16
G05
G00X49.0Y-6.78
M15
G01X49.0Y-5.98
M16
G05
M30
